M48
;DRILL file {KiCad 4.0.6-e0-6349~53~ubuntu16.04.1} date Sun Aug 13 20:05:03 2017
;FORMAT={-:-/ absolute / metric / decimal}
FMAT,2
METRIC,TZ
T1C0.500
T2C1.349
T3C2.700
T4C3.200
%
G90
G05
M71
T1
X53.6Y-125.
X53.6Y-135.
X53.6Y-145.
X53.6Y-156.
X54.303Y-123.303
X54.303Y-126.697
X54.303Y-133.303
X54.303Y-136.697
X54.303Y-143.303
X54.303Y-146.697
X54.303Y-154.303
X54.303Y-157.697
X56.Y-122.6
X56.Y-127.4
X56.Y-132.6
X56.Y-137.4
X56.Y-142.6
X56.Y-147.4
X56.Y-153.6
X56.Y-158.4
X57.697Y-123.303
X57.697Y-126.697
X57.697Y-133.303
X57.697Y-136.697
X57.697Y-143.303
X57.697Y-146.697
X57.697Y-154.303
X57.697Y-157.697
X58.4Y-125.
X58.4Y-135.
X58.4Y-145.
X58.4Y-156.
X147.6Y-125.
X147.6Y-135.
X147.6Y-145.
X147.6Y-156.
X148.303Y-123.303
X148.303Y-126.697
X148.303Y-133.303
X148.303Y-136.697
X148.303Y-143.303
X148.303Y-146.697
X148.303Y-154.303
X148.303Y-157.697
X150.Y-122.6
X150.Y-127.4
X150.Y-132.6
X150.Y-137.4
X150.Y-142.6
X150.Y-147.4
X150.Y-153.6
X150.Y-158.4
X151.697Y-123.303
X151.697Y-126.697
X151.697Y-133.303
X151.697Y-136.697
X151.697Y-143.303
X151.697Y-146.697
X151.697Y-154.303
X151.697Y-157.697
X152.4Y-125.
X152.4Y-135.
X152.4Y-145.
X152.4Y-156.
T2
X69.339Y-122.46
X69.339Y-127.54
X69.339Y-132.46
X69.339Y-137.54
X69.339Y-142.92
X69.339Y-148.
X69.339Y-153.46
X69.339Y-158.54
X84.661Y-122.46
X84.661Y-127.54
X84.661Y-132.46
X84.661Y-137.54
X84.661Y-142.92
X84.661Y-148.
X84.661Y-153.46
X84.661Y-158.54
X121.339Y-122.46
X121.339Y-127.54
X121.339Y-132.46
X121.339Y-137.54
X121.339Y-142.46
X121.339Y-147.54
X121.339Y-153.657
X121.339Y-158.737
X136.661Y-122.46
X136.661Y-127.54
X136.661Y-132.46
X136.661Y-137.54
X136.661Y-142.46
X136.661Y-147.54
X136.661Y-153.657
X136.661Y-158.737
T3
X97.5Y-121.5
X97.5Y-126.71
X97.5Y-131.92
X97.5Y-149.5
X97.5Y-154.71
X97.5Y-159.92
X108.3Y-121.5
X108.3Y-126.71
X108.3Y-131.92
X108.3Y-149.5
X108.3Y-154.71
X108.3Y-159.92
T4
X56.Y-125.
X56.Y-135.
X56.Y-145.
X56.Y-156.
X150.Y-125.
X150.Y-135.
X150.Y-145.
X150.Y-156.
T0
M30
