G04 #@! TF.FileFunction,Legend,Top*
%FSLAX46Y46*%
G04 Gerber Fmt 4.6, Leading zero omitted, Abs format (unit mm)*
G04 Created by KiCad (PCBNEW 4.0.6-e0-6349~53~ubuntu16.04.1) date Sun Aug 13 20:05:00 2017*
%MOMM*%
%LPD*%
G01*
G04 APERTURE LIST*
%ADD10C,0.100000*%
%ADD11C,0.150000*%
G04 APERTURE END LIST*
D10*
D11*
X80251200Y-125000000D02*
X73748800Y-125000000D01*
X89867640Y-128429000D02*
X86057640Y-128429000D01*
X80215640Y-128429000D02*
X83263640Y-128429000D01*
X82715000Y-127540000D02*
X85382000Y-127540000D01*
X88978640Y-127540000D02*
X86311640Y-127540000D01*
X80215640Y-122460000D02*
X83009640Y-122460000D01*
X88976100Y-122460000D02*
X86309100Y-122460000D01*
X89867640Y-121571000D02*
X86184640Y-121571000D01*
X80215640Y-121571000D02*
X83136640Y-121571000D01*
X64132360Y-128429000D02*
X67815360Y-128429000D01*
X73657360Y-128429000D02*
X70863360Y-128429000D01*
X71117360Y-127540000D02*
X70990360Y-127540000D01*
X71117360Y-127540000D02*
X73657360Y-127540000D01*
X64894360Y-127540000D02*
X67688360Y-127540000D01*
X64132360Y-121571000D02*
X67942360Y-121571000D01*
X73657360Y-121571000D02*
X70863360Y-121571000D01*
X73657360Y-122460000D02*
X70990360Y-122460000D01*
X64894360Y-122460000D02*
X67688360Y-122460000D01*
X89867640Y-121571000D02*
X89867640Y-128429000D01*
X80215640Y-128429000D02*
X80215640Y-127540000D01*
X80215640Y-121571000D02*
X80215640Y-122460000D01*
X64132360Y-121571000D02*
X64132360Y-128429000D01*
X73657360Y-128429000D02*
X73657360Y-127540000D01*
X73657360Y-121571000D02*
X73657360Y-122587000D01*
X82715000Y-127540000D02*
X71031000Y-127540000D01*
X71158000Y-122460000D02*
X82715000Y-122460000D01*
X73657360Y-125000000D02*
X73657360Y-122460000D01*
X64896900Y-122460000D02*
X64896900Y-127540000D01*
X73657360Y-127540000D02*
X73657360Y-125000000D01*
X80215640Y-125000000D02*
X80215640Y-122460000D01*
X88976100Y-122460000D02*
X88976100Y-127540000D01*
X80215640Y-127540000D02*
X80215640Y-125000000D01*
X80251200Y-135000000D02*
X73748800Y-135000000D01*
X89867640Y-138429000D02*
X86057640Y-138429000D01*
X80215640Y-138429000D02*
X83263640Y-138429000D01*
X82715000Y-137540000D02*
X85382000Y-137540000D01*
X88978640Y-137540000D02*
X86311640Y-137540000D01*
X80215640Y-132460000D02*
X83009640Y-132460000D01*
X88976100Y-132460000D02*
X86309100Y-132460000D01*
X89867640Y-131571000D02*
X86184640Y-131571000D01*
X80215640Y-131571000D02*
X83136640Y-131571000D01*
X64132360Y-138429000D02*
X67815360Y-138429000D01*
X73657360Y-138429000D02*
X70863360Y-138429000D01*
X71117360Y-137540000D02*
X70990360Y-137540000D01*
X71117360Y-137540000D02*
X73657360Y-137540000D01*
X64894360Y-137540000D02*
X67688360Y-137540000D01*
X64132360Y-131571000D02*
X67942360Y-131571000D01*
X73657360Y-131571000D02*
X70863360Y-131571000D01*
X73657360Y-132460000D02*
X70990360Y-132460000D01*
X64894360Y-132460000D02*
X67688360Y-132460000D01*
X89867640Y-131571000D02*
X89867640Y-138429000D01*
X80215640Y-138429000D02*
X80215640Y-137540000D01*
X80215640Y-131571000D02*
X80215640Y-132460000D01*
X64132360Y-131571000D02*
X64132360Y-138429000D01*
X73657360Y-138429000D02*
X73657360Y-137540000D01*
X73657360Y-131571000D02*
X73657360Y-132587000D01*
X82715000Y-137540000D02*
X71031000Y-137540000D01*
X71158000Y-132460000D02*
X82715000Y-132460000D01*
X73657360Y-135000000D02*
X73657360Y-132460000D01*
X64896900Y-132460000D02*
X64896900Y-137540000D01*
X73657360Y-137540000D02*
X73657360Y-135000000D01*
X80215640Y-135000000D02*
X80215640Y-132460000D01*
X88976100Y-132460000D02*
X88976100Y-137540000D01*
X80215640Y-137540000D02*
X80215640Y-135000000D01*
X80251200Y-145460000D02*
X73748800Y-145460000D01*
X89867640Y-148889000D02*
X86057640Y-148889000D01*
X80215640Y-148889000D02*
X83263640Y-148889000D01*
X82715000Y-148000000D02*
X85382000Y-148000000D01*
X88978640Y-148000000D02*
X86311640Y-148000000D01*
X80215640Y-142920000D02*
X83009640Y-142920000D01*
X88976100Y-142920000D02*
X86309100Y-142920000D01*
X89867640Y-142031000D02*
X86184640Y-142031000D01*
X80215640Y-142031000D02*
X83136640Y-142031000D01*
X64132360Y-148889000D02*
X67815360Y-148889000D01*
X73657360Y-148889000D02*
X70863360Y-148889000D01*
X71117360Y-148000000D02*
X70990360Y-148000000D01*
X71117360Y-148000000D02*
X73657360Y-148000000D01*
X64894360Y-148000000D02*
X67688360Y-148000000D01*
X64132360Y-142031000D02*
X67942360Y-142031000D01*
X73657360Y-142031000D02*
X70863360Y-142031000D01*
X73657360Y-142920000D02*
X70990360Y-142920000D01*
X64894360Y-142920000D02*
X67688360Y-142920000D01*
X89867640Y-142031000D02*
X89867640Y-148889000D01*
X80215640Y-148889000D02*
X80215640Y-148000000D01*
X80215640Y-142031000D02*
X80215640Y-142920000D01*
X64132360Y-142031000D02*
X64132360Y-148889000D01*
X73657360Y-148889000D02*
X73657360Y-148000000D01*
X73657360Y-142031000D02*
X73657360Y-143047000D01*
X82715000Y-148000000D02*
X71031000Y-148000000D01*
X71158000Y-142920000D02*
X82715000Y-142920000D01*
X73657360Y-145460000D02*
X73657360Y-142920000D01*
X64896900Y-142920000D02*
X64896900Y-148000000D01*
X73657360Y-148000000D02*
X73657360Y-145460000D01*
X80215640Y-145460000D02*
X80215640Y-142920000D01*
X88976100Y-142920000D02*
X88976100Y-148000000D01*
X80215640Y-148000000D02*
X80215640Y-145460000D01*
X80251200Y-156000000D02*
X73748800Y-156000000D01*
X89867640Y-159429000D02*
X86057640Y-159429000D01*
X80215640Y-159429000D02*
X83263640Y-159429000D01*
X82715000Y-158540000D02*
X85382000Y-158540000D01*
X88978640Y-158540000D02*
X86311640Y-158540000D01*
X80215640Y-153460000D02*
X83009640Y-153460000D01*
X88976100Y-153460000D02*
X86309100Y-153460000D01*
X89867640Y-152571000D02*
X86184640Y-152571000D01*
X80215640Y-152571000D02*
X83136640Y-152571000D01*
X64132360Y-159429000D02*
X67815360Y-159429000D01*
X73657360Y-159429000D02*
X70863360Y-159429000D01*
X71117360Y-158540000D02*
X70990360Y-158540000D01*
X71117360Y-158540000D02*
X73657360Y-158540000D01*
X64894360Y-158540000D02*
X67688360Y-158540000D01*
X64132360Y-152571000D02*
X67942360Y-152571000D01*
X73657360Y-152571000D02*
X70863360Y-152571000D01*
X73657360Y-153460000D02*
X70990360Y-153460000D01*
X64894360Y-153460000D02*
X67688360Y-153460000D01*
X89867640Y-152571000D02*
X89867640Y-159429000D01*
X80215640Y-159429000D02*
X80215640Y-158540000D01*
X80215640Y-152571000D02*
X80215640Y-153460000D01*
X64132360Y-152571000D02*
X64132360Y-159429000D01*
X73657360Y-159429000D02*
X73657360Y-158540000D01*
X73657360Y-152571000D02*
X73657360Y-153587000D01*
X82715000Y-158540000D02*
X71031000Y-158540000D01*
X71158000Y-153460000D02*
X82715000Y-153460000D01*
X73657360Y-156000000D02*
X73657360Y-153460000D01*
X64896900Y-153460000D02*
X64896900Y-158540000D01*
X73657360Y-158540000D02*
X73657360Y-156000000D01*
X80215640Y-156000000D02*
X80215640Y-153460000D01*
X88976100Y-153460000D02*
X88976100Y-158540000D01*
X80215640Y-158540000D02*
X80215640Y-156000000D01*
X125748800Y-156197300D02*
X132251200Y-156197300D01*
X116132360Y-152768300D02*
X119942360Y-152768300D01*
X125784360Y-152768300D02*
X122736360Y-152768300D01*
X123285000Y-153657300D02*
X120618000Y-153657300D01*
X117021360Y-153657300D02*
X119688360Y-153657300D01*
X125784360Y-158737300D02*
X122990360Y-158737300D01*
X117023900Y-158737300D02*
X119690900Y-158737300D01*
X116132360Y-159626300D02*
X119815360Y-159626300D01*
X125784360Y-159626300D02*
X122863360Y-159626300D01*
X141867640Y-152768300D02*
X138184640Y-152768300D01*
X132342640Y-152768300D02*
X135136640Y-152768300D01*
X134882640Y-153657300D02*
X135009640Y-153657300D01*
X134882640Y-153657300D02*
X132342640Y-153657300D01*
X141105640Y-153657300D02*
X138311640Y-153657300D01*
X141867640Y-159626300D02*
X138057640Y-159626300D01*
X132342640Y-159626300D02*
X135136640Y-159626300D01*
X132342640Y-158737300D02*
X135009640Y-158737300D01*
X141105640Y-158737300D02*
X138311640Y-158737300D01*
X116132360Y-159626300D02*
X116132360Y-152768300D01*
X125784360Y-152768300D02*
X125784360Y-153657300D01*
X125784360Y-159626300D02*
X125784360Y-158737300D01*
X141867640Y-159626300D02*
X141867640Y-152768300D01*
X132342640Y-152768300D02*
X132342640Y-153657300D01*
X132342640Y-159626300D02*
X132342640Y-158610300D01*
X123285000Y-153657300D02*
X134969000Y-153657300D01*
X134842000Y-158737300D02*
X123285000Y-158737300D01*
X132342640Y-156197300D02*
X132342640Y-158737300D01*
X141103100Y-158737300D02*
X141103100Y-153657300D01*
X132342640Y-153657300D02*
X132342640Y-156197300D01*
X125784360Y-156197300D02*
X125784360Y-158737300D01*
X117023900Y-158737300D02*
X117023900Y-153657300D01*
X125784360Y-153657300D02*
X125784360Y-156197300D01*
X125748800Y-145000000D02*
X132251200Y-145000000D01*
X116132360Y-141571000D02*
X119942360Y-141571000D01*
X125784360Y-141571000D02*
X122736360Y-141571000D01*
X123285000Y-142460000D02*
X120618000Y-142460000D01*
X117021360Y-142460000D02*
X119688360Y-142460000D01*
X125784360Y-147540000D02*
X122990360Y-147540000D01*
X117023900Y-147540000D02*
X119690900Y-147540000D01*
X116132360Y-148429000D02*
X119815360Y-148429000D01*
X125784360Y-148429000D02*
X122863360Y-148429000D01*
X141867640Y-141571000D02*
X138184640Y-141571000D01*
X132342640Y-141571000D02*
X135136640Y-141571000D01*
X134882640Y-142460000D02*
X135009640Y-142460000D01*
X134882640Y-142460000D02*
X132342640Y-142460000D01*
X141105640Y-142460000D02*
X138311640Y-142460000D01*
X141867640Y-148429000D02*
X138057640Y-148429000D01*
X132342640Y-148429000D02*
X135136640Y-148429000D01*
X132342640Y-147540000D02*
X135009640Y-147540000D01*
X141105640Y-147540000D02*
X138311640Y-147540000D01*
X116132360Y-148429000D02*
X116132360Y-141571000D01*
X125784360Y-141571000D02*
X125784360Y-142460000D01*
X125784360Y-148429000D02*
X125784360Y-147540000D01*
X141867640Y-148429000D02*
X141867640Y-141571000D01*
X132342640Y-141571000D02*
X132342640Y-142460000D01*
X132342640Y-148429000D02*
X132342640Y-147413000D01*
X123285000Y-142460000D02*
X134969000Y-142460000D01*
X134842000Y-147540000D02*
X123285000Y-147540000D01*
X132342640Y-145000000D02*
X132342640Y-147540000D01*
X141103100Y-147540000D02*
X141103100Y-142460000D01*
X132342640Y-142460000D02*
X132342640Y-145000000D01*
X125784360Y-145000000D02*
X125784360Y-147540000D01*
X117023900Y-147540000D02*
X117023900Y-142460000D01*
X125784360Y-142460000D02*
X125784360Y-145000000D01*
X125748800Y-135000000D02*
X132251200Y-135000000D01*
X116132360Y-131571000D02*
X119942360Y-131571000D01*
X125784360Y-131571000D02*
X122736360Y-131571000D01*
X123285000Y-132460000D02*
X120618000Y-132460000D01*
X117021360Y-132460000D02*
X119688360Y-132460000D01*
X125784360Y-137540000D02*
X122990360Y-137540000D01*
X117023900Y-137540000D02*
X119690900Y-137540000D01*
X116132360Y-138429000D02*
X119815360Y-138429000D01*
X125784360Y-138429000D02*
X122863360Y-138429000D01*
X141867640Y-131571000D02*
X138184640Y-131571000D01*
X132342640Y-131571000D02*
X135136640Y-131571000D01*
X134882640Y-132460000D02*
X135009640Y-132460000D01*
X134882640Y-132460000D02*
X132342640Y-132460000D01*
X141105640Y-132460000D02*
X138311640Y-132460000D01*
X141867640Y-138429000D02*
X138057640Y-138429000D01*
X132342640Y-138429000D02*
X135136640Y-138429000D01*
X132342640Y-137540000D02*
X135009640Y-137540000D01*
X141105640Y-137540000D02*
X138311640Y-137540000D01*
X116132360Y-138429000D02*
X116132360Y-131571000D01*
X125784360Y-131571000D02*
X125784360Y-132460000D01*
X125784360Y-138429000D02*
X125784360Y-137540000D01*
X141867640Y-138429000D02*
X141867640Y-131571000D01*
X132342640Y-131571000D02*
X132342640Y-132460000D01*
X132342640Y-138429000D02*
X132342640Y-137413000D01*
X123285000Y-132460000D02*
X134969000Y-132460000D01*
X134842000Y-137540000D02*
X123285000Y-137540000D01*
X132342640Y-135000000D02*
X132342640Y-137540000D01*
X141103100Y-137540000D02*
X141103100Y-132460000D01*
X132342640Y-132460000D02*
X132342640Y-135000000D01*
X125784360Y-135000000D02*
X125784360Y-137540000D01*
X117023900Y-137540000D02*
X117023900Y-132460000D01*
X125784360Y-132460000D02*
X125784360Y-135000000D01*
X125748800Y-125000000D02*
X132251200Y-125000000D01*
X116132360Y-121571000D02*
X119942360Y-121571000D01*
X125784360Y-121571000D02*
X122736360Y-121571000D01*
X123285000Y-122460000D02*
X120618000Y-122460000D01*
X117021360Y-122460000D02*
X119688360Y-122460000D01*
X125784360Y-127540000D02*
X122990360Y-127540000D01*
X117023900Y-127540000D02*
X119690900Y-127540000D01*
X116132360Y-128429000D02*
X119815360Y-128429000D01*
X125784360Y-128429000D02*
X122863360Y-128429000D01*
X141867640Y-121571000D02*
X138184640Y-121571000D01*
X132342640Y-121571000D02*
X135136640Y-121571000D01*
X134882640Y-122460000D02*
X135009640Y-122460000D01*
X134882640Y-122460000D02*
X132342640Y-122460000D01*
X141105640Y-122460000D02*
X138311640Y-122460000D01*
X141867640Y-128429000D02*
X138057640Y-128429000D01*
X132342640Y-128429000D02*
X135136640Y-128429000D01*
X132342640Y-127540000D02*
X135009640Y-127540000D01*
X141105640Y-127540000D02*
X138311640Y-127540000D01*
X116132360Y-128429000D02*
X116132360Y-121571000D01*
X125784360Y-121571000D02*
X125784360Y-122460000D01*
X125784360Y-128429000D02*
X125784360Y-127540000D01*
X141867640Y-128429000D02*
X141867640Y-121571000D01*
X132342640Y-121571000D02*
X132342640Y-122460000D01*
X132342640Y-128429000D02*
X132342640Y-127413000D01*
X123285000Y-122460000D02*
X134969000Y-122460000D01*
X134842000Y-127540000D02*
X123285000Y-127540000D01*
X132342640Y-125000000D02*
X132342640Y-127540000D01*
X141103100Y-127540000D02*
X141103100Y-122460000D01*
X132342640Y-122460000D02*
X132342640Y-125000000D01*
X125784360Y-125000000D02*
X125784360Y-127540000D01*
X117023900Y-127540000D02*
X117023900Y-122460000D01*
X125784360Y-122460000D02*
X125784360Y-125000000D01*
X76666667Y-119848571D02*
X76333333Y-119848571D01*
X76333333Y-120372381D02*
X76333333Y-119372381D01*
X76809524Y-119372381D01*
X77714286Y-120372381D02*
X77142857Y-120372381D01*
X77428571Y-120372381D02*
X77428571Y-119372381D01*
X77333333Y-119515238D01*
X77238095Y-119610476D01*
X77142857Y-119658095D01*
X76666667Y-129848571D02*
X76333333Y-129848571D01*
X76333333Y-130372381D02*
X76333333Y-129372381D01*
X76809524Y-129372381D01*
X77142857Y-129467619D02*
X77190476Y-129420000D01*
X77285714Y-129372381D01*
X77523810Y-129372381D01*
X77619048Y-129420000D01*
X77666667Y-129467619D01*
X77714286Y-129562857D01*
X77714286Y-129658095D01*
X77666667Y-129800952D01*
X77095238Y-130372381D01*
X77714286Y-130372381D01*
X76666667Y-140308571D02*
X76333333Y-140308571D01*
X76333333Y-140832381D02*
X76333333Y-139832381D01*
X76809524Y-139832381D01*
X77095238Y-139832381D02*
X77714286Y-139832381D01*
X77380952Y-140213333D01*
X77523810Y-140213333D01*
X77619048Y-140260952D01*
X77666667Y-140308571D01*
X77714286Y-140403810D01*
X77714286Y-140641905D01*
X77666667Y-140737143D01*
X77619048Y-140784762D01*
X77523810Y-140832381D01*
X77238095Y-140832381D01*
X77142857Y-140784762D01*
X77095238Y-140737143D01*
X76666667Y-150848571D02*
X76333333Y-150848571D01*
X76333333Y-151372381D02*
X76333333Y-150372381D01*
X76809524Y-150372381D01*
X77619048Y-150705714D02*
X77619048Y-151372381D01*
X77380952Y-150324762D02*
X77142857Y-151039048D01*
X77761905Y-151039048D01*
X128666667Y-161205871D02*
X128333333Y-161205871D01*
X128333333Y-161729681D02*
X128333333Y-160729681D01*
X128809524Y-160729681D01*
X129666667Y-160729681D02*
X129190476Y-160729681D01*
X129142857Y-161205871D01*
X129190476Y-161158252D01*
X129285714Y-161110633D01*
X129523810Y-161110633D01*
X129619048Y-161158252D01*
X129666667Y-161205871D01*
X129714286Y-161301110D01*
X129714286Y-161539205D01*
X129666667Y-161634443D01*
X129619048Y-161682062D01*
X129523810Y-161729681D01*
X129285714Y-161729681D01*
X129190476Y-161682062D01*
X129142857Y-161634443D01*
X128666667Y-150008571D02*
X128333333Y-150008571D01*
X128333333Y-150532381D02*
X128333333Y-149532381D01*
X128809524Y-149532381D01*
X129619048Y-149532381D02*
X129428571Y-149532381D01*
X129333333Y-149580000D01*
X129285714Y-149627619D01*
X129190476Y-149770476D01*
X129142857Y-149960952D01*
X129142857Y-150341905D01*
X129190476Y-150437143D01*
X129238095Y-150484762D01*
X129333333Y-150532381D01*
X129523810Y-150532381D01*
X129619048Y-150484762D01*
X129666667Y-150437143D01*
X129714286Y-150341905D01*
X129714286Y-150103810D01*
X129666667Y-150008571D01*
X129619048Y-149960952D01*
X129523810Y-149913333D01*
X129333333Y-149913333D01*
X129238095Y-149960952D01*
X129190476Y-150008571D01*
X129142857Y-150103810D01*
X128666667Y-140008571D02*
X128333333Y-140008571D01*
X128333333Y-140532381D02*
X128333333Y-139532381D01*
X128809524Y-139532381D01*
X129095238Y-139532381D02*
X129761905Y-139532381D01*
X129333333Y-140532381D01*
X128666667Y-130008571D02*
X128333333Y-130008571D01*
X128333333Y-130532381D02*
X128333333Y-129532381D01*
X128809524Y-129532381D01*
X129333333Y-129960952D02*
X129238095Y-129913333D01*
X129190476Y-129865714D01*
X129142857Y-129770476D01*
X129142857Y-129722857D01*
X129190476Y-129627619D01*
X129238095Y-129580000D01*
X129333333Y-129532381D01*
X129523810Y-129532381D01*
X129619048Y-129580000D01*
X129666667Y-129627619D01*
X129714286Y-129722857D01*
X129714286Y-129770476D01*
X129666667Y-129865714D01*
X129619048Y-129913333D01*
X129523810Y-129960952D01*
X129333333Y-129960952D01*
X129238095Y-130008571D01*
X129190476Y-130056190D01*
X129142857Y-130151429D01*
X129142857Y-130341905D01*
X129190476Y-130437143D01*
X129238095Y-130484762D01*
X129333333Y-130532381D01*
X129523810Y-130532381D01*
X129619048Y-130484762D01*
X129666667Y-130437143D01*
X129714286Y-130341905D01*
X129714286Y-130151429D01*
X129666667Y-130056190D01*
X129619048Y-130008571D01*
X129523810Y-129960952D01*
X55261905Y-121252381D02*
X55261905Y-120252381D01*
X55642858Y-120252381D01*
X55738096Y-120300000D01*
X55785715Y-120347619D01*
X55833334Y-120442857D01*
X55833334Y-120585714D01*
X55785715Y-120680952D01*
X55738096Y-120728571D01*
X55642858Y-120776190D01*
X55261905Y-120776190D01*
X56785715Y-121252381D02*
X56214286Y-121252381D01*
X56500000Y-121252381D02*
X56500000Y-120252381D01*
X56404762Y-120395238D01*
X56309524Y-120490476D01*
X56214286Y-120538095D01*
X55261905Y-131252381D02*
X55261905Y-130252381D01*
X55642858Y-130252381D01*
X55738096Y-130300000D01*
X55785715Y-130347619D01*
X55833334Y-130442857D01*
X55833334Y-130585714D01*
X55785715Y-130680952D01*
X55738096Y-130728571D01*
X55642858Y-130776190D01*
X55261905Y-130776190D01*
X56214286Y-130347619D02*
X56261905Y-130300000D01*
X56357143Y-130252381D01*
X56595239Y-130252381D01*
X56690477Y-130300000D01*
X56738096Y-130347619D01*
X56785715Y-130442857D01*
X56785715Y-130538095D01*
X56738096Y-130680952D01*
X56166667Y-131252381D01*
X56785715Y-131252381D01*
X55261905Y-141252381D02*
X55261905Y-140252381D01*
X55642858Y-140252381D01*
X55738096Y-140300000D01*
X55785715Y-140347619D01*
X55833334Y-140442857D01*
X55833334Y-140585714D01*
X55785715Y-140680952D01*
X55738096Y-140728571D01*
X55642858Y-140776190D01*
X55261905Y-140776190D01*
X56166667Y-140252381D02*
X56785715Y-140252381D01*
X56452381Y-140633333D01*
X56595239Y-140633333D01*
X56690477Y-140680952D01*
X56738096Y-140728571D01*
X56785715Y-140823810D01*
X56785715Y-141061905D01*
X56738096Y-141157143D01*
X56690477Y-141204762D01*
X56595239Y-141252381D01*
X56309524Y-141252381D01*
X56214286Y-141204762D01*
X56166667Y-141157143D01*
X55261905Y-152252381D02*
X55261905Y-151252381D01*
X55642858Y-151252381D01*
X55738096Y-151300000D01*
X55785715Y-151347619D01*
X55833334Y-151442857D01*
X55833334Y-151585714D01*
X55785715Y-151680952D01*
X55738096Y-151728571D01*
X55642858Y-151776190D01*
X55261905Y-151776190D01*
X56690477Y-151585714D02*
X56690477Y-152252381D01*
X56452381Y-151204762D02*
X56214286Y-151919048D01*
X56833334Y-151919048D01*
X149261905Y-152252381D02*
X149261905Y-151252381D01*
X149642858Y-151252381D01*
X149738096Y-151300000D01*
X149785715Y-151347619D01*
X149833334Y-151442857D01*
X149833334Y-151585714D01*
X149785715Y-151680952D01*
X149738096Y-151728571D01*
X149642858Y-151776190D01*
X149261905Y-151776190D01*
X150738096Y-151252381D02*
X150261905Y-151252381D01*
X150214286Y-151728571D01*
X150261905Y-151680952D01*
X150357143Y-151633333D01*
X150595239Y-151633333D01*
X150690477Y-151680952D01*
X150738096Y-151728571D01*
X150785715Y-151823810D01*
X150785715Y-152061905D01*
X150738096Y-152157143D01*
X150690477Y-152204762D01*
X150595239Y-152252381D01*
X150357143Y-152252381D01*
X150261905Y-152204762D01*
X150214286Y-152157143D01*
X149261905Y-141252381D02*
X149261905Y-140252381D01*
X149642858Y-140252381D01*
X149738096Y-140300000D01*
X149785715Y-140347619D01*
X149833334Y-140442857D01*
X149833334Y-140585714D01*
X149785715Y-140680952D01*
X149738096Y-140728571D01*
X149642858Y-140776190D01*
X149261905Y-140776190D01*
X150690477Y-140252381D02*
X150500000Y-140252381D01*
X150404762Y-140300000D01*
X150357143Y-140347619D01*
X150261905Y-140490476D01*
X150214286Y-140680952D01*
X150214286Y-141061905D01*
X150261905Y-141157143D01*
X150309524Y-141204762D01*
X150404762Y-141252381D01*
X150595239Y-141252381D01*
X150690477Y-141204762D01*
X150738096Y-141157143D01*
X150785715Y-141061905D01*
X150785715Y-140823810D01*
X150738096Y-140728571D01*
X150690477Y-140680952D01*
X150595239Y-140633333D01*
X150404762Y-140633333D01*
X150309524Y-140680952D01*
X150261905Y-140728571D01*
X150214286Y-140823810D01*
X149261905Y-131252381D02*
X149261905Y-130252381D01*
X149642858Y-130252381D01*
X149738096Y-130300000D01*
X149785715Y-130347619D01*
X149833334Y-130442857D01*
X149833334Y-130585714D01*
X149785715Y-130680952D01*
X149738096Y-130728571D01*
X149642858Y-130776190D01*
X149261905Y-130776190D01*
X150166667Y-130252381D02*
X150833334Y-130252381D01*
X150404762Y-131252381D01*
X149261905Y-121252381D02*
X149261905Y-120252381D01*
X149642858Y-120252381D01*
X149738096Y-120300000D01*
X149785715Y-120347619D01*
X149833334Y-120442857D01*
X149833334Y-120585714D01*
X149785715Y-120680952D01*
X149738096Y-120728571D01*
X149642858Y-120776190D01*
X149261905Y-120776190D01*
X150404762Y-120680952D02*
X150309524Y-120633333D01*
X150261905Y-120585714D01*
X150214286Y-120490476D01*
X150214286Y-120442857D01*
X150261905Y-120347619D01*
X150309524Y-120300000D01*
X150404762Y-120252381D01*
X150595239Y-120252381D01*
X150690477Y-120300000D01*
X150738096Y-120347619D01*
X150785715Y-120442857D01*
X150785715Y-120490476D01*
X150738096Y-120585714D01*
X150690477Y-120633333D01*
X150595239Y-120680952D01*
X150404762Y-120680952D01*
X150309524Y-120728571D01*
X150261905Y-120776190D01*
X150214286Y-120871429D01*
X150214286Y-121061905D01*
X150261905Y-121157143D01*
X150309524Y-121204762D01*
X150404762Y-121252381D01*
X150595239Y-121252381D01*
X150690477Y-121204762D01*
X150738096Y-121157143D01*
X150785715Y-121061905D01*
X150785715Y-120871429D01*
X150738096Y-120776190D01*
X150690477Y-120728571D01*
X150595239Y-120680952D01*
X101785714Y-163452381D02*
X101785714Y-162452381D01*
X102166667Y-162452381D01*
X102261905Y-162500000D01*
X102309524Y-162547619D01*
X102357143Y-162642857D01*
X102357143Y-162785714D01*
X102309524Y-162880952D01*
X102261905Y-162928571D01*
X102166667Y-162976190D01*
X101785714Y-162976190D01*
X103309524Y-163452381D02*
X102738095Y-163452381D01*
X103023809Y-163452381D02*
X103023809Y-162452381D01*
X102928571Y-162595238D01*
X102833333Y-162690476D01*
X102738095Y-162738095D01*
X103642857Y-162452381D02*
X104309524Y-162452381D01*
X103880952Y-163452381D01*
X101785714Y-135452381D02*
X101785714Y-134452381D01*
X102166667Y-134452381D01*
X102261905Y-134500000D01*
X102309524Y-134547619D01*
X102357143Y-134642857D01*
X102357143Y-134785714D01*
X102309524Y-134880952D01*
X102261905Y-134928571D01*
X102166667Y-134976190D01*
X101785714Y-134976190D01*
X103309524Y-135452381D02*
X102738095Y-135452381D01*
X103023809Y-135452381D02*
X103023809Y-134452381D01*
X102928571Y-134595238D01*
X102833333Y-134690476D01*
X102738095Y-134738095D01*
X103880952Y-134880952D02*
X103785714Y-134833333D01*
X103738095Y-134785714D01*
X103690476Y-134690476D01*
X103690476Y-134642857D01*
X103738095Y-134547619D01*
X103785714Y-134500000D01*
X103880952Y-134452381D01*
X104071429Y-134452381D01*
X104166667Y-134500000D01*
X104214286Y-134547619D01*
X104261905Y-134642857D01*
X104261905Y-134690476D01*
X104214286Y-134785714D01*
X104166667Y-134833333D01*
X104071429Y-134880952D01*
X103880952Y-134880952D01*
X103785714Y-134928571D01*
X103738095Y-134976190D01*
X103690476Y-135071429D01*
X103690476Y-135261905D01*
X103738095Y-135357143D01*
X103785714Y-135404762D01*
X103880952Y-135452381D01*
X104071429Y-135452381D01*
X104166667Y-135404762D01*
X104214286Y-135357143D01*
X104261905Y-135261905D01*
X104261905Y-135071429D01*
X104214286Y-134976190D01*
X104166667Y-134928571D01*
X104071429Y-134880952D01*
M02*
