G04 #@! TF.FileFunction,Copper,L1,Top,Signal*
%FSLAX46Y46*%
G04 Gerber Fmt 4.6, Leading zero omitted, Abs format (unit mm)*
G04 Created by KiCad (PCBNEW 4.0.7) date 05/01/18 03:54:15*
%MOMM*%
%LPD*%
G01*
G04 APERTURE LIST*
%ADD10C,0.100000*%
%ADD11R,1.200000X0.700000*%
%ADD12R,1.700000X1.700000*%
%ADD13O,1.700000X1.700000*%
%ADD14R,3.800000X2.000000*%
%ADD15R,1.500000X2.000000*%
%ADD16R,1.500000X1.300000*%
%ADD17R,1.300000X1.500000*%
%ADD18R,2.000000X0.640000*%
%ADD19C,0.600000*%
%ADD20C,0.250000*%
G04 APERTURE END LIST*
D10*
D11*
X166300000Y-99000000D03*
X166300000Y-103000000D03*
X171700000Y-103000000D03*
X171700000Y-99000000D03*
D12*
X170000000Y-93000000D03*
D13*
X167460000Y-93000000D03*
D12*
X180000000Y-95460000D03*
D13*
X180000000Y-98000000D03*
D12*
X148000000Y-93000000D03*
D13*
X145460000Y-93000000D03*
D12*
X134000000Y-96460000D03*
D13*
X134000000Y-99000000D03*
X134000000Y-101540000D03*
D12*
X134000000Y-108460000D03*
D13*
X134000000Y-111000000D03*
D14*
X157000000Y-94850000D03*
D15*
X157000000Y-101150000D03*
X159300000Y-101150000D03*
X154700000Y-101150000D03*
D16*
X149300000Y-112000000D03*
X152000000Y-112000000D03*
X174000000Y-112000000D03*
X171300000Y-112000000D03*
X142000000Y-112000000D03*
X139300000Y-112000000D03*
X173850000Y-107000000D03*
X171150000Y-107000000D03*
X142000000Y-105000000D03*
X139300000Y-105000000D03*
D17*
X150500000Y-98000000D03*
X150500000Y-100700000D03*
X147500000Y-100700000D03*
X147500000Y-98000000D03*
D16*
X160300000Y-105000000D03*
X163000000Y-105000000D03*
D18*
X165150000Y-112270000D03*
X165150000Y-109730000D03*
X158850000Y-109730000D03*
X158850000Y-112270000D03*
X145700000Y-104460000D03*
X145700000Y-107000000D03*
X152000000Y-107000000D03*
X152000000Y-104460000D03*
D19*
X163000000Y-105000000D03*
X147500000Y-100700000D03*
X145700000Y-107000000D03*
X149300000Y-112000000D03*
X150500000Y-98000000D03*
X147500000Y-98000000D03*
X173850000Y-107000000D03*
D20*
X157000000Y-101150000D02*
X157000000Y-99900000D01*
X157000000Y-99900000D02*
X157000000Y-94850000D01*
X166300000Y-99000000D02*
X166300000Y-98400000D01*
X166300000Y-98400000D02*
X162750000Y-94850000D01*
X162750000Y-94850000D02*
X159150000Y-94850000D01*
X159150000Y-94850000D02*
X157000000Y-94850000D01*
X169500000Y-97000000D02*
X169500000Y-97050000D01*
X169500000Y-97050000D02*
X171450000Y-99000000D01*
X171450000Y-99000000D02*
X171700000Y-99000000D01*
X167460000Y-94960000D02*
X169500000Y-97000000D01*
X167460000Y-93000000D02*
X167460000Y-94960000D01*
X149200000Y-95300000D02*
X149200000Y-102340000D01*
X149200000Y-102340000D02*
X151320000Y-104460000D01*
X151320000Y-104460000D02*
X152000000Y-104460000D01*
X148000000Y-93000000D02*
X148000000Y-94100000D01*
X148000000Y-94100000D02*
X149200000Y-95300000D01*
X166300000Y-103000000D02*
X164100000Y-103000000D01*
X164100000Y-103000000D02*
X163000000Y-104100000D01*
X163000000Y-104100000D02*
X163000000Y-105000000D01*
X145460000Y-99960000D02*
X146200000Y-100700000D01*
X146200000Y-100700000D02*
X147500000Y-100700000D01*
X145460000Y-93000000D02*
X145460000Y-99960000D01*
X142000000Y-112000000D02*
X141900000Y-112000000D01*
X141900000Y-112000000D02*
X140700000Y-110800000D01*
X140700000Y-102060000D02*
X135100000Y-96460000D01*
X140700000Y-110800000D02*
X140700000Y-102060000D01*
X135100000Y-96460000D02*
X134000000Y-96460000D01*
X157470000Y-109600000D02*
X145400000Y-109600000D01*
X145400000Y-109600000D02*
X143000000Y-112000000D01*
X143000000Y-112000000D02*
X142000000Y-112000000D01*
X158850000Y-109730000D02*
X157600000Y-109730000D01*
X157600000Y-109730000D02*
X157470000Y-109600000D01*
X139300000Y-105000000D02*
X139200000Y-105000000D01*
X139200000Y-105000000D02*
X134000000Y-99800000D01*
X134000000Y-99800000D02*
X134000000Y-99000000D01*
X139300000Y-112000000D02*
X139300000Y-111100000D01*
X139300000Y-111100000D02*
X136660000Y-108460000D01*
X136660000Y-108460000D02*
X135100000Y-108460000D01*
X135100000Y-108460000D02*
X134000000Y-108460000D01*
X160300000Y-105000000D02*
X160300000Y-102150000D01*
X160300000Y-102150000D02*
X159300000Y-101150000D01*
X154700000Y-101150000D02*
X154700000Y-99900000D01*
X151400000Y-98000000D02*
X150500000Y-98000000D01*
X154700000Y-99900000D02*
X152800000Y-98000000D01*
X152800000Y-98000000D02*
X151400000Y-98000000D01*
X158850000Y-112270000D02*
X152270000Y-112270000D01*
X152270000Y-112270000D02*
X152000000Y-112000000D01*
X165150000Y-112270000D02*
X171030000Y-112270000D01*
X171030000Y-112270000D02*
X171300000Y-112000000D01*
X171150000Y-107000000D02*
X167310000Y-107000000D01*
X167310000Y-107000000D02*
X165150000Y-109160000D01*
X165150000Y-109160000D02*
X165150000Y-109730000D01*
X142000000Y-105000000D02*
X145160000Y-105000000D01*
X145160000Y-105000000D02*
X145700000Y-104460000D01*
X154200000Y-106050000D02*
X154200000Y-104500000D01*
X154200000Y-104500000D02*
X150500000Y-100800000D01*
X150500000Y-100800000D02*
X150500000Y-100700000D01*
X152000000Y-107000000D02*
X153250000Y-107000000D01*
X153250000Y-107000000D02*
X154200000Y-106050000D01*
X180000000Y-109500000D02*
X177500000Y-112000000D01*
X177500000Y-112000000D02*
X174000000Y-112000000D01*
X180000000Y-98000000D02*
X180000000Y-109500000D01*
X180000000Y-98000000D02*
X175000000Y-103000000D01*
X175000000Y-103000000D02*
X171700000Y-103000000D01*
X180000000Y-95460000D02*
X180000000Y-94360000D01*
X180000000Y-94360000D02*
X178640000Y-93000000D01*
X178640000Y-93000000D02*
X170000000Y-93000000D01*
M02*
