G04 #@! TF.FileFunction,Legend,Bot*
%FSLAX46Y46*%
G04 Gerber Fmt 4.6, Leading zero omitted, Abs format (unit mm)*
G04 Created by KiCad (PCBNEW 4.0.7) date 05/01/18 03:54:15*
%MOMM*%
%LPD*%
G01*
G04 APERTURE LIST*
%ADD10C,0.100000*%
%ADD11C,0.300000*%
G04 APERTURE END LIST*
D10*
D11*
X153249999Y-102700000D02*
X152535713Y-102700000D01*
X153392856Y-103128571D02*
X152892856Y-101628571D01*
X152392856Y-103128571D01*
X151035713Y-102985714D02*
X151107142Y-103057143D01*
X151321428Y-103128571D01*
X151464285Y-103128571D01*
X151678570Y-103057143D01*
X151821428Y-102914286D01*
X151892856Y-102771429D01*
X151964285Y-102485714D01*
X151964285Y-102271429D01*
X151892856Y-101985714D01*
X151821428Y-101842857D01*
X151678570Y-101700000D01*
X151464285Y-101628571D01*
X151321428Y-101628571D01*
X151107142Y-101700000D01*
X151035713Y-101771429D01*
X148392856Y-102985714D02*
X148464285Y-103057143D01*
X148678571Y-103128571D01*
X148821428Y-103128571D01*
X149035713Y-103057143D01*
X149178571Y-102914286D01*
X149249999Y-102771429D01*
X149321428Y-102485714D01*
X149321428Y-102271429D01*
X149249999Y-101985714D01*
X149178571Y-101842857D01*
X149035713Y-101700000D01*
X148821428Y-101628571D01*
X148678571Y-101628571D01*
X148464285Y-101700000D01*
X148392856Y-101771429D01*
X147535713Y-103128571D02*
X147678571Y-103057143D01*
X147749999Y-102985714D01*
X147821428Y-102842857D01*
X147821428Y-102414286D01*
X147749999Y-102271429D01*
X147678571Y-102200000D01*
X147535713Y-102128571D01*
X147321428Y-102128571D01*
X147178571Y-102200000D01*
X147107142Y-102271429D01*
X147035713Y-102414286D01*
X147035713Y-102842857D01*
X147107142Y-102985714D01*
X147178571Y-103057143D01*
X147321428Y-103128571D01*
X147535713Y-103128571D01*
X146392856Y-102128571D02*
X146392856Y-103128571D01*
X146392856Y-102271429D02*
X146321428Y-102200000D01*
X146178570Y-102128571D01*
X145964285Y-102128571D01*
X145821428Y-102200000D01*
X145749999Y-102342857D01*
X145749999Y-103128571D01*
X145249999Y-102128571D02*
X144678570Y-102128571D01*
X145035713Y-101628571D02*
X145035713Y-102914286D01*
X144964285Y-103057143D01*
X144821427Y-103128571D01*
X144678570Y-103128571D01*
X144178570Y-103128571D02*
X144178570Y-102128571D01*
X144178570Y-102414286D02*
X144107142Y-102271429D01*
X144035713Y-102200000D01*
X143892856Y-102128571D01*
X143749999Y-102128571D01*
X143035713Y-103128571D02*
X143178571Y-103057143D01*
X143249999Y-102985714D01*
X143321428Y-102842857D01*
X143321428Y-102414286D01*
X143249999Y-102271429D01*
X143178571Y-102200000D01*
X143035713Y-102128571D01*
X142821428Y-102128571D01*
X142678571Y-102200000D01*
X142607142Y-102271429D01*
X142535713Y-102414286D01*
X142535713Y-102842857D01*
X142607142Y-102985714D01*
X142678571Y-103057143D01*
X142821428Y-103128571D01*
X143035713Y-103128571D01*
X141678570Y-103128571D02*
X141821428Y-103057143D01*
X141892856Y-102914286D01*
X141892856Y-101628571D01*
X140892856Y-103128571D02*
X141035714Y-103057143D01*
X141107142Y-102914286D01*
X141107142Y-101628571D01*
X139750000Y-103057143D02*
X139892857Y-103128571D01*
X140178571Y-103128571D01*
X140321428Y-103057143D01*
X140392857Y-102914286D01*
X140392857Y-102342857D01*
X140321428Y-102200000D01*
X140178571Y-102128571D01*
X139892857Y-102128571D01*
X139750000Y-102200000D01*
X139678571Y-102342857D01*
X139678571Y-102485714D01*
X140392857Y-102628571D01*
X139035714Y-103128571D02*
X139035714Y-102128571D01*
X139035714Y-102414286D02*
X138964286Y-102271429D01*
X138892857Y-102200000D01*
X138750000Y-102128571D01*
X138607143Y-102128571D01*
X153857143Y-105678571D02*
X153857143Y-104178571D01*
X153500000Y-104178571D01*
X153285715Y-104250000D01*
X153142857Y-104392857D01*
X153071429Y-104535714D01*
X153000000Y-104821429D01*
X153000000Y-105035714D01*
X153071429Y-105321429D01*
X153142857Y-105464286D01*
X153285715Y-105607143D01*
X153500000Y-105678571D01*
X153857143Y-105678571D01*
X151714286Y-105678571D02*
X151714286Y-104892857D01*
X151785715Y-104750000D01*
X151928572Y-104678571D01*
X152214286Y-104678571D01*
X152357143Y-104750000D01*
X151714286Y-105607143D02*
X151857143Y-105678571D01*
X152214286Y-105678571D01*
X152357143Y-105607143D01*
X152428572Y-105464286D01*
X152428572Y-105321429D01*
X152357143Y-105178571D01*
X152214286Y-105107143D01*
X151857143Y-105107143D01*
X151714286Y-105035714D01*
X151142857Y-104678571D02*
X150785714Y-105678571D01*
X150428572Y-104678571D01*
X149857143Y-105678571D02*
X149857143Y-104678571D01*
X149857143Y-104178571D02*
X149928572Y-104250000D01*
X149857143Y-104321429D01*
X149785715Y-104250000D01*
X149857143Y-104178571D01*
X149857143Y-104321429D01*
X148500000Y-105678571D02*
X148500000Y-104178571D01*
X148500000Y-105607143D02*
X148642857Y-105678571D01*
X148928571Y-105678571D01*
X149071429Y-105607143D01*
X149142857Y-105535714D01*
X149214286Y-105392857D01*
X149214286Y-104964286D01*
X149142857Y-104821429D01*
X149071429Y-104750000D01*
X148928571Y-104678571D01*
X148642857Y-104678571D01*
X148500000Y-104750000D01*
X145928571Y-105678571D02*
X146642857Y-105678571D01*
X146642857Y-104178571D01*
X144857143Y-105607143D02*
X145000000Y-105678571D01*
X145285714Y-105678571D01*
X145428571Y-105607143D01*
X145500000Y-105464286D01*
X145500000Y-104892857D01*
X145428571Y-104750000D01*
X145285714Y-104678571D01*
X145000000Y-104678571D01*
X144857143Y-104750000D01*
X144785714Y-104892857D01*
X144785714Y-105035714D01*
X145500000Y-105178571D01*
X144142857Y-104678571D02*
X144142857Y-105678571D01*
X144142857Y-104821429D02*
X144071429Y-104750000D01*
X143928571Y-104678571D01*
X143714286Y-104678571D01*
X143571429Y-104750000D01*
X143500000Y-104892857D01*
X143500000Y-105678571D01*
X143000000Y-104678571D02*
X142428571Y-104678571D01*
X142785714Y-105678571D02*
X142785714Y-104392857D01*
X142714286Y-104250000D01*
X142571428Y-104178571D01*
X142428571Y-104178571D01*
X141357143Y-105607143D02*
X141500000Y-105678571D01*
X141785714Y-105678571D01*
X141928571Y-105607143D01*
X142000000Y-105464286D01*
X142000000Y-104892857D01*
X141928571Y-104750000D01*
X141785714Y-104678571D01*
X141500000Y-104678571D01*
X141357143Y-104750000D01*
X141285714Y-104892857D01*
X141285714Y-105035714D01*
X142000000Y-105178571D01*
X140714286Y-105607143D02*
X140571429Y-105678571D01*
X140285714Y-105678571D01*
X140142857Y-105607143D01*
X140071429Y-105464286D01*
X140071429Y-105392857D01*
X140142857Y-105250000D01*
X140285714Y-105178571D01*
X140500000Y-105178571D01*
X140642857Y-105107143D01*
X140714286Y-104964286D01*
X140714286Y-104892857D01*
X140642857Y-104750000D01*
X140500000Y-104678571D01*
X140285714Y-104678571D01*
X140142857Y-104750000D01*
X139642857Y-104678571D02*
X139071428Y-104678571D01*
X139428571Y-104178571D02*
X139428571Y-105464286D01*
X139357143Y-105607143D01*
X139214285Y-105678571D01*
X139071428Y-105678571D01*
X138714285Y-104678571D02*
X138357142Y-105678571D01*
X138000000Y-104678571D02*
X138357142Y-105678571D01*
X138500000Y-106035714D01*
X138571428Y-106107143D01*
X138714285Y-106178571D01*
X148571428Y-106871429D02*
X148499999Y-106800000D01*
X148357142Y-106728571D01*
X147999999Y-106728571D01*
X147857142Y-106800000D01*
X147785713Y-106871429D01*
X147714285Y-107014286D01*
X147714285Y-107157143D01*
X147785713Y-107371429D01*
X148642856Y-108228571D01*
X147714285Y-108228571D01*
X146785714Y-106728571D02*
X146642857Y-106728571D01*
X146500000Y-106800000D01*
X146428571Y-106871429D01*
X146357142Y-107014286D01*
X146285714Y-107300000D01*
X146285714Y-107657143D01*
X146357142Y-107942857D01*
X146428571Y-108085714D01*
X146500000Y-108157143D01*
X146642857Y-108228571D01*
X146785714Y-108228571D01*
X146928571Y-108157143D01*
X147000000Y-108085714D01*
X147071428Y-107942857D01*
X147142857Y-107657143D01*
X147142857Y-107300000D01*
X147071428Y-107014286D01*
X147000000Y-106871429D01*
X146928571Y-106800000D01*
X146785714Y-106728571D01*
X144857143Y-108228571D02*
X145714286Y-108228571D01*
X145285714Y-108228571D02*
X145285714Y-106728571D01*
X145428571Y-106942857D01*
X145571429Y-107085714D01*
X145714286Y-107157143D01*
X144000000Y-107371429D02*
X144142858Y-107300000D01*
X144214286Y-107228571D01*
X144285715Y-107085714D01*
X144285715Y-107014286D01*
X144214286Y-106871429D01*
X144142858Y-106800000D01*
X144000000Y-106728571D01*
X143714286Y-106728571D01*
X143571429Y-106800000D01*
X143500000Y-106871429D01*
X143428572Y-107014286D01*
X143428572Y-107085714D01*
X143500000Y-107228571D01*
X143571429Y-107300000D01*
X143714286Y-107371429D01*
X144000000Y-107371429D01*
X144142858Y-107442857D01*
X144214286Y-107514286D01*
X144285715Y-107657143D01*
X144285715Y-107942857D01*
X144214286Y-108085714D01*
X144142858Y-108157143D01*
X144000000Y-108228571D01*
X143714286Y-108228571D01*
X143571429Y-108157143D01*
X143500000Y-108085714D01*
X143428572Y-107942857D01*
X143428572Y-107657143D01*
X143500000Y-107514286D01*
X143571429Y-107442857D01*
X143714286Y-107371429D01*
X173357143Y-100403571D02*
X173357143Y-98903571D01*
X173000000Y-98903571D01*
X172785715Y-98975000D01*
X172642857Y-99117857D01*
X172571429Y-99260714D01*
X172500000Y-99546429D01*
X172500000Y-99760714D01*
X172571429Y-100046429D01*
X172642857Y-100189286D01*
X172785715Y-100332143D01*
X173000000Y-100403571D01*
X173357143Y-100403571D01*
X171928572Y-99975000D02*
X171214286Y-99975000D01*
X172071429Y-100403571D02*
X171571429Y-98903571D01*
X171071429Y-100403571D01*
X170571429Y-100403571D02*
X170571429Y-98903571D01*
X169714286Y-100403571D01*
X169714286Y-98903571D01*
X168214286Y-98975000D02*
X168357143Y-98903571D01*
X168571429Y-98903571D01*
X168785714Y-98975000D01*
X168928572Y-99117857D01*
X169000000Y-99260714D01*
X169071429Y-99546429D01*
X169071429Y-99760714D01*
X169000000Y-100046429D01*
X168928572Y-100189286D01*
X168785714Y-100332143D01*
X168571429Y-100403571D01*
X168428572Y-100403571D01*
X168214286Y-100332143D01*
X168142857Y-100260714D01*
X168142857Y-99760714D01*
X168428572Y-99760714D01*
X167500000Y-99617857D02*
X167000000Y-99617857D01*
X166785714Y-100403571D02*
X167500000Y-100403571D01*
X167500000Y-98903571D01*
X166785714Y-98903571D01*
X165285714Y-100403571D02*
X165785714Y-99689286D01*
X166142857Y-100403571D02*
X166142857Y-98903571D01*
X165571429Y-98903571D01*
X165428571Y-98975000D01*
X165357143Y-99046429D01*
X165285714Y-99189286D01*
X165285714Y-99403571D01*
X165357143Y-99546429D01*
X165428571Y-99617857D01*
X165571429Y-99689286D01*
X166142857Y-99689286D01*
X164642857Y-100260714D02*
X164571429Y-100332143D01*
X164642857Y-100403571D01*
X164714286Y-100332143D01*
X164642857Y-100260714D01*
X164642857Y-100403571D01*
X164642857Y-99475000D02*
X164571429Y-99546429D01*
X164642857Y-99617857D01*
X164714286Y-99546429D01*
X164642857Y-99475000D01*
X164642857Y-99617857D01*
X175857143Y-102953571D02*
X175857143Y-101453571D01*
X175857143Y-102167857D02*
X175000000Y-102167857D01*
X175000000Y-102953571D02*
X175000000Y-101453571D01*
X174285714Y-102953571D02*
X174285714Y-101953571D01*
X174285714Y-101453571D02*
X174357143Y-101525000D01*
X174285714Y-101596429D01*
X174214286Y-101525000D01*
X174285714Y-101453571D01*
X174285714Y-101596429D01*
X172928571Y-101953571D02*
X172928571Y-103167857D01*
X173000000Y-103310714D01*
X173071428Y-103382143D01*
X173214285Y-103453571D01*
X173428571Y-103453571D01*
X173571428Y-103382143D01*
X172928571Y-102882143D02*
X173071428Y-102953571D01*
X173357142Y-102953571D01*
X173500000Y-102882143D01*
X173571428Y-102810714D01*
X173642857Y-102667857D01*
X173642857Y-102239286D01*
X173571428Y-102096429D01*
X173500000Y-102025000D01*
X173357142Y-101953571D01*
X173071428Y-101953571D01*
X172928571Y-102025000D01*
X172214285Y-102953571D02*
X172214285Y-101453571D01*
X171571428Y-102953571D02*
X171571428Y-102167857D01*
X171642857Y-102025000D01*
X171785714Y-101953571D01*
X171999999Y-101953571D01*
X172142857Y-102025000D01*
X172214285Y-102096429D01*
X169928571Y-101453571D02*
X169428571Y-102953571D01*
X168928571Y-101453571D01*
X168214285Y-102953571D02*
X168357143Y-102882143D01*
X168428571Y-102810714D01*
X168500000Y-102667857D01*
X168500000Y-102239286D01*
X168428571Y-102096429D01*
X168357143Y-102025000D01*
X168214285Y-101953571D01*
X168000000Y-101953571D01*
X167857143Y-102025000D01*
X167785714Y-102096429D01*
X167714285Y-102239286D01*
X167714285Y-102667857D01*
X167785714Y-102810714D01*
X167857143Y-102882143D01*
X168000000Y-102953571D01*
X168214285Y-102953571D01*
X166857142Y-102953571D02*
X167000000Y-102882143D01*
X167071428Y-102739286D01*
X167071428Y-101453571D01*
X166500000Y-101953571D02*
X165928571Y-101953571D01*
X166285714Y-101453571D02*
X166285714Y-102739286D01*
X166214286Y-102882143D01*
X166071428Y-102953571D01*
X165928571Y-102953571D01*
X164785714Y-102953571D02*
X164785714Y-102167857D01*
X164857143Y-102025000D01*
X165000000Y-101953571D01*
X165285714Y-101953571D01*
X165428571Y-102025000D01*
X164785714Y-102882143D02*
X164928571Y-102953571D01*
X165285714Y-102953571D01*
X165428571Y-102882143D01*
X165500000Y-102739286D01*
X165500000Y-102596429D01*
X165428571Y-102453571D01*
X165285714Y-102382143D01*
X164928571Y-102382143D01*
X164785714Y-102310714D01*
X163428571Y-101953571D02*
X163428571Y-103167857D01*
X163500000Y-103310714D01*
X163571428Y-103382143D01*
X163714285Y-103453571D01*
X163928571Y-103453571D01*
X164071428Y-103382143D01*
X163428571Y-102882143D02*
X163571428Y-102953571D01*
X163857142Y-102953571D01*
X164000000Y-102882143D01*
X164071428Y-102810714D01*
X164142857Y-102667857D01*
X164142857Y-102239286D01*
X164071428Y-102096429D01*
X164000000Y-102025000D01*
X163857142Y-101953571D01*
X163571428Y-101953571D01*
X163428571Y-102025000D01*
X162142857Y-102882143D02*
X162285714Y-102953571D01*
X162571428Y-102953571D01*
X162714285Y-102882143D01*
X162785714Y-102739286D01*
X162785714Y-102167857D01*
X162714285Y-102025000D01*
X162571428Y-101953571D01*
X162285714Y-101953571D01*
X162142857Y-102025000D01*
X162071428Y-102167857D01*
X162071428Y-102310714D01*
X162785714Y-102453571D01*
M02*
