G04 #@! TF.FileFunction,Copper,L2,Bot,Signal*
%FSLAX46Y46*%
G04 Gerber Fmt 4.6, Leading zero omitted, Abs format (unit mm)*
G04 Created by KiCad (PCBNEW 4.0.7) date 05/01/18 03:54:15*
%MOMM*%
%LPD*%
G01*
G04 APERTURE LIST*
%ADD10C,0.100000*%
%ADD11R,1.700000X1.700000*%
%ADD12O,1.700000X1.700000*%
%ADD13C,0.600000*%
%ADD14C,0.250000*%
%ADD15C,0.254000*%
G04 APERTURE END LIST*
D10*
D11*
X170000000Y-93000000D03*
D12*
X167460000Y-93000000D03*
D11*
X180000000Y-95460000D03*
D12*
X180000000Y-98000000D03*
D11*
X148000000Y-93000000D03*
D12*
X145460000Y-93000000D03*
D11*
X134000000Y-96460000D03*
D12*
X134000000Y-99000000D03*
X134000000Y-101540000D03*
D11*
X134000000Y-108460000D03*
D12*
X134000000Y-111000000D03*
D13*
X163000000Y-105000000D03*
X147500000Y-100700000D03*
X145700000Y-107000000D03*
X149300000Y-112000000D03*
X150500000Y-98000000D03*
X147500000Y-98000000D03*
X173850000Y-107000000D03*
D14*
X147500000Y-100700000D02*
X158700000Y-100700000D01*
X158700000Y-100700000D02*
X163000000Y-105000000D01*
X147500000Y-98000000D02*
X150500000Y-98000000D01*
X176500000Y-97000000D02*
X176500000Y-104350000D01*
X176500000Y-104350000D02*
X173850000Y-107000000D01*
X178040000Y-95460000D02*
X176500000Y-97000000D01*
X180000000Y-95460000D02*
X178040000Y-95460000D01*
D15*
G36*
X139014093Y-95806670D02*
X140526516Y-98070172D01*
X140873000Y-98301685D01*
X140873000Y-103000000D01*
X140883006Y-103049410D01*
X140911447Y-103091035D01*
X140953841Y-103118315D01*
X141000000Y-103127000D01*
X141548792Y-103127000D01*
X142048278Y-104335847D01*
X143854644Y-106145368D01*
X146215982Y-107125882D01*
X147873000Y-107127328D01*
X147873000Y-110000000D01*
X147883006Y-110049410D01*
X147911447Y-110091035D01*
X147953841Y-110118315D01*
X148000000Y-110127000D01*
X154873000Y-110127000D01*
X154873000Y-112873000D01*
X132127000Y-112873000D01*
X132127000Y-111356890D01*
X132558524Y-111356890D01*
X132728355Y-111766924D01*
X133118642Y-112195183D01*
X133643108Y-112441486D01*
X133873000Y-112320819D01*
X133873000Y-111127000D01*
X134127000Y-111127000D01*
X134127000Y-112320819D01*
X134356892Y-112441486D01*
X134881358Y-112195183D01*
X135271645Y-111766924D01*
X135441476Y-111356890D01*
X135320155Y-111127000D01*
X134127000Y-111127000D01*
X133873000Y-111127000D01*
X132679845Y-111127000D01*
X132558524Y-111356890D01*
X132127000Y-111356890D01*
X132127000Y-107610000D01*
X132502560Y-107610000D01*
X132502560Y-109310000D01*
X132546838Y-109545317D01*
X132685910Y-109761441D01*
X132898110Y-109906431D01*
X133006107Y-109928301D01*
X132728355Y-110233076D01*
X132558524Y-110643110D01*
X132679845Y-110873000D01*
X133873000Y-110873000D01*
X133873000Y-110853000D01*
X134127000Y-110853000D01*
X134127000Y-110873000D01*
X135320155Y-110873000D01*
X135441476Y-110643110D01*
X135271645Y-110233076D01*
X134995499Y-109930063D01*
X135085317Y-109913162D01*
X135301441Y-109774090D01*
X135446431Y-109561890D01*
X135497440Y-109310000D01*
X135497440Y-107610000D01*
X135453162Y-107374683D01*
X135314090Y-107158559D01*
X135101890Y-107013569D01*
X134850000Y-106962560D01*
X133150000Y-106962560D01*
X132914683Y-107006838D01*
X132698559Y-107145910D01*
X132553569Y-107358110D01*
X132502560Y-107610000D01*
X132127000Y-107610000D01*
X132127000Y-101896890D01*
X132558524Y-101896890D01*
X132728355Y-102306924D01*
X133118642Y-102735183D01*
X133643108Y-102981486D01*
X133873000Y-102860819D01*
X133873000Y-101667000D01*
X134127000Y-101667000D01*
X134127000Y-102860819D01*
X134356892Y-102981486D01*
X134881358Y-102735183D01*
X135271645Y-102306924D01*
X135441476Y-101896890D01*
X135320155Y-101667000D01*
X134127000Y-101667000D01*
X133873000Y-101667000D01*
X132679845Y-101667000D01*
X132558524Y-101896890D01*
X132127000Y-101896890D01*
X132127000Y-99000000D01*
X132485907Y-99000000D01*
X132598946Y-99568285D01*
X132920853Y-100050054D01*
X133261553Y-100277702D01*
X133118642Y-100344817D01*
X132728355Y-100773076D01*
X132558524Y-101183110D01*
X132679845Y-101413000D01*
X133873000Y-101413000D01*
X133873000Y-101393000D01*
X134127000Y-101393000D01*
X134127000Y-101413000D01*
X135320155Y-101413000D01*
X135441476Y-101183110D01*
X135271645Y-100773076D01*
X134881358Y-100344817D01*
X134738447Y-100277702D01*
X135079147Y-100050054D01*
X135401054Y-99568285D01*
X135514093Y-99000000D01*
X135401054Y-98431715D01*
X135079147Y-97949946D01*
X135037548Y-97922150D01*
X135085317Y-97913162D01*
X135301441Y-97774090D01*
X135446431Y-97561890D01*
X135497440Y-97310000D01*
X135497440Y-95610000D01*
X135453162Y-95374683D01*
X135314090Y-95158559D01*
X135101890Y-95013569D01*
X134850000Y-94962560D01*
X133150000Y-94962560D01*
X132914683Y-95006838D01*
X132698559Y-95145910D01*
X132553569Y-95358110D01*
X132502560Y-95610000D01*
X132502560Y-97310000D01*
X132546838Y-97545317D01*
X132685910Y-97761441D01*
X132898110Y-97906431D01*
X132965541Y-97920086D01*
X132920853Y-97949946D01*
X132598946Y-98431715D01*
X132485907Y-99000000D01*
X132127000Y-99000000D01*
X132127000Y-94127000D01*
X138679986Y-94127000D01*
X139014093Y-95806670D01*
X139014093Y-95806670D01*
G37*
X139014093Y-95806670D02*
X140526516Y-98070172D01*
X140873000Y-98301685D01*
X140873000Y-103000000D01*
X140883006Y-103049410D01*
X140911447Y-103091035D01*
X140953841Y-103118315D01*
X141000000Y-103127000D01*
X141548792Y-103127000D01*
X142048278Y-104335847D01*
X143854644Y-106145368D01*
X146215982Y-107125882D01*
X147873000Y-107127328D01*
X147873000Y-110000000D01*
X147883006Y-110049410D01*
X147911447Y-110091035D01*
X147953841Y-110118315D01*
X148000000Y-110127000D01*
X154873000Y-110127000D01*
X154873000Y-112873000D01*
X132127000Y-112873000D01*
X132127000Y-111356890D01*
X132558524Y-111356890D01*
X132728355Y-111766924D01*
X133118642Y-112195183D01*
X133643108Y-112441486D01*
X133873000Y-112320819D01*
X133873000Y-111127000D01*
X134127000Y-111127000D01*
X134127000Y-112320819D01*
X134356892Y-112441486D01*
X134881358Y-112195183D01*
X135271645Y-111766924D01*
X135441476Y-111356890D01*
X135320155Y-111127000D01*
X134127000Y-111127000D01*
X133873000Y-111127000D01*
X132679845Y-111127000D01*
X132558524Y-111356890D01*
X132127000Y-111356890D01*
X132127000Y-107610000D01*
X132502560Y-107610000D01*
X132502560Y-109310000D01*
X132546838Y-109545317D01*
X132685910Y-109761441D01*
X132898110Y-109906431D01*
X133006107Y-109928301D01*
X132728355Y-110233076D01*
X132558524Y-110643110D01*
X132679845Y-110873000D01*
X133873000Y-110873000D01*
X133873000Y-110853000D01*
X134127000Y-110853000D01*
X134127000Y-110873000D01*
X135320155Y-110873000D01*
X135441476Y-110643110D01*
X135271645Y-110233076D01*
X134995499Y-109930063D01*
X135085317Y-109913162D01*
X135301441Y-109774090D01*
X135446431Y-109561890D01*
X135497440Y-109310000D01*
X135497440Y-107610000D01*
X135453162Y-107374683D01*
X135314090Y-107158559D01*
X135101890Y-107013569D01*
X134850000Y-106962560D01*
X133150000Y-106962560D01*
X132914683Y-107006838D01*
X132698559Y-107145910D01*
X132553569Y-107358110D01*
X132502560Y-107610000D01*
X132127000Y-107610000D01*
X132127000Y-101896890D01*
X132558524Y-101896890D01*
X132728355Y-102306924D01*
X133118642Y-102735183D01*
X133643108Y-102981486D01*
X133873000Y-102860819D01*
X133873000Y-101667000D01*
X134127000Y-101667000D01*
X134127000Y-102860819D01*
X134356892Y-102981486D01*
X134881358Y-102735183D01*
X135271645Y-102306924D01*
X135441476Y-101896890D01*
X135320155Y-101667000D01*
X134127000Y-101667000D01*
X133873000Y-101667000D01*
X132679845Y-101667000D01*
X132558524Y-101896890D01*
X132127000Y-101896890D01*
X132127000Y-99000000D01*
X132485907Y-99000000D01*
X132598946Y-99568285D01*
X132920853Y-100050054D01*
X133261553Y-100277702D01*
X133118642Y-100344817D01*
X132728355Y-100773076D01*
X132558524Y-101183110D01*
X132679845Y-101413000D01*
X133873000Y-101413000D01*
X133873000Y-101393000D01*
X134127000Y-101393000D01*
X134127000Y-101413000D01*
X135320155Y-101413000D01*
X135441476Y-101183110D01*
X135271645Y-100773076D01*
X134881358Y-100344817D01*
X134738447Y-100277702D01*
X135079147Y-100050054D01*
X135401054Y-99568285D01*
X135514093Y-99000000D01*
X135401054Y-98431715D01*
X135079147Y-97949946D01*
X135037548Y-97922150D01*
X135085317Y-97913162D01*
X135301441Y-97774090D01*
X135446431Y-97561890D01*
X135497440Y-97310000D01*
X135497440Y-95610000D01*
X135453162Y-95374683D01*
X135314090Y-95158559D01*
X135101890Y-95013569D01*
X134850000Y-94962560D01*
X133150000Y-94962560D01*
X132914683Y-95006838D01*
X132698559Y-95145910D01*
X132553569Y-95358110D01*
X132502560Y-95610000D01*
X132502560Y-97310000D01*
X132546838Y-97545317D01*
X132685910Y-97761441D01*
X132898110Y-97906431D01*
X132965541Y-97920086D01*
X132920853Y-97949946D01*
X132598946Y-98431715D01*
X132485907Y-99000000D01*
X132127000Y-99000000D01*
X132127000Y-94127000D01*
X138679986Y-94127000D01*
X139014093Y-95806670D01*
M02*
