G04 #@! TF.FileFunction,Legend,Top*
%FSLAX46Y46*%
G04 Gerber Fmt 4.6, Leading zero omitted, Abs format (unit mm)*
G04 Created by KiCad (PCBNEW 4.0.7) date 05/01/18 03:54:15*
%MOMM*%
%LPD*%
G01*
G04 APERTURE LIST*
%ADD10C,0.100000*%
%ADD11C,0.300000*%
%ADD12C,0.120000*%
%ADD13C,0.150000*%
G04 APERTURE END LIST*
D10*
D11*
X139857143Y-92250000D02*
X139714286Y-92178571D01*
X139500000Y-92178571D01*
X139285715Y-92250000D01*
X139142857Y-92392857D01*
X139071429Y-92535714D01*
X139000000Y-92821429D01*
X139000000Y-93035714D01*
X139071429Y-93321429D01*
X139142857Y-93464286D01*
X139285715Y-93607143D01*
X139500000Y-93678571D01*
X139642857Y-93678571D01*
X139857143Y-93607143D01*
X139928572Y-93535714D01*
X139928572Y-93035714D01*
X139642857Y-93035714D01*
X140571429Y-93678571D02*
X140571429Y-92178571D01*
X141428572Y-93678571D01*
X141428572Y-92178571D01*
X142142858Y-93678571D02*
X142142858Y-92178571D01*
X142500001Y-92178571D01*
X142714286Y-92250000D01*
X142857144Y-92392857D01*
X142928572Y-92535714D01*
X143000001Y-92821429D01*
X143000001Y-93035714D01*
X142928572Y-93321429D01*
X142857144Y-93464286D01*
X142714286Y-93607143D01*
X142500001Y-93678571D01*
X142142858Y-93678571D01*
X151071429Y-93678571D02*
X150214286Y-93678571D01*
X150642858Y-93678571D02*
X150642858Y-92178571D01*
X150500001Y-92392857D01*
X150357143Y-92535714D01*
X150214286Y-92607143D01*
X151642857Y-92321429D02*
X151714286Y-92250000D01*
X151857143Y-92178571D01*
X152214286Y-92178571D01*
X152357143Y-92250000D01*
X152428572Y-92321429D01*
X152500000Y-92464286D01*
X152500000Y-92607143D01*
X152428572Y-92821429D01*
X151571429Y-93678571D01*
X152500000Y-93678571D01*
X152928571Y-92178571D02*
X153428571Y-93678571D01*
X153928571Y-92178571D01*
X137750000Y-109178571D02*
X137035714Y-109178571D01*
X137035714Y-107678571D01*
X139035714Y-107750000D02*
X138892857Y-107678571D01*
X138678571Y-107678571D01*
X138464286Y-107750000D01*
X138321428Y-107892857D01*
X138250000Y-108035714D01*
X138178571Y-108321429D01*
X138178571Y-108535714D01*
X138250000Y-108821429D01*
X138321428Y-108964286D01*
X138464286Y-109107143D01*
X138678571Y-109178571D01*
X138821428Y-109178571D01*
X139035714Y-109107143D01*
X139107143Y-109035714D01*
X139107143Y-108535714D01*
X138821428Y-108535714D01*
X140607143Y-109035714D02*
X140535714Y-109107143D01*
X140321428Y-109178571D01*
X140178571Y-109178571D01*
X139964286Y-109107143D01*
X139821428Y-108964286D01*
X139750000Y-108821429D01*
X139678571Y-108535714D01*
X139678571Y-108321429D01*
X139750000Y-108035714D01*
X139821428Y-107892857D01*
X139964286Y-107750000D01*
X140178571Y-107678571D01*
X140321428Y-107678571D01*
X140535714Y-107750000D01*
X140607143Y-107821429D01*
X142392857Y-109178571D02*
X142392857Y-107678571D01*
X143107143Y-109178571D02*
X143107143Y-107678571D01*
X143964286Y-109178571D01*
X143964286Y-107678571D01*
X138857143Y-100750000D02*
X138714286Y-100678571D01*
X138500000Y-100678571D01*
X138285715Y-100750000D01*
X138142857Y-100892857D01*
X138071429Y-101035714D01*
X138000000Y-101321429D01*
X138000000Y-101535714D01*
X138071429Y-101821429D01*
X138142857Y-101964286D01*
X138285715Y-102107143D01*
X138500000Y-102178571D01*
X138642857Y-102178571D01*
X138857143Y-102107143D01*
X138928572Y-102035714D01*
X138928572Y-101535714D01*
X138642857Y-101535714D01*
X139571429Y-102178571D02*
X139571429Y-100678571D01*
X140428572Y-102178571D01*
X140428572Y-100678571D01*
X141142858Y-102178571D02*
X141142858Y-100678571D01*
X141500001Y-100678571D01*
X141714286Y-100750000D01*
X141857144Y-100892857D01*
X141928572Y-101035714D01*
X142000001Y-101321429D01*
X142000001Y-101535714D01*
X141928572Y-101821429D01*
X141857144Y-101964286D01*
X141714286Y-102107143D01*
X141500001Y-102178571D01*
X141142858Y-102178571D01*
X138785715Y-99535714D02*
X138714286Y-99607143D01*
X138500000Y-99678571D01*
X138357143Y-99678571D01*
X138142858Y-99607143D01*
X138000000Y-99464286D01*
X137928572Y-99321429D01*
X137857143Y-99035714D01*
X137857143Y-98821429D01*
X137928572Y-98535714D01*
X138000000Y-98392857D01*
X138142858Y-98250000D01*
X138357143Y-98178571D01*
X138500000Y-98178571D01*
X138714286Y-98250000D01*
X138785715Y-98321429D01*
X139214286Y-98178571D02*
X140071429Y-98178571D01*
X139642858Y-99678571D02*
X139642858Y-98178571D01*
X141285715Y-99678571D02*
X140571429Y-99678571D01*
X140571429Y-98178571D01*
X137750001Y-95678571D02*
X138750001Y-95678571D01*
X137750001Y-97178571D01*
X138750001Y-97178571D01*
X140178572Y-97035714D02*
X140107143Y-97107143D01*
X139892857Y-97178571D01*
X139750000Y-97178571D01*
X139535715Y-97107143D01*
X139392857Y-96964286D01*
X139321429Y-96821429D01*
X139250000Y-96535714D01*
X139250000Y-96321429D01*
X139321429Y-96035714D01*
X139392857Y-95892857D01*
X139535715Y-95750000D01*
X139750000Y-95678571D01*
X139892857Y-95678571D01*
X140107143Y-95750000D01*
X140178572Y-95821429D01*
X161428572Y-93678571D02*
X160714286Y-93678571D01*
X160714286Y-92178571D01*
X162142858Y-93678571D02*
X162000000Y-93607143D01*
X161928572Y-93535714D01*
X161857143Y-93392857D01*
X161857143Y-92964286D01*
X161928572Y-92821429D01*
X162000000Y-92750000D01*
X162142858Y-92678571D01*
X162357143Y-92678571D01*
X162500000Y-92750000D01*
X162571429Y-92821429D01*
X162642858Y-92964286D01*
X162642858Y-93392857D01*
X162571429Y-93535714D01*
X162500000Y-93607143D01*
X162357143Y-93678571D01*
X162142858Y-93678571D01*
X163928572Y-93678571D02*
X163928572Y-92892857D01*
X163857143Y-92750000D01*
X163714286Y-92678571D01*
X163428572Y-92678571D01*
X163285715Y-92750000D01*
X163928572Y-93607143D02*
X163785715Y-93678571D01*
X163428572Y-93678571D01*
X163285715Y-93607143D01*
X163214286Y-93464286D01*
X163214286Y-93321429D01*
X163285715Y-93178571D01*
X163428572Y-93107143D01*
X163785715Y-93107143D01*
X163928572Y-93035714D01*
X165285715Y-93678571D02*
X165285715Y-92178571D01*
X165285715Y-93607143D02*
X165142858Y-93678571D01*
X164857144Y-93678571D01*
X164714286Y-93607143D01*
X164642858Y-93535714D01*
X164571429Y-93392857D01*
X164571429Y-92964286D01*
X164642858Y-92821429D01*
X164714286Y-92750000D01*
X164857144Y-92678571D01*
X165142858Y-92678571D01*
X165285715Y-92750000D01*
X174571429Y-96403571D02*
X174571429Y-94903571D01*
X174571429Y-95617857D02*
X175428572Y-95617857D01*
X175428572Y-96403571D02*
X175428572Y-94903571D01*
X174571429Y-98953571D02*
X174571429Y-97453571D01*
X175428572Y-98953571D01*
X175428572Y-97453571D01*
X180250000Y-106821429D02*
X180250000Y-106107143D01*
X180678571Y-106964286D02*
X179178571Y-106464286D01*
X180678571Y-105964286D01*
X180535714Y-104607143D02*
X180607143Y-104678572D01*
X180678571Y-104892858D01*
X180678571Y-105035715D01*
X180607143Y-105250000D01*
X180464286Y-105392858D01*
X180321429Y-105464286D01*
X180035714Y-105535715D01*
X179821429Y-105535715D01*
X179535714Y-105464286D01*
X179392857Y-105392858D01*
X179250000Y-105250000D01*
X179178571Y-105035715D01*
X179178571Y-104892858D01*
X179250000Y-104678572D01*
X179321429Y-104607143D01*
X180678571Y-102821429D02*
X179178571Y-102821429D01*
X180678571Y-102107143D02*
X179178571Y-102107143D01*
X180678571Y-101250000D01*
X179178571Y-101250000D01*
D12*
X166130000Y-91670000D02*
X166130000Y-94330000D01*
X168730000Y-91670000D02*
X166130000Y-91670000D01*
X168730000Y-94330000D02*
X166130000Y-94330000D01*
X168730000Y-91670000D02*
X168730000Y-94330000D01*
X170000000Y-91670000D02*
X171330000Y-91670000D01*
X171330000Y-91670000D02*
X171330000Y-93000000D01*
X178670000Y-99330000D02*
X181330000Y-99330000D01*
X178670000Y-96730000D02*
X178670000Y-99330000D01*
X181330000Y-96730000D02*
X181330000Y-99330000D01*
X178670000Y-96730000D02*
X181330000Y-96730000D01*
X178670000Y-95460000D02*
X178670000Y-94130000D01*
X178670000Y-94130000D02*
X180000000Y-94130000D01*
X144130000Y-91670000D02*
X144130000Y-94330000D01*
X146730000Y-91670000D02*
X144130000Y-91670000D01*
X146730000Y-94330000D02*
X144130000Y-94330000D01*
X146730000Y-91670000D02*
X146730000Y-94330000D01*
X148000000Y-91670000D02*
X149330000Y-91670000D01*
X149330000Y-91670000D02*
X149330000Y-93000000D01*
X132670000Y-102870000D02*
X135330000Y-102870000D01*
X132670000Y-97730000D02*
X132670000Y-102870000D01*
X135330000Y-97730000D02*
X135330000Y-102870000D01*
X132670000Y-97730000D02*
X135330000Y-97730000D01*
X132670000Y-96460000D02*
X132670000Y-95130000D01*
X132670000Y-95130000D02*
X134000000Y-95130000D01*
X132670000Y-112330000D02*
X135330000Y-112330000D01*
X132670000Y-109730000D02*
X132670000Y-112330000D01*
X135330000Y-109730000D02*
X135330000Y-112330000D01*
X132670000Y-109730000D02*
X135330000Y-109730000D01*
X132670000Y-108460000D02*
X132670000Y-107130000D01*
X132670000Y-107130000D02*
X134000000Y-107130000D01*
X160410000Y-96090000D02*
X159150000Y-96090000D01*
X153590000Y-96090000D02*
X154850000Y-96090000D01*
X160410000Y-99850000D02*
X160410000Y-96090000D01*
X153590000Y-102100000D02*
X153590000Y-96090000D01*
X151250000Y-112880000D02*
X150050000Y-112880000D01*
X150050000Y-111120000D02*
X151250000Y-111120000D01*
X172050000Y-111120000D02*
X173250000Y-111120000D01*
X173250000Y-112880000D02*
X172050000Y-112880000D01*
X140050000Y-111120000D02*
X141250000Y-111120000D01*
X141250000Y-112880000D02*
X140050000Y-112880000D01*
X171900000Y-106120000D02*
X173100000Y-106120000D01*
X173100000Y-107880000D02*
X171900000Y-107880000D01*
X140050000Y-104120000D02*
X141250000Y-104120000D01*
X141250000Y-105880000D02*
X140050000Y-105880000D01*
X149620000Y-99950000D02*
X149620000Y-98750000D01*
X151380000Y-98750000D02*
X151380000Y-99950000D01*
X148380000Y-98750000D02*
X148380000Y-99950000D01*
X146620000Y-99950000D02*
X146620000Y-98750000D01*
X162250000Y-105880000D02*
X161050000Y-105880000D01*
X161050000Y-104120000D02*
X162250000Y-104120000D01*
X164400000Y-112700000D02*
X166100000Y-112700000D01*
X159600000Y-109300000D02*
X159600000Y-109000000D01*
X159600000Y-109000000D02*
X164400000Y-109000000D01*
X164400000Y-109000000D02*
X164400000Y-109300000D01*
X164400000Y-112700000D02*
X164400000Y-113000000D01*
X164400000Y-113000000D02*
X159600000Y-113000000D01*
X159600000Y-113000000D02*
X159600000Y-112700000D01*
X146450000Y-104030000D02*
X144750000Y-104030000D01*
X151250000Y-107430000D02*
X151250000Y-107730000D01*
X151250000Y-107730000D02*
X146450000Y-107730000D01*
X146450000Y-107730000D02*
X146450000Y-107430000D01*
X146450000Y-104030000D02*
X146450000Y-103730000D01*
X146450000Y-103730000D02*
X151250000Y-103730000D01*
X151250000Y-103730000D02*
X151250000Y-104030000D01*
D13*
X168261905Y-107452381D02*
X168261905Y-106452381D01*
X168500000Y-106452381D01*
X168642858Y-106500000D01*
X168738096Y-106595238D01*
X168785715Y-106690476D01*
X168833334Y-106880952D01*
X168833334Y-107023810D01*
X168785715Y-107214286D01*
X168738096Y-107309524D01*
X168642858Y-107404762D01*
X168500000Y-107452381D01*
X168261905Y-107452381D01*
X169785715Y-107452381D02*
X169214286Y-107452381D01*
X169500000Y-107452381D02*
X169500000Y-106452381D01*
X169404762Y-106595238D01*
X169309524Y-106690476D01*
X169214286Y-106738095D01*
X171782381Y-93333333D02*
X172496667Y-93333333D01*
X172639524Y-93380953D01*
X172734762Y-93476191D01*
X172782381Y-93619048D01*
X172782381Y-93714286D01*
X172782381Y-92333333D02*
X172782381Y-92904762D01*
X172782381Y-92619048D02*
X171782381Y-92619048D01*
X171925238Y-92714286D01*
X172020476Y-92809524D01*
X172068095Y-92904762D01*
X179666667Y-92582381D02*
X179666667Y-93296667D01*
X179619047Y-93439524D01*
X179523809Y-93534762D01*
X179380952Y-93582381D01*
X179285714Y-93582381D01*
X180095238Y-92677619D02*
X180142857Y-92630000D01*
X180238095Y-92582381D01*
X180476191Y-92582381D01*
X180571429Y-92630000D01*
X180619048Y-92677619D01*
X180666667Y-92772857D01*
X180666667Y-92868095D01*
X180619048Y-93010952D01*
X180047619Y-93582381D01*
X180666667Y-93582381D01*
X149782381Y-93333333D02*
X150496667Y-93333333D01*
X150639524Y-93380953D01*
X150734762Y-93476191D01*
X150782381Y-93619048D01*
X150782381Y-93714286D01*
X149782381Y-92952381D02*
X149782381Y-92333333D01*
X150163333Y-92666667D01*
X150163333Y-92523809D01*
X150210952Y-92428571D01*
X150258571Y-92380952D01*
X150353810Y-92333333D01*
X150591905Y-92333333D01*
X150687143Y-92380952D01*
X150734762Y-92428571D01*
X150782381Y-92523809D01*
X150782381Y-92809524D01*
X150734762Y-92904762D01*
X150687143Y-92952381D01*
X133666667Y-93582381D02*
X133666667Y-94296667D01*
X133619047Y-94439524D01*
X133523809Y-94534762D01*
X133380952Y-94582381D01*
X133285714Y-94582381D01*
X134571429Y-93915714D02*
X134571429Y-94582381D01*
X134333333Y-93534762D02*
X134095238Y-94249048D01*
X134714286Y-94249048D01*
X133666667Y-105582381D02*
X133666667Y-106296667D01*
X133619047Y-106439524D01*
X133523809Y-106534762D01*
X133380952Y-106582381D01*
X133285714Y-106582381D01*
X134619048Y-105582381D02*
X134142857Y-105582381D01*
X134095238Y-106058571D01*
X134142857Y-106010952D01*
X134238095Y-105963333D01*
X134476191Y-105963333D01*
X134571429Y-106010952D01*
X134619048Y-106058571D01*
X134666667Y-106153810D01*
X134666667Y-106391905D01*
X134619048Y-106487143D01*
X134571429Y-106534762D01*
X134476191Y-106582381D01*
X134238095Y-106582381D01*
X134142857Y-106534762D01*
X134095238Y-106487143D01*
X153047619Y-98095238D02*
X153000000Y-98190476D01*
X152904762Y-98285714D01*
X152761905Y-98428571D01*
X152714286Y-98523810D01*
X152714286Y-98619048D01*
X152952381Y-98571429D02*
X152904762Y-98666667D01*
X152809524Y-98761905D01*
X152619048Y-98809524D01*
X152285714Y-98809524D01*
X152095238Y-98761905D01*
X152000000Y-98666667D01*
X151952381Y-98571429D01*
X151952381Y-98380952D01*
X152000000Y-98285714D01*
X152095238Y-98190476D01*
X152285714Y-98142857D01*
X152619048Y-98142857D01*
X152809524Y-98190476D01*
X152904762Y-98285714D01*
X152952381Y-98380952D01*
X152952381Y-98571429D01*
X152952381Y-97190476D02*
X152952381Y-97761905D01*
X152952381Y-97476191D02*
X151952381Y-97476191D01*
X152095238Y-97571429D01*
X152190476Y-97666667D01*
X152238095Y-97761905D01*
X150483334Y-110752381D02*
X150150000Y-110276190D01*
X149911905Y-110752381D02*
X149911905Y-109752381D01*
X150292858Y-109752381D01*
X150388096Y-109800000D01*
X150435715Y-109847619D01*
X150483334Y-109942857D01*
X150483334Y-110085714D01*
X150435715Y-110180952D01*
X150388096Y-110228571D01*
X150292858Y-110276190D01*
X149911905Y-110276190D01*
X151435715Y-110752381D02*
X150864286Y-110752381D01*
X151150000Y-110752381D02*
X151150000Y-109752381D01*
X151054762Y-109895238D01*
X150959524Y-109990476D01*
X150864286Y-110038095D01*
X172483334Y-114152381D02*
X172150000Y-113676190D01*
X171911905Y-114152381D02*
X171911905Y-113152381D01*
X172292858Y-113152381D01*
X172388096Y-113200000D01*
X172435715Y-113247619D01*
X172483334Y-113342857D01*
X172483334Y-113485714D01*
X172435715Y-113580952D01*
X172388096Y-113628571D01*
X172292858Y-113676190D01*
X171911905Y-113676190D01*
X172864286Y-113247619D02*
X172911905Y-113200000D01*
X173007143Y-113152381D01*
X173245239Y-113152381D01*
X173340477Y-113200000D01*
X173388096Y-113247619D01*
X173435715Y-113342857D01*
X173435715Y-113438095D01*
X173388096Y-113580952D01*
X172816667Y-114152381D01*
X173435715Y-114152381D01*
X140483334Y-114152381D02*
X140150000Y-113676190D01*
X139911905Y-114152381D02*
X139911905Y-113152381D01*
X140292858Y-113152381D01*
X140388096Y-113200000D01*
X140435715Y-113247619D01*
X140483334Y-113342857D01*
X140483334Y-113485714D01*
X140435715Y-113580952D01*
X140388096Y-113628571D01*
X140292858Y-113676190D01*
X139911905Y-113676190D01*
X140816667Y-113152381D02*
X141435715Y-113152381D01*
X141102381Y-113533333D01*
X141245239Y-113533333D01*
X141340477Y-113580952D01*
X141388096Y-113628571D01*
X141435715Y-113723810D01*
X141435715Y-113961905D01*
X141388096Y-114057143D01*
X141340477Y-114104762D01*
X141245239Y-114152381D01*
X140959524Y-114152381D01*
X140864286Y-114104762D01*
X140816667Y-114057143D01*
X172333334Y-109152381D02*
X172000000Y-108676190D01*
X171761905Y-109152381D02*
X171761905Y-108152381D01*
X172142858Y-108152381D01*
X172238096Y-108200000D01*
X172285715Y-108247619D01*
X172333334Y-108342857D01*
X172333334Y-108485714D01*
X172285715Y-108580952D01*
X172238096Y-108628571D01*
X172142858Y-108676190D01*
X171761905Y-108676190D01*
X173190477Y-108485714D02*
X173190477Y-109152381D01*
X172952381Y-108104762D02*
X172714286Y-108819048D01*
X173333334Y-108819048D01*
X140483334Y-107152381D02*
X140150000Y-106676190D01*
X139911905Y-107152381D02*
X139911905Y-106152381D01*
X140292858Y-106152381D01*
X140388096Y-106200000D01*
X140435715Y-106247619D01*
X140483334Y-106342857D01*
X140483334Y-106485714D01*
X140435715Y-106580952D01*
X140388096Y-106628571D01*
X140292858Y-106676190D01*
X139911905Y-106676190D01*
X141388096Y-106152381D02*
X140911905Y-106152381D01*
X140864286Y-106628571D01*
X140911905Y-106580952D01*
X141007143Y-106533333D01*
X141245239Y-106533333D01*
X141340477Y-106580952D01*
X141388096Y-106628571D01*
X141435715Y-106723810D01*
X141435715Y-106961905D01*
X141388096Y-107057143D01*
X141340477Y-107104762D01*
X141245239Y-107152381D01*
X141007143Y-107152381D01*
X140911905Y-107104762D01*
X140864286Y-107057143D01*
X152652381Y-99516666D02*
X152176190Y-99850000D01*
X152652381Y-100088095D02*
X151652381Y-100088095D01*
X151652381Y-99707142D01*
X151700000Y-99611904D01*
X151747619Y-99564285D01*
X151842857Y-99516666D01*
X151985714Y-99516666D01*
X152080952Y-99564285D01*
X152128571Y-99611904D01*
X152176190Y-99707142D01*
X152176190Y-100088095D01*
X151652381Y-98659523D02*
X151652381Y-98850000D01*
X151700000Y-98945238D01*
X151747619Y-98992857D01*
X151890476Y-99088095D01*
X152080952Y-99135714D01*
X152461905Y-99135714D01*
X152557143Y-99088095D01*
X152604762Y-99040476D01*
X152652381Y-98945238D01*
X152652381Y-98754761D01*
X152604762Y-98659523D01*
X152557143Y-98611904D01*
X152461905Y-98564285D01*
X152223810Y-98564285D01*
X152128571Y-98611904D01*
X152080952Y-98659523D01*
X152033333Y-98754761D01*
X152033333Y-98945238D01*
X152080952Y-99040476D01*
X152128571Y-99088095D01*
X152223810Y-99135714D01*
X146252381Y-99516666D02*
X145776190Y-99850000D01*
X146252381Y-100088095D02*
X145252381Y-100088095D01*
X145252381Y-99707142D01*
X145300000Y-99611904D01*
X145347619Y-99564285D01*
X145442857Y-99516666D01*
X145585714Y-99516666D01*
X145680952Y-99564285D01*
X145728571Y-99611904D01*
X145776190Y-99707142D01*
X145776190Y-100088095D01*
X145252381Y-99183333D02*
X145252381Y-98516666D01*
X146252381Y-98945238D01*
X161483334Y-103752381D02*
X161150000Y-103276190D01*
X160911905Y-103752381D02*
X160911905Y-102752381D01*
X161292858Y-102752381D01*
X161388096Y-102800000D01*
X161435715Y-102847619D01*
X161483334Y-102942857D01*
X161483334Y-103085714D01*
X161435715Y-103180952D01*
X161388096Y-103228571D01*
X161292858Y-103276190D01*
X160911905Y-103276190D01*
X162054762Y-103180952D02*
X161959524Y-103133333D01*
X161911905Y-103085714D01*
X161864286Y-102990476D01*
X161864286Y-102942857D01*
X161911905Y-102847619D01*
X161959524Y-102800000D01*
X162054762Y-102752381D01*
X162245239Y-102752381D01*
X162340477Y-102800000D01*
X162388096Y-102847619D01*
X162435715Y-102942857D01*
X162435715Y-102990476D01*
X162388096Y-103085714D01*
X162340477Y-103133333D01*
X162245239Y-103180952D01*
X162054762Y-103180952D01*
X161959524Y-103228571D01*
X161911905Y-103276190D01*
X161864286Y-103371429D01*
X161864286Y-103561905D01*
X161911905Y-103657143D01*
X161959524Y-103704762D01*
X162054762Y-103752381D01*
X162245239Y-103752381D01*
X162340477Y-103704762D01*
X162388096Y-103657143D01*
X162435715Y-103561905D01*
X162435715Y-103371429D01*
X162388096Y-103276190D01*
X162340477Y-103228571D01*
X162245239Y-103180952D01*
X161238095Y-113152381D02*
X161238095Y-113961905D01*
X161285714Y-114057143D01*
X161333333Y-114104762D01*
X161428571Y-114152381D01*
X161619048Y-114152381D01*
X161714286Y-114104762D01*
X161761905Y-114057143D01*
X161809524Y-113961905D01*
X161809524Y-113152381D01*
X162809524Y-114152381D02*
X162238095Y-114152381D01*
X162523809Y-114152381D02*
X162523809Y-113152381D01*
X162428571Y-113295238D01*
X162333333Y-113390476D01*
X162238095Y-113438095D01*
X148088095Y-102482381D02*
X148088095Y-103291905D01*
X148135714Y-103387143D01*
X148183333Y-103434762D01*
X148278571Y-103482381D01*
X148469048Y-103482381D01*
X148564286Y-103434762D01*
X148611905Y-103387143D01*
X148659524Y-103291905D01*
X148659524Y-102482381D01*
X149088095Y-102577619D02*
X149135714Y-102530000D01*
X149230952Y-102482381D01*
X149469048Y-102482381D01*
X149564286Y-102530000D01*
X149611905Y-102577619D01*
X149659524Y-102672857D01*
X149659524Y-102768095D01*
X149611905Y-102910952D01*
X149040476Y-103482381D01*
X149659524Y-103482381D01*
M02*
