M48
;DRILL file {KiCad 4.0.7} date 11/28/17 11:27:46
;FORMAT={-:-/ absolute / inch / decimal}
FMAT,2
INCH,TZ
T1C0.012
T2C0.016
T3C0.020
T4C0.022
T5C0.039
T6C0.047
T7C0.051
T8C0.052
T9C0.091
T10C0.094
T11C0.140
%
G90
G05
M72
T1
X4.0059Y-2.6575
X4.0059Y-2.6969
X4.0256Y-2.6772
X4.0453Y-2.6575
X4.0453Y-2.6969
T2
X3.5276Y-2.8465
X3.7047Y-3.6341
X3.7559Y-2.9921
X3.7717Y-3.5827
X3.7874Y-3.4331
X3.8346Y-3.5827
X3.8583Y-2.622
X3.8583Y-2.7087
X3.9134Y-2.7244
X3.9173Y-3.4841
X3.9173Y-3.5841
X3.937Y-2.8268
X3.937Y-2.9134
X3.9685Y-2.8031
X3.9685Y-2.8976
X3.9921Y-3.4409
X4.0079Y-3.0787
X4.0713Y-2.8068
X4.0817Y-2.7343
X4.0945Y-3.7795
X4.1182Y-2.74
X4.1417Y-2.811
X4.1497Y-2.7402
X4.1732Y-3.4488
X4.1791Y-2.9665
X4.2047Y-3.4961
X4.2047Y-3.5512
X4.2047Y-3.7854
X4.2992Y-3.5512
X4.3071Y-3.7854
X4.4193Y-3.4016
X4.8622Y-2.9331
X4.8622Y-3.3268
X4.8622Y-3.4134
X4.8622Y-3.4941
X4.8878Y-3.6909
X4.9331Y-3.6909
X4.9409Y-2.8543
X4.9606Y-3.4055
X4.9619Y-3.312
X4.9902Y-3.5728
X4.9902Y-3.8091
X5.0315Y-3.0079
X5.0591Y-2.7756
X5.0787Y-2.8937
X5.0872Y-3.2494
X5.1083Y-3.3661
X5.1181Y-2.8346
X5.1181Y-2.9409
X5.1575Y-3.3071
X5.1575Y-3.4134
X6.0709Y-2.9528
X6.0906Y-3.4252
X6.1299Y-2.9331
X6.1496Y-3.4252
X6.1614Y-2.9016
X6.189Y-2.874
X6.189Y-3.3858
X6.2402Y-2.8228
X6.2402Y-3.3346
T5
X3.5197Y-3.1811
X3.5197Y-3.2811
X3.7559Y-3.0811
X3.7559Y-3.1811
X3.7559Y-3.2811
X3.8559Y-3.0811
X3.8559Y-3.1811
X3.8559Y-3.2811
X5.1854Y-3.6122
X5.1854Y-3.7697
X5.2854Y-3.6122
X5.2854Y-3.7697
X5.3854Y-3.6122
X5.3854Y-3.7697
X5.4854Y-3.6122
X5.4854Y-3.7697
X5.7728Y-3.6122
X5.7728Y-3.7697
X5.8728Y-3.6122
X5.8728Y-3.7697
X5.9728Y-3.6122
X5.9728Y-3.7697
X6.0728Y-3.6122
X6.0728Y-3.7697
X6.3858Y-3.3748
X6.3858Y-3.4748
X6.3858Y-3.5748
X6.3858Y-3.6748
X6.437Y-2.7728
X6.437Y-2.8728
X6.437Y-2.9528
X6.437Y-3.0528
X6.5433Y-3.3748
X6.5433Y-3.4748
X6.5433Y-3.5748
X6.5433Y-3.6748
T6
X5.7843Y-2.7165
X5.7843Y-3.189
X5.9843Y-2.7165
X5.9843Y-3.189
T7
X5.5118Y-2.6969
X5.5118Y-2.8937
X5.5118Y-3.189
X5.5118Y-3.3858
T8
X3.7358Y-2.126
X6.5791Y-2.126
T9
X6.5421Y-2.6528
X6.5421Y-3.1929
T10
X6.5791Y-2.4409
T11
X4.0709Y-2.4409
X6.2441Y-1.811
T3
X3.4774Y-2.6575G85X3.503Y-2.6575
G05
X3.4774Y-2.9331G85X3.503Y-2.9331
G05
T4
X3.5965Y-2.6909G85X3.5965Y-2.7028
G05
X3.5965Y-2.8878G85X3.5965Y-2.8996
G05
T0
M30
