G04 #@! TF.FileFunction,Legend,Bot*
%FSLAX46Y46*%
G04 Gerber Fmt 4.6, Leading zero omitted, Abs format (unit mm)*
G04 Created by KiCad (PCBNEW 4.0.7) date 11/27/17 19:20:33*
%MOMM*%
%LPD*%
G01*
G04 APERTURE LIST*
%ADD10C,0.100000*%
%ADD11C,0.120000*%
%ADD12C,0.150000*%
G04 APERTURE END LIST*
D10*
D11*
X124650000Y-74250000D02*
X124650000Y-73250000D01*
X126350000Y-73250000D02*
X126350000Y-74250000D01*
X125150000Y-85750000D02*
X125150000Y-84750000D01*
X126850000Y-84750000D02*
X126850000Y-85750000D01*
X129120000Y-72750000D02*
X129120000Y-73950000D01*
X130880000Y-73950000D02*
X130880000Y-72750000D01*
X133380000Y-73950000D02*
X133380000Y-72750000D01*
X131620000Y-72750000D02*
X131620000Y-73950000D01*
X128380000Y-73950000D02*
X128380000Y-72750000D01*
X126620000Y-72750000D02*
X126620000Y-73950000D01*
X129880000Y-85950000D02*
X129880000Y-84750000D01*
X128120000Y-84750000D02*
X128120000Y-85950000D01*
X133880000Y-85950000D02*
X133880000Y-84750000D01*
X132120000Y-84750000D02*
X132120000Y-85950000D01*
X130120000Y-84750000D02*
X130120000Y-85950000D01*
X131880000Y-85950000D02*
X131880000Y-84750000D01*
X103120000Y-94050000D02*
X103120000Y-95250000D01*
X104880000Y-95250000D02*
X104880000Y-94050000D01*
X108520000Y-94200000D02*
X108520000Y-95400000D01*
X110280000Y-95400000D02*
X110280000Y-94200000D01*
X105920000Y-94200000D02*
X105920000Y-95400000D01*
X107680000Y-95400000D02*
X107680000Y-94200000D01*
D12*
X125857143Y-76333334D02*
X125904762Y-76285715D01*
X125952381Y-76142858D01*
X125952381Y-76047620D01*
X125904762Y-75904762D01*
X125809524Y-75809524D01*
X125714286Y-75761905D01*
X125523810Y-75714286D01*
X125380952Y-75714286D01*
X125190476Y-75761905D01*
X125095238Y-75809524D01*
X125000000Y-75904762D01*
X124952381Y-76047620D01*
X124952381Y-76142858D01*
X125000000Y-76285715D01*
X125047619Y-76333334D01*
X125047619Y-76714286D02*
X125000000Y-76761905D01*
X124952381Y-76857143D01*
X124952381Y-77095239D01*
X125000000Y-77190477D01*
X125047619Y-77238096D01*
X125142857Y-77285715D01*
X125238095Y-77285715D01*
X125380952Y-77238096D01*
X125952381Y-76666667D01*
X125952381Y-77285715D01*
X126357143Y-88333334D02*
X126404762Y-88285715D01*
X126452381Y-88142858D01*
X126452381Y-88047620D01*
X126404762Y-87904762D01*
X126309524Y-87809524D01*
X126214286Y-87761905D01*
X126023810Y-87714286D01*
X125880952Y-87714286D01*
X125690476Y-87761905D01*
X125595238Y-87809524D01*
X125500000Y-87904762D01*
X125452381Y-88047620D01*
X125452381Y-88142858D01*
X125500000Y-88285715D01*
X125547619Y-88333334D01*
X125452381Y-89238096D02*
X125452381Y-88761905D01*
X125928571Y-88714286D01*
X125880952Y-88761905D01*
X125833333Y-88857143D01*
X125833333Y-89095239D01*
X125880952Y-89190477D01*
X125928571Y-89238096D01*
X126023810Y-89285715D01*
X126261905Y-89285715D01*
X126357143Y-89238096D01*
X126404762Y-89190477D01*
X126452381Y-89095239D01*
X126452381Y-88857143D01*
X126404762Y-88761905D01*
X126357143Y-88714286D01*
X130452381Y-76333334D02*
X129976190Y-76000000D01*
X130452381Y-75761905D02*
X129452381Y-75761905D01*
X129452381Y-76142858D01*
X129500000Y-76238096D01*
X129547619Y-76285715D01*
X129642857Y-76333334D01*
X129785714Y-76333334D01*
X129880952Y-76285715D01*
X129928571Y-76238096D01*
X129976190Y-76142858D01*
X129976190Y-75761905D01*
X130452381Y-77285715D02*
X130452381Y-76714286D01*
X130452381Y-77000000D02*
X129452381Y-77000000D01*
X129595238Y-76904762D01*
X129690476Y-76809524D01*
X129738095Y-76714286D01*
X132952381Y-76333334D02*
X132476190Y-76000000D01*
X132952381Y-75761905D02*
X131952381Y-75761905D01*
X131952381Y-76142858D01*
X132000000Y-76238096D01*
X132047619Y-76285715D01*
X132142857Y-76333334D01*
X132285714Y-76333334D01*
X132380952Y-76285715D01*
X132428571Y-76238096D01*
X132476190Y-76142858D01*
X132476190Y-75761905D01*
X132047619Y-76714286D02*
X132000000Y-76761905D01*
X131952381Y-76857143D01*
X131952381Y-77095239D01*
X132000000Y-77190477D01*
X132047619Y-77238096D01*
X132142857Y-77285715D01*
X132238095Y-77285715D01*
X132380952Y-77238096D01*
X132952381Y-76666667D01*
X132952381Y-77285715D01*
X127952381Y-76333334D02*
X127476190Y-76000000D01*
X127952381Y-75761905D02*
X126952381Y-75761905D01*
X126952381Y-76142858D01*
X127000000Y-76238096D01*
X127047619Y-76285715D01*
X127142857Y-76333334D01*
X127285714Y-76333334D01*
X127380952Y-76285715D01*
X127428571Y-76238096D01*
X127476190Y-76142858D01*
X127476190Y-75761905D01*
X126952381Y-76666667D02*
X126952381Y-77285715D01*
X127333333Y-76952381D01*
X127333333Y-77095239D01*
X127380952Y-77190477D01*
X127428571Y-77238096D01*
X127523810Y-77285715D01*
X127761905Y-77285715D01*
X127857143Y-77238096D01*
X127904762Y-77190477D01*
X127952381Y-77095239D01*
X127952381Y-76809524D01*
X127904762Y-76714286D01*
X127857143Y-76666667D01*
X129452381Y-88533334D02*
X128976190Y-88200000D01*
X129452381Y-87961905D02*
X128452381Y-87961905D01*
X128452381Y-88342858D01*
X128500000Y-88438096D01*
X128547619Y-88485715D01*
X128642857Y-88533334D01*
X128785714Y-88533334D01*
X128880952Y-88485715D01*
X128928571Y-88438096D01*
X128976190Y-88342858D01*
X128976190Y-87961905D01*
X128452381Y-89438096D02*
X128452381Y-88961905D01*
X128928571Y-88914286D01*
X128880952Y-88961905D01*
X128833333Y-89057143D01*
X128833333Y-89295239D01*
X128880952Y-89390477D01*
X128928571Y-89438096D01*
X129023810Y-89485715D01*
X129261905Y-89485715D01*
X129357143Y-89438096D01*
X129404762Y-89390477D01*
X129452381Y-89295239D01*
X129452381Y-89057143D01*
X129404762Y-88961905D01*
X129357143Y-88914286D01*
X133452381Y-88533334D02*
X132976190Y-88200000D01*
X133452381Y-87961905D02*
X132452381Y-87961905D01*
X132452381Y-88342858D01*
X132500000Y-88438096D01*
X132547619Y-88485715D01*
X132642857Y-88533334D01*
X132785714Y-88533334D01*
X132880952Y-88485715D01*
X132928571Y-88438096D01*
X132976190Y-88342858D01*
X132976190Y-87961905D01*
X132452381Y-88866667D02*
X132452381Y-89533334D01*
X133452381Y-89104762D01*
X131452381Y-88533334D02*
X130976190Y-88200000D01*
X131452381Y-87961905D02*
X130452381Y-87961905D01*
X130452381Y-88342858D01*
X130500000Y-88438096D01*
X130547619Y-88485715D01*
X130642857Y-88533334D01*
X130785714Y-88533334D01*
X130880952Y-88485715D01*
X130928571Y-88438096D01*
X130976190Y-88342858D01*
X130976190Y-87961905D01*
X130880952Y-89104762D02*
X130833333Y-89009524D01*
X130785714Y-88961905D01*
X130690476Y-88914286D01*
X130642857Y-88914286D01*
X130547619Y-88961905D01*
X130500000Y-89009524D01*
X130452381Y-89104762D01*
X130452381Y-89295239D01*
X130500000Y-89390477D01*
X130547619Y-89438096D01*
X130642857Y-89485715D01*
X130690476Y-89485715D01*
X130785714Y-89438096D01*
X130833333Y-89390477D01*
X130880952Y-89295239D01*
X130880952Y-89104762D01*
X130928571Y-89009524D01*
X130976190Y-88961905D01*
X131071429Y-88914286D01*
X131261905Y-88914286D01*
X131357143Y-88961905D01*
X131404762Y-89009524D01*
X131452381Y-89104762D01*
X131452381Y-89295239D01*
X131404762Y-89390477D01*
X131357143Y-89438096D01*
X131261905Y-89485715D01*
X131071429Y-89485715D01*
X130976190Y-89438096D01*
X130928571Y-89390477D01*
X130880952Y-89295239D01*
X106152381Y-94483334D02*
X105676190Y-94150000D01*
X106152381Y-93911905D02*
X105152381Y-93911905D01*
X105152381Y-94292858D01*
X105200000Y-94388096D01*
X105247619Y-94435715D01*
X105342857Y-94483334D01*
X105485714Y-94483334D01*
X105580952Y-94435715D01*
X105628571Y-94388096D01*
X105676190Y-94292858D01*
X105676190Y-93911905D01*
X106152381Y-94959524D02*
X106152381Y-95150000D01*
X106104762Y-95245239D01*
X106057143Y-95292858D01*
X105914286Y-95388096D01*
X105723810Y-95435715D01*
X105342857Y-95435715D01*
X105247619Y-95388096D01*
X105200000Y-95340477D01*
X105152381Y-95245239D01*
X105152381Y-95054762D01*
X105200000Y-94959524D01*
X105247619Y-94911905D01*
X105342857Y-94864286D01*
X105580952Y-94864286D01*
X105676190Y-94911905D01*
X105723810Y-94959524D01*
X105771429Y-95054762D01*
X105771429Y-95245239D01*
X105723810Y-95340477D01*
X105676190Y-95388096D01*
X105580952Y-95435715D01*
X111552381Y-94157143D02*
X111076190Y-93823809D01*
X111552381Y-93585714D02*
X110552381Y-93585714D01*
X110552381Y-93966667D01*
X110600000Y-94061905D01*
X110647619Y-94109524D01*
X110742857Y-94157143D01*
X110885714Y-94157143D01*
X110980952Y-94109524D01*
X111028571Y-94061905D01*
X111076190Y-93966667D01*
X111076190Y-93585714D01*
X111552381Y-95109524D02*
X111552381Y-94538095D01*
X111552381Y-94823809D02*
X110552381Y-94823809D01*
X110695238Y-94728571D01*
X110790476Y-94633333D01*
X110838095Y-94538095D01*
X110647619Y-95490476D02*
X110600000Y-95538095D01*
X110552381Y-95633333D01*
X110552381Y-95871429D01*
X110600000Y-95966667D01*
X110647619Y-96014286D01*
X110742857Y-96061905D01*
X110838095Y-96061905D01*
X110980952Y-96014286D01*
X111552381Y-95442857D01*
X111552381Y-96061905D01*
X108952381Y-94157143D02*
X108476190Y-93823809D01*
X108952381Y-93585714D02*
X107952381Y-93585714D01*
X107952381Y-93966667D01*
X108000000Y-94061905D01*
X108047619Y-94109524D01*
X108142857Y-94157143D01*
X108285714Y-94157143D01*
X108380952Y-94109524D01*
X108428571Y-94061905D01*
X108476190Y-93966667D01*
X108476190Y-93585714D01*
X108952381Y-95109524D02*
X108952381Y-94538095D01*
X108952381Y-94823809D02*
X107952381Y-94823809D01*
X108095238Y-94728571D01*
X108190476Y-94633333D01*
X108238095Y-94538095D01*
X107952381Y-95442857D02*
X107952381Y-96061905D01*
X108333333Y-95728571D01*
X108333333Y-95871429D01*
X108380952Y-95966667D01*
X108428571Y-96014286D01*
X108523810Y-96061905D01*
X108761905Y-96061905D01*
X108857143Y-96014286D01*
X108904762Y-95966667D01*
X108952381Y-95871429D01*
X108952381Y-95585714D01*
X108904762Y-95490476D01*
X108857143Y-95442857D01*
M02*
