<?xml version="1.0" standalone="no"?>
 <!DOCTYPE svg PUBLIC "-//W3C//DTD SVG 1.1//EN" 
 "http://www.w3.org/Graphics/SVG/1.1/DTD/svg11.dtd"> 
<svg xmlns="http://www.w3.org/2000/svg" version="1.1" 
    width="29.7002cm" height="21.0007cm" viewBox="0 0 116930 82680 ">
<title>SVG Picture created as 16Channel-LED-Driver-drl_map.svg date 2017/02/06 17:27:15 </title>
  <desc>Picture generated by PCBNEW </desc>
<g style="fill:#000000; fill-opacity:1;stroke:#000000; stroke-opacity:1;
stroke-linecap:round; stroke-linejoin:round; "
 transform="translate(0 0) scale(1 1)">
</g>
<g style="fill:#000000; fill-opacity:0.0; 
stroke:#000000; stroke-width:-0.000393701; stroke-opacity:1; 
stroke-linecap:round; stroke-linejoin:round;">
</g>
<g style="fill:#000000; fill-opacity:0.0; 
stroke:#000000; stroke-width:59.0551; stroke-opacity:1; 
stroke-linecap:round; stroke-linejoin:round;">
<path d="M-5250 50500
L-5250 19000
" />
<path d="M69750 50500
L-5250 50500
" />
<path d="M69750 19000
L69750 50500
" />
<path d="M-5250 19000
L69750 19000
" />
</g>
<g style="fill:#000000; fill-opacity:0.0; 
stroke:#000000; stroke-width:78.7402; stroke-opacity:1; 
stroke-linecap:round; stroke-linejoin:round;">
<path d="M521 31021
L678 31178
" />
<path d="M678 31021
L521 31178
" />
<path d="M677 40861
L834 41019
" />
<path d="M834 40861
L677 41019
" />
<path d="M721 24021
L878 24178
" />
<path d="M878 24021
L721 24178
" />
<path d="M1621 25921
L1778 26078
" />
<path d="M1778 25921
L1621 26078
" />
<path d="M1721 42121
L1878 42278
" />
<path d="M1878 42121
L1721 42278
" />
<path d="M1821 23121
L1978 23278
" />
<path d="M1978 23121
L1821 23278
" />
<path d="M1821 40221
L1978 40378
" />
<path d="M1978 40221
L1821 40378
" />
<path d="M1921 39321
L2078 39478
" />
<path d="M2078 39321
L1921 39478
" />
<path d="M2021 21621
L2178 21778
" />
<path d="M2178 21621
L2021 21778
" />
<path d="M2021 22321
L2178 22478
" />
<path d="M2178 22321
L2021 22478
" />
<path d="M2221 26121
L2378 26278
" />
<path d="M2378 26121
L2221 26278
" />
<path d="M2471 42121
L2628 42278
" />
<path d="M2628 42121
L2471 42278
" />
<path d="M3171 42621
L3328 42778
" />
<path d="M3328 42621
L3171 42778
" />
<path d="M3221 22621
L3378 22778
" />
<path d="M3378 22621
L3221 22778
" />
<path d="M3221 24821
L3378 24978
" />
<path d="M3378 24821
L3221 24978
" />
<path d="M3321 21621
L3478 21778
" />
<path d="M3478 21621
L3321 21778
" />
<path d="M3321 24221
L3478 24378
" />
<path d="M3478 24221
L3321 24378
" />
<path d="M3321 38621
L3478 38778
" />
<path d="M3478 38621
L3321 38778
" />
<path d="M3621 26021
L3778 26178
" />
<path d="M3778 26021
L3621 26178
" />
<path d="M3721 35121
L3878 35278
" />
<path d="M3878 35121
L3721 35278
" />
<path d="M4121 26021
L4278 26178
" />
<path d="M4278 26021
L4121 26178
" />
<path d="M4271 40971
L4428 41128
" />
<path d="M4428 40971
L4271 41128
" />
<path d="M4521 22121
L4678 22278
" />
<path d="M4678 22121
L4521 22278
" />
<path d="M4521 24421
L4678 24578
" />
<path d="M4678 24421
L4521 24578
" />
<path d="M4871 44771
L5028 44928
" />
<path d="M5028 44771
L4871 44928
" />
<path d="M4921 45821
L5078 45978
" />
<path d="M5078 45821
L4921 45978
" />
<path d="M5421 25921
L5578 26078
" />
<path d="M5578 25921
L5421 26078
" />
<path d="M5471 24371
L5628 24528
" />
<path d="M5628 24371
L5471 24528
" />
<path d="M5821 39521
L5978 39678
" />
<path d="M5978 39521
L5821 39678
" />
<path d="M5971 35521
L6128 35678
" />
<path d="M6128 35521
L5971 35678
" />
<path d="M6021 26021
L6178 26178
" />
<path d="M6178 26021
L6021 26178
" />
<path d="M6521 40321
L6678 40478
" />
<path d="M6678 40321
L6521 40478
" />
<path d="M6521 41375
L6678 41532
" />
<path d="M6678 41375
L6521 41532
" />
<path d="M6621 23121
L6778 23278
" />
<path d="M6778 23121
L6621 23278
" />
<path d="M6721 44671
L6878 44828
" />
<path d="M6878 44671
L6721 44828
" />
<path d="M6821 39021
L6978 39178
" />
<path d="M6978 39021
L6821 39178
" />
<path d="M6871 34871
L7028 35028
" />
<path d="M7028 34871
L6871 35028
" />
<path d="M6921 45725
L7078 45882
" />
<path d="M7078 45725
L6921 45882
" />
<path d="M7121 40321
L7278 40478
" />
<path d="M7278 40321
L7121 40478
" />
<path d="M7121 41375
L7278 41532
" />
<path d="M7278 41375
L7121 41532
" />
<path d="M7321 25521
L7478 25678
" />
<path d="M7478 25521
L7321 25678
" />
<path d="M7421 28321
L7578 28478
" />
<path d="M7578 28321
L7421 28478
" />
<path d="M7437 25916
L7594 26074
" />
<path d="M7594 25916
L7437 26074
" />
<path d="M7821 22771
L7978 22928
" />
<path d="M7978 22771
L7821 22928
" />
<path d="M8021 28121
L8178 28278
" />
<path d="M8178 28121
L8021 28278
" />
<path d="M8106 26121
L8263 26278
" />
<path d="M8263 26121
L8106 26278
" />
<path d="M8321 25121
L8478 25278
" />
<path d="M8478 25121
L8321 25278
" />
<path d="M8421 26321
L8578 26478
" />
<path d="M8578 26321
L8421 26478
" />
<path d="M8621 26821
L8778 26978
" />
<path d="M8778 26821
L8621 26978
" />
<path d="M8821 22621
L8978 22778
" />
<path d="M8978 22621
L8821 22778
" />
<path d="M9221 45121
L9378 45278
" />
<path d="M9378 45121
L9221 45278
" />
<path d="M9319 45868
L9476 46025
" />
<path d="M9476 45868
L9319 46025
" />
<path d="M9321 23621
L9478 23778
" />
<path d="M9478 23621
L9321 23778
" />
<path d="M9351 25014
L9508 25171
" />
<path d="M9508 25014
L9351 25171
" />
<path d="M9408 25823
L9566 25981
" />
<path d="M9566 25823
L9408 25981
" />
<path d="M9421 25321
L9578 25478
" />
<path d="M9578 25321
L9421 25478
" />
<path d="M9621 34521
L9778 34678
" />
<path d="M9778 34521
L9621 34678
" />
<path d="M9621 36721
L9778 36878
" />
<path d="M9778 36721
L9621 36878
" />
<path d="M9821 41521
L9978 41678
" />
<path d="M9978 41521
L9821 41678
" />
<path d="M10071 37071
L10228 37228
" />
<path d="M10228 37071
L10071 37228
" />
<path d="M10221 29421
L10378 29578
" />
<path d="M10378 29421
L10221 29578
" />
<path d="M10271 35971
L10428 36128
" />
<path d="M10428 35971
L10271 36128
" />
<path d="M10471 41271
L10628 41428
" />
<path d="M10628 41271
L10471 41428
" />
<path d="M10618 25472
L10775 25629
" />
<path d="M10775 25472
L10618 25629
" />
<path d="M10621 25121
L10778 25278
" />
<path d="M10778 25121
L10621 25278
" />
<path d="M10638 25786
L10796 25943
" />
<path d="M10796 25786
L10638 25943
" />
<path d="M10821 22921
L10978 23078
" />
<path d="M10978 22921
L10821 23078
" />
<path d="M11354 25441
L11511 25598
" />
<path d="M11511 25441
L11354 25598
" />
<path d="M11921 32121
L12078 32278
" />
<path d="M12078 32121
L11921 32278
" />
<path d="M12071 41121
L12228 41278
" />
<path d="M12228 41121
L12071 41278
" />
<path d="M12221 31621
L12378 31778
" />
<path d="M12378 31621
L12221 31778
" />
<path d="M12271 36221
L12428 36378
" />
<path d="M12428 36221
L12271 36378
" />
<path d="M12321 33221
L12478 33378
" />
<path d="M12478 33221
L12321 33378
" />
<path d="M12371 22821
L12528 22978
" />
<path d="M12528 22821
L12371 22978
" />
<path d="M12421 27021
L12578 27178
" />
<path d="M12578 27021
L12421 27178
" />
<path d="M12442 25091
L12600 25249
" />
<path d="M12600 25091
L12442 25249
" />
<path d="M12474 25721
L12631 25878
" />
<path d="M12631 25721
L12474 25878
" />
<path d="M12521 26121
L12678 26278
" />
<path d="M12678 26121
L12521 26278
" />
<path d="M12521 33521
L12678 33678
" />
<path d="M12678 33521
L12521 33678
" />
<path d="M13021 29021
L13178 29178
" />
<path d="M13178 29021
L13021 29178
" />
<path d="M13171 42563
L13328 42720
" />
<path d="M13328 42563
L13171 42720
" />
<path d="M13221 46171
L13378 46328
" />
<path d="M13378 46171
L13221 46328
" />
<path d="M13321 41171
L13478 41328
" />
<path d="M13478 41171
L13321 41328
" />
<path d="M13441 46956
L13598 47113
" />
<path d="M13598 46956
L13441 47113
" />
<path d="M13567 35847
L13724 36004
" />
<path d="M13724 35847
L13567 36004
" />
<path d="M13765 25484
L13922 25641
" />
<path d="M13922 25484
L13765 25641
" />
<path d="M13821 29321
L13978 29478
" />
<path d="M13978 29321
L13821 29478
" />
<path d="M13821 29921
L13978 30078
" />
<path d="M13978 29921
L13821 30078
" />
<path d="M13921 31821
L14078 31978
" />
<path d="M14078 31821
L13921 31978
" />
<path d="M13974 22280
L14132 22437
" />
<path d="M14132 22280
L13974 22437
" />
<path d="M13995 25700
L14152 25857
" />
<path d="M14152 25700
L13995 25857
" />
<path d="M14321 24321
L14478 24478
" />
<path d="M14478 24321
L14321 24478
" />
<path d="M14421 36421
L14578 36578
" />
<path d="M14578 36421
L14421 36578
" />
<path d="M14421 31967
L14578 32124
" />
<path d="M14578 31967
L14421 32124
" />
<path d="M15130 36707
L15288 36865
" />
<path d="M15288 36707
L15130 36865
" />
<path d="M15571 41271
L15728 41428
" />
<path d="M15728 41271
L15571 41428
" />
<path d="M15571 46571
L15728 46728
" />
<path d="M15728 46571
L15571 46728
" />
<path d="M15671 46871
L15828 47028
" />
<path d="M15828 46871
L15671 47028
" />
<path d="M15921 33621
L16078 33778
" />
<path d="M16078 33621
L15921 33778
" />
<path d="M15940 25460
L16097 25617
" />
<path d="M16097 25460
L15940 25617
" />
<path d="M16021 34421
L16178 34578
" />
<path d="M16178 34421
L16021 34578
" />
<path d="M16071 42621
L16228 42778
" />
<path d="M16228 42621
L16071 42778
" />
<path d="M16171 36971
L16328 37128
" />
<path d="M16328 36971
L16171 37128
" />
<path d="M16343 36618
L16501 36775
" />
<path d="M16501 36618
L16343 36775
" />
<path d="M16721 41321
L16878 41478
" />
<path d="M16878 41321
L16721 41478
" />
<path d="M16921 29221
L17078 29378
" />
<path d="M17078 29221
L16921 29378
" />
<path d="M16921 30021
L17078 30178
" />
<path d="M17078 30021
L16921 30178
" />
<path d="M16921 46121
L17078 46278
" />
<path d="M17078 46121
L16921 46278
" />
<path d="M17135 25321
L17292 25478
" />
<path d="M17292 25321
L17135 25478
" />
<path d="M17189 25721
L17346 25878
" />
<path d="M17346 25721
L17189 25878
" />
<path d="M17621 33621
L17778 33778
" />
<path d="M17778 33621
L17621 33778
" />
<path d="M17621 34321
L17778 34478
" />
<path d="M17778 34321
L17621 34478
" />
<path d="M17940 46848
L18098 47005
" />
<path d="M18098 46848
L17940 47005
" />
<path d="M18421 41371
L18578 41528
" />
<path d="M18578 41371
L18421 41528
" />
<path d="M18821 26421
L18978 26578
" />
<path d="M18978 26421
L18821 26578
" />
<path d="M18921 27021
L19078 27178
" />
<path d="M19078 27021
L18921 27178
" />
<path d="M19121 41721
L19278 41878
" />
<path d="M19278 41721
L19121 41878
" />
<path d="M19221 33521
L19378 33678
" />
<path d="M19378 33521
L19221 33678
" />
<path d="M19221 34321
L19378 34478
" />
<path d="M19378 34321
L19221 34478
" />
<path d="M20221 29421
L20378 29578
" />
<path d="M20378 29421
L20221 29578
" />
<path d="M20321 30221
L20478 30378
" />
<path d="M20478 30221
L20321 30378
" />
<path d="M20821 33621
L20978 33778
" />
<path d="M20978 33621
L20821 33778
" />
<path d="M20821 34621
L20978 34778
" />
<path d="M20978 34621
L20821 34778
" />
<path d="M22271 36571
L22428 36728
" />
<path d="M22428 36571
L22271 36728
" />
<path d="M22421 33521
L22578 33678
" />
<path d="M22578 33521
L22421 33678
" />
<path d="M22421 34321
L22578 34478
" />
<path d="M22578 34321
L22421 34478
" />
<path d="M23921 33621
L24078 33778
" />
<path d="M24078 33621
L23921 33778
" />
<path d="M24021 34521
L24178 34678
" />
<path d="M24178 34521
L24021 34678
" />
<path d="M25021 39071
L25178 39228
" />
<path d="M25178 39071
L25021 39228
" />
<path d="M27571 40221
L27728 40378
" />
<path d="M27728 40221
L27571 40378
" />
<path d="M32021 35071
L32178 35228
" />
<path d="M32178 35071
L32021 35228
" />
<path d="M32121 34421
L32278 34578
" />
<path d="M32278 34421
L32121 34578
" />
<path d="M32371 33571
L32528 33728
" />
<path d="M32528 33571
L32371 33728
" />
<path d="M33771 33571
L33928 33728
" />
<path d="M33928 33571
L33771 33728
" />
<path d="M33921 34271
L34078 34428
" />
<path d="M34078 34271
L33921 34428
" />
<path d="M34421 34471
L34578 34628
" />
<path d="M34578 34471
L34421 34628
" />
<path d="M35321 33671
L35478 33828
" />
<path d="M35478 33671
L35321 33828
" />
<path d="M35375 34871
L35532 35028
" />
<path d="M35532 34871
L35375 35028
" />
<path d="M35621 37221
L35778 37378
" />
<path d="M35778 37221
L35621 37378
" />
<path d="M35621 32621
L35778 32778
" />
<path d="M35778 32621
L35621 32778
" />
<path d="M36321 38971
L36478 39128
" />
<path d="M36478 38971
L36321 39128
" />
<path d="M36421 39621
L36578 39778
" />
<path d="M36578 39621
L36421 39778
" />
<path d="M36471 37321
L36628 37478
" />
<path d="M36628 37321
L36471 37478
" />
<path d="M36771 32621
L36928 32778
" />
<path d="M36928 32621
L36771 32778
" />
<path d="M37021 33771
L37178 33928
" />
<path d="M37178 33771
L37021 33928
" />
<path d="M37021 34821
L37178 34978
" />
<path d="M37178 34821
L37021 34978
" />
<path d="M38771 34871
L38928 35028
" />
<path d="M38928 34871
L38771 35028
" />
<path d="M38871 33771
L39028 33928
" />
<path d="M39028 33771
L38871 33928
" />
<path d="M39771 34821
L39928 34978
" />
<path d="M39928 34821
L39771 34978
" />
<path d="M39821 37371
L39978 37528
" />
<path d="M39978 37371
L39821 37528
" />
<path d="M40471 33721
L40628 33878
" />
<path d="M40628 33721
L40471 33878
" />
<path d="M40821 37122
L40978 37279
" />
<path d="M40978 37122
L40821 37279
" />
<path d="M41251 42451
L41409 42609
" />
<path d="M41409 42451
L41251 42609
" />
<path d="M41821 33871
L41978 34028
" />
<path d="M41978 33871
L41821 34028
" />
<path d="M41871 31971
L42028 32128
" />
<path d="M42028 31971
L41871 32128
" />
<path d="M41971 34871
L42128 35028
" />
<path d="M42128 34871
L41971 35028
" />
<path d="M42071 35571
L42228 35728
" />
<path d="M42228 35571
L42071 35728
" />
<path d="M42671 24621
L42828 24778
" />
<path d="M42828 24621
L42671 24778
" />
<path d="M42921 32321
L43078 32478
" />
<path d="M43078 32321
L42921 32478
" />
<path d="M43321 32121
L43478 32278
" />
<path d="M43478 32121
L43321 32278
" />
<path d="M43943 35500
L44100 35657
" />
<path d="M44100 35500
L43943 35657
" />
<path d="M44071 42821
L44228 42978
" />
<path d="M44228 42821
L44071 42978
" />
<path d="M44075 31721
L44232 31878
" />
<path d="M44232 31721
L44075 31878
" />
<path d="M44121 30321
L44278 30478
" />
<path d="M44278 30321
L44121 30478
" />
<path d="M44321 32321
L44478 32478
" />
<path d="M44478 32321
L44321 32478
" />
<path d="M44471 35721
L44628 35878
" />
<path d="M44628 35721
L44471 35878
" />
<path d="M44748 32093
L44906 32251
" />
<path d="M44906 32093
L44748 32251
" />
<path d="M44771 31671
L44928 31828
" />
<path d="M44928 31671
L44771 31828
" />
<path d="M44771 35871
L44928 36028
" />
<path d="M44928 35871
L44771 36028
" />
<path d="M45021 33771
L45178 33928
" />
<path d="M45178 33771
L45021 33928
" />
<path d="M45421 43771
L45578 43928
" />
<path d="M45578 43771
L45421 43928
" />
<path d="M45621 44021
L45778 44178
" />
<path d="M45778 44021
L45621 44178
" />
<path d="M45921 26771
L46078 26928
" />
<path d="M46078 26771
L45921 26928
" />
<path d="M45921 42721
L46078 42878
" />
<path d="M46078 42721
L45921 42878
" />
<path d="M47321 45221
L47478 45378
" />
<path d="M47478 45221
L47321 45378
" />
<path d="M47386 43588
L47543 43745
" />
<path d="M47543 43588
L47386 43745
" />
<path d="M47971 31871
L48128 32028
" />
<path d="M48128 31871
L47971 32028
" />
<path d="M48471 43721
L48628 43878
" />
<path d="M48628 43721
L48471 43878
" />
<path d="M48621 46571
L48778 46728
" />
<path d="M48778 46571
L48621 46728
" />
<path d="M48721 22321
L48878 22478
" />
<path d="M48878 22321
L48721 22478
" />
<path d="M48771 43121
L48928 43278
" />
<path d="M48928 43121
L48771 43278
" />
<path d="M48921 26921
L49078 27078
" />
<path d="M49078 26921
L48921 27078
" />
<path d="M49041 46495
L49198 46653
" />
<path d="M49198 46495
L49041 46653
" />
<path d="M49121 22721
L49278 22878
" />
<path d="M49278 22721
L49121 22878
" />
<path d="M49221 24471
L49378 24628
" />
<path d="M49378 24471
L49221 24628
" />
<path d="M50371 43921
L50528 44078
" />
<path d="M50528 43921
L50371 44078
" />
<path d="M50486 45321
L50643 45479
" />
<path d="M50643 45321
L50486 45479
" />
<path d="M50521 46021
L50678 46178
" />
<path d="M50678 46021
L50521 46178
" />
<path d="M51671 43821
L51828 43978
" />
<path d="M51828 43821
L51671 43978
" />
<path d="M51954 26683
L52112 26840
" />
<path d="M52112 26683
L51954 26840
" />
<path d="M52121 43421
L52278 43578
" />
<path d="M52278 43421
L52121 43578
" />
<path d="M53586 43961
L53743 44118
" />
<path d="M53743 43961
L53586 44118
" />
<path d="M53771 42321
L53928 42478
" />
<path d="M53928 42321
L53771 42478
" />
<path d="M53975 42589
L54132 42747
" />
<path d="M54132 42589
L53975 42747
" />
<path d="M54271 42871
L54428 43028
" />
<path d="M54428 42871
L54271 43028
" />
<path d="M54971 45521
L55128 45678
" />
<path d="M55128 45521
L54971 45678
" />
<path d="M55021 44721
L55178 44878
" />
<path d="M55178 44721
L55021 44878
" />
<path d="M55071 39971
L55228 40128
" />
<path d="M55228 39971
L55071 40128
" />
<path d="M55088 45863
L55245 46021
" />
<path d="M55245 45863
L55088 46021
" />
<path d="M55342 26391
L55499 26548
" />
<path d="M55499 26391
L55342 26548
" />
<path d="M55471 42271
L55628 42428
" />
<path d="M55628 42271
L55471 42428
" />
<path d="M56171 44321
L56328 44478
" />
<path d="M56328 44321
L56171 44478
" />
<path d="M57071 39871
L57228 40028
" />
<path d="M57228 39871
L57071 40028
" />
<path d="M57121 47575
L57278 47732
" />
<path d="M57278 47575
L57121 47732
" />
<path d="M57271 42271
L57428 42428
" />
<path d="M57428 42271
L57271 42428
" />
<path d="M57721 45921
L57878 46078
" />
<path d="M57878 45921
L57721 46078
" />
<path d="M58071 25921
L58228 26078
" />
<path d="M58228 25921
L58071 26078
" />
<path d="M58210 22615
L58368 22773
" />
<path d="M58368 22615
L58210 22773
" />
<path d="M58321 47821
L58478 47978
" />
<path d="M58478 47821
L58321 47978
" />
<path d="M58421 40171
L58578 40328
" />
<path d="M58578 40171
L58421 40328
" />
<path d="M58521 27471
L58678 27628
" />
<path d="M58678 27471
L58521 27628
" />
<path d="M58621 26971
L58778 27128
" />
<path d="M58778 26971
L58621 27128
" />
<path d="M58671 28521
L58828 28678
" />
<path d="M58828 28521
L58671 28678
" />
<path d="M58721 40921
L58878 41078
" />
<path d="M58878 40921
L58721 41078
" />
<path d="M58771 45171
L58928 45328
" />
<path d="M58928 45171
L58771 45328
" />
<path d="M58871 46621
L59028 46778
" />
<path d="M59028 46621
L58871 46778
" />
<path d="M58959 24999
L59116 25157
" />
<path d="M59116 24999
L58959 25157
" />
<path d="M59021 44721
L59178 44878
" />
<path d="M59178 44721
L59021 44878
" />
<path d="M59047 25491
L59204 25649
" />
<path d="M59204 25491
L59047 25649
" />
<path d="M59071 42271
L59228 42428
" />
<path d="M59228 42271
L59071 42428
" />
<path d="M59139 27462
L59296 27619
" />
<path d="M59296 27462
L59139 27619
" />
<path d="M59149 25821
L59306 25978
" />
<path d="M59306 25821
L59149 25978
" />
<path d="M59571 43221
L59728 43378
" />
<path d="M59728 43221
L59571 43378
" />
<path d="M59971 24421
L60128 24578
" />
<path d="M60128 24421
L59971 24578
" />
<path d="M60071 45221
L60228 45378
" />
<path d="M60228 45221
L60071 45378
" />
<path d="M60121 25321
L60278 25478
" />
<path d="M60278 25321
L60121 25478
" />
<path d="M60139 28216
L60297 28373
" />
<path d="M60297 28216
L60139 28373
" />
<path d="M60221 27321
L60378 27478
" />
<path d="M60378 27321
L60221 27478
" />
<path d="M60706 28835
L60863 28992
" />
<path d="M60863 28835
L60706 28992
" />
<path d="M60771 31271
L60928 31428
" />
<path d="M60928 31271
L60771 31428
" />
<path d="M60871 42271
L61028 42428
" />
<path d="M61028 42271
L60871 42428
" />
<path d="M61286 28340
L61443 28498
" />
<path d="M61443 28340
L61286 28498
" />
<path d="M61320 26368
L61477 26525
" />
<path d="M61477 26368
L61320 26525
" />
<path d="M61336 29243
L61493 29401
" />
<path d="M61493 29243
L61336 29401
" />
<path d="M61371 43071
L61528 43228
" />
<path d="M61528 43071
L61371 43228
" />
<path d="M61575 27371
L61732 27528
" />
<path d="M61732 27371
L61575 27528
" />
<path d="M62521 26821
L62678 26978
" />
<path d="M62678 26821
L62521 26978
" />
<path d="M62521 28321
L62678 28478
" />
<path d="M62678 28321
L62521 28478
" />
<circle cx="250" cy="33250" r="200" /> 
<circle cx="250" cy="34250" r="200" /> 
<circle cx="6000" cy="31600" r="200" /> 
<circle cx="7000" cy="31600" r="200" /> 
<circle cx="23300" cy="21800" r="200" /> 
<circle cx="23300" cy="47200" r="200" /> 
<circle cx="23700" cy="37800" r="200" /> 
<circle cx="23700" cy="38800" r="200" /> 
<circle cx="23700" cy="40700" r="200" /> 
<circle cx="23700" cy="41700" r="200" /> 
<circle cx="24300" cy="21800" r="200" /> 
<circle cx="24300" cy="47200" r="200" /> 
<circle cx="25150" cy="29250" r="200" /> 
<circle cx="25300" cy="21800" r="200" /> 
<circle cx="25300" cy="47200" r="200" /> 
<circle cx="26150" cy="29250" r="200" /> 
<circle cx="26300" cy="21800" r="200" /> 
<circle cx="26300" cy="47200" r="200" /> 
<circle cx="27300" cy="21800" r="200" /> 
<circle cx="27300" cy="47200" r="200" /> 
<circle cx="28300" cy="21800" r="200" /> 
<circle cx="28300" cy="47200" r="200" /> 
<circle cx="29300" cy="21800" r="200" /> 
<circle cx="29300" cy="47200" r="200" /> 
<circle cx="30300" cy="21800" r="200" /> 
<circle cx="30300" cy="47200" r="200" /> 
<circle cx="33000" cy="21800" r="200" /> 
<circle cx="33000" cy="47200" r="200" /> 
<circle cx="34000" cy="21800" r="200" /> 
<circle cx="34000" cy="47200" r="200" /> 
<circle cx="35000" cy="21800" r="200" /> 
<circle cx="35000" cy="47200" r="200" /> 
<circle cx="36000" cy="21800" r="200" /> 
<circle cx="36000" cy="47200" r="200" /> 
<circle cx="37000" cy="21800" r="200" /> 
<circle cx="37000" cy="47200" r="200" /> 
<circle cx="38000" cy="21800" r="200" /> 
<circle cx="38000" cy="47200" r="200" /> 
<circle cx="38250" cy="28000" r="200" /> 
<circle cx="39000" cy="21800" r="200" /> 
<circle cx="39000" cy="47200" r="200" /> 
<circle cx="39250" cy="28000" r="200" /> 
<circle cx="40000" cy="21800" r="200" /> 
<circle cx="40000" cy="47200" r="200" /> 
<circle cx="46800" cy="33200" r="200" /> 
<circle cx="47800" cy="33200" r="200" /> 
<circle cx="62900" cy="34550" r="200" /> 
<circle cx="62900" cy="35550" r="200" /> 
<path d="M10100 26583
L10100 27016
" />
<path d="M9883 26800
L10316 26800
" />
<path d="M10100 31083
L10100 31516
" />
<path d="M9883 31300
L10316 31300
" />
<path d="M11500 37433
L11500 37866
" />
<path d="M11283 37650
L11716 37650
" />
<path d="M11500 41933
L11500 42366
" />
<path d="M11283 42150
L11716 42150
" />
<path d="M13300 26533
L13300 26966
" />
<path d="M13083 26750
L13516 26750
" />
<path d="M13300 31033
L13300 31466
" />
<path d="M13083 31250
L13516 31250
" />
<path d="M14800 37333
L14800 37766
" />
<path d="M14583 37550
L15016 37550
" />
<path d="M14800 41833
L14800 42266
" />
<path d="M14583 42050
L15016 42050
" />
<path d="M16500 26533
L16500 26966
" />
<path d="M16283 26750
L16716 26750
" />
<path d="M16500 31033
L16500 31466
" />
<path d="M16283 31250
L16716 31250
" />
<path d="M18000 37333
L18000 37766
" />
<path d="M17783 37550
L18216 37550
" />
<path d="M18000 41833
L18000 42266
" />
<path d="M17783 42050
L18216 42050
" />
<path d="M19700 26533
L19700 26966
" />
<path d="M19483 26750
L19916 26750
" />
<path d="M19700 31033
L19700 31466
" />
<path d="M19483 31250
L19916 31250
" />
<path d="M21200 37333
L21200 37766
" />
<path d="M20983 37550
L21416 37550
" />
<path d="M21200 41833
L21200 42266
" />
<path d="M20983 42050
L21416 42050
" />
<path d="M43468 37505
L43468 37938
" />
<path d="M43252 37722
L43685 37722
" />
<path d="M43468 42005
L43468 42438
" />
<path d="M43252 42222
L43685 42222
" />
<path d="M43600 26733
L43600 27166
" />
<path d="M43383 26950
L43816 26950
" />
<path d="M43600 31233
L43600 31666
" />
<path d="M43383 31450
L43816 31450
" />
<path d="M46727 37505
L46727 37938
" />
<path d="M46510 37722
L46944 37722
" />
<path d="M46727 42005
L46727 42438
" />
<path d="M46510 42222
L46944 42222
" />
<path d="M46800 26733
L46800 27166
" />
<path d="M46583 26950
L47016 26950
" />
<path d="M46800 31233
L46800 31666
" />
<path d="M46583 31450
L47016 31450
" />
<path d="M49898 37505
L49898 37938
" />
<path d="M49681 37722
L50114 37722
" />
<path d="M49898 42005
L49898 42438
" />
<path d="M49681 42222
L50114 42222
" />
<path d="M50000 26733
L50000 27166
" />
<path d="M49783 26950
L50216 26950
" />
<path d="M50000 31233
L50000 31666
" />
<path d="M49783 31450
L50216 31450
" />
<path d="M53068 37505
L53068 37938
" />
<path d="M52852 37722
L53285 37722
" />
<path d="M53068 42005
L53068 42438
" />
<path d="M52852 42222
L53285 42222
" />
<path d="M53200 26733
L53200 27166
" />
<path d="M52983 26950
L53416 26950
" />
<path d="M53200 31233
L53200 31666
" />
<path d="M52983 31450
L53416 31450
" />
<polyline fill="none;"
points="10259,22959
10259,22640
9940,22640
9940,22959
10259,22959
" /> 
<polyline fill="none;"
points="10259,23959
10259,23640
9940,23640
9940,23959
10259,23959
" /> 
<polyline fill="none;"
points="10259,24959
10259,24640
9940,24640
9940,24959
10259,24959
" /> 
<polyline fill="none;"
points="11659,44259
11659,43940
11340,43940
11340,44259
11659,44259
" /> 
<polyline fill="none;"
points="11659,45259
11659,44940
11340,44940
11340,45259
11659,45259
" /> 
<polyline fill="none;"
points="11659,46259
11659,45940
11340,45940
11340,46259
11659,46259
" /> 
<polyline fill="none;"
points="13459,22959
13459,22640
13140,22640
13140,22959
13459,22959
" /> 
<polyline fill="none;"
points="13459,23959
13459,23640
13140,23640
13140,23959
13459,23959
" /> 
<polyline fill="none;"
points="13459,24959
13459,24640
13140,24640
13140,24959
13459,24959
" /> 
<polyline fill="none;"
points="14959,44259
14959,43940
14640,43940
14640,44259
14959,44259
" /> 
<polyline fill="none;"
points="14959,45259
14959,44940
14640,44940
14640,45259
14959,45259
" /> 
<polyline fill="none;"
points="14959,46259
14959,45940
14640,45940
14640,46259
14959,46259
" /> 
<polyline fill="none;"
points="16659,22959
16659,22640
16340,22640
16340,22959
16659,22959
" /> 
<polyline fill="none;"
points="16659,23959
16659,23640
16340,23640
16340,23959
16659,23959
" /> 
<polyline fill="none;"
points="16659,24959
16659,24640
16340,24640
16340,24959
16659,24959
" /> 
<polyline fill="none;"
points="18159,44259
18159,43940
17840,43940
17840,44259
18159,44259
" /> 
<polyline fill="none;"
points="18159,45259
18159,44940
17840,44940
17840,45259
18159,45259
" /> 
<polyline fill="none;"
points="18159,46259
18159,45940
17840,45940
17840,46259
18159,46259
" /> 
<polyline fill="none;"
points="19859,22959
19859,22640
19540,22640
19540,22959
19859,22959
" /> 
<polyline fill="none;"
points="19859,23959
19859,23640
19540,23640
19540,23959
19859,23959
" /> 
<polyline fill="none;"
points="19859,24959
19859,24640
19540,24640
19540,24959
19859,24959
" /> 
<polyline fill="none;"
points="21359,44259
21359,43940
21040,43940
21040,44259
21359,44259
" /> 
<polyline fill="none;"
points="21359,45259
21359,44940
21040,44940
21040,45259
21359,45259
" /> 
<polyline fill="none;"
points="21359,46259
21359,45940
21040,45940
21040,46259
21359,46259
" /> 
<polyline fill="none;"
points="43627,44531
43627,44212
43309,44212
43309,44531
43627,44531
" /> 
<polyline fill="none;"
points="43627,45531
43627,45212
43309,45212
43309,45531
43627,45531
" /> 
<polyline fill="none;"
points="43627,46531
43627,46212
43309,46212
43309,46531
43627,46531
" /> 
<polyline fill="none;"
points="43759,23009
43759,22690
43440,22690
43440,23009
43759,23009
" /> 
<polyline fill="none;"
points="43759,24009
43759,23690
43440,23690
43440,24009
43759,24009
" /> 
<polyline fill="none;"
points="43759,25009
43759,24690
43440,24690
43440,25009
43759,25009
" /> 
<polyline fill="none;"
points="46827,44531
46827,44212
46509,44212
46509,44531
46827,44531
" /> 
<polyline fill="none;"
points="46827,45531
46827,45212
46509,45212
46509,45531
46827,45531
" /> 
<polyline fill="none;"
points="46827,46531
46827,46212
46509,46212
46509,46531
46827,46531
" /> 
<polyline fill="none;"
points="46992,23009
46992,22690
46674,22690
46674,23009
46992,23009
" /> 
<polyline fill="none;"
points="46992,24009
46992,23690
46674,23690
46674,24009
46992,24009
" /> 
<polyline fill="none;"
points="46992,25009
46992,24690
46674,24690
46674,25009
46992,25009
" /> 
<polyline fill="none;"
points="50027,44531
50027,44212
49709,44212
49709,44531
50027,44531
" /> 
<polyline fill="none;"
points="50027,45531
50027,45212
49709,45212
49709,45531
50027,45531
" /> 
<polyline fill="none;"
points="50027,46531
50027,46212
49709,46212
49709,46531
50027,46531
" /> 
<polyline fill="none;"
points="50225,23009
50225,22690
49907,22690
49907,23009
50225,23009
" /> 
<polyline fill="none;"
points="50225,24009
50225,23690
49907,23690
49907,24009
50225,24009
" /> 
<polyline fill="none;"
points="50225,25009
50225,24690
49907,24690
49907,25009
50225,25009
" /> 
<polyline fill="none;"
points="53227,44531
53227,44212
52909,44212
52909,44531
53227,44531
" /> 
<polyline fill="none;"
points="53227,45531
53227,45212
52909,45212
52909,45531
53227,45531
" /> 
<polyline fill="none;"
points="53227,46531
53227,46212
52909,46212
52909,46531
53227,46531
" /> 
<polyline fill="none;"
points="53459,23009
53459,22690
53140,22690
53140,23009
53459,23009
" /> 
<polyline fill="none;"
points="53459,24009
53459,23690
53140,23690
53140,24009
53459,24009
" /> 
<polyline fill="none;"
points="53459,25009
53459,24690
53140,24690
53140,25009
53459,25009
" /> 
<polyline fill="none;"
points="29234,26944
29766,26413
29234,25881
28703,26413
29234,26944
" /> 
<polyline fill="none;"
points="29234,31196
29766,30665
29234,30133
28703,30665
29234,31196
" /> 
<polyline fill="none;"
points="29434,38744
29966,38213
29434,37681
28903,38213
29434,38744
" /> 
<polyline fill="none;"
points="29434,42996
29966,42465
29434,41933
28903,42465
29434,42996
" /> 
<polyline fill="none;"
points="31285,26944
31817,26413
31285,25881
30754,26413
31285,26944
" /> 
<polyline fill="none;"
points="31285,31196
31817,30665
31285,30133
30754,30665
31285,31196
" /> 
<polyline fill="none;"
points="31485,38744
32017,38213
31485,37681
30954,38213
31485,38744
" /> 
<polyline fill="none;"
points="31485,42996
32017,42465
31485,41933
30954,42465
31485,42996
" /> 
<polyline fill="none;"
points="33337,26944
33868,26413
33337,25881
32805,26413
33337,26944
" /> 
<polyline fill="none;"
points="33337,31196
33868,30665
33337,30133
32805,30665
33337,31196
" /> 
<polyline fill="none;"
points="33537,38744
34068,38213
33537,37681
33005,38213
33537,38744
" /> 
<polyline fill="none;"
points="33537,42996
34068,42465
33537,41933
33005,42465
33537,42996
" /> 
</g>
<g style="fill:#000000; fill-opacity:0.0; 
stroke:#000000; stroke-width:118.11; stroke-opacity:1; 
stroke-linecap:round; stroke-linejoin:round;">
<path d="M-4210 52363
L-4210 51181
L-3929 51181
L-3760 51238
L-3648 51350
L-3592 51463
L-3535 51688
L-3535 51856
L-3592 52081
L-3648 52194
L-3760 52306
L-3929 52363
L-4210 52363
" />
<path d="M-3029 52363
L-3029 51575
" />
<path d="M-3029 51800
L-2973 51688
L-2917 51631
L-2804 51575
L-2692 51575
" />
<path d="M-2298 52363
L-2298 51575
" />
<path d="M-2298 51181
L-2354 51238
L-2298 51294
L-2242 51238
L-2298 51181
L-2298 51294
" />
<path d="M-1567 52363
L-1679 52306
L-1736 52194
L-1736 51181
" />
<path d="M-948 52363
L-1061 52306
L-1117 52194
L-1117 51181
" />
<path d="M401 52363
L401 51181
L794 52025
L1188 51181
L1188 52363
" />
<path d="M2257 52363
L2257 51744
L2200 51631
L2088 51575
L1863 51575
L1750 51631
" />
<path d="M2257 52306
L2144 52363
L1863 52363
L1750 52306
L1694 52194
L1694 52081
L1750 51969
L1863 51913
L2144 51913
L2257 51856
" />
<path d="M2819 51575
L2819 52756
" />
<path d="M2819 51631
L2931 51575
L3156 51575
L3269 51631
L3325 51688
L3381 51800
L3381 52138
L3325 52250
L3269 52306
L3156 52363
L2931 52363
L2819 52306
" />
<path d="M3888 52250
L3944 52306
L3888 52363
L3831 52306
L3888 52250
L3888 52363
" />
<path d="M3888 51631
L3944 51688
L3888 51744
L3831 51688
L3888 51631
L3888 51744
" />
<path d="M-5437 54230
L-5279 54387
" />
<path d="M-5279 54230
L-5437 54387
" />
<path d="M-3985 53662
L-3873 53662
L-3760 53718
L-3704 53774
L-3648 53887
L-3592 54112
L-3592 54393
L-3648 54618
L-3704 54730
L-3760 54787
L-3873 54843
L-3985 54843
L-4098 54787
L-4154 54730
L-4210 54618
L-4267 54393
L-4267 54112
L-4210 53887
L-4154 53774
L-4098 53718
L-3985 53662
" />
<path d="M-3086 54730
L-3029 54787
L-3086 54843
L-3142 54787
L-3086 54730
L-3086 54843
" />
<path d="M-2017 54055
L-2017 54843
" />
<path d="M-2298 53606
L-2579 54449
L-1848 54449
" />
<path d="M-1173 53662
L-1061 53662
L-948 53718
L-892 53774
L-836 53887
L-780 54112
L-780 54393
L-836 54618
L-892 54730
L-948 54787
L-1061 54843
L-1173 54843
L-1286 54787
L-1342 54730
L-1398 54618
L-1455 54393
L-1455 54112
L-1398 53887
L-1342 53774
L-1286 53718
L-1173 53662
" />
<path d="M-273 54843
L-273 54055
" />
<path d="M-273 54168
L-217 54112
L-105 54055
L63 54055
L176 54112
L232 54224
L232 54843
" />
<path d="M232 54224
L288 54112
L401 54055
L569 54055
L682 54112
L738 54224
L738 54843
" />
<path d="M1300 54843
L1300 54055
" />
<path d="M1300 54168
L1357 54112
L1469 54055
L1638 54055
L1750 54112
L1807 54224
L1807 54843
" />
<path d="M1807 54224
L1863 54112
L1975 54055
L2144 54055
L2257 54112
L2313 54224
L2313 54843
" />
<path d="M4619 53606
L3606 55124
" />
<path d="M6137 53662
L6250 53662
L6362 53718
L6419 53774
L6475 53887
L6531 54112
L6531 54393
L6475 54618
L6419 54730
L6362 54787
L6250 54843
L6137 54843
L6025 54787
L5969 54730
L5912 54618
L5856 54393
L5856 54112
L5912 53887
L5969 53774
L6025 53718
L6137 53662
" />
<path d="M7037 54730
L7093 54787
L7037 54843
L6981 54787
L7037 54730
L7037 54843
" />
<path d="M7825 53662
L7937 53662
L8050 53718
L8106 53774
L8162 53887
L8218 54112
L8218 54393
L8162 54618
L8106 54730
L8050 54787
L7937 54843
L7825 54843
L7712 54787
L7656 54730
L7600 54618
L7543 54393
L7543 54112
L7600 53887
L7656 53774
L7712 53718
L7825 53662
" />
<path d="M9343 54843
L8668 54843
" />
<path d="M9006 54843
L9006 53662
L8893 53830
L8781 53943
L8668 53999
" />
<path d="M10356 53662
L10131 53662
L10018 53718
L9962 53774
L9849 53943
L9793 54168
L9793 54618
L9849 54730
L9906 54787
L10018 54843
L10243 54843
L10356 54787
L10412 54730
L10468 54618
L10468 54337
L10412 54224
L10356 54168
L10243 54112
L10018 54112
L9906 54168
L9849 54224
L9793 54337
" />
<path d="M10918 53662
L10918 53887
" />
<path d="M11368 53662
L11368 53887
" />
<path d="M13111 55293
L13055 55237
L12943 55068
L12886 54955
L12830 54787
L12774 54505
L12774 54280
L12830 53999
L12886 53830
L12943 53718
L13055 53549
L13111 53493
" />
<path d="M13505 53774
L13561 53718
L13674 53662
L13955 53662
L14068 53718
L14124 53774
L14180 53887
L14180 53999
L14124 54168
L13449 54843
L14180 54843
" />
<path d="M14574 53662
L15305 53662
L14911 54112
L15080 54112
L15192 54168
L15249 54224
L15305 54337
L15305 54618
L15249 54730
L15192 54787
L15080 54843
L14742 54843
L14630 54787
L14574 54730
" />
<path d="M15980 54168
L15867 54112
L15811 54055
L15755 53943
L15755 53887
L15811 53774
L15867 53718
L15980 53662
L16205 53662
L16317 53718
L16374 53774
L16430 53887
L16430 53943
L16374 54055
L16317 54112
L16205 54168
L15980 54168
L15867 54224
L15811 54280
L15755 54393
L15755 54618
L15811 54730
L15867 54787
L15980 54843
L16205 54843
L16317 54787
L16374 54730
L16430 54618
L16430 54393
L16374 54280
L16317 54224
L16205 54168
" />
<path d="M17836 54843
L17836 53662
" />
<path d="M18342 54843
L18342 54224
L18286 54112
L18173 54055
L18005 54055
L17892 54112
L17836 54168
" />
<path d="M19073 54843
L18961 54787
L18904 54730
L18848 54618
L18848 54280
L18904 54168
L18961 54112
L19073 54055
L19242 54055
L19354 54112
L19411 54168
L19467 54280
L19467 54618
L19411 54730
L19354 54787
L19242 54843
L19073 54843
" />
<path d="M20142 54843
L20029 54787
L19973 54674
L19973 53662
" />
<path d="M21042 54787
L20929 54843
L20704 54843
L20592 54787
L20535 54674
L20535 54224
L20592 54112
L20704 54055
L20929 54055
L21042 54112
L21098 54224
L21098 54337
L20535 54449
" />
<path d="M21548 54787
L21660 54843
L21885 54843
L21998 54787
L22054 54674
L22054 54618
L21998 54505
L21885 54449
L21717 54449
L21604 54393
L21548 54280
L21548 54224
L21604 54112
L21717 54055
L21885 54055
L21998 54112
" />
<path d="M22448 55293
L22504 55237
L22616 55068
L22673 54955
L22729 54787
L22785 54505
L22785 54280
L22729 53999
L22673 53830
L22616 53718
L22504 53549
L22448 53493
" />
<circle cx="-5479.53" cy="55868.1" r="200" /> 
<path d="M-3592 56402
L-4267 56402
" />
<path d="M-3929 56402
L-3929 55221
L-4042 55390
L-4154 55502
L-4267 55558
" />
<path d="M-3086 56289
L-3029 56346
L-3086 56402
L-3142 56346
L-3086 56289
L-3086 56402
" />
<path d="M-2298 55221
L-2186 55221
L-2073 55277
L-2017 55333
L-1961 55446
L-1904 55671
L-1904 55952
L-1961 56177
L-2017 56289
L-2073 56346
L-2186 56402
L-2298 56402
L-2411 56346
L-2467 56289
L-2523 56177
L-2579 55952
L-2579 55671
L-2523 55446
L-2467 55333
L-2411 55277
L-2298 55221
" />
<path d="M-1455 55333
L-1398 55277
L-1286 55221
L-1005 55221
L-892 55277
L-836 55333
L-780 55446
L-780 55558
L-836 55727
L-1511 56402
L-780 56402
" />
<path d="M-273 56402
L-273 55615
" />
<path d="M-273 55727
L-217 55671
L-105 55615
L63 55615
L176 55671
L232 55783
L232 56402
" />
<path d="M232 55783
L288 55671
L401 55615
L569 55615
L682 55671
L738 55783
L738 56402
" />
<path d="M1300 56402
L1300 55615
" />
<path d="M1300 55727
L1357 55671
L1469 55615
L1638 55615
L1750 55671
L1807 55783
L1807 56402
" />
<path d="M1807 55783
L1863 55671
L1975 55615
L2144 55615
L2257 55671
L2313 55783
L2313 56402
" />
<path d="M4619 55165
L3606 56683
" />
<path d="M6137 55221
L6250 55221
L6362 55277
L6419 55333
L6475 55446
L6531 55671
L6531 55952
L6475 56177
L6419 56289
L6362 56346
L6250 56402
L6137 56402
L6025 56346
L5969 56289
L5912 56177
L5856 55952
L5856 55671
L5912 55446
L5969 55333
L6025 55277
L6137 55221
" />
<path d="M7037 56289
L7093 56346
L7037 56402
L6981 56346
L7037 56289
L7037 56402
" />
<path d="M7825 55221
L7937 55221
L8050 55277
L8106 55333
L8162 55446
L8218 55671
L8218 55952
L8162 56177
L8106 56289
L8050 56346
L7937 56402
L7825 56402
L7712 56346
L7656 56289
L7600 56177
L7543 55952
L7543 55671
L7600 55446
L7656 55333
L7712 55277
L7825 55221
" />
<path d="M9231 55615
L9231 56402
" />
<path d="M8949 55165
L8668 56008
L9399 56008
" />
<path d="M10074 55221
L10187 55221
L10299 55277
L10356 55333
L10412 55446
L10468 55671
L10468 55952
L10412 56177
L10356 56289
L10299 56346
L10187 56402
L10074 56402
L9962 56346
L9906 56289
L9849 56177
L9793 55952
L9793 55671
L9849 55446
L9906 55333
L9962 55277
L10074 55221
" />
<path d="M10918 55221
L10918 55446
" />
<path d="M11368 55221
L11368 55446
" />
<path d="M13111 56852
L13055 56796
L12943 56627
L12886 56514
L12830 56346
L12774 56064
L12774 55839
L12830 55558
L12886 55390
L12943 55277
L13055 55108
L13111 55052
" />
<path d="M14068 55615
L14068 56402
" />
<path d="M13786 55165
L13505 56008
L14236 56008
" />
<path d="M14855 55727
L14742 55671
L14686 55615
L14630 55502
L14630 55446
L14686 55333
L14742 55277
L14855 55221
L15080 55221
L15192 55277
L15249 55333
L15305 55446
L15305 55502
L15249 55615
L15192 55671
L15080 55727
L14855 55727
L14742 55783
L14686 55839
L14630 55952
L14630 56177
L14686 56289
L14742 56346
L14855 56402
L15080 56402
L15192 56346
L15249 56289
L15305 56177
L15305 55952
L15249 55839
L15192 55783
L15080 55727
" />
<path d="M16711 56402
L16711 55221
" />
<path d="M17217 56402
L17217 55783
L17161 55671
L17048 55615
L16880 55615
L16767 55671
L16711 55727
" />
<path d="M17948 56402
L17836 56346
L17780 56289
L17723 56177
L17723 55839
L17780 55727
L17836 55671
L17948 55615
L18117 55615
L18230 55671
L18286 55727
L18342 55839
L18342 56177
L18286 56289
L18230 56346
L18117 56402
L17948 56402
" />
<path d="M19017 56402
L18904 56346
L18848 56233
L18848 55221
" />
<path d="M19917 56346
L19804 56402
L19579 56402
L19467 56346
L19411 56233
L19411 55783
L19467 55671
L19579 55615
L19804 55615
L19917 55671
L19973 55783
L19973 55896
L19411 56008
" />
<path d="M20423 56346
L20535 56402
L20760 56402
L20873 56346
L20929 56233
L20929 56177
L20873 56064
L20760 56008
L20592 56008
L20479 55952
L20423 55839
L20423 55783
L20479 55671
L20592 55615
L20760 55615
L20873 55671
" />
<path d="M21323 56852
L21379 56796
L21492 56627
L21548 56514
L21604 56346
L21660 56064
L21660 55839
L21604 55558
L21548 55390
L21492 55277
L21379 55108
L21323 55052
" />
<path d="M-5496 57210
L-5496 57643
" />
<path d="M-5712 57427
L-5279 57427
" />
<path d="M-3592 57961
L-4267 57961
" />
<path d="M-3929 57961
L-3929 56780
L-4042 56949
L-4154 57061
L-4267 57117
" />
<path d="M-3086 57848
L-3029 57905
L-3086 57961
L-3142 57905
L-3086 57848
L-3086 57961
" />
<path d="M-1904 57961
L-2579 57961
" />
<path d="M-2242 57961
L-2242 56780
L-2354 56949
L-2467 57061
L-2579 57117
" />
<path d="M-1173 56780
L-1061 56780
L-948 56836
L-892 56892
L-836 57005
L-780 57230
L-780 57511
L-836 57736
L-892 57848
L-948 57905
L-1061 57961
L-1173 57961
L-1286 57905
L-1342 57848
L-1398 57736
L-1455 57511
L-1455 57230
L-1398 57005
L-1342 56892
L-1286 56836
L-1173 56780
" />
<path d="M-273 57961
L-273 57174
" />
<path d="M-273 57286
L-217 57230
L-105 57174
L63 57174
L176 57230
L232 57342
L232 57961
" />
<path d="M232 57342
L288 57230
L401 57174
L569 57174
L682 57230
L738 57342
L738 57961
" />
<path d="M1300 57961
L1300 57174
" />
<path d="M1300 57286
L1357 57230
L1469 57174
L1638 57174
L1750 57230
L1807 57342
L1807 57961
" />
<path d="M1807 57342
L1863 57230
L1975 57174
L2144 57174
L2257 57230
L2313 57342
L2313 57961
" />
<path d="M4619 56724
L3606 58242
" />
<path d="M6137 56780
L6250 56780
L6362 56836
L6419 56892
L6475 57005
L6531 57230
L6531 57511
L6475 57736
L6419 57848
L6362 57905
L6250 57961
L6137 57961
L6025 57905
L5969 57848
L5912 57736
L5856 57511
L5856 57230
L5912 57005
L5969 56892
L6025 56836
L6137 56780
" />
<path d="M7037 57848
L7093 57905
L7037 57961
L6981 57905
L7037 57848
L7037 57961
" />
<path d="M7825 56780
L7937 56780
L8050 56836
L8106 56892
L8162 57005
L8218 57230
L8218 57511
L8162 57736
L8106 57848
L8050 57905
L7937 57961
L7825 57961
L7712 57905
L7656 57848
L7600 57736
L7543 57511
L7543 57230
L7600 57005
L7656 56892
L7712 56836
L7825 56780
" />
<path d="M9231 57174
L9231 57961
" />
<path d="M8949 56724
L8668 57567
L9399 57567
" />
<path d="M9737 56780
L10468 56780
L10074 57230
L10243 57230
L10356 57286
L10412 57342
L10468 57455
L10468 57736
L10412 57848
L10356 57905
L10243 57961
L9906 57961
L9793 57905
L9737 57848
" />
<path d="M10918 56780
L10918 57005
" />
<path d="M11368 56780
L11368 57005
" />
<path d="M13111 58411
L13055 58355
L12943 58186
L12886 58073
L12830 57905
L12774 57624
L12774 57399
L12830 57117
L12886 56949
L12943 56836
L13055 56667
L13111 56611
" />
<path d="M13449 56780
L14180 56780
L13786 57230
L13955 57230
L14068 57286
L14124 57342
L14180 57455
L14180 57736
L14124 57848
L14068 57905
L13955 57961
L13618 57961
L13505 57905
L13449 57848
" />
<path d="M14630 56892
L14686 56836
L14799 56780
L15080 56780
L15192 56836
L15249 56892
L15305 57005
L15305 57117
L15249 57286
L14574 57961
L15305 57961
" />
<path d="M16711 57961
L16711 56780
" />
<path d="M17217 57961
L17217 57342
L17161 57230
L17048 57174
L16880 57174
L16767 57230
L16711 57286
" />
<path d="M17948 57961
L17836 57905
L17780 57848
L17723 57736
L17723 57399
L17780 57286
L17836 57230
L17948 57174
L18117 57174
L18230 57230
L18286 57286
L18342 57399
L18342 57736
L18286 57848
L18230 57905
L18117 57961
L17948 57961
" />
<path d="M19017 57961
L18904 57905
L18848 57792
L18848 56780
" />
<path d="M19917 57905
L19804 57961
L19579 57961
L19467 57905
L19411 57792
L19411 57342
L19467 57230
L19579 57174
L19804 57174
L19917 57230
L19973 57342
L19973 57455
L19411 57567
" />
<path d="M20423 57905
L20535 57961
L20760 57961
L20873 57905
L20929 57792
L20929 57736
L20873 57624
L20760 57567
L20592 57567
L20479 57511
L20423 57399
L20423 57342
L20479 57230
L20592 57174
L20760 57174
L20873 57230
" />
<path d="M21323 58411
L21379 58355
L21492 58186
L21548 58073
L21604 57905
L21660 57624
L21660 57399
L21604 57117
L21548 56949
L21492 56836
L21379 56667
L21323 56611
" />
<polyline fill="none;"
points="-5345,59145
-5345,58827
-5663,58827
-5663,59145
-5345,59145
" /> 
<path d="M-3592 59520
L-4267 59520
" />
<path d="M-3929 59520
L-3929 58339
L-4042 58508
L-4154 58620
L-4267 58676
" />
<path d="M-3086 59408
L-3029 59464
L-3086 59520
L-3142 59464
L-3086 59408
L-3086 59520
" />
<path d="M-1904 59520
L-2579 59520
" />
<path d="M-2242 59520
L-2242 58339
L-2354 58508
L-2467 58620
L-2579 58676
" />
<path d="M-892 58733
L-892 59520
" />
<path d="M-1173 58283
L-1455 59126
L-723 59126
" />
<path d="M-273 59520
L-273 58733
" />
<path d="M-273 58845
L-217 58789
L-105 58733
L63 58733
L176 58789
L232 58901
L232 59520
" />
<path d="M232 58901
L288 58789
L401 58733
L569 58733
L682 58789
L738 58901
L738 59520
" />
<path d="M1300 59520
L1300 58733
" />
<path d="M1300 58845
L1357 58789
L1469 58733
L1638 58733
L1750 58789
L1807 58901
L1807 59520
" />
<path d="M1807 58901
L1863 58789
L1975 58733
L2144 58733
L2257 58789
L2313 58901
L2313 59520
" />
<path d="M4619 58283
L3606 59801
" />
<path d="M6137 58339
L6250 58339
L6362 58395
L6419 58451
L6475 58564
L6531 58789
L6531 59070
L6475 59295
L6419 59408
L6362 59464
L6250 59520
L6137 59520
L6025 59464
L5969 59408
L5912 59295
L5856 59070
L5856 58789
L5912 58564
L5969 58451
L6025 58395
L6137 58339
" />
<path d="M7037 59408
L7093 59464
L7037 59520
L6981 59464
L7037 59408
L7037 59520
" />
<path d="M7825 58339
L7937 58339
L8050 58395
L8106 58451
L8162 58564
L8218 58789
L8218 59070
L8162 59295
L8106 59408
L8050 59464
L7937 59520
L7825 59520
L7712 59464
L7656 59408
L7600 59295
L7543 59070
L7543 58789
L7600 58564
L7656 58451
L7712 58395
L7825 58339
" />
<path d="M9231 58733
L9231 59520
" />
<path d="M8949 58283
L8668 59126
L9399 59126
" />
<path d="M10412 58339
L9849 58339
L9793 58901
L9849 58845
L9962 58789
L10243 58789
L10356 58845
L10412 58901
L10468 59014
L10468 59295
L10412 59408
L10356 59464
L10243 59520
L9962 59520
L9849 59464
L9793 59408
" />
<path d="M10918 58339
L10918 58564
" />
<path d="M11368 58339
L11368 58564
" />
<path d="M13111 59970
L13055 59914
L12943 59745
L12886 59633
L12830 59464
L12774 59183
L12774 58958
L12830 58676
L12886 58508
L12943 58395
L13055 58226
L13111 58170
" />
<path d="M14068 58733
L14068 59520
" />
<path d="M13786 58283
L13505 59126
L14236 59126
" />
<path d="M14855 58845
L14742 58789
L14686 58733
L14630 58620
L14630 58564
L14686 58451
L14742 58395
L14855 58339
L15080 58339
L15192 58395
L15249 58451
L15305 58564
L15305 58620
L15249 58733
L15192 58789
L15080 58845
L14855 58845
L14742 58901
L14686 58958
L14630 59070
L14630 59295
L14686 59408
L14742 59464
L14855 59520
L15080 59520
L15192 59464
L15249 59408
L15305 59295
L15305 59070
L15249 58958
L15192 58901
L15080 58845
" />
<path d="M16711 59520
L16711 58339
" />
<path d="M17217 59520
L17217 58901
L17161 58789
L17048 58733
L16880 58733
L16767 58789
L16711 58845
" />
<path d="M17948 59520
L17836 59464
L17780 59408
L17723 59295
L17723 58958
L17780 58845
L17836 58789
L17948 58733
L18117 58733
L18230 58789
L18286 58845
L18342 58958
L18342 59295
L18286 59408
L18230 59464
L18117 59520
L17948 59520
" />
<path d="M19017 59520
L18904 59464
L18848 59351
L18848 58339
" />
<path d="M19917 59464
L19804 59520
L19579 59520
L19467 59464
L19411 59351
L19411 58901
L19467 58789
L19579 58733
L19804 58733
L19917 58789
L19973 58901
L19973 59014
L19411 59126
" />
<path d="M20423 59464
L20535 59520
L20760 59520
L20873 59464
L20929 59351
L20929 59295
L20873 59183
L20760 59126
L20592 59126
L20479 59070
L20423 58958
L20423 58901
L20479 58789
L20592 58733
L20760 58733
L20873 58789
" />
<path d="M21323 59970
L21379 59914
L21492 59745
L21548 59633
L21604 59464
L21660 59183
L21660 58958
L21604 58676
L21548 58508
L21492 58395
L21379 58226
L21323 58170
" />
<polyline fill="none;"
points="-5811,61076
-5279,60545
-5811,60013
-6342,60545
-5811,61076
" /> 
<path d="M-4267 60010
L-4210 59954
L-4098 59898
L-3817 59898
L-3704 59954
L-3648 60010
L-3592 60123
L-3592 60235
L-3648 60404
L-4323 61079
L-3592 61079
" />
<path d="M-3086 60967
L-3029 61023
L-3086 61079
L-3142 61023
L-3086 60967
L-3086 61079
" />
<path d="M-2636 59898
L-1848 59898
L-2354 61079
" />
<path d="M-1173 59898
L-1061 59898
L-948 59954
L-892 60010
L-836 60123
L-780 60348
L-780 60629
L-836 60854
L-892 60967
L-948 61023
L-1061 61079
L-1173 61079
L-1286 61023
L-1342 60967
L-1398 60854
L-1455 60629
L-1455 60348
L-1398 60123
L-1342 60010
L-1286 59954
L-1173 59898
" />
<path d="M-273 61079
L-273 60292
" />
<path d="M-273 60404
L-217 60348
L-105 60292
L63 60292
L176 60348
L232 60460
L232 61079
" />
<path d="M232 60460
L288 60348
L401 60292
L569 60292
L682 60348
L738 60460
L738 61079
" />
<path d="M1300 61079
L1300 60292
" />
<path d="M1300 60404
L1357 60348
L1469 60292
L1638 60292
L1750 60348
L1807 60460
L1807 61079
" />
<path d="M1807 60460
L1863 60348
L1975 60292
L2144 60292
L2257 60348
L2313 60460
L2313 61079
" />
<path d="M4619 59842
L3606 61360
" />
<path d="M6137 59898
L6250 59898
L6362 59954
L6419 60010
L6475 60123
L6531 60348
L6531 60629
L6475 60854
L6419 60967
L6362 61023
L6250 61079
L6137 61079
L6025 61023
L5969 60967
L5912 60854
L5856 60629
L5856 60348
L5912 60123
L5969 60010
L6025 59954
L6137 59898
" />
<path d="M7037 60967
L7093 61023
L7037 61079
L6981 61023
L7037 60967
L7037 61079
" />
<path d="M8218 61079
L7543 61079
" />
<path d="M7881 61079
L7881 59898
L7768 60067
L7656 60179
L7543 60235
" />
<path d="M8949 59898
L9062 59898
L9174 59954
L9231 60010
L9287 60123
L9343 60348
L9343 60629
L9287 60854
L9231 60967
L9174 61023
L9062 61079
L8949 61079
L8837 61023
L8781 60967
L8724 60854
L8668 60629
L8668 60348
L8724 60123
L8781 60010
L8837 59954
L8949 59898
" />
<path d="M10356 59898
L10131 59898
L10018 59954
L9962 60010
L9849 60179
L9793 60404
L9793 60854
L9849 60967
L9906 61023
L10018 61079
L10243 61079
L10356 61023
L10412 60967
L10468 60854
L10468 60573
L10412 60460
L10356 60404
L10243 60348
L10018 60348
L9906 60404
L9849 60460
L9793 60573
" />
<path d="M10918 59898
L10918 60123
" />
<path d="M11368 59898
L11368 60123
" />
<path d="M13111 61529
L13055 61473
L12943 61304
L12886 61192
L12830 61023
L12774 60742
L12774 60517
L12830 60235
L12886 60067
L12943 59954
L13055 59785
L13111 59729
" />
<path d="M14180 61079
L13505 61079
" />
<path d="M13843 61079
L13843 59898
L13730 60067
L13618 60179
L13505 60235
" />
<path d="M14630 60010
L14686 59954
L14799 59898
L15080 59898
L15192 59954
L15249 60010
L15305 60123
L15305 60235
L15249 60404
L14574 61079
L15305 61079
" />
<path d="M16711 61079
L16711 59898
" />
<path d="M17217 61079
L17217 60460
L17161 60348
L17048 60292
L16880 60292
L16767 60348
L16711 60404
" />
<path d="M17948 61079
L17836 61023
L17780 60967
L17723 60854
L17723 60517
L17780 60404
L17836 60348
L17948 60292
L18117 60292
L18230 60348
L18286 60404
L18342 60517
L18342 60854
L18286 60967
L18230 61023
L18117 61079
L17948 61079
" />
<path d="M19017 61079
L18904 61023
L18848 60910
L18848 59898
" />
<path d="M19917 61023
L19804 61079
L19579 61079
L19467 61023
L19411 60910
L19411 60460
L19467 60348
L19579 60292
L19804 60292
L19917 60348
L19973 60460
L19973 60573
L19411 60685
" />
<path d="M20423 61023
L20535 61079
L20760 61079
L20873 61023
L20929 60910
L20929 60854
L20873 60742
L20760 60685
L20592 60685
L20479 60629
L20423 60517
L20423 60460
L20479 60348
L20592 60292
L20760 60292
L20873 60348
" />
<path d="M21323 61529
L21379 61473
L21492 61304
L21548 61192
L21604 61023
L21660 60742
L21660 60517
L21604 60235
L21548 60067
L21492 59954
L21379 59785
L21323 59729
" />
</g> 
</svg>
