%FSLAX45Y45*%
G04 Gerber Fmt 4.5, Leading zero omitted, Abs format (unit mm)*
G04 Created by KiCad (PCBNEW 4.0.5-e0-6337~49~ubuntu16.04.1) date Mon Feb  6 17:26:28 2017*
%MOMM*%
%LPD*%
G01*
G04 APERTURE LIST*
%ADD10C,0.127000*%
%ADD11C,0.150000*%
%ADD12C,0.200000*%
%ADD13C,0.300000*%
G04 APERTURE END LIST*
D10*
D11*
X-1333500Y-12827000D02*
X-1333500Y-4826000D01*
X17716500Y-12827000D02*
X-1333500Y-12827000D01*
X17716500Y-4826000D02*
X17716500Y-12827000D01*
X-1333500Y-4826000D02*
X17716500Y-4826000D01*
D12*
X132400Y-7879400D02*
X172400Y-7919400D01*
X172400Y-7879400D02*
X132400Y-7919400D01*
X172008Y-10378933D02*
X212008Y-10418933D01*
X212008Y-10378933D02*
X172008Y-10418933D01*
X183200Y-6101400D02*
X223200Y-6141400D01*
X223200Y-6101400D02*
X183200Y-6141400D01*
X411800Y-6584000D02*
X451800Y-6624000D01*
X451800Y-6584000D02*
X411800Y-6624000D01*
X437200Y-10698800D02*
X477200Y-10738800D01*
X477200Y-10698800D02*
X437200Y-10738800D01*
X462600Y-5872800D02*
X502600Y-5912800D01*
X502600Y-5872800D02*
X462600Y-5912800D01*
X462600Y-10216200D02*
X502600Y-10256200D01*
X502600Y-10216200D02*
X462600Y-10256200D01*
X488000Y-9987600D02*
X528000Y-10027600D01*
X528000Y-9987600D02*
X488000Y-10027600D01*
X513400Y-5491800D02*
X553400Y-5531800D01*
X553400Y-5491800D02*
X513400Y-5531800D01*
X513400Y-5669600D02*
X553400Y-5709600D01*
X553400Y-5669600D02*
X513400Y-5709600D01*
X564200Y-6634800D02*
X604200Y-6674800D01*
X604200Y-6634800D02*
X564200Y-6674800D01*
X627700Y-10698800D02*
X667700Y-10738800D01*
X667700Y-10698800D02*
X627700Y-10738800D01*
X805500Y-10825800D02*
X845500Y-10865800D01*
X845500Y-10825800D02*
X805500Y-10865800D01*
X818200Y-5745800D02*
X858200Y-5785800D01*
X858200Y-5745800D02*
X818200Y-5785800D01*
X818200Y-6304600D02*
X858200Y-6344600D01*
X858200Y-6304600D02*
X818200Y-6344600D01*
X843600Y-5491800D02*
X883600Y-5531800D01*
X883600Y-5491800D02*
X843600Y-5531800D01*
X843600Y-6152200D02*
X883600Y-6192200D01*
X883600Y-6152200D02*
X843600Y-6192200D01*
X843600Y-9809800D02*
X883600Y-9849800D01*
X883600Y-9809800D02*
X843600Y-9849800D01*
X919800Y-6609400D02*
X959800Y-6649400D01*
X959800Y-6609400D02*
X919800Y-6649400D01*
X945200Y-8920800D02*
X985200Y-8960800D01*
X985200Y-8920800D02*
X945200Y-8960800D01*
X1046800Y-6609400D02*
X1086800Y-6649400D01*
X1086800Y-6609400D02*
X1046800Y-6649400D01*
X1084900Y-10406700D02*
X1124900Y-10446700D01*
X1124900Y-10406700D02*
X1084900Y-10446700D01*
X1148400Y-5618800D02*
X1188400Y-5658800D01*
X1188400Y-5618800D02*
X1148400Y-5658800D01*
X1148400Y-6203000D02*
X1188400Y-6243000D01*
X1188400Y-6203000D02*
X1148400Y-6243000D01*
X1237300Y-11371900D02*
X1277300Y-11411900D01*
X1277300Y-11371900D02*
X1237300Y-11411900D01*
X1250000Y-11638600D02*
X1290000Y-11678600D01*
X1290000Y-11638600D02*
X1250000Y-11678600D01*
X1377000Y-6584000D02*
X1417000Y-6624000D01*
X1417000Y-6584000D02*
X1377000Y-6624000D01*
X1389700Y-6190300D02*
X1429700Y-6230300D01*
X1429700Y-6190300D02*
X1389700Y-6230300D01*
X1478600Y-10038400D02*
X1518600Y-10078400D01*
X1518600Y-10038400D02*
X1478600Y-10078400D01*
X1516700Y-9022400D02*
X1556700Y-9062400D01*
X1556700Y-9022400D02*
X1516700Y-9062400D01*
X1529400Y-6609400D02*
X1569400Y-6649400D01*
X1569400Y-6609400D02*
X1529400Y-6649400D01*
X1656400Y-10241600D02*
X1696400Y-10281600D01*
X1696400Y-10241600D02*
X1656400Y-10281600D01*
X1656400Y-10509299D02*
X1696400Y-10549299D01*
X1696400Y-10509299D02*
X1656400Y-10549299D01*
X1681800Y-5872800D02*
X1721800Y-5912800D01*
X1721800Y-5872800D02*
X1681800Y-5912800D01*
X1707200Y-11346500D02*
X1747200Y-11386500D01*
X1747200Y-11346500D02*
X1707200Y-11386500D01*
X1732600Y-9911400D02*
X1772600Y-9951400D01*
X1772600Y-9911400D02*
X1732600Y-9951400D01*
X1745300Y-8857300D02*
X1785300Y-8897300D01*
X1785300Y-8857300D02*
X1745300Y-8897300D01*
X1758000Y-11614199D02*
X1798000Y-11654199D01*
X1798000Y-11614199D02*
X1758000Y-11654199D01*
X1808800Y-10241600D02*
X1848800Y-10281600D01*
X1848800Y-10241600D02*
X1808800Y-10281600D01*
X1808800Y-10509299D02*
X1848800Y-10549299D01*
X1848800Y-10509299D02*
X1808800Y-10549299D01*
X1859600Y-6482400D02*
X1899600Y-6522400D01*
X1899600Y-6482400D02*
X1859600Y-6522400D01*
X1885000Y-7193600D02*
X1925000Y-7233600D01*
X1925000Y-7193600D02*
X1885000Y-7233600D01*
X1889082Y-6582880D02*
X1929082Y-6622880D01*
X1929082Y-6582880D02*
X1889082Y-6622880D01*
X1986600Y-5783900D02*
X2026600Y-5823900D01*
X2026600Y-5783900D02*
X1986600Y-5823900D01*
X2037400Y-7142800D02*
X2077400Y-7182800D01*
X2077400Y-7142800D02*
X2037400Y-7182800D01*
X2058999Y-6634800D02*
X2098999Y-6674800D01*
X2098999Y-6634800D02*
X2058999Y-6674800D01*
X2113600Y-6380800D02*
X2153600Y-6420800D01*
X2153600Y-6380800D02*
X2113600Y-6420800D01*
X2139000Y-6685600D02*
X2179000Y-6725600D01*
X2179000Y-6685600D02*
X2139000Y-6725600D01*
X2189800Y-6812600D02*
X2229800Y-6852600D01*
X2229800Y-6812600D02*
X2189800Y-6852600D01*
X2240600Y-5745800D02*
X2280600Y-5785800D01*
X2280600Y-5745800D02*
X2240600Y-5785800D01*
X2342200Y-11460800D02*
X2382200Y-11500800D01*
X2382200Y-11460800D02*
X2342200Y-11500800D01*
X2367035Y-11650476D02*
X2407035Y-11690476D01*
X2407035Y-11650476D02*
X2367035Y-11690476D01*
X2367600Y-5999800D02*
X2407600Y-6039800D01*
X2407600Y-5999800D02*
X2367600Y-6039800D01*
X2375233Y-6353597D02*
X2415233Y-6393597D01*
X2415233Y-6353597D02*
X2375233Y-6393597D01*
X2389785Y-6559231D02*
X2429785Y-6599231D01*
X2429785Y-6559231D02*
X2389785Y-6599231D01*
X2393000Y-6431600D02*
X2433000Y-6471600D01*
X2433000Y-6431600D02*
X2393000Y-6471600D01*
X2443800Y-8768400D02*
X2483800Y-8808400D01*
X2483800Y-8768400D02*
X2443800Y-8808400D01*
X2443800Y-9327200D02*
X2483800Y-9367200D01*
X2483800Y-9327200D02*
X2443800Y-9367200D01*
X2494600Y-10546400D02*
X2534600Y-10586400D01*
X2534600Y-10546400D02*
X2494600Y-10586400D01*
X2558100Y-9416100D02*
X2598100Y-9456100D01*
X2598100Y-9416100D02*
X2558100Y-9456100D01*
X2596200Y-7473000D02*
X2636200Y-7513000D01*
X2636200Y-7473000D02*
X2596200Y-7513000D01*
X2608900Y-9136700D02*
X2648900Y-9176700D01*
X2648900Y-9136700D02*
X2608900Y-9176700D01*
X2659700Y-10482900D02*
X2699700Y-10522900D01*
X2699700Y-10482900D02*
X2659700Y-10522900D01*
X2697097Y-6469893D02*
X2737097Y-6509893D01*
X2737097Y-6469893D02*
X2697097Y-6509893D01*
X2697800Y-6380800D02*
X2737800Y-6420800D01*
X2737800Y-6380800D02*
X2697800Y-6420800D01*
X2702268Y-6549727D02*
X2742268Y-6589727D01*
X2742268Y-6549727D02*
X2702268Y-6589727D01*
X2748600Y-5822000D02*
X2788600Y-5862000D01*
X2788600Y-5822000D02*
X2748600Y-5862000D01*
X2883967Y-6462137D02*
X2923967Y-6502137D01*
X2923967Y-6462137D02*
X2883967Y-6502137D01*
X3028000Y-8158800D02*
X3068000Y-8198800D01*
X3068000Y-8158800D02*
X3028000Y-8198800D01*
X3066100Y-10444800D02*
X3106100Y-10484800D01*
X3106100Y-10444800D02*
X3066100Y-10484800D01*
X3104200Y-8031800D02*
X3144200Y-8071800D01*
X3144200Y-8031800D02*
X3104200Y-8071800D01*
X3116900Y-9200200D02*
X3156900Y-9240200D01*
X3156900Y-9200200D02*
X3116900Y-9240200D01*
X3129600Y-8438200D02*
X3169600Y-8478200D01*
X3169600Y-8438200D02*
X3129600Y-8478200D01*
X3142300Y-5796600D02*
X3182300Y-5836600D01*
X3182300Y-5796600D02*
X3142300Y-5836600D01*
X3155000Y-6863400D02*
X3195000Y-6903400D01*
X3195000Y-6863400D02*
X3155000Y-6903400D01*
X3160427Y-6373289D02*
X3200427Y-6413289D01*
X3200427Y-6373289D02*
X3160427Y-6413289D01*
X3168400Y-6533200D02*
X3208400Y-6573200D01*
X3208400Y-6533200D02*
X3168400Y-6573200D01*
X3180400Y-6634800D02*
X3220400Y-6674800D01*
X3220400Y-6634800D02*
X3180400Y-6674800D01*
X3180400Y-8514400D02*
X3220400Y-8554400D01*
X3220400Y-8514400D02*
X3180400Y-8554400D01*
X3307400Y-7371400D02*
X3347400Y-7411400D01*
X3347400Y-7371400D02*
X3307400Y-7411400D01*
X3345500Y-10811100D02*
X3385500Y-10851100D01*
X3385500Y-10811100D02*
X3345500Y-10851100D01*
X3358200Y-11727500D02*
X3398200Y-11767500D01*
X3398200Y-11727500D02*
X3358200Y-11767500D01*
X3383600Y-10457500D02*
X3423600Y-10497500D01*
X3423600Y-10457500D02*
X3383600Y-10497500D01*
X3414065Y-11926899D02*
X3454065Y-11966899D01*
X3454065Y-11926899D02*
X3414065Y-11966899D01*
X3446101Y-9105257D02*
X3486101Y-9145257D01*
X3486101Y-9105257D02*
X3446101Y-9145257D01*
X3496420Y-6473056D02*
X3536420Y-6513056D01*
X3536420Y-6473056D02*
X3496420Y-6513056D01*
X3510600Y-7447600D02*
X3550600Y-7487600D01*
X3550600Y-7447600D02*
X3510600Y-7487600D01*
X3510600Y-7600000D02*
X3550600Y-7640000D01*
X3550600Y-7600000D02*
X3510600Y-7640000D01*
X3536000Y-8082600D02*
X3576000Y-8122600D01*
X3576000Y-8082600D02*
X3536000Y-8122600D01*
X3549603Y-5659166D02*
X3589603Y-5699166D01*
X3589603Y-5659166D02*
X3549603Y-5699166D01*
X3554734Y-6527826D02*
X3594734Y-6567826D01*
X3594734Y-6527826D02*
X3554734Y-6567826D01*
X3637600Y-6177600D02*
X3677600Y-6217600D01*
X3677600Y-6177600D02*
X3637600Y-6217600D01*
X3663000Y-9251000D02*
X3703000Y-9291000D01*
X3703000Y-9251000D02*
X3663000Y-9291000D01*
X3663000Y-8119701D02*
X3703000Y-8159701D01*
X3703000Y-8119701D02*
X3663000Y-8159701D01*
X3843154Y-9323797D02*
X3883154Y-9363797D01*
X3883154Y-9323797D02*
X3843154Y-9363797D01*
X3955100Y-10482900D02*
X3995100Y-10522900D01*
X3995100Y-10482900D02*
X3955100Y-10522900D01*
X3955100Y-11829100D02*
X3995100Y-11869100D01*
X3995100Y-11829100D02*
X3955100Y-11869100D01*
X3980500Y-11905300D02*
X4020500Y-11945300D01*
X4020500Y-11905300D02*
X3980500Y-11945300D01*
X4044000Y-8539800D02*
X4084000Y-8579800D01*
X4084000Y-8539800D02*
X4044000Y-8579800D01*
X4048799Y-6466939D02*
X4088799Y-6506939D01*
X4088799Y-6466939D02*
X4048799Y-6506939D01*
X4069400Y-8743000D02*
X4109400Y-8783000D01*
X4109400Y-8743000D02*
X4069400Y-8783000D01*
X4082100Y-10825800D02*
X4122100Y-10865800D01*
X4122100Y-10825800D02*
X4082100Y-10865800D01*
X4107500Y-9390700D02*
X4147500Y-9430700D01*
X4147500Y-9390700D02*
X4107500Y-9430700D01*
X4151254Y-9300982D02*
X4191254Y-9340982D01*
X4191254Y-9300982D02*
X4151254Y-9340982D01*
X4247200Y-10495600D02*
X4287200Y-10535600D01*
X4287200Y-10495600D02*
X4247200Y-10535600D01*
X4298000Y-7422200D02*
X4338000Y-7462200D01*
X4338000Y-7422200D02*
X4298000Y-7462200D01*
X4298000Y-7625400D02*
X4338000Y-7665400D01*
X4338000Y-7625400D02*
X4298000Y-7665400D01*
X4298000Y-11714800D02*
X4338000Y-11754800D01*
X4338000Y-11714800D02*
X4298000Y-11754800D01*
X4352400Y-6431600D02*
X4392400Y-6471600D01*
X4392400Y-6431600D02*
X4352400Y-6471600D01*
X4366130Y-6533200D02*
X4406130Y-6573200D01*
X4406130Y-6533200D02*
X4366130Y-6573200D01*
X4475800Y-8539800D02*
X4515800Y-8579800D01*
X4515800Y-8539800D02*
X4475800Y-8579800D01*
X4475800Y-8717600D02*
X4515800Y-8757600D01*
X4515800Y-8717600D02*
X4475800Y-8757600D01*
X4556947Y-11899501D02*
X4596947Y-11939501D01*
X4596947Y-11899501D02*
X4556947Y-11939501D01*
X4679000Y-10508300D02*
X4719000Y-10548300D01*
X4719000Y-10508300D02*
X4679000Y-10548300D01*
X4780600Y-6711000D02*
X4820600Y-6751000D01*
X4820600Y-6711000D02*
X4780600Y-6751000D01*
X4806000Y-6863400D02*
X4846000Y-6903400D01*
X4846000Y-6863400D02*
X4806000Y-6903400D01*
X4856800Y-10597200D02*
X4896800Y-10637200D01*
X4896800Y-10597200D02*
X4856800Y-10637200D01*
X4882200Y-8514400D02*
X4922200Y-8554400D01*
X4922200Y-8514400D02*
X4882200Y-8554400D01*
X4882200Y-8717600D02*
X4922200Y-8757600D01*
X4922200Y-8717600D02*
X4882200Y-8757600D01*
X5136200Y-7473000D02*
X5176200Y-7513000D01*
X5176200Y-7473000D02*
X5136200Y-7513000D01*
X5161600Y-7676200D02*
X5201600Y-7716200D01*
X5201600Y-7676200D02*
X5161600Y-7716200D01*
X5288600Y-8539800D02*
X5328600Y-8579800D01*
X5328600Y-8539800D02*
X5288600Y-8579800D01*
X5288600Y-8793800D02*
X5328600Y-8833800D01*
X5328600Y-8793800D02*
X5288600Y-8833800D01*
X5656900Y-9289100D02*
X5696900Y-9329100D01*
X5696900Y-9289100D02*
X5656900Y-9329100D01*
X5695000Y-8514400D02*
X5735000Y-8554400D01*
X5735000Y-8514400D02*
X5695000Y-8554400D01*
X5695000Y-8717600D02*
X5735000Y-8757600D01*
X5735000Y-8717600D02*
X5695000Y-8757600D01*
X6076000Y-8539800D02*
X6116000Y-8579800D01*
X6116000Y-8539800D02*
X6076000Y-8579800D01*
X6101400Y-8768400D02*
X6141400Y-8808400D01*
X6141400Y-8768400D02*
X6101400Y-8808400D01*
X6355400Y-9924100D02*
X6395400Y-9964100D01*
X6395400Y-9924100D02*
X6355400Y-9964100D01*
X7003100Y-10216200D02*
X7043100Y-10256200D01*
X7043100Y-10216200D02*
X7003100Y-10256200D01*
X8133400Y-8908100D02*
X8173400Y-8948100D01*
X8173400Y-8908100D02*
X8133400Y-8948100D01*
X8158800Y-8743000D02*
X8198800Y-8783000D01*
X8198800Y-8743000D02*
X8158800Y-8783000D01*
X8222300Y-8527100D02*
X8262300Y-8567100D01*
X8262300Y-8527100D02*
X8222300Y-8567100D01*
X8577900Y-8527100D02*
X8617900Y-8567100D01*
X8617900Y-8527100D02*
X8577900Y-8567100D01*
X8616000Y-8704900D02*
X8656000Y-8744900D01*
X8656000Y-8704900D02*
X8616000Y-8744900D01*
X8743000Y-8755700D02*
X8783000Y-8795700D01*
X8783000Y-8755700D02*
X8743000Y-8795700D01*
X8971600Y-8552500D02*
X9011600Y-8592500D01*
X9011600Y-8552500D02*
X8971600Y-8592500D01*
X8985299Y-8857300D02*
X9025299Y-8897300D01*
X9025299Y-8857300D02*
X8985299Y-8897300D01*
X9047800Y-9454200D02*
X9087800Y-9494200D01*
X9087800Y-9454200D02*
X9047800Y-9494200D01*
X9047800Y-8285800D02*
X9087800Y-8325800D01*
X9087800Y-8285800D02*
X9047800Y-8325800D01*
X9225600Y-9898700D02*
X9265600Y-9938700D01*
X9265600Y-9898700D02*
X9225600Y-9938700D01*
X9251000Y-10063800D02*
X9291000Y-10103800D01*
X9291000Y-10063800D02*
X9251000Y-10103800D01*
X9263700Y-9479600D02*
X9303700Y-9519600D01*
X9303700Y-9479600D02*
X9263700Y-9519600D01*
X9339900Y-8285800D02*
X9379900Y-8325800D01*
X9379900Y-8285800D02*
X9339900Y-8325800D01*
X9403400Y-8577900D02*
X9443400Y-8617900D01*
X9443400Y-8577900D02*
X9403400Y-8617900D01*
X9403400Y-8844600D02*
X9443400Y-8884600D01*
X9443400Y-8844600D02*
X9403400Y-8884600D01*
X9847900Y-8857300D02*
X9887900Y-8897300D01*
X9887900Y-8857300D02*
X9847900Y-8897300D01*
X9873300Y-8577900D02*
X9913300Y-8617900D01*
X9913300Y-8577900D02*
X9873300Y-8617900D01*
X10101900Y-8844600D02*
X10141900Y-8884600D01*
X10141900Y-8844600D02*
X10101900Y-8884600D01*
X10114600Y-9492300D02*
X10154600Y-9532300D01*
X10154600Y-9492300D02*
X10114600Y-9532300D01*
X10279700Y-8565200D02*
X10319700Y-8605200D01*
X10319700Y-8565200D02*
X10279700Y-8605200D01*
X10368600Y-9429000D02*
X10408600Y-9469000D01*
X10408600Y-9429000D02*
X10368600Y-9469000D01*
X10478000Y-10782800D02*
X10518000Y-10822800D01*
X10518000Y-10782800D02*
X10478000Y-10822800D01*
X10622600Y-8603300D02*
X10662600Y-8643300D01*
X10662600Y-8603300D02*
X10622600Y-8643300D01*
X10635300Y-8120700D02*
X10675300Y-8160700D01*
X10675300Y-8120700D02*
X10635300Y-8160700D01*
X10660700Y-8857300D02*
X10700700Y-8897300D01*
X10700700Y-8857300D02*
X10660700Y-8897300D01*
X10686100Y-9035100D02*
X10726100Y-9075100D01*
X10726100Y-9035100D02*
X10686100Y-9075100D01*
X10838500Y-6253800D02*
X10878500Y-6293800D01*
X10878500Y-6253800D02*
X10838500Y-6293800D01*
X10902000Y-8209600D02*
X10942000Y-8249600D01*
X10942000Y-8209600D02*
X10902000Y-8249600D01*
X11003600Y-8158800D02*
X11043600Y-8198800D01*
X11043600Y-8158800D02*
X11003600Y-8198800D01*
X11161548Y-9017080D02*
X11201548Y-9057080D01*
X11201548Y-9017080D02*
X11161548Y-9057080D01*
X11194100Y-10876600D02*
X11234100Y-10916600D01*
X11234100Y-10876600D02*
X11194100Y-10916600D01*
X11195099Y-8057200D02*
X11235099Y-8097200D01*
X11235099Y-8057200D02*
X11195099Y-8097200D01*
X11206800Y-7701600D02*
X11246800Y-7741600D01*
X11246800Y-7701600D02*
X11206800Y-7741600D01*
X11257600Y-8209600D02*
X11297600Y-8249600D01*
X11297600Y-8209600D02*
X11257600Y-8249600D01*
X11295700Y-9073200D02*
X11335700Y-9113200D01*
X11335700Y-9073200D02*
X11295700Y-9113200D01*
X11366131Y-8151869D02*
X11406131Y-8191869D01*
X11406131Y-8151869D02*
X11366131Y-8191869D01*
X11371900Y-8044500D02*
X11411900Y-8084500D01*
X11411900Y-8044500D02*
X11371900Y-8084500D01*
X11371900Y-9111300D02*
X11411900Y-9151300D01*
X11411900Y-9111300D02*
X11371900Y-9151300D01*
X11435400Y-8577900D02*
X11475400Y-8617900D01*
X11475400Y-8577900D02*
X11435400Y-8617900D01*
X11537000Y-11117900D02*
X11577000Y-11157900D01*
X11577000Y-11117900D02*
X11537000Y-11157900D01*
X11587800Y-11181400D02*
X11627800Y-11221400D01*
X11627800Y-11181400D02*
X11587800Y-11221400D01*
X11664000Y-6799900D02*
X11704000Y-6839900D01*
X11704000Y-6799900D02*
X11664000Y-6839900D01*
X11664000Y-10851200D02*
X11704000Y-10891200D01*
X11704000Y-10851200D02*
X11664000Y-10891200D01*
X12019600Y-11486200D02*
X12059600Y-11526200D01*
X12059600Y-11486200D02*
X12019600Y-11526200D01*
X12036081Y-11071392D02*
X12076081Y-11111392D01*
X12076081Y-11071392D02*
X12036081Y-11111392D01*
X12184700Y-8095300D02*
X12224700Y-8135300D01*
X12224700Y-8095300D02*
X12184700Y-8135300D01*
X12311699Y-11105200D02*
X12351699Y-11145200D01*
X12351699Y-11105200D02*
X12311699Y-11145200D01*
X12349800Y-11829100D02*
X12389800Y-11869100D01*
X12389800Y-11829100D02*
X12349800Y-11869100D01*
X12375200Y-5669600D02*
X12415200Y-5709600D01*
X12415200Y-5669600D02*
X12375200Y-5709600D01*
X12387900Y-10952800D02*
X12427900Y-10992800D01*
X12427900Y-10952800D02*
X12387900Y-10992800D01*
X12426000Y-6838000D02*
X12466000Y-6878000D01*
X12466000Y-6838000D02*
X12426000Y-6878000D01*
X12456479Y-11809926D02*
X12496479Y-11849926D01*
X12496479Y-11809926D02*
X12456479Y-11849926D01*
X12476800Y-5771200D02*
X12516800Y-5811200D01*
X12516800Y-5771200D02*
X12476800Y-5811200D01*
X12502200Y-6215700D02*
X12542200Y-6255700D01*
X12542200Y-6215700D02*
X12502200Y-6255700D01*
X12794300Y-11156000D02*
X12834300Y-11196000D01*
X12834300Y-11156000D02*
X12794300Y-11196000D01*
X12823510Y-11511783D02*
X12863510Y-11551783D01*
X12863510Y-11511783D02*
X12823510Y-11551783D01*
X12832400Y-11689400D02*
X12872400Y-11729400D01*
X12872400Y-11689400D02*
X12832400Y-11729400D01*
X13124500Y-11130600D02*
X13164500Y-11170600D01*
X13164500Y-11130600D02*
X13124500Y-11170600D01*
X13196535Y-6777504D02*
X13236535Y-6817504D01*
X13236535Y-6777504D02*
X13196535Y-6817504D01*
X13238800Y-11029000D02*
X13278800Y-11069000D01*
X13278800Y-11029000D02*
X13238800Y-11069000D01*
X13610873Y-11166175D02*
X13650873Y-11206175D01*
X13650873Y-11166175D02*
X13610873Y-11206175D01*
X13657900Y-10749600D02*
X13697900Y-10789600D01*
X13697900Y-10749600D02*
X13657900Y-10789600D01*
X13709699Y-10817758D02*
X13749699Y-10857758D01*
X13749699Y-10817758D02*
X13709699Y-10857758D01*
X13784900Y-10889300D02*
X13824900Y-10929300D01*
X13824900Y-10889300D02*
X13784900Y-10929300D01*
X13962700Y-11562400D02*
X14002700Y-11602400D01*
X14002700Y-11562400D02*
X13962700Y-11602400D01*
X13975400Y-11359200D02*
X14015400Y-11399200D01*
X14015400Y-11359200D02*
X13975400Y-11399200D01*
X13988100Y-10152700D02*
X14028100Y-10192700D01*
X14028100Y-10152700D02*
X13988100Y-10192700D01*
X13992412Y-11649379D02*
X14032412Y-11689379D01*
X14032412Y-11649379D02*
X13992412Y-11689379D01*
X14056909Y-6703381D02*
X14096909Y-6743381D01*
X14096909Y-6703381D02*
X14056909Y-6743381D01*
X14089700Y-10736900D02*
X14129700Y-10776900D01*
X14129700Y-10736900D02*
X14089700Y-10776900D01*
X14267500Y-11257600D02*
X14307500Y-11297600D01*
X14307500Y-11257600D02*
X14267500Y-11297600D01*
X14496100Y-10127300D02*
X14536100Y-10167300D01*
X14536100Y-10127300D02*
X14496100Y-10167300D01*
X14508800Y-12084099D02*
X14548800Y-12124099D01*
X14548800Y-12084099D02*
X14508800Y-12124099D01*
X14546900Y-10736900D02*
X14586900Y-10776900D01*
X14586900Y-10736900D02*
X14546900Y-10776900D01*
X14661200Y-11664000D02*
X14701200Y-11704000D01*
X14701200Y-11664000D02*
X14661200Y-11704000D01*
X14750100Y-6584000D02*
X14790100Y-6624000D01*
X14790100Y-6584000D02*
X14750100Y-6624000D01*
X14785585Y-5744399D02*
X14825585Y-5784399D01*
X14825585Y-5744399D02*
X14785585Y-5784399D01*
X14813600Y-12146600D02*
X14853600Y-12186600D01*
X14853600Y-12146600D02*
X14813600Y-12186600D01*
X14839000Y-10203500D02*
X14879000Y-10243500D01*
X14879000Y-10203500D02*
X14839000Y-10243500D01*
X14864400Y-6977700D02*
X14904400Y-7017700D01*
X14904400Y-6977700D02*
X14864400Y-7017700D01*
X14889800Y-6850700D02*
X14929800Y-6890700D01*
X14929800Y-6850700D02*
X14889800Y-6890700D01*
X14902500Y-7244400D02*
X14942500Y-7284400D01*
X14942500Y-7244400D02*
X14902500Y-7284400D01*
X14915200Y-10394000D02*
X14955200Y-10434000D01*
X14955200Y-10394000D02*
X14915200Y-10434000D01*
X14927900Y-11473500D02*
X14967900Y-11513500D01*
X14967900Y-11473500D02*
X14927900Y-11513500D01*
X14953300Y-11841800D02*
X14993300Y-11881800D01*
X14993300Y-11841800D02*
X14953300Y-11881800D01*
X14975695Y-6349892D02*
X15015695Y-6389892D01*
X15015695Y-6349892D02*
X14975695Y-6389892D01*
X14991400Y-11359200D02*
X15031400Y-11399200D01*
X15031400Y-11359200D02*
X14991400Y-11399200D01*
X14998067Y-6474893D02*
X15038067Y-6514893D01*
X15038067Y-6474893D02*
X14998067Y-6514893D01*
X15004100Y-10736900D02*
X15044100Y-10776900D01*
X15044100Y-10736900D02*
X15004100Y-10776900D01*
X15021425Y-6975457D02*
X15061425Y-7015457D01*
X15061425Y-6975457D02*
X15021425Y-7015457D01*
X15023950Y-6558600D02*
X15063950Y-6598600D01*
X15063950Y-6558600D02*
X15023950Y-6598600D01*
X15131100Y-10978200D02*
X15171100Y-11018200D01*
X15171100Y-10978200D02*
X15131100Y-11018200D01*
X15232700Y-6203000D02*
X15272700Y-6243000D01*
X15272700Y-6203000D02*
X15232700Y-6243000D01*
X15258100Y-11486200D02*
X15298100Y-11526200D01*
X15298100Y-11486200D02*
X15258100Y-11526200D01*
X15270800Y-6431600D02*
X15310800Y-6471600D01*
X15310800Y-6431600D02*
X15270800Y-6471600D01*
X15275496Y-7166898D02*
X15315496Y-7206898D01*
X15315496Y-7166898D02*
X15275496Y-7206898D01*
X15296200Y-6939600D02*
X15336200Y-6979600D01*
X15336200Y-6939600D02*
X15296200Y-6979600D01*
X15419399Y-7324200D02*
X15459399Y-7364200D01*
X15459399Y-7324200D02*
X15419399Y-7364200D01*
X15435900Y-7942900D02*
X15475900Y-7982900D01*
X15475900Y-7942900D02*
X15435900Y-7982900D01*
X15461300Y-10736900D02*
X15501300Y-10776900D01*
X15501300Y-10736900D02*
X15461300Y-10776900D01*
X15566703Y-7198565D02*
X15606703Y-7238565D01*
X15606703Y-7198565D02*
X15566703Y-7238565D01*
X15575356Y-6697545D02*
X15615356Y-6737545D01*
X15615356Y-6697545D02*
X15575356Y-6737545D01*
X15579401Y-7427969D02*
X15619401Y-7467969D01*
X15619401Y-7427969D02*
X15579401Y-7467969D01*
X15588300Y-10940100D02*
X15628300Y-10980100D01*
X15628300Y-10940100D02*
X15588300Y-10980100D01*
X15640099Y-6952300D02*
X15680099Y-6992300D01*
X15680099Y-6952300D02*
X15640099Y-6992300D01*
X15880400Y-6812600D02*
X15920400Y-6852600D01*
X15920400Y-6812600D02*
X15880400Y-6852600D01*
X15880400Y-7193600D02*
X15920400Y-7233600D01*
X15920400Y-7193600D02*
X15880400Y-7233600D01*
X114300Y-8445500D02*
G75*
G03X114300Y-8445500I-50800J0D01*
G01*
X114300Y-8699500D02*
G75*
G03X114300Y-8699500I-50800J0D01*
G01*
X1574800Y-8026400D02*
G75*
G03X1574800Y-8026400I-50800J0D01*
G01*
X1828800Y-8026400D02*
G75*
G03X1828800Y-8026400I-50800J0D01*
G01*
X5969000Y-5537200D02*
G75*
G03X5969000Y-5537200I-50800J0D01*
G01*
X5969000Y-11988800D02*
G75*
G03X5969000Y-11988800I-50800J0D01*
G01*
X6070600Y-9601200D02*
G75*
G03X6070600Y-9601200I-50800J0D01*
G01*
X6070600Y-9855200D02*
G75*
G03X6070600Y-9855200I-50800J0D01*
G01*
X6070600Y-10337800D02*
G75*
G03X6070600Y-10337800I-50800J0D01*
G01*
X6070600Y-10591800D02*
G75*
G03X6070600Y-10591800I-50800J0D01*
G01*
X6223000Y-5537200D02*
G75*
G03X6223000Y-5537200I-50800J0D01*
G01*
X6223000Y-11988800D02*
G75*
G03X6223000Y-11988800I-50800J0D01*
G01*
X6438900Y-7429500D02*
G75*
G03X6438900Y-7429500I-50800J0D01*
G01*
X6477000Y-5537200D02*
G75*
G03X6477000Y-5537200I-50800J0D01*
G01*
X6477000Y-11988800D02*
G75*
G03X6477000Y-11988800I-50800J0D01*
G01*
X6692900Y-7429500D02*
G75*
G03X6692900Y-7429500I-50800J0D01*
G01*
X6731000Y-5537200D02*
G75*
G03X6731000Y-5537200I-50800J0D01*
G01*
X6731000Y-11988800D02*
G75*
G03X6731000Y-11988800I-50800J0D01*
G01*
X6985000Y-5537200D02*
G75*
G03X6985000Y-5537200I-50800J0D01*
G01*
X6985000Y-11988800D02*
G75*
G03X6985000Y-11988800I-50800J0D01*
G01*
X7239000Y-5537200D02*
G75*
G03X7239000Y-5537200I-50800J0D01*
G01*
X7239000Y-11988800D02*
G75*
G03X7239000Y-11988800I-50800J0D01*
G01*
X7493000Y-5537200D02*
G75*
G03X7493000Y-5537200I-50800J0D01*
G01*
X7493000Y-11988800D02*
G75*
G03X7493000Y-11988800I-50800J0D01*
G01*
X7747000Y-5537200D02*
G75*
G03X7747000Y-5537200I-50800J0D01*
G01*
X7747000Y-11988800D02*
G75*
G03X7747000Y-11988800I-50800J0D01*
G01*
X8432800Y-5537200D02*
G75*
G03X8432800Y-5537200I-50800J0D01*
G01*
X8432800Y-11988800D02*
G75*
G03X8432800Y-11988800I-50800J0D01*
G01*
X8686800Y-5537200D02*
G75*
G03X8686800Y-5537200I-50800J0D01*
G01*
X8686800Y-11988800D02*
G75*
G03X8686800Y-11988800I-50800J0D01*
G01*
X8940800Y-5537200D02*
G75*
G03X8940800Y-5537200I-50800J0D01*
G01*
X8940800Y-11988800D02*
G75*
G03X8940800Y-11988800I-50800J0D01*
G01*
X9194800Y-5537200D02*
G75*
G03X9194800Y-5537200I-50800J0D01*
G01*
X9194800Y-11988800D02*
G75*
G03X9194800Y-11988800I-50800J0D01*
G01*
X9448800Y-5537200D02*
G75*
G03X9448800Y-5537200I-50800J0D01*
G01*
X9448800Y-11988800D02*
G75*
G03X9448800Y-11988800I-50800J0D01*
G01*
X9702800Y-5537200D02*
G75*
G03X9702800Y-5537200I-50800J0D01*
G01*
X9702800Y-11988800D02*
G75*
G03X9702800Y-11988800I-50800J0D01*
G01*
X9766300Y-7112000D02*
G75*
G03X9766300Y-7112000I-50800J0D01*
G01*
X9956800Y-5537200D02*
G75*
G03X9956800Y-5537200I-50800J0D01*
G01*
X9956800Y-11988800D02*
G75*
G03X9956800Y-11988800I-50800J0D01*
G01*
X10020300Y-7112000D02*
G75*
G03X10020300Y-7112000I-50800J0D01*
G01*
X10210800Y-5537200D02*
G75*
G03X10210800Y-5537200I-50800J0D01*
G01*
X10210800Y-11988800D02*
G75*
G03X10210800Y-11988800I-50800J0D01*
G01*
X11938000Y-8432800D02*
G75*
G03X11938000Y-8432800I-50800J0D01*
G01*
X12192000Y-8432800D02*
G75*
G03X12192000Y-8432800I-50800J0D01*
G01*
X16027400Y-8775700D02*
G75*
G03X16027400Y-8775700I-50800J0D01*
G01*
X16027400Y-9029700D02*
G75*
G03X16027400Y-9029700I-50800J0D01*
G01*
X2565400Y-6752200D02*
X2565400Y-6862200D01*
X2510400Y-6807200D02*
X2620400Y-6807200D01*
X2565400Y-7895200D02*
X2565400Y-8005200D01*
X2510400Y-7950200D02*
X2620400Y-7950200D01*
X2921000Y-9508100D02*
X2921000Y-9618100D01*
X2866000Y-9563100D02*
X2976000Y-9563100D01*
X2921000Y-10651100D02*
X2921000Y-10761100D01*
X2866000Y-10706100D02*
X2976000Y-10706100D01*
X3378200Y-6739500D02*
X3378200Y-6849500D01*
X3323200Y-6794500D02*
X3433200Y-6794500D01*
X3378200Y-7882500D02*
X3378200Y-7992500D01*
X3323200Y-7937500D02*
X3433200Y-7937500D01*
X3759200Y-9482700D02*
X3759200Y-9592700D01*
X3704200Y-9537700D02*
X3814200Y-9537700D01*
X3759200Y-10625700D02*
X3759200Y-10735700D01*
X3704200Y-10680700D02*
X3814200Y-10680700D01*
X4191000Y-6739500D02*
X4191000Y-6849500D01*
X4136000Y-6794500D02*
X4246000Y-6794500D01*
X4191000Y-7882500D02*
X4191000Y-7992500D01*
X4136000Y-7937500D02*
X4246000Y-7937500D01*
X4572000Y-9482700D02*
X4572000Y-9592700D01*
X4517000Y-9537700D02*
X4627000Y-9537700D01*
X4572000Y-10625700D02*
X4572000Y-10735700D01*
X4517000Y-10680700D02*
X4627000Y-10680700D01*
X5003800Y-6739500D02*
X5003800Y-6849500D01*
X4948800Y-6794500D02*
X5058800Y-6794500D01*
X5003800Y-7882500D02*
X5003800Y-7992500D01*
X4948800Y-7937500D02*
X5058800Y-7937500D01*
X5384800Y-9482700D02*
X5384800Y-9592700D01*
X5329800Y-9537700D02*
X5439800Y-9537700D01*
X5384800Y-10625700D02*
X5384800Y-10735700D01*
X5329800Y-10680700D02*
X5439800Y-10680700D01*
X11041085Y-9526394D02*
X11041085Y-9636394D01*
X10986085Y-9581394D02*
X11096085Y-9581394D01*
X11041085Y-10669394D02*
X11041085Y-10779394D01*
X10986085Y-10724394D02*
X11096085Y-10724394D01*
X11074400Y-6790300D02*
X11074400Y-6900300D01*
X11019400Y-6845300D02*
X11129400Y-6845300D01*
X11074400Y-7933300D02*
X11074400Y-8043300D01*
X11019400Y-7988300D02*
X11129400Y-7988300D01*
X11868785Y-9526394D02*
X11868785Y-9636394D01*
X11813785Y-9581394D02*
X11923785Y-9581394D01*
X11868785Y-10669394D02*
X11868785Y-10779394D01*
X11813785Y-10724394D02*
X11923785Y-10724394D01*
X11887200Y-6790300D02*
X11887200Y-6900300D01*
X11832200Y-6845300D02*
X11942200Y-6845300D01*
X11887200Y-7933300D02*
X11887200Y-8043300D01*
X11832200Y-7988300D02*
X11942200Y-7988300D01*
X12674135Y-9526394D02*
X12674135Y-9636394D01*
X12619135Y-9581394D02*
X12729135Y-9581394D01*
X12674135Y-10669394D02*
X12674135Y-10779394D01*
X12619135Y-10724394D02*
X12729135Y-10724394D01*
X12700000Y-6790300D02*
X12700000Y-6900300D01*
X12645000Y-6845300D02*
X12755000Y-6845300D01*
X12700000Y-7933300D02*
X12700000Y-8043300D01*
X12645000Y-7988300D02*
X12755000Y-7988300D01*
X13479485Y-9526394D02*
X13479485Y-9636394D01*
X13424485Y-9581394D02*
X13534485Y-9581394D01*
X13479485Y-10669394D02*
X13479485Y-10779394D01*
X13424485Y-10724394D02*
X13534485Y-10724394D01*
X13512800Y-6790300D02*
X13512800Y-6900300D01*
X13457800Y-6845300D02*
X13567800Y-6845300D01*
X13512800Y-7933300D02*
X13512800Y-8043300D01*
X13457800Y-7988300D02*
X13567800Y-7988300D01*
X2605812Y-5831611D02*
X2605812Y-5750788D01*
X2524989Y-5750788D01*
X2524989Y-5831611D01*
X2605812Y-5831611D01*
X2605812Y-6085611D02*
X2605812Y-6004788D01*
X2524989Y-6004788D01*
X2524989Y-6085611D01*
X2605812Y-6085611D01*
X2605812Y-6339611D02*
X2605812Y-6258788D01*
X2524989Y-6258788D01*
X2524989Y-6339611D01*
X2605812Y-6339611D01*
X2961411Y-11241811D02*
X2961411Y-11160989D01*
X2880588Y-11160989D01*
X2880588Y-11241811D01*
X2961411Y-11241811D01*
X2961411Y-11495811D02*
X2961411Y-11414988D01*
X2880588Y-11414988D01*
X2880588Y-11495811D01*
X2961411Y-11495811D01*
X2961411Y-11749811D02*
X2961411Y-11668988D01*
X2880588Y-11668988D01*
X2880588Y-11749811D01*
X2961411Y-11749811D01*
X3418611Y-5831611D02*
X3418611Y-5750788D01*
X3337788Y-5750788D01*
X3337788Y-5831611D01*
X3418611Y-5831611D01*
X3418611Y-6085611D02*
X3418611Y-6004788D01*
X3337788Y-6004788D01*
X3337788Y-6085611D01*
X3418611Y-6085611D01*
X3418611Y-6339611D02*
X3418611Y-6258788D01*
X3337788Y-6258788D01*
X3337788Y-6339611D01*
X3418611Y-6339611D01*
X3799611Y-11241811D02*
X3799611Y-11160989D01*
X3718788Y-11160989D01*
X3718788Y-11241811D01*
X3799611Y-11241811D01*
X3799611Y-11495811D02*
X3799611Y-11414988D01*
X3718788Y-11414988D01*
X3718788Y-11495811D01*
X3799611Y-11495811D01*
X3799611Y-11749811D02*
X3799611Y-11668988D01*
X3718788Y-11668988D01*
X3718788Y-11749811D01*
X3799611Y-11749811D01*
X4231412Y-5831611D02*
X4231412Y-5750788D01*
X4150588Y-5750788D01*
X4150588Y-5831611D01*
X4231412Y-5831611D01*
X4231412Y-6085611D02*
X4231412Y-6004788D01*
X4150588Y-6004788D01*
X4150588Y-6085611D01*
X4231412Y-6085611D01*
X4231412Y-6339611D02*
X4231412Y-6258788D01*
X4150588Y-6258788D01*
X4150588Y-6339611D01*
X4231412Y-6339611D01*
X4612412Y-11241811D02*
X4612412Y-11160989D01*
X4531589Y-11160989D01*
X4531589Y-11241811D01*
X4612412Y-11241811D01*
X4612412Y-11495811D02*
X4612412Y-11414988D01*
X4531589Y-11414988D01*
X4531589Y-11495811D01*
X4612412Y-11495811D01*
X4612412Y-11749811D02*
X4612412Y-11668988D01*
X4531589Y-11668988D01*
X4531589Y-11749811D01*
X4612412Y-11749811D01*
X5044212Y-5831611D02*
X5044212Y-5750788D01*
X4963389Y-5750788D01*
X4963389Y-5831611D01*
X5044212Y-5831611D01*
X5044212Y-6085611D02*
X5044212Y-6004788D01*
X4963389Y-6004788D01*
X4963389Y-6085611D01*
X5044212Y-6085611D01*
X5044212Y-6339611D02*
X5044212Y-6258788D01*
X4963389Y-6258788D01*
X4963389Y-6339611D01*
X5044212Y-6339611D01*
X5425212Y-11241811D02*
X5425212Y-11160989D01*
X5344389Y-11160989D01*
X5344389Y-11241811D01*
X5425212Y-11241811D01*
X5425212Y-11495811D02*
X5425212Y-11414988D01*
X5344389Y-11414988D01*
X5344389Y-11495811D01*
X5425212Y-11495811D01*
X5425212Y-11749811D02*
X5425212Y-11668988D01*
X5344389Y-11668988D01*
X5344389Y-11749811D01*
X5425212Y-11749811D01*
X11081497Y-11310905D02*
X11081497Y-11230082D01*
X11000674Y-11230082D01*
X11000674Y-11310905D01*
X11081497Y-11310905D01*
X11081497Y-11564905D02*
X11081497Y-11484082D01*
X11000674Y-11484082D01*
X11000674Y-11564905D01*
X11081497Y-11564905D01*
X11081497Y-11818905D02*
X11081497Y-11738082D01*
X11000674Y-11738082D01*
X11000674Y-11818905D01*
X11081497Y-11818905D01*
X11114812Y-5844311D02*
X11114812Y-5763488D01*
X11033989Y-5763488D01*
X11033989Y-5844311D01*
X11114812Y-5844311D01*
X11114812Y-6098311D02*
X11114812Y-6017488D01*
X11033989Y-6017488D01*
X11033989Y-6098311D01*
X11114812Y-6098311D01*
X11114812Y-6352311D02*
X11114812Y-6271488D01*
X11033989Y-6271488D01*
X11033989Y-6352311D01*
X11114812Y-6352311D01*
X11894297Y-11310905D02*
X11894297Y-11230082D01*
X11813474Y-11230082D01*
X11813474Y-11310905D01*
X11894297Y-11310905D01*
X11894297Y-11564905D02*
X11894297Y-11484082D01*
X11813474Y-11484082D01*
X11813474Y-11564905D01*
X11894297Y-11564905D01*
X11894297Y-11818905D02*
X11894297Y-11738082D01*
X11813474Y-11738082D01*
X11813474Y-11818905D01*
X11894297Y-11818905D01*
X11936078Y-5844311D02*
X11936078Y-5763488D01*
X11855255Y-5763488D01*
X11855255Y-5844311D01*
X11936078Y-5844311D01*
X11936078Y-6098311D02*
X11936078Y-6017488D01*
X11855255Y-6017488D01*
X11855255Y-6098311D01*
X11936078Y-6098311D01*
X11936078Y-6352311D02*
X11936078Y-6271488D01*
X11855255Y-6271488D01*
X11855255Y-6352311D01*
X11936078Y-6352311D01*
X12707097Y-11310905D02*
X12707097Y-11230082D01*
X12626274Y-11230082D01*
X12626274Y-11310905D01*
X12707097Y-11310905D01*
X12707097Y-11564905D02*
X12707097Y-11484082D01*
X12626274Y-11484082D01*
X12626274Y-11564905D01*
X12707097Y-11564905D01*
X12707097Y-11818905D02*
X12707097Y-11738082D01*
X12626274Y-11738082D01*
X12626274Y-11818905D01*
X12707097Y-11818905D01*
X12757345Y-5844311D02*
X12757345Y-5763488D01*
X12676522Y-5763488D01*
X12676522Y-5844311D01*
X12757345Y-5844311D01*
X12757345Y-6098311D02*
X12757345Y-6017488D01*
X12676522Y-6017488D01*
X12676522Y-6098311D01*
X12757345Y-6098311D01*
X12757345Y-6352311D02*
X12757345Y-6271488D01*
X12676522Y-6271488D01*
X12676522Y-6352311D01*
X12757345Y-6352311D01*
X13519897Y-11310905D02*
X13519897Y-11230082D01*
X13439074Y-11230082D01*
X13439074Y-11310905D01*
X13519897Y-11310905D01*
X13519897Y-11564905D02*
X13519897Y-11484082D01*
X13439074Y-11484082D01*
X13439074Y-11564905D01*
X13519897Y-11564905D01*
X13519897Y-11818905D02*
X13519897Y-11738082D01*
X13439074Y-11738082D01*
X13439074Y-11818905D01*
X13519897Y-11818905D01*
X13578611Y-5844311D02*
X13578611Y-5763488D01*
X13497788Y-5763488D01*
X13497788Y-5844311D01*
X13578611Y-5844311D01*
X13578611Y-6098311D02*
X13578611Y-6017488D01*
X13497788Y-6017488D01*
X13497788Y-6098311D01*
X13578611Y-6098311D01*
X13578611Y-6352311D02*
X13578611Y-6271488D01*
X13497788Y-6271488D01*
X13497788Y-6352311D01*
X13578611Y-6352311D01*
X7425600Y-6844000D02*
X7560600Y-6709000D01*
X7425600Y-6574000D01*
X7290600Y-6709000D01*
X7425600Y-6844000D01*
X7425600Y-7924000D02*
X7560600Y-7789000D01*
X7425600Y-7654000D01*
X7290600Y-7789000D01*
X7425600Y-7924000D01*
X7476400Y-9841200D02*
X7611400Y-9706200D01*
X7476400Y-9571200D01*
X7341400Y-9706200D01*
X7476400Y-9841200D01*
X7476400Y-10921200D02*
X7611400Y-10786200D01*
X7476400Y-10651200D01*
X7341400Y-10786200D01*
X7476400Y-10921200D01*
X7946600Y-6844000D02*
X8081600Y-6709000D01*
X7946600Y-6574000D01*
X7811600Y-6709000D01*
X7946600Y-6844000D01*
X7946600Y-7924000D02*
X8081600Y-7789000D01*
X7946600Y-7654000D01*
X7811600Y-7789000D01*
X7946600Y-7924000D01*
X7997400Y-9841200D02*
X8132400Y-9706200D01*
X7997400Y-9571200D01*
X7862400Y-9706200D01*
X7997400Y-9841200D01*
X7997400Y-10921200D02*
X8132400Y-10786200D01*
X7997400Y-10651200D01*
X7862400Y-10786200D01*
X7997400Y-10921200D01*
X8467600Y-6844000D02*
X8602600Y-6709000D01*
X8467600Y-6574000D01*
X8332600Y-6709000D01*
X8467600Y-6844000D01*
X8467600Y-7924000D02*
X8602600Y-7789000D01*
X8467600Y-7654000D01*
X8332600Y-7789000D01*
X8467600Y-7924000D01*
X8518400Y-9841200D02*
X8653400Y-9706200D01*
X8518400Y-9571200D01*
X8383400Y-9706200D01*
X8518400Y-9841200D01*
X8518400Y-10921200D02*
X8653400Y-10786200D01*
X8518400Y-10651200D01*
X8383400Y-10786200D01*
X8518400Y-10921200D01*
D13*
X-1069572Y-13300214D02*
X-1069572Y-13000214D01*
X-998143Y-13000214D01*
X-955286Y-13014500D01*
X-926714Y-13043071D01*
X-912429Y-13071643D01*
X-898143Y-13128786D01*
X-898143Y-13171643D01*
X-912429Y-13228786D01*
X-926714Y-13257357D01*
X-955286Y-13285929D01*
X-998143Y-13300214D01*
X-1069572Y-13300214D01*
X-769571Y-13300214D02*
X-769571Y-13100214D01*
X-769571Y-13157357D02*
X-755286Y-13128786D01*
X-741000Y-13114500D01*
X-712429Y-13100214D01*
X-683857Y-13100214D01*
X-583857Y-13300214D02*
X-583857Y-13100214D01*
X-583857Y-13000214D02*
X-598143Y-13014500D01*
X-583857Y-13028786D01*
X-569572Y-13014500D01*
X-583857Y-13000214D01*
X-583857Y-13028786D01*
X-398143Y-13300214D02*
X-426714Y-13285929D01*
X-441000Y-13257357D01*
X-441000Y-13000214D01*
X-241000Y-13300214D02*
X-269572Y-13285929D01*
X-283857Y-13257357D01*
X-283857Y-13000214D01*
X101857Y-13300214D02*
X101857Y-13000214D01*
X201857Y-13214500D01*
X301857Y-13000214D01*
X301857Y-13300214D01*
X573286Y-13300214D02*
X573286Y-13143071D01*
X559000Y-13114500D01*
X530429Y-13100214D01*
X473286Y-13100214D01*
X444714Y-13114500D01*
X573286Y-13285929D02*
X544714Y-13300214D01*
X473286Y-13300214D01*
X444714Y-13285929D01*
X430428Y-13257357D01*
X430428Y-13228786D01*
X444714Y-13200214D01*
X473286Y-13185929D01*
X544714Y-13185929D01*
X573286Y-13171643D01*
X716143Y-13100214D02*
X716143Y-13400214D01*
X716143Y-13114500D02*
X744714Y-13100214D01*
X801857Y-13100214D01*
X830428Y-13114500D01*
X844714Y-13128786D01*
X859000Y-13157357D01*
X859000Y-13243071D01*
X844714Y-13271643D01*
X830428Y-13285929D01*
X801857Y-13300214D01*
X744714Y-13300214D01*
X716143Y-13285929D01*
X987571Y-13271643D02*
X1001857Y-13285929D01*
X987571Y-13300214D01*
X973286Y-13285929D01*
X987571Y-13271643D01*
X987571Y-13300214D01*
X987571Y-13114500D02*
X1001857Y-13128786D01*
X987571Y-13143071D01*
X973286Y-13128786D01*
X987571Y-13114500D01*
X987571Y-13143071D01*
X-1381000Y-13774500D02*
X-1341000Y-13814500D01*
X-1341000Y-13774500D02*
X-1381000Y-13814500D01*
X-1012429Y-13630214D02*
X-983857Y-13630214D01*
X-955286Y-13644500D01*
X-941000Y-13658786D01*
X-926714Y-13687357D01*
X-912429Y-13744500D01*
X-912429Y-13815929D01*
X-926714Y-13873071D01*
X-941000Y-13901643D01*
X-955286Y-13915929D01*
X-983857Y-13930214D01*
X-1012429Y-13930214D01*
X-1041000Y-13915929D01*
X-1055286Y-13901643D01*
X-1069572Y-13873071D01*
X-1083857Y-13815929D01*
X-1083857Y-13744500D01*
X-1069572Y-13687357D01*
X-1055286Y-13658786D01*
X-1041000Y-13644500D01*
X-1012429Y-13630214D01*
X-783857Y-13901643D02*
X-769571Y-13915929D01*
X-783857Y-13930214D01*
X-798143Y-13915929D01*
X-783857Y-13901643D01*
X-783857Y-13930214D01*
X-512429Y-13730214D02*
X-512429Y-13930214D01*
X-583857Y-13615929D02*
X-655286Y-13830214D01*
X-469572Y-13830214D01*
X-298143Y-13630214D02*
X-269572Y-13630214D01*
X-241000Y-13644500D01*
X-226714Y-13658786D01*
X-212429Y-13687357D01*
X-198143Y-13744500D01*
X-198143Y-13815929D01*
X-212429Y-13873071D01*
X-226714Y-13901643D01*
X-241000Y-13915929D01*
X-269572Y-13930214D01*
X-298143Y-13930214D01*
X-326714Y-13915929D01*
X-341000Y-13901643D01*
X-355286Y-13873071D01*
X-369571Y-13815929D01*
X-369571Y-13744500D01*
X-355286Y-13687357D01*
X-341000Y-13658786D01*
X-326714Y-13644500D01*
X-298143Y-13630214D01*
X-69572Y-13930214D02*
X-69572Y-13730214D01*
X-69572Y-13758786D02*
X-55286Y-13744500D01*
X-26714Y-13730214D01*
X16143Y-13730214D01*
X44714Y-13744500D01*
X59000Y-13773071D01*
X59000Y-13930214D01*
X59000Y-13773071D02*
X73286Y-13744500D01*
X101857Y-13730214D01*
X144714Y-13730214D01*
X173286Y-13744500D01*
X187571Y-13773071D01*
X187571Y-13930214D01*
X330429Y-13930214D02*
X330429Y-13730214D01*
X330429Y-13758786D02*
X344714Y-13744500D01*
X373286Y-13730214D01*
X416143Y-13730214D01*
X444714Y-13744500D01*
X459000Y-13773071D01*
X459000Y-13930214D01*
X459000Y-13773071D02*
X473286Y-13744500D01*
X501857Y-13730214D01*
X544714Y-13730214D01*
X573286Y-13744500D01*
X587571Y-13773071D01*
X587571Y-13930214D01*
X1173286Y-13615929D02*
X916143Y-14001643D01*
X1559000Y-13630214D02*
X1587571Y-13630214D01*
X1616143Y-13644500D01*
X1630428Y-13658786D01*
X1644714Y-13687357D01*
X1659000Y-13744500D01*
X1659000Y-13815929D01*
X1644714Y-13873071D01*
X1630428Y-13901643D01*
X1616143Y-13915929D01*
X1587571Y-13930214D01*
X1559000Y-13930214D01*
X1530428Y-13915929D01*
X1516143Y-13901643D01*
X1501857Y-13873071D01*
X1487571Y-13815929D01*
X1487571Y-13744500D01*
X1501857Y-13687357D01*
X1516143Y-13658786D01*
X1530428Y-13644500D01*
X1559000Y-13630214D01*
X1787571Y-13901643D02*
X1801857Y-13915929D01*
X1787571Y-13930214D01*
X1773286Y-13915929D01*
X1787571Y-13901643D01*
X1787571Y-13930214D01*
X1987571Y-13630214D02*
X2016143Y-13630214D01*
X2044714Y-13644500D01*
X2059000Y-13658786D01*
X2073285Y-13687357D01*
X2087571Y-13744500D01*
X2087571Y-13815929D01*
X2073285Y-13873071D01*
X2059000Y-13901643D01*
X2044714Y-13915929D01*
X2016143Y-13930214D01*
X1987571Y-13930214D01*
X1959000Y-13915929D01*
X1944714Y-13901643D01*
X1930428Y-13873071D01*
X1916143Y-13815929D01*
X1916143Y-13744500D01*
X1930428Y-13687357D01*
X1944714Y-13658786D01*
X1959000Y-13644500D01*
X1987571Y-13630214D01*
X2373286Y-13930214D02*
X2201857Y-13930214D01*
X2287571Y-13930214D02*
X2287571Y-13630214D01*
X2259000Y-13673071D01*
X2230428Y-13701643D01*
X2201857Y-13715929D01*
X2630428Y-13630214D02*
X2573286Y-13630214D01*
X2544714Y-13644500D01*
X2530428Y-13658786D01*
X2501857Y-13701643D01*
X2487571Y-13758786D01*
X2487571Y-13873071D01*
X2501857Y-13901643D01*
X2516143Y-13915929D01*
X2544714Y-13930214D01*
X2601857Y-13930214D01*
X2630428Y-13915929D01*
X2644714Y-13901643D01*
X2659000Y-13873071D01*
X2659000Y-13801643D01*
X2644714Y-13773071D01*
X2630428Y-13758786D01*
X2601857Y-13744500D01*
X2544714Y-13744500D01*
X2516143Y-13758786D01*
X2501857Y-13773071D01*
X2487571Y-13801643D01*
X2773286Y-13630214D02*
X2773286Y-13687357D01*
X2887571Y-13630214D02*
X2887571Y-13687357D01*
X3330428Y-14044500D02*
X3316143Y-14030214D01*
X3287571Y-13987357D01*
X3273285Y-13958786D01*
X3259000Y-13915929D01*
X3244714Y-13844500D01*
X3244714Y-13787357D01*
X3259000Y-13715929D01*
X3273285Y-13673071D01*
X3287571Y-13644500D01*
X3316143Y-13601643D01*
X3330428Y-13587357D01*
X3430428Y-13658786D02*
X3444714Y-13644500D01*
X3473285Y-13630214D01*
X3544714Y-13630214D01*
X3573285Y-13644500D01*
X3587571Y-13658786D01*
X3601857Y-13687357D01*
X3601857Y-13715929D01*
X3587571Y-13758786D01*
X3416143Y-13930214D01*
X3601857Y-13930214D01*
X3701857Y-13630214D02*
X3887571Y-13630214D01*
X3787571Y-13744500D01*
X3830428Y-13744500D01*
X3859000Y-13758786D01*
X3873285Y-13773071D01*
X3887571Y-13801643D01*
X3887571Y-13873071D01*
X3873285Y-13901643D01*
X3859000Y-13915929D01*
X3830428Y-13930214D01*
X3744714Y-13930214D01*
X3716143Y-13915929D01*
X3701857Y-13901643D01*
X4059000Y-13758786D02*
X4030428Y-13744500D01*
X4016143Y-13730214D01*
X4001857Y-13701643D01*
X4001857Y-13687357D01*
X4016143Y-13658786D01*
X4030428Y-13644500D01*
X4059000Y-13630214D01*
X4116143Y-13630214D01*
X4144714Y-13644500D01*
X4159000Y-13658786D01*
X4173285Y-13687357D01*
X4173285Y-13701643D01*
X4159000Y-13730214D01*
X4144714Y-13744500D01*
X4116143Y-13758786D01*
X4059000Y-13758786D01*
X4030428Y-13773071D01*
X4016143Y-13787357D01*
X4001857Y-13815929D01*
X4001857Y-13873071D01*
X4016143Y-13901643D01*
X4030428Y-13915929D01*
X4059000Y-13930214D01*
X4116143Y-13930214D01*
X4144714Y-13915929D01*
X4159000Y-13901643D01*
X4173285Y-13873071D01*
X4173285Y-13815929D01*
X4159000Y-13787357D01*
X4144714Y-13773071D01*
X4116143Y-13758786D01*
X4530428Y-13930214D02*
X4530428Y-13630214D01*
X4659000Y-13930214D02*
X4659000Y-13773071D01*
X4644714Y-13744500D01*
X4616143Y-13730214D01*
X4573286Y-13730214D01*
X4544714Y-13744500D01*
X4530428Y-13758786D01*
X4844714Y-13930214D02*
X4816143Y-13915929D01*
X4801857Y-13901643D01*
X4787571Y-13873071D01*
X4787571Y-13787357D01*
X4801857Y-13758786D01*
X4816143Y-13744500D01*
X4844714Y-13730214D01*
X4887571Y-13730214D01*
X4916143Y-13744500D01*
X4930428Y-13758786D01*
X4944714Y-13787357D01*
X4944714Y-13873071D01*
X4930428Y-13901643D01*
X4916143Y-13915929D01*
X4887571Y-13930214D01*
X4844714Y-13930214D01*
X5116143Y-13930214D02*
X5087571Y-13915929D01*
X5073286Y-13887357D01*
X5073286Y-13630214D01*
X5344714Y-13915929D02*
X5316143Y-13930214D01*
X5259000Y-13930214D01*
X5230429Y-13915929D01*
X5216143Y-13887357D01*
X5216143Y-13773071D01*
X5230429Y-13744500D01*
X5259000Y-13730214D01*
X5316143Y-13730214D01*
X5344714Y-13744500D01*
X5359000Y-13773071D01*
X5359000Y-13801643D01*
X5216143Y-13830214D01*
X5473286Y-13915929D02*
X5501857Y-13930214D01*
X5559000Y-13930214D01*
X5587571Y-13915929D01*
X5601857Y-13887357D01*
X5601857Y-13873071D01*
X5587571Y-13844500D01*
X5559000Y-13830214D01*
X5516143Y-13830214D01*
X5487571Y-13815929D01*
X5473286Y-13787357D01*
X5473286Y-13773071D01*
X5487571Y-13744500D01*
X5516143Y-13730214D01*
X5559000Y-13730214D01*
X5587571Y-13744500D01*
X5701857Y-14044500D02*
X5716143Y-14030214D01*
X5744714Y-13987357D01*
X5759000Y-13958786D01*
X5773286Y-13915929D01*
X5787571Y-13844500D01*
X5787571Y-13787357D01*
X5773286Y-13715929D01*
X5759000Y-13673071D01*
X5744714Y-13644500D01*
X5716143Y-13601643D01*
X5701857Y-13587357D01*
X-1341000Y-14190500D02*
G75*
G03X-1341000Y-14190500I-50800J0D01*
G01*
X-912429Y-14326214D02*
X-1083857Y-14326214D01*
X-998143Y-14326214D02*
X-998143Y-14026214D01*
X-1026714Y-14069071D01*
X-1055286Y-14097643D01*
X-1083857Y-14111929D01*
X-783857Y-14297643D02*
X-769571Y-14311929D01*
X-783857Y-14326214D01*
X-798143Y-14311929D01*
X-783857Y-14297643D01*
X-783857Y-14326214D01*
X-583857Y-14026214D02*
X-555286Y-14026214D01*
X-526714Y-14040500D01*
X-512429Y-14054786D01*
X-498143Y-14083357D01*
X-483857Y-14140500D01*
X-483857Y-14211929D01*
X-498143Y-14269071D01*
X-512429Y-14297643D01*
X-526714Y-14311929D01*
X-555286Y-14326214D01*
X-583857Y-14326214D01*
X-612429Y-14311929D01*
X-626714Y-14297643D01*
X-641000Y-14269071D01*
X-655286Y-14211929D01*
X-655286Y-14140500D01*
X-641000Y-14083357D01*
X-626714Y-14054786D01*
X-612429Y-14040500D01*
X-583857Y-14026214D01*
X-369571Y-14054786D02*
X-355286Y-14040500D01*
X-326714Y-14026214D01*
X-255286Y-14026214D01*
X-226714Y-14040500D01*
X-212429Y-14054786D01*
X-198143Y-14083357D01*
X-198143Y-14111929D01*
X-212429Y-14154786D01*
X-383857Y-14326214D01*
X-198143Y-14326214D01*
X-69572Y-14326214D02*
X-69572Y-14126214D01*
X-69572Y-14154786D02*
X-55286Y-14140500D01*
X-26714Y-14126214D01*
X16143Y-14126214D01*
X44714Y-14140500D01*
X59000Y-14169071D01*
X59000Y-14326214D01*
X59000Y-14169071D02*
X73286Y-14140500D01*
X101857Y-14126214D01*
X144714Y-14126214D01*
X173286Y-14140500D01*
X187571Y-14169071D01*
X187571Y-14326214D01*
X330429Y-14326214D02*
X330429Y-14126214D01*
X330429Y-14154786D02*
X344714Y-14140500D01*
X373286Y-14126214D01*
X416143Y-14126214D01*
X444714Y-14140500D01*
X459000Y-14169071D01*
X459000Y-14326214D01*
X459000Y-14169071D02*
X473286Y-14140500D01*
X501857Y-14126214D01*
X544714Y-14126214D01*
X573286Y-14140500D01*
X587571Y-14169071D01*
X587571Y-14326214D01*
X1173286Y-14011929D02*
X916143Y-14397643D01*
X1559000Y-14026214D02*
X1587571Y-14026214D01*
X1616143Y-14040500D01*
X1630428Y-14054786D01*
X1644714Y-14083357D01*
X1659000Y-14140500D01*
X1659000Y-14211929D01*
X1644714Y-14269071D01*
X1630428Y-14297643D01*
X1616143Y-14311929D01*
X1587571Y-14326214D01*
X1559000Y-14326214D01*
X1530428Y-14311929D01*
X1516143Y-14297643D01*
X1501857Y-14269071D01*
X1487571Y-14211929D01*
X1487571Y-14140500D01*
X1501857Y-14083357D01*
X1516143Y-14054786D01*
X1530428Y-14040500D01*
X1559000Y-14026214D01*
X1787571Y-14297643D02*
X1801857Y-14311929D01*
X1787571Y-14326214D01*
X1773286Y-14311929D01*
X1787571Y-14297643D01*
X1787571Y-14326214D01*
X1987571Y-14026214D02*
X2016143Y-14026214D01*
X2044714Y-14040500D01*
X2059000Y-14054786D01*
X2073285Y-14083357D01*
X2087571Y-14140500D01*
X2087571Y-14211929D01*
X2073285Y-14269071D01*
X2059000Y-14297643D01*
X2044714Y-14311929D01*
X2016143Y-14326214D01*
X1987571Y-14326214D01*
X1959000Y-14311929D01*
X1944714Y-14297643D01*
X1930428Y-14269071D01*
X1916143Y-14211929D01*
X1916143Y-14140500D01*
X1930428Y-14083357D01*
X1944714Y-14054786D01*
X1959000Y-14040500D01*
X1987571Y-14026214D01*
X2344714Y-14126214D02*
X2344714Y-14326214D01*
X2273286Y-14011929D02*
X2201857Y-14226214D01*
X2387571Y-14226214D01*
X2559000Y-14026214D02*
X2587571Y-14026214D01*
X2616143Y-14040500D01*
X2630428Y-14054786D01*
X2644714Y-14083357D01*
X2659000Y-14140500D01*
X2659000Y-14211929D01*
X2644714Y-14269071D01*
X2630428Y-14297643D01*
X2616143Y-14311929D01*
X2587571Y-14326214D01*
X2559000Y-14326214D01*
X2530428Y-14311929D01*
X2516143Y-14297643D01*
X2501857Y-14269071D01*
X2487571Y-14211929D01*
X2487571Y-14140500D01*
X2501857Y-14083357D01*
X2516143Y-14054786D01*
X2530428Y-14040500D01*
X2559000Y-14026214D01*
X2773286Y-14026214D02*
X2773286Y-14083357D01*
X2887571Y-14026214D02*
X2887571Y-14083357D01*
X3330428Y-14440500D02*
X3316143Y-14426214D01*
X3287571Y-14383357D01*
X3273285Y-14354786D01*
X3259000Y-14311929D01*
X3244714Y-14240500D01*
X3244714Y-14183357D01*
X3259000Y-14111929D01*
X3273285Y-14069071D01*
X3287571Y-14040500D01*
X3316143Y-13997643D01*
X3330428Y-13983357D01*
X3573285Y-14126214D02*
X3573285Y-14326214D01*
X3501857Y-14011929D02*
X3430428Y-14226214D01*
X3616143Y-14226214D01*
X3773285Y-14154786D02*
X3744714Y-14140500D01*
X3730428Y-14126214D01*
X3716143Y-14097643D01*
X3716143Y-14083357D01*
X3730428Y-14054786D01*
X3744714Y-14040500D01*
X3773285Y-14026214D01*
X3830428Y-14026214D01*
X3859000Y-14040500D01*
X3873285Y-14054786D01*
X3887571Y-14083357D01*
X3887571Y-14097643D01*
X3873285Y-14126214D01*
X3859000Y-14140500D01*
X3830428Y-14154786D01*
X3773285Y-14154786D01*
X3744714Y-14169071D01*
X3730428Y-14183357D01*
X3716143Y-14211929D01*
X3716143Y-14269071D01*
X3730428Y-14297643D01*
X3744714Y-14311929D01*
X3773285Y-14326214D01*
X3830428Y-14326214D01*
X3859000Y-14311929D01*
X3873285Y-14297643D01*
X3887571Y-14269071D01*
X3887571Y-14211929D01*
X3873285Y-14183357D01*
X3859000Y-14169071D01*
X3830428Y-14154786D01*
X4244714Y-14326214D02*
X4244714Y-14026214D01*
X4373286Y-14326214D02*
X4373286Y-14169071D01*
X4359000Y-14140500D01*
X4330428Y-14126214D01*
X4287571Y-14126214D01*
X4259000Y-14140500D01*
X4244714Y-14154786D01*
X4559000Y-14326214D02*
X4530428Y-14311929D01*
X4516143Y-14297643D01*
X4501857Y-14269071D01*
X4501857Y-14183357D01*
X4516143Y-14154786D01*
X4530428Y-14140500D01*
X4559000Y-14126214D01*
X4601857Y-14126214D01*
X4630428Y-14140500D01*
X4644714Y-14154786D01*
X4659000Y-14183357D01*
X4659000Y-14269071D01*
X4644714Y-14297643D01*
X4630428Y-14311929D01*
X4601857Y-14326214D01*
X4559000Y-14326214D01*
X4830428Y-14326214D02*
X4801857Y-14311929D01*
X4787571Y-14283357D01*
X4787571Y-14026214D01*
X5059000Y-14311929D02*
X5030429Y-14326214D01*
X4973286Y-14326214D01*
X4944714Y-14311929D01*
X4930429Y-14283357D01*
X4930429Y-14169071D01*
X4944714Y-14140500D01*
X4973286Y-14126214D01*
X5030429Y-14126214D01*
X5059000Y-14140500D01*
X5073286Y-14169071D01*
X5073286Y-14197643D01*
X4930429Y-14226214D01*
X5187571Y-14311929D02*
X5216143Y-14326214D01*
X5273286Y-14326214D01*
X5301857Y-14311929D01*
X5316143Y-14283357D01*
X5316143Y-14269071D01*
X5301857Y-14240500D01*
X5273286Y-14226214D01*
X5230429Y-14226214D01*
X5201857Y-14211929D01*
X5187571Y-14183357D01*
X5187571Y-14169071D01*
X5201857Y-14140500D01*
X5230429Y-14126214D01*
X5273286Y-14126214D01*
X5301857Y-14140500D01*
X5416143Y-14440500D02*
X5430429Y-14426214D01*
X5459000Y-14383357D01*
X5473286Y-14354786D01*
X5487571Y-14311929D01*
X5501857Y-14240500D01*
X5501857Y-14183357D01*
X5487571Y-14111929D01*
X5473286Y-14069071D01*
X5459000Y-14040500D01*
X5430429Y-13997643D01*
X5416143Y-13983357D01*
X-1396000Y-14531500D02*
X-1396000Y-14641500D01*
X-1451000Y-14586500D02*
X-1341000Y-14586500D01*
X-912429Y-14722214D02*
X-1083857Y-14722214D01*
X-998143Y-14722214D02*
X-998143Y-14422214D01*
X-1026714Y-14465071D01*
X-1055286Y-14493643D01*
X-1083857Y-14507929D01*
X-783857Y-14693643D02*
X-769571Y-14707929D01*
X-783857Y-14722214D01*
X-798143Y-14707929D01*
X-783857Y-14693643D01*
X-783857Y-14722214D01*
X-483857Y-14722214D02*
X-655286Y-14722214D01*
X-569572Y-14722214D02*
X-569572Y-14422214D01*
X-598143Y-14465071D01*
X-626714Y-14493643D01*
X-655286Y-14507929D01*
X-298143Y-14422214D02*
X-269572Y-14422214D01*
X-241000Y-14436500D01*
X-226714Y-14450786D01*
X-212429Y-14479357D01*
X-198143Y-14536500D01*
X-198143Y-14607929D01*
X-212429Y-14665071D01*
X-226714Y-14693643D01*
X-241000Y-14707929D01*
X-269572Y-14722214D01*
X-298143Y-14722214D01*
X-326714Y-14707929D01*
X-341000Y-14693643D01*
X-355286Y-14665071D01*
X-369571Y-14607929D01*
X-369571Y-14536500D01*
X-355286Y-14479357D01*
X-341000Y-14450786D01*
X-326714Y-14436500D01*
X-298143Y-14422214D01*
X-69572Y-14722214D02*
X-69572Y-14522214D01*
X-69572Y-14550786D02*
X-55286Y-14536500D01*
X-26714Y-14522214D01*
X16143Y-14522214D01*
X44714Y-14536500D01*
X59000Y-14565071D01*
X59000Y-14722214D01*
X59000Y-14565071D02*
X73286Y-14536500D01*
X101857Y-14522214D01*
X144714Y-14522214D01*
X173286Y-14536500D01*
X187571Y-14565071D01*
X187571Y-14722214D01*
X330429Y-14722214D02*
X330429Y-14522214D01*
X330429Y-14550786D02*
X344714Y-14536500D01*
X373286Y-14522214D01*
X416143Y-14522214D01*
X444714Y-14536500D01*
X459000Y-14565071D01*
X459000Y-14722214D01*
X459000Y-14565071D02*
X473286Y-14536500D01*
X501857Y-14522214D01*
X544714Y-14522214D01*
X573286Y-14536500D01*
X587571Y-14565071D01*
X587571Y-14722214D01*
X1173286Y-14407929D02*
X916143Y-14793643D01*
X1559000Y-14422214D02*
X1587571Y-14422214D01*
X1616143Y-14436500D01*
X1630428Y-14450786D01*
X1644714Y-14479357D01*
X1659000Y-14536500D01*
X1659000Y-14607929D01*
X1644714Y-14665071D01*
X1630428Y-14693643D01*
X1616143Y-14707929D01*
X1587571Y-14722214D01*
X1559000Y-14722214D01*
X1530428Y-14707929D01*
X1516143Y-14693643D01*
X1501857Y-14665071D01*
X1487571Y-14607929D01*
X1487571Y-14536500D01*
X1501857Y-14479357D01*
X1516143Y-14450786D01*
X1530428Y-14436500D01*
X1559000Y-14422214D01*
X1787571Y-14693643D02*
X1801857Y-14707929D01*
X1787571Y-14722214D01*
X1773286Y-14707929D01*
X1787571Y-14693643D01*
X1787571Y-14722214D01*
X1987571Y-14422214D02*
X2016143Y-14422214D01*
X2044714Y-14436500D01*
X2059000Y-14450786D01*
X2073285Y-14479357D01*
X2087571Y-14536500D01*
X2087571Y-14607929D01*
X2073285Y-14665071D01*
X2059000Y-14693643D01*
X2044714Y-14707929D01*
X2016143Y-14722214D01*
X1987571Y-14722214D01*
X1959000Y-14707929D01*
X1944714Y-14693643D01*
X1930428Y-14665071D01*
X1916143Y-14607929D01*
X1916143Y-14536500D01*
X1930428Y-14479357D01*
X1944714Y-14450786D01*
X1959000Y-14436500D01*
X1987571Y-14422214D01*
X2344714Y-14522214D02*
X2344714Y-14722214D01*
X2273286Y-14407929D02*
X2201857Y-14622214D01*
X2387571Y-14622214D01*
X2473286Y-14422214D02*
X2659000Y-14422214D01*
X2559000Y-14536500D01*
X2601857Y-14536500D01*
X2630428Y-14550786D01*
X2644714Y-14565071D01*
X2659000Y-14593643D01*
X2659000Y-14665071D01*
X2644714Y-14693643D01*
X2630428Y-14707929D01*
X2601857Y-14722214D01*
X2516143Y-14722214D01*
X2487571Y-14707929D01*
X2473286Y-14693643D01*
X2773286Y-14422214D02*
X2773286Y-14479357D01*
X2887571Y-14422214D02*
X2887571Y-14479357D01*
X3330428Y-14836500D02*
X3316143Y-14822214D01*
X3287571Y-14779357D01*
X3273285Y-14750786D01*
X3259000Y-14707929D01*
X3244714Y-14636500D01*
X3244714Y-14579357D01*
X3259000Y-14507929D01*
X3273285Y-14465071D01*
X3287571Y-14436500D01*
X3316143Y-14393643D01*
X3330428Y-14379357D01*
X3416143Y-14422214D02*
X3601857Y-14422214D01*
X3501857Y-14536500D01*
X3544714Y-14536500D01*
X3573285Y-14550786D01*
X3587571Y-14565071D01*
X3601857Y-14593643D01*
X3601857Y-14665071D01*
X3587571Y-14693643D01*
X3573285Y-14707929D01*
X3544714Y-14722214D01*
X3459000Y-14722214D01*
X3430428Y-14707929D01*
X3416143Y-14693643D01*
X3716143Y-14450786D02*
X3730428Y-14436500D01*
X3759000Y-14422214D01*
X3830428Y-14422214D01*
X3859000Y-14436500D01*
X3873285Y-14450786D01*
X3887571Y-14479357D01*
X3887571Y-14507929D01*
X3873285Y-14550786D01*
X3701857Y-14722214D01*
X3887571Y-14722214D01*
X4244714Y-14722214D02*
X4244714Y-14422214D01*
X4373286Y-14722214D02*
X4373286Y-14565071D01*
X4359000Y-14536500D01*
X4330428Y-14522214D01*
X4287571Y-14522214D01*
X4259000Y-14536500D01*
X4244714Y-14550786D01*
X4559000Y-14722214D02*
X4530428Y-14707929D01*
X4516143Y-14693643D01*
X4501857Y-14665071D01*
X4501857Y-14579357D01*
X4516143Y-14550786D01*
X4530428Y-14536500D01*
X4559000Y-14522214D01*
X4601857Y-14522214D01*
X4630428Y-14536500D01*
X4644714Y-14550786D01*
X4659000Y-14579357D01*
X4659000Y-14665071D01*
X4644714Y-14693643D01*
X4630428Y-14707929D01*
X4601857Y-14722214D01*
X4559000Y-14722214D01*
X4830428Y-14722214D02*
X4801857Y-14707929D01*
X4787571Y-14679357D01*
X4787571Y-14422214D01*
X5059000Y-14707929D02*
X5030429Y-14722214D01*
X4973286Y-14722214D01*
X4944714Y-14707929D01*
X4930429Y-14679357D01*
X4930429Y-14565071D01*
X4944714Y-14536500D01*
X4973286Y-14522214D01*
X5030429Y-14522214D01*
X5059000Y-14536500D01*
X5073286Y-14565071D01*
X5073286Y-14593643D01*
X4930429Y-14622214D01*
X5187571Y-14707929D02*
X5216143Y-14722214D01*
X5273286Y-14722214D01*
X5301857Y-14707929D01*
X5316143Y-14679357D01*
X5316143Y-14665071D01*
X5301857Y-14636500D01*
X5273286Y-14622214D01*
X5230429Y-14622214D01*
X5201857Y-14607929D01*
X5187571Y-14579357D01*
X5187571Y-14565071D01*
X5201857Y-14536500D01*
X5230429Y-14522214D01*
X5273286Y-14522214D01*
X5301857Y-14536500D01*
X5416143Y-14836500D02*
X5430429Y-14822214D01*
X5459000Y-14779357D01*
X5473286Y-14750786D01*
X5487571Y-14707929D01*
X5501857Y-14636500D01*
X5501857Y-14579357D01*
X5487571Y-14507929D01*
X5473286Y-14465071D01*
X5459000Y-14436500D01*
X5430429Y-14393643D01*
X5416143Y-14379357D01*
X-1357739Y-15022912D02*
X-1357739Y-14942089D01*
X-1438562Y-14942089D01*
X-1438562Y-15022912D01*
X-1357739Y-15022912D01*
X-912429Y-15118214D02*
X-1083857Y-15118214D01*
X-998143Y-15118214D02*
X-998143Y-14818214D01*
X-1026714Y-14861071D01*
X-1055286Y-14889643D01*
X-1083857Y-14903929D01*
X-783857Y-15089643D02*
X-769571Y-15103929D01*
X-783857Y-15118214D01*
X-798143Y-15103929D01*
X-783857Y-15089643D01*
X-783857Y-15118214D01*
X-483857Y-15118214D02*
X-655286Y-15118214D01*
X-569572Y-15118214D02*
X-569572Y-14818214D01*
X-598143Y-14861071D01*
X-626714Y-14889643D01*
X-655286Y-14903929D01*
X-226714Y-14918214D02*
X-226714Y-15118214D01*
X-298143Y-14803929D02*
X-369571Y-15018214D01*
X-183857Y-15018214D01*
X-69572Y-15118214D02*
X-69572Y-14918214D01*
X-69572Y-14946786D02*
X-55286Y-14932500D01*
X-26714Y-14918214D01*
X16143Y-14918214D01*
X44714Y-14932500D01*
X59000Y-14961071D01*
X59000Y-15118214D01*
X59000Y-14961071D02*
X73286Y-14932500D01*
X101857Y-14918214D01*
X144714Y-14918214D01*
X173286Y-14932500D01*
X187571Y-14961071D01*
X187571Y-15118214D01*
X330429Y-15118214D02*
X330429Y-14918214D01*
X330429Y-14946786D02*
X344714Y-14932500D01*
X373286Y-14918214D01*
X416143Y-14918214D01*
X444714Y-14932500D01*
X459000Y-14961071D01*
X459000Y-15118214D01*
X459000Y-14961071D02*
X473286Y-14932500D01*
X501857Y-14918214D01*
X544714Y-14918214D01*
X573286Y-14932500D01*
X587571Y-14961071D01*
X587571Y-15118214D01*
X1173286Y-14803929D02*
X916143Y-15189643D01*
X1559000Y-14818214D02*
X1587571Y-14818214D01*
X1616143Y-14832500D01*
X1630428Y-14846786D01*
X1644714Y-14875357D01*
X1659000Y-14932500D01*
X1659000Y-15003929D01*
X1644714Y-15061071D01*
X1630428Y-15089643D01*
X1616143Y-15103929D01*
X1587571Y-15118214D01*
X1559000Y-15118214D01*
X1530428Y-15103929D01*
X1516143Y-15089643D01*
X1501857Y-15061071D01*
X1487571Y-15003929D01*
X1487571Y-14932500D01*
X1501857Y-14875357D01*
X1516143Y-14846786D01*
X1530428Y-14832500D01*
X1559000Y-14818214D01*
X1787571Y-15089643D02*
X1801857Y-15103929D01*
X1787571Y-15118214D01*
X1773286Y-15103929D01*
X1787571Y-15089643D01*
X1787571Y-15118214D01*
X1987571Y-14818214D02*
X2016143Y-14818214D01*
X2044714Y-14832500D01*
X2059000Y-14846786D01*
X2073285Y-14875357D01*
X2087571Y-14932500D01*
X2087571Y-15003929D01*
X2073285Y-15061071D01*
X2059000Y-15089643D01*
X2044714Y-15103929D01*
X2016143Y-15118214D01*
X1987571Y-15118214D01*
X1959000Y-15103929D01*
X1944714Y-15089643D01*
X1930428Y-15061071D01*
X1916143Y-15003929D01*
X1916143Y-14932500D01*
X1930428Y-14875357D01*
X1944714Y-14846786D01*
X1959000Y-14832500D01*
X1987571Y-14818214D01*
X2344714Y-14918214D02*
X2344714Y-15118214D01*
X2273286Y-14803929D02*
X2201857Y-15018214D01*
X2387571Y-15018214D01*
X2644714Y-14818214D02*
X2501857Y-14818214D01*
X2487571Y-14961071D01*
X2501857Y-14946786D01*
X2530428Y-14932500D01*
X2601857Y-14932500D01*
X2630428Y-14946786D01*
X2644714Y-14961071D01*
X2659000Y-14989643D01*
X2659000Y-15061071D01*
X2644714Y-15089643D01*
X2630428Y-15103929D01*
X2601857Y-15118214D01*
X2530428Y-15118214D01*
X2501857Y-15103929D01*
X2487571Y-15089643D01*
X2773286Y-14818214D02*
X2773286Y-14875357D01*
X2887571Y-14818214D02*
X2887571Y-14875357D01*
X3330428Y-15232500D02*
X3316143Y-15218214D01*
X3287571Y-15175357D01*
X3273285Y-15146786D01*
X3259000Y-15103929D01*
X3244714Y-15032500D01*
X3244714Y-14975357D01*
X3259000Y-14903929D01*
X3273285Y-14861071D01*
X3287571Y-14832500D01*
X3316143Y-14789643D01*
X3330428Y-14775357D01*
X3573285Y-14918214D02*
X3573285Y-15118214D01*
X3501857Y-14803929D02*
X3430428Y-15018214D01*
X3616143Y-15018214D01*
X3773285Y-14946786D02*
X3744714Y-14932500D01*
X3730428Y-14918214D01*
X3716143Y-14889643D01*
X3716143Y-14875357D01*
X3730428Y-14846786D01*
X3744714Y-14832500D01*
X3773285Y-14818214D01*
X3830428Y-14818214D01*
X3859000Y-14832500D01*
X3873285Y-14846786D01*
X3887571Y-14875357D01*
X3887571Y-14889643D01*
X3873285Y-14918214D01*
X3859000Y-14932500D01*
X3830428Y-14946786D01*
X3773285Y-14946786D01*
X3744714Y-14961071D01*
X3730428Y-14975357D01*
X3716143Y-15003929D01*
X3716143Y-15061071D01*
X3730428Y-15089643D01*
X3744714Y-15103929D01*
X3773285Y-15118214D01*
X3830428Y-15118214D01*
X3859000Y-15103929D01*
X3873285Y-15089643D01*
X3887571Y-15061071D01*
X3887571Y-15003929D01*
X3873285Y-14975357D01*
X3859000Y-14961071D01*
X3830428Y-14946786D01*
X4244714Y-15118214D02*
X4244714Y-14818214D01*
X4373286Y-15118214D02*
X4373286Y-14961071D01*
X4359000Y-14932500D01*
X4330428Y-14918214D01*
X4287571Y-14918214D01*
X4259000Y-14932500D01*
X4244714Y-14946786D01*
X4559000Y-15118214D02*
X4530428Y-15103929D01*
X4516143Y-15089643D01*
X4501857Y-15061071D01*
X4501857Y-14975357D01*
X4516143Y-14946786D01*
X4530428Y-14932500D01*
X4559000Y-14918214D01*
X4601857Y-14918214D01*
X4630428Y-14932500D01*
X4644714Y-14946786D01*
X4659000Y-14975357D01*
X4659000Y-15061071D01*
X4644714Y-15089643D01*
X4630428Y-15103929D01*
X4601857Y-15118214D01*
X4559000Y-15118214D01*
X4830428Y-15118214D02*
X4801857Y-15103929D01*
X4787571Y-15075357D01*
X4787571Y-14818214D01*
X5059000Y-15103929D02*
X5030429Y-15118214D01*
X4973286Y-15118214D01*
X4944714Y-15103929D01*
X4930429Y-15075357D01*
X4930429Y-14961071D01*
X4944714Y-14932500D01*
X4973286Y-14918214D01*
X5030429Y-14918214D01*
X5059000Y-14932500D01*
X5073286Y-14961071D01*
X5073286Y-14989643D01*
X4930429Y-15018214D01*
X5187571Y-15103929D02*
X5216143Y-15118214D01*
X5273286Y-15118214D01*
X5301857Y-15103929D01*
X5316143Y-15075357D01*
X5316143Y-15061071D01*
X5301857Y-15032500D01*
X5273286Y-15018214D01*
X5230429Y-15018214D01*
X5201857Y-15003929D01*
X5187571Y-14975357D01*
X5187571Y-14961071D01*
X5201857Y-14932500D01*
X5230429Y-14918214D01*
X5273286Y-14918214D01*
X5301857Y-14932500D01*
X5416143Y-15232500D02*
X5430429Y-15218214D01*
X5459000Y-15175357D01*
X5473286Y-15146786D01*
X5487571Y-15103929D01*
X5501857Y-15032500D01*
X5501857Y-14975357D01*
X5487571Y-14903929D01*
X5473286Y-14861071D01*
X5459000Y-14832500D01*
X5430429Y-14789643D01*
X5416143Y-14775357D01*
X-1476000Y-15513500D02*
X-1341000Y-15378500D01*
X-1476000Y-15243500D01*
X-1611000Y-15378500D01*
X-1476000Y-15513500D01*
X-1083857Y-15242786D02*
X-1069572Y-15228500D01*
X-1041000Y-15214214D01*
X-969571Y-15214214D01*
X-941000Y-15228500D01*
X-926714Y-15242786D01*
X-912429Y-15271357D01*
X-912429Y-15299929D01*
X-926714Y-15342786D01*
X-1098143Y-15514214D01*
X-912429Y-15514214D01*
X-783857Y-15485643D02*
X-769571Y-15499929D01*
X-783857Y-15514214D01*
X-798143Y-15499929D01*
X-783857Y-15485643D01*
X-783857Y-15514214D01*
X-669572Y-15214214D02*
X-469572Y-15214214D01*
X-598143Y-15514214D01*
X-298143Y-15214214D02*
X-269572Y-15214214D01*
X-241000Y-15228500D01*
X-226714Y-15242786D01*
X-212429Y-15271357D01*
X-198143Y-15328500D01*
X-198143Y-15399929D01*
X-212429Y-15457071D01*
X-226714Y-15485643D01*
X-241000Y-15499929D01*
X-269572Y-15514214D01*
X-298143Y-15514214D01*
X-326714Y-15499929D01*
X-341000Y-15485643D01*
X-355286Y-15457071D01*
X-369571Y-15399929D01*
X-369571Y-15328500D01*
X-355286Y-15271357D01*
X-341000Y-15242786D01*
X-326714Y-15228500D01*
X-298143Y-15214214D01*
X-69572Y-15514214D02*
X-69572Y-15314214D01*
X-69572Y-15342786D02*
X-55286Y-15328500D01*
X-26714Y-15314214D01*
X16143Y-15314214D01*
X44714Y-15328500D01*
X59000Y-15357071D01*
X59000Y-15514214D01*
X59000Y-15357071D02*
X73286Y-15328500D01*
X101857Y-15314214D01*
X144714Y-15314214D01*
X173286Y-15328500D01*
X187571Y-15357071D01*
X187571Y-15514214D01*
X330429Y-15514214D02*
X330429Y-15314214D01*
X330429Y-15342786D02*
X344714Y-15328500D01*
X373286Y-15314214D01*
X416143Y-15314214D01*
X444714Y-15328500D01*
X459000Y-15357071D01*
X459000Y-15514214D01*
X459000Y-15357071D02*
X473286Y-15328500D01*
X501857Y-15314214D01*
X544714Y-15314214D01*
X573286Y-15328500D01*
X587571Y-15357071D01*
X587571Y-15514214D01*
X1173286Y-15199929D02*
X916143Y-15585643D01*
X1559000Y-15214214D02*
X1587571Y-15214214D01*
X1616143Y-15228500D01*
X1630428Y-15242786D01*
X1644714Y-15271357D01*
X1659000Y-15328500D01*
X1659000Y-15399929D01*
X1644714Y-15457071D01*
X1630428Y-15485643D01*
X1616143Y-15499929D01*
X1587571Y-15514214D01*
X1559000Y-15514214D01*
X1530428Y-15499929D01*
X1516143Y-15485643D01*
X1501857Y-15457071D01*
X1487571Y-15399929D01*
X1487571Y-15328500D01*
X1501857Y-15271357D01*
X1516143Y-15242786D01*
X1530428Y-15228500D01*
X1559000Y-15214214D01*
X1787571Y-15485643D02*
X1801857Y-15499929D01*
X1787571Y-15514214D01*
X1773286Y-15499929D01*
X1787571Y-15485643D01*
X1787571Y-15514214D01*
X2087571Y-15514214D02*
X1916143Y-15514214D01*
X2001857Y-15514214D02*
X2001857Y-15214214D01*
X1973285Y-15257071D01*
X1944714Y-15285643D01*
X1916143Y-15299929D01*
X2273286Y-15214214D02*
X2301857Y-15214214D01*
X2330428Y-15228500D01*
X2344714Y-15242786D01*
X2359000Y-15271357D01*
X2373286Y-15328500D01*
X2373286Y-15399929D01*
X2359000Y-15457071D01*
X2344714Y-15485643D01*
X2330428Y-15499929D01*
X2301857Y-15514214D01*
X2273286Y-15514214D01*
X2244714Y-15499929D01*
X2230428Y-15485643D01*
X2216143Y-15457071D01*
X2201857Y-15399929D01*
X2201857Y-15328500D01*
X2216143Y-15271357D01*
X2230428Y-15242786D01*
X2244714Y-15228500D01*
X2273286Y-15214214D01*
X2630428Y-15214214D02*
X2573286Y-15214214D01*
X2544714Y-15228500D01*
X2530428Y-15242786D01*
X2501857Y-15285643D01*
X2487571Y-15342786D01*
X2487571Y-15457071D01*
X2501857Y-15485643D01*
X2516143Y-15499929D01*
X2544714Y-15514214D01*
X2601857Y-15514214D01*
X2630428Y-15499929D01*
X2644714Y-15485643D01*
X2659000Y-15457071D01*
X2659000Y-15385643D01*
X2644714Y-15357071D01*
X2630428Y-15342786D01*
X2601857Y-15328500D01*
X2544714Y-15328500D01*
X2516143Y-15342786D01*
X2501857Y-15357071D01*
X2487571Y-15385643D01*
X2773286Y-15214214D02*
X2773286Y-15271357D01*
X2887571Y-15214214D02*
X2887571Y-15271357D01*
X3330428Y-15628500D02*
X3316143Y-15614214D01*
X3287571Y-15571357D01*
X3273285Y-15542786D01*
X3259000Y-15499929D01*
X3244714Y-15428500D01*
X3244714Y-15371357D01*
X3259000Y-15299929D01*
X3273285Y-15257071D01*
X3287571Y-15228500D01*
X3316143Y-15185643D01*
X3330428Y-15171357D01*
X3601857Y-15514214D02*
X3430428Y-15514214D01*
X3516143Y-15514214D02*
X3516143Y-15214214D01*
X3487571Y-15257071D01*
X3459000Y-15285643D01*
X3430428Y-15299929D01*
X3716143Y-15242786D02*
X3730428Y-15228500D01*
X3759000Y-15214214D01*
X3830428Y-15214214D01*
X3859000Y-15228500D01*
X3873285Y-15242786D01*
X3887571Y-15271357D01*
X3887571Y-15299929D01*
X3873285Y-15342786D01*
X3701857Y-15514214D01*
X3887571Y-15514214D01*
X4244714Y-15514214D02*
X4244714Y-15214214D01*
X4373286Y-15514214D02*
X4373286Y-15357071D01*
X4359000Y-15328500D01*
X4330428Y-15314214D01*
X4287571Y-15314214D01*
X4259000Y-15328500D01*
X4244714Y-15342786D01*
X4559000Y-15514214D02*
X4530428Y-15499929D01*
X4516143Y-15485643D01*
X4501857Y-15457071D01*
X4501857Y-15371357D01*
X4516143Y-15342786D01*
X4530428Y-15328500D01*
X4559000Y-15314214D01*
X4601857Y-15314214D01*
X4630428Y-15328500D01*
X4644714Y-15342786D01*
X4659000Y-15371357D01*
X4659000Y-15457071D01*
X4644714Y-15485643D01*
X4630428Y-15499929D01*
X4601857Y-15514214D01*
X4559000Y-15514214D01*
X4830428Y-15514214D02*
X4801857Y-15499929D01*
X4787571Y-15471357D01*
X4787571Y-15214214D01*
X5059000Y-15499929D02*
X5030429Y-15514214D01*
X4973286Y-15514214D01*
X4944714Y-15499929D01*
X4930429Y-15471357D01*
X4930429Y-15357071D01*
X4944714Y-15328500D01*
X4973286Y-15314214D01*
X5030429Y-15314214D01*
X5059000Y-15328500D01*
X5073286Y-15357071D01*
X5073286Y-15385643D01*
X4930429Y-15414214D01*
X5187571Y-15499929D02*
X5216143Y-15514214D01*
X5273286Y-15514214D01*
X5301857Y-15499929D01*
X5316143Y-15471357D01*
X5316143Y-15457071D01*
X5301857Y-15428500D01*
X5273286Y-15414214D01*
X5230429Y-15414214D01*
X5201857Y-15399929D01*
X5187571Y-15371357D01*
X5187571Y-15357071D01*
X5201857Y-15328500D01*
X5230429Y-15314214D01*
X5273286Y-15314214D01*
X5301857Y-15328500D01*
X5416143Y-15628500D02*
X5430429Y-15614214D01*
X5459000Y-15571357D01*
X5473286Y-15542786D01*
X5487571Y-15499929D01*
X5501857Y-15428500D01*
X5501857Y-15371357D01*
X5487571Y-15299929D01*
X5473286Y-15257071D01*
X5459000Y-15228500D01*
X5430429Y-15185643D01*
X5416143Y-15171357D01*
M02*
