M48
;DRILL file {KiCad 4.0.5-e0-6337~49~ubuntu16.04.1} date Mon Feb  6 17:25:34 2017
;FORMAT={-:-/ absolute / inch / decimal}
FMAT,2
INCH,TZ
T1C0.016
T2C0.040
T3C0.043
T4C0.045
T5C0.106
%
G90
G05
M72
T1
X0.06Y-3.11
X0.0756Y-4.0941
X0.08Y-2.41
X0.17Y-2.6
X0.18Y-4.22
X0.19Y-2.32
X0.19Y-4.03
X0.2Y-3.94
X0.21Y-2.17
X0.21Y-2.24
X0.23Y-2.62
X0.255Y-4.22
X0.325Y-4.27
X0.33Y-2.27
X0.33Y-2.49
X0.34Y-2.17
X0.34Y-2.43
X0.34Y-3.87
X0.37Y-2.61
X0.38Y-3.52
X0.42Y-2.61
X0.435Y-4.105
X0.46Y-2.22
X0.46Y-2.45
X0.495Y-4.485
X0.5Y-4.59
X0.55Y-2.6
X0.555Y-2.445
X0.59Y-3.96
X0.605Y-3.56
X0.61Y-2.61
X0.66Y-4.04
X0.66Y-4.1454
X0.67Y-2.32
X0.68Y-4.475
X0.69Y-3.91
X0.695Y-3.495
X0.7Y-4.5804
X0.72Y-4.04
X0.72Y-4.1454
X0.74Y-2.56
X0.75Y-2.84
X0.7516Y-2.5996
X0.79Y-2.285
X0.81Y-2.82
X0.8185Y-2.62
X0.84Y-2.52
X0.85Y-2.64
X0.87Y-2.69
X0.89Y-2.27
X0.93Y-4.52
X0.9398Y-4.5947
X0.94Y-2.37
X0.943Y-2.5093
X0.9487Y-2.5902
X0.95Y-2.54
X0.97Y-3.46
X0.97Y-3.68
X0.99Y-4.16
X1.015Y-3.715
X1.03Y-2.95
X1.035Y-3.605
X1.055Y-4.135
X1.0697Y-2.5551
X1.07Y-2.52
X1.0718Y-2.5865
X1.09Y-2.3
X1.1433Y-2.552
X1.2Y-3.22
X1.215Y-4.12
X1.23Y-3.17
X1.235Y-3.63
X1.24Y-3.33
X1.245Y-2.29
X1.25Y-2.71
X1.2521Y-2.517
X1.2553Y-2.58
X1.26Y-2.62
X1.26Y-3.36
X1.31Y-2.91
X1.325Y-4.2642
X1.33Y-4.625
X1.34Y-4.125
X1.352Y-4.7035
X1.3646Y-3.5926
X1.3844Y-2.5563
X1.39Y-2.94
X1.39Y-3.
X1.4Y-3.19
X1.4054Y-2.2359
X1.4074Y-2.5779
X1.44Y-2.44
X1.45Y-3.65
X1.45Y-3.2046
X1.5209Y-3.6787
X1.565Y-4.135
X1.565Y-4.665
X1.575Y-4.695
X1.6Y-3.37
X1.6019Y-2.5539
X1.61Y-3.45
X1.615Y-4.27
X1.625Y-3.705
X1.6422Y-3.6697
X1.68Y-4.14
X1.7Y-2.93
X1.7Y-3.01
X1.7Y-4.62
X1.7214Y-2.54
X1.7268Y-2.58
X1.77Y-3.37
X1.77Y-3.44
X1.8019Y-4.6927
X1.85Y-4.145
X1.89Y-2.65
X1.9Y-2.71
X1.92Y-4.18
X1.93Y-3.36
X1.93Y-3.44
X2.03Y-2.95
X2.04Y-3.03
X2.09Y-3.37
X2.09Y-3.47
X2.235Y-3.665
X2.25Y-3.36
X2.25Y-3.44
X2.4Y-3.37
X2.41Y-3.46
X2.51Y-3.915
X2.765Y-4.03
X3.21Y-3.515
X3.22Y-3.45
X3.245Y-3.365
X3.385Y-3.365
X3.4Y-3.435
X3.45Y-3.455
X3.54Y-3.375
X3.5454Y-3.495
X3.57Y-3.73
X3.57Y-3.27
X3.64Y-3.905
X3.65Y-3.97
X3.655Y-3.74
X3.685Y-3.27
X3.71Y-3.385
X3.71Y-3.49
X3.885Y-3.495
X3.895Y-3.385
X3.985Y-3.49
X3.99Y-3.745
X4.055Y-3.38
X4.09Y-3.7201
X4.1331Y-4.2531
X4.19Y-3.395
X4.195Y-3.205
X4.205Y-3.495
X4.215Y-3.565
X4.275Y-2.47
X4.3Y-3.24
X4.34Y-3.22
X4.4022Y-3.5579
X4.415Y-4.29
X4.4154Y-3.18
X4.42Y-3.04
X4.44Y-3.24
X4.455Y-3.58
X4.4827Y-3.2173
X4.485Y-3.175
X4.485Y-3.595
X4.51Y-3.385
X4.55Y-4.385
X4.57Y-4.41
X4.6Y-2.685
X4.6Y-4.28
X4.74Y-4.53
X4.7465Y-4.3667
X4.805Y-3.195
X4.855Y-4.38
X4.87Y-4.665
X4.88Y-2.24
X4.885Y-4.32
X4.9Y-2.7
X4.912Y-4.6575
X4.92Y-2.28
X4.93Y-2.455
X5.045Y-4.4
X5.0565Y-4.5401
X5.06Y-4.61
X5.175Y-4.39
X5.2034Y-2.6762
X5.22Y-4.35
X5.3665Y-4.404
X5.385Y-4.24
X5.4054Y-4.2668
X5.435Y-4.295
X5.505Y-4.56
X5.51Y-4.48
X5.515Y-4.005
X5.5167Y-4.5942
X5.5421Y-2.647
X5.555Y-4.235
X5.625Y-4.44
X5.715Y-3.995
X5.72Y-4.7654
X5.735Y-4.235
X5.78Y-4.6
X5.815Y-2.6
X5.829Y-2.2694
X5.84Y-4.79
X5.85Y-4.025
X5.86Y-2.755
X5.87Y-2.705
X5.875Y-2.86
X5.88Y-4.1
X5.885Y-4.525
X5.895Y-4.67
X5.9038Y-2.5078
X5.91Y-4.48
X5.9126Y-2.557
X5.915Y-4.235
X5.9218Y-2.7541
X5.9228Y-2.59
X5.965Y-4.33
X6.005Y-2.45
X6.015Y-4.53
X6.02Y-2.54
X6.0218Y-2.8295
X6.03Y-2.74
X6.0785Y-2.8914
X6.085Y-3.135
X6.095Y-4.235
X6.1365Y-2.842
X6.1399Y-2.6447
X6.1415Y-2.9323
X6.145Y-4.315
X6.1654Y-2.745
X6.26Y-2.69
X6.26Y-2.84
T2
X0.025Y-3.325
X0.025Y-3.425
X0.6Y-3.16
X0.7Y-3.16
X2.33Y-2.18
X2.33Y-4.72
X2.37Y-3.78
X2.37Y-3.88
X2.37Y-4.07
X2.37Y-4.17
X2.43Y-2.18
X2.43Y-4.72
X2.515Y-2.925
X2.53Y-2.18
X2.53Y-4.72
X2.615Y-2.925
X2.63Y-2.18
X2.63Y-4.72
X2.73Y-2.18
X2.73Y-4.72
X2.83Y-2.18
X2.83Y-4.72
X2.93Y-2.18
X2.93Y-4.72
X3.03Y-2.18
X3.03Y-4.72
X3.3Y-2.18
X3.3Y-4.72
X3.4Y-2.18
X3.4Y-4.72
X3.5Y-2.18
X3.5Y-4.72
X3.6Y-2.18
X3.6Y-4.72
X3.7Y-2.18
X3.7Y-4.72
X3.8Y-2.18
X3.8Y-4.72
X3.825Y-2.8
X3.9Y-2.18
X3.9Y-4.72
X3.925Y-2.8
X4.Y-2.18
X4.Y-4.72
X4.68Y-3.32
X4.78Y-3.32
X6.29Y-3.455
X6.29Y-3.555
T3
X1.01Y-2.68
X1.01Y-3.13
X1.15Y-3.765
X1.15Y-4.215
X1.33Y-2.675
X1.33Y-3.125
X1.48Y-3.755
X1.48Y-4.205
X1.65Y-2.675
X1.65Y-3.125
X1.8Y-3.755
X1.8Y-4.205
X1.97Y-2.675
X1.97Y-3.125
X2.12Y-3.755
X2.12Y-4.205
X4.3469Y-3.7722
X4.3469Y-4.2222
X4.36Y-2.695
X4.36Y-3.145
X4.6728Y-3.7722
X4.6728Y-4.2222
X4.68Y-2.695
X4.68Y-3.145
X4.9898Y-3.7722
X4.9898Y-4.2222
X5.Y-2.695
X5.Y-3.145
X5.3069Y-3.7722
X5.3069Y-4.2222
X5.32Y-2.695
X5.32Y-3.145
T4
X1.01Y-2.28
X1.01Y-2.38
X1.01Y-2.48
X1.15Y-4.41
X1.15Y-4.51
X1.15Y-4.61
X1.33Y-2.28
X1.33Y-2.38
X1.33Y-2.48
X1.48Y-4.41
X1.48Y-4.51
X1.48Y-4.61
X1.65Y-2.28
X1.65Y-2.38
X1.65Y-2.48
X1.8Y-4.41
X1.8Y-4.51
X1.8Y-4.61
X1.97Y-2.28
X1.97Y-2.38
X1.97Y-2.48
X2.12Y-4.41
X2.12Y-4.51
X2.12Y-4.61
X4.3469Y-4.4372
X4.3469Y-4.5372
X4.3469Y-4.6372
X4.36Y-2.285
X4.36Y-2.385
X4.36Y-2.485
X4.6669Y-4.4372
X4.6669Y-4.5372
X4.6669Y-4.6372
X4.6833Y-2.285
X4.6833Y-2.385
X4.6833Y-2.485
X4.9869Y-4.4372
X4.9869Y-4.5372
X4.9869Y-4.6372
X5.0067Y-2.285
X5.0067Y-2.385
X5.0067Y-2.485
X5.3069Y-4.4372
X5.3069Y-4.5372
X5.3069Y-4.6372
X5.33Y-2.285
X5.33Y-2.385
X5.33Y-2.485
T5
X2.9235Y-2.6413
X2.9235Y-3.0665
X2.9435Y-3.8213
X2.9435Y-4.2465
X3.1286Y-2.6413
X3.1286Y-3.0665
X3.1486Y-3.8213
X3.1486Y-4.2465
X3.3337Y-2.6413
X3.3337Y-3.0665
X3.3537Y-3.8213
X3.3537Y-4.2465
T0
M30
