M48
;DRILL file {KiCad 4.0.7} date 12/04/17 16:46:58
;FORMAT={-:-/ absolute / inch / decimal}
FMAT,2
INCH,TZ
T1C0.016
T2C0.039
T3C0.040
T4C0.120
%
G90
G05
M72
T1
X5.1574Y-4.5419
X5.1948Y-4.6207
X5.4273Y-4.5419
X5.4647Y-4.6207
X5.6791Y-4.5341
X5.7165Y-4.6128
X5.9359Y-4.5459
X5.9733Y-4.6246
X6.085Y-3.09
X6.1146Y-3.055
X6.1387Y-4.5459
X6.1731Y-3.5459
X6.1761Y-4.6246
X6.22Y-3.25
X6.2222Y-3.2124
X6.3759Y-4.5459
X6.4133Y-4.6246
X6.62Y-3.2864
X6.62Y-3.37
X6.695Y-3.4124
X6.77Y-3.285
X6.77Y-3.37
T2
X5.0787Y-3.5301
X5.0787Y-3.6301
X5.0787Y-3.7301
X5.0787Y-3.8301
X5.0787Y-3.9301
X5.0787Y-4.0301
X5.0787Y-4.1301
X5.0787Y-4.2301
X5.0787Y-4.3301
X5.0787Y-4.4301
X5.3543Y-3.5238
X5.3543Y-3.6238
X5.3543Y-3.7238
X5.3543Y-3.8238
X5.3543Y-3.9238
X5.3543Y-4.0238
X5.3543Y-4.1238
X5.3543Y-4.2238
X5.3543Y-4.3238
X5.3543Y-4.4238
X5.6298Y-3.5262
X5.6298Y-3.6262
X5.6298Y-3.7262
X5.6298Y-3.8262
X5.6298Y-3.9262
X5.6298Y-4.0262
X5.6298Y-4.1262
X5.6298Y-4.2262
X5.6298Y-4.3262
X5.6298Y-4.4262
X5.8661Y-3.5301
X5.8661Y-3.6301
X5.8661Y-3.7301
X5.8661Y-3.8301
X5.8661Y-3.9301
X5.8661Y-4.0301
X5.8661Y-4.1301
X5.8661Y-4.2301
X5.8661Y-4.3301
X5.8661Y-4.4301
X6.0629Y-3.5301
X6.0629Y-3.6301
X6.0629Y-3.7301
X6.0629Y-3.8301
X6.0629Y-3.9301
X6.0629Y-4.0301
X6.0629Y-4.1301
X6.0629Y-4.2301
X6.0629Y-4.3301
X6.0629Y-4.4301
X6.2991Y-3.5301
X6.2991Y-3.6301
X6.2991Y-3.7301
X6.2991Y-3.8301
X6.2991Y-3.9301
X6.2991Y-4.0301
X6.2991Y-4.1301
X6.2991Y-4.2301
X6.2991Y-4.3301
X6.2991Y-4.4301
T3
X5.11Y-2.975
X5.21Y-2.975
X5.31Y-2.975
X5.41Y-2.975
X5.47Y-4.875
X5.51Y-2.975
X5.57Y-4.875
X5.61Y-2.975
X5.67Y-4.875
X5.71Y-2.975
X5.77Y-4.875
X5.81Y-2.975
X5.87Y-4.875
X5.91Y-2.975
X5.97Y-4.875
X6.01Y-2.975
X6.07Y-4.875
X6.17Y-2.975
X6.17Y-4.875
X6.27Y-2.975
X6.37Y-2.975
X6.37Y-4.875
X6.47Y-2.975
X6.47Y-4.875
X6.57Y-2.975
X6.57Y-4.875
X6.67Y-2.975
X6.67Y-4.875
X6.77Y-2.975
X6.77Y-4.875
X6.87Y-2.975
X6.87Y-4.875
T4
X4.92Y-4.875
X4.97Y-2.975
X6.97Y-3.575
X6.97Y-4.675
T0
M30
