G04 #@! TF.FileFunction,Legend,Bot*
%FSLAX46Y46*%
G04 Gerber Fmt 4.6, Leading zero omitted, Abs format (unit mm)*
G04 Created by KiCad (PCBNEW 4.0.7) date 12/04/17 16:46:56*
%MOMM*%
%LPD*%
G01*
G04 APERTURE LIST*
%ADD10C,0.100000*%
%ADD11C,0.120000*%
%ADD12C,0.150000*%
G04 APERTURE END LIST*
D10*
D11*
X154342782Y-115705000D02*
X155272782Y-115705000D01*
X157502782Y-115705000D02*
X156572782Y-115705000D01*
X157502782Y-115705000D02*
X157502782Y-117865000D01*
X154342782Y-115705000D02*
X154342782Y-117165000D01*
X160367228Y-115705000D02*
X161297228Y-115705000D01*
X163527228Y-115705000D02*
X162597228Y-115705000D01*
X163527228Y-115705000D02*
X163527228Y-117865000D01*
X160367228Y-115705000D02*
X160367228Y-117165000D01*
X157878000Y-120515000D02*
X157878000Y-119315000D01*
X156118000Y-119315000D02*
X156118000Y-120515000D01*
X163878000Y-120515000D02*
X163878000Y-119315000D01*
X162118000Y-119315000D02*
X162118000Y-120515000D01*
X155878000Y-120515000D02*
X155878000Y-119315000D01*
X154118000Y-119315000D02*
X154118000Y-120515000D01*
X161878000Y-120515000D02*
X161878000Y-119315000D01*
X160118000Y-119315000D02*
X160118000Y-120515000D01*
X129418000Y-115605000D02*
X130348000Y-115605000D01*
X132578000Y-115605000D02*
X131648000Y-115605000D01*
X132578000Y-115605000D02*
X132578000Y-117765000D01*
X129418000Y-115605000D02*
X129418000Y-117065000D01*
X136272770Y-115605000D02*
X137202770Y-115605000D01*
X139432770Y-115605000D02*
X138502770Y-115605000D01*
X139432770Y-115605000D02*
X139432770Y-117765000D01*
X136272770Y-115605000D02*
X136272770Y-117065000D01*
X142669448Y-115405000D02*
X143599448Y-115405000D01*
X145829448Y-115405000D02*
X144899448Y-115405000D01*
X145829448Y-115405000D02*
X145829448Y-117565000D01*
X142669448Y-115405000D02*
X142669448Y-116865000D01*
X149190610Y-115705000D02*
X150120610Y-115705000D01*
X152350610Y-115705000D02*
X151420610Y-115705000D01*
X152350610Y-115705000D02*
X152350610Y-117865000D01*
X149190610Y-115705000D02*
X149190610Y-117165000D01*
X132878000Y-120415000D02*
X132878000Y-119215000D01*
X131118000Y-119215000D02*
X131118000Y-120415000D01*
X139878000Y-120515000D02*
X139878000Y-119315000D01*
X138118000Y-119315000D02*
X138118000Y-120515000D01*
X130878000Y-120415000D02*
X130878000Y-119215000D01*
X129118000Y-119215000D02*
X129118000Y-120415000D01*
X137878000Y-120515000D02*
X137878000Y-119315000D01*
X136118000Y-119315000D02*
X136118000Y-120515000D01*
X146378000Y-120515000D02*
X146378000Y-119315000D01*
X144618000Y-119315000D02*
X144618000Y-120515000D01*
X152878000Y-120515000D02*
X152878000Y-119315000D01*
X151118000Y-119315000D02*
X151118000Y-120515000D01*
X144378000Y-120515000D02*
X144378000Y-119315000D01*
X142618000Y-119315000D02*
X142618000Y-120515000D01*
X150878000Y-120515000D02*
X150878000Y-119315000D01*
X149118000Y-119315000D02*
X149118000Y-120515000D01*
D12*
X158970401Y-116369762D02*
X158922782Y-116274524D01*
X158827544Y-116179286D01*
X158684687Y-116036429D01*
X158637068Y-115941190D01*
X158637068Y-115845952D01*
X158875163Y-115893571D02*
X158827544Y-115798333D01*
X158732306Y-115703095D01*
X158541830Y-115655476D01*
X158208496Y-115655476D01*
X158018020Y-115703095D01*
X157922782Y-115798333D01*
X157875163Y-115893571D01*
X157875163Y-116084048D01*
X157922782Y-116179286D01*
X158018020Y-116274524D01*
X158208496Y-116322143D01*
X158541830Y-116322143D01*
X158732306Y-116274524D01*
X158827544Y-116179286D01*
X158875163Y-116084048D01*
X158875163Y-115893571D01*
X157875163Y-117226905D02*
X157875163Y-116750714D01*
X158351353Y-116703095D01*
X158303734Y-116750714D01*
X158256115Y-116845952D01*
X158256115Y-117084048D01*
X158303734Y-117179286D01*
X158351353Y-117226905D01*
X158446592Y-117274524D01*
X158684687Y-117274524D01*
X158779925Y-117226905D01*
X158827544Y-117179286D01*
X158875163Y-117084048D01*
X158875163Y-116845952D01*
X158827544Y-116750714D01*
X158779925Y-116703095D01*
X164994847Y-116369762D02*
X164947228Y-116274524D01*
X164851990Y-116179286D01*
X164709133Y-116036429D01*
X164661514Y-115941190D01*
X164661514Y-115845952D01*
X164899609Y-115893571D02*
X164851990Y-115798333D01*
X164756752Y-115703095D01*
X164566276Y-115655476D01*
X164232942Y-115655476D01*
X164042466Y-115703095D01*
X163947228Y-115798333D01*
X163899609Y-115893571D01*
X163899609Y-116084048D01*
X163947228Y-116179286D01*
X164042466Y-116274524D01*
X164232942Y-116322143D01*
X164566276Y-116322143D01*
X164756752Y-116274524D01*
X164851990Y-116179286D01*
X164899609Y-116084048D01*
X164899609Y-115893571D01*
X163899609Y-117179286D02*
X163899609Y-116988809D01*
X163947228Y-116893571D01*
X163994847Y-116845952D01*
X164137704Y-116750714D01*
X164328180Y-116703095D01*
X164709133Y-116703095D01*
X164804371Y-116750714D01*
X164851990Y-116798333D01*
X164899609Y-116893571D01*
X164899609Y-117084048D01*
X164851990Y-117179286D01*
X164804371Y-117226905D01*
X164709133Y-117274524D01*
X164471038Y-117274524D01*
X164375799Y-117226905D01*
X164328180Y-117179286D01*
X164280561Y-117084048D01*
X164280561Y-116893571D01*
X164328180Y-116798333D01*
X164375799Y-116750714D01*
X164471038Y-116703095D01*
X159450381Y-119222143D02*
X158974190Y-118888809D01*
X159450381Y-118650714D02*
X158450381Y-118650714D01*
X158450381Y-119031667D01*
X158498000Y-119126905D01*
X158545619Y-119174524D01*
X158640857Y-119222143D01*
X158783714Y-119222143D01*
X158878952Y-119174524D01*
X158926571Y-119126905D01*
X158974190Y-119031667D01*
X158974190Y-118650714D01*
X159450381Y-120174524D02*
X159450381Y-119603095D01*
X159450381Y-119888809D02*
X158450381Y-119888809D01*
X158593238Y-119793571D01*
X158688476Y-119698333D01*
X158736095Y-119603095D01*
X158450381Y-120507857D02*
X158450381Y-121126905D01*
X158831333Y-120793571D01*
X158831333Y-120936429D01*
X158878952Y-121031667D01*
X158926571Y-121079286D01*
X159021810Y-121126905D01*
X159259905Y-121126905D01*
X159355143Y-121079286D01*
X159402762Y-121031667D01*
X159450381Y-120936429D01*
X159450381Y-120650714D01*
X159402762Y-120555476D01*
X159355143Y-120507857D01*
X165450381Y-119222143D02*
X164974190Y-118888809D01*
X165450381Y-118650714D02*
X164450381Y-118650714D01*
X164450381Y-119031667D01*
X164498000Y-119126905D01*
X164545619Y-119174524D01*
X164640857Y-119222143D01*
X164783714Y-119222143D01*
X164878952Y-119174524D01*
X164926571Y-119126905D01*
X164974190Y-119031667D01*
X164974190Y-118650714D01*
X165450381Y-120174524D02*
X165450381Y-119603095D01*
X165450381Y-119888809D02*
X164450381Y-119888809D01*
X164593238Y-119793571D01*
X164688476Y-119698333D01*
X164736095Y-119603095D01*
X164783714Y-121031667D02*
X165450381Y-121031667D01*
X164402762Y-120793571D02*
X165117048Y-120555476D01*
X165117048Y-121174524D01*
X153800381Y-119272143D02*
X153324190Y-118938809D01*
X153800381Y-118700714D02*
X152800381Y-118700714D01*
X152800381Y-119081667D01*
X152848000Y-119176905D01*
X152895619Y-119224524D01*
X152990857Y-119272143D01*
X153133714Y-119272143D01*
X153228952Y-119224524D01*
X153276571Y-119176905D01*
X153324190Y-119081667D01*
X153324190Y-118700714D01*
X153800381Y-120224524D02*
X153800381Y-119653095D01*
X153800381Y-119938809D02*
X152800381Y-119938809D01*
X152943238Y-119843571D01*
X153038476Y-119748333D01*
X153086095Y-119653095D01*
X152800381Y-121129286D02*
X152800381Y-120653095D01*
X153276571Y-120605476D01*
X153228952Y-120653095D01*
X153181333Y-120748333D01*
X153181333Y-120986429D01*
X153228952Y-121081667D01*
X153276571Y-121129286D01*
X153371810Y-121176905D01*
X153609905Y-121176905D01*
X153705143Y-121129286D01*
X153752762Y-121081667D01*
X153800381Y-120986429D01*
X153800381Y-120748333D01*
X153752762Y-120653095D01*
X153705143Y-120605476D01*
X159800381Y-119272143D02*
X159324190Y-118938809D01*
X159800381Y-118700714D02*
X158800381Y-118700714D01*
X158800381Y-119081667D01*
X158848000Y-119176905D01*
X158895619Y-119224524D01*
X158990857Y-119272143D01*
X159133714Y-119272143D01*
X159228952Y-119224524D01*
X159276571Y-119176905D01*
X159324190Y-119081667D01*
X159324190Y-118700714D01*
X159800381Y-120224524D02*
X159800381Y-119653095D01*
X159800381Y-119938809D02*
X158800381Y-119938809D01*
X158943238Y-119843571D01*
X159038476Y-119748333D01*
X159086095Y-119653095D01*
X158800381Y-121081667D02*
X158800381Y-120891190D01*
X158848000Y-120795952D01*
X158895619Y-120748333D01*
X159038476Y-120653095D01*
X159228952Y-120605476D01*
X159609905Y-120605476D01*
X159705143Y-120653095D01*
X159752762Y-120700714D01*
X159800381Y-120795952D01*
X159800381Y-120986429D01*
X159752762Y-121081667D01*
X159705143Y-121129286D01*
X159609905Y-121176905D01*
X159371810Y-121176905D01*
X159276571Y-121129286D01*
X159228952Y-121081667D01*
X159181333Y-120986429D01*
X159181333Y-120795952D01*
X159228952Y-120700714D01*
X159276571Y-120653095D01*
X159371810Y-120605476D01*
X134045619Y-116269762D02*
X133998000Y-116174524D01*
X133902762Y-116079286D01*
X133759905Y-115936429D01*
X133712286Y-115841190D01*
X133712286Y-115745952D01*
X133950381Y-115793571D02*
X133902762Y-115698333D01*
X133807524Y-115603095D01*
X133617048Y-115555476D01*
X133283714Y-115555476D01*
X133093238Y-115603095D01*
X132998000Y-115698333D01*
X132950381Y-115793571D01*
X132950381Y-115984048D01*
X132998000Y-116079286D01*
X133093238Y-116174524D01*
X133283714Y-116222143D01*
X133617048Y-116222143D01*
X133807524Y-116174524D01*
X133902762Y-116079286D01*
X133950381Y-115984048D01*
X133950381Y-115793571D01*
X133950381Y-117174524D02*
X133950381Y-116603095D01*
X133950381Y-116888809D02*
X132950381Y-116888809D01*
X133093238Y-116793571D01*
X133188476Y-116698333D01*
X133236095Y-116603095D01*
X140900389Y-116269762D02*
X140852770Y-116174524D01*
X140757532Y-116079286D01*
X140614675Y-115936429D01*
X140567056Y-115841190D01*
X140567056Y-115745952D01*
X140805151Y-115793571D02*
X140757532Y-115698333D01*
X140662294Y-115603095D01*
X140471818Y-115555476D01*
X140138484Y-115555476D01*
X139948008Y-115603095D01*
X139852770Y-115698333D01*
X139805151Y-115793571D01*
X139805151Y-115984048D01*
X139852770Y-116079286D01*
X139948008Y-116174524D01*
X140138484Y-116222143D01*
X140471818Y-116222143D01*
X140662294Y-116174524D01*
X140757532Y-116079286D01*
X140805151Y-115984048D01*
X140805151Y-115793571D01*
X139900389Y-116603095D02*
X139852770Y-116650714D01*
X139805151Y-116745952D01*
X139805151Y-116984048D01*
X139852770Y-117079286D01*
X139900389Y-117126905D01*
X139995627Y-117174524D01*
X140090865Y-117174524D01*
X140233722Y-117126905D01*
X140805151Y-116555476D01*
X140805151Y-117174524D01*
X147297067Y-116069762D02*
X147249448Y-115974524D01*
X147154210Y-115879286D01*
X147011353Y-115736429D01*
X146963734Y-115641190D01*
X146963734Y-115545952D01*
X147201829Y-115593571D02*
X147154210Y-115498333D01*
X147058972Y-115403095D01*
X146868496Y-115355476D01*
X146535162Y-115355476D01*
X146344686Y-115403095D01*
X146249448Y-115498333D01*
X146201829Y-115593571D01*
X146201829Y-115784048D01*
X146249448Y-115879286D01*
X146344686Y-115974524D01*
X146535162Y-116022143D01*
X146868496Y-116022143D01*
X147058972Y-115974524D01*
X147154210Y-115879286D01*
X147201829Y-115784048D01*
X147201829Y-115593571D01*
X146201829Y-116355476D02*
X146201829Y-116974524D01*
X146582781Y-116641190D01*
X146582781Y-116784048D01*
X146630400Y-116879286D01*
X146678019Y-116926905D01*
X146773258Y-116974524D01*
X147011353Y-116974524D01*
X147106591Y-116926905D01*
X147154210Y-116879286D01*
X147201829Y-116784048D01*
X147201829Y-116498333D01*
X147154210Y-116403095D01*
X147106591Y-116355476D01*
X153818229Y-116369762D02*
X153770610Y-116274524D01*
X153675372Y-116179286D01*
X153532515Y-116036429D01*
X153484896Y-115941190D01*
X153484896Y-115845952D01*
X153722991Y-115893571D02*
X153675372Y-115798333D01*
X153580134Y-115703095D01*
X153389658Y-115655476D01*
X153056324Y-115655476D01*
X152865848Y-115703095D01*
X152770610Y-115798333D01*
X152722991Y-115893571D01*
X152722991Y-116084048D01*
X152770610Y-116179286D01*
X152865848Y-116274524D01*
X153056324Y-116322143D01*
X153389658Y-116322143D01*
X153580134Y-116274524D01*
X153675372Y-116179286D01*
X153722991Y-116084048D01*
X153722991Y-115893571D01*
X153056324Y-117179286D02*
X153722991Y-117179286D01*
X152675372Y-116941190D02*
X153389658Y-116703095D01*
X153389658Y-117322143D01*
X133950381Y-119698334D02*
X133474190Y-119365000D01*
X133950381Y-119126905D02*
X132950381Y-119126905D01*
X132950381Y-119507858D01*
X132998000Y-119603096D01*
X133045619Y-119650715D01*
X133140857Y-119698334D01*
X133283714Y-119698334D01*
X133378952Y-119650715D01*
X133426571Y-119603096D01*
X133474190Y-119507858D01*
X133474190Y-119126905D01*
X133950381Y-120650715D02*
X133950381Y-120079286D01*
X133950381Y-120365000D02*
X132950381Y-120365000D01*
X133093238Y-120269762D01*
X133188476Y-120174524D01*
X133236095Y-120079286D01*
X140950381Y-119698334D02*
X140474190Y-119365000D01*
X140950381Y-119126905D02*
X139950381Y-119126905D01*
X139950381Y-119507858D01*
X139998000Y-119603096D01*
X140045619Y-119650715D01*
X140140857Y-119698334D01*
X140283714Y-119698334D01*
X140378952Y-119650715D01*
X140426571Y-119603096D01*
X140474190Y-119507858D01*
X140474190Y-119126905D01*
X140045619Y-120079286D02*
X139998000Y-120126905D01*
X139950381Y-120222143D01*
X139950381Y-120460239D01*
X139998000Y-120555477D01*
X140045619Y-120603096D01*
X140140857Y-120650715D01*
X140236095Y-120650715D01*
X140378952Y-120603096D01*
X140950381Y-120031667D01*
X140950381Y-120650715D01*
X128800381Y-119648334D02*
X128324190Y-119315000D01*
X128800381Y-119076905D02*
X127800381Y-119076905D01*
X127800381Y-119457858D01*
X127848000Y-119553096D01*
X127895619Y-119600715D01*
X127990857Y-119648334D01*
X128133714Y-119648334D01*
X128228952Y-119600715D01*
X128276571Y-119553096D01*
X128324190Y-119457858D01*
X128324190Y-119076905D01*
X127800381Y-119981667D02*
X127800381Y-120600715D01*
X128181333Y-120267381D01*
X128181333Y-120410239D01*
X128228952Y-120505477D01*
X128276571Y-120553096D01*
X128371810Y-120600715D01*
X128609905Y-120600715D01*
X128705143Y-120553096D01*
X128752762Y-120505477D01*
X128800381Y-120410239D01*
X128800381Y-120124524D01*
X128752762Y-120029286D01*
X128705143Y-119981667D01*
X135800381Y-119748334D02*
X135324190Y-119415000D01*
X135800381Y-119176905D02*
X134800381Y-119176905D01*
X134800381Y-119557858D01*
X134848000Y-119653096D01*
X134895619Y-119700715D01*
X134990857Y-119748334D01*
X135133714Y-119748334D01*
X135228952Y-119700715D01*
X135276571Y-119653096D01*
X135324190Y-119557858D01*
X135324190Y-119176905D01*
X135133714Y-120605477D02*
X135800381Y-120605477D01*
X134752762Y-120367381D02*
X135467048Y-120129286D01*
X135467048Y-120748334D01*
X147950381Y-119698334D02*
X147474190Y-119365000D01*
X147950381Y-119126905D02*
X146950381Y-119126905D01*
X146950381Y-119507858D01*
X146998000Y-119603096D01*
X147045619Y-119650715D01*
X147140857Y-119698334D01*
X147283714Y-119698334D01*
X147378952Y-119650715D01*
X147426571Y-119603096D01*
X147474190Y-119507858D01*
X147474190Y-119126905D01*
X146950381Y-120603096D02*
X146950381Y-120126905D01*
X147426571Y-120079286D01*
X147378952Y-120126905D01*
X147331333Y-120222143D01*
X147331333Y-120460239D01*
X147378952Y-120555477D01*
X147426571Y-120603096D01*
X147521810Y-120650715D01*
X147759905Y-120650715D01*
X147855143Y-120603096D01*
X147902762Y-120555477D01*
X147950381Y-120460239D01*
X147950381Y-120222143D01*
X147902762Y-120126905D01*
X147855143Y-120079286D01*
X154450381Y-119748334D02*
X153974190Y-119415000D01*
X154450381Y-119176905D02*
X153450381Y-119176905D01*
X153450381Y-119557858D01*
X153498000Y-119653096D01*
X153545619Y-119700715D01*
X153640857Y-119748334D01*
X153783714Y-119748334D01*
X153878952Y-119700715D01*
X153926571Y-119653096D01*
X153974190Y-119557858D01*
X153974190Y-119176905D01*
X153450381Y-120605477D02*
X153450381Y-120415000D01*
X153498000Y-120319762D01*
X153545619Y-120272143D01*
X153688476Y-120176905D01*
X153878952Y-120129286D01*
X154259905Y-120129286D01*
X154355143Y-120176905D01*
X154402762Y-120224524D01*
X154450381Y-120319762D01*
X154450381Y-120510239D01*
X154402762Y-120605477D01*
X154355143Y-120653096D01*
X154259905Y-120700715D01*
X154021810Y-120700715D01*
X153926571Y-120653096D01*
X153878952Y-120605477D01*
X153831333Y-120510239D01*
X153831333Y-120319762D01*
X153878952Y-120224524D01*
X153926571Y-120176905D01*
X154021810Y-120129286D01*
X142300381Y-119748334D02*
X141824190Y-119415000D01*
X142300381Y-119176905D02*
X141300381Y-119176905D01*
X141300381Y-119557858D01*
X141348000Y-119653096D01*
X141395619Y-119700715D01*
X141490857Y-119748334D01*
X141633714Y-119748334D01*
X141728952Y-119700715D01*
X141776571Y-119653096D01*
X141824190Y-119557858D01*
X141824190Y-119176905D01*
X141300381Y-120081667D02*
X141300381Y-120748334D01*
X142300381Y-120319762D01*
X148800381Y-119748334D02*
X148324190Y-119415000D01*
X148800381Y-119176905D02*
X147800381Y-119176905D01*
X147800381Y-119557858D01*
X147848000Y-119653096D01*
X147895619Y-119700715D01*
X147990857Y-119748334D01*
X148133714Y-119748334D01*
X148228952Y-119700715D01*
X148276571Y-119653096D01*
X148324190Y-119557858D01*
X148324190Y-119176905D01*
X148228952Y-120319762D02*
X148181333Y-120224524D01*
X148133714Y-120176905D01*
X148038476Y-120129286D01*
X147990857Y-120129286D01*
X147895619Y-120176905D01*
X147848000Y-120224524D01*
X147800381Y-120319762D01*
X147800381Y-120510239D01*
X147848000Y-120605477D01*
X147895619Y-120653096D01*
X147990857Y-120700715D01*
X148038476Y-120700715D01*
X148133714Y-120653096D01*
X148181333Y-120605477D01*
X148228952Y-120510239D01*
X148228952Y-120319762D01*
X148276571Y-120224524D01*
X148324190Y-120176905D01*
X148419429Y-120129286D01*
X148609905Y-120129286D01*
X148705143Y-120176905D01*
X148752762Y-120224524D01*
X148800381Y-120319762D01*
X148800381Y-120510239D01*
X148752762Y-120605477D01*
X148705143Y-120653096D01*
X148609905Y-120700715D01*
X148419429Y-120700715D01*
X148324190Y-120653096D01*
X148276571Y-120605477D01*
X148228952Y-120510239D01*
M02*
