G04 #@! TF.FileFunction,Copper,L2,Bot,Signal*
%FSLAX46Y46*%
G04 Gerber Fmt 4.6, Leading zero omitted, Abs format (unit mm)*
G04 Created by KiCad (PCBNEW 4.0.6-e0-6349~53~ubuntu16.04.1) date Thu Jul 27 14:37:32 2017*
%MOMM*%
%LPD*%
G01*
G04 APERTURE LIST*
%ADD10C,0.100000*%
%ADD11O,1.727200X2.032000*%
%ADD12C,4.064000*%
%ADD13R,2.032000X1.727200*%
%ADD14O,2.032000X1.727200*%
%ADD15C,0.600000*%
%ADD16C,0.250000*%
%ADD17C,0.254000*%
G04 APERTURE END LIST*
D10*
D11*
X138938000Y-123825000D03*
X141478000Y-123825000D03*
X144018000Y-123825000D03*
X146558000Y-123825000D03*
X149098000Y-123825000D03*
X151638000Y-123825000D03*
X154178000Y-123825000D03*
X156718000Y-123825000D03*
X161798000Y-123825000D03*
X164338000Y-123825000D03*
X166878000Y-123825000D03*
X169418000Y-123825000D03*
X171958000Y-123825000D03*
X174498000Y-123825000D03*
X129794000Y-75565000D03*
X132334000Y-75565000D03*
X134874000Y-75565000D03*
X137414000Y-75565000D03*
X139954000Y-75565000D03*
X142494000Y-75565000D03*
X145034000Y-75565000D03*
X147574000Y-75565000D03*
X150114000Y-75565000D03*
X152654000Y-75565000D03*
X156718000Y-75565000D03*
X159258000Y-75565000D03*
X161798000Y-75565000D03*
X164338000Y-75565000D03*
X166878000Y-75565000D03*
X169418000Y-75565000D03*
X171958000Y-75565000D03*
X174498000Y-75565000D03*
D12*
X124968000Y-123825000D03*
X177038000Y-118745000D03*
X126238000Y-75565000D03*
X177038000Y-90805000D03*
D13*
X128778000Y-108585000D03*
D14*
X128778000Y-106045000D03*
X128778000Y-103505000D03*
X128778000Y-100965000D03*
X128778000Y-98425000D03*
X128778000Y-95885000D03*
X128778000Y-93345000D03*
X128778000Y-90805000D03*
X128778000Y-88265000D03*
X128778000Y-85725000D03*
D13*
X138938000Y-108525000D03*
D14*
X138938000Y-105985000D03*
X138938000Y-103445000D03*
X138938000Y-100905000D03*
X138938000Y-98365000D03*
X138938000Y-95825000D03*
X138938000Y-93285000D03*
X138938000Y-90745000D03*
X138938000Y-88205000D03*
X138938000Y-85665000D03*
D13*
X149098000Y-108585000D03*
D14*
X149098000Y-106045000D03*
X149098000Y-103505000D03*
X149098000Y-100965000D03*
X149098000Y-98425000D03*
X149098000Y-95885000D03*
X149098000Y-93345000D03*
X149098000Y-90805000D03*
X149098000Y-88265000D03*
X149098000Y-85725000D03*
D13*
X159258000Y-108585000D03*
D14*
X159258000Y-106045000D03*
X159258000Y-103505000D03*
X159258000Y-100965000D03*
X159258000Y-98425000D03*
X159258000Y-95885000D03*
X159258000Y-93345000D03*
X159258000Y-90805000D03*
X159258000Y-88265000D03*
X159258000Y-85725000D03*
D15*
X136398000Y-114935000D03*
X146558000Y-114935000D03*
X156718000Y-114935000D03*
X166878000Y-114935000D03*
X170053000Y-86675000D03*
X125674011Y-118403194D03*
X127762000Y-118999000D03*
X125349000Y-119761000D03*
X127762000Y-119888000D03*
X154178000Y-88265000D03*
X154178000Y-90805000D03*
X154178000Y-93345000D03*
X154178000Y-95885000D03*
X154178000Y-98425000D03*
X154178000Y-100965000D03*
X154178000Y-103505000D03*
X154178000Y-106045000D03*
X155311010Y-77597000D03*
X158044596Y-81595697D03*
X154559002Y-78486000D03*
X157988000Y-82550000D03*
X171958000Y-85598000D03*
X171958000Y-83439000D03*
X168148000Y-85598000D03*
X168148000Y-83474989D03*
D16*
X125974010Y-118703193D02*
X125674011Y-118403194D01*
X126269817Y-118999000D02*
X125974010Y-118703193D01*
X127762000Y-118999000D02*
X126269817Y-118999000D01*
X127762000Y-119888000D02*
X125476000Y-119888000D01*
X125476000Y-119888000D02*
X125349000Y-119761000D01*
X149098000Y-88265000D02*
X154178000Y-88265000D01*
X149098000Y-90805000D02*
X154178000Y-90805000D01*
X149098000Y-93345000D02*
X154178000Y-93345000D01*
X149098000Y-95885000D02*
X154178000Y-95885000D01*
X149098000Y-98425000D02*
X154178000Y-98425000D01*
X149098000Y-100965000D02*
X154178000Y-100965000D01*
X149098000Y-103505000D02*
X154178000Y-103505000D01*
X149098000Y-106045000D02*
X154178000Y-106045000D01*
X158044596Y-81595697D02*
X155311010Y-78862111D01*
X155311010Y-78862111D02*
X155311010Y-78021264D01*
X155311010Y-78021264D02*
X155311010Y-77597000D01*
X157988000Y-82550000D02*
X154559002Y-79121002D01*
X154559002Y-79121002D02*
X154559002Y-78910264D01*
X154559002Y-78910264D02*
X154559002Y-78486000D01*
X171958000Y-83439000D02*
X171958000Y-85598000D01*
X168148000Y-83474989D02*
X168148000Y-85598000D01*
X126949200Y-106908600D02*
X126949200Y-87401400D01*
X126949200Y-87401400D02*
X128625600Y-85725000D01*
X128625600Y-85725000D02*
X128778000Y-85725000D01*
X128778000Y-108585000D02*
X128625600Y-108585000D01*
X128625600Y-108585000D02*
X126949200Y-106908600D01*
X137210800Y-108063800D02*
X137210800Y-87239800D01*
X137210800Y-87239800D02*
X138785600Y-85665000D01*
X138785600Y-85665000D02*
X138938000Y-85665000D01*
X138938000Y-108525000D02*
X137672000Y-108525000D01*
X137672000Y-108525000D02*
X137210800Y-108063800D01*
X147624800Y-107264200D02*
X147624800Y-87045800D01*
X147624800Y-87045800D02*
X148945600Y-85725000D01*
X148945600Y-85725000D02*
X149098000Y-85725000D01*
X149098000Y-108585000D02*
X148945600Y-108585000D01*
X148945600Y-108585000D02*
X147624800Y-107264200D01*
X157632400Y-107111800D02*
X157632400Y-87198200D01*
X157632400Y-87198200D02*
X159105600Y-85725000D01*
X159105600Y-85725000D02*
X159258000Y-85725000D01*
X159258000Y-108585000D02*
X159105600Y-108585000D01*
X159105600Y-108585000D02*
X157632400Y-107111800D01*
D17*
G36*
X123978345Y-74052293D02*
X123571464Y-75032173D01*
X123570538Y-76093172D01*
X123975709Y-77073761D01*
X124725293Y-77824655D01*
X125705173Y-78231536D01*
X126766172Y-78232462D01*
X127746761Y-77827291D01*
X128497655Y-77077707D01*
X128657071Y-76693789D01*
X128734330Y-76809415D01*
X129220511Y-77134271D01*
X129794000Y-77248345D01*
X130367489Y-77134271D01*
X130853670Y-76809415D01*
X131064000Y-76494634D01*
X131274330Y-76809415D01*
X131760511Y-77134271D01*
X132334000Y-77248345D01*
X132907489Y-77134271D01*
X133393670Y-76809415D01*
X133604000Y-76494634D01*
X133814330Y-76809415D01*
X134300511Y-77134271D01*
X134874000Y-77248345D01*
X135447489Y-77134271D01*
X135933670Y-76809415D01*
X136140461Y-76499931D01*
X136511964Y-76915732D01*
X137039209Y-77169709D01*
X137054974Y-77172358D01*
X137287000Y-77051217D01*
X137287000Y-75692000D01*
X137267000Y-75692000D01*
X137267000Y-75438000D01*
X137287000Y-75438000D01*
X137287000Y-74078783D01*
X137541000Y-74078783D01*
X137541000Y-75438000D01*
X137561000Y-75438000D01*
X137561000Y-75692000D01*
X137541000Y-75692000D01*
X137541000Y-77051217D01*
X137773026Y-77172358D01*
X137788791Y-77169709D01*
X138316036Y-76915732D01*
X138687539Y-76499931D01*
X138894330Y-76809415D01*
X139380511Y-77134271D01*
X139954000Y-77248345D01*
X140527489Y-77134271D01*
X141013670Y-76809415D01*
X141224000Y-76494634D01*
X141434330Y-76809415D01*
X141920511Y-77134271D01*
X142494000Y-77248345D01*
X143067489Y-77134271D01*
X143553670Y-76809415D01*
X143764000Y-76494634D01*
X143974330Y-76809415D01*
X144460511Y-77134271D01*
X145034000Y-77248345D01*
X145607489Y-77134271D01*
X146093670Y-76809415D01*
X146304000Y-76494634D01*
X146514330Y-76809415D01*
X147000511Y-77134271D01*
X147574000Y-77248345D01*
X148147489Y-77134271D01*
X148633670Y-76809415D01*
X148844000Y-76494634D01*
X149054330Y-76809415D01*
X149540511Y-77134271D01*
X150114000Y-77248345D01*
X150687489Y-77134271D01*
X151173670Y-76809415D01*
X151384000Y-76494634D01*
X151594330Y-76809415D01*
X152080511Y-77134271D01*
X152654000Y-77248345D01*
X153227489Y-77134271D01*
X153713670Y-76809415D01*
X154038526Y-76323234D01*
X154152600Y-75749745D01*
X154152600Y-75380255D01*
X154038526Y-74806766D01*
X153713670Y-74320585D01*
X153227489Y-73995729D01*
X152654000Y-73881655D01*
X152080511Y-73995729D01*
X151594330Y-74320585D01*
X151384000Y-74635366D01*
X151173670Y-74320585D01*
X150687489Y-73995729D01*
X150114000Y-73881655D01*
X149540511Y-73995729D01*
X149054330Y-74320585D01*
X148844000Y-74635366D01*
X148633670Y-74320585D01*
X148147489Y-73995729D01*
X147574000Y-73881655D01*
X147000511Y-73995729D01*
X146514330Y-74320585D01*
X146304000Y-74635366D01*
X146093670Y-74320585D01*
X145607489Y-73995729D01*
X145034000Y-73881655D01*
X144460511Y-73995729D01*
X143974330Y-74320585D01*
X143764000Y-74635366D01*
X143553670Y-74320585D01*
X143067489Y-73995729D01*
X142494000Y-73881655D01*
X141920511Y-73995729D01*
X141434330Y-74320585D01*
X141224000Y-74635366D01*
X141013670Y-74320585D01*
X140527489Y-73995729D01*
X139954000Y-73881655D01*
X139380511Y-73995729D01*
X138894330Y-74320585D01*
X138687539Y-74630069D01*
X138316036Y-74214268D01*
X137788791Y-73960291D01*
X137773026Y-73957642D01*
X137541000Y-74078783D01*
X137287000Y-74078783D01*
X137054974Y-73957642D01*
X137039209Y-73960291D01*
X136511964Y-74214268D01*
X136140461Y-74630069D01*
X135933670Y-74320585D01*
X135447489Y-73995729D01*
X134874000Y-73881655D01*
X134300511Y-73995729D01*
X133814330Y-74320585D01*
X133604000Y-74635366D01*
X133393670Y-74320585D01*
X132907489Y-73995729D01*
X132334000Y-73881655D01*
X131760511Y-73995729D01*
X131274330Y-74320585D01*
X131064000Y-74635366D01*
X130853670Y-74320585D01*
X130367489Y-73995729D01*
X129794000Y-73881655D01*
X129220511Y-73995729D01*
X128734330Y-74320585D01*
X128657208Y-74436007D01*
X128500291Y-74056239D01*
X128179612Y-73735000D01*
X175219908Y-73735000D01*
X176328000Y-74843091D01*
X176328000Y-85979000D01*
X176382046Y-86250705D01*
X176535954Y-86481046D01*
X178868000Y-88813091D01*
X178868000Y-88863193D01*
X178550707Y-88545345D01*
X177570827Y-88138464D01*
X176509828Y-88137538D01*
X175529239Y-88542709D01*
X174778345Y-89292293D01*
X174371464Y-90272173D01*
X174370538Y-91333172D01*
X174775709Y-92313761D01*
X175525293Y-93064655D01*
X176505173Y-93471536D01*
X177566172Y-93472462D01*
X178546761Y-93067291D01*
X178868000Y-92746612D01*
X178868000Y-116803193D01*
X178550707Y-116485345D01*
X177570827Y-116078464D01*
X176509828Y-116077538D01*
X175529239Y-116482709D01*
X174778345Y-117232293D01*
X174371464Y-118212173D01*
X174370538Y-119273172D01*
X174775709Y-120253761D01*
X175525293Y-121004655D01*
X176505173Y-121411536D01*
X177566172Y-121412462D01*
X178546761Y-121007291D01*
X178868000Y-120686612D01*
X178868000Y-120990909D01*
X176535954Y-123322954D01*
X176382046Y-123553295D01*
X176328000Y-123825000D01*
X176328000Y-125655000D01*
X126909807Y-125655000D01*
X127227655Y-125337707D01*
X127634536Y-124357827D01*
X127635162Y-123640255D01*
X137439400Y-123640255D01*
X137439400Y-124009745D01*
X137553474Y-124583234D01*
X137878330Y-125069415D01*
X138364511Y-125394271D01*
X138938000Y-125508345D01*
X139511489Y-125394271D01*
X139997670Y-125069415D01*
X140208000Y-124754634D01*
X140418330Y-125069415D01*
X140904511Y-125394271D01*
X141478000Y-125508345D01*
X142051489Y-125394271D01*
X142537670Y-125069415D01*
X142748000Y-124754634D01*
X142958330Y-125069415D01*
X143444511Y-125394271D01*
X144018000Y-125508345D01*
X144591489Y-125394271D01*
X145077670Y-125069415D01*
X145288000Y-124754634D01*
X145498330Y-125069415D01*
X145984511Y-125394271D01*
X146558000Y-125508345D01*
X147131489Y-125394271D01*
X147617670Y-125069415D01*
X147828000Y-124754634D01*
X148038330Y-125069415D01*
X148524511Y-125394271D01*
X149098000Y-125508345D01*
X149671489Y-125394271D01*
X150157670Y-125069415D01*
X150364461Y-124759931D01*
X150735964Y-125175732D01*
X151263209Y-125429709D01*
X151278974Y-125432358D01*
X151511000Y-125311217D01*
X151511000Y-123952000D01*
X151765000Y-123952000D01*
X151765000Y-125311217D01*
X151997026Y-125432358D01*
X152012791Y-125429709D01*
X152540036Y-125175732D01*
X152908000Y-124763892D01*
X153275964Y-125175732D01*
X153803209Y-125429709D01*
X153818974Y-125432358D01*
X154051000Y-125311217D01*
X154051000Y-123952000D01*
X151765000Y-123952000D01*
X151511000Y-123952000D01*
X151491000Y-123952000D01*
X151491000Y-123698000D01*
X151511000Y-123698000D01*
X151511000Y-122338783D01*
X151765000Y-122338783D01*
X151765000Y-123698000D01*
X154051000Y-123698000D01*
X154051000Y-122338783D01*
X154305000Y-122338783D01*
X154305000Y-123698000D01*
X154325000Y-123698000D01*
X154325000Y-123952000D01*
X154305000Y-123952000D01*
X154305000Y-125311217D01*
X154537026Y-125432358D01*
X154552791Y-125429709D01*
X155080036Y-125175732D01*
X155451539Y-124759931D01*
X155658330Y-125069415D01*
X156144511Y-125394271D01*
X156718000Y-125508345D01*
X157291489Y-125394271D01*
X157777670Y-125069415D01*
X158102526Y-124583234D01*
X158216600Y-124009745D01*
X158216600Y-123640255D01*
X160299400Y-123640255D01*
X160299400Y-124009745D01*
X160413474Y-124583234D01*
X160738330Y-125069415D01*
X161224511Y-125394271D01*
X161798000Y-125508345D01*
X162371489Y-125394271D01*
X162857670Y-125069415D01*
X163068000Y-124754634D01*
X163278330Y-125069415D01*
X163764511Y-125394271D01*
X164338000Y-125508345D01*
X164911489Y-125394271D01*
X165397670Y-125069415D01*
X165608000Y-124754634D01*
X165818330Y-125069415D01*
X166304511Y-125394271D01*
X166878000Y-125508345D01*
X167451489Y-125394271D01*
X167937670Y-125069415D01*
X168148000Y-124754634D01*
X168358330Y-125069415D01*
X168844511Y-125394271D01*
X169418000Y-125508345D01*
X169991489Y-125394271D01*
X170477670Y-125069415D01*
X170688000Y-124754634D01*
X170898330Y-125069415D01*
X171384511Y-125394271D01*
X171958000Y-125508345D01*
X172531489Y-125394271D01*
X173017670Y-125069415D01*
X173228000Y-124754634D01*
X173438330Y-125069415D01*
X173924511Y-125394271D01*
X174498000Y-125508345D01*
X175071489Y-125394271D01*
X175557670Y-125069415D01*
X175882526Y-124583234D01*
X175996600Y-124009745D01*
X175996600Y-123640255D01*
X175882526Y-123066766D01*
X175557670Y-122580585D01*
X175071489Y-122255729D01*
X174498000Y-122141655D01*
X173924511Y-122255729D01*
X173438330Y-122580585D01*
X173228000Y-122895366D01*
X173017670Y-122580585D01*
X172531489Y-122255729D01*
X171958000Y-122141655D01*
X171384511Y-122255729D01*
X170898330Y-122580585D01*
X170688000Y-122895366D01*
X170477670Y-122580585D01*
X169991489Y-122255729D01*
X169418000Y-122141655D01*
X168844511Y-122255729D01*
X168358330Y-122580585D01*
X168148000Y-122895366D01*
X167937670Y-122580585D01*
X167451489Y-122255729D01*
X166878000Y-122141655D01*
X166304511Y-122255729D01*
X165818330Y-122580585D01*
X165608000Y-122895366D01*
X165397670Y-122580585D01*
X164911489Y-122255729D01*
X164338000Y-122141655D01*
X163764511Y-122255729D01*
X163278330Y-122580585D01*
X163068000Y-122895366D01*
X162857670Y-122580585D01*
X162371489Y-122255729D01*
X161798000Y-122141655D01*
X161224511Y-122255729D01*
X160738330Y-122580585D01*
X160413474Y-123066766D01*
X160299400Y-123640255D01*
X158216600Y-123640255D01*
X158102526Y-123066766D01*
X157777670Y-122580585D01*
X157291489Y-122255729D01*
X156718000Y-122141655D01*
X156144511Y-122255729D01*
X155658330Y-122580585D01*
X155451539Y-122890069D01*
X155080036Y-122474268D01*
X154552791Y-122220291D01*
X154537026Y-122217642D01*
X154305000Y-122338783D01*
X154051000Y-122338783D01*
X153818974Y-122217642D01*
X153803209Y-122220291D01*
X153275964Y-122474268D01*
X152908000Y-122886108D01*
X152540036Y-122474268D01*
X152012791Y-122220291D01*
X151997026Y-122217642D01*
X151765000Y-122338783D01*
X151511000Y-122338783D01*
X151278974Y-122217642D01*
X151263209Y-122220291D01*
X150735964Y-122474268D01*
X150364461Y-122890069D01*
X150157670Y-122580585D01*
X149671489Y-122255729D01*
X149098000Y-122141655D01*
X148524511Y-122255729D01*
X148038330Y-122580585D01*
X147828000Y-122895366D01*
X147617670Y-122580585D01*
X147131489Y-122255729D01*
X146558000Y-122141655D01*
X145984511Y-122255729D01*
X145498330Y-122580585D01*
X145288000Y-122895366D01*
X145077670Y-122580585D01*
X144591489Y-122255729D01*
X144018000Y-122141655D01*
X143444511Y-122255729D01*
X142958330Y-122580585D01*
X142748000Y-122895366D01*
X142537670Y-122580585D01*
X142051489Y-122255729D01*
X141478000Y-122141655D01*
X140904511Y-122255729D01*
X140418330Y-122580585D01*
X140208000Y-122895366D01*
X139997670Y-122580585D01*
X139511489Y-122255729D01*
X138938000Y-122141655D01*
X138364511Y-122255729D01*
X137878330Y-122580585D01*
X137553474Y-123066766D01*
X137439400Y-123640255D01*
X127635162Y-123640255D01*
X127635462Y-123296828D01*
X127230291Y-122316239D01*
X126480707Y-121565345D01*
X125500827Y-121158464D01*
X124439828Y-121157538D01*
X123459239Y-121562709D01*
X122708345Y-122312293D01*
X122301464Y-123292173D01*
X122300538Y-124353172D01*
X122705709Y-125333761D01*
X123026388Y-125655000D01*
X111708000Y-125655000D01*
X111708000Y-119946167D01*
X124413838Y-119946167D01*
X124555883Y-120289943D01*
X124818673Y-120553192D01*
X125162201Y-120695838D01*
X125534167Y-120696162D01*
X125650728Y-120648000D01*
X127199537Y-120648000D01*
X127231673Y-120680192D01*
X127575201Y-120822838D01*
X127947167Y-120823162D01*
X128290943Y-120681117D01*
X128554192Y-120418327D01*
X128696838Y-120074799D01*
X128697162Y-119702833D01*
X128589920Y-119443286D01*
X128696838Y-119185799D01*
X128697162Y-118813833D01*
X128555117Y-118470057D01*
X128292327Y-118206808D01*
X127948799Y-118064162D01*
X127576833Y-118063838D01*
X127233057Y-118205883D01*
X127199882Y-118239000D01*
X126609155Y-118239000D01*
X126609173Y-118218027D01*
X126467128Y-117874251D01*
X126204338Y-117611002D01*
X125860810Y-117468356D01*
X125488844Y-117468032D01*
X125145068Y-117610077D01*
X124881819Y-117872867D01*
X124739173Y-118216395D01*
X124738849Y-118588361D01*
X124880894Y-118932137D01*
X124888392Y-118939648D01*
X124820057Y-118967883D01*
X124556808Y-119230673D01*
X124414162Y-119574201D01*
X124413838Y-119946167D01*
X111708000Y-119946167D01*
X111708000Y-87401400D01*
X126189200Y-87401400D01*
X126189200Y-106908600D01*
X126247052Y-107199439D01*
X126411799Y-107446001D01*
X127114560Y-108148762D01*
X127114560Y-109448600D01*
X127158838Y-109683917D01*
X127297910Y-109900041D01*
X127510110Y-110045031D01*
X127762000Y-110096040D01*
X129794000Y-110096040D01*
X130029317Y-110051762D01*
X130245441Y-109912690D01*
X130390431Y-109700490D01*
X130441440Y-109448600D01*
X130441440Y-107721400D01*
X130397162Y-107486083D01*
X130258090Y-107269959D01*
X130045890Y-107124969D01*
X130004561Y-107116600D01*
X130022415Y-107104670D01*
X130347271Y-106618489D01*
X130461345Y-106045000D01*
X130347271Y-105471511D01*
X130022415Y-104985330D01*
X129707634Y-104775000D01*
X130022415Y-104564670D01*
X130347271Y-104078489D01*
X130461345Y-103505000D01*
X130347271Y-102931511D01*
X130022415Y-102445330D01*
X129707634Y-102235000D01*
X130022415Y-102024670D01*
X130347271Y-101538489D01*
X130461345Y-100965000D01*
X130347271Y-100391511D01*
X130022415Y-99905330D01*
X129707634Y-99695000D01*
X130022415Y-99484670D01*
X130347271Y-98998489D01*
X130461345Y-98425000D01*
X130347271Y-97851511D01*
X130022415Y-97365330D01*
X129707634Y-97155000D01*
X130022415Y-96944670D01*
X130347271Y-96458489D01*
X130461345Y-95885000D01*
X130347271Y-95311511D01*
X130022415Y-94825330D01*
X129707634Y-94615000D01*
X130022415Y-94404670D01*
X130347271Y-93918489D01*
X130461345Y-93345000D01*
X130347271Y-92771511D01*
X130022415Y-92285330D01*
X129707634Y-92075000D01*
X130022415Y-91864670D01*
X130347271Y-91378489D01*
X130461345Y-90805000D01*
X130347271Y-90231511D01*
X130022415Y-89745330D01*
X129707634Y-89535000D01*
X130022415Y-89324670D01*
X130347271Y-88838489D01*
X130461345Y-88265000D01*
X130347271Y-87691511D01*
X130045448Y-87239800D01*
X136450800Y-87239800D01*
X136450800Y-108063800D01*
X136508652Y-108354639D01*
X136673399Y-108601201D01*
X137134599Y-109062401D01*
X137274560Y-109155920D01*
X137274560Y-109388600D01*
X137318838Y-109623917D01*
X137457910Y-109840041D01*
X137670110Y-109985031D01*
X137922000Y-110036040D01*
X139954000Y-110036040D01*
X140189317Y-109991762D01*
X140405441Y-109852690D01*
X140550431Y-109640490D01*
X140601440Y-109388600D01*
X140601440Y-107661400D01*
X140557162Y-107426083D01*
X140418090Y-107209959D01*
X140205890Y-107064969D01*
X140164561Y-107056600D01*
X140182415Y-107044670D01*
X140507271Y-106558489D01*
X140621345Y-105985000D01*
X140507271Y-105411511D01*
X140182415Y-104925330D01*
X139867634Y-104715000D01*
X140182415Y-104504670D01*
X140507271Y-104018489D01*
X140621345Y-103445000D01*
X140507271Y-102871511D01*
X140182415Y-102385330D01*
X139867634Y-102175000D01*
X140182415Y-101964670D01*
X140507271Y-101478489D01*
X140621345Y-100905000D01*
X140507271Y-100331511D01*
X140182415Y-99845330D01*
X139867634Y-99635000D01*
X140182415Y-99424670D01*
X140507271Y-98938489D01*
X140621345Y-98365000D01*
X140507271Y-97791511D01*
X140182415Y-97305330D01*
X139867634Y-97095000D01*
X140182415Y-96884670D01*
X140507271Y-96398489D01*
X140621345Y-95825000D01*
X140507271Y-95251511D01*
X140182415Y-94765330D01*
X139867634Y-94555000D01*
X140182415Y-94344670D01*
X140507271Y-93858489D01*
X140621345Y-93285000D01*
X140507271Y-92711511D01*
X140182415Y-92225330D01*
X139867634Y-92015000D01*
X140182415Y-91804670D01*
X140507271Y-91318489D01*
X140621345Y-90745000D01*
X140507271Y-90171511D01*
X140182415Y-89685330D01*
X139867634Y-89475000D01*
X140182415Y-89264670D01*
X140507271Y-88778489D01*
X140621345Y-88205000D01*
X140507271Y-87631511D01*
X140182415Y-87145330D01*
X140033458Y-87045800D01*
X146864800Y-87045800D01*
X146864800Y-107264200D01*
X146922652Y-107555039D01*
X147087399Y-107801601D01*
X147434560Y-108148762D01*
X147434560Y-109448600D01*
X147478838Y-109683917D01*
X147617910Y-109900041D01*
X147830110Y-110045031D01*
X148082000Y-110096040D01*
X150114000Y-110096040D01*
X150349317Y-110051762D01*
X150565441Y-109912690D01*
X150710431Y-109700490D01*
X150761440Y-109448600D01*
X150761440Y-107721400D01*
X150717162Y-107486083D01*
X150578090Y-107269959D01*
X150365890Y-107124969D01*
X150324561Y-107116600D01*
X150342415Y-107104670D01*
X150542648Y-106805000D01*
X153615537Y-106805000D01*
X153647673Y-106837192D01*
X153991201Y-106979838D01*
X154363167Y-106980162D01*
X154706943Y-106838117D01*
X154970192Y-106575327D01*
X155112838Y-106231799D01*
X155113162Y-105859833D01*
X154971117Y-105516057D01*
X154708327Y-105252808D01*
X154364799Y-105110162D01*
X153992833Y-105109838D01*
X153649057Y-105251883D01*
X153615882Y-105285000D01*
X150542648Y-105285000D01*
X150342415Y-104985330D01*
X150027634Y-104775000D01*
X150342415Y-104564670D01*
X150542648Y-104265000D01*
X153615537Y-104265000D01*
X153647673Y-104297192D01*
X153991201Y-104439838D01*
X154363167Y-104440162D01*
X154706943Y-104298117D01*
X154970192Y-104035327D01*
X155112838Y-103691799D01*
X155113162Y-103319833D01*
X154971117Y-102976057D01*
X154708327Y-102712808D01*
X154364799Y-102570162D01*
X153992833Y-102569838D01*
X153649057Y-102711883D01*
X153615882Y-102745000D01*
X150542648Y-102745000D01*
X150342415Y-102445330D01*
X150027634Y-102235000D01*
X150342415Y-102024670D01*
X150542648Y-101725000D01*
X153615537Y-101725000D01*
X153647673Y-101757192D01*
X153991201Y-101899838D01*
X154363167Y-101900162D01*
X154706943Y-101758117D01*
X154970192Y-101495327D01*
X155112838Y-101151799D01*
X155113162Y-100779833D01*
X154971117Y-100436057D01*
X154708327Y-100172808D01*
X154364799Y-100030162D01*
X153992833Y-100029838D01*
X153649057Y-100171883D01*
X153615882Y-100205000D01*
X150542648Y-100205000D01*
X150342415Y-99905330D01*
X150027634Y-99695000D01*
X150342415Y-99484670D01*
X150542648Y-99185000D01*
X153615537Y-99185000D01*
X153647673Y-99217192D01*
X153991201Y-99359838D01*
X154363167Y-99360162D01*
X154706943Y-99218117D01*
X154970192Y-98955327D01*
X155112838Y-98611799D01*
X155113162Y-98239833D01*
X154971117Y-97896057D01*
X154708327Y-97632808D01*
X154364799Y-97490162D01*
X153992833Y-97489838D01*
X153649057Y-97631883D01*
X153615882Y-97665000D01*
X150542648Y-97665000D01*
X150342415Y-97365330D01*
X150027634Y-97155000D01*
X150342415Y-96944670D01*
X150542648Y-96645000D01*
X153615537Y-96645000D01*
X153647673Y-96677192D01*
X153991201Y-96819838D01*
X154363167Y-96820162D01*
X154706943Y-96678117D01*
X154970192Y-96415327D01*
X155112838Y-96071799D01*
X155113162Y-95699833D01*
X154971117Y-95356057D01*
X154708327Y-95092808D01*
X154364799Y-94950162D01*
X153992833Y-94949838D01*
X153649057Y-95091883D01*
X153615882Y-95125000D01*
X150542648Y-95125000D01*
X150342415Y-94825330D01*
X150027634Y-94615000D01*
X150342415Y-94404670D01*
X150542648Y-94105000D01*
X153615537Y-94105000D01*
X153647673Y-94137192D01*
X153991201Y-94279838D01*
X154363167Y-94280162D01*
X154706943Y-94138117D01*
X154970192Y-93875327D01*
X155112838Y-93531799D01*
X155113162Y-93159833D01*
X154971117Y-92816057D01*
X154708327Y-92552808D01*
X154364799Y-92410162D01*
X153992833Y-92409838D01*
X153649057Y-92551883D01*
X153615882Y-92585000D01*
X150542648Y-92585000D01*
X150342415Y-92285330D01*
X150027634Y-92075000D01*
X150342415Y-91864670D01*
X150542648Y-91565000D01*
X153615537Y-91565000D01*
X153647673Y-91597192D01*
X153991201Y-91739838D01*
X154363167Y-91740162D01*
X154706943Y-91598117D01*
X154970192Y-91335327D01*
X155112838Y-90991799D01*
X155113162Y-90619833D01*
X154971117Y-90276057D01*
X154708327Y-90012808D01*
X154364799Y-89870162D01*
X153992833Y-89869838D01*
X153649057Y-90011883D01*
X153615882Y-90045000D01*
X150542648Y-90045000D01*
X150342415Y-89745330D01*
X150027634Y-89535000D01*
X150342415Y-89324670D01*
X150542648Y-89025000D01*
X153615537Y-89025000D01*
X153647673Y-89057192D01*
X153991201Y-89199838D01*
X154363167Y-89200162D01*
X154706943Y-89058117D01*
X154970192Y-88795327D01*
X155112838Y-88451799D01*
X155113162Y-88079833D01*
X154971117Y-87736057D01*
X154708327Y-87472808D01*
X154364799Y-87330162D01*
X153992833Y-87329838D01*
X153649057Y-87471883D01*
X153615882Y-87505000D01*
X150542648Y-87505000D01*
X150342415Y-87205330D01*
X150331745Y-87198200D01*
X156872400Y-87198200D01*
X156872400Y-107111800D01*
X156930252Y-107402639D01*
X157094999Y-107649201D01*
X157594560Y-108148762D01*
X157594560Y-109448600D01*
X157638838Y-109683917D01*
X157777910Y-109900041D01*
X157990110Y-110045031D01*
X158242000Y-110096040D01*
X160274000Y-110096040D01*
X160509317Y-110051762D01*
X160725441Y-109912690D01*
X160870431Y-109700490D01*
X160921440Y-109448600D01*
X160921440Y-107721400D01*
X160877162Y-107486083D01*
X160738090Y-107269959D01*
X160525890Y-107124969D01*
X160484561Y-107116600D01*
X160502415Y-107104670D01*
X160827271Y-106618489D01*
X160941345Y-106045000D01*
X160827271Y-105471511D01*
X160502415Y-104985330D01*
X160187634Y-104775000D01*
X160502415Y-104564670D01*
X160827271Y-104078489D01*
X160941345Y-103505000D01*
X160827271Y-102931511D01*
X160502415Y-102445330D01*
X160187634Y-102235000D01*
X160502415Y-102024670D01*
X160827271Y-101538489D01*
X160941345Y-100965000D01*
X160827271Y-100391511D01*
X160502415Y-99905330D01*
X160187634Y-99695000D01*
X160502415Y-99484670D01*
X160827271Y-98998489D01*
X160941345Y-98425000D01*
X160827271Y-97851511D01*
X160502415Y-97365330D01*
X160187634Y-97155000D01*
X160502415Y-96944670D01*
X160827271Y-96458489D01*
X160941345Y-95885000D01*
X160827271Y-95311511D01*
X160502415Y-94825330D01*
X160187634Y-94615000D01*
X160502415Y-94404670D01*
X160827271Y-93918489D01*
X160941345Y-93345000D01*
X160827271Y-92771511D01*
X160502415Y-92285330D01*
X160187634Y-92075000D01*
X160502415Y-91864670D01*
X160827271Y-91378489D01*
X160941345Y-90805000D01*
X160827271Y-90231511D01*
X160502415Y-89745330D01*
X160187634Y-89535000D01*
X160502415Y-89324670D01*
X160827271Y-88838489D01*
X160941345Y-88265000D01*
X160827271Y-87691511D01*
X160502415Y-87205330D01*
X160187634Y-86995000D01*
X160502415Y-86784670D01*
X160827271Y-86298489D01*
X160941345Y-85725000D01*
X160827271Y-85151511D01*
X160502415Y-84665330D01*
X160016234Y-84340474D01*
X159442745Y-84226400D01*
X159073255Y-84226400D01*
X158499766Y-84340474D01*
X158013585Y-84665330D01*
X157688729Y-85151511D01*
X157574655Y-85725000D01*
X157650334Y-86105464D01*
X157094999Y-86660799D01*
X156930252Y-86907361D01*
X156872400Y-87198200D01*
X150331745Y-87198200D01*
X150027634Y-86995000D01*
X150342415Y-86784670D01*
X150667271Y-86298489D01*
X150781345Y-85725000D01*
X150667271Y-85151511D01*
X150342415Y-84665330D01*
X149856234Y-84340474D01*
X149282745Y-84226400D01*
X148913255Y-84226400D01*
X148339766Y-84340474D01*
X147853585Y-84665330D01*
X147528729Y-85151511D01*
X147414655Y-85725000D01*
X147490334Y-86105464D01*
X147087399Y-86508399D01*
X146922652Y-86754961D01*
X146864800Y-87045800D01*
X140033458Y-87045800D01*
X139867634Y-86935000D01*
X140182415Y-86724670D01*
X140507271Y-86238489D01*
X140621345Y-85665000D01*
X140507271Y-85091511D01*
X140182415Y-84605330D01*
X139696234Y-84280474D01*
X139122745Y-84166400D01*
X138753255Y-84166400D01*
X138179766Y-84280474D01*
X137693585Y-84605330D01*
X137368729Y-85091511D01*
X137254655Y-85665000D01*
X137330334Y-86045464D01*
X136673399Y-86702399D01*
X136508652Y-86948961D01*
X136450800Y-87239800D01*
X130045448Y-87239800D01*
X130022415Y-87205330D01*
X129707634Y-86995000D01*
X130022415Y-86784670D01*
X130347271Y-86298489D01*
X130461345Y-85725000D01*
X130347271Y-85151511D01*
X130022415Y-84665330D01*
X129536234Y-84340474D01*
X128962745Y-84226400D01*
X128593255Y-84226400D01*
X128019766Y-84340474D01*
X127533585Y-84665330D01*
X127208729Y-85151511D01*
X127094655Y-85725000D01*
X127170334Y-86105464D01*
X126411799Y-86863999D01*
X126247052Y-87110561D01*
X126189200Y-87401400D01*
X111708000Y-87401400D01*
X111708000Y-83660156D01*
X167212838Y-83660156D01*
X167354883Y-84003932D01*
X167388000Y-84037107D01*
X167388000Y-85035537D01*
X167355808Y-85067673D01*
X167213162Y-85411201D01*
X167212838Y-85783167D01*
X167354883Y-86126943D01*
X167617673Y-86390192D01*
X167961201Y-86532838D01*
X168333167Y-86533162D01*
X168676943Y-86391117D01*
X168940192Y-86128327D01*
X169082838Y-85784799D01*
X169083162Y-85412833D01*
X168941117Y-85069057D01*
X168908000Y-85035882D01*
X168908000Y-84037452D01*
X168940192Y-84005316D01*
X169082838Y-83661788D01*
X169082870Y-83624167D01*
X171022838Y-83624167D01*
X171164883Y-83967943D01*
X171198000Y-84001118D01*
X171198000Y-85035537D01*
X171165808Y-85067673D01*
X171023162Y-85411201D01*
X171022838Y-85783167D01*
X171164883Y-86126943D01*
X171427673Y-86390192D01*
X171771201Y-86532838D01*
X172143167Y-86533162D01*
X172486943Y-86391117D01*
X172750192Y-86128327D01*
X172892838Y-85784799D01*
X172893162Y-85412833D01*
X172751117Y-85069057D01*
X172718000Y-85035882D01*
X172718000Y-84001463D01*
X172750192Y-83969327D01*
X172892838Y-83625799D01*
X172893162Y-83253833D01*
X172751117Y-82910057D01*
X172488327Y-82646808D01*
X172144799Y-82504162D01*
X171772833Y-82503838D01*
X171429057Y-82645883D01*
X171165808Y-82908673D01*
X171023162Y-83252201D01*
X171022838Y-83624167D01*
X169082870Y-83624167D01*
X169083162Y-83289822D01*
X168941117Y-82946046D01*
X168678327Y-82682797D01*
X168334799Y-82540151D01*
X167962833Y-82539827D01*
X167619057Y-82681872D01*
X167355808Y-82944662D01*
X167213162Y-83288190D01*
X167212838Y-83660156D01*
X111708000Y-83660156D01*
X111708000Y-78671167D01*
X153623840Y-78671167D01*
X153765885Y-79014943D01*
X153799002Y-79048118D01*
X153799002Y-79121002D01*
X153856854Y-79411841D01*
X154021601Y-79658403D01*
X157052878Y-82689680D01*
X157052838Y-82735167D01*
X157194883Y-83078943D01*
X157457673Y-83342192D01*
X157801201Y-83484838D01*
X158173167Y-83485162D01*
X158516943Y-83343117D01*
X158780192Y-83080327D01*
X158922838Y-82736799D01*
X158923162Y-82364833D01*
X158828080Y-82134717D01*
X158836788Y-82126024D01*
X158979434Y-81782496D01*
X158979758Y-81410530D01*
X158837713Y-81066754D01*
X158574923Y-80803505D01*
X158231395Y-80660859D01*
X158184519Y-80660818D01*
X156071010Y-78547309D01*
X156071010Y-78159463D01*
X156103202Y-78127327D01*
X156245848Y-77783799D01*
X156246172Y-77411833D01*
X156126519Y-77122249D01*
X156144511Y-77134271D01*
X156718000Y-77248345D01*
X157291489Y-77134271D01*
X157777670Y-76809415D01*
X157988000Y-76494634D01*
X158198330Y-76809415D01*
X158684511Y-77134271D01*
X159258000Y-77248345D01*
X159831489Y-77134271D01*
X160317670Y-76809415D01*
X160528000Y-76494634D01*
X160738330Y-76809415D01*
X161224511Y-77134271D01*
X161798000Y-77248345D01*
X162371489Y-77134271D01*
X162857670Y-76809415D01*
X163068000Y-76494634D01*
X163278330Y-76809415D01*
X163764511Y-77134271D01*
X164338000Y-77248345D01*
X164911489Y-77134271D01*
X165397670Y-76809415D01*
X165608000Y-76494634D01*
X165818330Y-76809415D01*
X166304511Y-77134271D01*
X166878000Y-77248345D01*
X167451489Y-77134271D01*
X167937670Y-76809415D01*
X168148000Y-76494634D01*
X168358330Y-76809415D01*
X168844511Y-77134271D01*
X169418000Y-77248345D01*
X169991489Y-77134271D01*
X170477670Y-76809415D01*
X170688000Y-76494634D01*
X170898330Y-76809415D01*
X171384511Y-77134271D01*
X171958000Y-77248345D01*
X172531489Y-77134271D01*
X173017670Y-76809415D01*
X173228000Y-76494634D01*
X173438330Y-76809415D01*
X173924511Y-77134271D01*
X174498000Y-77248345D01*
X175071489Y-77134271D01*
X175557670Y-76809415D01*
X175882526Y-76323234D01*
X175996600Y-75749745D01*
X175996600Y-75380255D01*
X175882526Y-74806766D01*
X175557670Y-74320585D01*
X175071489Y-73995729D01*
X174498000Y-73881655D01*
X173924511Y-73995729D01*
X173438330Y-74320585D01*
X173228000Y-74635366D01*
X173017670Y-74320585D01*
X172531489Y-73995729D01*
X171958000Y-73881655D01*
X171384511Y-73995729D01*
X170898330Y-74320585D01*
X170688000Y-74635366D01*
X170477670Y-74320585D01*
X169991489Y-73995729D01*
X169418000Y-73881655D01*
X168844511Y-73995729D01*
X168358330Y-74320585D01*
X168148000Y-74635366D01*
X167937670Y-74320585D01*
X167451489Y-73995729D01*
X166878000Y-73881655D01*
X166304511Y-73995729D01*
X165818330Y-74320585D01*
X165608000Y-74635366D01*
X165397670Y-74320585D01*
X164911489Y-73995729D01*
X164338000Y-73881655D01*
X163764511Y-73995729D01*
X163278330Y-74320585D01*
X163068000Y-74635366D01*
X162857670Y-74320585D01*
X162371489Y-73995729D01*
X161798000Y-73881655D01*
X161224511Y-73995729D01*
X160738330Y-74320585D01*
X160528000Y-74635366D01*
X160317670Y-74320585D01*
X159831489Y-73995729D01*
X159258000Y-73881655D01*
X158684511Y-73995729D01*
X158198330Y-74320585D01*
X157988000Y-74635366D01*
X157777670Y-74320585D01*
X157291489Y-73995729D01*
X156718000Y-73881655D01*
X156144511Y-73995729D01*
X155658330Y-74320585D01*
X155333474Y-74806766D01*
X155219400Y-75380255D01*
X155219400Y-75749745D01*
X155333474Y-76323234D01*
X155583796Y-76697867D01*
X155497809Y-76662162D01*
X155125843Y-76661838D01*
X154782067Y-76803883D01*
X154518818Y-77066673D01*
X154376172Y-77410201D01*
X154376049Y-77550840D01*
X154373835Y-77550838D01*
X154030059Y-77692883D01*
X153766810Y-77955673D01*
X153624164Y-78299201D01*
X153623840Y-78671167D01*
X111708000Y-78671167D01*
X111708000Y-73735000D01*
X124296193Y-73735000D01*
X123978345Y-74052293D01*
X123978345Y-74052293D01*
G37*
X123978345Y-74052293D02*
X123571464Y-75032173D01*
X123570538Y-76093172D01*
X123975709Y-77073761D01*
X124725293Y-77824655D01*
X125705173Y-78231536D01*
X126766172Y-78232462D01*
X127746761Y-77827291D01*
X128497655Y-77077707D01*
X128657071Y-76693789D01*
X128734330Y-76809415D01*
X129220511Y-77134271D01*
X129794000Y-77248345D01*
X130367489Y-77134271D01*
X130853670Y-76809415D01*
X131064000Y-76494634D01*
X131274330Y-76809415D01*
X131760511Y-77134271D01*
X132334000Y-77248345D01*
X132907489Y-77134271D01*
X133393670Y-76809415D01*
X133604000Y-76494634D01*
X133814330Y-76809415D01*
X134300511Y-77134271D01*
X134874000Y-77248345D01*
X135447489Y-77134271D01*
X135933670Y-76809415D01*
X136140461Y-76499931D01*
X136511964Y-76915732D01*
X137039209Y-77169709D01*
X137054974Y-77172358D01*
X137287000Y-77051217D01*
X137287000Y-75692000D01*
X137267000Y-75692000D01*
X137267000Y-75438000D01*
X137287000Y-75438000D01*
X137287000Y-74078783D01*
X137541000Y-74078783D01*
X137541000Y-75438000D01*
X137561000Y-75438000D01*
X137561000Y-75692000D01*
X137541000Y-75692000D01*
X137541000Y-77051217D01*
X137773026Y-77172358D01*
X137788791Y-77169709D01*
X138316036Y-76915732D01*
X138687539Y-76499931D01*
X138894330Y-76809415D01*
X139380511Y-77134271D01*
X139954000Y-77248345D01*
X140527489Y-77134271D01*
X141013670Y-76809415D01*
X141224000Y-76494634D01*
X141434330Y-76809415D01*
X141920511Y-77134271D01*
X142494000Y-77248345D01*
X143067489Y-77134271D01*
X143553670Y-76809415D01*
X143764000Y-76494634D01*
X143974330Y-76809415D01*
X144460511Y-77134271D01*
X145034000Y-77248345D01*
X145607489Y-77134271D01*
X146093670Y-76809415D01*
X146304000Y-76494634D01*
X146514330Y-76809415D01*
X147000511Y-77134271D01*
X147574000Y-77248345D01*
X148147489Y-77134271D01*
X148633670Y-76809415D01*
X148844000Y-76494634D01*
X149054330Y-76809415D01*
X149540511Y-77134271D01*
X150114000Y-77248345D01*
X150687489Y-77134271D01*
X151173670Y-76809415D01*
X151384000Y-76494634D01*
X151594330Y-76809415D01*
X152080511Y-77134271D01*
X152654000Y-77248345D01*
X153227489Y-77134271D01*
X153713670Y-76809415D01*
X154038526Y-76323234D01*
X154152600Y-75749745D01*
X154152600Y-75380255D01*
X154038526Y-74806766D01*
X153713670Y-74320585D01*
X153227489Y-73995729D01*
X152654000Y-73881655D01*
X152080511Y-73995729D01*
X151594330Y-74320585D01*
X151384000Y-74635366D01*
X151173670Y-74320585D01*
X150687489Y-73995729D01*
X150114000Y-73881655D01*
X149540511Y-73995729D01*
X149054330Y-74320585D01*
X148844000Y-74635366D01*
X148633670Y-74320585D01*
X148147489Y-73995729D01*
X147574000Y-73881655D01*
X147000511Y-73995729D01*
X146514330Y-74320585D01*
X146304000Y-74635366D01*
X146093670Y-74320585D01*
X145607489Y-73995729D01*
X145034000Y-73881655D01*
X144460511Y-73995729D01*
X143974330Y-74320585D01*
X143764000Y-74635366D01*
X143553670Y-74320585D01*
X143067489Y-73995729D01*
X142494000Y-73881655D01*
X141920511Y-73995729D01*
X141434330Y-74320585D01*
X141224000Y-74635366D01*
X141013670Y-74320585D01*
X140527489Y-73995729D01*
X139954000Y-73881655D01*
X139380511Y-73995729D01*
X138894330Y-74320585D01*
X138687539Y-74630069D01*
X138316036Y-74214268D01*
X137788791Y-73960291D01*
X137773026Y-73957642D01*
X137541000Y-74078783D01*
X137287000Y-74078783D01*
X137054974Y-73957642D01*
X137039209Y-73960291D01*
X136511964Y-74214268D01*
X136140461Y-74630069D01*
X135933670Y-74320585D01*
X135447489Y-73995729D01*
X134874000Y-73881655D01*
X134300511Y-73995729D01*
X133814330Y-74320585D01*
X133604000Y-74635366D01*
X133393670Y-74320585D01*
X132907489Y-73995729D01*
X132334000Y-73881655D01*
X131760511Y-73995729D01*
X131274330Y-74320585D01*
X131064000Y-74635366D01*
X130853670Y-74320585D01*
X130367489Y-73995729D01*
X129794000Y-73881655D01*
X129220511Y-73995729D01*
X128734330Y-74320585D01*
X128657208Y-74436007D01*
X128500291Y-74056239D01*
X128179612Y-73735000D01*
X175219908Y-73735000D01*
X176328000Y-74843091D01*
X176328000Y-85979000D01*
X176382046Y-86250705D01*
X176535954Y-86481046D01*
X178868000Y-88813091D01*
X178868000Y-88863193D01*
X178550707Y-88545345D01*
X177570827Y-88138464D01*
X176509828Y-88137538D01*
X175529239Y-88542709D01*
X174778345Y-89292293D01*
X174371464Y-90272173D01*
X174370538Y-91333172D01*
X174775709Y-92313761D01*
X175525293Y-93064655D01*
X176505173Y-93471536D01*
X177566172Y-93472462D01*
X178546761Y-93067291D01*
X178868000Y-92746612D01*
X178868000Y-116803193D01*
X178550707Y-116485345D01*
X177570827Y-116078464D01*
X176509828Y-116077538D01*
X175529239Y-116482709D01*
X174778345Y-117232293D01*
X174371464Y-118212173D01*
X174370538Y-119273172D01*
X174775709Y-120253761D01*
X175525293Y-121004655D01*
X176505173Y-121411536D01*
X177566172Y-121412462D01*
X178546761Y-121007291D01*
X178868000Y-120686612D01*
X178868000Y-120990909D01*
X176535954Y-123322954D01*
X176382046Y-123553295D01*
X176328000Y-123825000D01*
X176328000Y-125655000D01*
X126909807Y-125655000D01*
X127227655Y-125337707D01*
X127634536Y-124357827D01*
X127635162Y-123640255D01*
X137439400Y-123640255D01*
X137439400Y-124009745D01*
X137553474Y-124583234D01*
X137878330Y-125069415D01*
X138364511Y-125394271D01*
X138938000Y-125508345D01*
X139511489Y-125394271D01*
X139997670Y-125069415D01*
X140208000Y-124754634D01*
X140418330Y-125069415D01*
X140904511Y-125394271D01*
X141478000Y-125508345D01*
X142051489Y-125394271D01*
X142537670Y-125069415D01*
X142748000Y-124754634D01*
X142958330Y-125069415D01*
X143444511Y-125394271D01*
X144018000Y-125508345D01*
X144591489Y-125394271D01*
X145077670Y-125069415D01*
X145288000Y-124754634D01*
X145498330Y-125069415D01*
X145984511Y-125394271D01*
X146558000Y-125508345D01*
X147131489Y-125394271D01*
X147617670Y-125069415D01*
X147828000Y-124754634D01*
X148038330Y-125069415D01*
X148524511Y-125394271D01*
X149098000Y-125508345D01*
X149671489Y-125394271D01*
X150157670Y-125069415D01*
X150364461Y-124759931D01*
X150735964Y-125175732D01*
X151263209Y-125429709D01*
X151278974Y-125432358D01*
X151511000Y-125311217D01*
X151511000Y-123952000D01*
X151765000Y-123952000D01*
X151765000Y-125311217D01*
X151997026Y-125432358D01*
X152012791Y-125429709D01*
X152540036Y-125175732D01*
X152908000Y-124763892D01*
X153275964Y-125175732D01*
X153803209Y-125429709D01*
X153818974Y-125432358D01*
X154051000Y-125311217D01*
X154051000Y-123952000D01*
X151765000Y-123952000D01*
X151511000Y-123952000D01*
X151491000Y-123952000D01*
X151491000Y-123698000D01*
X151511000Y-123698000D01*
X151511000Y-122338783D01*
X151765000Y-122338783D01*
X151765000Y-123698000D01*
X154051000Y-123698000D01*
X154051000Y-122338783D01*
X154305000Y-122338783D01*
X154305000Y-123698000D01*
X154325000Y-123698000D01*
X154325000Y-123952000D01*
X154305000Y-123952000D01*
X154305000Y-125311217D01*
X154537026Y-125432358D01*
X154552791Y-125429709D01*
X155080036Y-125175732D01*
X155451539Y-124759931D01*
X155658330Y-125069415D01*
X156144511Y-125394271D01*
X156718000Y-125508345D01*
X157291489Y-125394271D01*
X157777670Y-125069415D01*
X158102526Y-124583234D01*
X158216600Y-124009745D01*
X158216600Y-123640255D01*
X160299400Y-123640255D01*
X160299400Y-124009745D01*
X160413474Y-124583234D01*
X160738330Y-125069415D01*
X161224511Y-125394271D01*
X161798000Y-125508345D01*
X162371489Y-125394271D01*
X162857670Y-125069415D01*
X163068000Y-124754634D01*
X163278330Y-125069415D01*
X163764511Y-125394271D01*
X164338000Y-125508345D01*
X164911489Y-125394271D01*
X165397670Y-125069415D01*
X165608000Y-124754634D01*
X165818330Y-125069415D01*
X166304511Y-125394271D01*
X166878000Y-125508345D01*
X167451489Y-125394271D01*
X167937670Y-125069415D01*
X168148000Y-124754634D01*
X168358330Y-125069415D01*
X168844511Y-125394271D01*
X169418000Y-125508345D01*
X169991489Y-125394271D01*
X170477670Y-125069415D01*
X170688000Y-124754634D01*
X170898330Y-125069415D01*
X171384511Y-125394271D01*
X171958000Y-125508345D01*
X172531489Y-125394271D01*
X173017670Y-125069415D01*
X173228000Y-124754634D01*
X173438330Y-125069415D01*
X173924511Y-125394271D01*
X174498000Y-125508345D01*
X175071489Y-125394271D01*
X175557670Y-125069415D01*
X175882526Y-124583234D01*
X175996600Y-124009745D01*
X175996600Y-123640255D01*
X175882526Y-123066766D01*
X175557670Y-122580585D01*
X175071489Y-122255729D01*
X174498000Y-122141655D01*
X173924511Y-122255729D01*
X173438330Y-122580585D01*
X173228000Y-122895366D01*
X173017670Y-122580585D01*
X172531489Y-122255729D01*
X171958000Y-122141655D01*
X171384511Y-122255729D01*
X170898330Y-122580585D01*
X170688000Y-122895366D01*
X170477670Y-122580585D01*
X169991489Y-122255729D01*
X169418000Y-122141655D01*
X168844511Y-122255729D01*
X168358330Y-122580585D01*
X168148000Y-122895366D01*
X167937670Y-122580585D01*
X167451489Y-122255729D01*
X166878000Y-122141655D01*
X166304511Y-122255729D01*
X165818330Y-122580585D01*
X165608000Y-122895366D01*
X165397670Y-122580585D01*
X164911489Y-122255729D01*
X164338000Y-122141655D01*
X163764511Y-122255729D01*
X163278330Y-122580585D01*
X163068000Y-122895366D01*
X162857670Y-122580585D01*
X162371489Y-122255729D01*
X161798000Y-122141655D01*
X161224511Y-122255729D01*
X160738330Y-122580585D01*
X160413474Y-123066766D01*
X160299400Y-123640255D01*
X158216600Y-123640255D01*
X158102526Y-123066766D01*
X157777670Y-122580585D01*
X157291489Y-122255729D01*
X156718000Y-122141655D01*
X156144511Y-122255729D01*
X155658330Y-122580585D01*
X155451539Y-122890069D01*
X155080036Y-122474268D01*
X154552791Y-122220291D01*
X154537026Y-122217642D01*
X154305000Y-122338783D01*
X154051000Y-122338783D01*
X153818974Y-122217642D01*
X153803209Y-122220291D01*
X153275964Y-122474268D01*
X152908000Y-122886108D01*
X152540036Y-122474268D01*
X152012791Y-122220291D01*
X151997026Y-122217642D01*
X151765000Y-122338783D01*
X151511000Y-122338783D01*
X151278974Y-122217642D01*
X151263209Y-122220291D01*
X150735964Y-122474268D01*
X150364461Y-122890069D01*
X150157670Y-122580585D01*
X149671489Y-122255729D01*
X149098000Y-122141655D01*
X148524511Y-122255729D01*
X148038330Y-122580585D01*
X147828000Y-122895366D01*
X147617670Y-122580585D01*
X147131489Y-122255729D01*
X146558000Y-122141655D01*
X145984511Y-122255729D01*
X145498330Y-122580585D01*
X145288000Y-122895366D01*
X145077670Y-122580585D01*
X144591489Y-122255729D01*
X144018000Y-122141655D01*
X143444511Y-122255729D01*
X142958330Y-122580585D01*
X142748000Y-122895366D01*
X142537670Y-122580585D01*
X142051489Y-122255729D01*
X141478000Y-122141655D01*
X140904511Y-122255729D01*
X140418330Y-122580585D01*
X140208000Y-122895366D01*
X139997670Y-122580585D01*
X139511489Y-122255729D01*
X138938000Y-122141655D01*
X138364511Y-122255729D01*
X137878330Y-122580585D01*
X137553474Y-123066766D01*
X137439400Y-123640255D01*
X127635162Y-123640255D01*
X127635462Y-123296828D01*
X127230291Y-122316239D01*
X126480707Y-121565345D01*
X125500827Y-121158464D01*
X124439828Y-121157538D01*
X123459239Y-121562709D01*
X122708345Y-122312293D01*
X122301464Y-123292173D01*
X122300538Y-124353172D01*
X122705709Y-125333761D01*
X123026388Y-125655000D01*
X111708000Y-125655000D01*
X111708000Y-119946167D01*
X124413838Y-119946167D01*
X124555883Y-120289943D01*
X124818673Y-120553192D01*
X125162201Y-120695838D01*
X125534167Y-120696162D01*
X125650728Y-120648000D01*
X127199537Y-120648000D01*
X127231673Y-120680192D01*
X127575201Y-120822838D01*
X127947167Y-120823162D01*
X128290943Y-120681117D01*
X128554192Y-120418327D01*
X128696838Y-120074799D01*
X128697162Y-119702833D01*
X128589920Y-119443286D01*
X128696838Y-119185799D01*
X128697162Y-118813833D01*
X128555117Y-118470057D01*
X128292327Y-118206808D01*
X127948799Y-118064162D01*
X127576833Y-118063838D01*
X127233057Y-118205883D01*
X127199882Y-118239000D01*
X126609155Y-118239000D01*
X126609173Y-118218027D01*
X126467128Y-117874251D01*
X126204338Y-117611002D01*
X125860810Y-117468356D01*
X125488844Y-117468032D01*
X125145068Y-117610077D01*
X124881819Y-117872867D01*
X124739173Y-118216395D01*
X124738849Y-118588361D01*
X124880894Y-118932137D01*
X124888392Y-118939648D01*
X124820057Y-118967883D01*
X124556808Y-119230673D01*
X124414162Y-119574201D01*
X124413838Y-119946167D01*
X111708000Y-119946167D01*
X111708000Y-87401400D01*
X126189200Y-87401400D01*
X126189200Y-106908600D01*
X126247052Y-107199439D01*
X126411799Y-107446001D01*
X127114560Y-108148762D01*
X127114560Y-109448600D01*
X127158838Y-109683917D01*
X127297910Y-109900041D01*
X127510110Y-110045031D01*
X127762000Y-110096040D01*
X129794000Y-110096040D01*
X130029317Y-110051762D01*
X130245441Y-109912690D01*
X130390431Y-109700490D01*
X130441440Y-109448600D01*
X130441440Y-107721400D01*
X130397162Y-107486083D01*
X130258090Y-107269959D01*
X130045890Y-107124969D01*
X130004561Y-107116600D01*
X130022415Y-107104670D01*
X130347271Y-106618489D01*
X130461345Y-106045000D01*
X130347271Y-105471511D01*
X130022415Y-104985330D01*
X129707634Y-104775000D01*
X130022415Y-104564670D01*
X130347271Y-104078489D01*
X130461345Y-103505000D01*
X130347271Y-102931511D01*
X130022415Y-102445330D01*
X129707634Y-102235000D01*
X130022415Y-102024670D01*
X130347271Y-101538489D01*
X130461345Y-100965000D01*
X130347271Y-100391511D01*
X130022415Y-99905330D01*
X129707634Y-99695000D01*
X130022415Y-99484670D01*
X130347271Y-98998489D01*
X130461345Y-98425000D01*
X130347271Y-97851511D01*
X130022415Y-97365330D01*
X129707634Y-97155000D01*
X130022415Y-96944670D01*
X130347271Y-96458489D01*
X130461345Y-95885000D01*
X130347271Y-95311511D01*
X130022415Y-94825330D01*
X129707634Y-94615000D01*
X130022415Y-94404670D01*
X130347271Y-93918489D01*
X130461345Y-93345000D01*
X130347271Y-92771511D01*
X130022415Y-92285330D01*
X129707634Y-92075000D01*
X130022415Y-91864670D01*
X130347271Y-91378489D01*
X130461345Y-90805000D01*
X130347271Y-90231511D01*
X130022415Y-89745330D01*
X129707634Y-89535000D01*
X130022415Y-89324670D01*
X130347271Y-88838489D01*
X130461345Y-88265000D01*
X130347271Y-87691511D01*
X130045448Y-87239800D01*
X136450800Y-87239800D01*
X136450800Y-108063800D01*
X136508652Y-108354639D01*
X136673399Y-108601201D01*
X137134599Y-109062401D01*
X137274560Y-109155920D01*
X137274560Y-109388600D01*
X137318838Y-109623917D01*
X137457910Y-109840041D01*
X137670110Y-109985031D01*
X137922000Y-110036040D01*
X139954000Y-110036040D01*
X140189317Y-109991762D01*
X140405441Y-109852690D01*
X140550431Y-109640490D01*
X140601440Y-109388600D01*
X140601440Y-107661400D01*
X140557162Y-107426083D01*
X140418090Y-107209959D01*
X140205890Y-107064969D01*
X140164561Y-107056600D01*
X140182415Y-107044670D01*
X140507271Y-106558489D01*
X140621345Y-105985000D01*
X140507271Y-105411511D01*
X140182415Y-104925330D01*
X139867634Y-104715000D01*
X140182415Y-104504670D01*
X140507271Y-104018489D01*
X140621345Y-103445000D01*
X140507271Y-102871511D01*
X140182415Y-102385330D01*
X139867634Y-102175000D01*
X140182415Y-101964670D01*
X140507271Y-101478489D01*
X140621345Y-100905000D01*
X140507271Y-100331511D01*
X140182415Y-99845330D01*
X139867634Y-99635000D01*
X140182415Y-99424670D01*
X140507271Y-98938489D01*
X140621345Y-98365000D01*
X140507271Y-97791511D01*
X140182415Y-97305330D01*
X139867634Y-97095000D01*
X140182415Y-96884670D01*
X140507271Y-96398489D01*
X140621345Y-95825000D01*
X140507271Y-95251511D01*
X140182415Y-94765330D01*
X139867634Y-94555000D01*
X140182415Y-94344670D01*
X140507271Y-93858489D01*
X140621345Y-93285000D01*
X140507271Y-92711511D01*
X140182415Y-92225330D01*
X139867634Y-92015000D01*
X140182415Y-91804670D01*
X140507271Y-91318489D01*
X140621345Y-90745000D01*
X140507271Y-90171511D01*
X140182415Y-89685330D01*
X139867634Y-89475000D01*
X140182415Y-89264670D01*
X140507271Y-88778489D01*
X140621345Y-88205000D01*
X140507271Y-87631511D01*
X140182415Y-87145330D01*
X140033458Y-87045800D01*
X146864800Y-87045800D01*
X146864800Y-107264200D01*
X146922652Y-107555039D01*
X147087399Y-107801601D01*
X147434560Y-108148762D01*
X147434560Y-109448600D01*
X147478838Y-109683917D01*
X147617910Y-109900041D01*
X147830110Y-110045031D01*
X148082000Y-110096040D01*
X150114000Y-110096040D01*
X150349317Y-110051762D01*
X150565441Y-109912690D01*
X150710431Y-109700490D01*
X150761440Y-109448600D01*
X150761440Y-107721400D01*
X150717162Y-107486083D01*
X150578090Y-107269959D01*
X150365890Y-107124969D01*
X150324561Y-107116600D01*
X150342415Y-107104670D01*
X150542648Y-106805000D01*
X153615537Y-106805000D01*
X153647673Y-106837192D01*
X153991201Y-106979838D01*
X154363167Y-106980162D01*
X154706943Y-106838117D01*
X154970192Y-106575327D01*
X155112838Y-106231799D01*
X155113162Y-105859833D01*
X154971117Y-105516057D01*
X154708327Y-105252808D01*
X154364799Y-105110162D01*
X153992833Y-105109838D01*
X153649057Y-105251883D01*
X153615882Y-105285000D01*
X150542648Y-105285000D01*
X150342415Y-104985330D01*
X150027634Y-104775000D01*
X150342415Y-104564670D01*
X150542648Y-104265000D01*
X153615537Y-104265000D01*
X153647673Y-104297192D01*
X153991201Y-104439838D01*
X154363167Y-104440162D01*
X154706943Y-104298117D01*
X154970192Y-104035327D01*
X155112838Y-103691799D01*
X155113162Y-103319833D01*
X154971117Y-102976057D01*
X154708327Y-102712808D01*
X154364799Y-102570162D01*
X153992833Y-102569838D01*
X153649057Y-102711883D01*
X153615882Y-102745000D01*
X150542648Y-102745000D01*
X150342415Y-102445330D01*
X150027634Y-102235000D01*
X150342415Y-102024670D01*
X150542648Y-101725000D01*
X153615537Y-101725000D01*
X153647673Y-101757192D01*
X153991201Y-101899838D01*
X154363167Y-101900162D01*
X154706943Y-101758117D01*
X154970192Y-101495327D01*
X155112838Y-101151799D01*
X155113162Y-100779833D01*
X154971117Y-100436057D01*
X154708327Y-100172808D01*
X154364799Y-100030162D01*
X153992833Y-100029838D01*
X153649057Y-100171883D01*
X153615882Y-100205000D01*
X150542648Y-100205000D01*
X150342415Y-99905330D01*
X150027634Y-99695000D01*
X150342415Y-99484670D01*
X150542648Y-99185000D01*
X153615537Y-99185000D01*
X153647673Y-99217192D01*
X153991201Y-99359838D01*
X154363167Y-99360162D01*
X154706943Y-99218117D01*
X154970192Y-98955327D01*
X155112838Y-98611799D01*
X155113162Y-98239833D01*
X154971117Y-97896057D01*
X154708327Y-97632808D01*
X154364799Y-97490162D01*
X153992833Y-97489838D01*
X153649057Y-97631883D01*
X153615882Y-97665000D01*
X150542648Y-97665000D01*
X150342415Y-97365330D01*
X150027634Y-97155000D01*
X150342415Y-96944670D01*
X150542648Y-96645000D01*
X153615537Y-96645000D01*
X153647673Y-96677192D01*
X153991201Y-96819838D01*
X154363167Y-96820162D01*
X154706943Y-96678117D01*
X154970192Y-96415327D01*
X155112838Y-96071799D01*
X155113162Y-95699833D01*
X154971117Y-95356057D01*
X154708327Y-95092808D01*
X154364799Y-94950162D01*
X153992833Y-94949838D01*
X153649057Y-95091883D01*
X153615882Y-95125000D01*
X150542648Y-95125000D01*
X150342415Y-94825330D01*
X150027634Y-94615000D01*
X150342415Y-94404670D01*
X150542648Y-94105000D01*
X153615537Y-94105000D01*
X153647673Y-94137192D01*
X153991201Y-94279838D01*
X154363167Y-94280162D01*
X154706943Y-94138117D01*
X154970192Y-93875327D01*
X155112838Y-93531799D01*
X155113162Y-93159833D01*
X154971117Y-92816057D01*
X154708327Y-92552808D01*
X154364799Y-92410162D01*
X153992833Y-92409838D01*
X153649057Y-92551883D01*
X153615882Y-92585000D01*
X150542648Y-92585000D01*
X150342415Y-92285330D01*
X150027634Y-92075000D01*
X150342415Y-91864670D01*
X150542648Y-91565000D01*
X153615537Y-91565000D01*
X153647673Y-91597192D01*
X153991201Y-91739838D01*
X154363167Y-91740162D01*
X154706943Y-91598117D01*
X154970192Y-91335327D01*
X155112838Y-90991799D01*
X155113162Y-90619833D01*
X154971117Y-90276057D01*
X154708327Y-90012808D01*
X154364799Y-89870162D01*
X153992833Y-89869838D01*
X153649057Y-90011883D01*
X153615882Y-90045000D01*
X150542648Y-90045000D01*
X150342415Y-89745330D01*
X150027634Y-89535000D01*
X150342415Y-89324670D01*
X150542648Y-89025000D01*
X153615537Y-89025000D01*
X153647673Y-89057192D01*
X153991201Y-89199838D01*
X154363167Y-89200162D01*
X154706943Y-89058117D01*
X154970192Y-88795327D01*
X155112838Y-88451799D01*
X155113162Y-88079833D01*
X154971117Y-87736057D01*
X154708327Y-87472808D01*
X154364799Y-87330162D01*
X153992833Y-87329838D01*
X153649057Y-87471883D01*
X153615882Y-87505000D01*
X150542648Y-87505000D01*
X150342415Y-87205330D01*
X150331745Y-87198200D01*
X156872400Y-87198200D01*
X156872400Y-107111800D01*
X156930252Y-107402639D01*
X157094999Y-107649201D01*
X157594560Y-108148762D01*
X157594560Y-109448600D01*
X157638838Y-109683917D01*
X157777910Y-109900041D01*
X157990110Y-110045031D01*
X158242000Y-110096040D01*
X160274000Y-110096040D01*
X160509317Y-110051762D01*
X160725441Y-109912690D01*
X160870431Y-109700490D01*
X160921440Y-109448600D01*
X160921440Y-107721400D01*
X160877162Y-107486083D01*
X160738090Y-107269959D01*
X160525890Y-107124969D01*
X160484561Y-107116600D01*
X160502415Y-107104670D01*
X160827271Y-106618489D01*
X160941345Y-106045000D01*
X160827271Y-105471511D01*
X160502415Y-104985330D01*
X160187634Y-104775000D01*
X160502415Y-104564670D01*
X160827271Y-104078489D01*
X160941345Y-103505000D01*
X160827271Y-102931511D01*
X160502415Y-102445330D01*
X160187634Y-102235000D01*
X160502415Y-102024670D01*
X160827271Y-101538489D01*
X160941345Y-100965000D01*
X160827271Y-100391511D01*
X160502415Y-99905330D01*
X160187634Y-99695000D01*
X160502415Y-99484670D01*
X160827271Y-98998489D01*
X160941345Y-98425000D01*
X160827271Y-97851511D01*
X160502415Y-97365330D01*
X160187634Y-97155000D01*
X160502415Y-96944670D01*
X160827271Y-96458489D01*
X160941345Y-95885000D01*
X160827271Y-95311511D01*
X160502415Y-94825330D01*
X160187634Y-94615000D01*
X160502415Y-94404670D01*
X160827271Y-93918489D01*
X160941345Y-93345000D01*
X160827271Y-92771511D01*
X160502415Y-92285330D01*
X160187634Y-92075000D01*
X160502415Y-91864670D01*
X160827271Y-91378489D01*
X160941345Y-90805000D01*
X160827271Y-90231511D01*
X160502415Y-89745330D01*
X160187634Y-89535000D01*
X160502415Y-89324670D01*
X160827271Y-88838489D01*
X160941345Y-88265000D01*
X160827271Y-87691511D01*
X160502415Y-87205330D01*
X160187634Y-86995000D01*
X160502415Y-86784670D01*
X160827271Y-86298489D01*
X160941345Y-85725000D01*
X160827271Y-85151511D01*
X160502415Y-84665330D01*
X160016234Y-84340474D01*
X159442745Y-84226400D01*
X159073255Y-84226400D01*
X158499766Y-84340474D01*
X158013585Y-84665330D01*
X157688729Y-85151511D01*
X157574655Y-85725000D01*
X157650334Y-86105464D01*
X157094999Y-86660799D01*
X156930252Y-86907361D01*
X156872400Y-87198200D01*
X150331745Y-87198200D01*
X150027634Y-86995000D01*
X150342415Y-86784670D01*
X150667271Y-86298489D01*
X150781345Y-85725000D01*
X150667271Y-85151511D01*
X150342415Y-84665330D01*
X149856234Y-84340474D01*
X149282745Y-84226400D01*
X148913255Y-84226400D01*
X148339766Y-84340474D01*
X147853585Y-84665330D01*
X147528729Y-85151511D01*
X147414655Y-85725000D01*
X147490334Y-86105464D01*
X147087399Y-86508399D01*
X146922652Y-86754961D01*
X146864800Y-87045800D01*
X140033458Y-87045800D01*
X139867634Y-86935000D01*
X140182415Y-86724670D01*
X140507271Y-86238489D01*
X140621345Y-85665000D01*
X140507271Y-85091511D01*
X140182415Y-84605330D01*
X139696234Y-84280474D01*
X139122745Y-84166400D01*
X138753255Y-84166400D01*
X138179766Y-84280474D01*
X137693585Y-84605330D01*
X137368729Y-85091511D01*
X137254655Y-85665000D01*
X137330334Y-86045464D01*
X136673399Y-86702399D01*
X136508652Y-86948961D01*
X136450800Y-87239800D01*
X130045448Y-87239800D01*
X130022415Y-87205330D01*
X129707634Y-86995000D01*
X130022415Y-86784670D01*
X130347271Y-86298489D01*
X130461345Y-85725000D01*
X130347271Y-85151511D01*
X130022415Y-84665330D01*
X129536234Y-84340474D01*
X128962745Y-84226400D01*
X128593255Y-84226400D01*
X128019766Y-84340474D01*
X127533585Y-84665330D01*
X127208729Y-85151511D01*
X127094655Y-85725000D01*
X127170334Y-86105464D01*
X126411799Y-86863999D01*
X126247052Y-87110561D01*
X126189200Y-87401400D01*
X111708000Y-87401400D01*
X111708000Y-83660156D01*
X167212838Y-83660156D01*
X167354883Y-84003932D01*
X167388000Y-84037107D01*
X167388000Y-85035537D01*
X167355808Y-85067673D01*
X167213162Y-85411201D01*
X167212838Y-85783167D01*
X167354883Y-86126943D01*
X167617673Y-86390192D01*
X167961201Y-86532838D01*
X168333167Y-86533162D01*
X168676943Y-86391117D01*
X168940192Y-86128327D01*
X169082838Y-85784799D01*
X169083162Y-85412833D01*
X168941117Y-85069057D01*
X168908000Y-85035882D01*
X168908000Y-84037452D01*
X168940192Y-84005316D01*
X169082838Y-83661788D01*
X169082870Y-83624167D01*
X171022838Y-83624167D01*
X171164883Y-83967943D01*
X171198000Y-84001118D01*
X171198000Y-85035537D01*
X171165808Y-85067673D01*
X171023162Y-85411201D01*
X171022838Y-85783167D01*
X171164883Y-86126943D01*
X171427673Y-86390192D01*
X171771201Y-86532838D01*
X172143167Y-86533162D01*
X172486943Y-86391117D01*
X172750192Y-86128327D01*
X172892838Y-85784799D01*
X172893162Y-85412833D01*
X172751117Y-85069057D01*
X172718000Y-85035882D01*
X172718000Y-84001463D01*
X172750192Y-83969327D01*
X172892838Y-83625799D01*
X172893162Y-83253833D01*
X172751117Y-82910057D01*
X172488327Y-82646808D01*
X172144799Y-82504162D01*
X171772833Y-82503838D01*
X171429057Y-82645883D01*
X171165808Y-82908673D01*
X171023162Y-83252201D01*
X171022838Y-83624167D01*
X169082870Y-83624167D01*
X169083162Y-83289822D01*
X168941117Y-82946046D01*
X168678327Y-82682797D01*
X168334799Y-82540151D01*
X167962833Y-82539827D01*
X167619057Y-82681872D01*
X167355808Y-82944662D01*
X167213162Y-83288190D01*
X167212838Y-83660156D01*
X111708000Y-83660156D01*
X111708000Y-78671167D01*
X153623840Y-78671167D01*
X153765885Y-79014943D01*
X153799002Y-79048118D01*
X153799002Y-79121002D01*
X153856854Y-79411841D01*
X154021601Y-79658403D01*
X157052878Y-82689680D01*
X157052838Y-82735167D01*
X157194883Y-83078943D01*
X157457673Y-83342192D01*
X157801201Y-83484838D01*
X158173167Y-83485162D01*
X158516943Y-83343117D01*
X158780192Y-83080327D01*
X158922838Y-82736799D01*
X158923162Y-82364833D01*
X158828080Y-82134717D01*
X158836788Y-82126024D01*
X158979434Y-81782496D01*
X158979758Y-81410530D01*
X158837713Y-81066754D01*
X158574923Y-80803505D01*
X158231395Y-80660859D01*
X158184519Y-80660818D01*
X156071010Y-78547309D01*
X156071010Y-78159463D01*
X156103202Y-78127327D01*
X156245848Y-77783799D01*
X156246172Y-77411833D01*
X156126519Y-77122249D01*
X156144511Y-77134271D01*
X156718000Y-77248345D01*
X157291489Y-77134271D01*
X157777670Y-76809415D01*
X157988000Y-76494634D01*
X158198330Y-76809415D01*
X158684511Y-77134271D01*
X159258000Y-77248345D01*
X159831489Y-77134271D01*
X160317670Y-76809415D01*
X160528000Y-76494634D01*
X160738330Y-76809415D01*
X161224511Y-77134271D01*
X161798000Y-77248345D01*
X162371489Y-77134271D01*
X162857670Y-76809415D01*
X163068000Y-76494634D01*
X163278330Y-76809415D01*
X163764511Y-77134271D01*
X164338000Y-77248345D01*
X164911489Y-77134271D01*
X165397670Y-76809415D01*
X165608000Y-76494634D01*
X165818330Y-76809415D01*
X166304511Y-77134271D01*
X166878000Y-77248345D01*
X167451489Y-77134271D01*
X167937670Y-76809415D01*
X168148000Y-76494634D01*
X168358330Y-76809415D01*
X168844511Y-77134271D01*
X169418000Y-77248345D01*
X169991489Y-77134271D01*
X170477670Y-76809415D01*
X170688000Y-76494634D01*
X170898330Y-76809415D01*
X171384511Y-77134271D01*
X171958000Y-77248345D01*
X172531489Y-77134271D01*
X173017670Y-76809415D01*
X173228000Y-76494634D01*
X173438330Y-76809415D01*
X173924511Y-77134271D01*
X174498000Y-77248345D01*
X175071489Y-77134271D01*
X175557670Y-76809415D01*
X175882526Y-76323234D01*
X175996600Y-75749745D01*
X175996600Y-75380255D01*
X175882526Y-74806766D01*
X175557670Y-74320585D01*
X175071489Y-73995729D01*
X174498000Y-73881655D01*
X173924511Y-73995729D01*
X173438330Y-74320585D01*
X173228000Y-74635366D01*
X173017670Y-74320585D01*
X172531489Y-73995729D01*
X171958000Y-73881655D01*
X171384511Y-73995729D01*
X170898330Y-74320585D01*
X170688000Y-74635366D01*
X170477670Y-74320585D01*
X169991489Y-73995729D01*
X169418000Y-73881655D01*
X168844511Y-73995729D01*
X168358330Y-74320585D01*
X168148000Y-74635366D01*
X167937670Y-74320585D01*
X167451489Y-73995729D01*
X166878000Y-73881655D01*
X166304511Y-73995729D01*
X165818330Y-74320585D01*
X165608000Y-74635366D01*
X165397670Y-74320585D01*
X164911489Y-73995729D01*
X164338000Y-73881655D01*
X163764511Y-73995729D01*
X163278330Y-74320585D01*
X163068000Y-74635366D01*
X162857670Y-74320585D01*
X162371489Y-73995729D01*
X161798000Y-73881655D01*
X161224511Y-73995729D01*
X160738330Y-74320585D01*
X160528000Y-74635366D01*
X160317670Y-74320585D01*
X159831489Y-73995729D01*
X159258000Y-73881655D01*
X158684511Y-73995729D01*
X158198330Y-74320585D01*
X157988000Y-74635366D01*
X157777670Y-74320585D01*
X157291489Y-73995729D01*
X156718000Y-73881655D01*
X156144511Y-73995729D01*
X155658330Y-74320585D01*
X155333474Y-74806766D01*
X155219400Y-75380255D01*
X155219400Y-75749745D01*
X155333474Y-76323234D01*
X155583796Y-76697867D01*
X155497809Y-76662162D01*
X155125843Y-76661838D01*
X154782067Y-76803883D01*
X154518818Y-77066673D01*
X154376172Y-77410201D01*
X154376049Y-77550840D01*
X154373835Y-77550838D01*
X154030059Y-77692883D01*
X153766810Y-77955673D01*
X153624164Y-78299201D01*
X153623840Y-78671167D01*
X111708000Y-78671167D01*
X111708000Y-73735000D01*
X124296193Y-73735000D01*
X123978345Y-74052293D01*
M02*
