G04 #@! TF.FileFunction,Soldermask,Top*
%FSLAX46Y46*%
G04 Gerber Fmt 4.6, Leading zero omitted, Abs format (unit mm)*
G04 Created by KiCad (PCBNEW 4.0.7) date 12/04/17 16:46:56*
%MOMM*%
%LPD*%
G01*
G04 APERTURE LIST*
%ADD10C,0.100000*%
%ADD11O,1.727200X2.032000*%
%ADD12C,4.064000*%
%ADD13R,2.000000X1.000000*%
%ADD14R,1.300000X0.700000*%
%ADD15R,1.700000X1.700000*%
%ADD16O,1.700000X1.700000*%
G04 APERTURE END LIST*
D10*
D11*
X138938000Y-123825000D03*
X141478000Y-123825000D03*
X144018000Y-123825000D03*
X146558000Y-123825000D03*
X149098000Y-123825000D03*
X151638000Y-123825000D03*
X154178000Y-123825000D03*
X156718000Y-123825000D03*
X161798000Y-123825000D03*
X164338000Y-123825000D03*
X166878000Y-123825000D03*
X169418000Y-123825000D03*
X171958000Y-123825000D03*
X174498000Y-123825000D03*
X129794000Y-75565000D03*
X132334000Y-75565000D03*
X134874000Y-75565000D03*
X137414000Y-75565000D03*
X139954000Y-75565000D03*
X142494000Y-75565000D03*
X145034000Y-75565000D03*
X147574000Y-75565000D03*
X150114000Y-75565000D03*
X152654000Y-75565000D03*
X156718000Y-75565000D03*
X159258000Y-75565000D03*
X161798000Y-75565000D03*
X164338000Y-75565000D03*
X166878000Y-75565000D03*
X169418000Y-75565000D03*
X171958000Y-75565000D03*
X174498000Y-75565000D03*
D12*
X124968000Y-123825000D03*
X177038000Y-118745000D03*
X126238000Y-75565000D03*
X177038000Y-90805000D03*
D13*
X171958000Y-81215000D03*
X171958000Y-82615000D03*
X168148000Y-81215000D03*
X168148000Y-82615000D03*
D14*
X174498000Y-86675000D03*
X174498000Y-84775000D03*
X165608000Y-84775000D03*
X165608000Y-86675000D03*
X171958000Y-84775000D03*
X171958000Y-86675000D03*
X168148000Y-84775000D03*
X168148000Y-86675000D03*
D15*
X128998000Y-112525000D03*
D16*
X128998000Y-109985000D03*
X128998000Y-107445000D03*
X128998000Y-104905000D03*
X128998000Y-102365000D03*
X128998000Y-99825000D03*
X128998000Y-97285000D03*
X128998000Y-94745000D03*
X128998000Y-92205000D03*
X128998000Y-89665000D03*
D15*
X135998000Y-112365000D03*
D16*
X135998000Y-109825000D03*
X135998000Y-107285000D03*
X135998000Y-104745000D03*
X135998000Y-102205000D03*
X135998000Y-99665000D03*
X135998000Y-97125000D03*
X135998000Y-94585000D03*
X135998000Y-92045000D03*
X135998000Y-89505000D03*
D15*
X142998000Y-112425000D03*
D16*
X142998000Y-109885000D03*
X142998000Y-107345000D03*
X142998000Y-104805000D03*
X142998000Y-102265000D03*
X142998000Y-99725000D03*
X142998000Y-97185000D03*
X142998000Y-94645000D03*
X142998000Y-92105000D03*
X142998000Y-89565000D03*
D15*
X148998000Y-112525000D03*
D16*
X148998000Y-109985000D03*
X148998000Y-107445000D03*
X148998000Y-104905000D03*
X148998000Y-102365000D03*
X148998000Y-99825000D03*
X148998000Y-97285000D03*
X148998000Y-94745000D03*
X148998000Y-92205000D03*
X148998000Y-89665000D03*
D15*
X153998000Y-112525000D03*
D16*
X153998000Y-109985000D03*
X153998000Y-107445000D03*
X153998000Y-104905000D03*
X153998000Y-102365000D03*
X153998000Y-99825000D03*
X153998000Y-97285000D03*
X153998000Y-94745000D03*
X153998000Y-92205000D03*
X153998000Y-89665000D03*
D15*
X159998000Y-112525000D03*
D16*
X159998000Y-109985000D03*
X159998000Y-107445000D03*
X159998000Y-104905000D03*
X159998000Y-102365000D03*
X159998000Y-99825000D03*
X159998000Y-97285000D03*
X159998000Y-94745000D03*
X159998000Y-92205000D03*
X159998000Y-89665000D03*
M02*
