M48
;DRILL file {KiCad 4.0.6-e0-6349~53~ubuntu16.04.1} date Thu Jul 27 14:37:34 2017
;FORMAT={-:-/ absolute / metric / decimal}
FMAT,2
METRIC,TZ
T1C0.400
T2C1.016
T3C3.048
%
G90
G05
M71
T1
X125.349Y-119.761
X125.674Y-118.403
X127.762Y-118.999
X127.762Y-119.888
X136.398Y-114.935
X146.558Y-114.935
X154.178Y-88.265
X154.178Y-90.805
X154.178Y-93.345
X154.178Y-95.885
X154.178Y-98.425
X154.178Y-100.965
X154.178Y-103.505
X154.178Y-106.045
X154.559Y-78.486
X155.311Y-77.597
X156.718Y-114.935
X157.988Y-82.55
X158.045Y-81.596
X166.878Y-114.935
X168.148Y-83.475
X168.148Y-85.598
X170.053Y-86.675
X171.958Y-83.439
X171.958Y-85.598
T2
X128.778Y-85.725
X128.778Y-88.265
X128.778Y-90.805
X128.778Y-93.345
X128.778Y-95.885
X128.778Y-98.425
X128.778Y-100.965
X128.778Y-103.505
X128.778Y-106.045
X128.778Y-108.585
X129.794Y-75.565
X132.334Y-75.565
X134.874Y-75.565
X137.414Y-75.565
X138.938Y-85.665
X138.938Y-88.205
X138.938Y-90.745
X138.938Y-93.285
X138.938Y-95.825
X138.938Y-98.365
X138.938Y-100.905
X138.938Y-103.445
X138.938Y-105.985
X138.938Y-108.525
X138.938Y-123.825
X139.954Y-75.565
X141.478Y-123.825
X142.494Y-75.565
X144.018Y-123.825
X145.034Y-75.565
X146.558Y-123.825
X147.574Y-75.565
X149.098Y-85.725
X149.098Y-88.265
X149.098Y-90.805
X149.098Y-93.345
X149.098Y-95.885
X149.098Y-98.425
X149.098Y-100.965
X149.098Y-103.505
X149.098Y-106.045
X149.098Y-108.585
X149.098Y-123.825
X150.114Y-75.565
X151.638Y-123.825
X152.654Y-75.565
X154.178Y-123.825
X156.718Y-75.565
X156.718Y-123.825
X159.258Y-75.565
X159.258Y-85.725
X159.258Y-88.265
X159.258Y-90.805
X159.258Y-93.345
X159.258Y-95.885
X159.258Y-98.425
X159.258Y-100.965
X159.258Y-103.505
X159.258Y-106.045
X159.258Y-108.585
X161.798Y-75.565
X161.798Y-123.825
X164.338Y-75.565
X164.338Y-123.825
X166.878Y-75.565
X166.878Y-123.825
X169.418Y-75.565
X169.418Y-123.825
X171.958Y-75.565
X171.958Y-123.825
X174.498Y-75.565
X174.498Y-123.825
T3
X124.968Y-123.825
X126.238Y-75.565
X177.038Y-90.805
X177.038Y-118.745
T0
M30
