G04 #@! TF.FileFunction,Legend,Top*
%FSLAX46Y46*%
G04 Gerber Fmt 4.6, Leading zero omitted, Abs format (unit mm)*
G04 Created by KiCad (PCBNEW 4.0.7) date 12/04/17 16:46:56*
%MOMM*%
%LPD*%
G01*
G04 APERTURE LIST*
%ADD10C,0.100000*%
%ADD11C,0.300000*%
%ADD12C,0.150000*%
%ADD13C,0.120000*%
G04 APERTURE END LIST*
D10*
D11*
X118153571Y-108497428D02*
X117439286Y-108997428D01*
X118153571Y-109354571D02*
X116653571Y-109354571D01*
X116653571Y-108783143D01*
X116725000Y-108640285D01*
X116796429Y-108568857D01*
X116939286Y-108497428D01*
X117153571Y-108497428D01*
X117296429Y-108568857D01*
X117367857Y-108640285D01*
X117439286Y-108783143D01*
X117439286Y-109354571D01*
X118082143Y-107283143D02*
X118153571Y-107426000D01*
X118153571Y-107711714D01*
X118082143Y-107854571D01*
X117939286Y-107926000D01*
X117367857Y-107926000D01*
X117225000Y-107854571D01*
X117153571Y-107711714D01*
X117153571Y-107426000D01*
X117225000Y-107283143D01*
X117367857Y-107211714D01*
X117510714Y-107211714D01*
X117653571Y-107926000D01*
X117153571Y-106711714D02*
X118153571Y-106354571D01*
X117153571Y-105997429D01*
X117367857Y-103783143D02*
X117439286Y-103568857D01*
X117510714Y-103497429D01*
X117653571Y-103426000D01*
X117867857Y-103426000D01*
X118010714Y-103497429D01*
X118082143Y-103568857D01*
X118153571Y-103711715D01*
X118153571Y-104283143D01*
X116653571Y-104283143D01*
X116653571Y-103783143D01*
X116725000Y-103640286D01*
X116796429Y-103568857D01*
X116939286Y-103497429D01*
X117082143Y-103497429D01*
X117225000Y-103568857D01*
X117296429Y-103640286D01*
X117367857Y-103783143D01*
X117367857Y-104283143D01*
X117050429Y-119919428D02*
X116979000Y-119847999D01*
X116907571Y-119705142D01*
X116907571Y-119347999D01*
X116979000Y-119205142D01*
X117050429Y-119133713D01*
X117193286Y-119062285D01*
X117336143Y-119062285D01*
X117550429Y-119133713D01*
X118407571Y-119990856D01*
X118407571Y-119062285D01*
X116907571Y-118133714D02*
X116907571Y-117990857D01*
X116979000Y-117848000D01*
X117050429Y-117776571D01*
X117193286Y-117705142D01*
X117479000Y-117633714D01*
X117836143Y-117633714D01*
X118121857Y-117705142D01*
X118264714Y-117776571D01*
X118336143Y-117848000D01*
X118407571Y-117990857D01*
X118407571Y-118133714D01*
X118336143Y-118276571D01*
X118264714Y-118348000D01*
X118121857Y-118419428D01*
X117836143Y-118490857D01*
X117479000Y-118490857D01*
X117193286Y-118419428D01*
X117050429Y-118348000D01*
X116979000Y-118276571D01*
X116907571Y-118133714D01*
X118407571Y-116205143D02*
X118407571Y-117062286D01*
X118407571Y-116633714D02*
X116907571Y-116633714D01*
X117121857Y-116776571D01*
X117264714Y-116919429D01*
X117336143Y-117062286D01*
X116907571Y-115705143D02*
X116907571Y-114705143D01*
X118407571Y-115348000D01*
X114724571Y-120125143D02*
X113224571Y-120125143D01*
X113224571Y-119768000D01*
X113296000Y-119553715D01*
X113438857Y-119410857D01*
X113581714Y-119339429D01*
X113867429Y-119268000D01*
X114081714Y-119268000D01*
X114367429Y-119339429D01*
X114510286Y-119410857D01*
X114653143Y-119553715D01*
X114724571Y-119768000D01*
X114724571Y-120125143D01*
X114724571Y-117982286D02*
X113938857Y-117982286D01*
X113796000Y-118053715D01*
X113724571Y-118196572D01*
X113724571Y-118482286D01*
X113796000Y-118625143D01*
X114653143Y-117982286D02*
X114724571Y-118125143D01*
X114724571Y-118482286D01*
X114653143Y-118625143D01*
X114510286Y-118696572D01*
X114367429Y-118696572D01*
X114224571Y-118625143D01*
X114153143Y-118482286D01*
X114153143Y-118125143D01*
X114081714Y-117982286D01*
X113724571Y-117410857D02*
X114724571Y-117053714D01*
X113724571Y-116696572D01*
X114724571Y-116125143D02*
X113724571Y-116125143D01*
X113224571Y-116125143D02*
X113296000Y-116196572D01*
X113367429Y-116125143D01*
X113296000Y-116053715D01*
X113224571Y-116125143D01*
X113367429Y-116125143D01*
X114724571Y-114768000D02*
X113224571Y-114768000D01*
X114653143Y-114768000D02*
X114724571Y-114910857D01*
X114724571Y-115196571D01*
X114653143Y-115339429D01*
X114581714Y-115410857D01*
X114438857Y-115482286D01*
X114010286Y-115482286D01*
X113867429Y-115410857D01*
X113796000Y-115339429D01*
X113724571Y-115196571D01*
X113724571Y-114910857D01*
X113796000Y-114768000D01*
X114724571Y-112196571D02*
X114724571Y-112910857D01*
X113224571Y-112910857D01*
X114653143Y-111125143D02*
X114724571Y-111268000D01*
X114724571Y-111553714D01*
X114653143Y-111696571D01*
X114510286Y-111768000D01*
X113938857Y-111768000D01*
X113796000Y-111696571D01*
X113724571Y-111553714D01*
X113724571Y-111268000D01*
X113796000Y-111125143D01*
X113938857Y-111053714D01*
X114081714Y-111053714D01*
X114224571Y-111768000D01*
X113724571Y-110410857D02*
X114724571Y-110410857D01*
X113867429Y-110410857D02*
X113796000Y-110339429D01*
X113724571Y-110196571D01*
X113724571Y-109982286D01*
X113796000Y-109839429D01*
X113938857Y-109768000D01*
X114724571Y-109768000D01*
X113724571Y-109268000D02*
X113724571Y-108696571D01*
X114724571Y-109053714D02*
X113438857Y-109053714D01*
X113296000Y-108982286D01*
X113224571Y-108839428D01*
X113224571Y-108696571D01*
X114653143Y-107625143D02*
X114724571Y-107768000D01*
X114724571Y-108053714D01*
X114653143Y-108196571D01*
X114510286Y-108268000D01*
X113938857Y-108268000D01*
X113796000Y-108196571D01*
X113724571Y-108053714D01*
X113724571Y-107768000D01*
X113796000Y-107625143D01*
X113938857Y-107553714D01*
X114081714Y-107553714D01*
X114224571Y-108268000D01*
X114653143Y-106982286D02*
X114724571Y-106839429D01*
X114724571Y-106553714D01*
X114653143Y-106410857D01*
X114510286Y-106339429D01*
X114438857Y-106339429D01*
X114296000Y-106410857D01*
X114224571Y-106553714D01*
X114224571Y-106768000D01*
X114153143Y-106910857D01*
X114010286Y-106982286D01*
X113938857Y-106982286D01*
X113796000Y-106910857D01*
X113724571Y-106768000D01*
X113724571Y-106553714D01*
X113796000Y-106410857D01*
X113724571Y-105910857D02*
X113724571Y-105339428D01*
X113224571Y-105696571D02*
X114510286Y-105696571D01*
X114653143Y-105625143D01*
X114724571Y-105482285D01*
X114724571Y-105339428D01*
X113724571Y-104982285D02*
X114724571Y-104625142D01*
X113724571Y-104268000D02*
X114724571Y-104625142D01*
X115081714Y-104768000D01*
X115153143Y-104839428D01*
X115224571Y-104982285D01*
X114631571Y-80585571D02*
X114631571Y-81799857D01*
X114702999Y-81942714D01*
X114774428Y-82014143D01*
X114917285Y-82085571D01*
X115202999Y-82085571D01*
X115345857Y-82014143D01*
X115417285Y-81942714D01*
X115488714Y-81799857D01*
X115488714Y-80585571D01*
X116203000Y-81085571D02*
X116203000Y-82085571D01*
X116203000Y-81228429D02*
X116274428Y-81157000D01*
X116417286Y-81085571D01*
X116631571Y-81085571D01*
X116774428Y-81157000D01*
X116845857Y-81299857D01*
X116845857Y-82085571D01*
X117774429Y-82085571D02*
X117631571Y-82014143D01*
X117560143Y-81942714D01*
X117488714Y-81799857D01*
X117488714Y-81371286D01*
X117560143Y-81228429D01*
X117631571Y-81157000D01*
X117774429Y-81085571D01*
X117988714Y-81085571D01*
X118131571Y-81157000D01*
X118203000Y-81228429D01*
X118274429Y-81371286D01*
X118274429Y-81799857D01*
X118203000Y-81942714D01*
X118131571Y-82014143D01*
X117988714Y-82085571D01*
X117774429Y-82085571D01*
X120060143Y-82085571D02*
X120060143Y-80585571D01*
X120560143Y-81657000D01*
X121060143Y-80585571D01*
X121060143Y-82085571D01*
X122417286Y-81085571D02*
X122417286Y-82085571D01*
X121774429Y-81085571D02*
X121774429Y-81871286D01*
X121845857Y-82014143D01*
X121988715Y-82085571D01*
X122203000Y-82085571D01*
X122345857Y-82014143D01*
X122417286Y-81942714D01*
X123345858Y-82085571D02*
X123203000Y-82014143D01*
X123131572Y-81871286D01*
X123131572Y-80585571D01*
X123703000Y-81085571D02*
X124274429Y-81085571D01*
X123917286Y-80585571D02*
X123917286Y-81871286D01*
X123988714Y-82014143D01*
X124131572Y-82085571D01*
X124274429Y-82085571D01*
X124774429Y-82085571D02*
X124774429Y-81085571D01*
X124774429Y-80585571D02*
X124703000Y-80657000D01*
X124774429Y-80728429D01*
X124845857Y-80657000D01*
X124774429Y-80585571D01*
X124774429Y-80728429D01*
X125488715Y-81085571D02*
X125488715Y-82585571D01*
X125488715Y-81157000D02*
X125631572Y-81085571D01*
X125917286Y-81085571D01*
X126060143Y-81157000D01*
X126131572Y-81228429D01*
X126203001Y-81371286D01*
X126203001Y-81799857D01*
X126131572Y-81942714D01*
X126060143Y-82014143D01*
X125917286Y-82085571D01*
X125631572Y-82085571D01*
X125488715Y-82014143D01*
X127060144Y-82085571D02*
X126917286Y-82014143D01*
X126845858Y-81871286D01*
X126845858Y-80585571D01*
X128203000Y-82014143D02*
X128060143Y-82085571D01*
X127774429Y-82085571D01*
X127631572Y-82014143D01*
X127560143Y-81871286D01*
X127560143Y-81299857D01*
X127631572Y-81157000D01*
X127774429Y-81085571D01*
X128060143Y-81085571D01*
X128203000Y-81157000D01*
X128274429Y-81299857D01*
X128274429Y-81442714D01*
X127560143Y-81585571D01*
X128774429Y-82085571D02*
X129560143Y-81085571D01*
X128774429Y-81085571D02*
X129560143Y-82085571D01*
X130131572Y-82085571D02*
X130131572Y-81085571D01*
X130131572Y-80585571D02*
X130060143Y-80657000D01*
X130131572Y-80728429D01*
X130203000Y-80657000D01*
X130131572Y-80585571D01*
X130131572Y-80728429D01*
X130845858Y-81085571D02*
X130845858Y-82085571D01*
X130845858Y-81228429D02*
X130917286Y-81157000D01*
X131060144Y-81085571D01*
X131274429Y-81085571D01*
X131417286Y-81157000D01*
X131488715Y-81299857D01*
X131488715Y-82085571D01*
X132845858Y-81085571D02*
X132845858Y-82299857D01*
X132774429Y-82442714D01*
X132703001Y-82514143D01*
X132560144Y-82585571D01*
X132345858Y-82585571D01*
X132203001Y-82514143D01*
X132845858Y-82014143D02*
X132703001Y-82085571D01*
X132417287Y-82085571D01*
X132274429Y-82014143D01*
X132203001Y-81942714D01*
X132131572Y-81799857D01*
X132131572Y-81371286D01*
X132203001Y-81228429D01*
X132274429Y-81157000D01*
X132417287Y-81085571D01*
X132703001Y-81085571D01*
X132845858Y-81157000D01*
X134631572Y-82014143D02*
X134845858Y-82085571D01*
X135203001Y-82085571D01*
X135345858Y-82014143D01*
X135417287Y-81942714D01*
X135488715Y-81799857D01*
X135488715Y-81657000D01*
X135417287Y-81514143D01*
X135345858Y-81442714D01*
X135203001Y-81371286D01*
X134917287Y-81299857D01*
X134774429Y-81228429D01*
X134703001Y-81157000D01*
X134631572Y-81014143D01*
X134631572Y-80871286D01*
X134703001Y-80728429D01*
X134774429Y-80657000D01*
X134917287Y-80585571D01*
X135274429Y-80585571D01*
X135488715Y-80657000D01*
X135988715Y-81085571D02*
X136274429Y-82085571D01*
X136560143Y-81371286D01*
X136845858Y-82085571D01*
X137131572Y-81085571D01*
X137703001Y-82085571D02*
X137703001Y-81085571D01*
X137703001Y-80585571D02*
X137631572Y-80657000D01*
X137703001Y-80728429D01*
X137774429Y-80657000D01*
X137703001Y-80585571D01*
X137703001Y-80728429D01*
X138203001Y-81085571D02*
X138774430Y-81085571D01*
X138417287Y-80585571D02*
X138417287Y-81871286D01*
X138488715Y-82014143D01*
X138631573Y-82085571D01*
X138774430Y-82085571D01*
X139917287Y-82014143D02*
X139774430Y-82085571D01*
X139488716Y-82085571D01*
X139345858Y-82014143D01*
X139274430Y-81942714D01*
X139203001Y-81799857D01*
X139203001Y-81371286D01*
X139274430Y-81228429D01*
X139345858Y-81157000D01*
X139488716Y-81085571D01*
X139774430Y-81085571D01*
X139917287Y-81157000D01*
X140560144Y-82085571D02*
X140560144Y-80585571D01*
X141203001Y-82085571D02*
X141203001Y-81299857D01*
X141131572Y-81157000D01*
X140988715Y-81085571D01*
X140774430Y-81085571D01*
X140631572Y-81157000D01*
X140560144Y-81228429D01*
X142988715Y-82014143D02*
X143203001Y-82085571D01*
X143560144Y-82085571D01*
X143703001Y-82014143D01*
X143774430Y-81942714D01*
X143845858Y-81799857D01*
X143845858Y-81657000D01*
X143774430Y-81514143D01*
X143703001Y-81442714D01*
X143560144Y-81371286D01*
X143274430Y-81299857D01*
X143131572Y-81228429D01*
X143060144Y-81157000D01*
X142988715Y-81014143D01*
X142988715Y-80871286D01*
X143060144Y-80728429D01*
X143131572Y-80657000D01*
X143274430Y-80585571D01*
X143631572Y-80585571D01*
X143845858Y-80657000D01*
X144488715Y-82085571D02*
X144488715Y-80585571D01*
X145131572Y-82085571D02*
X145131572Y-81299857D01*
X145060143Y-81157000D01*
X144917286Y-81085571D01*
X144703001Y-81085571D01*
X144560143Y-81157000D01*
X144488715Y-81228429D01*
X145845858Y-82085571D02*
X145845858Y-81085571D01*
X145845858Y-80585571D02*
X145774429Y-80657000D01*
X145845858Y-80728429D01*
X145917286Y-80657000D01*
X145845858Y-80585571D01*
X145845858Y-80728429D01*
X147131572Y-82014143D02*
X146988715Y-82085571D01*
X146703001Y-82085571D01*
X146560144Y-82014143D01*
X146488715Y-81871286D01*
X146488715Y-81299857D01*
X146560144Y-81157000D01*
X146703001Y-81085571D01*
X146988715Y-81085571D01*
X147131572Y-81157000D01*
X147203001Y-81299857D01*
X147203001Y-81442714D01*
X146488715Y-81585571D01*
X148060144Y-82085571D02*
X147917286Y-82014143D01*
X147845858Y-81871286D01*
X147845858Y-80585571D01*
X149274429Y-82085571D02*
X149274429Y-80585571D01*
X149274429Y-82014143D02*
X149131572Y-82085571D01*
X148845858Y-82085571D01*
X148703000Y-82014143D01*
X148631572Y-81942714D01*
X148560143Y-81799857D01*
X148560143Y-81371286D01*
X148631572Y-81228429D01*
X148703000Y-81157000D01*
X148845858Y-81085571D01*
X149131572Y-81085571D01*
X149274429Y-81157000D01*
D12*
X139390381Y-120999285D02*
X139390381Y-121570714D01*
X139390381Y-121285000D02*
X138390381Y-121285000D01*
X138533238Y-121380238D01*
X138628476Y-121475476D01*
X138676095Y-121570714D01*
X140208000Y-125095000D02*
X157988000Y-125095000D01*
X157988000Y-125095000D02*
X157988000Y-122555000D01*
X157988000Y-122555000D02*
X140208000Y-122555000D01*
X137388000Y-125375000D02*
X138938000Y-125375000D01*
X140208000Y-125095000D02*
X140208000Y-122555000D01*
X138938000Y-122275000D02*
X137388000Y-122275000D01*
X137388000Y-122275000D02*
X137388000Y-125375000D01*
X163068000Y-125095000D02*
X175768000Y-125095000D01*
X175768000Y-125095000D02*
X175768000Y-122555000D01*
X175768000Y-122555000D02*
X163068000Y-122555000D01*
X160248000Y-125375000D02*
X161798000Y-125375000D01*
X163068000Y-125095000D02*
X163068000Y-122555000D01*
X161798000Y-122275000D02*
X160248000Y-122275000D01*
X160248000Y-122275000D02*
X160248000Y-125375000D01*
X131064000Y-76835000D02*
X153924000Y-76835000D01*
X153924000Y-76835000D02*
X153924000Y-74295000D01*
X153924000Y-74295000D02*
X131064000Y-74295000D01*
X128244000Y-77115000D02*
X129794000Y-77115000D01*
X131064000Y-76835000D02*
X131064000Y-74295000D01*
X129794000Y-74015000D02*
X128244000Y-74015000D01*
X128244000Y-74015000D02*
X128244000Y-77115000D01*
X157988000Y-76835000D02*
X175768000Y-76835000D01*
X175768000Y-76835000D02*
X175768000Y-74295000D01*
X175768000Y-74295000D02*
X157988000Y-74295000D01*
X155168000Y-77115000D02*
X156718000Y-77115000D01*
X157988000Y-76835000D02*
X157988000Y-74295000D01*
X156718000Y-74015000D02*
X155168000Y-74015000D01*
X155168000Y-74015000D02*
X155168000Y-77115000D01*
X127254000Y-123825000D02*
G75*
G03X127254000Y-123825000I-2286000J0D01*
G01*
X179324000Y-118745000D02*
G75*
G03X179324000Y-118745000I-2286000J0D01*
G01*
X128524000Y-75565000D02*
G75*
G03X128524000Y-75565000I-2286000J0D01*
G01*
X179324000Y-90805000D02*
G75*
G03X179324000Y-90805000I-2286000J0D01*
G01*
X170858000Y-80415000D02*
X173258000Y-80415000D01*
X173258000Y-80415000D02*
X173258000Y-83415000D01*
X173258000Y-83415000D02*
X170658000Y-83415000D01*
X170658000Y-83415000D02*
X170658000Y-80415000D01*
X170658000Y-80415000D02*
X170858000Y-80415000D01*
X167048000Y-80415000D02*
X169448000Y-80415000D01*
X169448000Y-80415000D02*
X169448000Y-83415000D01*
X169448000Y-83415000D02*
X166848000Y-83415000D01*
X166848000Y-83415000D02*
X166848000Y-80415000D01*
X166848000Y-80415000D02*
X167048000Y-80415000D01*
X175373000Y-85125000D02*
X175373000Y-86325000D01*
X173623000Y-86325000D02*
X173623000Y-85125000D01*
X164733000Y-86325000D02*
X164733000Y-85125000D01*
X166483000Y-85125000D02*
X166483000Y-86325000D01*
X171083000Y-86325000D02*
X171083000Y-85125000D01*
X172833000Y-85125000D02*
X172833000Y-86325000D01*
X167273000Y-86325000D02*
X167273000Y-85125000D01*
X169023000Y-85125000D02*
X169023000Y-86325000D01*
D13*
X130328000Y-111255000D02*
X130328000Y-88335000D01*
X130328000Y-88335000D02*
X127668000Y-88335000D01*
X127668000Y-88335000D02*
X127668000Y-111255000D01*
X127668000Y-111255000D02*
X130328000Y-111255000D01*
X130328000Y-112525000D02*
X130328000Y-113855000D01*
X130328000Y-113855000D02*
X128998000Y-113855000D01*
X137328000Y-111095000D02*
X137328000Y-88175000D01*
X137328000Y-88175000D02*
X134668000Y-88175000D01*
X134668000Y-88175000D02*
X134668000Y-111095000D01*
X134668000Y-111095000D02*
X137328000Y-111095000D01*
X137328000Y-112365000D02*
X137328000Y-113695000D01*
X137328000Y-113695000D02*
X135998000Y-113695000D01*
X144328000Y-111155000D02*
X144328000Y-88235000D01*
X144328000Y-88235000D02*
X141668000Y-88235000D01*
X141668000Y-88235000D02*
X141668000Y-111155000D01*
X141668000Y-111155000D02*
X144328000Y-111155000D01*
X144328000Y-112425000D02*
X144328000Y-113755000D01*
X144328000Y-113755000D02*
X142998000Y-113755000D01*
X150328000Y-111255000D02*
X150328000Y-88335000D01*
X150328000Y-88335000D02*
X147668000Y-88335000D01*
X147668000Y-88335000D02*
X147668000Y-111255000D01*
X147668000Y-111255000D02*
X150328000Y-111255000D01*
X150328000Y-112525000D02*
X150328000Y-113855000D01*
X150328000Y-113855000D02*
X148998000Y-113855000D01*
X155328000Y-111255000D02*
X155328000Y-88335000D01*
X155328000Y-88335000D02*
X152668000Y-88335000D01*
X152668000Y-88335000D02*
X152668000Y-111255000D01*
X152668000Y-111255000D02*
X155328000Y-111255000D01*
X155328000Y-112525000D02*
X155328000Y-113855000D01*
X155328000Y-113855000D02*
X153998000Y-113855000D01*
X161328000Y-111255000D02*
X161328000Y-88335000D01*
X161328000Y-88335000D02*
X158668000Y-88335000D01*
X158668000Y-88335000D02*
X158668000Y-111255000D01*
X158668000Y-111255000D02*
X161328000Y-111255000D01*
X161328000Y-112525000D02*
X161328000Y-113855000D01*
X161328000Y-113855000D02*
X159998000Y-113855000D01*
D12*
X147089905Y-121737381D02*
X147089905Y-120737381D01*
X147470858Y-120737381D01*
X147566096Y-120785000D01*
X147613715Y-120832619D01*
X147661334Y-120927857D01*
X147661334Y-121070714D01*
X147613715Y-121165952D01*
X147566096Y-121213571D01*
X147470858Y-121261190D01*
X147089905Y-121261190D01*
X148613715Y-121737381D02*
X148042286Y-121737381D01*
X148328000Y-121737381D02*
X148328000Y-120737381D01*
X148232762Y-120880238D01*
X148137524Y-120975476D01*
X148042286Y-121023095D01*
X167663905Y-121737381D02*
X167663905Y-120737381D01*
X168044858Y-120737381D01*
X168140096Y-120785000D01*
X168187715Y-120832619D01*
X168235334Y-120927857D01*
X168235334Y-121070714D01*
X168187715Y-121165952D01*
X168140096Y-121213571D01*
X168044858Y-121261190D01*
X167663905Y-121261190D01*
X168616286Y-120832619D02*
X168663905Y-120785000D01*
X168759143Y-120737381D01*
X168997239Y-120737381D01*
X169092477Y-120785000D01*
X169140096Y-120832619D01*
X169187715Y-120927857D01*
X169187715Y-121023095D01*
X169140096Y-121165952D01*
X168568667Y-121737381D01*
X169187715Y-121737381D01*
X140485905Y-78811381D02*
X140485905Y-77811381D01*
X140866858Y-77811381D01*
X140962096Y-77859000D01*
X141009715Y-77906619D01*
X141057334Y-78001857D01*
X141057334Y-78144714D01*
X141009715Y-78239952D01*
X140962096Y-78287571D01*
X140866858Y-78335190D01*
X140485905Y-78335190D01*
X141390667Y-77811381D02*
X142009715Y-77811381D01*
X141676381Y-78192333D01*
X141819239Y-78192333D01*
X141914477Y-78239952D01*
X141962096Y-78287571D01*
X142009715Y-78382810D01*
X142009715Y-78620905D01*
X141962096Y-78716143D01*
X141914477Y-78763762D01*
X141819239Y-78811381D01*
X141533524Y-78811381D01*
X141438286Y-78763762D01*
X141390667Y-78716143D01*
X164869905Y-78811381D02*
X164869905Y-77811381D01*
X165250858Y-77811381D01*
X165346096Y-77859000D01*
X165393715Y-77906619D01*
X165441334Y-78001857D01*
X165441334Y-78144714D01*
X165393715Y-78239952D01*
X165346096Y-78287571D01*
X165250858Y-78335190D01*
X164869905Y-78335190D01*
X166298477Y-78144714D02*
X166298477Y-78811381D01*
X166060381Y-77763762D02*
X165822286Y-78478048D01*
X166441334Y-78478048D01*
X173710381Y-82748333D02*
X174424667Y-82748333D01*
X174567524Y-82795953D01*
X174662762Y-82891191D01*
X174710381Y-83034048D01*
X174710381Y-83129286D01*
X174710381Y-82272143D02*
X173710381Y-82272143D01*
X173710381Y-81891190D01*
X173758000Y-81795952D01*
X173805619Y-81748333D01*
X173900857Y-81700714D01*
X174043714Y-81700714D01*
X174138952Y-81748333D01*
X174186571Y-81795952D01*
X174234190Y-81891190D01*
X174234190Y-82272143D01*
X174710381Y-80748333D02*
X174710381Y-81319762D01*
X174710381Y-81034048D02*
X173710381Y-81034048D01*
X173853238Y-81129286D01*
X173948476Y-81224524D01*
X173996095Y-81319762D01*
X165060381Y-82748333D02*
X165774667Y-82748333D01*
X165917524Y-82795953D01*
X166012762Y-82891191D01*
X166060381Y-83034048D01*
X166060381Y-83129286D01*
X166060381Y-82272143D02*
X165060381Y-82272143D01*
X165060381Y-81891190D01*
X165108000Y-81795952D01*
X165155619Y-81748333D01*
X165250857Y-81700714D01*
X165393714Y-81700714D01*
X165488952Y-81748333D01*
X165536571Y-81795952D01*
X165584190Y-81891190D01*
X165584190Y-82272143D01*
X165155619Y-81319762D02*
X165108000Y-81272143D01*
X165060381Y-81176905D01*
X165060381Y-80938809D01*
X165108000Y-80843571D01*
X165155619Y-80795952D01*
X165250857Y-80748333D01*
X165346095Y-80748333D01*
X165488952Y-80795952D01*
X166060381Y-81367381D01*
X166060381Y-80748333D01*
X172410381Y-88685666D02*
X171934190Y-89019000D01*
X172410381Y-89257095D02*
X171410381Y-89257095D01*
X171410381Y-88876142D01*
X171458000Y-88780904D01*
X171505619Y-88733285D01*
X171600857Y-88685666D01*
X171743714Y-88685666D01*
X171838952Y-88733285D01*
X171886571Y-88780904D01*
X171934190Y-88876142D01*
X171934190Y-89257095D01*
X172410381Y-88209476D02*
X172410381Y-88019000D01*
X172362762Y-87923761D01*
X172315143Y-87876142D01*
X172172286Y-87780904D01*
X171981810Y-87733285D01*
X171600857Y-87733285D01*
X171505619Y-87780904D01*
X171458000Y-87828523D01*
X171410381Y-87923761D01*
X171410381Y-88114238D01*
X171458000Y-88209476D01*
X171505619Y-88257095D01*
X171600857Y-88304714D01*
X171838952Y-88304714D01*
X171934190Y-88257095D01*
X171981810Y-88209476D01*
X172029429Y-88114238D01*
X172029429Y-87923761D01*
X171981810Y-87828523D01*
X171934190Y-87780904D01*
X171838952Y-87733285D01*
X166060381Y-89542857D02*
X165584190Y-89876191D01*
X166060381Y-90114286D02*
X165060381Y-90114286D01*
X165060381Y-89733333D01*
X165108000Y-89638095D01*
X165155619Y-89590476D01*
X165250857Y-89542857D01*
X165393714Y-89542857D01*
X165488952Y-89590476D01*
X165536571Y-89638095D01*
X165584190Y-89733333D01*
X165584190Y-90114286D01*
X166060381Y-88590476D02*
X166060381Y-89161905D01*
X166060381Y-88876191D02*
X165060381Y-88876191D01*
X165203238Y-88971429D01*
X165298476Y-89066667D01*
X165346095Y-89161905D01*
X165060381Y-87971429D02*
X165060381Y-87876190D01*
X165108000Y-87780952D01*
X165155619Y-87733333D01*
X165250857Y-87685714D01*
X165441333Y-87638095D01*
X165679429Y-87638095D01*
X165869905Y-87685714D01*
X165965143Y-87733333D01*
X166012762Y-87780952D01*
X166060381Y-87876190D01*
X166060381Y-87971429D01*
X166012762Y-88066667D01*
X165965143Y-88114286D01*
X165869905Y-88161905D01*
X165679429Y-88209524D01*
X165441333Y-88209524D01*
X165250857Y-88161905D01*
X165155619Y-88114286D01*
X165108000Y-88066667D01*
X165060381Y-87971429D01*
X174950381Y-89415857D02*
X174474190Y-89749191D01*
X174950381Y-89987286D02*
X173950381Y-89987286D01*
X173950381Y-89606333D01*
X173998000Y-89511095D01*
X174045619Y-89463476D01*
X174140857Y-89415857D01*
X174283714Y-89415857D01*
X174378952Y-89463476D01*
X174426571Y-89511095D01*
X174474190Y-89606333D01*
X174474190Y-89987286D01*
X174950381Y-88463476D02*
X174950381Y-89034905D01*
X174950381Y-88749191D02*
X173950381Y-88749191D01*
X174093238Y-88844429D01*
X174188476Y-88939667D01*
X174236095Y-89034905D01*
X174950381Y-87511095D02*
X174950381Y-88082524D01*
X174950381Y-87796810D02*
X173950381Y-87796810D01*
X174093238Y-87892048D01*
X174188476Y-87987286D01*
X174236095Y-88082524D01*
X168600381Y-89542857D02*
X168124190Y-89876191D01*
X168600381Y-90114286D02*
X167600381Y-90114286D01*
X167600381Y-89733333D01*
X167648000Y-89638095D01*
X167695619Y-89590476D01*
X167790857Y-89542857D01*
X167933714Y-89542857D01*
X168028952Y-89590476D01*
X168076571Y-89638095D01*
X168124190Y-89733333D01*
X168124190Y-90114286D01*
X168600381Y-88590476D02*
X168600381Y-89161905D01*
X168600381Y-88876191D02*
X167600381Y-88876191D01*
X167743238Y-88971429D01*
X167838476Y-89066667D01*
X167886095Y-89161905D01*
X167695619Y-88209524D02*
X167648000Y-88161905D01*
X167600381Y-88066667D01*
X167600381Y-87828571D01*
X167648000Y-87733333D01*
X167695619Y-87685714D01*
X167790857Y-87638095D01*
X167886095Y-87638095D01*
X168028952Y-87685714D01*
X168600381Y-88257143D01*
X168600381Y-87638095D01*
X128259905Y-115307381D02*
X128259905Y-114307381D01*
X128640858Y-114307381D01*
X128736096Y-114355000D01*
X128783715Y-114402619D01*
X128831334Y-114497857D01*
X128831334Y-114640714D01*
X128783715Y-114735952D01*
X128736096Y-114783571D01*
X128640858Y-114831190D01*
X128259905Y-114831190D01*
X129307524Y-115307381D02*
X129498000Y-115307381D01*
X129593239Y-115259762D01*
X129640858Y-115212143D01*
X129736096Y-115069286D01*
X129783715Y-114878810D01*
X129783715Y-114497857D01*
X129736096Y-114402619D01*
X129688477Y-114355000D01*
X129593239Y-114307381D01*
X129402762Y-114307381D01*
X129307524Y-114355000D01*
X129259905Y-114402619D01*
X129212286Y-114497857D01*
X129212286Y-114735952D01*
X129259905Y-114831190D01*
X129307524Y-114878810D01*
X129402762Y-114926429D01*
X129593239Y-114926429D01*
X129688477Y-114878810D01*
X129736096Y-114831190D01*
X129783715Y-114735952D01*
X134783714Y-115147381D02*
X134783714Y-114147381D01*
X135164667Y-114147381D01*
X135259905Y-114195000D01*
X135307524Y-114242619D01*
X135355143Y-114337857D01*
X135355143Y-114480714D01*
X135307524Y-114575952D01*
X135259905Y-114623571D01*
X135164667Y-114671190D01*
X134783714Y-114671190D01*
X136307524Y-115147381D02*
X135736095Y-115147381D01*
X136021809Y-115147381D02*
X136021809Y-114147381D01*
X135926571Y-114290238D01*
X135831333Y-114385476D01*
X135736095Y-114433095D01*
X136926571Y-114147381D02*
X137021810Y-114147381D01*
X137117048Y-114195000D01*
X137164667Y-114242619D01*
X137212286Y-114337857D01*
X137259905Y-114528333D01*
X137259905Y-114766429D01*
X137212286Y-114956905D01*
X137164667Y-115052143D01*
X137117048Y-115099762D01*
X137021810Y-115147381D01*
X136926571Y-115147381D01*
X136831333Y-115099762D01*
X136783714Y-115052143D01*
X136736095Y-114956905D01*
X136688476Y-114766429D01*
X136688476Y-114528333D01*
X136736095Y-114337857D01*
X136783714Y-114242619D01*
X136831333Y-114195000D01*
X136926571Y-114147381D01*
X141783714Y-115207381D02*
X141783714Y-114207381D01*
X142164667Y-114207381D01*
X142259905Y-114255000D01*
X142307524Y-114302619D01*
X142355143Y-114397857D01*
X142355143Y-114540714D01*
X142307524Y-114635952D01*
X142259905Y-114683571D01*
X142164667Y-114731190D01*
X141783714Y-114731190D01*
X143307524Y-115207381D02*
X142736095Y-115207381D01*
X143021809Y-115207381D02*
X143021809Y-114207381D01*
X142926571Y-114350238D01*
X142831333Y-114445476D01*
X142736095Y-114493095D01*
X144259905Y-115207381D02*
X143688476Y-115207381D01*
X143974190Y-115207381D02*
X143974190Y-114207381D01*
X143878952Y-114350238D01*
X143783714Y-114445476D01*
X143688476Y-114493095D01*
X147783714Y-115307381D02*
X147783714Y-114307381D01*
X148164667Y-114307381D01*
X148259905Y-114355000D01*
X148307524Y-114402619D01*
X148355143Y-114497857D01*
X148355143Y-114640714D01*
X148307524Y-114735952D01*
X148259905Y-114783571D01*
X148164667Y-114831190D01*
X147783714Y-114831190D01*
X149307524Y-115307381D02*
X148736095Y-115307381D01*
X149021809Y-115307381D02*
X149021809Y-114307381D01*
X148926571Y-114450238D01*
X148831333Y-114545476D01*
X148736095Y-114593095D01*
X149688476Y-114402619D02*
X149736095Y-114355000D01*
X149831333Y-114307381D01*
X150069429Y-114307381D01*
X150164667Y-114355000D01*
X150212286Y-114402619D01*
X150259905Y-114497857D01*
X150259905Y-114593095D01*
X150212286Y-114735952D01*
X149640857Y-115307381D01*
X150259905Y-115307381D01*
X152783714Y-115307381D02*
X152783714Y-114307381D01*
X153164667Y-114307381D01*
X153259905Y-114355000D01*
X153307524Y-114402619D01*
X153355143Y-114497857D01*
X153355143Y-114640714D01*
X153307524Y-114735952D01*
X153259905Y-114783571D01*
X153164667Y-114831190D01*
X152783714Y-114831190D01*
X154307524Y-115307381D02*
X153736095Y-115307381D01*
X154021809Y-115307381D02*
X154021809Y-114307381D01*
X153926571Y-114450238D01*
X153831333Y-114545476D01*
X153736095Y-114593095D01*
X154640857Y-114307381D02*
X155259905Y-114307381D01*
X154926571Y-114688333D01*
X155069429Y-114688333D01*
X155164667Y-114735952D01*
X155212286Y-114783571D01*
X155259905Y-114878810D01*
X155259905Y-115116905D01*
X155212286Y-115212143D01*
X155164667Y-115259762D01*
X155069429Y-115307381D01*
X154783714Y-115307381D01*
X154688476Y-115259762D01*
X154640857Y-115212143D01*
X158783714Y-115307381D02*
X158783714Y-114307381D01*
X159164667Y-114307381D01*
X159259905Y-114355000D01*
X159307524Y-114402619D01*
X159355143Y-114497857D01*
X159355143Y-114640714D01*
X159307524Y-114735952D01*
X159259905Y-114783571D01*
X159164667Y-114831190D01*
X158783714Y-114831190D01*
X160307524Y-115307381D02*
X159736095Y-115307381D01*
X160021809Y-115307381D02*
X160021809Y-114307381D01*
X159926571Y-114450238D01*
X159831333Y-114545476D01*
X159736095Y-114593095D01*
X161164667Y-114640714D02*
X161164667Y-115307381D01*
X160926571Y-114259762D02*
X160688476Y-114974048D01*
X161307524Y-114974048D01*
M02*
