G04 #@! TF.FileFunction,Copper,L1,Top,Signal*
%FSLAX46Y46*%
G04 Gerber Fmt 4.6, Leading zero omitted, Abs format (unit mm)*
G04 Created by KiCad (PCBNEW 4.0.7) date 12/04/17 16:46:56*
%MOMM*%
%LPD*%
G01*
G04 APERTURE LIST*
%ADD10C,0.100000*%
%ADD11O,1.727200X2.032000*%
%ADD12C,4.064000*%
%ADD13R,2.000000X1.000000*%
%ADD14R,1.300000X0.700000*%
%ADD15R,1.700000X1.700000*%
%ADD16O,1.700000X1.700000*%
%ADD17C,0.600000*%
%ADD18C,0.381000*%
%ADD19C,0.250000*%
G04 APERTURE END LIST*
D10*
D11*
X138938000Y-123825000D03*
X141478000Y-123825000D03*
X144018000Y-123825000D03*
X146558000Y-123825000D03*
X149098000Y-123825000D03*
X151638000Y-123825000D03*
X154178000Y-123825000D03*
X156718000Y-123825000D03*
X161798000Y-123825000D03*
X164338000Y-123825000D03*
X166878000Y-123825000D03*
X169418000Y-123825000D03*
X171958000Y-123825000D03*
X174498000Y-123825000D03*
X129794000Y-75565000D03*
X132334000Y-75565000D03*
X134874000Y-75565000D03*
X137414000Y-75565000D03*
X139954000Y-75565000D03*
X142494000Y-75565000D03*
X145034000Y-75565000D03*
X147574000Y-75565000D03*
X150114000Y-75565000D03*
X152654000Y-75565000D03*
X156718000Y-75565000D03*
X159258000Y-75565000D03*
X161798000Y-75565000D03*
X164338000Y-75565000D03*
X166878000Y-75565000D03*
X169418000Y-75565000D03*
X171958000Y-75565000D03*
X174498000Y-75565000D03*
D12*
X124968000Y-123825000D03*
X177038000Y-118745000D03*
X126238000Y-75565000D03*
X177038000Y-90805000D03*
D13*
X171958000Y-81215000D03*
X171958000Y-82615000D03*
X168148000Y-81215000D03*
X168148000Y-82615000D03*
D14*
X174498000Y-86675000D03*
X174498000Y-84775000D03*
X165608000Y-84775000D03*
X165608000Y-86675000D03*
X171958000Y-84775000D03*
X171958000Y-86675000D03*
X168148000Y-84775000D03*
X168148000Y-86675000D03*
D15*
X128998000Y-112525000D03*
D16*
X128998000Y-109985000D03*
X128998000Y-107445000D03*
X128998000Y-104905000D03*
X128998000Y-102365000D03*
X128998000Y-99825000D03*
X128998000Y-97285000D03*
X128998000Y-94745000D03*
X128998000Y-92205000D03*
X128998000Y-89665000D03*
D15*
X135998000Y-112365000D03*
D16*
X135998000Y-109825000D03*
X135998000Y-107285000D03*
X135998000Y-104745000D03*
X135998000Y-102205000D03*
X135998000Y-99665000D03*
X135998000Y-97125000D03*
X135998000Y-94585000D03*
X135998000Y-92045000D03*
X135998000Y-89505000D03*
D15*
X142998000Y-112425000D03*
D16*
X142998000Y-109885000D03*
X142998000Y-107345000D03*
X142998000Y-104805000D03*
X142998000Y-102265000D03*
X142998000Y-99725000D03*
X142998000Y-97185000D03*
X142998000Y-94645000D03*
X142998000Y-92105000D03*
X142998000Y-89565000D03*
D15*
X148998000Y-112525000D03*
D16*
X148998000Y-109985000D03*
X148998000Y-107445000D03*
X148998000Y-104905000D03*
X148998000Y-102365000D03*
X148998000Y-99825000D03*
X148998000Y-97285000D03*
X148998000Y-94745000D03*
X148998000Y-92205000D03*
X148998000Y-89665000D03*
D15*
X153998000Y-112525000D03*
D16*
X153998000Y-109985000D03*
X153998000Y-107445000D03*
X153998000Y-104905000D03*
X153998000Y-102365000D03*
X153998000Y-99825000D03*
X153998000Y-97285000D03*
X153998000Y-94745000D03*
X153998000Y-92205000D03*
X153998000Y-89665000D03*
D15*
X159998000Y-112525000D03*
D16*
X159998000Y-109985000D03*
X159998000Y-107445000D03*
X159998000Y-104905000D03*
X159998000Y-102365000D03*
X159998000Y-99825000D03*
X159998000Y-97285000D03*
X159998000Y-94745000D03*
X159998000Y-92205000D03*
X159998000Y-89665000D03*
D17*
X130998000Y-115365000D03*
X137852770Y-115365000D03*
X144249448Y-115165000D03*
X150770610Y-115465000D03*
X155922782Y-115465000D03*
X161947228Y-115465000D03*
X170053000Y-86675000D03*
X131948000Y-117365000D03*
X138802770Y-117365000D03*
X145199448Y-117165000D03*
X151720610Y-117465000D03*
X156872782Y-117465000D03*
X162897228Y-117465000D03*
X155311010Y-77597000D03*
X158044596Y-81595697D03*
X154559002Y-78486000D03*
X157988000Y-82550000D03*
X171958000Y-85598000D03*
X171958000Y-83439000D03*
X168148000Y-85598000D03*
X168148000Y-83474989D03*
X156798000Y-90065000D03*
D18*
X133764510Y-125231510D02*
X130998000Y-122465000D01*
X130998000Y-122465000D02*
X130998000Y-115365000D01*
X149098000Y-123825000D02*
X149098000Y-123977400D01*
X149098000Y-123977400D02*
X147843890Y-125231510D01*
X147843890Y-125231510D02*
X133764510Y-125231510D01*
X137852770Y-115365000D02*
X130998000Y-115365000D01*
X144249448Y-115165000D02*
X138052770Y-115165000D01*
X138052770Y-115165000D02*
X137852770Y-115365000D01*
X150770610Y-115465000D02*
X144549448Y-115465000D01*
X144549448Y-115465000D02*
X144249448Y-115165000D01*
X155922782Y-115465000D02*
X150770610Y-115465000D01*
X161947228Y-115465000D02*
X155922782Y-115465000D01*
X164998000Y-115365000D02*
X162047228Y-115365000D01*
X162047228Y-115365000D02*
X161947228Y-115465000D01*
X171602400Y-107783502D02*
X165873302Y-113512600D01*
X171602400Y-91363800D02*
X171602400Y-107783502D01*
X175538501Y-83414501D02*
X175538501Y-87427699D01*
X175538501Y-87427699D02*
X171602400Y-91363800D01*
X173339000Y-81215000D02*
X175538501Y-83414501D01*
X171958000Y-81215000D02*
X173339000Y-81215000D01*
X165873302Y-114489698D02*
X164998000Y-115365000D01*
X165873302Y-113512600D02*
X165873302Y-114489698D01*
X168148000Y-81215000D02*
X171958000Y-81215000D01*
X170053000Y-86675000D02*
X171958000Y-86675000D01*
X168148000Y-86675000D02*
X170053000Y-86675000D01*
D19*
X158724400Y-121865000D02*
X136448000Y-121865000D01*
X136448000Y-121865000D02*
X131948000Y-117365000D01*
X161798000Y-123825000D02*
X160684400Y-123825000D01*
X160684400Y-123825000D02*
X158724400Y-121865000D01*
X162644000Y-120865000D02*
X142302770Y-120865000D01*
X142302770Y-120865000D02*
X138802770Y-117365000D01*
X164338000Y-123825000D02*
X164338000Y-122559000D01*
X164338000Y-122559000D02*
X162644000Y-120865000D01*
X164338000Y-123672600D02*
X164338000Y-123825000D01*
X164684000Y-120365000D02*
X148399448Y-120365000D01*
X148399448Y-120365000D02*
X145199448Y-117165000D01*
X166878000Y-123825000D02*
X166878000Y-122559000D01*
X166878000Y-122559000D02*
X164684000Y-120365000D01*
X166878000Y-123672600D02*
X166878000Y-123825000D01*
X169418000Y-123825000D02*
X169418000Y-122559000D01*
X169418000Y-122559000D02*
X166724000Y-119865000D01*
X166724000Y-119865000D02*
X154120610Y-119865000D01*
X154120610Y-119865000D02*
X151720610Y-117465000D01*
X169418000Y-123672600D02*
X169418000Y-123825000D01*
X168764000Y-119365000D02*
X158772782Y-119365000D01*
X158772782Y-119365000D02*
X156872782Y-117465000D01*
X171958000Y-123825000D02*
X171958000Y-122559000D01*
X171958000Y-122559000D02*
X168764000Y-119365000D01*
X170804000Y-118865000D02*
X164297228Y-118865000D01*
X164297228Y-118865000D02*
X162897228Y-117465000D01*
X174498000Y-123825000D02*
X174498000Y-122559000D01*
X174498000Y-122559000D02*
X170804000Y-118865000D01*
X150114000Y-83642200D02*
X150173001Y-83701201D01*
X150173001Y-83701201D02*
X150173001Y-91029999D01*
X150173001Y-91029999D02*
X149847999Y-91355001D01*
X149847999Y-91355001D02*
X148998000Y-92205000D01*
X150114000Y-75565000D02*
X150114000Y-83642200D01*
X150889021Y-83823913D02*
X150889021Y-92853979D01*
X150889021Y-92853979D02*
X148998000Y-94745000D01*
X152654000Y-75565000D02*
X152654000Y-82058934D01*
X152654000Y-82058934D02*
X150889021Y-83823913D01*
X151339032Y-84010313D02*
X151339032Y-94943968D01*
X151339032Y-94943968D02*
X148998000Y-97285000D01*
X156718000Y-75565000D02*
X156718000Y-78631345D01*
X156718000Y-78631345D02*
X151339032Y-84010313D01*
X151789043Y-84196713D02*
X151789043Y-97033957D01*
X151789043Y-97033957D02*
X148998000Y-99825000D01*
X158144400Y-77841357D02*
X151789043Y-84196713D01*
X159258000Y-75565000D02*
X159258000Y-75717400D01*
X158144400Y-76831000D02*
X158144400Y-77841357D01*
X159258000Y-75717400D02*
X158144400Y-76831000D01*
X152239054Y-84383113D02*
X152239054Y-99123946D01*
X152239054Y-99123946D02*
X148998000Y-102365000D01*
X157537590Y-79084578D02*
X152239054Y-84383113D01*
X158430822Y-79084578D02*
X157537590Y-79084578D01*
X161798000Y-75717400D02*
X158430822Y-79084578D01*
X161798000Y-75565000D02*
X161798000Y-75717400D01*
X152689065Y-84569513D02*
X152689065Y-101213935D01*
X152689065Y-101213935D02*
X148998000Y-104905000D01*
X157723990Y-79534589D02*
X152689065Y-84569513D01*
X164338000Y-75565000D02*
X164338000Y-75717400D01*
X160520811Y-79534589D02*
X157723990Y-79534589D01*
X164338000Y-75717400D02*
X160520811Y-79534589D01*
X166878000Y-75565000D02*
X166878000Y-75717400D01*
X162610800Y-79984600D02*
X157910390Y-79984600D01*
X166878000Y-75717400D02*
X162610800Y-79984600D01*
X157910390Y-79984600D02*
X153139076Y-84755913D01*
X153139076Y-84755913D02*
X153139076Y-87067074D01*
X155173001Y-89100999D02*
X155173001Y-106269999D01*
X153139076Y-87067074D02*
X155173001Y-89100999D01*
X155173001Y-106269999D02*
X154847999Y-106595001D01*
X154847999Y-106595001D02*
X153998000Y-107445000D01*
X155698000Y-88989587D02*
X155698000Y-108285000D01*
X155698000Y-108285000D02*
X153998000Y-109985000D01*
X153589087Y-84942313D02*
X153589087Y-86880674D01*
X153589087Y-86880674D02*
X155698000Y-88989587D01*
X157734000Y-80797400D02*
X153589087Y-84942313D01*
X164338000Y-80797400D02*
X157734000Y-80797400D01*
X169418000Y-75717400D02*
X164338000Y-80797400D01*
X169418000Y-75565000D02*
X169418000Y-75717400D01*
X158344595Y-81895696D02*
X158044596Y-81595697D01*
X160548898Y-84099999D02*
X158344595Y-81895696D01*
X172922999Y-84099999D02*
X160548898Y-84099999D01*
X173598000Y-84775000D02*
X172922999Y-84099999D01*
X174498000Y-84775000D02*
X173598000Y-84775000D01*
X139954000Y-75565000D02*
X139954000Y-75412600D01*
X153925410Y-73660000D02*
X155311010Y-75045600D01*
X139954000Y-75412600D02*
X141706600Y-73660000D01*
X141706600Y-73660000D02*
X153925410Y-73660000D01*
X155311010Y-75045600D02*
X155311010Y-77172736D01*
X155311010Y-77172736D02*
X155311010Y-77597000D01*
X154559002Y-78061736D02*
X154559002Y-78486000D01*
X153852990Y-74223990D02*
X154559002Y-74930002D01*
X143682610Y-74223990D02*
X153852990Y-74223990D01*
X142494000Y-75412600D02*
X143682610Y-74223990D01*
X142494000Y-75565000D02*
X142494000Y-75412600D01*
X154559002Y-74930002D02*
X154559002Y-78061736D01*
X158287999Y-82849999D02*
X157988000Y-82550000D01*
X160213000Y-84775000D02*
X158287999Y-82849999D01*
X165608000Y-84775000D02*
X160213000Y-84775000D01*
X171958000Y-85598000D02*
X171958000Y-84775000D01*
X171958000Y-82615000D02*
X171958000Y-83439000D01*
X174498000Y-86675000D02*
X174158000Y-86675000D01*
X174158000Y-86675000D02*
X172258000Y-84775000D01*
X172258000Y-84775000D02*
X171958000Y-84775000D01*
X168148000Y-85598000D02*
X168148000Y-84775000D01*
X168148000Y-82615000D02*
X168148000Y-83474989D01*
X165608000Y-86675000D02*
X165948000Y-86675000D01*
X165948000Y-86675000D02*
X167848000Y-84775000D01*
X167848000Y-84775000D02*
X168148000Y-84775000D01*
D18*
X128998000Y-89665000D02*
X127795919Y-89665000D01*
X127795919Y-89665000D02*
X127757499Y-89703420D01*
X127757499Y-89703420D02*
X127757499Y-112515499D01*
X127757499Y-112515499D02*
X127767000Y-112525000D01*
X127767000Y-112525000D02*
X128998000Y-112525000D01*
X135998000Y-89505000D02*
X134795919Y-89505000D01*
X134795919Y-89505000D02*
X134757499Y-89543420D01*
X134757499Y-89543420D02*
X134757499Y-112355499D01*
X134757499Y-112355499D02*
X134767000Y-112365000D01*
X134767000Y-112365000D02*
X135998000Y-112365000D01*
X142998000Y-89565000D02*
X141757499Y-90805501D01*
X141757499Y-90805501D02*
X141757499Y-112415499D01*
X141757499Y-112415499D02*
X141767000Y-112425000D01*
X141767000Y-112425000D02*
X142998000Y-112425000D01*
X148998000Y-89665000D02*
X147757499Y-90905501D01*
X147757499Y-90905501D02*
X147757499Y-112515499D01*
X147757499Y-112515499D02*
X147767000Y-112525000D01*
X147767000Y-112525000D02*
X148998000Y-112525000D01*
X156798000Y-90065000D02*
X156798000Y-110956000D01*
X156798000Y-110956000D02*
X155229000Y-112525000D01*
X155229000Y-112525000D02*
X153998000Y-112525000D01*
X159998000Y-89665000D02*
X158757499Y-90905501D01*
X158757499Y-90905501D02*
X158757499Y-112515499D01*
X158757499Y-112515499D02*
X158767000Y-112525000D01*
X158767000Y-112525000D02*
X159998000Y-112525000D01*
M02*
