G04 #@! TF.FileFunction,Soldermask,Bot*
%FSLAX46Y46*%
G04 Gerber Fmt 4.6, Leading zero omitted, Abs format (unit mm)*
G04 Created by KiCad (PCBNEW 4.0.6-e0-6349~53~ubuntu16.04.1) date Thu Jul 27 14:37:32 2017*
%MOMM*%
%LPD*%
G01*
G04 APERTURE LIST*
%ADD10C,0.100000*%
%ADD11O,1.727200X2.032000*%
%ADD12C,4.064000*%
%ADD13R,2.032000X1.727200*%
%ADD14O,2.032000X1.727200*%
G04 APERTURE END LIST*
D10*
D11*
X138938000Y-123825000D03*
X141478000Y-123825000D03*
X144018000Y-123825000D03*
X146558000Y-123825000D03*
X149098000Y-123825000D03*
X151638000Y-123825000D03*
X154178000Y-123825000D03*
X156718000Y-123825000D03*
X161798000Y-123825000D03*
X164338000Y-123825000D03*
X166878000Y-123825000D03*
X169418000Y-123825000D03*
X171958000Y-123825000D03*
X174498000Y-123825000D03*
X129794000Y-75565000D03*
X132334000Y-75565000D03*
X134874000Y-75565000D03*
X137414000Y-75565000D03*
X139954000Y-75565000D03*
X142494000Y-75565000D03*
X145034000Y-75565000D03*
X147574000Y-75565000D03*
X150114000Y-75565000D03*
X152654000Y-75565000D03*
X156718000Y-75565000D03*
X159258000Y-75565000D03*
X161798000Y-75565000D03*
X164338000Y-75565000D03*
X166878000Y-75565000D03*
X169418000Y-75565000D03*
X171958000Y-75565000D03*
X174498000Y-75565000D03*
D12*
X124968000Y-123825000D03*
X177038000Y-118745000D03*
X126238000Y-75565000D03*
X177038000Y-90805000D03*
D13*
X128778000Y-108585000D03*
D14*
X128778000Y-106045000D03*
X128778000Y-103505000D03*
X128778000Y-100965000D03*
X128778000Y-98425000D03*
X128778000Y-95885000D03*
X128778000Y-93345000D03*
X128778000Y-90805000D03*
X128778000Y-88265000D03*
X128778000Y-85725000D03*
D13*
X138938000Y-108525000D03*
D14*
X138938000Y-105985000D03*
X138938000Y-103445000D03*
X138938000Y-100905000D03*
X138938000Y-98365000D03*
X138938000Y-95825000D03*
X138938000Y-93285000D03*
X138938000Y-90745000D03*
X138938000Y-88205000D03*
X138938000Y-85665000D03*
D13*
X149098000Y-108585000D03*
D14*
X149098000Y-106045000D03*
X149098000Y-103505000D03*
X149098000Y-100965000D03*
X149098000Y-98425000D03*
X149098000Y-95885000D03*
X149098000Y-93345000D03*
X149098000Y-90805000D03*
X149098000Y-88265000D03*
X149098000Y-85725000D03*
D13*
X159258000Y-108585000D03*
D14*
X159258000Y-106045000D03*
X159258000Y-103505000D03*
X159258000Y-100965000D03*
X159258000Y-98425000D03*
X159258000Y-95885000D03*
X159258000Y-93345000D03*
X159258000Y-90805000D03*
X159258000Y-88265000D03*
X159258000Y-85725000D03*
M02*
