G04 #@! TF.FileFunction,Soldermask,Top*
%FSLAX46Y46*%
G04 Gerber Fmt 4.6, Leading zero omitted, Abs format (unit mm)*
G04 Created by KiCad (PCBNEW 4.0.6-e0-6349~53~ubuntu16.04.1) date Wed Aug  9 14:44:26 2017*
%MOMM*%
%LPD*%
G01*
G04 APERTURE LIST*
%ADD10C,0.100000*%
%ADD11C,2.400000*%
%ADD12R,1.900000X1.000000*%
G04 APERTURE END LIST*
D10*
D11*
X127449600Y-90534200D03*
X127449600Y-96534200D03*
X127449600Y-93534200D03*
X113893600Y-93788200D03*
X113893600Y-90788200D03*
X151198600Y-90407200D03*
X137642600Y-96661200D03*
X137642600Y-93661200D03*
X151198600Y-93407200D03*
X137642600Y-90661200D03*
X113893600Y-108788200D03*
X113893600Y-102788200D03*
X113893600Y-105788200D03*
X113893600Y-96788200D03*
X113893600Y-99788200D03*
X151198600Y-108407200D03*
X151198600Y-105407200D03*
X151198600Y-102407200D03*
X151198600Y-96407200D03*
X151198600Y-99407200D03*
X137642600Y-105661200D03*
X127449600Y-102534200D03*
X127449600Y-108534200D03*
X137642600Y-108661200D03*
X137642600Y-99661200D03*
X127449600Y-105534200D03*
X137642600Y-102661200D03*
X127449600Y-99534200D03*
X137134600Y-126918200D03*
X137134600Y-117918200D03*
X137134600Y-114918200D03*
X137134600Y-120918200D03*
X137134600Y-123918200D03*
X137134600Y-129918200D03*
X137134600Y-132918200D03*
X126941600Y-118045200D03*
X126941600Y-121045200D03*
X126941600Y-124045200D03*
X126941600Y-130045200D03*
X126941600Y-115045200D03*
X126941600Y-133045200D03*
X126941600Y-127045200D03*
X113385600Y-130299200D03*
X113385600Y-124299200D03*
X113385600Y-121299200D03*
X113385600Y-115299200D03*
X113385600Y-133299200D03*
X113385600Y-118299200D03*
X113385600Y-127299200D03*
X150690600Y-129664200D03*
X150690600Y-120664200D03*
X150690600Y-114664200D03*
X150690600Y-123664200D03*
X150690600Y-132664200D03*
X150690600Y-117664200D03*
X150690600Y-126664200D03*
D12*
X118204000Y-119380000D03*
X118204000Y-120650000D03*
X118204000Y-121920000D03*
X118204000Y-123190000D03*
X118204000Y-124460000D03*
X118204000Y-125730000D03*
X118204000Y-127000000D03*
X123604000Y-127000000D03*
X123604000Y-125730000D03*
X123604000Y-124460000D03*
X123604000Y-123190000D03*
X123604000Y-121920000D03*
X123604000Y-120650000D03*
X123604000Y-119380000D03*
D11*
X127729000Y-129935000D03*
X127729000Y-126935000D03*
X127729000Y-120935000D03*
X127729000Y-132935000D03*
X114173000Y-132681000D03*
X127729000Y-123935000D03*
X114173000Y-126681000D03*
X114173000Y-129681000D03*
X114173000Y-123681000D03*
X114173000Y-120681000D03*
X114173000Y-114681000D03*
X114173000Y-117681000D03*
X127729000Y-117935000D03*
X127729000Y-114935000D03*
D12*
X141953000Y-119507000D03*
X141953000Y-120777000D03*
X141953000Y-122047000D03*
X141953000Y-123317000D03*
X141953000Y-124587000D03*
X141953000Y-125857000D03*
X141953000Y-127127000D03*
X147353000Y-127127000D03*
X147353000Y-125857000D03*
X147353000Y-124587000D03*
X147353000Y-123317000D03*
X147353000Y-122047000D03*
X147353000Y-120777000D03*
X147353000Y-119507000D03*
D11*
X151478000Y-130062000D03*
X151478000Y-127062000D03*
X151478000Y-121062000D03*
X151478000Y-133062000D03*
X137922000Y-132808000D03*
X151478000Y-124062000D03*
X137922000Y-126808000D03*
X137922000Y-129808000D03*
X137922000Y-123808000D03*
X137922000Y-120808000D03*
X137922000Y-114808000D03*
X137922000Y-117808000D03*
X151478000Y-118062000D03*
X151478000Y-115062000D03*
D12*
X141445000Y-95250000D03*
X141445000Y-96520000D03*
X141445000Y-97790000D03*
X141445000Y-99060000D03*
X141445000Y-100330000D03*
X141445000Y-101600000D03*
X141445000Y-102870000D03*
X146845000Y-102870000D03*
X146845000Y-101600000D03*
X146845000Y-100330000D03*
X146845000Y-99060000D03*
X146845000Y-97790000D03*
X146845000Y-96520000D03*
X146845000Y-95250000D03*
D11*
X150970000Y-105805000D03*
X150970000Y-102805000D03*
X150970000Y-96805000D03*
X150970000Y-108805000D03*
X137414000Y-108551000D03*
X150970000Y-99805000D03*
X137414000Y-102551000D03*
X137414000Y-105551000D03*
X137414000Y-99551000D03*
X137414000Y-96551000D03*
X137414000Y-90551000D03*
X137414000Y-93551000D03*
X150970000Y-93805000D03*
X150970000Y-90805000D03*
X127221000Y-108424000D03*
X113665000Y-108170000D03*
X127221000Y-105424000D03*
X113665000Y-105170000D03*
X127221000Y-102424000D03*
X113665000Y-102170000D03*
X127221000Y-99424000D03*
X113665000Y-99170000D03*
X127221000Y-96424000D03*
X113665000Y-96170000D03*
X127221000Y-93424000D03*
X113665000Y-93170000D03*
X127221000Y-90424000D03*
D12*
X117696000Y-94869000D03*
X117696000Y-96139000D03*
X117696000Y-97409000D03*
X117696000Y-98679000D03*
X117696000Y-99949000D03*
X117696000Y-101219000D03*
X117696000Y-102489000D03*
X123096000Y-102489000D03*
X123096000Y-101219000D03*
X123096000Y-99949000D03*
X123096000Y-98679000D03*
X123096000Y-97409000D03*
X123096000Y-96139000D03*
X123096000Y-94869000D03*
D11*
X113665000Y-90170000D03*
M02*
