G04 #@! TF.FileFunction,Legend,Top*
%FSLAX46Y46*%
G04 Gerber Fmt 4.6, Leading zero omitted, Abs format (unit mm)*
G04 Created by KiCad (PCBNEW 4.0.6-e0-6349~53~ubuntu16.04.1) date Wed Aug  9 14:44:26 2017*
%MOMM*%
%LPD*%
G01*
G04 APERTURE LIST*
%ADD10C,0.100000*%
%ADD11C,0.150000*%
G04 APERTURE END LIST*
D10*
D11*
X118829000Y-118740000D02*
X118829000Y-118765000D01*
X122979000Y-118740000D02*
X122979000Y-118855000D01*
X122979000Y-127640000D02*
X122979000Y-127525000D01*
X118829000Y-127640000D02*
X118829000Y-127525000D01*
X118829000Y-118740000D02*
X122979000Y-118740000D01*
X118829000Y-127640000D02*
X122979000Y-127640000D01*
X118829000Y-118765000D02*
X117454000Y-118765000D01*
X129129000Y-129935000D02*
G75*
G03X129129000Y-129935000I-1400000J0D01*
G01*
X129129000Y-126935000D02*
G75*
G03X129129000Y-126935000I-1400000J0D01*
G01*
X129129000Y-120935000D02*
G75*
G03X129129000Y-120935000I-1400000J0D01*
G01*
X129129000Y-132935000D02*
G75*
G03X129129000Y-132935000I-1400000J0D01*
G01*
X115573000Y-132681000D02*
G75*
G03X115573000Y-132681000I-1400000J0D01*
G01*
X129129000Y-123935000D02*
G75*
G03X129129000Y-123935000I-1400000J0D01*
G01*
X115573000Y-126681000D02*
G75*
G03X115573000Y-126681000I-1400000J0D01*
G01*
X115573000Y-129681000D02*
G75*
G03X115573000Y-129681000I-1400000J0D01*
G01*
X115573000Y-123681000D02*
G75*
G03X115573000Y-123681000I-1400000J0D01*
G01*
X115573000Y-120681000D02*
G75*
G03X115573000Y-120681000I-1400000J0D01*
G01*
X115573000Y-114681000D02*
G75*
G03X115573000Y-114681000I-1400000J0D01*
G01*
X115573000Y-117681000D02*
G75*
G03X115573000Y-117681000I-1400000J0D01*
G01*
X129129000Y-117935000D02*
G75*
G03X129129000Y-117935000I-1400000J0D01*
G01*
X129129000Y-114935000D02*
G75*
G03X129129000Y-114935000I-1400000J0D01*
G01*
X142578000Y-118867000D02*
X142578000Y-118892000D01*
X146728000Y-118867000D02*
X146728000Y-118982000D01*
X146728000Y-127767000D02*
X146728000Y-127652000D01*
X142578000Y-127767000D02*
X142578000Y-127652000D01*
X142578000Y-118867000D02*
X146728000Y-118867000D01*
X142578000Y-127767000D02*
X146728000Y-127767000D01*
X142578000Y-118892000D02*
X141203000Y-118892000D01*
X152878000Y-130062000D02*
G75*
G03X152878000Y-130062000I-1400000J0D01*
G01*
X152878000Y-127062000D02*
G75*
G03X152878000Y-127062000I-1400000J0D01*
G01*
X152878000Y-121062000D02*
G75*
G03X152878000Y-121062000I-1400000J0D01*
G01*
X152878000Y-133062000D02*
G75*
G03X152878000Y-133062000I-1400000J0D01*
G01*
X139322000Y-132808000D02*
G75*
G03X139322000Y-132808000I-1400000J0D01*
G01*
X152878000Y-124062000D02*
G75*
G03X152878000Y-124062000I-1400000J0D01*
G01*
X139322000Y-126808000D02*
G75*
G03X139322000Y-126808000I-1400000J0D01*
G01*
X139322000Y-129808000D02*
G75*
G03X139322000Y-129808000I-1400000J0D01*
G01*
X139322000Y-123808000D02*
G75*
G03X139322000Y-123808000I-1400000J0D01*
G01*
X139322000Y-120808000D02*
G75*
G03X139322000Y-120808000I-1400000J0D01*
G01*
X139322000Y-114808000D02*
G75*
G03X139322000Y-114808000I-1400000J0D01*
G01*
X139322000Y-117808000D02*
G75*
G03X139322000Y-117808000I-1400000J0D01*
G01*
X152878000Y-118062000D02*
G75*
G03X152878000Y-118062000I-1400000J0D01*
G01*
X152878000Y-115062000D02*
G75*
G03X152878000Y-115062000I-1400000J0D01*
G01*
X142070000Y-94610000D02*
X142070000Y-94635000D01*
X146220000Y-94610000D02*
X146220000Y-94725000D01*
X146220000Y-103510000D02*
X146220000Y-103395000D01*
X142070000Y-103510000D02*
X142070000Y-103395000D01*
X142070000Y-94610000D02*
X146220000Y-94610000D01*
X142070000Y-103510000D02*
X146220000Y-103510000D01*
X142070000Y-94635000D02*
X140695000Y-94635000D01*
X152370000Y-105805000D02*
G75*
G03X152370000Y-105805000I-1400000J0D01*
G01*
X152370000Y-102805000D02*
G75*
G03X152370000Y-102805000I-1400000J0D01*
G01*
X152370000Y-96805000D02*
G75*
G03X152370000Y-96805000I-1400000J0D01*
G01*
X152370000Y-108805000D02*
G75*
G03X152370000Y-108805000I-1400000J0D01*
G01*
X138814000Y-108551000D02*
G75*
G03X138814000Y-108551000I-1400000J0D01*
G01*
X152370000Y-99805000D02*
G75*
G03X152370000Y-99805000I-1400000J0D01*
G01*
X138814000Y-102551000D02*
G75*
G03X138814000Y-102551000I-1400000J0D01*
G01*
X138814000Y-105551000D02*
G75*
G03X138814000Y-105551000I-1400000J0D01*
G01*
X138814000Y-99551000D02*
G75*
G03X138814000Y-99551000I-1400000J0D01*
G01*
X138814000Y-96551000D02*
G75*
G03X138814000Y-96551000I-1400000J0D01*
G01*
X138814000Y-90551000D02*
G75*
G03X138814000Y-90551000I-1400000J0D01*
G01*
X138814000Y-93551000D02*
G75*
G03X138814000Y-93551000I-1400000J0D01*
G01*
X152370000Y-93805000D02*
G75*
G03X152370000Y-93805000I-1400000J0D01*
G01*
X152370000Y-90805000D02*
G75*
G03X152370000Y-90805000I-1400000J0D01*
G01*
X128621000Y-108424000D02*
G75*
G03X128621000Y-108424000I-1400000J0D01*
G01*
X115065000Y-108170000D02*
G75*
G03X115065000Y-108170000I-1400000J0D01*
G01*
X128621000Y-105424000D02*
G75*
G03X128621000Y-105424000I-1400000J0D01*
G01*
X115065000Y-105170000D02*
G75*
G03X115065000Y-105170000I-1400000J0D01*
G01*
X128621000Y-102424000D02*
G75*
G03X128621000Y-102424000I-1400000J0D01*
G01*
X115065000Y-102170000D02*
G75*
G03X115065000Y-102170000I-1400000J0D01*
G01*
X128621000Y-99424000D02*
G75*
G03X128621000Y-99424000I-1400000J0D01*
G01*
X115065000Y-99170000D02*
G75*
G03X115065000Y-99170000I-1400000J0D01*
G01*
X128621000Y-96424000D02*
G75*
G03X128621000Y-96424000I-1400000J0D01*
G01*
X115065000Y-96170000D02*
G75*
G03X115065000Y-96170000I-1400000J0D01*
G01*
X128621000Y-93424000D02*
G75*
G03X128621000Y-93424000I-1400000J0D01*
G01*
X115065000Y-93170000D02*
G75*
G03X115065000Y-93170000I-1400000J0D01*
G01*
X128621000Y-90424000D02*
G75*
G03X128621000Y-90424000I-1400000J0D01*
G01*
X118321000Y-94229000D02*
X118321000Y-94254000D01*
X122471000Y-94229000D02*
X122471000Y-94344000D01*
X122471000Y-103129000D02*
X122471000Y-103014000D01*
X118321000Y-103129000D02*
X118321000Y-103014000D01*
X118321000Y-94229000D02*
X122471000Y-94229000D01*
X118321000Y-103129000D02*
X122471000Y-103129000D01*
X118321000Y-94254000D02*
X116946000Y-94254000D01*
X115065000Y-90170000D02*
G75*
G03X115065000Y-90170000I-1400000J0D01*
G01*
X119570667Y-118267381D02*
X119237333Y-117791190D01*
X118999238Y-118267381D02*
X118999238Y-117267381D01*
X119380191Y-117267381D01*
X119475429Y-117315000D01*
X119523048Y-117362619D01*
X119570667Y-117457857D01*
X119570667Y-117600714D01*
X119523048Y-117695952D01*
X119475429Y-117743571D01*
X119380191Y-117791190D01*
X118999238Y-117791190D01*
X119999238Y-117743571D02*
X120332572Y-117743571D01*
X120475429Y-118267381D02*
X119999238Y-118267381D01*
X119999238Y-117267381D01*
X120475429Y-117267381D01*
X121237334Y-117743571D02*
X120904000Y-117743571D01*
X120904000Y-118267381D02*
X120904000Y-117267381D01*
X121380191Y-117267381D01*
X121904000Y-117267381D02*
X121904000Y-117505476D01*
X121665905Y-117410238D02*
X121904000Y-117505476D01*
X122142096Y-117410238D01*
X121761143Y-117695952D02*
X121904000Y-117505476D01*
X122046858Y-117695952D01*
X122665905Y-117267381D02*
X122665905Y-117505476D01*
X122427810Y-117410238D02*
X122665905Y-117505476D01*
X122904001Y-117410238D01*
X122523048Y-117695952D02*
X122665905Y-117505476D01*
X122808763Y-117695952D01*
X126395667Y-127887381D02*
X126062333Y-127411190D01*
X125824238Y-127887381D02*
X125824238Y-126887381D01*
X126205191Y-126887381D01*
X126300429Y-126935000D01*
X126348048Y-126982619D01*
X126395667Y-127077857D01*
X126395667Y-127220714D01*
X126348048Y-127315952D01*
X126300429Y-127363571D01*
X126205191Y-127411190D01*
X125824238Y-127411190D01*
X126824238Y-127363571D02*
X127157572Y-127363571D01*
X127300429Y-127887381D02*
X126824238Y-127887381D01*
X126824238Y-126887381D01*
X127300429Y-126887381D01*
X128062334Y-127363571D02*
X127729000Y-127363571D01*
X127729000Y-127887381D02*
X127729000Y-126887381D01*
X128205191Y-126887381D01*
X128729000Y-126887381D02*
X128729000Y-127125476D01*
X128490905Y-127030238D02*
X128729000Y-127125476D01*
X128967096Y-127030238D01*
X128586143Y-127315952D02*
X128729000Y-127125476D01*
X128871858Y-127315952D01*
X129490905Y-126887381D02*
X129490905Y-127125476D01*
X129252810Y-127030238D02*
X129490905Y-127125476D01*
X129729001Y-127030238D01*
X129348048Y-127315952D02*
X129490905Y-127125476D01*
X129633763Y-127315952D01*
X126395667Y-124887381D02*
X126062333Y-124411190D01*
X125824238Y-124887381D02*
X125824238Y-123887381D01*
X126205191Y-123887381D01*
X126300429Y-123935000D01*
X126348048Y-123982619D01*
X126395667Y-124077857D01*
X126395667Y-124220714D01*
X126348048Y-124315952D01*
X126300429Y-124363571D01*
X126205191Y-124411190D01*
X125824238Y-124411190D01*
X126824238Y-124363571D02*
X127157572Y-124363571D01*
X127300429Y-124887381D02*
X126824238Y-124887381D01*
X126824238Y-123887381D01*
X127300429Y-123887381D01*
X128062334Y-124363571D02*
X127729000Y-124363571D01*
X127729000Y-124887381D02*
X127729000Y-123887381D01*
X128205191Y-123887381D01*
X128729000Y-123887381D02*
X128729000Y-124125476D01*
X128490905Y-124030238D02*
X128729000Y-124125476D01*
X128967096Y-124030238D01*
X128586143Y-124315952D02*
X128729000Y-124125476D01*
X128871858Y-124315952D01*
X129490905Y-123887381D02*
X129490905Y-124125476D01*
X129252810Y-124030238D02*
X129490905Y-124125476D01*
X129729001Y-124030238D01*
X129348048Y-124315952D02*
X129490905Y-124125476D01*
X129633763Y-124315952D01*
X126395667Y-118887381D02*
X126062333Y-118411190D01*
X125824238Y-118887381D02*
X125824238Y-117887381D01*
X126205191Y-117887381D01*
X126300429Y-117935000D01*
X126348048Y-117982619D01*
X126395667Y-118077857D01*
X126395667Y-118220714D01*
X126348048Y-118315952D01*
X126300429Y-118363571D01*
X126205191Y-118411190D01*
X125824238Y-118411190D01*
X126824238Y-118363571D02*
X127157572Y-118363571D01*
X127300429Y-118887381D02*
X126824238Y-118887381D01*
X126824238Y-117887381D01*
X127300429Y-117887381D01*
X128062334Y-118363571D02*
X127729000Y-118363571D01*
X127729000Y-118887381D02*
X127729000Y-117887381D01*
X128205191Y-117887381D01*
X128729000Y-117887381D02*
X128729000Y-118125476D01*
X128490905Y-118030238D02*
X128729000Y-118125476D01*
X128967096Y-118030238D01*
X128586143Y-118315952D02*
X128729000Y-118125476D01*
X128871858Y-118315952D01*
X129490905Y-117887381D02*
X129490905Y-118125476D01*
X129252810Y-118030238D02*
X129490905Y-118125476D01*
X129729001Y-118030238D01*
X129348048Y-118315952D02*
X129490905Y-118125476D01*
X129633763Y-118315952D01*
X126395667Y-130887381D02*
X126062333Y-130411190D01*
X125824238Y-130887381D02*
X125824238Y-129887381D01*
X126205191Y-129887381D01*
X126300429Y-129935000D01*
X126348048Y-129982619D01*
X126395667Y-130077857D01*
X126395667Y-130220714D01*
X126348048Y-130315952D01*
X126300429Y-130363571D01*
X126205191Y-130411190D01*
X125824238Y-130411190D01*
X126824238Y-130363571D02*
X127157572Y-130363571D01*
X127300429Y-130887381D02*
X126824238Y-130887381D01*
X126824238Y-129887381D01*
X127300429Y-129887381D01*
X128062334Y-130363571D02*
X127729000Y-130363571D01*
X127729000Y-130887381D02*
X127729000Y-129887381D01*
X128205191Y-129887381D01*
X128729000Y-129887381D02*
X128729000Y-130125476D01*
X128490905Y-130030238D02*
X128729000Y-130125476D01*
X128967096Y-130030238D01*
X128586143Y-130315952D02*
X128729000Y-130125476D01*
X128871858Y-130315952D01*
X129490905Y-129887381D02*
X129490905Y-130125476D01*
X129252810Y-130030238D02*
X129490905Y-130125476D01*
X129729001Y-130030238D01*
X129348048Y-130315952D02*
X129490905Y-130125476D01*
X129633763Y-130315952D01*
X112839667Y-130633381D02*
X112506333Y-130157190D01*
X112268238Y-130633381D02*
X112268238Y-129633381D01*
X112649191Y-129633381D01*
X112744429Y-129681000D01*
X112792048Y-129728619D01*
X112839667Y-129823857D01*
X112839667Y-129966714D01*
X112792048Y-130061952D01*
X112744429Y-130109571D01*
X112649191Y-130157190D01*
X112268238Y-130157190D01*
X113268238Y-130109571D02*
X113601572Y-130109571D01*
X113744429Y-130633381D02*
X113268238Y-130633381D01*
X113268238Y-129633381D01*
X113744429Y-129633381D01*
X114506334Y-130109571D02*
X114173000Y-130109571D01*
X114173000Y-130633381D02*
X114173000Y-129633381D01*
X114649191Y-129633381D01*
X115173000Y-129633381D02*
X115173000Y-129871476D01*
X114934905Y-129776238D02*
X115173000Y-129871476D01*
X115411096Y-129776238D01*
X115030143Y-130061952D02*
X115173000Y-129871476D01*
X115315858Y-130061952D01*
X115934905Y-129633381D02*
X115934905Y-129871476D01*
X115696810Y-129776238D02*
X115934905Y-129871476D01*
X116173001Y-129776238D01*
X115792048Y-130061952D02*
X115934905Y-129871476D01*
X116077763Y-130061952D01*
X126395667Y-121887381D02*
X126062333Y-121411190D01*
X125824238Y-121887381D02*
X125824238Y-120887381D01*
X126205191Y-120887381D01*
X126300429Y-120935000D01*
X126348048Y-120982619D01*
X126395667Y-121077857D01*
X126395667Y-121220714D01*
X126348048Y-121315952D01*
X126300429Y-121363571D01*
X126205191Y-121411190D01*
X125824238Y-121411190D01*
X126824238Y-121363571D02*
X127157572Y-121363571D01*
X127300429Y-121887381D02*
X126824238Y-121887381D01*
X126824238Y-120887381D01*
X127300429Y-120887381D01*
X128062334Y-121363571D02*
X127729000Y-121363571D01*
X127729000Y-121887381D02*
X127729000Y-120887381D01*
X128205191Y-120887381D01*
X128729000Y-120887381D02*
X128729000Y-121125476D01*
X128490905Y-121030238D02*
X128729000Y-121125476D01*
X128967096Y-121030238D01*
X128586143Y-121315952D02*
X128729000Y-121125476D01*
X128871858Y-121315952D01*
X129490905Y-120887381D02*
X129490905Y-121125476D01*
X129252810Y-121030238D02*
X129490905Y-121125476D01*
X129729001Y-121030238D01*
X129348048Y-121315952D02*
X129490905Y-121125476D01*
X129633763Y-121315952D01*
X112839667Y-124633381D02*
X112506333Y-124157190D01*
X112268238Y-124633381D02*
X112268238Y-123633381D01*
X112649191Y-123633381D01*
X112744429Y-123681000D01*
X112792048Y-123728619D01*
X112839667Y-123823857D01*
X112839667Y-123966714D01*
X112792048Y-124061952D01*
X112744429Y-124109571D01*
X112649191Y-124157190D01*
X112268238Y-124157190D01*
X113268238Y-124109571D02*
X113601572Y-124109571D01*
X113744429Y-124633381D02*
X113268238Y-124633381D01*
X113268238Y-123633381D01*
X113744429Y-123633381D01*
X114506334Y-124109571D02*
X114173000Y-124109571D01*
X114173000Y-124633381D02*
X114173000Y-123633381D01*
X114649191Y-123633381D01*
X115173000Y-123633381D02*
X115173000Y-123871476D01*
X114934905Y-123776238D02*
X115173000Y-123871476D01*
X115411096Y-123776238D01*
X115030143Y-124061952D02*
X115173000Y-123871476D01*
X115315858Y-124061952D01*
X115934905Y-123633381D02*
X115934905Y-123871476D01*
X115696810Y-123776238D02*
X115934905Y-123871476D01*
X116173001Y-123776238D01*
X115792048Y-124061952D02*
X115934905Y-123871476D01*
X116077763Y-124061952D01*
X112839667Y-127633381D02*
X112506333Y-127157190D01*
X112268238Y-127633381D02*
X112268238Y-126633381D01*
X112649191Y-126633381D01*
X112744429Y-126681000D01*
X112792048Y-126728619D01*
X112839667Y-126823857D01*
X112839667Y-126966714D01*
X112792048Y-127061952D01*
X112744429Y-127109571D01*
X112649191Y-127157190D01*
X112268238Y-127157190D01*
X113268238Y-127109571D02*
X113601572Y-127109571D01*
X113744429Y-127633381D02*
X113268238Y-127633381D01*
X113268238Y-126633381D01*
X113744429Y-126633381D01*
X114506334Y-127109571D02*
X114173000Y-127109571D01*
X114173000Y-127633381D02*
X114173000Y-126633381D01*
X114649191Y-126633381D01*
X115173000Y-126633381D02*
X115173000Y-126871476D01*
X114934905Y-126776238D02*
X115173000Y-126871476D01*
X115411096Y-126776238D01*
X115030143Y-127061952D02*
X115173000Y-126871476D01*
X115315858Y-127061952D01*
X115934905Y-126633381D02*
X115934905Y-126871476D01*
X115696810Y-126776238D02*
X115934905Y-126871476D01*
X116173001Y-126776238D01*
X115792048Y-127061952D02*
X115934905Y-126871476D01*
X116077763Y-127061952D01*
X112839667Y-121633381D02*
X112506333Y-121157190D01*
X112268238Y-121633381D02*
X112268238Y-120633381D01*
X112649191Y-120633381D01*
X112744429Y-120681000D01*
X112792048Y-120728619D01*
X112839667Y-120823857D01*
X112839667Y-120966714D01*
X112792048Y-121061952D01*
X112744429Y-121109571D01*
X112649191Y-121157190D01*
X112268238Y-121157190D01*
X113268238Y-121109571D02*
X113601572Y-121109571D01*
X113744429Y-121633381D02*
X113268238Y-121633381D01*
X113268238Y-120633381D01*
X113744429Y-120633381D01*
X114506334Y-121109571D02*
X114173000Y-121109571D01*
X114173000Y-121633381D02*
X114173000Y-120633381D01*
X114649191Y-120633381D01*
X115173000Y-120633381D02*
X115173000Y-120871476D01*
X114934905Y-120776238D02*
X115173000Y-120871476D01*
X115411096Y-120776238D01*
X115030143Y-121061952D02*
X115173000Y-120871476D01*
X115315858Y-121061952D01*
X115934905Y-120633381D02*
X115934905Y-120871476D01*
X115696810Y-120776238D02*
X115934905Y-120871476D01*
X116173001Y-120776238D01*
X115792048Y-121061952D02*
X115934905Y-120871476D01*
X116077763Y-121061952D01*
X112839667Y-118633381D02*
X112506333Y-118157190D01*
X112268238Y-118633381D02*
X112268238Y-117633381D01*
X112649191Y-117633381D01*
X112744429Y-117681000D01*
X112792048Y-117728619D01*
X112839667Y-117823857D01*
X112839667Y-117966714D01*
X112792048Y-118061952D01*
X112744429Y-118109571D01*
X112649191Y-118157190D01*
X112268238Y-118157190D01*
X113268238Y-118109571D02*
X113601572Y-118109571D01*
X113744429Y-118633381D02*
X113268238Y-118633381D01*
X113268238Y-117633381D01*
X113744429Y-117633381D01*
X114506334Y-118109571D02*
X114173000Y-118109571D01*
X114173000Y-118633381D02*
X114173000Y-117633381D01*
X114649191Y-117633381D01*
X115173000Y-117633381D02*
X115173000Y-117871476D01*
X114934905Y-117776238D02*
X115173000Y-117871476D01*
X115411096Y-117776238D01*
X115030143Y-118061952D02*
X115173000Y-117871476D01*
X115315858Y-118061952D01*
X115934905Y-117633381D02*
X115934905Y-117871476D01*
X115696810Y-117776238D02*
X115934905Y-117871476D01*
X116173001Y-117776238D01*
X115792048Y-118061952D02*
X115934905Y-117871476D01*
X116077763Y-118061952D01*
X112839667Y-112633381D02*
X112506333Y-112157190D01*
X112268238Y-112633381D02*
X112268238Y-111633381D01*
X112649191Y-111633381D01*
X112744429Y-111681000D01*
X112792048Y-111728619D01*
X112839667Y-111823857D01*
X112839667Y-111966714D01*
X112792048Y-112061952D01*
X112744429Y-112109571D01*
X112649191Y-112157190D01*
X112268238Y-112157190D01*
X113268238Y-112109571D02*
X113601572Y-112109571D01*
X113744429Y-112633381D02*
X113268238Y-112633381D01*
X113268238Y-111633381D01*
X113744429Y-111633381D01*
X114506334Y-112109571D02*
X114173000Y-112109571D01*
X114173000Y-112633381D02*
X114173000Y-111633381D01*
X114649191Y-111633381D01*
X115173000Y-111633381D02*
X115173000Y-111871476D01*
X114934905Y-111776238D02*
X115173000Y-111871476D01*
X115411096Y-111776238D01*
X115030143Y-112061952D02*
X115173000Y-111871476D01*
X115315858Y-112061952D01*
X115934905Y-111633381D02*
X115934905Y-111871476D01*
X115696810Y-111776238D02*
X115934905Y-111871476D01*
X116173001Y-111776238D01*
X115792048Y-112061952D02*
X115934905Y-111871476D01*
X116077763Y-112061952D01*
X112839667Y-115633381D02*
X112506333Y-115157190D01*
X112268238Y-115633381D02*
X112268238Y-114633381D01*
X112649191Y-114633381D01*
X112744429Y-114681000D01*
X112792048Y-114728619D01*
X112839667Y-114823857D01*
X112839667Y-114966714D01*
X112792048Y-115061952D01*
X112744429Y-115109571D01*
X112649191Y-115157190D01*
X112268238Y-115157190D01*
X113268238Y-115109571D02*
X113601572Y-115109571D01*
X113744429Y-115633381D02*
X113268238Y-115633381D01*
X113268238Y-114633381D01*
X113744429Y-114633381D01*
X114506334Y-115109571D02*
X114173000Y-115109571D01*
X114173000Y-115633381D02*
X114173000Y-114633381D01*
X114649191Y-114633381D01*
X115173000Y-114633381D02*
X115173000Y-114871476D01*
X114934905Y-114776238D02*
X115173000Y-114871476D01*
X115411096Y-114776238D01*
X115030143Y-115061952D02*
X115173000Y-114871476D01*
X115315858Y-115061952D01*
X115934905Y-114633381D02*
X115934905Y-114871476D01*
X115696810Y-114776238D02*
X115934905Y-114871476D01*
X116173001Y-114776238D01*
X115792048Y-115061952D02*
X115934905Y-114871476D01*
X116077763Y-115061952D01*
X126395667Y-115887381D02*
X126062333Y-115411190D01*
X125824238Y-115887381D02*
X125824238Y-114887381D01*
X126205191Y-114887381D01*
X126300429Y-114935000D01*
X126348048Y-114982619D01*
X126395667Y-115077857D01*
X126395667Y-115220714D01*
X126348048Y-115315952D01*
X126300429Y-115363571D01*
X126205191Y-115411190D01*
X125824238Y-115411190D01*
X126824238Y-115363571D02*
X127157572Y-115363571D01*
X127300429Y-115887381D02*
X126824238Y-115887381D01*
X126824238Y-114887381D01*
X127300429Y-114887381D01*
X128062334Y-115363571D02*
X127729000Y-115363571D01*
X127729000Y-115887381D02*
X127729000Y-114887381D01*
X128205191Y-114887381D01*
X128729000Y-114887381D02*
X128729000Y-115125476D01*
X128490905Y-115030238D02*
X128729000Y-115125476D01*
X128967096Y-115030238D01*
X128586143Y-115315952D02*
X128729000Y-115125476D01*
X128871858Y-115315952D01*
X129490905Y-114887381D02*
X129490905Y-115125476D01*
X129252810Y-115030238D02*
X129490905Y-115125476D01*
X129729001Y-115030238D01*
X129348048Y-115315952D02*
X129490905Y-115125476D01*
X129633763Y-115315952D01*
X126395667Y-112887381D02*
X126062333Y-112411190D01*
X125824238Y-112887381D02*
X125824238Y-111887381D01*
X126205191Y-111887381D01*
X126300429Y-111935000D01*
X126348048Y-111982619D01*
X126395667Y-112077857D01*
X126395667Y-112220714D01*
X126348048Y-112315952D01*
X126300429Y-112363571D01*
X126205191Y-112411190D01*
X125824238Y-112411190D01*
X126824238Y-112363571D02*
X127157572Y-112363571D01*
X127300429Y-112887381D02*
X126824238Y-112887381D01*
X126824238Y-111887381D01*
X127300429Y-111887381D01*
X128062334Y-112363571D02*
X127729000Y-112363571D01*
X127729000Y-112887381D02*
X127729000Y-111887381D01*
X128205191Y-111887381D01*
X128729000Y-111887381D02*
X128729000Y-112125476D01*
X128490905Y-112030238D02*
X128729000Y-112125476D01*
X128967096Y-112030238D01*
X128586143Y-112315952D02*
X128729000Y-112125476D01*
X128871858Y-112315952D01*
X129490905Y-111887381D02*
X129490905Y-112125476D01*
X129252810Y-112030238D02*
X129490905Y-112125476D01*
X129729001Y-112030238D01*
X129348048Y-112315952D02*
X129490905Y-112125476D01*
X129633763Y-112315952D01*
X143319667Y-118394381D02*
X142986333Y-117918190D01*
X142748238Y-118394381D02*
X142748238Y-117394381D01*
X143129191Y-117394381D01*
X143224429Y-117442000D01*
X143272048Y-117489619D01*
X143319667Y-117584857D01*
X143319667Y-117727714D01*
X143272048Y-117822952D01*
X143224429Y-117870571D01*
X143129191Y-117918190D01*
X142748238Y-117918190D01*
X143748238Y-117870571D02*
X144081572Y-117870571D01*
X144224429Y-118394381D02*
X143748238Y-118394381D01*
X143748238Y-117394381D01*
X144224429Y-117394381D01*
X144986334Y-117870571D02*
X144653000Y-117870571D01*
X144653000Y-118394381D02*
X144653000Y-117394381D01*
X145129191Y-117394381D01*
X145653000Y-117394381D02*
X145653000Y-117632476D01*
X145414905Y-117537238D02*
X145653000Y-117632476D01*
X145891096Y-117537238D01*
X145510143Y-117822952D02*
X145653000Y-117632476D01*
X145795858Y-117822952D01*
X146414905Y-117394381D02*
X146414905Y-117632476D01*
X146176810Y-117537238D02*
X146414905Y-117632476D01*
X146653001Y-117537238D01*
X146272048Y-117822952D02*
X146414905Y-117632476D01*
X146557763Y-117822952D01*
X150144667Y-128014381D02*
X149811333Y-127538190D01*
X149573238Y-128014381D02*
X149573238Y-127014381D01*
X149954191Y-127014381D01*
X150049429Y-127062000D01*
X150097048Y-127109619D01*
X150144667Y-127204857D01*
X150144667Y-127347714D01*
X150097048Y-127442952D01*
X150049429Y-127490571D01*
X149954191Y-127538190D01*
X149573238Y-127538190D01*
X150573238Y-127490571D02*
X150906572Y-127490571D01*
X151049429Y-128014381D02*
X150573238Y-128014381D01*
X150573238Y-127014381D01*
X151049429Y-127014381D01*
X151811334Y-127490571D02*
X151478000Y-127490571D01*
X151478000Y-128014381D02*
X151478000Y-127014381D01*
X151954191Y-127014381D01*
X152478000Y-127014381D02*
X152478000Y-127252476D01*
X152239905Y-127157238D02*
X152478000Y-127252476D01*
X152716096Y-127157238D01*
X152335143Y-127442952D02*
X152478000Y-127252476D01*
X152620858Y-127442952D01*
X153239905Y-127014381D02*
X153239905Y-127252476D01*
X153001810Y-127157238D02*
X153239905Y-127252476D01*
X153478001Y-127157238D01*
X153097048Y-127442952D02*
X153239905Y-127252476D01*
X153382763Y-127442952D01*
X150144667Y-125014381D02*
X149811333Y-124538190D01*
X149573238Y-125014381D02*
X149573238Y-124014381D01*
X149954191Y-124014381D01*
X150049429Y-124062000D01*
X150097048Y-124109619D01*
X150144667Y-124204857D01*
X150144667Y-124347714D01*
X150097048Y-124442952D01*
X150049429Y-124490571D01*
X149954191Y-124538190D01*
X149573238Y-124538190D01*
X150573238Y-124490571D02*
X150906572Y-124490571D01*
X151049429Y-125014381D02*
X150573238Y-125014381D01*
X150573238Y-124014381D01*
X151049429Y-124014381D01*
X151811334Y-124490571D02*
X151478000Y-124490571D01*
X151478000Y-125014381D02*
X151478000Y-124014381D01*
X151954191Y-124014381D01*
X152478000Y-124014381D02*
X152478000Y-124252476D01*
X152239905Y-124157238D02*
X152478000Y-124252476D01*
X152716096Y-124157238D01*
X152335143Y-124442952D02*
X152478000Y-124252476D01*
X152620858Y-124442952D01*
X153239905Y-124014381D02*
X153239905Y-124252476D01*
X153001810Y-124157238D02*
X153239905Y-124252476D01*
X153478001Y-124157238D01*
X153097048Y-124442952D02*
X153239905Y-124252476D01*
X153382763Y-124442952D01*
X150144667Y-119014381D02*
X149811333Y-118538190D01*
X149573238Y-119014381D02*
X149573238Y-118014381D01*
X149954191Y-118014381D01*
X150049429Y-118062000D01*
X150097048Y-118109619D01*
X150144667Y-118204857D01*
X150144667Y-118347714D01*
X150097048Y-118442952D01*
X150049429Y-118490571D01*
X149954191Y-118538190D01*
X149573238Y-118538190D01*
X150573238Y-118490571D02*
X150906572Y-118490571D01*
X151049429Y-119014381D02*
X150573238Y-119014381D01*
X150573238Y-118014381D01*
X151049429Y-118014381D01*
X151811334Y-118490571D02*
X151478000Y-118490571D01*
X151478000Y-119014381D02*
X151478000Y-118014381D01*
X151954191Y-118014381D01*
X152478000Y-118014381D02*
X152478000Y-118252476D01*
X152239905Y-118157238D02*
X152478000Y-118252476D01*
X152716096Y-118157238D01*
X152335143Y-118442952D02*
X152478000Y-118252476D01*
X152620858Y-118442952D01*
X153239905Y-118014381D02*
X153239905Y-118252476D01*
X153001810Y-118157238D02*
X153239905Y-118252476D01*
X153478001Y-118157238D01*
X153097048Y-118442952D02*
X153239905Y-118252476D01*
X153382763Y-118442952D01*
X150144667Y-131014381D02*
X149811333Y-130538190D01*
X149573238Y-131014381D02*
X149573238Y-130014381D01*
X149954191Y-130014381D01*
X150049429Y-130062000D01*
X150097048Y-130109619D01*
X150144667Y-130204857D01*
X150144667Y-130347714D01*
X150097048Y-130442952D01*
X150049429Y-130490571D01*
X149954191Y-130538190D01*
X149573238Y-130538190D01*
X150573238Y-130490571D02*
X150906572Y-130490571D01*
X151049429Y-131014381D02*
X150573238Y-131014381D01*
X150573238Y-130014381D01*
X151049429Y-130014381D01*
X151811334Y-130490571D02*
X151478000Y-130490571D01*
X151478000Y-131014381D02*
X151478000Y-130014381D01*
X151954191Y-130014381D01*
X152478000Y-130014381D02*
X152478000Y-130252476D01*
X152239905Y-130157238D02*
X152478000Y-130252476D01*
X152716096Y-130157238D01*
X152335143Y-130442952D02*
X152478000Y-130252476D01*
X152620858Y-130442952D01*
X153239905Y-130014381D02*
X153239905Y-130252476D01*
X153001810Y-130157238D02*
X153239905Y-130252476D01*
X153478001Y-130157238D01*
X153097048Y-130442952D02*
X153239905Y-130252476D01*
X153382763Y-130442952D01*
X136588667Y-130760381D02*
X136255333Y-130284190D01*
X136017238Y-130760381D02*
X136017238Y-129760381D01*
X136398191Y-129760381D01*
X136493429Y-129808000D01*
X136541048Y-129855619D01*
X136588667Y-129950857D01*
X136588667Y-130093714D01*
X136541048Y-130188952D01*
X136493429Y-130236571D01*
X136398191Y-130284190D01*
X136017238Y-130284190D01*
X137017238Y-130236571D02*
X137350572Y-130236571D01*
X137493429Y-130760381D02*
X137017238Y-130760381D01*
X137017238Y-129760381D01*
X137493429Y-129760381D01*
X138255334Y-130236571D02*
X137922000Y-130236571D01*
X137922000Y-130760381D02*
X137922000Y-129760381D01*
X138398191Y-129760381D01*
X138922000Y-129760381D02*
X138922000Y-129998476D01*
X138683905Y-129903238D02*
X138922000Y-129998476D01*
X139160096Y-129903238D01*
X138779143Y-130188952D02*
X138922000Y-129998476D01*
X139064858Y-130188952D01*
X139683905Y-129760381D02*
X139683905Y-129998476D01*
X139445810Y-129903238D02*
X139683905Y-129998476D01*
X139922001Y-129903238D01*
X139541048Y-130188952D02*
X139683905Y-129998476D01*
X139826763Y-130188952D01*
X150144667Y-122014381D02*
X149811333Y-121538190D01*
X149573238Y-122014381D02*
X149573238Y-121014381D01*
X149954191Y-121014381D01*
X150049429Y-121062000D01*
X150097048Y-121109619D01*
X150144667Y-121204857D01*
X150144667Y-121347714D01*
X150097048Y-121442952D01*
X150049429Y-121490571D01*
X149954191Y-121538190D01*
X149573238Y-121538190D01*
X150573238Y-121490571D02*
X150906572Y-121490571D01*
X151049429Y-122014381D02*
X150573238Y-122014381D01*
X150573238Y-121014381D01*
X151049429Y-121014381D01*
X151811334Y-121490571D02*
X151478000Y-121490571D01*
X151478000Y-122014381D02*
X151478000Y-121014381D01*
X151954191Y-121014381D01*
X152478000Y-121014381D02*
X152478000Y-121252476D01*
X152239905Y-121157238D02*
X152478000Y-121252476D01*
X152716096Y-121157238D01*
X152335143Y-121442952D02*
X152478000Y-121252476D01*
X152620858Y-121442952D01*
X153239905Y-121014381D02*
X153239905Y-121252476D01*
X153001810Y-121157238D02*
X153239905Y-121252476D01*
X153478001Y-121157238D01*
X153097048Y-121442952D02*
X153239905Y-121252476D01*
X153382763Y-121442952D01*
X136588667Y-124760381D02*
X136255333Y-124284190D01*
X136017238Y-124760381D02*
X136017238Y-123760381D01*
X136398191Y-123760381D01*
X136493429Y-123808000D01*
X136541048Y-123855619D01*
X136588667Y-123950857D01*
X136588667Y-124093714D01*
X136541048Y-124188952D01*
X136493429Y-124236571D01*
X136398191Y-124284190D01*
X136017238Y-124284190D01*
X137017238Y-124236571D02*
X137350572Y-124236571D01*
X137493429Y-124760381D02*
X137017238Y-124760381D01*
X137017238Y-123760381D01*
X137493429Y-123760381D01*
X138255334Y-124236571D02*
X137922000Y-124236571D01*
X137922000Y-124760381D02*
X137922000Y-123760381D01*
X138398191Y-123760381D01*
X138922000Y-123760381D02*
X138922000Y-123998476D01*
X138683905Y-123903238D02*
X138922000Y-123998476D01*
X139160096Y-123903238D01*
X138779143Y-124188952D02*
X138922000Y-123998476D01*
X139064858Y-124188952D01*
X139683905Y-123760381D02*
X139683905Y-123998476D01*
X139445810Y-123903238D02*
X139683905Y-123998476D01*
X139922001Y-123903238D01*
X139541048Y-124188952D02*
X139683905Y-123998476D01*
X139826763Y-124188952D01*
X136588667Y-127760381D02*
X136255333Y-127284190D01*
X136017238Y-127760381D02*
X136017238Y-126760381D01*
X136398191Y-126760381D01*
X136493429Y-126808000D01*
X136541048Y-126855619D01*
X136588667Y-126950857D01*
X136588667Y-127093714D01*
X136541048Y-127188952D01*
X136493429Y-127236571D01*
X136398191Y-127284190D01*
X136017238Y-127284190D01*
X137017238Y-127236571D02*
X137350572Y-127236571D01*
X137493429Y-127760381D02*
X137017238Y-127760381D01*
X137017238Y-126760381D01*
X137493429Y-126760381D01*
X138255334Y-127236571D02*
X137922000Y-127236571D01*
X137922000Y-127760381D02*
X137922000Y-126760381D01*
X138398191Y-126760381D01*
X138922000Y-126760381D02*
X138922000Y-126998476D01*
X138683905Y-126903238D02*
X138922000Y-126998476D01*
X139160096Y-126903238D01*
X138779143Y-127188952D02*
X138922000Y-126998476D01*
X139064858Y-127188952D01*
X139683905Y-126760381D02*
X139683905Y-126998476D01*
X139445810Y-126903238D02*
X139683905Y-126998476D01*
X139922001Y-126903238D01*
X139541048Y-127188952D02*
X139683905Y-126998476D01*
X139826763Y-127188952D01*
X136588667Y-121760381D02*
X136255333Y-121284190D01*
X136017238Y-121760381D02*
X136017238Y-120760381D01*
X136398191Y-120760381D01*
X136493429Y-120808000D01*
X136541048Y-120855619D01*
X136588667Y-120950857D01*
X136588667Y-121093714D01*
X136541048Y-121188952D01*
X136493429Y-121236571D01*
X136398191Y-121284190D01*
X136017238Y-121284190D01*
X137017238Y-121236571D02*
X137350572Y-121236571D01*
X137493429Y-121760381D02*
X137017238Y-121760381D01*
X137017238Y-120760381D01*
X137493429Y-120760381D01*
X138255334Y-121236571D02*
X137922000Y-121236571D01*
X137922000Y-121760381D02*
X137922000Y-120760381D01*
X138398191Y-120760381D01*
X138922000Y-120760381D02*
X138922000Y-120998476D01*
X138683905Y-120903238D02*
X138922000Y-120998476D01*
X139160096Y-120903238D01*
X138779143Y-121188952D02*
X138922000Y-120998476D01*
X139064858Y-121188952D01*
X139683905Y-120760381D02*
X139683905Y-120998476D01*
X139445810Y-120903238D02*
X139683905Y-120998476D01*
X139922001Y-120903238D01*
X139541048Y-121188952D02*
X139683905Y-120998476D01*
X139826763Y-121188952D01*
X136588667Y-118760381D02*
X136255333Y-118284190D01*
X136017238Y-118760381D02*
X136017238Y-117760381D01*
X136398191Y-117760381D01*
X136493429Y-117808000D01*
X136541048Y-117855619D01*
X136588667Y-117950857D01*
X136588667Y-118093714D01*
X136541048Y-118188952D01*
X136493429Y-118236571D01*
X136398191Y-118284190D01*
X136017238Y-118284190D01*
X137017238Y-118236571D02*
X137350572Y-118236571D01*
X137493429Y-118760381D02*
X137017238Y-118760381D01*
X137017238Y-117760381D01*
X137493429Y-117760381D01*
X138255334Y-118236571D02*
X137922000Y-118236571D01*
X137922000Y-118760381D02*
X137922000Y-117760381D01*
X138398191Y-117760381D01*
X138922000Y-117760381D02*
X138922000Y-117998476D01*
X138683905Y-117903238D02*
X138922000Y-117998476D01*
X139160096Y-117903238D01*
X138779143Y-118188952D02*
X138922000Y-117998476D01*
X139064858Y-118188952D01*
X139683905Y-117760381D02*
X139683905Y-117998476D01*
X139445810Y-117903238D02*
X139683905Y-117998476D01*
X139922001Y-117903238D01*
X139541048Y-118188952D02*
X139683905Y-117998476D01*
X139826763Y-118188952D01*
X136588667Y-112760381D02*
X136255333Y-112284190D01*
X136017238Y-112760381D02*
X136017238Y-111760381D01*
X136398191Y-111760381D01*
X136493429Y-111808000D01*
X136541048Y-111855619D01*
X136588667Y-111950857D01*
X136588667Y-112093714D01*
X136541048Y-112188952D01*
X136493429Y-112236571D01*
X136398191Y-112284190D01*
X136017238Y-112284190D01*
X137017238Y-112236571D02*
X137350572Y-112236571D01*
X137493429Y-112760381D02*
X137017238Y-112760381D01*
X137017238Y-111760381D01*
X137493429Y-111760381D01*
X138255334Y-112236571D02*
X137922000Y-112236571D01*
X137922000Y-112760381D02*
X137922000Y-111760381D01*
X138398191Y-111760381D01*
X138922000Y-111760381D02*
X138922000Y-111998476D01*
X138683905Y-111903238D02*
X138922000Y-111998476D01*
X139160096Y-111903238D01*
X138779143Y-112188952D02*
X138922000Y-111998476D01*
X139064858Y-112188952D01*
X139683905Y-111760381D02*
X139683905Y-111998476D01*
X139445810Y-111903238D02*
X139683905Y-111998476D01*
X139922001Y-111903238D01*
X139541048Y-112188952D02*
X139683905Y-111998476D01*
X139826763Y-112188952D01*
X136588667Y-115760381D02*
X136255333Y-115284190D01*
X136017238Y-115760381D02*
X136017238Y-114760381D01*
X136398191Y-114760381D01*
X136493429Y-114808000D01*
X136541048Y-114855619D01*
X136588667Y-114950857D01*
X136588667Y-115093714D01*
X136541048Y-115188952D01*
X136493429Y-115236571D01*
X136398191Y-115284190D01*
X136017238Y-115284190D01*
X137017238Y-115236571D02*
X137350572Y-115236571D01*
X137493429Y-115760381D02*
X137017238Y-115760381D01*
X137017238Y-114760381D01*
X137493429Y-114760381D01*
X138255334Y-115236571D02*
X137922000Y-115236571D01*
X137922000Y-115760381D02*
X137922000Y-114760381D01*
X138398191Y-114760381D01*
X138922000Y-114760381D02*
X138922000Y-114998476D01*
X138683905Y-114903238D02*
X138922000Y-114998476D01*
X139160096Y-114903238D01*
X138779143Y-115188952D02*
X138922000Y-114998476D01*
X139064858Y-115188952D01*
X139683905Y-114760381D02*
X139683905Y-114998476D01*
X139445810Y-114903238D02*
X139683905Y-114998476D01*
X139922001Y-114903238D01*
X139541048Y-115188952D02*
X139683905Y-114998476D01*
X139826763Y-115188952D01*
X150144667Y-116014381D02*
X149811333Y-115538190D01*
X149573238Y-116014381D02*
X149573238Y-115014381D01*
X149954191Y-115014381D01*
X150049429Y-115062000D01*
X150097048Y-115109619D01*
X150144667Y-115204857D01*
X150144667Y-115347714D01*
X150097048Y-115442952D01*
X150049429Y-115490571D01*
X149954191Y-115538190D01*
X149573238Y-115538190D01*
X150573238Y-115490571D02*
X150906572Y-115490571D01*
X151049429Y-116014381D02*
X150573238Y-116014381D01*
X150573238Y-115014381D01*
X151049429Y-115014381D01*
X151811334Y-115490571D02*
X151478000Y-115490571D01*
X151478000Y-116014381D02*
X151478000Y-115014381D01*
X151954191Y-115014381D01*
X152478000Y-115014381D02*
X152478000Y-115252476D01*
X152239905Y-115157238D02*
X152478000Y-115252476D01*
X152716096Y-115157238D01*
X152335143Y-115442952D02*
X152478000Y-115252476D01*
X152620858Y-115442952D01*
X153239905Y-115014381D02*
X153239905Y-115252476D01*
X153001810Y-115157238D02*
X153239905Y-115252476D01*
X153478001Y-115157238D01*
X153097048Y-115442952D02*
X153239905Y-115252476D01*
X153382763Y-115442952D01*
X150144667Y-113014381D02*
X149811333Y-112538190D01*
X149573238Y-113014381D02*
X149573238Y-112014381D01*
X149954191Y-112014381D01*
X150049429Y-112062000D01*
X150097048Y-112109619D01*
X150144667Y-112204857D01*
X150144667Y-112347714D01*
X150097048Y-112442952D01*
X150049429Y-112490571D01*
X149954191Y-112538190D01*
X149573238Y-112538190D01*
X150573238Y-112490571D02*
X150906572Y-112490571D01*
X151049429Y-113014381D02*
X150573238Y-113014381D01*
X150573238Y-112014381D01*
X151049429Y-112014381D01*
X151811334Y-112490571D02*
X151478000Y-112490571D01*
X151478000Y-113014381D02*
X151478000Y-112014381D01*
X151954191Y-112014381D01*
X152478000Y-112014381D02*
X152478000Y-112252476D01*
X152239905Y-112157238D02*
X152478000Y-112252476D01*
X152716096Y-112157238D01*
X152335143Y-112442952D02*
X152478000Y-112252476D01*
X152620858Y-112442952D01*
X153239905Y-112014381D02*
X153239905Y-112252476D01*
X153001810Y-112157238D02*
X153239905Y-112252476D01*
X153478001Y-112157238D01*
X153097048Y-112442952D02*
X153239905Y-112252476D01*
X153382763Y-112442952D01*
X142811667Y-94137381D02*
X142478333Y-93661190D01*
X142240238Y-94137381D02*
X142240238Y-93137381D01*
X142621191Y-93137381D01*
X142716429Y-93185000D01*
X142764048Y-93232619D01*
X142811667Y-93327857D01*
X142811667Y-93470714D01*
X142764048Y-93565952D01*
X142716429Y-93613571D01*
X142621191Y-93661190D01*
X142240238Y-93661190D01*
X143240238Y-93613571D02*
X143573572Y-93613571D01*
X143716429Y-94137381D02*
X143240238Y-94137381D01*
X143240238Y-93137381D01*
X143716429Y-93137381D01*
X144478334Y-93613571D02*
X144145000Y-93613571D01*
X144145000Y-94137381D02*
X144145000Y-93137381D01*
X144621191Y-93137381D01*
X145145000Y-93137381D02*
X145145000Y-93375476D01*
X144906905Y-93280238D02*
X145145000Y-93375476D01*
X145383096Y-93280238D01*
X145002143Y-93565952D02*
X145145000Y-93375476D01*
X145287858Y-93565952D01*
X145906905Y-93137381D02*
X145906905Y-93375476D01*
X145668810Y-93280238D02*
X145906905Y-93375476D01*
X146145001Y-93280238D01*
X145764048Y-93565952D02*
X145906905Y-93375476D01*
X146049763Y-93565952D01*
X149636667Y-103757381D02*
X149303333Y-103281190D01*
X149065238Y-103757381D02*
X149065238Y-102757381D01*
X149446191Y-102757381D01*
X149541429Y-102805000D01*
X149589048Y-102852619D01*
X149636667Y-102947857D01*
X149636667Y-103090714D01*
X149589048Y-103185952D01*
X149541429Y-103233571D01*
X149446191Y-103281190D01*
X149065238Y-103281190D01*
X150065238Y-103233571D02*
X150398572Y-103233571D01*
X150541429Y-103757381D02*
X150065238Y-103757381D01*
X150065238Y-102757381D01*
X150541429Y-102757381D01*
X151303334Y-103233571D02*
X150970000Y-103233571D01*
X150970000Y-103757381D02*
X150970000Y-102757381D01*
X151446191Y-102757381D01*
X151970000Y-102757381D02*
X151970000Y-102995476D01*
X151731905Y-102900238D02*
X151970000Y-102995476D01*
X152208096Y-102900238D01*
X151827143Y-103185952D02*
X151970000Y-102995476D01*
X152112858Y-103185952D01*
X152731905Y-102757381D02*
X152731905Y-102995476D01*
X152493810Y-102900238D02*
X152731905Y-102995476D01*
X152970001Y-102900238D01*
X152589048Y-103185952D02*
X152731905Y-102995476D01*
X152874763Y-103185952D01*
X149636667Y-100757381D02*
X149303333Y-100281190D01*
X149065238Y-100757381D02*
X149065238Y-99757381D01*
X149446191Y-99757381D01*
X149541429Y-99805000D01*
X149589048Y-99852619D01*
X149636667Y-99947857D01*
X149636667Y-100090714D01*
X149589048Y-100185952D01*
X149541429Y-100233571D01*
X149446191Y-100281190D01*
X149065238Y-100281190D01*
X150065238Y-100233571D02*
X150398572Y-100233571D01*
X150541429Y-100757381D02*
X150065238Y-100757381D01*
X150065238Y-99757381D01*
X150541429Y-99757381D01*
X151303334Y-100233571D02*
X150970000Y-100233571D01*
X150970000Y-100757381D02*
X150970000Y-99757381D01*
X151446191Y-99757381D01*
X151970000Y-99757381D02*
X151970000Y-99995476D01*
X151731905Y-99900238D02*
X151970000Y-99995476D01*
X152208096Y-99900238D01*
X151827143Y-100185952D02*
X151970000Y-99995476D01*
X152112858Y-100185952D01*
X152731905Y-99757381D02*
X152731905Y-99995476D01*
X152493810Y-99900238D02*
X152731905Y-99995476D01*
X152970001Y-99900238D01*
X152589048Y-100185952D02*
X152731905Y-99995476D01*
X152874763Y-100185952D01*
X149636667Y-94757381D02*
X149303333Y-94281190D01*
X149065238Y-94757381D02*
X149065238Y-93757381D01*
X149446191Y-93757381D01*
X149541429Y-93805000D01*
X149589048Y-93852619D01*
X149636667Y-93947857D01*
X149636667Y-94090714D01*
X149589048Y-94185952D01*
X149541429Y-94233571D01*
X149446191Y-94281190D01*
X149065238Y-94281190D01*
X150065238Y-94233571D02*
X150398572Y-94233571D01*
X150541429Y-94757381D02*
X150065238Y-94757381D01*
X150065238Y-93757381D01*
X150541429Y-93757381D01*
X151303334Y-94233571D02*
X150970000Y-94233571D01*
X150970000Y-94757381D02*
X150970000Y-93757381D01*
X151446191Y-93757381D01*
X151970000Y-93757381D02*
X151970000Y-93995476D01*
X151731905Y-93900238D02*
X151970000Y-93995476D01*
X152208096Y-93900238D01*
X151827143Y-94185952D02*
X151970000Y-93995476D01*
X152112858Y-94185952D01*
X152731905Y-93757381D02*
X152731905Y-93995476D01*
X152493810Y-93900238D02*
X152731905Y-93995476D01*
X152970001Y-93900238D01*
X152589048Y-94185952D02*
X152731905Y-93995476D01*
X152874763Y-94185952D01*
X149636667Y-106757381D02*
X149303333Y-106281190D01*
X149065238Y-106757381D02*
X149065238Y-105757381D01*
X149446191Y-105757381D01*
X149541429Y-105805000D01*
X149589048Y-105852619D01*
X149636667Y-105947857D01*
X149636667Y-106090714D01*
X149589048Y-106185952D01*
X149541429Y-106233571D01*
X149446191Y-106281190D01*
X149065238Y-106281190D01*
X150065238Y-106233571D02*
X150398572Y-106233571D01*
X150541429Y-106757381D02*
X150065238Y-106757381D01*
X150065238Y-105757381D01*
X150541429Y-105757381D01*
X151303334Y-106233571D02*
X150970000Y-106233571D01*
X150970000Y-106757381D02*
X150970000Y-105757381D01*
X151446191Y-105757381D01*
X151970000Y-105757381D02*
X151970000Y-105995476D01*
X151731905Y-105900238D02*
X151970000Y-105995476D01*
X152208096Y-105900238D01*
X151827143Y-106185952D02*
X151970000Y-105995476D01*
X152112858Y-106185952D01*
X152731905Y-105757381D02*
X152731905Y-105995476D01*
X152493810Y-105900238D02*
X152731905Y-105995476D01*
X152970001Y-105900238D01*
X152589048Y-106185952D02*
X152731905Y-105995476D01*
X152874763Y-106185952D01*
X136080667Y-106503381D02*
X135747333Y-106027190D01*
X135509238Y-106503381D02*
X135509238Y-105503381D01*
X135890191Y-105503381D01*
X135985429Y-105551000D01*
X136033048Y-105598619D01*
X136080667Y-105693857D01*
X136080667Y-105836714D01*
X136033048Y-105931952D01*
X135985429Y-105979571D01*
X135890191Y-106027190D01*
X135509238Y-106027190D01*
X136509238Y-105979571D02*
X136842572Y-105979571D01*
X136985429Y-106503381D02*
X136509238Y-106503381D01*
X136509238Y-105503381D01*
X136985429Y-105503381D01*
X137747334Y-105979571D02*
X137414000Y-105979571D01*
X137414000Y-106503381D02*
X137414000Y-105503381D01*
X137890191Y-105503381D01*
X138414000Y-105503381D02*
X138414000Y-105741476D01*
X138175905Y-105646238D02*
X138414000Y-105741476D01*
X138652096Y-105646238D01*
X138271143Y-105931952D02*
X138414000Y-105741476D01*
X138556858Y-105931952D01*
X139175905Y-105503381D02*
X139175905Y-105741476D01*
X138937810Y-105646238D02*
X139175905Y-105741476D01*
X139414001Y-105646238D01*
X139033048Y-105931952D02*
X139175905Y-105741476D01*
X139318763Y-105931952D01*
X149636667Y-97757381D02*
X149303333Y-97281190D01*
X149065238Y-97757381D02*
X149065238Y-96757381D01*
X149446191Y-96757381D01*
X149541429Y-96805000D01*
X149589048Y-96852619D01*
X149636667Y-96947857D01*
X149636667Y-97090714D01*
X149589048Y-97185952D01*
X149541429Y-97233571D01*
X149446191Y-97281190D01*
X149065238Y-97281190D01*
X150065238Y-97233571D02*
X150398572Y-97233571D01*
X150541429Y-97757381D02*
X150065238Y-97757381D01*
X150065238Y-96757381D01*
X150541429Y-96757381D01*
X151303334Y-97233571D02*
X150970000Y-97233571D01*
X150970000Y-97757381D02*
X150970000Y-96757381D01*
X151446191Y-96757381D01*
X151970000Y-96757381D02*
X151970000Y-96995476D01*
X151731905Y-96900238D02*
X151970000Y-96995476D01*
X152208096Y-96900238D01*
X151827143Y-97185952D02*
X151970000Y-96995476D01*
X152112858Y-97185952D01*
X152731905Y-96757381D02*
X152731905Y-96995476D01*
X152493810Y-96900238D02*
X152731905Y-96995476D01*
X152970001Y-96900238D01*
X152589048Y-97185952D02*
X152731905Y-96995476D01*
X152874763Y-97185952D01*
X136080667Y-100503381D02*
X135747333Y-100027190D01*
X135509238Y-100503381D02*
X135509238Y-99503381D01*
X135890191Y-99503381D01*
X135985429Y-99551000D01*
X136033048Y-99598619D01*
X136080667Y-99693857D01*
X136080667Y-99836714D01*
X136033048Y-99931952D01*
X135985429Y-99979571D01*
X135890191Y-100027190D01*
X135509238Y-100027190D01*
X136509238Y-99979571D02*
X136842572Y-99979571D01*
X136985429Y-100503381D02*
X136509238Y-100503381D01*
X136509238Y-99503381D01*
X136985429Y-99503381D01*
X137747334Y-99979571D02*
X137414000Y-99979571D01*
X137414000Y-100503381D02*
X137414000Y-99503381D01*
X137890191Y-99503381D01*
X138414000Y-99503381D02*
X138414000Y-99741476D01*
X138175905Y-99646238D02*
X138414000Y-99741476D01*
X138652096Y-99646238D01*
X138271143Y-99931952D02*
X138414000Y-99741476D01*
X138556858Y-99931952D01*
X139175905Y-99503381D02*
X139175905Y-99741476D01*
X138937810Y-99646238D02*
X139175905Y-99741476D01*
X139414001Y-99646238D01*
X139033048Y-99931952D02*
X139175905Y-99741476D01*
X139318763Y-99931952D01*
X136080667Y-103503381D02*
X135747333Y-103027190D01*
X135509238Y-103503381D02*
X135509238Y-102503381D01*
X135890191Y-102503381D01*
X135985429Y-102551000D01*
X136033048Y-102598619D01*
X136080667Y-102693857D01*
X136080667Y-102836714D01*
X136033048Y-102931952D01*
X135985429Y-102979571D01*
X135890191Y-103027190D01*
X135509238Y-103027190D01*
X136509238Y-102979571D02*
X136842572Y-102979571D01*
X136985429Y-103503381D02*
X136509238Y-103503381D01*
X136509238Y-102503381D01*
X136985429Y-102503381D01*
X137747334Y-102979571D02*
X137414000Y-102979571D01*
X137414000Y-103503381D02*
X137414000Y-102503381D01*
X137890191Y-102503381D01*
X138414000Y-102503381D02*
X138414000Y-102741476D01*
X138175905Y-102646238D02*
X138414000Y-102741476D01*
X138652096Y-102646238D01*
X138271143Y-102931952D02*
X138414000Y-102741476D01*
X138556858Y-102931952D01*
X139175905Y-102503381D02*
X139175905Y-102741476D01*
X138937810Y-102646238D02*
X139175905Y-102741476D01*
X139414001Y-102646238D01*
X139033048Y-102931952D02*
X139175905Y-102741476D01*
X139318763Y-102931952D01*
X136080667Y-97503381D02*
X135747333Y-97027190D01*
X135509238Y-97503381D02*
X135509238Y-96503381D01*
X135890191Y-96503381D01*
X135985429Y-96551000D01*
X136033048Y-96598619D01*
X136080667Y-96693857D01*
X136080667Y-96836714D01*
X136033048Y-96931952D01*
X135985429Y-96979571D01*
X135890191Y-97027190D01*
X135509238Y-97027190D01*
X136509238Y-96979571D02*
X136842572Y-96979571D01*
X136985429Y-97503381D02*
X136509238Y-97503381D01*
X136509238Y-96503381D01*
X136985429Y-96503381D01*
X137747334Y-96979571D02*
X137414000Y-96979571D01*
X137414000Y-97503381D02*
X137414000Y-96503381D01*
X137890191Y-96503381D01*
X138414000Y-96503381D02*
X138414000Y-96741476D01*
X138175905Y-96646238D02*
X138414000Y-96741476D01*
X138652096Y-96646238D01*
X138271143Y-96931952D02*
X138414000Y-96741476D01*
X138556858Y-96931952D01*
X139175905Y-96503381D02*
X139175905Y-96741476D01*
X138937810Y-96646238D02*
X139175905Y-96741476D01*
X139414001Y-96646238D01*
X139033048Y-96931952D02*
X139175905Y-96741476D01*
X139318763Y-96931952D01*
X136080667Y-94503381D02*
X135747333Y-94027190D01*
X135509238Y-94503381D02*
X135509238Y-93503381D01*
X135890191Y-93503381D01*
X135985429Y-93551000D01*
X136033048Y-93598619D01*
X136080667Y-93693857D01*
X136080667Y-93836714D01*
X136033048Y-93931952D01*
X135985429Y-93979571D01*
X135890191Y-94027190D01*
X135509238Y-94027190D01*
X136509238Y-93979571D02*
X136842572Y-93979571D01*
X136985429Y-94503381D02*
X136509238Y-94503381D01*
X136509238Y-93503381D01*
X136985429Y-93503381D01*
X137747334Y-93979571D02*
X137414000Y-93979571D01*
X137414000Y-94503381D02*
X137414000Y-93503381D01*
X137890191Y-93503381D01*
X138414000Y-93503381D02*
X138414000Y-93741476D01*
X138175905Y-93646238D02*
X138414000Y-93741476D01*
X138652096Y-93646238D01*
X138271143Y-93931952D02*
X138414000Y-93741476D01*
X138556858Y-93931952D01*
X139175905Y-93503381D02*
X139175905Y-93741476D01*
X138937810Y-93646238D02*
X139175905Y-93741476D01*
X139414001Y-93646238D01*
X139033048Y-93931952D02*
X139175905Y-93741476D01*
X139318763Y-93931952D01*
X136080667Y-88503381D02*
X135747333Y-88027190D01*
X135509238Y-88503381D02*
X135509238Y-87503381D01*
X135890191Y-87503381D01*
X135985429Y-87551000D01*
X136033048Y-87598619D01*
X136080667Y-87693857D01*
X136080667Y-87836714D01*
X136033048Y-87931952D01*
X135985429Y-87979571D01*
X135890191Y-88027190D01*
X135509238Y-88027190D01*
X136509238Y-87979571D02*
X136842572Y-87979571D01*
X136985429Y-88503381D02*
X136509238Y-88503381D01*
X136509238Y-87503381D01*
X136985429Y-87503381D01*
X137747334Y-87979571D02*
X137414000Y-87979571D01*
X137414000Y-88503381D02*
X137414000Y-87503381D01*
X137890191Y-87503381D01*
X138414000Y-87503381D02*
X138414000Y-87741476D01*
X138175905Y-87646238D02*
X138414000Y-87741476D01*
X138652096Y-87646238D01*
X138271143Y-87931952D02*
X138414000Y-87741476D01*
X138556858Y-87931952D01*
X139175905Y-87503381D02*
X139175905Y-87741476D01*
X138937810Y-87646238D02*
X139175905Y-87741476D01*
X139414001Y-87646238D01*
X139033048Y-87931952D02*
X139175905Y-87741476D01*
X139318763Y-87931952D01*
X136080667Y-91503381D02*
X135747333Y-91027190D01*
X135509238Y-91503381D02*
X135509238Y-90503381D01*
X135890191Y-90503381D01*
X135985429Y-90551000D01*
X136033048Y-90598619D01*
X136080667Y-90693857D01*
X136080667Y-90836714D01*
X136033048Y-90931952D01*
X135985429Y-90979571D01*
X135890191Y-91027190D01*
X135509238Y-91027190D01*
X136509238Y-90979571D02*
X136842572Y-90979571D01*
X136985429Y-91503381D02*
X136509238Y-91503381D01*
X136509238Y-90503381D01*
X136985429Y-90503381D01*
X137747334Y-90979571D02*
X137414000Y-90979571D01*
X137414000Y-91503381D02*
X137414000Y-90503381D01*
X137890191Y-90503381D01*
X138414000Y-90503381D02*
X138414000Y-90741476D01*
X138175905Y-90646238D02*
X138414000Y-90741476D01*
X138652096Y-90646238D01*
X138271143Y-90931952D02*
X138414000Y-90741476D01*
X138556858Y-90931952D01*
X139175905Y-90503381D02*
X139175905Y-90741476D01*
X138937810Y-90646238D02*
X139175905Y-90741476D01*
X139414001Y-90646238D01*
X139033048Y-90931952D02*
X139175905Y-90741476D01*
X139318763Y-90931952D01*
X149636667Y-91757381D02*
X149303333Y-91281190D01*
X149065238Y-91757381D02*
X149065238Y-90757381D01*
X149446191Y-90757381D01*
X149541429Y-90805000D01*
X149589048Y-90852619D01*
X149636667Y-90947857D01*
X149636667Y-91090714D01*
X149589048Y-91185952D01*
X149541429Y-91233571D01*
X149446191Y-91281190D01*
X149065238Y-91281190D01*
X150065238Y-91233571D02*
X150398572Y-91233571D01*
X150541429Y-91757381D02*
X150065238Y-91757381D01*
X150065238Y-90757381D01*
X150541429Y-90757381D01*
X151303334Y-91233571D02*
X150970000Y-91233571D01*
X150970000Y-91757381D02*
X150970000Y-90757381D01*
X151446191Y-90757381D01*
X151970000Y-90757381D02*
X151970000Y-90995476D01*
X151731905Y-90900238D02*
X151970000Y-90995476D01*
X152208096Y-90900238D01*
X151827143Y-91185952D02*
X151970000Y-90995476D01*
X152112858Y-91185952D01*
X152731905Y-90757381D02*
X152731905Y-90995476D01*
X152493810Y-90900238D02*
X152731905Y-90995476D01*
X152970001Y-90900238D01*
X152589048Y-91185952D02*
X152731905Y-90995476D01*
X152874763Y-91185952D01*
X149636667Y-88757381D02*
X149303333Y-88281190D01*
X149065238Y-88757381D02*
X149065238Y-87757381D01*
X149446191Y-87757381D01*
X149541429Y-87805000D01*
X149589048Y-87852619D01*
X149636667Y-87947857D01*
X149636667Y-88090714D01*
X149589048Y-88185952D01*
X149541429Y-88233571D01*
X149446191Y-88281190D01*
X149065238Y-88281190D01*
X150065238Y-88233571D02*
X150398572Y-88233571D01*
X150541429Y-88757381D02*
X150065238Y-88757381D01*
X150065238Y-87757381D01*
X150541429Y-87757381D01*
X151303334Y-88233571D02*
X150970000Y-88233571D01*
X150970000Y-88757381D02*
X150970000Y-87757381D01*
X151446191Y-87757381D01*
X151970000Y-87757381D02*
X151970000Y-87995476D01*
X151731905Y-87900238D02*
X151970000Y-87995476D01*
X152208096Y-87900238D01*
X151827143Y-88185952D02*
X151970000Y-87995476D01*
X152112858Y-88185952D01*
X152731905Y-87757381D02*
X152731905Y-87995476D01*
X152493810Y-87900238D02*
X152731905Y-87995476D01*
X152970001Y-87900238D01*
X152589048Y-88185952D02*
X152731905Y-87995476D01*
X152874763Y-88185952D01*
X125887667Y-106376381D02*
X125554333Y-105900190D01*
X125316238Y-106376381D02*
X125316238Y-105376381D01*
X125697191Y-105376381D01*
X125792429Y-105424000D01*
X125840048Y-105471619D01*
X125887667Y-105566857D01*
X125887667Y-105709714D01*
X125840048Y-105804952D01*
X125792429Y-105852571D01*
X125697191Y-105900190D01*
X125316238Y-105900190D01*
X126316238Y-105852571D02*
X126649572Y-105852571D01*
X126792429Y-106376381D02*
X126316238Y-106376381D01*
X126316238Y-105376381D01*
X126792429Y-105376381D01*
X127554334Y-105852571D02*
X127221000Y-105852571D01*
X127221000Y-106376381D02*
X127221000Y-105376381D01*
X127697191Y-105376381D01*
X128221000Y-105376381D02*
X128221000Y-105614476D01*
X127982905Y-105519238D02*
X128221000Y-105614476D01*
X128459096Y-105519238D01*
X128078143Y-105804952D02*
X128221000Y-105614476D01*
X128363858Y-105804952D01*
X128982905Y-105376381D02*
X128982905Y-105614476D01*
X128744810Y-105519238D02*
X128982905Y-105614476D01*
X129221001Y-105519238D01*
X128840048Y-105804952D02*
X128982905Y-105614476D01*
X129125763Y-105804952D01*
X112331667Y-106122381D02*
X111998333Y-105646190D01*
X111760238Y-106122381D02*
X111760238Y-105122381D01*
X112141191Y-105122381D01*
X112236429Y-105170000D01*
X112284048Y-105217619D01*
X112331667Y-105312857D01*
X112331667Y-105455714D01*
X112284048Y-105550952D01*
X112236429Y-105598571D01*
X112141191Y-105646190D01*
X111760238Y-105646190D01*
X112760238Y-105598571D02*
X113093572Y-105598571D01*
X113236429Y-106122381D02*
X112760238Y-106122381D01*
X112760238Y-105122381D01*
X113236429Y-105122381D01*
X113998334Y-105598571D02*
X113665000Y-105598571D01*
X113665000Y-106122381D02*
X113665000Y-105122381D01*
X114141191Y-105122381D01*
X114665000Y-105122381D02*
X114665000Y-105360476D01*
X114426905Y-105265238D02*
X114665000Y-105360476D01*
X114903096Y-105265238D01*
X114522143Y-105550952D02*
X114665000Y-105360476D01*
X114807858Y-105550952D01*
X115426905Y-105122381D02*
X115426905Y-105360476D01*
X115188810Y-105265238D02*
X115426905Y-105360476D01*
X115665001Y-105265238D01*
X115284048Y-105550952D02*
X115426905Y-105360476D01*
X115569763Y-105550952D01*
X125887667Y-103376381D02*
X125554333Y-102900190D01*
X125316238Y-103376381D02*
X125316238Y-102376381D01*
X125697191Y-102376381D01*
X125792429Y-102424000D01*
X125840048Y-102471619D01*
X125887667Y-102566857D01*
X125887667Y-102709714D01*
X125840048Y-102804952D01*
X125792429Y-102852571D01*
X125697191Y-102900190D01*
X125316238Y-102900190D01*
X126316238Y-102852571D02*
X126649572Y-102852571D01*
X126792429Y-103376381D02*
X126316238Y-103376381D01*
X126316238Y-102376381D01*
X126792429Y-102376381D01*
X127554334Y-102852571D02*
X127221000Y-102852571D01*
X127221000Y-103376381D02*
X127221000Y-102376381D01*
X127697191Y-102376381D01*
X128221000Y-102376381D02*
X128221000Y-102614476D01*
X127982905Y-102519238D02*
X128221000Y-102614476D01*
X128459096Y-102519238D01*
X128078143Y-102804952D02*
X128221000Y-102614476D01*
X128363858Y-102804952D01*
X128982905Y-102376381D02*
X128982905Y-102614476D01*
X128744810Y-102519238D02*
X128982905Y-102614476D01*
X129221001Y-102519238D01*
X128840048Y-102804952D02*
X128982905Y-102614476D01*
X129125763Y-102804952D01*
X112331667Y-103122381D02*
X111998333Y-102646190D01*
X111760238Y-103122381D02*
X111760238Y-102122381D01*
X112141191Y-102122381D01*
X112236429Y-102170000D01*
X112284048Y-102217619D01*
X112331667Y-102312857D01*
X112331667Y-102455714D01*
X112284048Y-102550952D01*
X112236429Y-102598571D01*
X112141191Y-102646190D01*
X111760238Y-102646190D01*
X112760238Y-102598571D02*
X113093572Y-102598571D01*
X113236429Y-103122381D02*
X112760238Y-103122381D01*
X112760238Y-102122381D01*
X113236429Y-102122381D01*
X113998334Y-102598571D02*
X113665000Y-102598571D01*
X113665000Y-103122381D02*
X113665000Y-102122381D01*
X114141191Y-102122381D01*
X114665000Y-102122381D02*
X114665000Y-102360476D01*
X114426905Y-102265238D02*
X114665000Y-102360476D01*
X114903096Y-102265238D01*
X114522143Y-102550952D02*
X114665000Y-102360476D01*
X114807858Y-102550952D01*
X115426905Y-102122381D02*
X115426905Y-102360476D01*
X115188810Y-102265238D02*
X115426905Y-102360476D01*
X115665001Y-102265238D01*
X115284048Y-102550952D02*
X115426905Y-102360476D01*
X115569763Y-102550952D01*
X125887667Y-100376381D02*
X125554333Y-99900190D01*
X125316238Y-100376381D02*
X125316238Y-99376381D01*
X125697191Y-99376381D01*
X125792429Y-99424000D01*
X125840048Y-99471619D01*
X125887667Y-99566857D01*
X125887667Y-99709714D01*
X125840048Y-99804952D01*
X125792429Y-99852571D01*
X125697191Y-99900190D01*
X125316238Y-99900190D01*
X126316238Y-99852571D02*
X126649572Y-99852571D01*
X126792429Y-100376381D02*
X126316238Y-100376381D01*
X126316238Y-99376381D01*
X126792429Y-99376381D01*
X127554334Y-99852571D02*
X127221000Y-99852571D01*
X127221000Y-100376381D02*
X127221000Y-99376381D01*
X127697191Y-99376381D01*
X128221000Y-99376381D02*
X128221000Y-99614476D01*
X127982905Y-99519238D02*
X128221000Y-99614476D01*
X128459096Y-99519238D01*
X128078143Y-99804952D02*
X128221000Y-99614476D01*
X128363858Y-99804952D01*
X128982905Y-99376381D02*
X128982905Y-99614476D01*
X128744810Y-99519238D02*
X128982905Y-99614476D01*
X129221001Y-99519238D01*
X128840048Y-99804952D02*
X128982905Y-99614476D01*
X129125763Y-99804952D01*
X112331667Y-100122381D02*
X111998333Y-99646190D01*
X111760238Y-100122381D02*
X111760238Y-99122381D01*
X112141191Y-99122381D01*
X112236429Y-99170000D01*
X112284048Y-99217619D01*
X112331667Y-99312857D01*
X112331667Y-99455714D01*
X112284048Y-99550952D01*
X112236429Y-99598571D01*
X112141191Y-99646190D01*
X111760238Y-99646190D01*
X112760238Y-99598571D02*
X113093572Y-99598571D01*
X113236429Y-100122381D02*
X112760238Y-100122381D01*
X112760238Y-99122381D01*
X113236429Y-99122381D01*
X113998334Y-99598571D02*
X113665000Y-99598571D01*
X113665000Y-100122381D02*
X113665000Y-99122381D01*
X114141191Y-99122381D01*
X114665000Y-99122381D02*
X114665000Y-99360476D01*
X114426905Y-99265238D02*
X114665000Y-99360476D01*
X114903096Y-99265238D01*
X114522143Y-99550952D02*
X114665000Y-99360476D01*
X114807858Y-99550952D01*
X115426905Y-99122381D02*
X115426905Y-99360476D01*
X115188810Y-99265238D02*
X115426905Y-99360476D01*
X115665001Y-99265238D01*
X115284048Y-99550952D02*
X115426905Y-99360476D01*
X115569763Y-99550952D01*
X125887667Y-97376381D02*
X125554333Y-96900190D01*
X125316238Y-97376381D02*
X125316238Y-96376381D01*
X125697191Y-96376381D01*
X125792429Y-96424000D01*
X125840048Y-96471619D01*
X125887667Y-96566857D01*
X125887667Y-96709714D01*
X125840048Y-96804952D01*
X125792429Y-96852571D01*
X125697191Y-96900190D01*
X125316238Y-96900190D01*
X126316238Y-96852571D02*
X126649572Y-96852571D01*
X126792429Y-97376381D02*
X126316238Y-97376381D01*
X126316238Y-96376381D01*
X126792429Y-96376381D01*
X127554334Y-96852571D02*
X127221000Y-96852571D01*
X127221000Y-97376381D02*
X127221000Y-96376381D01*
X127697191Y-96376381D01*
X128221000Y-96376381D02*
X128221000Y-96614476D01*
X127982905Y-96519238D02*
X128221000Y-96614476D01*
X128459096Y-96519238D01*
X128078143Y-96804952D02*
X128221000Y-96614476D01*
X128363858Y-96804952D01*
X128982905Y-96376381D02*
X128982905Y-96614476D01*
X128744810Y-96519238D02*
X128982905Y-96614476D01*
X129221001Y-96519238D01*
X128840048Y-96804952D02*
X128982905Y-96614476D01*
X129125763Y-96804952D01*
X112331667Y-97122381D02*
X111998333Y-96646190D01*
X111760238Y-97122381D02*
X111760238Y-96122381D01*
X112141191Y-96122381D01*
X112236429Y-96170000D01*
X112284048Y-96217619D01*
X112331667Y-96312857D01*
X112331667Y-96455714D01*
X112284048Y-96550952D01*
X112236429Y-96598571D01*
X112141191Y-96646190D01*
X111760238Y-96646190D01*
X112760238Y-96598571D02*
X113093572Y-96598571D01*
X113236429Y-97122381D02*
X112760238Y-97122381D01*
X112760238Y-96122381D01*
X113236429Y-96122381D01*
X113998334Y-96598571D02*
X113665000Y-96598571D01*
X113665000Y-97122381D02*
X113665000Y-96122381D01*
X114141191Y-96122381D01*
X114665000Y-96122381D02*
X114665000Y-96360476D01*
X114426905Y-96265238D02*
X114665000Y-96360476D01*
X114903096Y-96265238D01*
X114522143Y-96550952D02*
X114665000Y-96360476D01*
X114807858Y-96550952D01*
X115426905Y-96122381D02*
X115426905Y-96360476D01*
X115188810Y-96265238D02*
X115426905Y-96360476D01*
X115665001Y-96265238D01*
X115284048Y-96550952D02*
X115426905Y-96360476D01*
X115569763Y-96550952D01*
X125887667Y-94376381D02*
X125554333Y-93900190D01*
X125316238Y-94376381D02*
X125316238Y-93376381D01*
X125697191Y-93376381D01*
X125792429Y-93424000D01*
X125840048Y-93471619D01*
X125887667Y-93566857D01*
X125887667Y-93709714D01*
X125840048Y-93804952D01*
X125792429Y-93852571D01*
X125697191Y-93900190D01*
X125316238Y-93900190D01*
X126316238Y-93852571D02*
X126649572Y-93852571D01*
X126792429Y-94376381D02*
X126316238Y-94376381D01*
X126316238Y-93376381D01*
X126792429Y-93376381D01*
X127554334Y-93852571D02*
X127221000Y-93852571D01*
X127221000Y-94376381D02*
X127221000Y-93376381D01*
X127697191Y-93376381D01*
X128221000Y-93376381D02*
X128221000Y-93614476D01*
X127982905Y-93519238D02*
X128221000Y-93614476D01*
X128459096Y-93519238D01*
X128078143Y-93804952D02*
X128221000Y-93614476D01*
X128363858Y-93804952D01*
X128982905Y-93376381D02*
X128982905Y-93614476D01*
X128744810Y-93519238D02*
X128982905Y-93614476D01*
X129221001Y-93519238D01*
X128840048Y-93804952D02*
X128982905Y-93614476D01*
X129125763Y-93804952D01*
X112331667Y-94122381D02*
X111998333Y-93646190D01*
X111760238Y-94122381D02*
X111760238Y-93122381D01*
X112141191Y-93122381D01*
X112236429Y-93170000D01*
X112284048Y-93217619D01*
X112331667Y-93312857D01*
X112331667Y-93455714D01*
X112284048Y-93550952D01*
X112236429Y-93598571D01*
X112141191Y-93646190D01*
X111760238Y-93646190D01*
X112760238Y-93598571D02*
X113093572Y-93598571D01*
X113236429Y-94122381D02*
X112760238Y-94122381D01*
X112760238Y-93122381D01*
X113236429Y-93122381D01*
X113998334Y-93598571D02*
X113665000Y-93598571D01*
X113665000Y-94122381D02*
X113665000Y-93122381D01*
X114141191Y-93122381D01*
X114665000Y-93122381D02*
X114665000Y-93360476D01*
X114426905Y-93265238D02*
X114665000Y-93360476D01*
X114903096Y-93265238D01*
X114522143Y-93550952D02*
X114665000Y-93360476D01*
X114807858Y-93550952D01*
X115426905Y-93122381D02*
X115426905Y-93360476D01*
X115188810Y-93265238D02*
X115426905Y-93360476D01*
X115665001Y-93265238D01*
X115284048Y-93550952D02*
X115426905Y-93360476D01*
X115569763Y-93550952D01*
X125887667Y-91376381D02*
X125554333Y-90900190D01*
X125316238Y-91376381D02*
X125316238Y-90376381D01*
X125697191Y-90376381D01*
X125792429Y-90424000D01*
X125840048Y-90471619D01*
X125887667Y-90566857D01*
X125887667Y-90709714D01*
X125840048Y-90804952D01*
X125792429Y-90852571D01*
X125697191Y-90900190D01*
X125316238Y-90900190D01*
X126316238Y-90852571D02*
X126649572Y-90852571D01*
X126792429Y-91376381D02*
X126316238Y-91376381D01*
X126316238Y-90376381D01*
X126792429Y-90376381D01*
X127554334Y-90852571D02*
X127221000Y-90852571D01*
X127221000Y-91376381D02*
X127221000Y-90376381D01*
X127697191Y-90376381D01*
X128221000Y-90376381D02*
X128221000Y-90614476D01*
X127982905Y-90519238D02*
X128221000Y-90614476D01*
X128459096Y-90519238D01*
X128078143Y-90804952D02*
X128221000Y-90614476D01*
X128363858Y-90804952D01*
X128982905Y-90376381D02*
X128982905Y-90614476D01*
X128744810Y-90519238D02*
X128982905Y-90614476D01*
X129221001Y-90519238D01*
X128840048Y-90804952D02*
X128982905Y-90614476D01*
X129125763Y-90804952D01*
X112331667Y-91122381D02*
X111998333Y-90646190D01*
X111760238Y-91122381D02*
X111760238Y-90122381D01*
X112141191Y-90122381D01*
X112236429Y-90170000D01*
X112284048Y-90217619D01*
X112331667Y-90312857D01*
X112331667Y-90455714D01*
X112284048Y-90550952D01*
X112236429Y-90598571D01*
X112141191Y-90646190D01*
X111760238Y-90646190D01*
X112760238Y-90598571D02*
X113093572Y-90598571D01*
X113236429Y-91122381D02*
X112760238Y-91122381D01*
X112760238Y-90122381D01*
X113236429Y-90122381D01*
X113998334Y-90598571D02*
X113665000Y-90598571D01*
X113665000Y-91122381D02*
X113665000Y-90122381D01*
X114141191Y-90122381D01*
X114665000Y-90122381D02*
X114665000Y-90360476D01*
X114426905Y-90265238D02*
X114665000Y-90360476D01*
X114903096Y-90265238D01*
X114522143Y-90550952D02*
X114665000Y-90360476D01*
X114807858Y-90550952D01*
X115426905Y-90122381D02*
X115426905Y-90360476D01*
X115188810Y-90265238D02*
X115426905Y-90360476D01*
X115665001Y-90265238D01*
X115284048Y-90550952D02*
X115426905Y-90360476D01*
X115569763Y-90550952D01*
X125887667Y-88376381D02*
X125554333Y-87900190D01*
X125316238Y-88376381D02*
X125316238Y-87376381D01*
X125697191Y-87376381D01*
X125792429Y-87424000D01*
X125840048Y-87471619D01*
X125887667Y-87566857D01*
X125887667Y-87709714D01*
X125840048Y-87804952D01*
X125792429Y-87852571D01*
X125697191Y-87900190D01*
X125316238Y-87900190D01*
X126316238Y-87852571D02*
X126649572Y-87852571D01*
X126792429Y-88376381D02*
X126316238Y-88376381D01*
X126316238Y-87376381D01*
X126792429Y-87376381D01*
X127554334Y-87852571D02*
X127221000Y-87852571D01*
X127221000Y-88376381D02*
X127221000Y-87376381D01*
X127697191Y-87376381D01*
X128221000Y-87376381D02*
X128221000Y-87614476D01*
X127982905Y-87519238D02*
X128221000Y-87614476D01*
X128459096Y-87519238D01*
X128078143Y-87804952D02*
X128221000Y-87614476D01*
X128363858Y-87804952D01*
X128982905Y-87376381D02*
X128982905Y-87614476D01*
X128744810Y-87519238D02*
X128982905Y-87614476D01*
X129221001Y-87519238D01*
X128840048Y-87804952D02*
X128982905Y-87614476D01*
X129125763Y-87804952D01*
X119062667Y-93756381D02*
X118729333Y-93280190D01*
X118491238Y-93756381D02*
X118491238Y-92756381D01*
X118872191Y-92756381D01*
X118967429Y-92804000D01*
X119015048Y-92851619D01*
X119062667Y-92946857D01*
X119062667Y-93089714D01*
X119015048Y-93184952D01*
X118967429Y-93232571D01*
X118872191Y-93280190D01*
X118491238Y-93280190D01*
X119491238Y-93232571D02*
X119824572Y-93232571D01*
X119967429Y-93756381D02*
X119491238Y-93756381D01*
X119491238Y-92756381D01*
X119967429Y-92756381D01*
X120729334Y-93232571D02*
X120396000Y-93232571D01*
X120396000Y-93756381D02*
X120396000Y-92756381D01*
X120872191Y-92756381D01*
X121396000Y-92756381D02*
X121396000Y-92994476D01*
X121157905Y-92899238D02*
X121396000Y-92994476D01*
X121634096Y-92899238D01*
X121253143Y-93184952D02*
X121396000Y-92994476D01*
X121538858Y-93184952D01*
X122157905Y-92756381D02*
X122157905Y-92994476D01*
X121919810Y-92899238D02*
X122157905Y-92994476D01*
X122396001Y-92899238D01*
X122015048Y-93184952D02*
X122157905Y-92994476D01*
X122300763Y-93184952D01*
X112331667Y-88122381D02*
X111998333Y-87646190D01*
X111760238Y-88122381D02*
X111760238Y-87122381D01*
X112141191Y-87122381D01*
X112236429Y-87170000D01*
X112284048Y-87217619D01*
X112331667Y-87312857D01*
X112331667Y-87455714D01*
X112284048Y-87550952D01*
X112236429Y-87598571D01*
X112141191Y-87646190D01*
X111760238Y-87646190D01*
X112760238Y-87598571D02*
X113093572Y-87598571D01*
X113236429Y-88122381D02*
X112760238Y-88122381D01*
X112760238Y-87122381D01*
X113236429Y-87122381D01*
X113998334Y-87598571D02*
X113665000Y-87598571D01*
X113665000Y-88122381D02*
X113665000Y-87122381D01*
X114141191Y-87122381D01*
X114665000Y-87122381D02*
X114665000Y-87360476D01*
X114426905Y-87265238D02*
X114665000Y-87360476D01*
X114903096Y-87265238D01*
X114522143Y-87550952D02*
X114665000Y-87360476D01*
X114807858Y-87550952D01*
X115426905Y-87122381D02*
X115426905Y-87360476D01*
X115188810Y-87265238D02*
X115426905Y-87360476D01*
X115665001Y-87265238D01*
X115284048Y-87550952D02*
X115426905Y-87360476D01*
X115569763Y-87550952D01*
M02*
