G04 #@! TF.FileFunction,Legend,Bot*
%FSLAX46Y46*%
G04 Gerber Fmt 4.6, Leading zero omitted, Abs format (unit mm)*
G04 Created by KiCad (PCBNEW 4.0.6-e0-6349~53~ubuntu16.04.1) date Wed Aug  9 14:44:26 2017*
%MOMM*%
%LPD*%
G01*
G04 APERTURE LIST*
%ADD10C,0.100000*%
%ADD11C,0.150000*%
G04 APERTURE END LIST*
D10*
D11*
X128849600Y-90534200D02*
G75*
G03X128849600Y-90534200I-1400000J0D01*
G01*
X128849600Y-96534200D02*
G75*
G03X128849600Y-96534200I-1400000J0D01*
G01*
X128849600Y-93534200D02*
G75*
G03X128849600Y-93534200I-1400000J0D01*
G01*
X115293600Y-93788200D02*
G75*
G03X115293600Y-93788200I-1400000J0D01*
G01*
X118549600Y-104729200D02*
X118549600Y-104704200D01*
X122699600Y-104729200D02*
X122699600Y-104614200D01*
X122699600Y-95829200D02*
X122699600Y-95944200D01*
X118549600Y-95829200D02*
X118549600Y-95944200D01*
X118549600Y-104729200D02*
X122699600Y-104729200D01*
X118549600Y-95829200D02*
X122699600Y-95829200D01*
X118549600Y-104704200D02*
X117174600Y-104704200D01*
X115293600Y-90788200D02*
G75*
G03X115293600Y-90788200I-1400000J0D01*
G01*
X152598600Y-90407200D02*
G75*
G03X152598600Y-90407200I-1400000J0D01*
G01*
X139042600Y-96661200D02*
G75*
G03X139042600Y-96661200I-1400000J0D01*
G01*
X139042600Y-93661200D02*
G75*
G03X139042600Y-93661200I-1400000J0D01*
G01*
X142298600Y-104602200D02*
X142298600Y-104577200D01*
X146448600Y-104602200D02*
X146448600Y-104487200D01*
X146448600Y-95702200D02*
X146448600Y-95817200D01*
X142298600Y-95702200D02*
X142298600Y-95817200D01*
X142298600Y-104602200D02*
X146448600Y-104602200D01*
X142298600Y-95702200D02*
X146448600Y-95702200D01*
X142298600Y-104577200D02*
X140923600Y-104577200D01*
X152598600Y-93407200D02*
G75*
G03X152598600Y-93407200I-1400000J0D01*
G01*
X139042600Y-90661200D02*
G75*
G03X139042600Y-90661200I-1400000J0D01*
G01*
X115293600Y-108788200D02*
G75*
G03X115293600Y-108788200I-1400000J0D01*
G01*
X115293600Y-102788200D02*
G75*
G03X115293600Y-102788200I-1400000J0D01*
G01*
X115293600Y-105788200D02*
G75*
G03X115293600Y-105788200I-1400000J0D01*
G01*
X115293600Y-96788200D02*
G75*
G03X115293600Y-96788200I-1400000J0D01*
G01*
X115293600Y-99788200D02*
G75*
G03X115293600Y-99788200I-1400000J0D01*
G01*
X152598600Y-108407200D02*
G75*
G03X152598600Y-108407200I-1400000J0D01*
G01*
X152598600Y-105407200D02*
G75*
G03X152598600Y-105407200I-1400000J0D01*
G01*
X152598600Y-102407200D02*
G75*
G03X152598600Y-102407200I-1400000J0D01*
G01*
X152598600Y-96407200D02*
G75*
G03X152598600Y-96407200I-1400000J0D01*
G01*
X152598600Y-99407200D02*
G75*
G03X152598600Y-99407200I-1400000J0D01*
G01*
X139042600Y-105661200D02*
G75*
G03X139042600Y-105661200I-1400000J0D01*
G01*
X128849600Y-102534200D02*
G75*
G03X128849600Y-102534200I-1400000J0D01*
G01*
X128849600Y-108534200D02*
G75*
G03X128849600Y-108534200I-1400000J0D01*
G01*
X139042600Y-108661200D02*
G75*
G03X139042600Y-108661200I-1400000J0D01*
G01*
X139042600Y-99661200D02*
G75*
G03X139042600Y-99661200I-1400000J0D01*
G01*
X128849600Y-105534200D02*
G75*
G03X128849600Y-105534200I-1400000J0D01*
G01*
X139042600Y-102661200D02*
G75*
G03X139042600Y-102661200I-1400000J0D01*
G01*
X128849600Y-99534200D02*
G75*
G03X128849600Y-99534200I-1400000J0D01*
G01*
X141790600Y-128859200D02*
X141790600Y-128834200D01*
X145940600Y-128859200D02*
X145940600Y-128744200D01*
X145940600Y-119959200D02*
X145940600Y-120074200D01*
X141790600Y-119959200D02*
X141790600Y-120074200D01*
X141790600Y-128859200D02*
X145940600Y-128859200D01*
X141790600Y-119959200D02*
X145940600Y-119959200D01*
X141790600Y-128834200D02*
X140415600Y-128834200D01*
X138534600Y-126918200D02*
G75*
G03X138534600Y-126918200I-1400000J0D01*
G01*
X138534600Y-117918200D02*
G75*
G03X138534600Y-117918200I-1400000J0D01*
G01*
X138534600Y-114918200D02*
G75*
G03X138534600Y-114918200I-1400000J0D01*
G01*
X138534600Y-120918200D02*
G75*
G03X138534600Y-120918200I-1400000J0D01*
G01*
X138534600Y-123918200D02*
G75*
G03X138534600Y-123918200I-1400000J0D01*
G01*
X138534600Y-129918200D02*
G75*
G03X138534600Y-129918200I-1400000J0D01*
G01*
X138534600Y-132918200D02*
G75*
G03X138534600Y-132918200I-1400000J0D01*
G01*
X128341600Y-118045200D02*
G75*
G03X128341600Y-118045200I-1400000J0D01*
G01*
X128341600Y-121045200D02*
G75*
G03X128341600Y-121045200I-1400000J0D01*
G01*
X128341600Y-124045200D02*
G75*
G03X128341600Y-124045200I-1400000J0D01*
G01*
X128341600Y-130045200D02*
G75*
G03X128341600Y-130045200I-1400000J0D01*
G01*
X128341600Y-115045200D02*
G75*
G03X128341600Y-115045200I-1400000J0D01*
G01*
X128341600Y-133045200D02*
G75*
G03X128341600Y-133045200I-1400000J0D01*
G01*
X128341600Y-127045200D02*
G75*
G03X128341600Y-127045200I-1400000J0D01*
G01*
X118041600Y-129240200D02*
X118041600Y-129215200D01*
X122191600Y-129240200D02*
X122191600Y-129125200D01*
X122191600Y-120340200D02*
X122191600Y-120455200D01*
X118041600Y-120340200D02*
X118041600Y-120455200D01*
X118041600Y-129240200D02*
X122191600Y-129240200D01*
X118041600Y-120340200D02*
X122191600Y-120340200D01*
X118041600Y-129215200D02*
X116666600Y-129215200D01*
X114785600Y-130299200D02*
G75*
G03X114785600Y-130299200I-1400000J0D01*
G01*
X114785600Y-124299200D02*
G75*
G03X114785600Y-124299200I-1400000J0D01*
G01*
X114785600Y-121299200D02*
G75*
G03X114785600Y-121299200I-1400000J0D01*
G01*
X114785600Y-115299200D02*
G75*
G03X114785600Y-115299200I-1400000J0D01*
G01*
X114785600Y-133299200D02*
G75*
G03X114785600Y-133299200I-1400000J0D01*
G01*
X114785600Y-118299200D02*
G75*
G03X114785600Y-118299200I-1400000J0D01*
G01*
X114785600Y-127299200D02*
G75*
G03X114785600Y-127299200I-1400000J0D01*
G01*
X152090600Y-129664200D02*
G75*
G03X152090600Y-129664200I-1400000J0D01*
G01*
X152090600Y-120664200D02*
G75*
G03X152090600Y-120664200I-1400000J0D01*
G01*
X152090600Y-114664200D02*
G75*
G03X152090600Y-114664200I-1400000J0D01*
G01*
X152090600Y-123664200D02*
G75*
G03X152090600Y-123664200I-1400000J0D01*
G01*
X152090600Y-132664200D02*
G75*
G03X152090600Y-132664200I-1400000J0D01*
G01*
X152090600Y-117664200D02*
G75*
G03X152090600Y-117664200I-1400000J0D01*
G01*
X152090600Y-126664200D02*
G75*
G03X152090600Y-126664200I-1400000J0D01*
G01*
X128782933Y-93486581D02*
X129116267Y-93010390D01*
X129354362Y-93486581D02*
X129354362Y-92486581D01*
X128973409Y-92486581D01*
X128878171Y-92534200D01*
X128830552Y-92581819D01*
X128782933Y-92677057D01*
X128782933Y-92819914D01*
X128830552Y-92915152D01*
X128878171Y-92962771D01*
X128973409Y-93010390D01*
X129354362Y-93010390D01*
X128354362Y-92962771D02*
X128021028Y-92962771D01*
X127878171Y-93486581D02*
X128354362Y-93486581D01*
X128354362Y-92486581D01*
X127878171Y-92486581D01*
X127116266Y-92962771D02*
X127449600Y-92962771D01*
X127449600Y-93486581D02*
X127449600Y-92486581D01*
X126973409Y-92486581D01*
X126449600Y-92486581D02*
X126449600Y-92724676D01*
X126687695Y-92629438D02*
X126449600Y-92724676D01*
X126211504Y-92629438D01*
X126592457Y-92915152D02*
X126449600Y-92724676D01*
X126306742Y-92915152D01*
X125687695Y-92486581D02*
X125687695Y-92724676D01*
X125925790Y-92629438D02*
X125687695Y-92724676D01*
X125449599Y-92629438D01*
X125830552Y-92915152D02*
X125687695Y-92724676D01*
X125544837Y-92915152D01*
X128782933Y-99486581D02*
X129116267Y-99010390D01*
X129354362Y-99486581D02*
X129354362Y-98486581D01*
X128973409Y-98486581D01*
X128878171Y-98534200D01*
X128830552Y-98581819D01*
X128782933Y-98677057D01*
X128782933Y-98819914D01*
X128830552Y-98915152D01*
X128878171Y-98962771D01*
X128973409Y-99010390D01*
X129354362Y-99010390D01*
X128354362Y-98962771D02*
X128021028Y-98962771D01*
X127878171Y-99486581D02*
X128354362Y-99486581D01*
X128354362Y-98486581D01*
X127878171Y-98486581D01*
X127116266Y-98962771D02*
X127449600Y-98962771D01*
X127449600Y-99486581D02*
X127449600Y-98486581D01*
X126973409Y-98486581D01*
X126449600Y-98486581D02*
X126449600Y-98724676D01*
X126687695Y-98629438D02*
X126449600Y-98724676D01*
X126211504Y-98629438D01*
X126592457Y-98915152D02*
X126449600Y-98724676D01*
X126306742Y-98915152D01*
X125687695Y-98486581D02*
X125687695Y-98724676D01*
X125925790Y-98629438D02*
X125687695Y-98724676D01*
X125449599Y-98629438D01*
X125830552Y-98915152D02*
X125687695Y-98724676D01*
X125544837Y-98915152D01*
X128782933Y-96486581D02*
X129116267Y-96010390D01*
X129354362Y-96486581D02*
X129354362Y-95486581D01*
X128973409Y-95486581D01*
X128878171Y-95534200D01*
X128830552Y-95581819D01*
X128782933Y-95677057D01*
X128782933Y-95819914D01*
X128830552Y-95915152D01*
X128878171Y-95962771D01*
X128973409Y-96010390D01*
X129354362Y-96010390D01*
X128354362Y-95962771D02*
X128021028Y-95962771D01*
X127878171Y-96486581D02*
X128354362Y-96486581D01*
X128354362Y-95486581D01*
X127878171Y-95486581D01*
X127116266Y-95962771D02*
X127449600Y-95962771D01*
X127449600Y-96486581D02*
X127449600Y-95486581D01*
X126973409Y-95486581D01*
X126449600Y-95486581D02*
X126449600Y-95724676D01*
X126687695Y-95629438D02*
X126449600Y-95724676D01*
X126211504Y-95629438D01*
X126592457Y-95915152D02*
X126449600Y-95724676D01*
X126306742Y-95915152D01*
X125687695Y-95486581D02*
X125687695Y-95724676D01*
X125925790Y-95629438D02*
X125687695Y-95724676D01*
X125449599Y-95629438D01*
X125830552Y-95915152D02*
X125687695Y-95724676D01*
X125544837Y-95915152D01*
X115226933Y-96740581D02*
X115560267Y-96264390D01*
X115798362Y-96740581D02*
X115798362Y-95740581D01*
X115417409Y-95740581D01*
X115322171Y-95788200D01*
X115274552Y-95835819D01*
X115226933Y-95931057D01*
X115226933Y-96073914D01*
X115274552Y-96169152D01*
X115322171Y-96216771D01*
X115417409Y-96264390D01*
X115798362Y-96264390D01*
X114798362Y-96216771D02*
X114465028Y-96216771D01*
X114322171Y-96740581D02*
X114798362Y-96740581D01*
X114798362Y-95740581D01*
X114322171Y-95740581D01*
X113560266Y-96216771D02*
X113893600Y-96216771D01*
X113893600Y-96740581D02*
X113893600Y-95740581D01*
X113417409Y-95740581D01*
X112893600Y-95740581D02*
X112893600Y-95978676D01*
X113131695Y-95883438D02*
X112893600Y-95978676D01*
X112655504Y-95883438D01*
X113036457Y-96169152D02*
X112893600Y-95978676D01*
X112750742Y-96169152D01*
X112131695Y-95740581D02*
X112131695Y-95978676D01*
X112369790Y-95883438D02*
X112131695Y-95978676D01*
X111893599Y-95883438D01*
X112274552Y-96169152D02*
X112131695Y-95978676D01*
X111988837Y-96169152D01*
X121957933Y-106106581D02*
X122291267Y-105630390D01*
X122529362Y-106106581D02*
X122529362Y-105106581D01*
X122148409Y-105106581D01*
X122053171Y-105154200D01*
X122005552Y-105201819D01*
X121957933Y-105297057D01*
X121957933Y-105439914D01*
X122005552Y-105535152D01*
X122053171Y-105582771D01*
X122148409Y-105630390D01*
X122529362Y-105630390D01*
X121529362Y-105582771D02*
X121196028Y-105582771D01*
X121053171Y-106106581D02*
X121529362Y-106106581D01*
X121529362Y-105106581D01*
X121053171Y-105106581D01*
X120291266Y-105582771D02*
X120624600Y-105582771D01*
X120624600Y-106106581D02*
X120624600Y-105106581D01*
X120148409Y-105106581D01*
X119624600Y-105106581D02*
X119624600Y-105344676D01*
X119862695Y-105249438D02*
X119624600Y-105344676D01*
X119386504Y-105249438D01*
X119767457Y-105535152D02*
X119624600Y-105344676D01*
X119481742Y-105535152D01*
X118862695Y-105106581D02*
X118862695Y-105344676D01*
X119100790Y-105249438D02*
X118862695Y-105344676D01*
X118624599Y-105249438D01*
X119005552Y-105535152D02*
X118862695Y-105344676D01*
X118719837Y-105535152D01*
X115226933Y-93740581D02*
X115560267Y-93264390D01*
X115798362Y-93740581D02*
X115798362Y-92740581D01*
X115417409Y-92740581D01*
X115322171Y-92788200D01*
X115274552Y-92835819D01*
X115226933Y-92931057D01*
X115226933Y-93073914D01*
X115274552Y-93169152D01*
X115322171Y-93216771D01*
X115417409Y-93264390D01*
X115798362Y-93264390D01*
X114798362Y-93216771D02*
X114465028Y-93216771D01*
X114322171Y-93740581D02*
X114798362Y-93740581D01*
X114798362Y-92740581D01*
X114322171Y-92740581D01*
X113560266Y-93216771D02*
X113893600Y-93216771D01*
X113893600Y-93740581D02*
X113893600Y-92740581D01*
X113417409Y-92740581D01*
X112893600Y-92740581D02*
X112893600Y-92978676D01*
X113131695Y-92883438D02*
X112893600Y-92978676D01*
X112655504Y-92883438D01*
X113036457Y-93169152D02*
X112893600Y-92978676D01*
X112750742Y-93169152D01*
X112131695Y-92740581D02*
X112131695Y-92978676D01*
X112369790Y-92883438D02*
X112131695Y-92978676D01*
X111893599Y-92883438D01*
X112274552Y-93169152D02*
X112131695Y-92978676D01*
X111988837Y-93169152D01*
X152531933Y-93359581D02*
X152865267Y-92883390D01*
X153103362Y-93359581D02*
X153103362Y-92359581D01*
X152722409Y-92359581D01*
X152627171Y-92407200D01*
X152579552Y-92454819D01*
X152531933Y-92550057D01*
X152531933Y-92692914D01*
X152579552Y-92788152D01*
X152627171Y-92835771D01*
X152722409Y-92883390D01*
X153103362Y-92883390D01*
X152103362Y-92835771D02*
X151770028Y-92835771D01*
X151627171Y-93359581D02*
X152103362Y-93359581D01*
X152103362Y-92359581D01*
X151627171Y-92359581D01*
X150865266Y-92835771D02*
X151198600Y-92835771D01*
X151198600Y-93359581D02*
X151198600Y-92359581D01*
X150722409Y-92359581D01*
X150198600Y-92359581D02*
X150198600Y-92597676D01*
X150436695Y-92502438D02*
X150198600Y-92597676D01*
X149960504Y-92502438D01*
X150341457Y-92788152D02*
X150198600Y-92597676D01*
X150055742Y-92788152D01*
X149436695Y-92359581D02*
X149436695Y-92597676D01*
X149674790Y-92502438D02*
X149436695Y-92597676D01*
X149198599Y-92502438D01*
X149579552Y-92788152D02*
X149436695Y-92597676D01*
X149293837Y-92788152D01*
X138975933Y-99613581D02*
X139309267Y-99137390D01*
X139547362Y-99613581D02*
X139547362Y-98613581D01*
X139166409Y-98613581D01*
X139071171Y-98661200D01*
X139023552Y-98708819D01*
X138975933Y-98804057D01*
X138975933Y-98946914D01*
X139023552Y-99042152D01*
X139071171Y-99089771D01*
X139166409Y-99137390D01*
X139547362Y-99137390D01*
X138547362Y-99089771D02*
X138214028Y-99089771D01*
X138071171Y-99613581D02*
X138547362Y-99613581D01*
X138547362Y-98613581D01*
X138071171Y-98613581D01*
X137309266Y-99089771D02*
X137642600Y-99089771D01*
X137642600Y-99613581D02*
X137642600Y-98613581D01*
X137166409Y-98613581D01*
X136642600Y-98613581D02*
X136642600Y-98851676D01*
X136880695Y-98756438D02*
X136642600Y-98851676D01*
X136404504Y-98756438D01*
X136785457Y-99042152D02*
X136642600Y-98851676D01*
X136499742Y-99042152D01*
X135880695Y-98613581D02*
X135880695Y-98851676D01*
X136118790Y-98756438D02*
X135880695Y-98851676D01*
X135642599Y-98756438D01*
X136023552Y-99042152D02*
X135880695Y-98851676D01*
X135737837Y-99042152D01*
X138975933Y-96613581D02*
X139309267Y-96137390D01*
X139547362Y-96613581D02*
X139547362Y-95613581D01*
X139166409Y-95613581D01*
X139071171Y-95661200D01*
X139023552Y-95708819D01*
X138975933Y-95804057D01*
X138975933Y-95946914D01*
X139023552Y-96042152D01*
X139071171Y-96089771D01*
X139166409Y-96137390D01*
X139547362Y-96137390D01*
X138547362Y-96089771D02*
X138214028Y-96089771D01*
X138071171Y-96613581D02*
X138547362Y-96613581D01*
X138547362Y-95613581D01*
X138071171Y-95613581D01*
X137309266Y-96089771D02*
X137642600Y-96089771D01*
X137642600Y-96613581D02*
X137642600Y-95613581D01*
X137166409Y-95613581D01*
X136642600Y-95613581D02*
X136642600Y-95851676D01*
X136880695Y-95756438D02*
X136642600Y-95851676D01*
X136404504Y-95756438D01*
X136785457Y-96042152D02*
X136642600Y-95851676D01*
X136499742Y-96042152D01*
X135880695Y-95613581D02*
X135880695Y-95851676D01*
X136118790Y-95756438D02*
X135880695Y-95851676D01*
X135642599Y-95756438D01*
X136023552Y-96042152D02*
X135880695Y-95851676D01*
X135737837Y-96042152D01*
X145706933Y-105979581D02*
X146040267Y-105503390D01*
X146278362Y-105979581D02*
X146278362Y-104979581D01*
X145897409Y-104979581D01*
X145802171Y-105027200D01*
X145754552Y-105074819D01*
X145706933Y-105170057D01*
X145706933Y-105312914D01*
X145754552Y-105408152D01*
X145802171Y-105455771D01*
X145897409Y-105503390D01*
X146278362Y-105503390D01*
X145278362Y-105455771D02*
X144945028Y-105455771D01*
X144802171Y-105979581D02*
X145278362Y-105979581D01*
X145278362Y-104979581D01*
X144802171Y-104979581D01*
X144040266Y-105455771D02*
X144373600Y-105455771D01*
X144373600Y-105979581D02*
X144373600Y-104979581D01*
X143897409Y-104979581D01*
X143373600Y-104979581D02*
X143373600Y-105217676D01*
X143611695Y-105122438D02*
X143373600Y-105217676D01*
X143135504Y-105122438D01*
X143516457Y-105408152D02*
X143373600Y-105217676D01*
X143230742Y-105408152D01*
X142611695Y-104979581D02*
X142611695Y-105217676D01*
X142849790Y-105122438D02*
X142611695Y-105217676D01*
X142373599Y-105122438D01*
X142754552Y-105408152D02*
X142611695Y-105217676D01*
X142468837Y-105408152D01*
X152531933Y-96359581D02*
X152865267Y-95883390D01*
X153103362Y-96359581D02*
X153103362Y-95359581D01*
X152722409Y-95359581D01*
X152627171Y-95407200D01*
X152579552Y-95454819D01*
X152531933Y-95550057D01*
X152531933Y-95692914D01*
X152579552Y-95788152D01*
X152627171Y-95835771D01*
X152722409Y-95883390D01*
X153103362Y-95883390D01*
X152103362Y-95835771D02*
X151770028Y-95835771D01*
X151627171Y-96359581D02*
X152103362Y-96359581D01*
X152103362Y-95359581D01*
X151627171Y-95359581D01*
X150865266Y-95835771D02*
X151198600Y-95835771D01*
X151198600Y-96359581D02*
X151198600Y-95359581D01*
X150722409Y-95359581D01*
X150198600Y-95359581D02*
X150198600Y-95597676D01*
X150436695Y-95502438D02*
X150198600Y-95597676D01*
X149960504Y-95502438D01*
X150341457Y-95788152D02*
X150198600Y-95597676D01*
X150055742Y-95788152D01*
X149436695Y-95359581D02*
X149436695Y-95597676D01*
X149674790Y-95502438D02*
X149436695Y-95597676D01*
X149198599Y-95502438D01*
X149579552Y-95788152D02*
X149436695Y-95597676D01*
X149293837Y-95788152D01*
X138975933Y-93613581D02*
X139309267Y-93137390D01*
X139547362Y-93613581D02*
X139547362Y-92613581D01*
X139166409Y-92613581D01*
X139071171Y-92661200D01*
X139023552Y-92708819D01*
X138975933Y-92804057D01*
X138975933Y-92946914D01*
X139023552Y-93042152D01*
X139071171Y-93089771D01*
X139166409Y-93137390D01*
X139547362Y-93137390D01*
X138547362Y-93089771D02*
X138214028Y-93089771D01*
X138071171Y-93613581D02*
X138547362Y-93613581D01*
X138547362Y-92613581D01*
X138071171Y-92613581D01*
X137309266Y-93089771D02*
X137642600Y-93089771D01*
X137642600Y-93613581D02*
X137642600Y-92613581D01*
X137166409Y-92613581D01*
X136642600Y-92613581D02*
X136642600Y-92851676D01*
X136880695Y-92756438D02*
X136642600Y-92851676D01*
X136404504Y-92756438D01*
X136785457Y-93042152D02*
X136642600Y-92851676D01*
X136499742Y-93042152D01*
X135880695Y-92613581D02*
X135880695Y-92851676D01*
X136118790Y-92756438D02*
X135880695Y-92851676D01*
X135642599Y-92756438D01*
X136023552Y-93042152D02*
X135880695Y-92851676D01*
X135737837Y-93042152D01*
X115226933Y-111740581D02*
X115560267Y-111264390D01*
X115798362Y-111740581D02*
X115798362Y-110740581D01*
X115417409Y-110740581D01*
X115322171Y-110788200D01*
X115274552Y-110835819D01*
X115226933Y-110931057D01*
X115226933Y-111073914D01*
X115274552Y-111169152D01*
X115322171Y-111216771D01*
X115417409Y-111264390D01*
X115798362Y-111264390D01*
X114798362Y-111216771D02*
X114465028Y-111216771D01*
X114322171Y-111740581D02*
X114798362Y-111740581D01*
X114798362Y-110740581D01*
X114322171Y-110740581D01*
X113560266Y-111216771D02*
X113893600Y-111216771D01*
X113893600Y-111740581D02*
X113893600Y-110740581D01*
X113417409Y-110740581D01*
X112893600Y-110740581D02*
X112893600Y-110978676D01*
X113131695Y-110883438D02*
X112893600Y-110978676D01*
X112655504Y-110883438D01*
X113036457Y-111169152D02*
X112893600Y-110978676D01*
X112750742Y-111169152D01*
X112131695Y-110740581D02*
X112131695Y-110978676D01*
X112369790Y-110883438D02*
X112131695Y-110978676D01*
X111893599Y-110883438D01*
X112274552Y-111169152D02*
X112131695Y-110978676D01*
X111988837Y-111169152D01*
X115226933Y-105740581D02*
X115560267Y-105264390D01*
X115798362Y-105740581D02*
X115798362Y-104740581D01*
X115417409Y-104740581D01*
X115322171Y-104788200D01*
X115274552Y-104835819D01*
X115226933Y-104931057D01*
X115226933Y-105073914D01*
X115274552Y-105169152D01*
X115322171Y-105216771D01*
X115417409Y-105264390D01*
X115798362Y-105264390D01*
X114798362Y-105216771D02*
X114465028Y-105216771D01*
X114322171Y-105740581D02*
X114798362Y-105740581D01*
X114798362Y-104740581D01*
X114322171Y-104740581D01*
X113560266Y-105216771D02*
X113893600Y-105216771D01*
X113893600Y-105740581D02*
X113893600Y-104740581D01*
X113417409Y-104740581D01*
X112893600Y-104740581D02*
X112893600Y-104978676D01*
X113131695Y-104883438D02*
X112893600Y-104978676D01*
X112655504Y-104883438D01*
X113036457Y-105169152D02*
X112893600Y-104978676D01*
X112750742Y-105169152D01*
X112131695Y-104740581D02*
X112131695Y-104978676D01*
X112369790Y-104883438D02*
X112131695Y-104978676D01*
X111893599Y-104883438D01*
X112274552Y-105169152D02*
X112131695Y-104978676D01*
X111988837Y-105169152D01*
X115226933Y-108740581D02*
X115560267Y-108264390D01*
X115798362Y-108740581D02*
X115798362Y-107740581D01*
X115417409Y-107740581D01*
X115322171Y-107788200D01*
X115274552Y-107835819D01*
X115226933Y-107931057D01*
X115226933Y-108073914D01*
X115274552Y-108169152D01*
X115322171Y-108216771D01*
X115417409Y-108264390D01*
X115798362Y-108264390D01*
X114798362Y-108216771D02*
X114465028Y-108216771D01*
X114322171Y-108740581D02*
X114798362Y-108740581D01*
X114798362Y-107740581D01*
X114322171Y-107740581D01*
X113560266Y-108216771D02*
X113893600Y-108216771D01*
X113893600Y-108740581D02*
X113893600Y-107740581D01*
X113417409Y-107740581D01*
X112893600Y-107740581D02*
X112893600Y-107978676D01*
X113131695Y-107883438D02*
X112893600Y-107978676D01*
X112655504Y-107883438D01*
X113036457Y-108169152D02*
X112893600Y-107978676D01*
X112750742Y-108169152D01*
X112131695Y-107740581D02*
X112131695Y-107978676D01*
X112369790Y-107883438D02*
X112131695Y-107978676D01*
X111893599Y-107883438D01*
X112274552Y-108169152D02*
X112131695Y-107978676D01*
X111988837Y-108169152D01*
X115226933Y-99740581D02*
X115560267Y-99264390D01*
X115798362Y-99740581D02*
X115798362Y-98740581D01*
X115417409Y-98740581D01*
X115322171Y-98788200D01*
X115274552Y-98835819D01*
X115226933Y-98931057D01*
X115226933Y-99073914D01*
X115274552Y-99169152D01*
X115322171Y-99216771D01*
X115417409Y-99264390D01*
X115798362Y-99264390D01*
X114798362Y-99216771D02*
X114465028Y-99216771D01*
X114322171Y-99740581D02*
X114798362Y-99740581D01*
X114798362Y-98740581D01*
X114322171Y-98740581D01*
X113560266Y-99216771D02*
X113893600Y-99216771D01*
X113893600Y-99740581D02*
X113893600Y-98740581D01*
X113417409Y-98740581D01*
X112893600Y-98740581D02*
X112893600Y-98978676D01*
X113131695Y-98883438D02*
X112893600Y-98978676D01*
X112655504Y-98883438D01*
X113036457Y-99169152D02*
X112893600Y-98978676D01*
X112750742Y-99169152D01*
X112131695Y-98740581D02*
X112131695Y-98978676D01*
X112369790Y-98883438D02*
X112131695Y-98978676D01*
X111893599Y-98883438D01*
X112274552Y-99169152D02*
X112131695Y-98978676D01*
X111988837Y-99169152D01*
X115226933Y-102740581D02*
X115560267Y-102264390D01*
X115798362Y-102740581D02*
X115798362Y-101740581D01*
X115417409Y-101740581D01*
X115322171Y-101788200D01*
X115274552Y-101835819D01*
X115226933Y-101931057D01*
X115226933Y-102073914D01*
X115274552Y-102169152D01*
X115322171Y-102216771D01*
X115417409Y-102264390D01*
X115798362Y-102264390D01*
X114798362Y-102216771D02*
X114465028Y-102216771D01*
X114322171Y-102740581D02*
X114798362Y-102740581D01*
X114798362Y-101740581D01*
X114322171Y-101740581D01*
X113560266Y-102216771D02*
X113893600Y-102216771D01*
X113893600Y-102740581D02*
X113893600Y-101740581D01*
X113417409Y-101740581D01*
X112893600Y-101740581D02*
X112893600Y-101978676D01*
X113131695Y-101883438D02*
X112893600Y-101978676D01*
X112655504Y-101883438D01*
X113036457Y-102169152D02*
X112893600Y-101978676D01*
X112750742Y-102169152D01*
X112131695Y-101740581D02*
X112131695Y-101978676D01*
X112369790Y-101883438D02*
X112131695Y-101978676D01*
X111893599Y-101883438D01*
X112274552Y-102169152D02*
X112131695Y-101978676D01*
X111988837Y-102169152D01*
X152531933Y-111359581D02*
X152865267Y-110883390D01*
X153103362Y-111359581D02*
X153103362Y-110359581D01*
X152722409Y-110359581D01*
X152627171Y-110407200D01*
X152579552Y-110454819D01*
X152531933Y-110550057D01*
X152531933Y-110692914D01*
X152579552Y-110788152D01*
X152627171Y-110835771D01*
X152722409Y-110883390D01*
X153103362Y-110883390D01*
X152103362Y-110835771D02*
X151770028Y-110835771D01*
X151627171Y-111359581D02*
X152103362Y-111359581D01*
X152103362Y-110359581D01*
X151627171Y-110359581D01*
X150865266Y-110835771D02*
X151198600Y-110835771D01*
X151198600Y-111359581D02*
X151198600Y-110359581D01*
X150722409Y-110359581D01*
X150198600Y-110359581D02*
X150198600Y-110597676D01*
X150436695Y-110502438D02*
X150198600Y-110597676D01*
X149960504Y-110502438D01*
X150341457Y-110788152D02*
X150198600Y-110597676D01*
X150055742Y-110788152D01*
X149436695Y-110359581D02*
X149436695Y-110597676D01*
X149674790Y-110502438D02*
X149436695Y-110597676D01*
X149198599Y-110502438D01*
X149579552Y-110788152D02*
X149436695Y-110597676D01*
X149293837Y-110788152D01*
X152531933Y-108359581D02*
X152865267Y-107883390D01*
X153103362Y-108359581D02*
X153103362Y-107359581D01*
X152722409Y-107359581D01*
X152627171Y-107407200D01*
X152579552Y-107454819D01*
X152531933Y-107550057D01*
X152531933Y-107692914D01*
X152579552Y-107788152D01*
X152627171Y-107835771D01*
X152722409Y-107883390D01*
X153103362Y-107883390D01*
X152103362Y-107835771D02*
X151770028Y-107835771D01*
X151627171Y-108359581D02*
X152103362Y-108359581D01*
X152103362Y-107359581D01*
X151627171Y-107359581D01*
X150865266Y-107835771D02*
X151198600Y-107835771D01*
X151198600Y-108359581D02*
X151198600Y-107359581D01*
X150722409Y-107359581D01*
X150198600Y-107359581D02*
X150198600Y-107597676D01*
X150436695Y-107502438D02*
X150198600Y-107597676D01*
X149960504Y-107502438D01*
X150341457Y-107788152D02*
X150198600Y-107597676D01*
X150055742Y-107788152D01*
X149436695Y-107359581D02*
X149436695Y-107597676D01*
X149674790Y-107502438D02*
X149436695Y-107597676D01*
X149198599Y-107502438D01*
X149579552Y-107788152D02*
X149436695Y-107597676D01*
X149293837Y-107788152D01*
X152531933Y-105359581D02*
X152865267Y-104883390D01*
X153103362Y-105359581D02*
X153103362Y-104359581D01*
X152722409Y-104359581D01*
X152627171Y-104407200D01*
X152579552Y-104454819D01*
X152531933Y-104550057D01*
X152531933Y-104692914D01*
X152579552Y-104788152D01*
X152627171Y-104835771D01*
X152722409Y-104883390D01*
X153103362Y-104883390D01*
X152103362Y-104835771D02*
X151770028Y-104835771D01*
X151627171Y-105359581D02*
X152103362Y-105359581D01*
X152103362Y-104359581D01*
X151627171Y-104359581D01*
X150865266Y-104835771D02*
X151198600Y-104835771D01*
X151198600Y-105359581D02*
X151198600Y-104359581D01*
X150722409Y-104359581D01*
X150198600Y-104359581D02*
X150198600Y-104597676D01*
X150436695Y-104502438D02*
X150198600Y-104597676D01*
X149960504Y-104502438D01*
X150341457Y-104788152D02*
X150198600Y-104597676D01*
X150055742Y-104788152D01*
X149436695Y-104359581D02*
X149436695Y-104597676D01*
X149674790Y-104502438D02*
X149436695Y-104597676D01*
X149198599Y-104502438D01*
X149579552Y-104788152D02*
X149436695Y-104597676D01*
X149293837Y-104788152D01*
X152531933Y-99359581D02*
X152865267Y-98883390D01*
X153103362Y-99359581D02*
X153103362Y-98359581D01*
X152722409Y-98359581D01*
X152627171Y-98407200D01*
X152579552Y-98454819D01*
X152531933Y-98550057D01*
X152531933Y-98692914D01*
X152579552Y-98788152D01*
X152627171Y-98835771D01*
X152722409Y-98883390D01*
X153103362Y-98883390D01*
X152103362Y-98835771D02*
X151770028Y-98835771D01*
X151627171Y-99359581D02*
X152103362Y-99359581D01*
X152103362Y-98359581D01*
X151627171Y-98359581D01*
X150865266Y-98835771D02*
X151198600Y-98835771D01*
X151198600Y-99359581D02*
X151198600Y-98359581D01*
X150722409Y-98359581D01*
X150198600Y-98359581D02*
X150198600Y-98597676D01*
X150436695Y-98502438D02*
X150198600Y-98597676D01*
X149960504Y-98502438D01*
X150341457Y-98788152D02*
X150198600Y-98597676D01*
X150055742Y-98788152D01*
X149436695Y-98359581D02*
X149436695Y-98597676D01*
X149674790Y-98502438D02*
X149436695Y-98597676D01*
X149198599Y-98502438D01*
X149579552Y-98788152D02*
X149436695Y-98597676D01*
X149293837Y-98788152D01*
X152531933Y-102359581D02*
X152865267Y-101883390D01*
X153103362Y-102359581D02*
X153103362Y-101359581D01*
X152722409Y-101359581D01*
X152627171Y-101407200D01*
X152579552Y-101454819D01*
X152531933Y-101550057D01*
X152531933Y-101692914D01*
X152579552Y-101788152D01*
X152627171Y-101835771D01*
X152722409Y-101883390D01*
X153103362Y-101883390D01*
X152103362Y-101835771D02*
X151770028Y-101835771D01*
X151627171Y-102359581D02*
X152103362Y-102359581D01*
X152103362Y-101359581D01*
X151627171Y-101359581D01*
X150865266Y-101835771D02*
X151198600Y-101835771D01*
X151198600Y-102359581D02*
X151198600Y-101359581D01*
X150722409Y-101359581D01*
X150198600Y-101359581D02*
X150198600Y-101597676D01*
X150436695Y-101502438D02*
X150198600Y-101597676D01*
X149960504Y-101502438D01*
X150341457Y-101788152D02*
X150198600Y-101597676D01*
X150055742Y-101788152D01*
X149436695Y-101359581D02*
X149436695Y-101597676D01*
X149674790Y-101502438D02*
X149436695Y-101597676D01*
X149198599Y-101502438D01*
X149579552Y-101788152D02*
X149436695Y-101597676D01*
X149293837Y-101788152D01*
X138975933Y-108613581D02*
X139309267Y-108137390D01*
X139547362Y-108613581D02*
X139547362Y-107613581D01*
X139166409Y-107613581D01*
X139071171Y-107661200D01*
X139023552Y-107708819D01*
X138975933Y-107804057D01*
X138975933Y-107946914D01*
X139023552Y-108042152D01*
X139071171Y-108089771D01*
X139166409Y-108137390D01*
X139547362Y-108137390D01*
X138547362Y-108089771D02*
X138214028Y-108089771D01*
X138071171Y-108613581D02*
X138547362Y-108613581D01*
X138547362Y-107613581D01*
X138071171Y-107613581D01*
X137309266Y-108089771D02*
X137642600Y-108089771D01*
X137642600Y-108613581D02*
X137642600Y-107613581D01*
X137166409Y-107613581D01*
X136642600Y-107613581D02*
X136642600Y-107851676D01*
X136880695Y-107756438D02*
X136642600Y-107851676D01*
X136404504Y-107756438D01*
X136785457Y-108042152D02*
X136642600Y-107851676D01*
X136499742Y-108042152D01*
X135880695Y-107613581D02*
X135880695Y-107851676D01*
X136118790Y-107756438D02*
X135880695Y-107851676D01*
X135642599Y-107756438D01*
X136023552Y-108042152D02*
X135880695Y-107851676D01*
X135737837Y-108042152D01*
X128782933Y-105486581D02*
X129116267Y-105010390D01*
X129354362Y-105486581D02*
X129354362Y-104486581D01*
X128973409Y-104486581D01*
X128878171Y-104534200D01*
X128830552Y-104581819D01*
X128782933Y-104677057D01*
X128782933Y-104819914D01*
X128830552Y-104915152D01*
X128878171Y-104962771D01*
X128973409Y-105010390D01*
X129354362Y-105010390D01*
X128354362Y-104962771D02*
X128021028Y-104962771D01*
X127878171Y-105486581D02*
X128354362Y-105486581D01*
X128354362Y-104486581D01*
X127878171Y-104486581D01*
X127116266Y-104962771D02*
X127449600Y-104962771D01*
X127449600Y-105486581D02*
X127449600Y-104486581D01*
X126973409Y-104486581D01*
X126449600Y-104486581D02*
X126449600Y-104724676D01*
X126687695Y-104629438D02*
X126449600Y-104724676D01*
X126211504Y-104629438D01*
X126592457Y-104915152D02*
X126449600Y-104724676D01*
X126306742Y-104915152D01*
X125687695Y-104486581D02*
X125687695Y-104724676D01*
X125925790Y-104629438D02*
X125687695Y-104724676D01*
X125449599Y-104629438D01*
X125830552Y-104915152D02*
X125687695Y-104724676D01*
X125544837Y-104915152D01*
X128782933Y-111486581D02*
X129116267Y-111010390D01*
X129354362Y-111486581D02*
X129354362Y-110486581D01*
X128973409Y-110486581D01*
X128878171Y-110534200D01*
X128830552Y-110581819D01*
X128782933Y-110677057D01*
X128782933Y-110819914D01*
X128830552Y-110915152D01*
X128878171Y-110962771D01*
X128973409Y-111010390D01*
X129354362Y-111010390D01*
X128354362Y-110962771D02*
X128021028Y-110962771D01*
X127878171Y-111486581D02*
X128354362Y-111486581D01*
X128354362Y-110486581D01*
X127878171Y-110486581D01*
X127116266Y-110962771D02*
X127449600Y-110962771D01*
X127449600Y-111486581D02*
X127449600Y-110486581D01*
X126973409Y-110486581D01*
X126449600Y-110486581D02*
X126449600Y-110724676D01*
X126687695Y-110629438D02*
X126449600Y-110724676D01*
X126211504Y-110629438D01*
X126592457Y-110915152D02*
X126449600Y-110724676D01*
X126306742Y-110915152D01*
X125687695Y-110486581D02*
X125687695Y-110724676D01*
X125925790Y-110629438D02*
X125687695Y-110724676D01*
X125449599Y-110629438D01*
X125830552Y-110915152D02*
X125687695Y-110724676D01*
X125544837Y-110915152D01*
X138975933Y-111613581D02*
X139309267Y-111137390D01*
X139547362Y-111613581D02*
X139547362Y-110613581D01*
X139166409Y-110613581D01*
X139071171Y-110661200D01*
X139023552Y-110708819D01*
X138975933Y-110804057D01*
X138975933Y-110946914D01*
X139023552Y-111042152D01*
X139071171Y-111089771D01*
X139166409Y-111137390D01*
X139547362Y-111137390D01*
X138547362Y-111089771D02*
X138214028Y-111089771D01*
X138071171Y-111613581D02*
X138547362Y-111613581D01*
X138547362Y-110613581D01*
X138071171Y-110613581D01*
X137309266Y-111089771D02*
X137642600Y-111089771D01*
X137642600Y-111613581D02*
X137642600Y-110613581D01*
X137166409Y-110613581D01*
X136642600Y-110613581D02*
X136642600Y-110851676D01*
X136880695Y-110756438D02*
X136642600Y-110851676D01*
X136404504Y-110756438D01*
X136785457Y-111042152D02*
X136642600Y-110851676D01*
X136499742Y-111042152D01*
X135880695Y-110613581D02*
X135880695Y-110851676D01*
X136118790Y-110756438D02*
X135880695Y-110851676D01*
X135642599Y-110756438D01*
X136023552Y-111042152D02*
X135880695Y-110851676D01*
X135737837Y-111042152D01*
X138975933Y-102613581D02*
X139309267Y-102137390D01*
X139547362Y-102613581D02*
X139547362Y-101613581D01*
X139166409Y-101613581D01*
X139071171Y-101661200D01*
X139023552Y-101708819D01*
X138975933Y-101804057D01*
X138975933Y-101946914D01*
X139023552Y-102042152D01*
X139071171Y-102089771D01*
X139166409Y-102137390D01*
X139547362Y-102137390D01*
X138547362Y-102089771D02*
X138214028Y-102089771D01*
X138071171Y-102613581D02*
X138547362Y-102613581D01*
X138547362Y-101613581D01*
X138071171Y-101613581D01*
X137309266Y-102089771D02*
X137642600Y-102089771D01*
X137642600Y-102613581D02*
X137642600Y-101613581D01*
X137166409Y-101613581D01*
X136642600Y-101613581D02*
X136642600Y-101851676D01*
X136880695Y-101756438D02*
X136642600Y-101851676D01*
X136404504Y-101756438D01*
X136785457Y-102042152D02*
X136642600Y-101851676D01*
X136499742Y-102042152D01*
X135880695Y-101613581D02*
X135880695Y-101851676D01*
X136118790Y-101756438D02*
X135880695Y-101851676D01*
X135642599Y-101756438D01*
X136023552Y-102042152D02*
X135880695Y-101851676D01*
X135737837Y-102042152D01*
X128782933Y-108486581D02*
X129116267Y-108010390D01*
X129354362Y-108486581D02*
X129354362Y-107486581D01*
X128973409Y-107486581D01*
X128878171Y-107534200D01*
X128830552Y-107581819D01*
X128782933Y-107677057D01*
X128782933Y-107819914D01*
X128830552Y-107915152D01*
X128878171Y-107962771D01*
X128973409Y-108010390D01*
X129354362Y-108010390D01*
X128354362Y-107962771D02*
X128021028Y-107962771D01*
X127878171Y-108486581D02*
X128354362Y-108486581D01*
X128354362Y-107486581D01*
X127878171Y-107486581D01*
X127116266Y-107962771D02*
X127449600Y-107962771D01*
X127449600Y-108486581D02*
X127449600Y-107486581D01*
X126973409Y-107486581D01*
X126449600Y-107486581D02*
X126449600Y-107724676D01*
X126687695Y-107629438D02*
X126449600Y-107724676D01*
X126211504Y-107629438D01*
X126592457Y-107915152D02*
X126449600Y-107724676D01*
X126306742Y-107915152D01*
X125687695Y-107486581D02*
X125687695Y-107724676D01*
X125925790Y-107629438D02*
X125687695Y-107724676D01*
X125449599Y-107629438D01*
X125830552Y-107915152D02*
X125687695Y-107724676D01*
X125544837Y-107915152D01*
X138975933Y-105613581D02*
X139309267Y-105137390D01*
X139547362Y-105613581D02*
X139547362Y-104613581D01*
X139166409Y-104613581D01*
X139071171Y-104661200D01*
X139023552Y-104708819D01*
X138975933Y-104804057D01*
X138975933Y-104946914D01*
X139023552Y-105042152D01*
X139071171Y-105089771D01*
X139166409Y-105137390D01*
X139547362Y-105137390D01*
X138547362Y-105089771D02*
X138214028Y-105089771D01*
X138071171Y-105613581D02*
X138547362Y-105613581D01*
X138547362Y-104613581D01*
X138071171Y-104613581D01*
X137309266Y-105089771D02*
X137642600Y-105089771D01*
X137642600Y-105613581D02*
X137642600Y-104613581D01*
X137166409Y-104613581D01*
X136642600Y-104613581D02*
X136642600Y-104851676D01*
X136880695Y-104756438D02*
X136642600Y-104851676D01*
X136404504Y-104756438D01*
X136785457Y-105042152D02*
X136642600Y-104851676D01*
X136499742Y-105042152D01*
X135880695Y-104613581D02*
X135880695Y-104851676D01*
X136118790Y-104756438D02*
X135880695Y-104851676D01*
X135642599Y-104756438D01*
X136023552Y-105042152D02*
X135880695Y-104851676D01*
X135737837Y-105042152D01*
X128782933Y-102486581D02*
X129116267Y-102010390D01*
X129354362Y-102486581D02*
X129354362Y-101486581D01*
X128973409Y-101486581D01*
X128878171Y-101534200D01*
X128830552Y-101581819D01*
X128782933Y-101677057D01*
X128782933Y-101819914D01*
X128830552Y-101915152D01*
X128878171Y-101962771D01*
X128973409Y-102010390D01*
X129354362Y-102010390D01*
X128354362Y-101962771D02*
X128021028Y-101962771D01*
X127878171Y-102486581D02*
X128354362Y-102486581D01*
X128354362Y-101486581D01*
X127878171Y-101486581D01*
X127116266Y-101962771D02*
X127449600Y-101962771D01*
X127449600Y-102486581D02*
X127449600Y-101486581D01*
X126973409Y-101486581D01*
X126449600Y-101486581D02*
X126449600Y-101724676D01*
X126687695Y-101629438D02*
X126449600Y-101724676D01*
X126211504Y-101629438D01*
X126592457Y-101915152D02*
X126449600Y-101724676D01*
X126306742Y-101915152D01*
X125687695Y-101486581D02*
X125687695Y-101724676D01*
X125925790Y-101629438D02*
X125687695Y-101724676D01*
X125449599Y-101629438D01*
X125830552Y-101915152D02*
X125687695Y-101724676D01*
X125544837Y-101915152D01*
X145198933Y-130236581D02*
X145532267Y-129760390D01*
X145770362Y-130236581D02*
X145770362Y-129236581D01*
X145389409Y-129236581D01*
X145294171Y-129284200D01*
X145246552Y-129331819D01*
X145198933Y-129427057D01*
X145198933Y-129569914D01*
X145246552Y-129665152D01*
X145294171Y-129712771D01*
X145389409Y-129760390D01*
X145770362Y-129760390D01*
X144770362Y-129712771D02*
X144437028Y-129712771D01*
X144294171Y-130236581D02*
X144770362Y-130236581D01*
X144770362Y-129236581D01*
X144294171Y-129236581D01*
X143532266Y-129712771D02*
X143865600Y-129712771D01*
X143865600Y-130236581D02*
X143865600Y-129236581D01*
X143389409Y-129236581D01*
X142865600Y-129236581D02*
X142865600Y-129474676D01*
X143103695Y-129379438D02*
X142865600Y-129474676D01*
X142627504Y-129379438D01*
X143008457Y-129665152D02*
X142865600Y-129474676D01*
X142722742Y-129665152D01*
X142103695Y-129236581D02*
X142103695Y-129474676D01*
X142341790Y-129379438D02*
X142103695Y-129474676D01*
X141865599Y-129379438D01*
X142246552Y-129665152D02*
X142103695Y-129474676D01*
X141960837Y-129665152D01*
X138467933Y-129870581D02*
X138801267Y-129394390D01*
X139039362Y-129870581D02*
X139039362Y-128870581D01*
X138658409Y-128870581D01*
X138563171Y-128918200D01*
X138515552Y-128965819D01*
X138467933Y-129061057D01*
X138467933Y-129203914D01*
X138515552Y-129299152D01*
X138563171Y-129346771D01*
X138658409Y-129394390D01*
X139039362Y-129394390D01*
X138039362Y-129346771D02*
X137706028Y-129346771D01*
X137563171Y-129870581D02*
X138039362Y-129870581D01*
X138039362Y-128870581D01*
X137563171Y-128870581D01*
X136801266Y-129346771D02*
X137134600Y-129346771D01*
X137134600Y-129870581D02*
X137134600Y-128870581D01*
X136658409Y-128870581D01*
X136134600Y-128870581D02*
X136134600Y-129108676D01*
X136372695Y-129013438D02*
X136134600Y-129108676D01*
X135896504Y-129013438D01*
X136277457Y-129299152D02*
X136134600Y-129108676D01*
X135991742Y-129299152D01*
X135372695Y-128870581D02*
X135372695Y-129108676D01*
X135610790Y-129013438D02*
X135372695Y-129108676D01*
X135134599Y-129013438D01*
X135515552Y-129299152D02*
X135372695Y-129108676D01*
X135229837Y-129299152D01*
X138467933Y-120870581D02*
X138801267Y-120394390D01*
X139039362Y-120870581D02*
X139039362Y-119870581D01*
X138658409Y-119870581D01*
X138563171Y-119918200D01*
X138515552Y-119965819D01*
X138467933Y-120061057D01*
X138467933Y-120203914D01*
X138515552Y-120299152D01*
X138563171Y-120346771D01*
X138658409Y-120394390D01*
X139039362Y-120394390D01*
X138039362Y-120346771D02*
X137706028Y-120346771D01*
X137563171Y-120870581D02*
X138039362Y-120870581D01*
X138039362Y-119870581D01*
X137563171Y-119870581D01*
X136801266Y-120346771D02*
X137134600Y-120346771D01*
X137134600Y-120870581D02*
X137134600Y-119870581D01*
X136658409Y-119870581D01*
X136134600Y-119870581D02*
X136134600Y-120108676D01*
X136372695Y-120013438D02*
X136134600Y-120108676D01*
X135896504Y-120013438D01*
X136277457Y-120299152D02*
X136134600Y-120108676D01*
X135991742Y-120299152D01*
X135372695Y-119870581D02*
X135372695Y-120108676D01*
X135610790Y-120013438D02*
X135372695Y-120108676D01*
X135134599Y-120013438D01*
X135515552Y-120299152D02*
X135372695Y-120108676D01*
X135229837Y-120299152D01*
X138467933Y-117870581D02*
X138801267Y-117394390D01*
X139039362Y-117870581D02*
X139039362Y-116870581D01*
X138658409Y-116870581D01*
X138563171Y-116918200D01*
X138515552Y-116965819D01*
X138467933Y-117061057D01*
X138467933Y-117203914D01*
X138515552Y-117299152D01*
X138563171Y-117346771D01*
X138658409Y-117394390D01*
X139039362Y-117394390D01*
X138039362Y-117346771D02*
X137706028Y-117346771D01*
X137563171Y-117870581D02*
X138039362Y-117870581D01*
X138039362Y-116870581D01*
X137563171Y-116870581D01*
X136801266Y-117346771D02*
X137134600Y-117346771D01*
X137134600Y-117870581D02*
X137134600Y-116870581D01*
X136658409Y-116870581D01*
X136134600Y-116870581D02*
X136134600Y-117108676D01*
X136372695Y-117013438D02*
X136134600Y-117108676D01*
X135896504Y-117013438D01*
X136277457Y-117299152D02*
X136134600Y-117108676D01*
X135991742Y-117299152D01*
X135372695Y-116870581D02*
X135372695Y-117108676D01*
X135610790Y-117013438D02*
X135372695Y-117108676D01*
X135134599Y-117013438D01*
X135515552Y-117299152D02*
X135372695Y-117108676D01*
X135229837Y-117299152D01*
X138467933Y-123870581D02*
X138801267Y-123394390D01*
X139039362Y-123870581D02*
X139039362Y-122870581D01*
X138658409Y-122870581D01*
X138563171Y-122918200D01*
X138515552Y-122965819D01*
X138467933Y-123061057D01*
X138467933Y-123203914D01*
X138515552Y-123299152D01*
X138563171Y-123346771D01*
X138658409Y-123394390D01*
X139039362Y-123394390D01*
X138039362Y-123346771D02*
X137706028Y-123346771D01*
X137563171Y-123870581D02*
X138039362Y-123870581D01*
X138039362Y-122870581D01*
X137563171Y-122870581D01*
X136801266Y-123346771D02*
X137134600Y-123346771D01*
X137134600Y-123870581D02*
X137134600Y-122870581D01*
X136658409Y-122870581D01*
X136134600Y-122870581D02*
X136134600Y-123108676D01*
X136372695Y-123013438D02*
X136134600Y-123108676D01*
X135896504Y-123013438D01*
X136277457Y-123299152D02*
X136134600Y-123108676D01*
X135991742Y-123299152D01*
X135372695Y-122870581D02*
X135372695Y-123108676D01*
X135610790Y-123013438D02*
X135372695Y-123108676D01*
X135134599Y-123013438D01*
X135515552Y-123299152D02*
X135372695Y-123108676D01*
X135229837Y-123299152D01*
X138467933Y-126870581D02*
X138801267Y-126394390D01*
X139039362Y-126870581D02*
X139039362Y-125870581D01*
X138658409Y-125870581D01*
X138563171Y-125918200D01*
X138515552Y-125965819D01*
X138467933Y-126061057D01*
X138467933Y-126203914D01*
X138515552Y-126299152D01*
X138563171Y-126346771D01*
X138658409Y-126394390D01*
X139039362Y-126394390D01*
X138039362Y-126346771D02*
X137706028Y-126346771D01*
X137563171Y-126870581D02*
X138039362Y-126870581D01*
X138039362Y-125870581D01*
X137563171Y-125870581D01*
X136801266Y-126346771D02*
X137134600Y-126346771D01*
X137134600Y-126870581D02*
X137134600Y-125870581D01*
X136658409Y-125870581D01*
X136134600Y-125870581D02*
X136134600Y-126108676D01*
X136372695Y-126013438D02*
X136134600Y-126108676D01*
X135896504Y-126013438D01*
X136277457Y-126299152D02*
X136134600Y-126108676D01*
X135991742Y-126299152D01*
X135372695Y-125870581D02*
X135372695Y-126108676D01*
X135610790Y-126013438D02*
X135372695Y-126108676D01*
X135134599Y-126013438D01*
X135515552Y-126299152D02*
X135372695Y-126108676D01*
X135229837Y-126299152D01*
X138467933Y-132870581D02*
X138801267Y-132394390D01*
X139039362Y-132870581D02*
X139039362Y-131870581D01*
X138658409Y-131870581D01*
X138563171Y-131918200D01*
X138515552Y-131965819D01*
X138467933Y-132061057D01*
X138467933Y-132203914D01*
X138515552Y-132299152D01*
X138563171Y-132346771D01*
X138658409Y-132394390D01*
X139039362Y-132394390D01*
X138039362Y-132346771D02*
X137706028Y-132346771D01*
X137563171Y-132870581D02*
X138039362Y-132870581D01*
X138039362Y-131870581D01*
X137563171Y-131870581D01*
X136801266Y-132346771D02*
X137134600Y-132346771D01*
X137134600Y-132870581D02*
X137134600Y-131870581D01*
X136658409Y-131870581D01*
X136134600Y-131870581D02*
X136134600Y-132108676D01*
X136372695Y-132013438D02*
X136134600Y-132108676D01*
X135896504Y-132013438D01*
X136277457Y-132299152D02*
X136134600Y-132108676D01*
X135991742Y-132299152D01*
X135372695Y-131870581D02*
X135372695Y-132108676D01*
X135610790Y-132013438D02*
X135372695Y-132108676D01*
X135134599Y-132013438D01*
X135515552Y-132299152D02*
X135372695Y-132108676D01*
X135229837Y-132299152D01*
X138467933Y-135870581D02*
X138801267Y-135394390D01*
X139039362Y-135870581D02*
X139039362Y-134870581D01*
X138658409Y-134870581D01*
X138563171Y-134918200D01*
X138515552Y-134965819D01*
X138467933Y-135061057D01*
X138467933Y-135203914D01*
X138515552Y-135299152D01*
X138563171Y-135346771D01*
X138658409Y-135394390D01*
X139039362Y-135394390D01*
X138039362Y-135346771D02*
X137706028Y-135346771D01*
X137563171Y-135870581D02*
X138039362Y-135870581D01*
X138039362Y-134870581D01*
X137563171Y-134870581D01*
X136801266Y-135346771D02*
X137134600Y-135346771D01*
X137134600Y-135870581D02*
X137134600Y-134870581D01*
X136658409Y-134870581D01*
X136134600Y-134870581D02*
X136134600Y-135108676D01*
X136372695Y-135013438D02*
X136134600Y-135108676D01*
X135896504Y-135013438D01*
X136277457Y-135299152D02*
X136134600Y-135108676D01*
X135991742Y-135299152D01*
X135372695Y-134870581D02*
X135372695Y-135108676D01*
X135610790Y-135013438D02*
X135372695Y-135108676D01*
X135134599Y-135013438D01*
X135515552Y-135299152D02*
X135372695Y-135108676D01*
X135229837Y-135299152D01*
X128274933Y-120997581D02*
X128608267Y-120521390D01*
X128846362Y-120997581D02*
X128846362Y-119997581D01*
X128465409Y-119997581D01*
X128370171Y-120045200D01*
X128322552Y-120092819D01*
X128274933Y-120188057D01*
X128274933Y-120330914D01*
X128322552Y-120426152D01*
X128370171Y-120473771D01*
X128465409Y-120521390D01*
X128846362Y-120521390D01*
X127846362Y-120473771D02*
X127513028Y-120473771D01*
X127370171Y-120997581D02*
X127846362Y-120997581D01*
X127846362Y-119997581D01*
X127370171Y-119997581D01*
X126608266Y-120473771D02*
X126941600Y-120473771D01*
X126941600Y-120997581D02*
X126941600Y-119997581D01*
X126465409Y-119997581D01*
X125941600Y-119997581D02*
X125941600Y-120235676D01*
X126179695Y-120140438D02*
X125941600Y-120235676D01*
X125703504Y-120140438D01*
X126084457Y-120426152D02*
X125941600Y-120235676D01*
X125798742Y-120426152D01*
X125179695Y-119997581D02*
X125179695Y-120235676D01*
X125417790Y-120140438D02*
X125179695Y-120235676D01*
X124941599Y-120140438D01*
X125322552Y-120426152D02*
X125179695Y-120235676D01*
X125036837Y-120426152D01*
X128274933Y-123997581D02*
X128608267Y-123521390D01*
X128846362Y-123997581D02*
X128846362Y-122997581D01*
X128465409Y-122997581D01*
X128370171Y-123045200D01*
X128322552Y-123092819D01*
X128274933Y-123188057D01*
X128274933Y-123330914D01*
X128322552Y-123426152D01*
X128370171Y-123473771D01*
X128465409Y-123521390D01*
X128846362Y-123521390D01*
X127846362Y-123473771D02*
X127513028Y-123473771D01*
X127370171Y-123997581D02*
X127846362Y-123997581D01*
X127846362Y-122997581D01*
X127370171Y-122997581D01*
X126608266Y-123473771D02*
X126941600Y-123473771D01*
X126941600Y-123997581D02*
X126941600Y-122997581D01*
X126465409Y-122997581D01*
X125941600Y-122997581D02*
X125941600Y-123235676D01*
X126179695Y-123140438D02*
X125941600Y-123235676D01*
X125703504Y-123140438D01*
X126084457Y-123426152D02*
X125941600Y-123235676D01*
X125798742Y-123426152D01*
X125179695Y-122997581D02*
X125179695Y-123235676D01*
X125417790Y-123140438D02*
X125179695Y-123235676D01*
X124941599Y-123140438D01*
X125322552Y-123426152D02*
X125179695Y-123235676D01*
X125036837Y-123426152D01*
X128274933Y-126997581D02*
X128608267Y-126521390D01*
X128846362Y-126997581D02*
X128846362Y-125997581D01*
X128465409Y-125997581D01*
X128370171Y-126045200D01*
X128322552Y-126092819D01*
X128274933Y-126188057D01*
X128274933Y-126330914D01*
X128322552Y-126426152D01*
X128370171Y-126473771D01*
X128465409Y-126521390D01*
X128846362Y-126521390D01*
X127846362Y-126473771D02*
X127513028Y-126473771D01*
X127370171Y-126997581D02*
X127846362Y-126997581D01*
X127846362Y-125997581D01*
X127370171Y-125997581D01*
X126608266Y-126473771D02*
X126941600Y-126473771D01*
X126941600Y-126997581D02*
X126941600Y-125997581D01*
X126465409Y-125997581D01*
X125941600Y-125997581D02*
X125941600Y-126235676D01*
X126179695Y-126140438D02*
X125941600Y-126235676D01*
X125703504Y-126140438D01*
X126084457Y-126426152D02*
X125941600Y-126235676D01*
X125798742Y-126426152D01*
X125179695Y-125997581D02*
X125179695Y-126235676D01*
X125417790Y-126140438D02*
X125179695Y-126235676D01*
X124941599Y-126140438D01*
X125322552Y-126426152D02*
X125179695Y-126235676D01*
X125036837Y-126426152D01*
X128274933Y-132997581D02*
X128608267Y-132521390D01*
X128846362Y-132997581D02*
X128846362Y-131997581D01*
X128465409Y-131997581D01*
X128370171Y-132045200D01*
X128322552Y-132092819D01*
X128274933Y-132188057D01*
X128274933Y-132330914D01*
X128322552Y-132426152D01*
X128370171Y-132473771D01*
X128465409Y-132521390D01*
X128846362Y-132521390D01*
X127846362Y-132473771D02*
X127513028Y-132473771D01*
X127370171Y-132997581D02*
X127846362Y-132997581D01*
X127846362Y-131997581D01*
X127370171Y-131997581D01*
X126608266Y-132473771D02*
X126941600Y-132473771D01*
X126941600Y-132997581D02*
X126941600Y-131997581D01*
X126465409Y-131997581D01*
X125941600Y-131997581D02*
X125941600Y-132235676D01*
X126179695Y-132140438D02*
X125941600Y-132235676D01*
X125703504Y-132140438D01*
X126084457Y-132426152D02*
X125941600Y-132235676D01*
X125798742Y-132426152D01*
X125179695Y-131997581D02*
X125179695Y-132235676D01*
X125417790Y-132140438D02*
X125179695Y-132235676D01*
X124941599Y-132140438D01*
X125322552Y-132426152D02*
X125179695Y-132235676D01*
X125036837Y-132426152D01*
X128274933Y-117997581D02*
X128608267Y-117521390D01*
X128846362Y-117997581D02*
X128846362Y-116997581D01*
X128465409Y-116997581D01*
X128370171Y-117045200D01*
X128322552Y-117092819D01*
X128274933Y-117188057D01*
X128274933Y-117330914D01*
X128322552Y-117426152D01*
X128370171Y-117473771D01*
X128465409Y-117521390D01*
X128846362Y-117521390D01*
X127846362Y-117473771D02*
X127513028Y-117473771D01*
X127370171Y-117997581D02*
X127846362Y-117997581D01*
X127846362Y-116997581D01*
X127370171Y-116997581D01*
X126608266Y-117473771D02*
X126941600Y-117473771D01*
X126941600Y-117997581D02*
X126941600Y-116997581D01*
X126465409Y-116997581D01*
X125941600Y-116997581D02*
X125941600Y-117235676D01*
X126179695Y-117140438D02*
X125941600Y-117235676D01*
X125703504Y-117140438D01*
X126084457Y-117426152D02*
X125941600Y-117235676D01*
X125798742Y-117426152D01*
X125179695Y-116997581D02*
X125179695Y-117235676D01*
X125417790Y-117140438D02*
X125179695Y-117235676D01*
X124941599Y-117140438D01*
X125322552Y-117426152D02*
X125179695Y-117235676D01*
X125036837Y-117426152D01*
X128274933Y-135997581D02*
X128608267Y-135521390D01*
X128846362Y-135997581D02*
X128846362Y-134997581D01*
X128465409Y-134997581D01*
X128370171Y-135045200D01*
X128322552Y-135092819D01*
X128274933Y-135188057D01*
X128274933Y-135330914D01*
X128322552Y-135426152D01*
X128370171Y-135473771D01*
X128465409Y-135521390D01*
X128846362Y-135521390D01*
X127846362Y-135473771D02*
X127513028Y-135473771D01*
X127370171Y-135997581D02*
X127846362Y-135997581D01*
X127846362Y-134997581D01*
X127370171Y-134997581D01*
X126608266Y-135473771D02*
X126941600Y-135473771D01*
X126941600Y-135997581D02*
X126941600Y-134997581D01*
X126465409Y-134997581D01*
X125941600Y-134997581D02*
X125941600Y-135235676D01*
X126179695Y-135140438D02*
X125941600Y-135235676D01*
X125703504Y-135140438D01*
X126084457Y-135426152D02*
X125941600Y-135235676D01*
X125798742Y-135426152D01*
X125179695Y-134997581D02*
X125179695Y-135235676D01*
X125417790Y-135140438D02*
X125179695Y-135235676D01*
X124941599Y-135140438D01*
X125322552Y-135426152D02*
X125179695Y-135235676D01*
X125036837Y-135426152D01*
X128274933Y-129997581D02*
X128608267Y-129521390D01*
X128846362Y-129997581D02*
X128846362Y-128997581D01*
X128465409Y-128997581D01*
X128370171Y-129045200D01*
X128322552Y-129092819D01*
X128274933Y-129188057D01*
X128274933Y-129330914D01*
X128322552Y-129426152D01*
X128370171Y-129473771D01*
X128465409Y-129521390D01*
X128846362Y-129521390D01*
X127846362Y-129473771D02*
X127513028Y-129473771D01*
X127370171Y-129997581D02*
X127846362Y-129997581D01*
X127846362Y-128997581D01*
X127370171Y-128997581D01*
X126608266Y-129473771D02*
X126941600Y-129473771D01*
X126941600Y-129997581D02*
X126941600Y-128997581D01*
X126465409Y-128997581D01*
X125941600Y-128997581D02*
X125941600Y-129235676D01*
X126179695Y-129140438D02*
X125941600Y-129235676D01*
X125703504Y-129140438D01*
X126084457Y-129426152D02*
X125941600Y-129235676D01*
X125798742Y-129426152D01*
X125179695Y-128997581D02*
X125179695Y-129235676D01*
X125417790Y-129140438D02*
X125179695Y-129235676D01*
X124941599Y-129140438D01*
X125322552Y-129426152D02*
X125179695Y-129235676D01*
X125036837Y-129426152D01*
X121449933Y-130617581D02*
X121783267Y-130141390D01*
X122021362Y-130617581D02*
X122021362Y-129617581D01*
X121640409Y-129617581D01*
X121545171Y-129665200D01*
X121497552Y-129712819D01*
X121449933Y-129808057D01*
X121449933Y-129950914D01*
X121497552Y-130046152D01*
X121545171Y-130093771D01*
X121640409Y-130141390D01*
X122021362Y-130141390D01*
X121021362Y-130093771D02*
X120688028Y-130093771D01*
X120545171Y-130617581D02*
X121021362Y-130617581D01*
X121021362Y-129617581D01*
X120545171Y-129617581D01*
X119783266Y-130093771D02*
X120116600Y-130093771D01*
X120116600Y-130617581D02*
X120116600Y-129617581D01*
X119640409Y-129617581D01*
X119116600Y-129617581D02*
X119116600Y-129855676D01*
X119354695Y-129760438D02*
X119116600Y-129855676D01*
X118878504Y-129760438D01*
X119259457Y-130046152D02*
X119116600Y-129855676D01*
X118973742Y-130046152D01*
X118354695Y-129617581D02*
X118354695Y-129855676D01*
X118592790Y-129760438D02*
X118354695Y-129855676D01*
X118116599Y-129760438D01*
X118497552Y-130046152D02*
X118354695Y-129855676D01*
X118211837Y-130046152D01*
X114718933Y-133251581D02*
X115052267Y-132775390D01*
X115290362Y-133251581D02*
X115290362Y-132251581D01*
X114909409Y-132251581D01*
X114814171Y-132299200D01*
X114766552Y-132346819D01*
X114718933Y-132442057D01*
X114718933Y-132584914D01*
X114766552Y-132680152D01*
X114814171Y-132727771D01*
X114909409Y-132775390D01*
X115290362Y-132775390D01*
X114290362Y-132727771D02*
X113957028Y-132727771D01*
X113814171Y-133251581D02*
X114290362Y-133251581D01*
X114290362Y-132251581D01*
X113814171Y-132251581D01*
X113052266Y-132727771D02*
X113385600Y-132727771D01*
X113385600Y-133251581D02*
X113385600Y-132251581D01*
X112909409Y-132251581D01*
X112385600Y-132251581D02*
X112385600Y-132489676D01*
X112623695Y-132394438D02*
X112385600Y-132489676D01*
X112147504Y-132394438D01*
X112528457Y-132680152D02*
X112385600Y-132489676D01*
X112242742Y-132680152D01*
X111623695Y-132251581D02*
X111623695Y-132489676D01*
X111861790Y-132394438D02*
X111623695Y-132489676D01*
X111385599Y-132394438D01*
X111766552Y-132680152D02*
X111623695Y-132489676D01*
X111480837Y-132680152D01*
X114718933Y-127251581D02*
X115052267Y-126775390D01*
X115290362Y-127251581D02*
X115290362Y-126251581D01*
X114909409Y-126251581D01*
X114814171Y-126299200D01*
X114766552Y-126346819D01*
X114718933Y-126442057D01*
X114718933Y-126584914D01*
X114766552Y-126680152D01*
X114814171Y-126727771D01*
X114909409Y-126775390D01*
X115290362Y-126775390D01*
X114290362Y-126727771D02*
X113957028Y-126727771D01*
X113814171Y-127251581D02*
X114290362Y-127251581D01*
X114290362Y-126251581D01*
X113814171Y-126251581D01*
X113052266Y-126727771D02*
X113385600Y-126727771D01*
X113385600Y-127251581D02*
X113385600Y-126251581D01*
X112909409Y-126251581D01*
X112385600Y-126251581D02*
X112385600Y-126489676D01*
X112623695Y-126394438D02*
X112385600Y-126489676D01*
X112147504Y-126394438D01*
X112528457Y-126680152D02*
X112385600Y-126489676D01*
X112242742Y-126680152D01*
X111623695Y-126251581D02*
X111623695Y-126489676D01*
X111861790Y-126394438D02*
X111623695Y-126489676D01*
X111385599Y-126394438D01*
X111766552Y-126680152D02*
X111623695Y-126489676D01*
X111480837Y-126680152D01*
X114718933Y-124251581D02*
X115052267Y-123775390D01*
X115290362Y-124251581D02*
X115290362Y-123251581D01*
X114909409Y-123251581D01*
X114814171Y-123299200D01*
X114766552Y-123346819D01*
X114718933Y-123442057D01*
X114718933Y-123584914D01*
X114766552Y-123680152D01*
X114814171Y-123727771D01*
X114909409Y-123775390D01*
X115290362Y-123775390D01*
X114290362Y-123727771D02*
X113957028Y-123727771D01*
X113814171Y-124251581D02*
X114290362Y-124251581D01*
X114290362Y-123251581D01*
X113814171Y-123251581D01*
X113052266Y-123727771D02*
X113385600Y-123727771D01*
X113385600Y-124251581D02*
X113385600Y-123251581D01*
X112909409Y-123251581D01*
X112385600Y-123251581D02*
X112385600Y-123489676D01*
X112623695Y-123394438D02*
X112385600Y-123489676D01*
X112147504Y-123394438D01*
X112528457Y-123680152D02*
X112385600Y-123489676D01*
X112242742Y-123680152D01*
X111623695Y-123251581D02*
X111623695Y-123489676D01*
X111861790Y-123394438D02*
X111623695Y-123489676D01*
X111385599Y-123394438D01*
X111766552Y-123680152D02*
X111623695Y-123489676D01*
X111480837Y-123680152D01*
X114718933Y-118251581D02*
X115052267Y-117775390D01*
X115290362Y-118251581D02*
X115290362Y-117251581D01*
X114909409Y-117251581D01*
X114814171Y-117299200D01*
X114766552Y-117346819D01*
X114718933Y-117442057D01*
X114718933Y-117584914D01*
X114766552Y-117680152D01*
X114814171Y-117727771D01*
X114909409Y-117775390D01*
X115290362Y-117775390D01*
X114290362Y-117727771D02*
X113957028Y-117727771D01*
X113814171Y-118251581D02*
X114290362Y-118251581D01*
X114290362Y-117251581D01*
X113814171Y-117251581D01*
X113052266Y-117727771D02*
X113385600Y-117727771D01*
X113385600Y-118251581D02*
X113385600Y-117251581D01*
X112909409Y-117251581D01*
X112385600Y-117251581D02*
X112385600Y-117489676D01*
X112623695Y-117394438D02*
X112385600Y-117489676D01*
X112147504Y-117394438D01*
X112528457Y-117680152D02*
X112385600Y-117489676D01*
X112242742Y-117680152D01*
X111623695Y-117251581D02*
X111623695Y-117489676D01*
X111861790Y-117394438D02*
X111623695Y-117489676D01*
X111385599Y-117394438D01*
X111766552Y-117680152D02*
X111623695Y-117489676D01*
X111480837Y-117680152D01*
X114718933Y-136251581D02*
X115052267Y-135775390D01*
X115290362Y-136251581D02*
X115290362Y-135251581D01*
X114909409Y-135251581D01*
X114814171Y-135299200D01*
X114766552Y-135346819D01*
X114718933Y-135442057D01*
X114718933Y-135584914D01*
X114766552Y-135680152D01*
X114814171Y-135727771D01*
X114909409Y-135775390D01*
X115290362Y-135775390D01*
X114290362Y-135727771D02*
X113957028Y-135727771D01*
X113814171Y-136251581D02*
X114290362Y-136251581D01*
X114290362Y-135251581D01*
X113814171Y-135251581D01*
X113052266Y-135727771D02*
X113385600Y-135727771D01*
X113385600Y-136251581D02*
X113385600Y-135251581D01*
X112909409Y-135251581D01*
X112385600Y-135251581D02*
X112385600Y-135489676D01*
X112623695Y-135394438D02*
X112385600Y-135489676D01*
X112147504Y-135394438D01*
X112528457Y-135680152D02*
X112385600Y-135489676D01*
X112242742Y-135680152D01*
X111623695Y-135251581D02*
X111623695Y-135489676D01*
X111861790Y-135394438D02*
X111623695Y-135489676D01*
X111385599Y-135394438D01*
X111766552Y-135680152D02*
X111623695Y-135489676D01*
X111480837Y-135680152D01*
X114718933Y-121251581D02*
X115052267Y-120775390D01*
X115290362Y-121251581D02*
X115290362Y-120251581D01*
X114909409Y-120251581D01*
X114814171Y-120299200D01*
X114766552Y-120346819D01*
X114718933Y-120442057D01*
X114718933Y-120584914D01*
X114766552Y-120680152D01*
X114814171Y-120727771D01*
X114909409Y-120775390D01*
X115290362Y-120775390D01*
X114290362Y-120727771D02*
X113957028Y-120727771D01*
X113814171Y-121251581D02*
X114290362Y-121251581D01*
X114290362Y-120251581D01*
X113814171Y-120251581D01*
X113052266Y-120727771D02*
X113385600Y-120727771D01*
X113385600Y-121251581D02*
X113385600Y-120251581D01*
X112909409Y-120251581D01*
X112385600Y-120251581D02*
X112385600Y-120489676D01*
X112623695Y-120394438D02*
X112385600Y-120489676D01*
X112147504Y-120394438D01*
X112528457Y-120680152D02*
X112385600Y-120489676D01*
X112242742Y-120680152D01*
X111623695Y-120251581D02*
X111623695Y-120489676D01*
X111861790Y-120394438D02*
X111623695Y-120489676D01*
X111385599Y-120394438D01*
X111766552Y-120680152D02*
X111623695Y-120489676D01*
X111480837Y-120680152D01*
X114718933Y-130251581D02*
X115052267Y-129775390D01*
X115290362Y-130251581D02*
X115290362Y-129251581D01*
X114909409Y-129251581D01*
X114814171Y-129299200D01*
X114766552Y-129346819D01*
X114718933Y-129442057D01*
X114718933Y-129584914D01*
X114766552Y-129680152D01*
X114814171Y-129727771D01*
X114909409Y-129775390D01*
X115290362Y-129775390D01*
X114290362Y-129727771D02*
X113957028Y-129727771D01*
X113814171Y-130251581D02*
X114290362Y-130251581D01*
X114290362Y-129251581D01*
X113814171Y-129251581D01*
X113052266Y-129727771D02*
X113385600Y-129727771D01*
X113385600Y-130251581D02*
X113385600Y-129251581D01*
X112909409Y-129251581D01*
X112385600Y-129251581D02*
X112385600Y-129489676D01*
X112623695Y-129394438D02*
X112385600Y-129489676D01*
X112147504Y-129394438D01*
X112528457Y-129680152D02*
X112385600Y-129489676D01*
X112242742Y-129680152D01*
X111623695Y-129251581D02*
X111623695Y-129489676D01*
X111861790Y-129394438D02*
X111623695Y-129489676D01*
X111385599Y-129394438D01*
X111766552Y-129680152D02*
X111623695Y-129489676D01*
X111480837Y-129680152D01*
X152023933Y-132616581D02*
X152357267Y-132140390D01*
X152595362Y-132616581D02*
X152595362Y-131616581D01*
X152214409Y-131616581D01*
X152119171Y-131664200D01*
X152071552Y-131711819D01*
X152023933Y-131807057D01*
X152023933Y-131949914D01*
X152071552Y-132045152D01*
X152119171Y-132092771D01*
X152214409Y-132140390D01*
X152595362Y-132140390D01*
X151595362Y-132092771D02*
X151262028Y-132092771D01*
X151119171Y-132616581D02*
X151595362Y-132616581D01*
X151595362Y-131616581D01*
X151119171Y-131616581D01*
X150357266Y-132092771D02*
X150690600Y-132092771D01*
X150690600Y-132616581D02*
X150690600Y-131616581D01*
X150214409Y-131616581D01*
X149690600Y-131616581D02*
X149690600Y-131854676D01*
X149928695Y-131759438D02*
X149690600Y-131854676D01*
X149452504Y-131759438D01*
X149833457Y-132045152D02*
X149690600Y-131854676D01*
X149547742Y-132045152D01*
X148928695Y-131616581D02*
X148928695Y-131854676D01*
X149166790Y-131759438D02*
X148928695Y-131854676D01*
X148690599Y-131759438D01*
X149071552Y-132045152D02*
X148928695Y-131854676D01*
X148785837Y-132045152D01*
X152023933Y-123616581D02*
X152357267Y-123140390D01*
X152595362Y-123616581D02*
X152595362Y-122616581D01*
X152214409Y-122616581D01*
X152119171Y-122664200D01*
X152071552Y-122711819D01*
X152023933Y-122807057D01*
X152023933Y-122949914D01*
X152071552Y-123045152D01*
X152119171Y-123092771D01*
X152214409Y-123140390D01*
X152595362Y-123140390D01*
X151595362Y-123092771D02*
X151262028Y-123092771D01*
X151119171Y-123616581D02*
X151595362Y-123616581D01*
X151595362Y-122616581D01*
X151119171Y-122616581D01*
X150357266Y-123092771D02*
X150690600Y-123092771D01*
X150690600Y-123616581D02*
X150690600Y-122616581D01*
X150214409Y-122616581D01*
X149690600Y-122616581D02*
X149690600Y-122854676D01*
X149928695Y-122759438D02*
X149690600Y-122854676D01*
X149452504Y-122759438D01*
X149833457Y-123045152D02*
X149690600Y-122854676D01*
X149547742Y-123045152D01*
X148928695Y-122616581D02*
X148928695Y-122854676D01*
X149166790Y-122759438D02*
X148928695Y-122854676D01*
X148690599Y-122759438D01*
X149071552Y-123045152D02*
X148928695Y-122854676D01*
X148785837Y-123045152D01*
X152023933Y-117616581D02*
X152357267Y-117140390D01*
X152595362Y-117616581D02*
X152595362Y-116616581D01*
X152214409Y-116616581D01*
X152119171Y-116664200D01*
X152071552Y-116711819D01*
X152023933Y-116807057D01*
X152023933Y-116949914D01*
X152071552Y-117045152D01*
X152119171Y-117092771D01*
X152214409Y-117140390D01*
X152595362Y-117140390D01*
X151595362Y-117092771D02*
X151262028Y-117092771D01*
X151119171Y-117616581D02*
X151595362Y-117616581D01*
X151595362Y-116616581D01*
X151119171Y-116616581D01*
X150357266Y-117092771D02*
X150690600Y-117092771D01*
X150690600Y-117616581D02*
X150690600Y-116616581D01*
X150214409Y-116616581D01*
X149690600Y-116616581D02*
X149690600Y-116854676D01*
X149928695Y-116759438D02*
X149690600Y-116854676D01*
X149452504Y-116759438D01*
X149833457Y-117045152D02*
X149690600Y-116854676D01*
X149547742Y-117045152D01*
X148928695Y-116616581D02*
X148928695Y-116854676D01*
X149166790Y-116759438D02*
X148928695Y-116854676D01*
X148690599Y-116759438D01*
X149071552Y-117045152D02*
X148928695Y-116854676D01*
X148785837Y-117045152D01*
X152023933Y-126616581D02*
X152357267Y-126140390D01*
X152595362Y-126616581D02*
X152595362Y-125616581D01*
X152214409Y-125616581D01*
X152119171Y-125664200D01*
X152071552Y-125711819D01*
X152023933Y-125807057D01*
X152023933Y-125949914D01*
X152071552Y-126045152D01*
X152119171Y-126092771D01*
X152214409Y-126140390D01*
X152595362Y-126140390D01*
X151595362Y-126092771D02*
X151262028Y-126092771D01*
X151119171Y-126616581D02*
X151595362Y-126616581D01*
X151595362Y-125616581D01*
X151119171Y-125616581D01*
X150357266Y-126092771D02*
X150690600Y-126092771D01*
X150690600Y-126616581D02*
X150690600Y-125616581D01*
X150214409Y-125616581D01*
X149690600Y-125616581D02*
X149690600Y-125854676D01*
X149928695Y-125759438D02*
X149690600Y-125854676D01*
X149452504Y-125759438D01*
X149833457Y-126045152D02*
X149690600Y-125854676D01*
X149547742Y-126045152D01*
X148928695Y-125616581D02*
X148928695Y-125854676D01*
X149166790Y-125759438D02*
X148928695Y-125854676D01*
X148690599Y-125759438D01*
X149071552Y-126045152D02*
X148928695Y-125854676D01*
X148785837Y-126045152D01*
X152023933Y-135616581D02*
X152357267Y-135140390D01*
X152595362Y-135616581D02*
X152595362Y-134616581D01*
X152214409Y-134616581D01*
X152119171Y-134664200D01*
X152071552Y-134711819D01*
X152023933Y-134807057D01*
X152023933Y-134949914D01*
X152071552Y-135045152D01*
X152119171Y-135092771D01*
X152214409Y-135140390D01*
X152595362Y-135140390D01*
X151595362Y-135092771D02*
X151262028Y-135092771D01*
X151119171Y-135616581D02*
X151595362Y-135616581D01*
X151595362Y-134616581D01*
X151119171Y-134616581D01*
X150357266Y-135092771D02*
X150690600Y-135092771D01*
X150690600Y-135616581D02*
X150690600Y-134616581D01*
X150214409Y-134616581D01*
X149690600Y-134616581D02*
X149690600Y-134854676D01*
X149928695Y-134759438D02*
X149690600Y-134854676D01*
X149452504Y-134759438D01*
X149833457Y-135045152D02*
X149690600Y-134854676D01*
X149547742Y-135045152D01*
X148928695Y-134616581D02*
X148928695Y-134854676D01*
X149166790Y-134759438D02*
X148928695Y-134854676D01*
X148690599Y-134759438D01*
X149071552Y-135045152D02*
X148928695Y-134854676D01*
X148785837Y-135045152D01*
X152023933Y-120616581D02*
X152357267Y-120140390D01*
X152595362Y-120616581D02*
X152595362Y-119616581D01*
X152214409Y-119616581D01*
X152119171Y-119664200D01*
X152071552Y-119711819D01*
X152023933Y-119807057D01*
X152023933Y-119949914D01*
X152071552Y-120045152D01*
X152119171Y-120092771D01*
X152214409Y-120140390D01*
X152595362Y-120140390D01*
X151595362Y-120092771D02*
X151262028Y-120092771D01*
X151119171Y-120616581D02*
X151595362Y-120616581D01*
X151595362Y-119616581D01*
X151119171Y-119616581D01*
X150357266Y-120092771D02*
X150690600Y-120092771D01*
X150690600Y-120616581D02*
X150690600Y-119616581D01*
X150214409Y-119616581D01*
X149690600Y-119616581D02*
X149690600Y-119854676D01*
X149928695Y-119759438D02*
X149690600Y-119854676D01*
X149452504Y-119759438D01*
X149833457Y-120045152D02*
X149690600Y-119854676D01*
X149547742Y-120045152D01*
X148928695Y-119616581D02*
X148928695Y-119854676D01*
X149166790Y-119759438D02*
X148928695Y-119854676D01*
X148690599Y-119759438D01*
X149071552Y-120045152D02*
X148928695Y-119854676D01*
X148785837Y-120045152D01*
X152023933Y-129616581D02*
X152357267Y-129140390D01*
X152595362Y-129616581D02*
X152595362Y-128616581D01*
X152214409Y-128616581D01*
X152119171Y-128664200D01*
X152071552Y-128711819D01*
X152023933Y-128807057D01*
X152023933Y-128949914D01*
X152071552Y-129045152D01*
X152119171Y-129092771D01*
X152214409Y-129140390D01*
X152595362Y-129140390D01*
X151595362Y-129092771D02*
X151262028Y-129092771D01*
X151119171Y-129616581D02*
X151595362Y-129616581D01*
X151595362Y-128616581D01*
X151119171Y-128616581D01*
X150357266Y-129092771D02*
X150690600Y-129092771D01*
X150690600Y-129616581D02*
X150690600Y-128616581D01*
X150214409Y-128616581D01*
X149690600Y-128616581D02*
X149690600Y-128854676D01*
X149928695Y-128759438D02*
X149690600Y-128854676D01*
X149452504Y-128759438D01*
X149833457Y-129045152D02*
X149690600Y-128854676D01*
X149547742Y-129045152D01*
X148928695Y-128616581D02*
X148928695Y-128854676D01*
X149166790Y-128759438D02*
X148928695Y-128854676D01*
X148690599Y-128759438D01*
X149071552Y-129045152D02*
X148928695Y-128854676D01*
X148785837Y-129045152D01*
M02*
