G04 #@! TF.FileFunction,Copper,L1,Top,Signal*
%FSLAX46Y46*%
G04 Gerber Fmt 4.6, Leading zero omitted, Abs format (unit mm)*
G04 Created by KiCad (PCBNEW 4.0.6-e0-6349~53~ubuntu16.04.1) date Wed Aug  9 14:44:26 2017*
%MOMM*%
%LPD*%
G01*
G04 APERTURE LIST*
%ADD10C,0.100000*%
%ADD11C,2.000000*%
%ADD12R,1.500000X0.600000*%
%ADD13C,0.250000*%
G04 APERTURE END LIST*
D10*
D11*
X127449600Y-90534200D03*
X127449600Y-96534200D03*
X127449600Y-93534200D03*
X113893600Y-93788200D03*
X113893600Y-90788200D03*
X151198600Y-90407200D03*
X137642600Y-96661200D03*
X137642600Y-93661200D03*
X151198600Y-93407200D03*
X137642600Y-90661200D03*
X113893600Y-108788200D03*
X113893600Y-102788200D03*
X113893600Y-105788200D03*
X113893600Y-96788200D03*
X113893600Y-99788200D03*
X151198600Y-108407200D03*
X151198600Y-105407200D03*
X151198600Y-102407200D03*
X151198600Y-96407200D03*
X151198600Y-99407200D03*
X137642600Y-105661200D03*
X127449600Y-102534200D03*
X127449600Y-108534200D03*
X137642600Y-108661200D03*
X137642600Y-99661200D03*
X127449600Y-105534200D03*
X137642600Y-102661200D03*
X127449600Y-99534200D03*
X137134600Y-126918200D03*
X137134600Y-117918200D03*
X137134600Y-114918200D03*
X137134600Y-120918200D03*
X137134600Y-123918200D03*
X137134600Y-129918200D03*
X137134600Y-132918200D03*
X126941600Y-118045200D03*
X126941600Y-121045200D03*
X126941600Y-124045200D03*
X126941600Y-130045200D03*
X126941600Y-115045200D03*
X126941600Y-133045200D03*
X126941600Y-127045200D03*
X113385600Y-130299200D03*
X113385600Y-124299200D03*
X113385600Y-121299200D03*
X113385600Y-115299200D03*
X113385600Y-133299200D03*
X113385600Y-118299200D03*
X113385600Y-127299200D03*
X150690600Y-129664200D03*
X150690600Y-120664200D03*
X150690600Y-114664200D03*
X150690600Y-123664200D03*
X150690600Y-132664200D03*
X150690600Y-117664200D03*
X150690600Y-126664200D03*
D12*
X118204000Y-119380000D03*
X118204000Y-120650000D03*
X118204000Y-121920000D03*
X118204000Y-123190000D03*
X118204000Y-124460000D03*
X118204000Y-125730000D03*
X118204000Y-127000000D03*
X123604000Y-127000000D03*
X123604000Y-125730000D03*
X123604000Y-124460000D03*
X123604000Y-123190000D03*
X123604000Y-121920000D03*
X123604000Y-120650000D03*
X123604000Y-119380000D03*
D11*
X127729000Y-129935000D03*
X127729000Y-126935000D03*
X127729000Y-120935000D03*
X127729000Y-132935000D03*
X114173000Y-132681000D03*
X127729000Y-123935000D03*
X114173000Y-126681000D03*
X114173000Y-129681000D03*
X114173000Y-123681000D03*
X114173000Y-120681000D03*
X114173000Y-114681000D03*
X114173000Y-117681000D03*
X127729000Y-117935000D03*
X127729000Y-114935000D03*
D12*
X141953000Y-119507000D03*
X141953000Y-120777000D03*
X141953000Y-122047000D03*
X141953000Y-123317000D03*
X141953000Y-124587000D03*
X141953000Y-125857000D03*
X141953000Y-127127000D03*
X147353000Y-127127000D03*
X147353000Y-125857000D03*
X147353000Y-124587000D03*
X147353000Y-123317000D03*
X147353000Y-122047000D03*
X147353000Y-120777000D03*
X147353000Y-119507000D03*
D11*
X151478000Y-130062000D03*
X151478000Y-127062000D03*
X151478000Y-121062000D03*
X151478000Y-133062000D03*
X137922000Y-132808000D03*
X151478000Y-124062000D03*
X137922000Y-126808000D03*
X137922000Y-129808000D03*
X137922000Y-123808000D03*
X137922000Y-120808000D03*
X137922000Y-114808000D03*
X137922000Y-117808000D03*
X151478000Y-118062000D03*
X151478000Y-115062000D03*
D12*
X141445000Y-95250000D03*
X141445000Y-96520000D03*
X141445000Y-97790000D03*
X141445000Y-99060000D03*
X141445000Y-100330000D03*
X141445000Y-101600000D03*
X141445000Y-102870000D03*
X146845000Y-102870000D03*
X146845000Y-101600000D03*
X146845000Y-100330000D03*
X146845000Y-99060000D03*
X146845000Y-97790000D03*
X146845000Y-96520000D03*
X146845000Y-95250000D03*
D11*
X150970000Y-105805000D03*
X150970000Y-102805000D03*
X150970000Y-96805000D03*
X150970000Y-108805000D03*
X137414000Y-108551000D03*
X150970000Y-99805000D03*
X137414000Y-102551000D03*
X137414000Y-105551000D03*
X137414000Y-99551000D03*
X137414000Y-96551000D03*
X137414000Y-90551000D03*
X137414000Y-93551000D03*
X150970000Y-93805000D03*
X150970000Y-90805000D03*
X127221000Y-108424000D03*
X113665000Y-108170000D03*
X127221000Y-105424000D03*
X113665000Y-105170000D03*
X127221000Y-102424000D03*
X113665000Y-102170000D03*
X127221000Y-99424000D03*
X113665000Y-99170000D03*
X127221000Y-96424000D03*
X113665000Y-96170000D03*
X127221000Y-93424000D03*
X113665000Y-93170000D03*
X127221000Y-90424000D03*
D12*
X117696000Y-94869000D03*
X117696000Y-96139000D03*
X117696000Y-97409000D03*
X117696000Y-98679000D03*
X117696000Y-99949000D03*
X117696000Y-101219000D03*
X117696000Y-102489000D03*
X123096000Y-102489000D03*
X123096000Y-101219000D03*
X123096000Y-99949000D03*
X123096000Y-98679000D03*
X123096000Y-97409000D03*
X123096000Y-96139000D03*
X123096000Y-94869000D03*
D11*
X113665000Y-90170000D03*
D13*
X123604000Y-119380000D02*
X123604000Y-118830000D01*
X127499000Y-114935000D02*
X127729000Y-114935000D01*
X123604000Y-118830000D02*
X127499000Y-114935000D01*
X123604000Y-120650000D02*
X125014000Y-120650000D01*
X125014000Y-120650000D02*
X127729000Y-117935000D01*
X123604000Y-121920000D02*
X126744000Y-121920000D01*
X126744000Y-121920000D02*
X127729000Y-120935000D01*
X123604000Y-123190000D02*
X126984000Y-123190000D01*
X126984000Y-123190000D02*
X127729000Y-123935000D01*
X123604000Y-124460000D02*
X125254000Y-124460000D01*
X125254000Y-124460000D02*
X127729000Y-126935000D01*
X124985000Y-126111000D02*
X124985000Y-127191000D01*
X124985000Y-127191000D02*
X127729000Y-129935000D01*
X123604000Y-125730000D02*
X124604000Y-125730000D01*
X124604000Y-125730000D02*
X124985000Y-126111000D01*
X123604000Y-127000000D02*
X123604000Y-128810000D01*
X123604000Y-128810000D02*
X127729000Y-132935000D01*
X118204000Y-127000000D02*
X118204000Y-128650000D01*
X118204000Y-128650000D02*
X114173000Y-132681000D01*
X116078000Y-126856000D02*
X116078000Y-127776000D01*
X116078000Y-127776000D02*
X114173000Y-129681000D01*
X117204000Y-125730000D02*
X116078000Y-126856000D01*
X116078000Y-125586000D02*
X115268000Y-125586000D01*
X115268000Y-125586000D02*
X114173000Y-126681000D01*
X118204000Y-125730000D02*
X117204000Y-125730000D01*
X118204000Y-124460000D02*
X117204000Y-124460000D01*
X117204000Y-124460000D02*
X116078000Y-125586000D01*
X118204000Y-123190000D02*
X114664000Y-123190000D01*
X114664000Y-123190000D02*
X114173000Y-123681000D01*
X118204000Y-121920000D02*
X117204000Y-121920000D01*
X117204000Y-121920000D02*
X115965000Y-120681000D01*
X118204000Y-120650000D02*
X117204000Y-120650000D01*
X117204000Y-120650000D02*
X116442000Y-119888000D01*
X115965000Y-120681000D02*
X114173000Y-120681000D01*
X116442000Y-119888000D02*
X116380000Y-119888000D01*
X116380000Y-119888000D02*
X114173000Y-117681000D01*
X118204000Y-119380000D02*
X118204000Y-118712000D01*
X118204000Y-118712000D02*
X114173000Y-114681000D01*
X147353000Y-119507000D02*
X147353000Y-118957000D01*
X151248000Y-115062000D02*
X151478000Y-115062000D01*
X147353000Y-118957000D02*
X151248000Y-115062000D01*
X147353000Y-120777000D02*
X148763000Y-120777000D01*
X148763000Y-120777000D02*
X151478000Y-118062000D01*
X147353000Y-122047000D02*
X150493000Y-122047000D01*
X150493000Y-122047000D02*
X151478000Y-121062000D01*
X147353000Y-123317000D02*
X150733000Y-123317000D01*
X150733000Y-123317000D02*
X151478000Y-124062000D01*
X147353000Y-124587000D02*
X149003000Y-124587000D01*
X149003000Y-124587000D02*
X151478000Y-127062000D01*
X148734000Y-126238000D02*
X148734000Y-127318000D01*
X148734000Y-127318000D02*
X151478000Y-130062000D01*
X147353000Y-125857000D02*
X148353000Y-125857000D01*
X148353000Y-125857000D02*
X148734000Y-126238000D01*
X147353000Y-127127000D02*
X147353000Y-128937000D01*
X147353000Y-128937000D02*
X151478000Y-133062000D01*
X141953000Y-127127000D02*
X141953000Y-128777000D01*
X141953000Y-128777000D02*
X137922000Y-132808000D01*
X139827000Y-126983000D02*
X139827000Y-127903000D01*
X139827000Y-127903000D02*
X137922000Y-129808000D01*
X140953000Y-125857000D02*
X139827000Y-126983000D01*
X139827000Y-125713000D02*
X139017000Y-125713000D01*
X139017000Y-125713000D02*
X137922000Y-126808000D01*
X141953000Y-125857000D02*
X140953000Y-125857000D01*
X141953000Y-124587000D02*
X140953000Y-124587000D01*
X140953000Y-124587000D02*
X139827000Y-125713000D01*
X141953000Y-123317000D02*
X138413000Y-123317000D01*
X138413000Y-123317000D02*
X137922000Y-123808000D01*
X141953000Y-122047000D02*
X140953000Y-122047000D01*
X140953000Y-122047000D02*
X139714000Y-120808000D01*
X141953000Y-120777000D02*
X140953000Y-120777000D01*
X140953000Y-120777000D02*
X140191000Y-120015000D01*
X139714000Y-120808000D02*
X137922000Y-120808000D01*
X140191000Y-120015000D02*
X140129000Y-120015000D01*
X140129000Y-120015000D02*
X137922000Y-117808000D01*
X141953000Y-119507000D02*
X141953000Y-118839000D01*
X141953000Y-118839000D02*
X137922000Y-114808000D01*
X146845000Y-95250000D02*
X146845000Y-94700000D01*
X150740000Y-90805000D02*
X150970000Y-90805000D01*
X146845000Y-94700000D02*
X150740000Y-90805000D01*
X146845000Y-96520000D02*
X148255000Y-96520000D01*
X148255000Y-96520000D02*
X150970000Y-93805000D01*
X146845000Y-97790000D02*
X149985000Y-97790000D01*
X149985000Y-97790000D02*
X150970000Y-96805000D01*
X146845000Y-99060000D02*
X150225000Y-99060000D01*
X150225000Y-99060000D02*
X150970000Y-99805000D01*
X146845000Y-100330000D02*
X148495000Y-100330000D01*
X148495000Y-100330000D02*
X150970000Y-102805000D01*
X148226000Y-101981000D02*
X148226000Y-103061000D01*
X148226000Y-103061000D02*
X150970000Y-105805000D01*
X146845000Y-101600000D02*
X147845000Y-101600000D01*
X147845000Y-101600000D02*
X148226000Y-101981000D01*
X146845000Y-102870000D02*
X146845000Y-104680000D01*
X146845000Y-104680000D02*
X150970000Y-108805000D01*
X141445000Y-102870000D02*
X141445000Y-104520000D01*
X141445000Y-104520000D02*
X137414000Y-108551000D01*
X139319000Y-102726000D02*
X139319000Y-103646000D01*
X139319000Y-103646000D02*
X137414000Y-105551000D01*
X140445000Y-101600000D02*
X139319000Y-102726000D01*
X139319000Y-101456000D02*
X138509000Y-101456000D01*
X138509000Y-101456000D02*
X137414000Y-102551000D01*
X141445000Y-101600000D02*
X140445000Y-101600000D01*
X141445000Y-100330000D02*
X140445000Y-100330000D01*
X140445000Y-100330000D02*
X139319000Y-101456000D01*
X141445000Y-99060000D02*
X137905000Y-99060000D01*
X137905000Y-99060000D02*
X137414000Y-99551000D01*
X141445000Y-97790000D02*
X140445000Y-97790000D01*
X140445000Y-97790000D02*
X139206000Y-96551000D01*
X141445000Y-96520000D02*
X140445000Y-96520000D01*
X140445000Y-96520000D02*
X139683000Y-95758000D01*
X139206000Y-96551000D02*
X137414000Y-96551000D01*
X139683000Y-95758000D02*
X139621000Y-95758000D01*
X139621000Y-95758000D02*
X137414000Y-93551000D01*
X141445000Y-95250000D02*
X141445000Y-94582000D01*
X141445000Y-94582000D02*
X137414000Y-90551000D01*
X123096000Y-94869000D02*
X123096000Y-94319000D01*
X123096000Y-94319000D02*
X126991000Y-90424000D01*
X126991000Y-90424000D02*
X127221000Y-90424000D01*
X123096000Y-96139000D02*
X124506000Y-96139000D01*
X124506000Y-96139000D02*
X127221000Y-93424000D01*
X123096000Y-97409000D02*
X126236000Y-97409000D01*
X126236000Y-97409000D02*
X127221000Y-96424000D01*
X123096000Y-98679000D02*
X126476000Y-98679000D01*
X126476000Y-98679000D02*
X127221000Y-99424000D01*
X123096000Y-99949000D02*
X124746000Y-99949000D01*
X124746000Y-99949000D02*
X127221000Y-102424000D01*
X124477000Y-101600000D02*
X124477000Y-102680000D01*
X124477000Y-102680000D02*
X127221000Y-105424000D01*
X123096000Y-101219000D02*
X124096000Y-101219000D01*
X124096000Y-101219000D02*
X124477000Y-101600000D01*
X123096000Y-102489000D02*
X123096000Y-104299000D01*
X123096000Y-104299000D02*
X127221000Y-108424000D01*
X117696000Y-102489000D02*
X117696000Y-104139000D01*
X117696000Y-104139000D02*
X113665000Y-108170000D01*
X115570000Y-102345000D02*
X115570000Y-103265000D01*
X115570000Y-103265000D02*
X113665000Y-105170000D01*
X117696000Y-101219000D02*
X116696000Y-101219000D01*
X116696000Y-101219000D02*
X115570000Y-102345000D01*
X115570000Y-101075000D02*
X114760000Y-101075000D01*
X114760000Y-101075000D02*
X113665000Y-102170000D01*
X117696000Y-99949000D02*
X116696000Y-99949000D01*
X116696000Y-99949000D02*
X115570000Y-101075000D01*
X117696000Y-98679000D02*
X114156000Y-98679000D01*
X114156000Y-98679000D02*
X113665000Y-99170000D01*
X117696000Y-97409000D02*
X116696000Y-97409000D01*
X115457000Y-96170000D02*
X113665000Y-96170000D01*
X116696000Y-97409000D02*
X115457000Y-96170000D01*
X115934000Y-95377000D02*
X115872000Y-95377000D01*
X115872000Y-95377000D02*
X113665000Y-93170000D01*
X117696000Y-96139000D02*
X116696000Y-96139000D01*
X116696000Y-96139000D02*
X115934000Y-95377000D01*
X117696000Y-94869000D02*
X117696000Y-94201000D01*
X117696000Y-94201000D02*
X113665000Y-90170000D01*
M02*
