M48
;DRILL file {KiCad 4.0.6-e0-6349~53~ubuntu16.04.1} date Thu Aug 10 10:05:32 2017
;FORMAT={-:-/ absolute / metric / decimal}
FMAT,2
METRIC,TZ
T1C1.000
%
G90
G05
M71
T1
X113.386Y-115.299
X113.386Y-118.299
X113.386Y-121.299
X113.386Y-124.299
X113.386Y-127.299
X113.386Y-130.299
X113.386Y-133.299
X113.665Y-90.17
X113.665Y-93.17
X113.665Y-96.17
X113.665Y-99.17
X113.665Y-102.17
X113.665Y-105.17
X113.665Y-108.17
X113.894Y-90.788
X113.894Y-93.788
X113.894Y-96.788
X113.894Y-99.788
X113.894Y-102.788
X113.894Y-105.788
X113.894Y-108.788
X114.173Y-114.681
X114.173Y-117.681
X114.173Y-120.681
X114.173Y-123.681
X114.173Y-126.681
X114.173Y-129.681
X114.173Y-132.681
X126.942Y-115.045
X126.942Y-118.045
X126.942Y-121.045
X126.942Y-124.045
X126.942Y-127.045
X126.942Y-130.045
X126.942Y-133.045
X127.221Y-90.424
X127.221Y-93.424
X127.221Y-96.424
X127.221Y-99.424
X127.221Y-102.424
X127.221Y-105.424
X127.221Y-108.424
X127.45Y-90.534
X127.45Y-93.534
X127.45Y-96.534
X127.45Y-99.534
X127.45Y-102.534
X127.45Y-105.534
X127.45Y-108.534
X127.729Y-114.935
X127.729Y-117.935
X127.729Y-120.935
X127.729Y-123.935
X127.729Y-126.935
X127.729Y-129.935
X127.729Y-132.935
X137.135Y-114.918
X137.135Y-117.918
X137.135Y-120.918
X137.135Y-123.918
X137.135Y-126.918
X137.135Y-129.918
X137.135Y-132.918
X137.414Y-90.551
X137.414Y-93.551
X137.414Y-96.551
X137.414Y-99.551
X137.414Y-102.551
X137.414Y-105.551
X137.414Y-108.551
X137.643Y-90.661
X137.643Y-93.661
X137.643Y-96.661
X137.643Y-99.661
X137.643Y-102.661
X137.643Y-105.661
X137.643Y-108.661
X137.922Y-114.808
X137.922Y-117.808
X137.922Y-120.808
X137.922Y-123.808
X137.922Y-126.808
X137.922Y-129.808
X137.922Y-132.808
X150.691Y-114.664
X150.691Y-117.664
X150.691Y-120.664
X150.691Y-123.664
X150.691Y-126.664
X150.691Y-129.664
X150.691Y-132.664
X150.97Y-90.805
X150.97Y-93.805
X150.97Y-96.805
X150.97Y-99.805
X150.97Y-102.805
X150.97Y-105.805
X150.97Y-108.805
X151.199Y-90.407
X151.199Y-93.407
X151.199Y-96.407
X151.199Y-99.407
X151.199Y-102.407
X151.199Y-105.407
X151.199Y-108.407
X151.478Y-115.062
X151.478Y-118.062
X151.478Y-121.062
X151.478Y-124.062
X151.478Y-127.062
X151.478Y-130.062
X151.478Y-133.062
T0
M30
