G04 #@! TF.FileFunction,Legend,Bot*
%FSLAX46Y46*%
G04 Gerber Fmt 4.6, Leading zero omitted, Abs format (unit mm)*
G04 Created by KiCad (PCBNEW 4.0.6-e0-6349~53~ubuntu16.04.1) date Mon Jul 24 21:03:44 2017*
%MOMM*%
%LPD*%
G01*
G04 APERTURE LIST*
%ADD10C,0.100000*%
%ADD11C,0.300000*%
G04 APERTURE END LIST*
D10*
D11*
X88749999Y-62178571D02*
X88749999Y-60678571D01*
X88178571Y-60678571D01*
X88035713Y-60750000D01*
X87964285Y-60821429D01*
X87892856Y-60964286D01*
X87892856Y-61178571D01*
X87964285Y-61321429D01*
X88035713Y-61392857D01*
X88178571Y-61464286D01*
X88749999Y-61464286D01*
X87321428Y-61750000D02*
X86607142Y-61750000D01*
X87464285Y-62178571D02*
X86964285Y-60678571D01*
X86464285Y-62178571D01*
X85249999Y-60678571D02*
X85964285Y-60678571D01*
X86035714Y-61392857D01*
X85964285Y-61321429D01*
X85821428Y-61250000D01*
X85464285Y-61250000D01*
X85321428Y-61321429D01*
X85249999Y-61392857D01*
X85178571Y-61535714D01*
X85178571Y-61892857D01*
X85249999Y-62035714D01*
X85321428Y-62107143D01*
X85464285Y-62178571D01*
X85821428Y-62178571D01*
X85964285Y-62107143D01*
X86035714Y-62035714D01*
X88499999Y-54178571D02*
X88499999Y-52678571D01*
X87928571Y-52678571D01*
X87785713Y-52750000D01*
X87714285Y-52821429D01*
X87642856Y-52964286D01*
X87642856Y-53178571D01*
X87714285Y-53321429D01*
X87785713Y-53392857D01*
X87928571Y-53464286D01*
X88499999Y-53464286D01*
X87071428Y-53750000D02*
X86357142Y-53750000D01*
X87214285Y-54178571D02*
X86714285Y-52678571D01*
X86214285Y-54178571D01*
X85071428Y-53178571D02*
X85071428Y-54178571D01*
X85428571Y-52607143D02*
X85785714Y-53678571D01*
X84857142Y-53678571D01*
X88499999Y-46428571D02*
X88499999Y-44928571D01*
X87928571Y-44928571D01*
X87785713Y-45000000D01*
X87714285Y-45071429D01*
X87642856Y-45214286D01*
X87642856Y-45428571D01*
X87714285Y-45571429D01*
X87785713Y-45642857D01*
X87928571Y-45714286D01*
X88499999Y-45714286D01*
X87071428Y-46000000D02*
X86357142Y-46000000D01*
X87214285Y-46428571D02*
X86714285Y-44928571D01*
X86214285Y-46428571D01*
X85857142Y-44928571D02*
X84928571Y-44928571D01*
X85428571Y-45500000D01*
X85214285Y-45500000D01*
X85071428Y-45571429D01*
X84999999Y-45642857D01*
X84928571Y-45785714D01*
X84928571Y-46142857D01*
X84999999Y-46285714D01*
X85071428Y-46357143D01*
X85214285Y-46428571D01*
X85642857Y-46428571D01*
X85785714Y-46357143D01*
X85857142Y-46285714D01*
X88499999Y-38678571D02*
X88499999Y-37178571D01*
X87928571Y-37178571D01*
X87785713Y-37250000D01*
X87714285Y-37321429D01*
X87642856Y-37464286D01*
X87642856Y-37678571D01*
X87714285Y-37821429D01*
X87785713Y-37892857D01*
X87928571Y-37964286D01*
X88499999Y-37964286D01*
X87071428Y-38250000D02*
X86357142Y-38250000D01*
X87214285Y-38678571D02*
X86714285Y-37178571D01*
X86214285Y-38678571D01*
X85785714Y-37321429D02*
X85714285Y-37250000D01*
X85571428Y-37178571D01*
X85214285Y-37178571D01*
X85071428Y-37250000D01*
X84999999Y-37321429D01*
X84928571Y-37464286D01*
X84928571Y-37607143D01*
X84999999Y-37821429D01*
X85857142Y-38678571D01*
X84928571Y-38678571D01*
X88249999Y-30428571D02*
X88249999Y-28928571D01*
X87678571Y-28928571D01*
X87535713Y-29000000D01*
X87464285Y-29071429D01*
X87392856Y-29214286D01*
X87392856Y-29428571D01*
X87464285Y-29571429D01*
X87535713Y-29642857D01*
X87678571Y-29714286D01*
X88249999Y-29714286D01*
X86821428Y-30000000D02*
X86107142Y-30000000D01*
X86964285Y-30428571D02*
X86464285Y-28928571D01*
X85964285Y-30428571D01*
X84678571Y-30428571D02*
X85535714Y-30428571D01*
X85107142Y-30428571D02*
X85107142Y-28928571D01*
X85249999Y-29142857D01*
X85392857Y-29285714D01*
X85535714Y-29357143D01*
X88249999Y-22678571D02*
X88249999Y-21178571D01*
X87678571Y-21178571D01*
X87535713Y-21250000D01*
X87464285Y-21321429D01*
X87392856Y-21464286D01*
X87392856Y-21678571D01*
X87464285Y-21821429D01*
X87535713Y-21892857D01*
X87678571Y-21964286D01*
X88249999Y-21964286D01*
X86821428Y-22250000D02*
X86107142Y-22250000D01*
X86964285Y-22678571D02*
X86464285Y-21178571D01*
X85964285Y-22678571D01*
X85178571Y-21178571D02*
X85035714Y-21178571D01*
X84892857Y-21250000D01*
X84821428Y-21321429D01*
X84749999Y-21464286D01*
X84678571Y-21750000D01*
X84678571Y-22107143D01*
X84749999Y-22392857D01*
X84821428Y-22535714D01*
X84892857Y-22607143D01*
X85035714Y-22678571D01*
X85178571Y-22678571D01*
X85321428Y-22607143D01*
X85392857Y-22535714D01*
X85464285Y-22392857D01*
X85535714Y-22107143D01*
X85535714Y-21750000D01*
X85464285Y-21464286D01*
X85392857Y-21321429D01*
X85321428Y-21250000D01*
X85178571Y-21178571D01*
X88142857Y-63250000D02*
X88285714Y-63178571D01*
X88500000Y-63178571D01*
X88714285Y-63250000D01*
X88857143Y-63392857D01*
X88928571Y-63535714D01*
X89000000Y-63821429D01*
X89000000Y-64035714D01*
X88928571Y-64321429D01*
X88857143Y-64464286D01*
X88714285Y-64607143D01*
X88500000Y-64678571D01*
X88357143Y-64678571D01*
X88142857Y-64607143D01*
X88071428Y-64535714D01*
X88071428Y-64035714D01*
X88357143Y-64035714D01*
X87428571Y-64678571D02*
X87428571Y-63178571D01*
X86571428Y-64678571D01*
X86571428Y-63178571D01*
X85857142Y-64678571D02*
X85857142Y-63178571D01*
X85499999Y-63178571D01*
X85285714Y-63250000D01*
X85142856Y-63392857D01*
X85071428Y-63535714D01*
X84999999Y-63821429D01*
X84999999Y-64035714D01*
X85071428Y-64321429D01*
X85142856Y-64464286D01*
X85285714Y-64607143D01*
X85499999Y-64678571D01*
X85857142Y-64678571D01*
X87892857Y-55250000D02*
X88035714Y-55178571D01*
X88250000Y-55178571D01*
X88464285Y-55250000D01*
X88607143Y-55392857D01*
X88678571Y-55535714D01*
X88750000Y-55821429D01*
X88750000Y-56035714D01*
X88678571Y-56321429D01*
X88607143Y-56464286D01*
X88464285Y-56607143D01*
X88250000Y-56678571D01*
X88107143Y-56678571D01*
X87892857Y-56607143D01*
X87821428Y-56535714D01*
X87821428Y-56035714D01*
X88107143Y-56035714D01*
X87178571Y-56678571D02*
X87178571Y-55178571D01*
X86321428Y-56678571D01*
X86321428Y-55178571D01*
X85607142Y-56678571D02*
X85607142Y-55178571D01*
X85249999Y-55178571D01*
X85035714Y-55250000D01*
X84892856Y-55392857D01*
X84821428Y-55535714D01*
X84749999Y-55821429D01*
X84749999Y-56035714D01*
X84821428Y-56321429D01*
X84892856Y-56464286D01*
X85035714Y-56607143D01*
X85249999Y-56678571D01*
X85607142Y-56678571D01*
X88142857Y-47500000D02*
X88285714Y-47428571D01*
X88500000Y-47428571D01*
X88714285Y-47500000D01*
X88857143Y-47642857D01*
X88928571Y-47785714D01*
X89000000Y-48071429D01*
X89000000Y-48285714D01*
X88928571Y-48571429D01*
X88857143Y-48714286D01*
X88714285Y-48857143D01*
X88500000Y-48928571D01*
X88357143Y-48928571D01*
X88142857Y-48857143D01*
X88071428Y-48785714D01*
X88071428Y-48285714D01*
X88357143Y-48285714D01*
X87428571Y-48928571D02*
X87428571Y-47428571D01*
X86571428Y-48928571D01*
X86571428Y-47428571D01*
X85857142Y-48928571D02*
X85857142Y-47428571D01*
X85499999Y-47428571D01*
X85285714Y-47500000D01*
X85142856Y-47642857D01*
X85071428Y-47785714D01*
X84999999Y-48071429D01*
X84999999Y-48285714D01*
X85071428Y-48571429D01*
X85142856Y-48714286D01*
X85285714Y-48857143D01*
X85499999Y-48928571D01*
X85857142Y-48928571D01*
X87892857Y-39750000D02*
X88035714Y-39678571D01*
X88250000Y-39678571D01*
X88464285Y-39750000D01*
X88607143Y-39892857D01*
X88678571Y-40035714D01*
X88750000Y-40321429D01*
X88750000Y-40535714D01*
X88678571Y-40821429D01*
X88607143Y-40964286D01*
X88464285Y-41107143D01*
X88250000Y-41178571D01*
X88107143Y-41178571D01*
X87892857Y-41107143D01*
X87821428Y-41035714D01*
X87821428Y-40535714D01*
X88107143Y-40535714D01*
X87178571Y-41178571D02*
X87178571Y-39678571D01*
X86321428Y-41178571D01*
X86321428Y-39678571D01*
X85607142Y-41178571D02*
X85607142Y-39678571D01*
X85249999Y-39678571D01*
X85035714Y-39750000D01*
X84892856Y-39892857D01*
X84821428Y-40035714D01*
X84749999Y-40321429D01*
X84749999Y-40535714D01*
X84821428Y-40821429D01*
X84892856Y-40964286D01*
X85035714Y-41107143D01*
X85249999Y-41178571D01*
X85607142Y-41178571D01*
X87642857Y-31750000D02*
X87785714Y-31678571D01*
X88000000Y-31678571D01*
X88214285Y-31750000D01*
X88357143Y-31892857D01*
X88428571Y-32035714D01*
X88500000Y-32321429D01*
X88500000Y-32535714D01*
X88428571Y-32821429D01*
X88357143Y-32964286D01*
X88214285Y-33107143D01*
X88000000Y-33178571D01*
X87857143Y-33178571D01*
X87642857Y-33107143D01*
X87571428Y-33035714D01*
X87571428Y-32535714D01*
X87857143Y-32535714D01*
X86928571Y-33178571D02*
X86928571Y-31678571D01*
X86071428Y-33178571D01*
X86071428Y-31678571D01*
X85357142Y-33178571D02*
X85357142Y-31678571D01*
X84999999Y-31678571D01*
X84785714Y-31750000D01*
X84642856Y-31892857D01*
X84571428Y-32035714D01*
X84499999Y-32321429D01*
X84499999Y-32535714D01*
X84571428Y-32821429D01*
X84642856Y-32964286D01*
X84785714Y-33107143D01*
X84999999Y-33178571D01*
X85357142Y-33178571D01*
X87642857Y-23750000D02*
X87785714Y-23678571D01*
X88000000Y-23678571D01*
X88214285Y-23750000D01*
X88357143Y-23892857D01*
X88428571Y-24035714D01*
X88500000Y-24321429D01*
X88500000Y-24535714D01*
X88428571Y-24821429D01*
X88357143Y-24964286D01*
X88214285Y-25107143D01*
X88000000Y-25178571D01*
X87857143Y-25178571D01*
X87642857Y-25107143D01*
X87571428Y-25035714D01*
X87571428Y-24535714D01*
X87857143Y-24535714D01*
X86928571Y-25178571D02*
X86928571Y-23678571D01*
X86071428Y-25178571D01*
X86071428Y-23678571D01*
X85357142Y-25178571D02*
X85357142Y-23678571D01*
X84999999Y-23678571D01*
X84785714Y-23750000D01*
X84642856Y-23892857D01*
X84571428Y-24035714D01*
X84499999Y-24321429D01*
X84499999Y-24535714D01*
X84571428Y-24821429D01*
X84642856Y-24964286D01*
X84785714Y-25107143D01*
X84999999Y-25178571D01*
X85357142Y-25178571D01*
X57642857Y-52428571D02*
X58142857Y-51714286D01*
X58500000Y-52428571D02*
X58500000Y-50928571D01*
X57928572Y-50928571D01*
X57785714Y-51000000D01*
X57714286Y-51071429D01*
X57642857Y-51214286D01*
X57642857Y-51428571D01*
X57714286Y-51571429D01*
X57785714Y-51642857D01*
X57928572Y-51714286D01*
X58500000Y-51714286D01*
X56428572Y-52357143D02*
X56571429Y-52428571D01*
X56857143Y-52428571D01*
X57000000Y-52357143D01*
X57071429Y-52214286D01*
X57071429Y-51642857D01*
X57000000Y-51500000D01*
X56857143Y-51428571D01*
X56571429Y-51428571D01*
X56428572Y-51500000D01*
X56357143Y-51642857D01*
X56357143Y-51785714D01*
X57071429Y-51928571D01*
X55857143Y-51428571D02*
X55500000Y-52428571D01*
X55142858Y-51428571D01*
X54571429Y-52428571D02*
X54571429Y-51428571D01*
X54571429Y-50928571D02*
X54642858Y-51000000D01*
X54571429Y-51071429D01*
X54500001Y-51000000D01*
X54571429Y-50928571D01*
X54571429Y-51071429D01*
X53928572Y-52357143D02*
X53785715Y-52428571D01*
X53500000Y-52428571D01*
X53357143Y-52357143D01*
X53285715Y-52214286D01*
X53285715Y-52142857D01*
X53357143Y-52000000D01*
X53500000Y-51928571D01*
X53714286Y-51928571D01*
X53857143Y-51857143D01*
X53928572Y-51714286D01*
X53928572Y-51642857D01*
X53857143Y-51500000D01*
X53714286Y-51428571D01*
X53500000Y-51428571D01*
X53357143Y-51500000D01*
X52642857Y-52428571D02*
X52642857Y-51428571D01*
X52642857Y-50928571D02*
X52714286Y-51000000D01*
X52642857Y-51071429D01*
X52571429Y-51000000D01*
X52642857Y-50928571D01*
X52642857Y-51071429D01*
X51714285Y-52428571D02*
X51857143Y-52357143D01*
X51928571Y-52285714D01*
X52000000Y-52142857D01*
X52000000Y-51714286D01*
X51928571Y-51571429D01*
X51857143Y-51500000D01*
X51714285Y-51428571D01*
X51500000Y-51428571D01*
X51357143Y-51500000D01*
X51285714Y-51571429D01*
X51214285Y-51714286D01*
X51214285Y-52142857D01*
X51285714Y-52285714D01*
X51357143Y-52357143D01*
X51500000Y-52428571D01*
X51714285Y-52428571D01*
X50571428Y-51428571D02*
X50571428Y-52428571D01*
X50571428Y-51571429D02*
X50500000Y-51500000D01*
X50357142Y-51428571D01*
X50142857Y-51428571D01*
X50000000Y-51500000D01*
X49928571Y-51642857D01*
X49928571Y-52428571D01*
X48142857Y-52000000D02*
X47428571Y-52000000D01*
X48285714Y-52428571D02*
X47785714Y-50928571D01*
X47285714Y-52428571D01*
X58607143Y-48178571D02*
X58607143Y-46678571D01*
X58250000Y-46678571D01*
X58035715Y-46750000D01*
X57892857Y-46892857D01*
X57821429Y-47035714D01*
X57750000Y-47321429D01*
X57750000Y-47535714D01*
X57821429Y-47821429D01*
X57892857Y-47964286D01*
X58035715Y-48107143D01*
X58250000Y-48178571D01*
X58607143Y-48178571D01*
X56464286Y-48178571D02*
X56464286Y-47392857D01*
X56535715Y-47250000D01*
X56678572Y-47178571D01*
X56964286Y-47178571D01*
X57107143Y-47250000D01*
X56464286Y-48107143D02*
X56607143Y-48178571D01*
X56964286Y-48178571D01*
X57107143Y-48107143D01*
X57178572Y-47964286D01*
X57178572Y-47821429D01*
X57107143Y-47678571D01*
X56964286Y-47607143D01*
X56607143Y-47607143D01*
X56464286Y-47535714D01*
X55892857Y-47178571D02*
X55535714Y-48178571D01*
X55178572Y-47178571D01*
X54607143Y-48178571D02*
X54607143Y-47178571D01*
X54607143Y-46678571D02*
X54678572Y-46750000D01*
X54607143Y-46821429D01*
X54535715Y-46750000D01*
X54607143Y-46678571D01*
X54607143Y-46821429D01*
X53250000Y-48178571D02*
X53250000Y-46678571D01*
X53250000Y-48107143D02*
X53392857Y-48178571D01*
X53678571Y-48178571D01*
X53821429Y-48107143D01*
X53892857Y-48035714D01*
X53964286Y-47892857D01*
X53964286Y-47464286D01*
X53892857Y-47321429D01*
X53821429Y-47250000D01*
X53678571Y-47178571D01*
X53392857Y-47178571D01*
X53250000Y-47250000D01*
X50678571Y-48178571D02*
X51392857Y-48178571D01*
X51392857Y-46678571D01*
X49607143Y-48107143D02*
X49750000Y-48178571D01*
X50035714Y-48178571D01*
X50178571Y-48107143D01*
X50250000Y-47964286D01*
X50250000Y-47392857D01*
X50178571Y-47250000D01*
X50035714Y-47178571D01*
X49750000Y-47178571D01*
X49607143Y-47250000D01*
X49535714Y-47392857D01*
X49535714Y-47535714D01*
X50250000Y-47678571D01*
X48892857Y-47178571D02*
X48892857Y-48178571D01*
X48892857Y-47321429D02*
X48821429Y-47250000D01*
X48678571Y-47178571D01*
X48464286Y-47178571D01*
X48321429Y-47250000D01*
X48250000Y-47392857D01*
X48250000Y-48178571D01*
X47750000Y-47178571D02*
X47178571Y-47178571D01*
X47535714Y-48178571D02*
X47535714Y-46892857D01*
X47464286Y-46750000D01*
X47321428Y-46678571D01*
X47178571Y-46678571D01*
X46107143Y-48107143D02*
X46250000Y-48178571D01*
X46535714Y-48178571D01*
X46678571Y-48107143D01*
X46750000Y-47964286D01*
X46750000Y-47392857D01*
X46678571Y-47250000D01*
X46535714Y-47178571D01*
X46250000Y-47178571D01*
X46107143Y-47250000D01*
X46035714Y-47392857D01*
X46035714Y-47535714D01*
X46750000Y-47678571D01*
X45464286Y-48107143D02*
X45321429Y-48178571D01*
X45035714Y-48178571D01*
X44892857Y-48107143D01*
X44821429Y-47964286D01*
X44821429Y-47892857D01*
X44892857Y-47750000D01*
X45035714Y-47678571D01*
X45250000Y-47678571D01*
X45392857Y-47607143D01*
X45464286Y-47464286D01*
X45464286Y-47392857D01*
X45392857Y-47250000D01*
X45250000Y-47178571D01*
X45035714Y-47178571D01*
X44892857Y-47250000D01*
X44392857Y-47178571D02*
X43821428Y-47178571D01*
X44178571Y-46678571D02*
X44178571Y-47964286D01*
X44107143Y-48107143D01*
X43964285Y-48178571D01*
X43821428Y-48178571D01*
X43464285Y-47178571D02*
X43107142Y-48178571D01*
X42750000Y-47178571D02*
X43107142Y-48178571D01*
X43250000Y-48535714D01*
X43321428Y-48607143D01*
X43464285Y-48678571D01*
X58642856Y-44607143D02*
X58428570Y-44678571D01*
X58071427Y-44678571D01*
X57928570Y-44607143D01*
X57857141Y-44535714D01*
X57785713Y-44392857D01*
X57785713Y-44250000D01*
X57857141Y-44107143D01*
X57928570Y-44035714D01*
X58071427Y-43964286D01*
X58357141Y-43892857D01*
X58499999Y-43821429D01*
X58571427Y-43750000D01*
X58642856Y-43607143D01*
X58642856Y-43464286D01*
X58571427Y-43321429D01*
X58499999Y-43250000D01*
X58357141Y-43178571D01*
X57999999Y-43178571D01*
X57785713Y-43250000D01*
X57357142Y-43178571D02*
X56499999Y-43178571D01*
X56928570Y-44678571D02*
X56928570Y-43178571D01*
X55999999Y-44678571D02*
X55999999Y-43178571D01*
X55499999Y-44250000D01*
X54999999Y-43178571D01*
X54999999Y-44678571D01*
X54428570Y-43178571D02*
X53499999Y-43178571D01*
X53999999Y-43750000D01*
X53785713Y-43750000D01*
X53642856Y-43821429D01*
X53571427Y-43892857D01*
X53499999Y-44035714D01*
X53499999Y-44392857D01*
X53571427Y-44535714D01*
X53642856Y-44607143D01*
X53785713Y-44678571D01*
X54214285Y-44678571D01*
X54357142Y-44607143D01*
X54428570Y-44535714D01*
X52928571Y-43321429D02*
X52857142Y-43250000D01*
X52714285Y-43178571D01*
X52357142Y-43178571D01*
X52214285Y-43250000D01*
X52142856Y-43321429D01*
X52071428Y-43464286D01*
X52071428Y-43607143D01*
X52142856Y-43821429D01*
X52999999Y-44678571D01*
X52071428Y-44678571D01*
X50928571Y-43892857D02*
X51428571Y-43892857D01*
X51428571Y-44678571D02*
X51428571Y-43178571D01*
X50714285Y-43178571D01*
X49857143Y-43178571D02*
X49714286Y-43178571D01*
X49571429Y-43250000D01*
X49500000Y-43321429D01*
X49428571Y-43464286D01*
X49357143Y-43750000D01*
X49357143Y-44107143D01*
X49428571Y-44392857D01*
X49500000Y-44535714D01*
X49571429Y-44607143D01*
X49714286Y-44678571D01*
X49857143Y-44678571D01*
X50000000Y-44607143D01*
X50071429Y-44535714D01*
X50142857Y-44392857D01*
X50214286Y-44107143D01*
X50214286Y-43750000D01*
X50142857Y-43464286D01*
X50071429Y-43321429D01*
X50000000Y-43250000D01*
X49857143Y-43178571D01*
X48857143Y-43178571D02*
X47928572Y-43178571D01*
X48428572Y-43750000D01*
X48214286Y-43750000D01*
X48071429Y-43821429D01*
X48000000Y-43892857D01*
X47928572Y-44035714D01*
X47928572Y-44392857D01*
X48000000Y-44535714D01*
X48071429Y-44607143D01*
X48214286Y-44678571D01*
X48642858Y-44678571D01*
X48785715Y-44607143D01*
X48857143Y-44535714D01*
X47000001Y-43178571D02*
X46857144Y-43178571D01*
X46714287Y-43250000D01*
X46642858Y-43321429D01*
X46571429Y-43464286D01*
X46500001Y-43750000D01*
X46500001Y-44107143D01*
X46571429Y-44392857D01*
X46642858Y-44535714D01*
X46714287Y-44607143D01*
X46857144Y-44678571D01*
X47000001Y-44678571D01*
X47142858Y-44607143D01*
X47214287Y-44535714D01*
X47285715Y-44392857D01*
X47357144Y-44107143D01*
X47357144Y-43750000D01*
X47285715Y-43464286D01*
X47214287Y-43321429D01*
X47142858Y-43250000D01*
X47000001Y-43178571D01*
X45857144Y-44107143D02*
X44714287Y-44107143D01*
X44000001Y-43892857D02*
X43500001Y-43892857D01*
X43285715Y-44678571D02*
X44000001Y-44678571D01*
X44000001Y-43178571D01*
X43285715Y-43178571D01*
X42857144Y-43678571D02*
X42285715Y-43678571D01*
X42642858Y-43178571D02*
X42642858Y-44464286D01*
X42571430Y-44607143D01*
X42428572Y-44678571D01*
X42285715Y-44678571D01*
X41785715Y-44678571D02*
X41785715Y-43178571D01*
X41142858Y-44678571D02*
X41142858Y-43892857D01*
X41214287Y-43750000D01*
X41357144Y-43678571D01*
X41571429Y-43678571D01*
X41714287Y-43750000D01*
X41785715Y-43821429D01*
X39857144Y-44607143D02*
X40000001Y-44678571D01*
X40285715Y-44678571D01*
X40428572Y-44607143D01*
X40500001Y-44464286D01*
X40500001Y-43892857D01*
X40428572Y-43750000D01*
X40285715Y-43678571D01*
X40000001Y-43678571D01*
X39857144Y-43750000D01*
X39785715Y-43892857D01*
X39785715Y-44035714D01*
X40500001Y-44178571D01*
X39142858Y-44678571D02*
X39142858Y-43678571D01*
X39142858Y-43964286D02*
X39071430Y-43821429D01*
X39000001Y-43750000D01*
X38857144Y-43678571D01*
X38714287Y-43678571D01*
X38214287Y-43678571D02*
X38214287Y-44678571D01*
X38214287Y-43821429D02*
X38142859Y-43750000D01*
X38000001Y-43678571D01*
X37785716Y-43678571D01*
X37642859Y-43750000D01*
X37571430Y-43892857D01*
X37571430Y-44678571D01*
X36285716Y-44607143D02*
X36428573Y-44678571D01*
X36714287Y-44678571D01*
X36857144Y-44607143D01*
X36928573Y-44464286D01*
X36928573Y-43892857D01*
X36857144Y-43750000D01*
X36714287Y-43678571D01*
X36428573Y-43678571D01*
X36285716Y-43750000D01*
X36214287Y-43892857D01*
X36214287Y-44035714D01*
X36928573Y-44178571D01*
X35785716Y-43678571D02*
X35214287Y-43678571D01*
X35571430Y-43178571D02*
X35571430Y-44464286D01*
X35500002Y-44607143D01*
X35357144Y-44678571D01*
X35214287Y-44678571D01*
M02*
