G04 #@! TF.FileFunction,Paste,Top*
%FSLAX46Y46*%
G04 Gerber Fmt 4.6, Leading zero omitted, Abs format (unit mm)*
G04 Created by KiCad (PCBNEW 4.0.6-e0-6349~53~ubuntu16.04.1) date Mon Jul 24 21:03:44 2017*
%MOMM*%
%LPD*%
G01*
G04 APERTURE LIST*
%ADD10C,0.100000*%
%ADD11R,1.300000X0.250000*%
%ADD12R,0.250000X1.300000*%
%ADD13R,1.250000X1.500000*%
%ADD14R,1.500000X1.250000*%
%ADD15R,1.240000X0.800000*%
%ADD16R,1.150000X1.500000*%
%ADD17R,2.200000X1.150000*%
%ADD18R,2.500000X0.950000*%
%ADD19R,1.200000X1.200000*%
%ADD20R,2.000000X1.000000*%
%ADD21R,1.300000X1.500000*%
%ADD22R,1.500000X1.300000*%
%ADD23R,0.250000X1.000000*%
%ADD24R,1.000000X0.250000*%
%ADD25R,1.060000X0.650000*%
%ADD26R,0.650000X1.060000*%
%ADD27R,1.550000X1.300000*%
G04 APERTURE END LIST*
D10*
D11*
X62650000Y-28750000D03*
X62650000Y-29250000D03*
X62650000Y-29750000D03*
X62650000Y-30250000D03*
X62650000Y-30750000D03*
X62650000Y-31250000D03*
X62650000Y-31750000D03*
X62650000Y-32250000D03*
X62650000Y-32750000D03*
X62650000Y-33250000D03*
X62650000Y-33750000D03*
X62650000Y-34250000D03*
D12*
X64250000Y-35850000D03*
X64750000Y-35850000D03*
X65250000Y-35850000D03*
X65750000Y-35850000D03*
X66250000Y-35850000D03*
X66750000Y-35850000D03*
X67250000Y-35850000D03*
X67750000Y-35850000D03*
X68250000Y-35850000D03*
X68750000Y-35850000D03*
X69250000Y-35850000D03*
X69750000Y-35850000D03*
D11*
X71350000Y-34250000D03*
X71350000Y-33750000D03*
X71350000Y-33250000D03*
X71350000Y-32750000D03*
X71350000Y-32250000D03*
X71350000Y-31750000D03*
X71350000Y-31250000D03*
X71350000Y-30750000D03*
X71350000Y-30250000D03*
X71350000Y-29750000D03*
X71350000Y-29250000D03*
X71350000Y-28750000D03*
D12*
X69750000Y-27150000D03*
X69250000Y-27150000D03*
X68750000Y-27150000D03*
X68250000Y-27150000D03*
X67750000Y-27150000D03*
X67250000Y-27150000D03*
X66750000Y-27150000D03*
X66250000Y-27150000D03*
X65750000Y-27150000D03*
X65250000Y-27150000D03*
X64750000Y-27150000D03*
X64250000Y-27150000D03*
D13*
X57500000Y-43250000D03*
X57500000Y-45750000D03*
X57500000Y-60250000D03*
X57500000Y-57750000D03*
D14*
X46250000Y-61500000D03*
X48750000Y-61500000D03*
X46250000Y-64000000D03*
X48750000Y-64000000D03*
D13*
X78500000Y-53250000D03*
X78500000Y-55750000D03*
X82000000Y-53250000D03*
X82000000Y-55750000D03*
X76500000Y-32750000D03*
X76500000Y-35250000D03*
X76500000Y-27250000D03*
X76500000Y-29750000D03*
D14*
X55750000Y-38500000D03*
X58250000Y-38500000D03*
X55750000Y-36000000D03*
X58250000Y-36000000D03*
D15*
X32000000Y-45750006D03*
X32000000Y-46857148D03*
X32000000Y-47964290D03*
X32000000Y-49071432D03*
X32000000Y-50178574D03*
X32000000Y-51285716D03*
X32000000Y-52392858D03*
X32000000Y-53500000D03*
X32000000Y-43000000D03*
D16*
X44700000Y-46100000D03*
X44700000Y-53900000D03*
D17*
X44000000Y-58200000D03*
D18*
X32600000Y-58300000D03*
D19*
X62000000Y-39600000D03*
X62000000Y-37400000D03*
X71500000Y-39600000D03*
X71500000Y-37400000D03*
D20*
X64000000Y-22800000D03*
X64000000Y-24200000D03*
X68000000Y-22800000D03*
X68000000Y-24200000D03*
X72000000Y-22800000D03*
X72000000Y-24200000D03*
D21*
X74000000Y-29850000D03*
X74000000Y-27150000D03*
X61000000Y-25350000D03*
X61000000Y-22650000D03*
D22*
X48850000Y-41500000D03*
X46150000Y-41500000D03*
X39350000Y-41000000D03*
X36650000Y-41000000D03*
D21*
X68500000Y-38650000D03*
X68500000Y-41350000D03*
X65000000Y-38650000D03*
X65000000Y-41350000D03*
D22*
X55500000Y-33000000D03*
X58200000Y-33000000D03*
X55500000Y-30500000D03*
X58200000Y-30500000D03*
X55500000Y-25300000D03*
X58200000Y-25300000D03*
X55500000Y-27900000D03*
X58200000Y-27900000D03*
D23*
X62750000Y-55700000D03*
X63250000Y-55700000D03*
X63750000Y-55700000D03*
X64250000Y-55700000D03*
X64750000Y-55700000D03*
X65250000Y-55700000D03*
X65750000Y-55700000D03*
X66250000Y-55700000D03*
X66750000Y-55700000D03*
X67250000Y-55700000D03*
X67750000Y-55700000D03*
X68250000Y-55700000D03*
X68750000Y-55700000D03*
X69250000Y-55700000D03*
X69750000Y-55700000D03*
X70250000Y-55700000D03*
D24*
X72200000Y-53750000D03*
X72200000Y-53250000D03*
X72200000Y-52750000D03*
X72200000Y-52250000D03*
X72200000Y-51750000D03*
X72200000Y-51250000D03*
X72200000Y-50750000D03*
X72200000Y-50250000D03*
X72200000Y-49750000D03*
X72200000Y-49250000D03*
X72200000Y-48750000D03*
X72200000Y-48250000D03*
X72200000Y-47750000D03*
X72200000Y-47250000D03*
X72200000Y-46750000D03*
X72200000Y-46250000D03*
D23*
X70250000Y-44300000D03*
X69750000Y-44300000D03*
X69250000Y-44300000D03*
X68750000Y-44300000D03*
X68250000Y-44300000D03*
X67750000Y-44300000D03*
X67250000Y-44300000D03*
X66750000Y-44300000D03*
X66250000Y-44300000D03*
X65750000Y-44300000D03*
X65250000Y-44300000D03*
X64750000Y-44300000D03*
X64250000Y-44300000D03*
X63750000Y-44300000D03*
X63250000Y-44300000D03*
X62750000Y-44300000D03*
D24*
X60800000Y-46250000D03*
X60800000Y-46750000D03*
X60800000Y-47250000D03*
X60800000Y-47750000D03*
X60800000Y-48250000D03*
X60800000Y-48750000D03*
X60800000Y-49250000D03*
X60800000Y-49750000D03*
X60800000Y-50250000D03*
X60800000Y-50750000D03*
X60800000Y-51250000D03*
X60800000Y-51750000D03*
X60800000Y-52250000D03*
X60800000Y-52750000D03*
X60800000Y-53250000D03*
X60800000Y-53750000D03*
D25*
X41400000Y-61550000D03*
X41400000Y-62500000D03*
X41400000Y-63450000D03*
X43600000Y-63450000D03*
X43600000Y-61550000D03*
D26*
X81125000Y-48610952D03*
X80175000Y-48610952D03*
X79225000Y-48610952D03*
X79225000Y-50810952D03*
X81125000Y-50810952D03*
D13*
X74000000Y-35250000D03*
X74000000Y-32750000D03*
D14*
X70250000Y-66750000D03*
X72750000Y-66750000D03*
D27*
X51025000Y-63250000D03*
X58975000Y-63250000D03*
X51025000Y-67750000D03*
X58975000Y-67750000D03*
M02*
