G04 #@! TF.FileFunction,Soldermask,Top*
%FSLAX46Y46*%
G04 Gerber Fmt 4.6, Leading zero omitted, Abs format (unit mm)*
G04 Created by KiCad (PCBNEW 4.0.6-e0-6349~53~ubuntu16.04.1) date Mon Jul 24 21:03:44 2017*
%MOMM*%
%LPD*%
G01*
G04 APERTURE LIST*
%ADD10C,0.100000*%
%ADD11R,1.700000X0.650000*%
%ADD12R,0.650000X1.700000*%
%ADD13R,1.650000X1.900000*%
%ADD14R,1.900000X1.650000*%
%ADD15R,1.640000X1.200000*%
%ADD16R,1.550000X1.900000*%
%ADD17R,2.600000X1.550000*%
%ADD18R,2.900000X1.350000*%
%ADD19R,1.600000X1.600000*%
%ADD20R,2.400000X1.400000*%
%ADD21R,2.127200X2.432000*%
%ADD22O,2.127200X2.432000*%
%ADD23R,2.432000X2.432000*%
%ADD24O,2.432000X2.432000*%
%ADD25C,1.924000*%
%ADD26C,2.400000*%
%ADD27C,3.800000*%
%ADD28R,1.700000X1.900000*%
%ADD29R,1.900000X1.700000*%
%ADD30R,0.650000X1.400000*%
%ADD31R,1.400000X0.650000*%
%ADD32R,1.460000X1.050000*%
%ADD33R,1.050000X1.460000*%
%ADD34R,2.400000X8.275000*%
%ADD35R,1.950000X1.700000*%
G04 APERTURE END LIST*
D10*
D11*
X62650000Y-28750000D03*
X62650000Y-29250000D03*
X62650000Y-29750000D03*
X62650000Y-30250000D03*
X62650000Y-30750000D03*
X62650000Y-31250000D03*
X62650000Y-31750000D03*
X62650000Y-32250000D03*
X62650000Y-32750000D03*
X62650000Y-33250000D03*
X62650000Y-33750000D03*
X62650000Y-34250000D03*
D12*
X64250000Y-35850000D03*
X64750000Y-35850000D03*
X65250000Y-35850000D03*
X65750000Y-35850000D03*
X66250000Y-35850000D03*
X66750000Y-35850000D03*
X67250000Y-35850000D03*
X67750000Y-35850000D03*
X68250000Y-35850000D03*
X68750000Y-35850000D03*
X69250000Y-35850000D03*
X69750000Y-35850000D03*
D11*
X71350000Y-34250000D03*
X71350000Y-33750000D03*
X71350000Y-33250000D03*
X71350000Y-32750000D03*
X71350000Y-32250000D03*
X71350000Y-31750000D03*
X71350000Y-31250000D03*
X71350000Y-30750000D03*
X71350000Y-30250000D03*
X71350000Y-29750000D03*
X71350000Y-29250000D03*
X71350000Y-28750000D03*
D12*
X69750000Y-27150000D03*
X69250000Y-27150000D03*
X68750000Y-27150000D03*
X68250000Y-27150000D03*
X67750000Y-27150000D03*
X67250000Y-27150000D03*
X66750000Y-27150000D03*
X66250000Y-27150000D03*
X65750000Y-27150000D03*
X65250000Y-27150000D03*
X64750000Y-27150000D03*
X64250000Y-27150000D03*
D13*
X57500000Y-43250000D03*
X57500000Y-45750000D03*
X57500000Y-60250000D03*
X57500000Y-57750000D03*
D14*
X46250000Y-61500000D03*
X48750000Y-61500000D03*
X46250000Y-64000000D03*
X48750000Y-64000000D03*
D13*
X78500000Y-53250000D03*
X78500000Y-55750000D03*
X82000000Y-53250000D03*
X82000000Y-55750000D03*
X76500000Y-32750000D03*
X76500000Y-35250000D03*
X76500000Y-27250000D03*
X76500000Y-29750000D03*
D14*
X55750000Y-38500000D03*
X58250000Y-38500000D03*
X55750000Y-36000000D03*
X58250000Y-36000000D03*
D15*
X32000000Y-45750006D03*
X32000000Y-46857148D03*
X32000000Y-47964290D03*
X32000000Y-49071432D03*
X32000000Y-50178574D03*
X32000000Y-51285716D03*
X32000000Y-52392858D03*
X32000000Y-53500000D03*
X32000000Y-43000000D03*
D16*
X44700000Y-46100000D03*
X44700000Y-53900000D03*
D17*
X44000000Y-58200000D03*
D18*
X32600000Y-58300000D03*
D19*
X62000000Y-39600000D03*
X62000000Y-37400000D03*
X71500000Y-39600000D03*
X71500000Y-37400000D03*
D20*
X64000000Y-22800000D03*
X64000000Y-24200000D03*
X68000000Y-22800000D03*
X68000000Y-24200000D03*
X72000000Y-22800000D03*
X72000000Y-24200000D03*
D21*
X76120000Y-62500000D03*
D22*
X73580000Y-62500000D03*
X71040000Y-62500000D03*
X68500000Y-62500000D03*
X65960000Y-62500000D03*
X63420000Y-62500000D03*
D23*
X90500000Y-21960000D03*
D24*
X90500000Y-24500000D03*
D23*
X90500000Y-29868000D03*
D24*
X90500000Y-32408000D03*
D23*
X90500000Y-37776000D03*
D24*
X90500000Y-40316000D03*
D23*
X90500000Y-45684000D03*
D24*
X90500000Y-48224000D03*
D23*
X90500000Y-53592000D03*
D24*
X90500000Y-56132000D03*
D23*
X90500000Y-61500000D03*
D24*
X90500000Y-64040000D03*
D21*
X56880000Y-71500000D03*
D22*
X59420000Y-71500000D03*
X61960000Y-71500000D03*
X64500000Y-71500000D03*
X67040000Y-71500000D03*
X69580000Y-71500000D03*
X72120000Y-71500000D03*
X74660000Y-71500000D03*
D23*
X80460000Y-71500000D03*
D24*
X83000000Y-71500000D03*
D23*
X88000000Y-71500000D03*
D24*
X90540000Y-71500000D03*
D23*
X31500000Y-62960000D03*
D24*
X31500000Y-65500000D03*
D23*
X42000000Y-72000000D03*
D24*
X44540000Y-72000000D03*
D23*
X31500000Y-69460000D03*
D24*
X31500000Y-72000000D03*
D25*
X47700000Y-27050000D03*
X50300000Y-28350000D03*
X47700000Y-29583333D03*
X50300000Y-30883333D03*
X47700000Y-32116666D03*
X50300000Y-33416666D03*
X47700000Y-34649999D03*
X50300000Y-35949999D03*
D26*
X44400000Y-39400000D03*
X44400000Y-23900000D03*
D25*
X38150000Y-27650000D03*
X36650000Y-25100000D03*
X38150000Y-37800000D03*
X36650000Y-35300000D03*
D27*
X41300000Y-37700000D03*
X41300000Y-25800000D03*
D28*
X74000000Y-29850000D03*
X74000000Y-27150000D03*
X61000000Y-25350000D03*
X61000000Y-22650000D03*
D29*
X48850000Y-41500000D03*
X46150000Y-41500000D03*
X39350000Y-41000000D03*
X36650000Y-41000000D03*
D28*
X68500000Y-38650000D03*
X68500000Y-41350000D03*
X65000000Y-38650000D03*
X65000000Y-41350000D03*
D29*
X55500000Y-33000000D03*
X58200000Y-33000000D03*
X55500000Y-30500000D03*
X58200000Y-30500000D03*
X55500000Y-25300000D03*
X58200000Y-25300000D03*
X55500000Y-27900000D03*
X58200000Y-27900000D03*
D30*
X62750000Y-55700000D03*
X63250000Y-55700000D03*
X63750000Y-55700000D03*
X64250000Y-55700000D03*
X64750000Y-55700000D03*
X65250000Y-55700000D03*
X65750000Y-55700000D03*
X66250000Y-55700000D03*
X66750000Y-55700000D03*
X67250000Y-55700000D03*
X67750000Y-55700000D03*
X68250000Y-55700000D03*
X68750000Y-55700000D03*
X69250000Y-55700000D03*
X69750000Y-55700000D03*
X70250000Y-55700000D03*
D31*
X72200000Y-53750000D03*
X72200000Y-53250000D03*
X72200000Y-52750000D03*
X72200000Y-52250000D03*
X72200000Y-51750000D03*
X72200000Y-51250000D03*
X72200000Y-50750000D03*
X72200000Y-50250000D03*
X72200000Y-49750000D03*
X72200000Y-49250000D03*
X72200000Y-48750000D03*
X72200000Y-48250000D03*
X72200000Y-47750000D03*
X72200000Y-47250000D03*
X72200000Y-46750000D03*
X72200000Y-46250000D03*
D30*
X70250000Y-44300000D03*
X69750000Y-44300000D03*
X69250000Y-44300000D03*
X68750000Y-44300000D03*
X68250000Y-44300000D03*
X67750000Y-44300000D03*
X67250000Y-44300000D03*
X66750000Y-44300000D03*
X66250000Y-44300000D03*
X65750000Y-44300000D03*
X65250000Y-44300000D03*
X64750000Y-44300000D03*
X64250000Y-44300000D03*
X63750000Y-44300000D03*
X63250000Y-44300000D03*
X62750000Y-44300000D03*
D31*
X60800000Y-46250000D03*
X60800000Y-46750000D03*
X60800000Y-47250000D03*
X60800000Y-47750000D03*
X60800000Y-48250000D03*
X60800000Y-48750000D03*
X60800000Y-49250000D03*
X60800000Y-49750000D03*
X60800000Y-50250000D03*
X60800000Y-50750000D03*
X60800000Y-51250000D03*
X60800000Y-51750000D03*
X60800000Y-52250000D03*
X60800000Y-52750000D03*
X60800000Y-53250000D03*
X60800000Y-53750000D03*
D32*
X41400000Y-61550000D03*
X41400000Y-62500000D03*
X41400000Y-63450000D03*
X43600000Y-63450000D03*
X43600000Y-61550000D03*
D33*
X81125000Y-48610952D03*
X80175000Y-48610952D03*
X79225000Y-48610952D03*
X79225000Y-50810952D03*
X81125000Y-50810952D03*
D34*
X53000000Y-57437500D03*
X53000000Y-45562500D03*
X81000000Y-38937500D03*
X81000000Y-27062500D03*
D13*
X74000000Y-35250000D03*
X74000000Y-32750000D03*
D14*
X70250000Y-66750000D03*
X72750000Y-66750000D03*
D35*
X51025000Y-63250000D03*
X58975000Y-63250000D03*
X51025000Y-67750000D03*
X58975000Y-67750000D03*
M02*
