G04 #@! TF.FileFunction,Copper,L2,Bot,Signal*
%FSLAX46Y46*%
G04 Gerber Fmt 4.6, Leading zero omitted, Abs format (unit mm)*
G04 Created by KiCad (PCBNEW 4.0.6-e0-6349~53~ubuntu16.04.1) date Mon Jul 24 21:03:44 2017*
%MOMM*%
%LPD*%
G01*
G04 APERTURE LIST*
%ADD10C,0.100000*%
%ADD11R,1.727200X2.032000*%
%ADD12O,1.727200X2.032000*%
%ADD13R,2.032000X2.032000*%
%ADD14O,2.032000X2.032000*%
%ADD15C,1.524000*%
%ADD16C,2.000000*%
%ADD17C,3.400000*%
%ADD18C,0.600000*%
%ADD19C,0.350000*%
%ADD20C,0.250000*%
%ADD21C,0.254000*%
G04 APERTURE END LIST*
D10*
D11*
X76120000Y-62500000D03*
D12*
X73580000Y-62500000D03*
X71040000Y-62500000D03*
X68500000Y-62500000D03*
X65960000Y-62500000D03*
X63420000Y-62500000D03*
D13*
X90500000Y-21960000D03*
D14*
X90500000Y-24500000D03*
D13*
X90500000Y-29868000D03*
D14*
X90500000Y-32408000D03*
D13*
X90500000Y-37776000D03*
D14*
X90500000Y-40316000D03*
D13*
X90500000Y-45684000D03*
D14*
X90500000Y-48224000D03*
D13*
X90500000Y-53592000D03*
D14*
X90500000Y-56132000D03*
D13*
X90500000Y-61500000D03*
D14*
X90500000Y-64040000D03*
D11*
X56880000Y-71500000D03*
D12*
X59420000Y-71500000D03*
X61960000Y-71500000D03*
X64500000Y-71500000D03*
X67040000Y-71500000D03*
X69580000Y-71500000D03*
X72120000Y-71500000D03*
X74660000Y-71500000D03*
D13*
X80460000Y-71500000D03*
D14*
X83000000Y-71500000D03*
D13*
X88000000Y-71500000D03*
D14*
X90540000Y-71500000D03*
D13*
X31500000Y-62960000D03*
D14*
X31500000Y-65500000D03*
D13*
X42000000Y-72000000D03*
D14*
X44540000Y-72000000D03*
D13*
X31500000Y-69460000D03*
D14*
X31500000Y-72000000D03*
D15*
X47700000Y-27050000D03*
X50300000Y-28350000D03*
X47700000Y-29583333D03*
X50300000Y-30883333D03*
X47700000Y-32116666D03*
X50300000Y-33416666D03*
X47700000Y-34649999D03*
X50300000Y-35949999D03*
D16*
X44400000Y-39400000D03*
X44400000Y-23900000D03*
D15*
X38150000Y-27650000D03*
X36650000Y-25100000D03*
X38150000Y-37800000D03*
X36650000Y-35300000D03*
D17*
X41300000Y-37700000D03*
X41300000Y-25800000D03*
D18*
X55000000Y-63250000D03*
X73700000Y-48100000D03*
X63900000Y-42900000D03*
X34000000Y-51300000D03*
X34700000Y-59900000D03*
X42500000Y-64500000D03*
X48700000Y-65700000D03*
X47900000Y-59100000D03*
X46000000Y-53900000D03*
X42700000Y-45100000D03*
X34100000Y-41100000D03*
X69900000Y-57800000D03*
X59300000Y-53200000D03*
X81500000Y-54500000D03*
X76800000Y-55900000D03*
X80200000Y-50300000D03*
X69100000Y-32100000D03*
X79800000Y-33700000D03*
X75300000Y-33100000D03*
X78400000Y-30500000D03*
X74000000Y-36800000D03*
X73500000Y-38300000D03*
X63700000Y-37400000D03*
X59800000Y-35500000D03*
X60700000Y-33500000D03*
X59900000Y-29200000D03*
X70000000Y-22800000D03*
X64300000Y-25800000D03*
X73900000Y-46200000D03*
X73900000Y-41123740D03*
X73627373Y-44623806D03*
X42910359Y-62526368D03*
X72374990Y-32794267D03*
X72374990Y-35900000D03*
X62600000Y-42900000D03*
X57000000Y-39100000D03*
X63700000Y-52400000D03*
X69800000Y-49100000D03*
X67300000Y-52400000D03*
X62100000Y-53700000D03*
X62900000Y-56900000D03*
X61600000Y-56600000D03*
X44600000Y-68600000D03*
X42500000Y-60000000D03*
X55700000Y-34500000D03*
X53800000Y-25400000D03*
X53500000Y-28800000D03*
X61327426Y-32137127D03*
X61000000Y-30375010D03*
X65013044Y-34614387D03*
X64500000Y-32900000D03*
X68400000Y-34400000D03*
X72874996Y-32104923D03*
X75269572Y-31345883D03*
X83600000Y-45400000D03*
X56500000Y-50700000D03*
X59369750Y-50709077D03*
X55700000Y-51300000D03*
X66665579Y-31414111D03*
X66945415Y-48339506D03*
X54000000Y-51700000D03*
X69100000Y-30500000D03*
X67000000Y-49900000D03*
X55000000Y-51900000D03*
X68008051Y-30708051D03*
X67147212Y-49113649D03*
X67054807Y-54704939D03*
X66702167Y-56959016D03*
X74325010Y-51700000D03*
X72425010Y-56300000D03*
X73700000Y-50700000D03*
X71800000Y-55400000D03*
X66173776Y-53777069D03*
X65200000Y-57000000D03*
X61300000Y-62000000D03*
X62600000Y-64100000D03*
X75940271Y-43996004D03*
X83300000Y-58800000D03*
X76600000Y-43325010D03*
X84100000Y-58600000D03*
X85000000Y-58600000D03*
X78000000Y-42700000D03*
X65600000Y-53200000D03*
X86000000Y-68700000D03*
X60079131Y-39849836D03*
X61200000Y-38500000D03*
X67500000Y-40000000D03*
X70800000Y-35200000D03*
X59412022Y-39408265D03*
X60700000Y-37800000D03*
X69974990Y-35710087D03*
X69900000Y-37500000D03*
X70192404Y-33962206D03*
X67625010Y-37395131D03*
X75150012Y-46134901D03*
X70800000Y-27400000D03*
X73745493Y-45415050D03*
X72000000Y-28025010D03*
X67807575Y-54434090D03*
X67500000Y-56900000D03*
X64202024Y-54528668D03*
X60924990Y-56165143D03*
X60172695Y-57072695D03*
X64000000Y-57000000D03*
X60750000Y-66000000D03*
X69250000Y-65750000D03*
X61000000Y-67400000D03*
X65300000Y-67500000D03*
X76700000Y-64700000D03*
X78500000Y-63900000D03*
X80200000Y-58600000D03*
X80200000Y-56200000D03*
D19*
X34700000Y-59900000D02*
X34800000Y-59800000D01*
X34800000Y-59800000D02*
X34800000Y-59600000D01*
X76800000Y-55900000D02*
X77000000Y-55900000D01*
X77000000Y-55900000D02*
X77100000Y-55800000D01*
D20*
X75300000Y-33100000D02*
X75900000Y-33700000D01*
X75900000Y-33700000D02*
X79800000Y-33700000D01*
X73500000Y-37300000D02*
X74000000Y-36800000D01*
X73500000Y-38300000D02*
X73500000Y-37300000D01*
D19*
X71000000Y-49100000D02*
X73600001Y-46499999D01*
X69800000Y-49100000D02*
X71000000Y-49100000D01*
X73600001Y-46499999D02*
X73900000Y-46200000D01*
X73627373Y-44623806D02*
X73627373Y-41396367D01*
X73627373Y-41396367D02*
X73900000Y-41123740D01*
X42500000Y-62116009D02*
X42610360Y-62226369D01*
X42500000Y-60000000D02*
X42500000Y-62116009D01*
X42610360Y-62226369D02*
X42910359Y-62526368D01*
X72374990Y-35900000D02*
X72374990Y-32794267D01*
X57000000Y-39100000D02*
X60800000Y-42900000D01*
X60800000Y-42900000D02*
X62600000Y-42900000D01*
X62100000Y-53700000D02*
X63400000Y-52400000D01*
X66875736Y-52400000D02*
X67300000Y-52400000D01*
X63400000Y-52400000D02*
X66875736Y-52400000D01*
X61600000Y-56600000D02*
X62600000Y-56600000D01*
X62600000Y-56600000D02*
X62900000Y-56900000D01*
X42000000Y-72000000D02*
X42000000Y-70634000D01*
X42000000Y-70634000D02*
X44034000Y-68600000D01*
X44034000Y-68600000D02*
X44600000Y-68600000D01*
X53500000Y-28800000D02*
X53500000Y-32300000D01*
X53500000Y-32300000D02*
X55700000Y-34500000D01*
X53500000Y-28800000D02*
X53500000Y-25700000D01*
X53500000Y-25700000D02*
X53800000Y-25400000D01*
X75693836Y-31345883D02*
X75269572Y-31345883D01*
X78444887Y-31345883D02*
X75693836Y-31345883D01*
X83600000Y-45400000D02*
X83600000Y-36500996D01*
X83600000Y-36500996D02*
X78444887Y-31345883D01*
X61000000Y-30375010D02*
X61000000Y-31809701D01*
X61027427Y-31837128D02*
X61327426Y-32137127D01*
X61000000Y-31809701D02*
X61027427Y-31837128D01*
X64713045Y-34314388D02*
X65013044Y-34614387D01*
X64500000Y-34101343D02*
X64713045Y-34314388D01*
X64500000Y-32900000D02*
X64500000Y-34101343D01*
X70695077Y-32104923D02*
X68400000Y-34400000D01*
X72874996Y-32104923D02*
X70695077Y-32104923D01*
D20*
X56509077Y-50709077D02*
X56500000Y-50700000D01*
X59369750Y-50709077D02*
X56509077Y-50709077D01*
X66945415Y-48339506D02*
X66521151Y-48339506D01*
X55700000Y-50575736D02*
X55700000Y-50875736D01*
X56275735Y-50000001D02*
X55700000Y-50575736D01*
X66521151Y-48339506D02*
X64760657Y-50100000D01*
X59585678Y-50000001D02*
X56275735Y-50000001D01*
X55700000Y-50875736D02*
X55700000Y-51300000D01*
X64760657Y-50100000D02*
X59685677Y-50100000D01*
X59685677Y-50100000D02*
X59585678Y-50000001D01*
X65899978Y-47294069D02*
X65899978Y-32179712D01*
X65899978Y-32179712D02*
X66365580Y-31714110D01*
X66945415Y-48339506D02*
X65899978Y-47294069D01*
X66365580Y-31714110D02*
X66665579Y-31414111D01*
X54000000Y-52124264D02*
X54000000Y-51700000D01*
X54700738Y-52825002D02*
X54000000Y-52124264D01*
X56761393Y-51800022D02*
X55736413Y-52825002D01*
X63474976Y-51800022D02*
X56761393Y-51800022D01*
X63499999Y-51774999D02*
X63474976Y-51800022D01*
X65125001Y-51774999D02*
X63499999Y-51774999D01*
X55736413Y-52825002D02*
X54700738Y-52825002D01*
X67000000Y-49900000D02*
X65125001Y-51774999D01*
X66800000Y-42500000D02*
X66800000Y-32800000D01*
X66800000Y-32800000D02*
X69100000Y-30500000D01*
X68900000Y-44600000D02*
X66800000Y-42500000D01*
X68900000Y-48424264D02*
X68900000Y-44600000D01*
X67000000Y-49900000D02*
X67424264Y-49900000D01*
X67424264Y-49900000D02*
X68900000Y-48424264D01*
X64886618Y-50949979D02*
X63688608Y-50949979D01*
X55299999Y-52199999D02*
X55000000Y-51900000D01*
X63288576Y-51350011D02*
X56574993Y-51350011D01*
X66722948Y-49113649D02*
X64886618Y-50949979D01*
X63688608Y-50949979D02*
X63288576Y-51350011D01*
X55725005Y-52199999D02*
X55299999Y-52199999D01*
X67147212Y-49113649D02*
X66722948Y-49113649D01*
X56574993Y-51350011D02*
X55725005Y-52199999D01*
X68449989Y-47810872D02*
X68449989Y-44786400D01*
X67708052Y-31008050D02*
X68008051Y-30708051D01*
X66349989Y-42686400D02*
X66349989Y-32613600D01*
X66349989Y-32613600D02*
X67708052Y-31255537D01*
X67147212Y-49113649D02*
X68449989Y-47810872D01*
X68449989Y-44786400D02*
X66349989Y-42686400D01*
X67708052Y-31255537D02*
X67708052Y-31008050D01*
X66702167Y-56959016D02*
X66702167Y-55057579D01*
X66702167Y-55057579D02*
X66754808Y-55004938D01*
X66754808Y-55004938D02*
X67054807Y-54704939D01*
X74325010Y-52124264D02*
X74325010Y-51700000D01*
X72425010Y-56300000D02*
X74325010Y-54400000D01*
X74325010Y-54400000D02*
X74325010Y-52124264D01*
X73700000Y-54000000D02*
X73700000Y-50700000D01*
X72300000Y-55400000D02*
X73700000Y-54000000D01*
X71800000Y-55400000D02*
X72300000Y-55400000D01*
X65873777Y-54077068D02*
X66173776Y-53777069D01*
X65200000Y-57000000D02*
X65200000Y-54750845D01*
X65200000Y-54750845D02*
X65873777Y-54077068D01*
X62600000Y-64100000D02*
X61300000Y-62800000D01*
X61300000Y-62800000D02*
X61300000Y-62000000D01*
X83300000Y-58800000D02*
X83300000Y-51355733D01*
X83300000Y-51355733D02*
X76240270Y-44296003D01*
X76240270Y-44296003D02*
X75940271Y-43996004D01*
X78925010Y-43325010D02*
X77024264Y-43325010D01*
X84100000Y-58600000D02*
X84100000Y-48500000D01*
X84100000Y-48500000D02*
X78925010Y-43325010D01*
X77024264Y-43325010D02*
X76600000Y-43325010D01*
X79400000Y-42700000D02*
X85000000Y-48300000D01*
X85000000Y-48300000D02*
X85000000Y-58600000D01*
X78000000Y-42700000D02*
X79400000Y-42700000D01*
X88000000Y-71500000D02*
X87300000Y-70800000D01*
X68432577Y-54134088D02*
X67423490Y-53125001D01*
X68432577Y-59232577D02*
X68432577Y-54134088D01*
X65674999Y-53125001D02*
X65600000Y-53200000D01*
X67423490Y-53125001D02*
X65674999Y-53125001D01*
X69800000Y-60600000D02*
X68432577Y-59232577D01*
X77900000Y-60600000D02*
X69800000Y-60600000D01*
X86000000Y-68700000D02*
X77900000Y-60600000D01*
X60079131Y-39620869D02*
X60079131Y-39849836D01*
X61200000Y-38500000D02*
X60079131Y-39620869D01*
X70300000Y-38025002D02*
X70248557Y-38025002D01*
X70248557Y-38025002D02*
X68273559Y-40000000D01*
X68273559Y-40000000D02*
X67500000Y-40000000D01*
X70599991Y-37725011D02*
X70300000Y-38025002D01*
X70800000Y-35200000D02*
X70599991Y-35400009D01*
X70599991Y-35400009D02*
X70599991Y-37725011D01*
X60700000Y-37800000D02*
X60700000Y-38120287D01*
X60700000Y-38120287D02*
X59412022Y-39408265D01*
X69900000Y-37500000D02*
X69900000Y-35785077D01*
X69900000Y-35785077D02*
X69974990Y-35710087D01*
X67625010Y-37395131D02*
X67625010Y-36529600D01*
X67625010Y-36529600D02*
X69892405Y-34262205D01*
X69892405Y-34262205D02*
X70192404Y-33962206D01*
X75150012Y-37025008D02*
X75150012Y-45710637D01*
X70800000Y-27400000D02*
X72300000Y-27400000D01*
X75150012Y-45710637D02*
X75150012Y-46134901D01*
X74593541Y-31718545D02*
X74593541Y-36468537D01*
X74574998Y-31700002D02*
X74593541Y-31718545D01*
X74574998Y-29674998D02*
X74574998Y-31700002D01*
X74593541Y-36468537D02*
X75150012Y-37025008D01*
X72300000Y-27400000D02*
X74574998Y-29674998D01*
X73510724Y-32394197D02*
X73000000Y-32904921D01*
X73000000Y-32904921D02*
X73000000Y-37574998D01*
X73510724Y-29535734D02*
X73510724Y-32394197D01*
X73000000Y-37574998D02*
X72874999Y-37699999D01*
X72874999Y-44968820D02*
X73321229Y-45415050D01*
X73321229Y-45415050D02*
X73745493Y-45415050D01*
X72874999Y-37699999D02*
X72874999Y-44968820D01*
X72000000Y-28025010D02*
X73510724Y-29535734D01*
X67807575Y-56592425D02*
X67807575Y-54858354D01*
X67807575Y-54858354D02*
X67807575Y-54434090D01*
X67500000Y-56900000D02*
X67807575Y-56592425D01*
X60924990Y-56165143D02*
X62561465Y-54528668D01*
X63777760Y-54528668D02*
X64202024Y-54528668D01*
X62561465Y-54528668D02*
X63777760Y-54528668D01*
X60472694Y-57372694D02*
X60172695Y-57072695D01*
X60625002Y-57525002D02*
X60472694Y-57372694D01*
X63474998Y-57525002D02*
X60625002Y-57525002D01*
X64000000Y-57000000D02*
X63474998Y-57525002D01*
X60750000Y-66000000D02*
X69000000Y-66000000D01*
X69000000Y-66000000D02*
X69250000Y-65750000D01*
X69250000Y-65750000D02*
X69250000Y-63250000D01*
X69250000Y-63250000D02*
X68500000Y-62500000D01*
D19*
X65200000Y-67400000D02*
X65300000Y-67500000D01*
X61000000Y-67400000D02*
X65200000Y-67400000D01*
X77700000Y-64700000D02*
X78500000Y-63900000D01*
X76700000Y-64700000D02*
X77700000Y-64700000D01*
X80200000Y-58600000D02*
X80200000Y-56200000D01*
D21*
G36*
X88836560Y-20944000D02*
X88836560Y-22976000D01*
X88880838Y-23211317D01*
X89019910Y-23427441D01*
X89166872Y-23527856D01*
X89162812Y-23531621D01*
X88894017Y-24117054D01*
X89012633Y-24373000D01*
X90373000Y-24373000D01*
X90373000Y-24353000D01*
X90627000Y-24353000D01*
X90627000Y-24373000D01*
X90647000Y-24373000D01*
X90647000Y-24627000D01*
X90627000Y-24627000D01*
X90627000Y-25986836D01*
X90882944Y-26105975D01*
X91364818Y-25906385D01*
X91790000Y-25512134D01*
X91790000Y-28270676D01*
X91767890Y-28255569D01*
X91516000Y-28204560D01*
X89484000Y-28204560D01*
X89248683Y-28248838D01*
X89032559Y-28387910D01*
X88887569Y-28600110D01*
X88836560Y-28852000D01*
X88836560Y-30884000D01*
X88880838Y-31119317D01*
X89019910Y-31335441D01*
X89166872Y-31435856D01*
X89162812Y-31439621D01*
X88894017Y-32025054D01*
X89012633Y-32281000D01*
X90373000Y-32281000D01*
X90373000Y-32261000D01*
X90627000Y-32261000D01*
X90627000Y-32281000D01*
X90647000Y-32281000D01*
X90647000Y-32535000D01*
X90627000Y-32535000D01*
X90627000Y-33894836D01*
X90882944Y-34013975D01*
X91364818Y-33814385D01*
X91790000Y-33420134D01*
X91790000Y-36178676D01*
X91767890Y-36163569D01*
X91516000Y-36112560D01*
X89484000Y-36112560D01*
X89248683Y-36156838D01*
X89032559Y-36295910D01*
X88887569Y-36508110D01*
X88836560Y-36760000D01*
X88836560Y-38792000D01*
X88880838Y-39027317D01*
X89019910Y-39243441D01*
X89166872Y-39343856D01*
X89162812Y-39347621D01*
X88894017Y-39933054D01*
X89012633Y-40189000D01*
X90373000Y-40189000D01*
X90373000Y-40169000D01*
X90627000Y-40169000D01*
X90627000Y-40189000D01*
X90647000Y-40189000D01*
X90647000Y-40443000D01*
X90627000Y-40443000D01*
X90627000Y-41802836D01*
X90882944Y-41921975D01*
X91364818Y-41722385D01*
X91790000Y-41328134D01*
X91790000Y-44086676D01*
X91767890Y-44071569D01*
X91516000Y-44020560D01*
X89484000Y-44020560D01*
X89248683Y-44064838D01*
X89032559Y-44203910D01*
X88887569Y-44416110D01*
X88836560Y-44668000D01*
X88836560Y-46700000D01*
X88880838Y-46935317D01*
X89019910Y-47151441D01*
X89166872Y-47251856D01*
X89162812Y-47255621D01*
X88894017Y-47841054D01*
X89012633Y-48097000D01*
X90373000Y-48097000D01*
X90373000Y-48077000D01*
X90627000Y-48077000D01*
X90627000Y-48097000D01*
X90647000Y-48097000D01*
X90647000Y-48351000D01*
X90627000Y-48351000D01*
X90627000Y-49710836D01*
X90882944Y-49829975D01*
X91364818Y-49630385D01*
X91790000Y-49236134D01*
X91790000Y-51994676D01*
X91767890Y-51979569D01*
X91516000Y-51928560D01*
X89484000Y-51928560D01*
X89248683Y-51972838D01*
X89032559Y-52111910D01*
X88887569Y-52324110D01*
X88836560Y-52576000D01*
X88836560Y-54608000D01*
X88880838Y-54843317D01*
X89019910Y-55059441D01*
X89166872Y-55159856D01*
X89162812Y-55163621D01*
X88894017Y-55749054D01*
X89012633Y-56005000D01*
X90373000Y-56005000D01*
X90373000Y-55985000D01*
X90627000Y-55985000D01*
X90627000Y-56005000D01*
X90647000Y-56005000D01*
X90647000Y-56259000D01*
X90627000Y-56259000D01*
X90627000Y-57618836D01*
X90882944Y-57737975D01*
X91364818Y-57538385D01*
X91790000Y-57144134D01*
X91790000Y-59902676D01*
X91767890Y-59887569D01*
X91516000Y-59836560D01*
X89484000Y-59836560D01*
X89248683Y-59880838D01*
X89032559Y-60019910D01*
X88887569Y-60232110D01*
X88836560Y-60484000D01*
X88836560Y-62516000D01*
X88880838Y-62751317D01*
X89019910Y-62967441D01*
X89166872Y-63067856D01*
X89162812Y-63071621D01*
X88894017Y-63657054D01*
X89012633Y-63913000D01*
X90373000Y-63913000D01*
X90373000Y-63893000D01*
X90627000Y-63893000D01*
X90627000Y-63913000D01*
X90647000Y-63913000D01*
X90647000Y-64167000D01*
X90627000Y-64167000D01*
X90627000Y-65526836D01*
X90882944Y-65645975D01*
X91364818Y-65446385D01*
X91790000Y-65052134D01*
X91790000Y-70407730D01*
X91739778Y-70332567D01*
X91204155Y-69974675D01*
X90572345Y-69849000D01*
X90507655Y-69849000D01*
X89875845Y-69974675D01*
X89573038Y-70177004D01*
X89480090Y-70032559D01*
X89267890Y-69887569D01*
X89016000Y-69836560D01*
X86984000Y-69836560D01*
X86748683Y-69880838D01*
X86532559Y-70019910D01*
X86387569Y-70232110D01*
X86336560Y-70484000D01*
X86336560Y-72516000D01*
X86380838Y-72751317D01*
X86405730Y-72790000D01*
X84016344Y-72790000D01*
X84199778Y-72667433D01*
X84557670Y-72131810D01*
X84683345Y-71500000D01*
X84557670Y-70868190D01*
X84199778Y-70332567D01*
X83664155Y-69974675D01*
X83032345Y-69849000D01*
X82967655Y-69849000D01*
X82335845Y-69974675D01*
X82033038Y-70177004D01*
X81940090Y-70032559D01*
X81727890Y-69887569D01*
X81476000Y-69836560D01*
X79444000Y-69836560D01*
X79208683Y-69880838D01*
X78992559Y-70019910D01*
X78847569Y-70232110D01*
X78796560Y-70484000D01*
X78796560Y-72516000D01*
X78840838Y-72751317D01*
X78865730Y-72790000D01*
X75616298Y-72790000D01*
X75951954Y-72414320D01*
X76145184Y-71861913D01*
X76000924Y-71627000D01*
X74787000Y-71627000D01*
X74787000Y-71647000D01*
X74533000Y-71647000D01*
X74533000Y-71627000D01*
X72247000Y-71627000D01*
X72247000Y-71647000D01*
X71993000Y-71647000D01*
X71993000Y-71627000D01*
X69707000Y-71627000D01*
X69707000Y-71647000D01*
X69453000Y-71647000D01*
X69453000Y-71627000D01*
X67167000Y-71627000D01*
X67167000Y-71647000D01*
X66913000Y-71647000D01*
X66913000Y-71627000D01*
X66893000Y-71627000D01*
X66893000Y-71373000D01*
X66913000Y-71373000D01*
X66913000Y-70013783D01*
X67167000Y-70013783D01*
X67167000Y-71373000D01*
X69453000Y-71373000D01*
X69453000Y-70013783D01*
X69707000Y-70013783D01*
X69707000Y-71373000D01*
X71993000Y-71373000D01*
X71993000Y-70013783D01*
X72247000Y-70013783D01*
X72247000Y-71373000D01*
X74533000Y-71373000D01*
X74533000Y-70013783D01*
X74787000Y-70013783D01*
X74787000Y-71373000D01*
X76000924Y-71373000D01*
X76145184Y-71138087D01*
X75951954Y-70585680D01*
X75562036Y-70149268D01*
X75034791Y-69895291D01*
X75019026Y-69892642D01*
X74787000Y-70013783D01*
X74533000Y-70013783D01*
X74300974Y-69892642D01*
X74285209Y-69895291D01*
X73757964Y-70149268D01*
X73390000Y-70561108D01*
X73022036Y-70149268D01*
X72494791Y-69895291D01*
X72479026Y-69892642D01*
X72247000Y-70013783D01*
X71993000Y-70013783D01*
X71760974Y-69892642D01*
X71745209Y-69895291D01*
X71217964Y-70149268D01*
X70850000Y-70561108D01*
X70482036Y-70149268D01*
X69954791Y-69895291D01*
X69939026Y-69892642D01*
X69707000Y-70013783D01*
X69453000Y-70013783D01*
X69220974Y-69892642D01*
X69205209Y-69895291D01*
X68677964Y-70149268D01*
X68310000Y-70561108D01*
X67942036Y-70149268D01*
X67414791Y-69895291D01*
X67399026Y-69892642D01*
X67167000Y-70013783D01*
X66913000Y-70013783D01*
X66680974Y-69892642D01*
X66665209Y-69895291D01*
X66137964Y-70149268D01*
X65766461Y-70565069D01*
X65559670Y-70255585D01*
X65073489Y-69930729D01*
X64500000Y-69816655D01*
X63926511Y-69930729D01*
X63440330Y-70255585D01*
X63230000Y-70570366D01*
X63019670Y-70255585D01*
X62533489Y-69930729D01*
X61960000Y-69816655D01*
X61386511Y-69930729D01*
X60900330Y-70255585D01*
X60690000Y-70570366D01*
X60479670Y-70255585D01*
X59993489Y-69930729D01*
X59420000Y-69816655D01*
X58846511Y-69930729D01*
X58360330Y-70255585D01*
X58350757Y-70269913D01*
X58346762Y-70248683D01*
X58207690Y-70032559D01*
X57995490Y-69887569D01*
X57743600Y-69836560D01*
X56016400Y-69836560D01*
X55781083Y-69880838D01*
X55564959Y-70019910D01*
X55419969Y-70232110D01*
X55368960Y-70484000D01*
X55368960Y-72516000D01*
X55413238Y-72751317D01*
X55438130Y-72790000D01*
X45977374Y-72790000D01*
X46145975Y-72382944D01*
X46026836Y-72127000D01*
X44667000Y-72127000D01*
X44667000Y-72147000D01*
X44413000Y-72147000D01*
X44413000Y-72127000D01*
X44393000Y-72127000D01*
X44393000Y-71873000D01*
X44413000Y-71873000D01*
X44413000Y-70512633D01*
X44667000Y-70512633D01*
X44667000Y-71873000D01*
X46026836Y-71873000D01*
X46145975Y-71617056D01*
X45946385Y-71135182D01*
X45508379Y-70662812D01*
X44922946Y-70394017D01*
X44667000Y-70512633D01*
X44413000Y-70512633D01*
X44157054Y-70394017D01*
X43571621Y-70662812D01*
X43567066Y-70667724D01*
X43480090Y-70532559D01*
X43341588Y-70437925D01*
X44294121Y-69485392D01*
X44413201Y-69534838D01*
X44785167Y-69535162D01*
X45128943Y-69393117D01*
X45392192Y-69130327D01*
X45534838Y-68786799D01*
X45535162Y-68414833D01*
X45393117Y-68071057D01*
X45130327Y-67807808D01*
X44786799Y-67665162D01*
X44414833Y-67664838D01*
X44111917Y-67790000D01*
X44034000Y-67790000D01*
X43724026Y-67851658D01*
X43639992Y-67907808D01*
X43461243Y-68027244D01*
X41427244Y-70061244D01*
X41251658Y-70324026D01*
X41249165Y-70336560D01*
X40984000Y-70336560D01*
X40748683Y-70380838D01*
X40532559Y-70519910D01*
X40387569Y-70732110D01*
X40336560Y-70984000D01*
X40336560Y-72790000D01*
X32919089Y-72790000D01*
X33105983Y-72382946D01*
X32987367Y-72127000D01*
X31627000Y-72127000D01*
X31627000Y-72147000D01*
X31373000Y-72147000D01*
X31373000Y-72127000D01*
X31353000Y-72127000D01*
X31353000Y-71873000D01*
X31373000Y-71873000D01*
X31373000Y-71853000D01*
X31627000Y-71853000D01*
X31627000Y-71873000D01*
X32987367Y-71873000D01*
X33105983Y-71617054D01*
X32837188Y-71031621D01*
X32832276Y-71027066D01*
X32967441Y-70940090D01*
X33112431Y-70727890D01*
X33163440Y-70476000D01*
X33163440Y-68444000D01*
X33119162Y-68208683D01*
X32980090Y-67992559D01*
X32767890Y-67847569D01*
X32516000Y-67796560D01*
X30710000Y-67796560D01*
X30710000Y-66937374D01*
X31117056Y-67105975D01*
X31373000Y-66986836D01*
X31373000Y-65627000D01*
X31627000Y-65627000D01*
X31627000Y-66986836D01*
X31882944Y-67105975D01*
X32364818Y-66906385D01*
X32837188Y-66468379D01*
X33105983Y-65882946D01*
X32987367Y-65627000D01*
X31627000Y-65627000D01*
X31373000Y-65627000D01*
X31353000Y-65627000D01*
X31353000Y-65373000D01*
X31373000Y-65373000D01*
X31373000Y-65353000D01*
X31627000Y-65353000D01*
X31627000Y-65373000D01*
X32987367Y-65373000D01*
X33105983Y-65117054D01*
X32837188Y-64531621D01*
X32832276Y-64527066D01*
X32967441Y-64440090D01*
X33112431Y-64227890D01*
X33163440Y-63976000D01*
X33163440Y-61944000D01*
X33119162Y-61708683D01*
X32980090Y-61492559D01*
X32767890Y-61347569D01*
X32516000Y-61296560D01*
X30710000Y-61296560D01*
X30710000Y-60185167D01*
X41564838Y-60185167D01*
X41690000Y-60488083D01*
X41690000Y-62116009D01*
X41751658Y-62425983D01*
X41820454Y-62528943D01*
X41927244Y-62688765D01*
X41992930Y-62754451D01*
X42117242Y-63055311D01*
X42380032Y-63318560D01*
X42723560Y-63461206D01*
X43095526Y-63461530D01*
X43439302Y-63319485D01*
X43702551Y-63056695D01*
X43845197Y-62713167D01*
X43845521Y-62341201D01*
X43781050Y-62185167D01*
X60364838Y-62185167D01*
X60506883Y-62528943D01*
X60540000Y-62562118D01*
X60540000Y-62800000D01*
X60597852Y-63090839D01*
X60762599Y-63337401D01*
X61664878Y-64239680D01*
X61664838Y-64285167D01*
X61806883Y-64628943D01*
X62069673Y-64892192D01*
X62413201Y-65034838D01*
X62785167Y-65035162D01*
X63128943Y-64893117D01*
X63392192Y-64630327D01*
X63534838Y-64286799D01*
X63534956Y-64151000D01*
X63547002Y-64151000D01*
X63547002Y-63986218D01*
X63779026Y-64107358D01*
X63794791Y-64104709D01*
X64322036Y-63850732D01*
X64690000Y-63438892D01*
X65057964Y-63850732D01*
X65585209Y-64104709D01*
X65600974Y-64107358D01*
X65833000Y-63986217D01*
X65833000Y-62627000D01*
X63547000Y-62627000D01*
X63547000Y-62647000D01*
X63293000Y-62647000D01*
X63293000Y-62627000D01*
X63273000Y-62627000D01*
X63273000Y-62373000D01*
X63293000Y-62373000D01*
X63293000Y-61013783D01*
X63547000Y-61013783D01*
X63547000Y-62373000D01*
X65833000Y-62373000D01*
X65833000Y-61013783D01*
X65600974Y-60892642D01*
X65585209Y-60895291D01*
X65057964Y-61149268D01*
X64690000Y-61561108D01*
X64322036Y-61149268D01*
X63794791Y-60895291D01*
X63779026Y-60892642D01*
X63547000Y-61013783D01*
X63293000Y-61013783D01*
X63060974Y-60892642D01*
X63045209Y-60895291D01*
X62517964Y-61149268D01*
X62136547Y-61576166D01*
X62093117Y-61471057D01*
X61830327Y-61207808D01*
X61486799Y-61065162D01*
X61114833Y-61064838D01*
X60771057Y-61206883D01*
X60507808Y-61469673D01*
X60365162Y-61813201D01*
X60364838Y-62185167D01*
X43781050Y-62185167D01*
X43703476Y-61997425D01*
X43440686Y-61734176D01*
X43310000Y-61679910D01*
X43310000Y-60487441D01*
X43434838Y-60186799D01*
X43435162Y-59814833D01*
X43293117Y-59471057D01*
X43030327Y-59207808D01*
X42686799Y-59065162D01*
X42314833Y-59064838D01*
X41971057Y-59206883D01*
X41707808Y-59469673D01*
X41565162Y-59813201D01*
X41564838Y-60185167D01*
X30710000Y-60185167D01*
X30710000Y-51885167D01*
X53064838Y-51885167D01*
X53206883Y-52228943D01*
X53274245Y-52296422D01*
X53297852Y-52415103D01*
X53462599Y-52661665D01*
X54163337Y-53362403D01*
X54409898Y-53527150D01*
X54700738Y-53585002D01*
X55736413Y-53585002D01*
X56027252Y-53527150D01*
X56273814Y-53362403D01*
X57076195Y-52560022D01*
X62094466Y-52560022D01*
X61871917Y-52782570D01*
X61571057Y-52906883D01*
X61307808Y-53169673D01*
X61165162Y-53513201D01*
X61164838Y-53885167D01*
X61306883Y-54228943D01*
X61546426Y-54468905D01*
X60785310Y-55230021D01*
X60739823Y-55229981D01*
X60396047Y-55372026D01*
X60132798Y-55634816D01*
X59990152Y-55978344D01*
X59990013Y-56137535D01*
X59987528Y-56137533D01*
X59643752Y-56279578D01*
X59380503Y-56542368D01*
X59237857Y-56885896D01*
X59237533Y-57257862D01*
X59379578Y-57601638D01*
X59642368Y-57864887D01*
X59985896Y-58007533D01*
X60032772Y-58007574D01*
X60087601Y-58062403D01*
X60334163Y-58227150D01*
X60625002Y-58285002D01*
X63474998Y-58285002D01*
X63765837Y-58227150D01*
X64012399Y-58062403D01*
X64139680Y-57935122D01*
X64185167Y-57935162D01*
X64528943Y-57793117D01*
X64599893Y-57722290D01*
X64669673Y-57792192D01*
X65013201Y-57934838D01*
X65385167Y-57935162D01*
X65728943Y-57793117D01*
X65971732Y-57550751D01*
X66171840Y-57751208D01*
X66515368Y-57893854D01*
X66887334Y-57894178D01*
X67172423Y-57776382D01*
X67313201Y-57834838D01*
X67672577Y-57835151D01*
X67672577Y-59232577D01*
X67730429Y-59523416D01*
X67895176Y-59769978D01*
X69051566Y-60926368D01*
X68500000Y-60816655D01*
X67926511Y-60930729D01*
X67440330Y-61255585D01*
X67233539Y-61565069D01*
X66862036Y-61149268D01*
X66334791Y-60895291D01*
X66319026Y-60892642D01*
X66087000Y-61013783D01*
X66087000Y-62373000D01*
X66107000Y-62373000D01*
X66107000Y-62627000D01*
X66087000Y-62627000D01*
X66087000Y-63986217D01*
X66319026Y-64107358D01*
X66334791Y-64104709D01*
X66862036Y-63850732D01*
X67233539Y-63434931D01*
X67440330Y-63744415D01*
X67926511Y-64069271D01*
X68490000Y-64181356D01*
X68490000Y-65187537D01*
X68457808Y-65219673D01*
X68449367Y-65240000D01*
X61312463Y-65240000D01*
X61280327Y-65207808D01*
X60936799Y-65065162D01*
X60564833Y-65064838D01*
X60221057Y-65206883D01*
X59957808Y-65469673D01*
X59815162Y-65813201D01*
X59814838Y-66185167D01*
X59956883Y-66528943D01*
X60219673Y-66792192D01*
X60266109Y-66811474D01*
X60207808Y-66869673D01*
X60065162Y-67213201D01*
X60064838Y-67585167D01*
X60206883Y-67928943D01*
X60469673Y-68192192D01*
X60813201Y-68334838D01*
X61185167Y-68335162D01*
X61488083Y-68210000D01*
X64687624Y-68210000D01*
X64769673Y-68292192D01*
X65113201Y-68434838D01*
X65485167Y-68435162D01*
X65828943Y-68293117D01*
X66092192Y-68030327D01*
X66234838Y-67686799D01*
X66235162Y-67314833D01*
X66093117Y-66971057D01*
X65882428Y-66760000D01*
X69000000Y-66760000D01*
X69290839Y-66702148D01*
X69316415Y-66685059D01*
X69435167Y-66685162D01*
X69778943Y-66543117D01*
X70042192Y-66280327D01*
X70184838Y-65936799D01*
X70185162Y-65564833D01*
X70043117Y-65221057D01*
X70010000Y-65187882D01*
X70010000Y-63764240D01*
X70466511Y-64069271D01*
X71040000Y-64183345D01*
X71613489Y-64069271D01*
X72099670Y-63744415D01*
X72310000Y-63429634D01*
X72520330Y-63744415D01*
X73006511Y-64069271D01*
X73580000Y-64183345D01*
X74153489Y-64069271D01*
X74639670Y-63744415D01*
X74649243Y-63730087D01*
X74653238Y-63751317D01*
X74792310Y-63967441D01*
X75004510Y-64112431D01*
X75256400Y-64163440D01*
X75914052Y-64163440D01*
X75907808Y-64169673D01*
X75765162Y-64513201D01*
X75764838Y-64885167D01*
X75906883Y-65228943D01*
X76169673Y-65492192D01*
X76513201Y-65634838D01*
X76885167Y-65635162D01*
X77188083Y-65510000D01*
X77700000Y-65510000D01*
X78009974Y-65448342D01*
X78272756Y-65272756D01*
X78728083Y-64817429D01*
X79028943Y-64693117D01*
X79292192Y-64430327D01*
X79434838Y-64086799D01*
X79435162Y-63714833D01*
X79293117Y-63371057D01*
X79030327Y-63107808D01*
X78686799Y-62965162D01*
X78314833Y-62964838D01*
X77971057Y-63106883D01*
X77707808Y-63369673D01*
X77615802Y-63591246D01*
X77631040Y-63516000D01*
X77631040Y-61484000D01*
X77612925Y-61387727D01*
X85064878Y-68839680D01*
X85064838Y-68885167D01*
X85206883Y-69228943D01*
X85469673Y-69492192D01*
X85813201Y-69634838D01*
X86185167Y-69635162D01*
X86528943Y-69493117D01*
X86792192Y-69230327D01*
X86934838Y-68886799D01*
X86935162Y-68514833D01*
X86793117Y-68171057D01*
X86530327Y-67907808D01*
X86186799Y-67765162D01*
X86139923Y-67765121D01*
X82797748Y-64422946D01*
X88894017Y-64422946D01*
X89162812Y-65008379D01*
X89635182Y-65446385D01*
X90117056Y-65645975D01*
X90373000Y-65526836D01*
X90373000Y-64167000D01*
X89012633Y-64167000D01*
X88894017Y-64422946D01*
X82797748Y-64422946D01*
X78437401Y-60062599D01*
X78190839Y-59897852D01*
X77900000Y-59840000D01*
X70114802Y-59840000D01*
X69192577Y-58917775D01*
X69192577Y-55585167D01*
X70864838Y-55585167D01*
X71006883Y-55928943D01*
X71269673Y-56192192D01*
X71490023Y-56283690D01*
X71489848Y-56485167D01*
X71631893Y-56828943D01*
X71894683Y-57092192D01*
X72238211Y-57234838D01*
X72610177Y-57235162D01*
X72953953Y-57093117D01*
X73217202Y-56830327D01*
X73359848Y-56486799D01*
X73359889Y-56439923D01*
X73414645Y-56385167D01*
X79264838Y-56385167D01*
X79390000Y-56688083D01*
X79390000Y-58112559D01*
X79265162Y-58413201D01*
X79264838Y-58785167D01*
X79406883Y-59128943D01*
X79669673Y-59392192D01*
X80013201Y-59534838D01*
X80385167Y-59535162D01*
X80728943Y-59393117D01*
X80992192Y-59130327D01*
X81134838Y-58786799D01*
X81135162Y-58414833D01*
X81010000Y-58111917D01*
X81010000Y-56687441D01*
X81134838Y-56386799D01*
X81135162Y-56014833D01*
X80993117Y-55671057D01*
X80730327Y-55407808D01*
X80386799Y-55265162D01*
X80014833Y-55264838D01*
X79671057Y-55406883D01*
X79407808Y-55669673D01*
X79265162Y-56013201D01*
X79264838Y-56385167D01*
X73414645Y-56385167D01*
X74862411Y-54937401D01*
X75027158Y-54690839D01*
X75085010Y-54400000D01*
X75085010Y-52262463D01*
X75117202Y-52230327D01*
X75259848Y-51886799D01*
X75260172Y-51514833D01*
X75118127Y-51171057D01*
X74855337Y-50907808D01*
X74634899Y-50816274D01*
X74635162Y-50514833D01*
X74493117Y-50171057D01*
X74230327Y-49907808D01*
X73886799Y-49765162D01*
X73514833Y-49764838D01*
X73171057Y-49906883D01*
X72907808Y-50169673D01*
X72765162Y-50513201D01*
X72764838Y-50885167D01*
X72906883Y-51228943D01*
X72940000Y-51262118D01*
X72940000Y-53685198D01*
X72109207Y-54515991D01*
X71986799Y-54465162D01*
X71614833Y-54464838D01*
X71271057Y-54606883D01*
X71007808Y-54869673D01*
X70865162Y-55213201D01*
X70864838Y-55585167D01*
X69192577Y-55585167D01*
X69192577Y-54134088D01*
X69134725Y-53843249D01*
X68969978Y-53596687D01*
X68154225Y-52780934D01*
X68234838Y-52586799D01*
X68235162Y-52214833D01*
X68093117Y-51871057D01*
X67830327Y-51607808D01*
X67486799Y-51465162D01*
X67114833Y-51464838D01*
X66811917Y-51590000D01*
X66384802Y-51590000D01*
X67139680Y-50835122D01*
X67185167Y-50835162D01*
X67528943Y-50693117D01*
X67596422Y-50625755D01*
X67715103Y-50602148D01*
X67961665Y-50437401D01*
X68937659Y-49461407D01*
X69006883Y-49628943D01*
X69269673Y-49892192D01*
X69613201Y-50034838D01*
X69985167Y-50035162D01*
X70288083Y-49910000D01*
X71000000Y-49910000D01*
X71309974Y-49848342D01*
X71572756Y-49672756D01*
X74128084Y-47117429D01*
X74428943Y-46993117D01*
X74557492Y-46864792D01*
X74619685Y-46927093D01*
X74963213Y-47069739D01*
X75335179Y-47070063D01*
X75678955Y-46928018D01*
X75942204Y-46665228D01*
X76084850Y-46321700D01*
X76085174Y-45949734D01*
X75943129Y-45605958D01*
X75910012Y-45572783D01*
X75910012Y-45040547D01*
X82540000Y-51670535D01*
X82540000Y-58237537D01*
X82507808Y-58269673D01*
X82365162Y-58613201D01*
X82364838Y-58985167D01*
X82506883Y-59328943D01*
X82769673Y-59592192D01*
X83113201Y-59734838D01*
X83485167Y-59735162D01*
X83828943Y-59593117D01*
X83894926Y-59527249D01*
X83913201Y-59534838D01*
X84285167Y-59535162D01*
X84550228Y-59425641D01*
X84813201Y-59534838D01*
X85185167Y-59535162D01*
X85528943Y-59393117D01*
X85792192Y-59130327D01*
X85934838Y-58786799D01*
X85935162Y-58414833D01*
X85793117Y-58071057D01*
X85760000Y-58037882D01*
X85760000Y-56514946D01*
X88894017Y-56514946D01*
X89162812Y-57100379D01*
X89635182Y-57538385D01*
X90117056Y-57737975D01*
X90373000Y-57618836D01*
X90373000Y-56259000D01*
X89012633Y-56259000D01*
X88894017Y-56514946D01*
X85760000Y-56514946D01*
X85760000Y-48606946D01*
X88894017Y-48606946D01*
X89162812Y-49192379D01*
X89635182Y-49630385D01*
X90117056Y-49829975D01*
X90373000Y-49710836D01*
X90373000Y-48351000D01*
X89012633Y-48351000D01*
X88894017Y-48606946D01*
X85760000Y-48606946D01*
X85760000Y-48300000D01*
X85702148Y-48009161D01*
X85537401Y-47762599D01*
X84014999Y-46240197D01*
X84128943Y-46193117D01*
X84392192Y-45930327D01*
X84534838Y-45586799D01*
X84535162Y-45214833D01*
X84410000Y-44911917D01*
X84410000Y-40698946D01*
X88894017Y-40698946D01*
X89162812Y-41284379D01*
X89635182Y-41722385D01*
X90117056Y-41921975D01*
X90373000Y-41802836D01*
X90373000Y-40443000D01*
X89012633Y-40443000D01*
X88894017Y-40698946D01*
X84410000Y-40698946D01*
X84410000Y-36500996D01*
X84404383Y-36472756D01*
X84348343Y-36191023D01*
X84172757Y-35928240D01*
X81035463Y-32790946D01*
X88894017Y-32790946D01*
X89162812Y-33376379D01*
X89635182Y-33814385D01*
X90117056Y-34013975D01*
X90373000Y-33894836D01*
X90373000Y-32535000D01*
X89012633Y-32535000D01*
X88894017Y-32790946D01*
X81035463Y-32790946D01*
X79017643Y-30773127D01*
X78920250Y-30708051D01*
X78754861Y-30597541D01*
X78444887Y-30535883D01*
X75757013Y-30535883D01*
X75456371Y-30411045D01*
X75334998Y-30410939D01*
X75334998Y-29674998D01*
X75277146Y-29384159D01*
X75112399Y-29137597D01*
X72837401Y-26862599D01*
X72590839Y-26697852D01*
X72300000Y-26640000D01*
X71362463Y-26640000D01*
X71330327Y-26607808D01*
X70986799Y-26465162D01*
X70614833Y-26464838D01*
X70271057Y-26606883D01*
X70007808Y-26869673D01*
X69865162Y-27213201D01*
X69864838Y-27585167D01*
X70006883Y-27928943D01*
X70269673Y-28192192D01*
X70613201Y-28334838D01*
X70985167Y-28335162D01*
X71097331Y-28288817D01*
X71206883Y-28553953D01*
X71469673Y-28817202D01*
X71813201Y-28959848D01*
X71860077Y-28959889D01*
X72750724Y-29850536D01*
X72750724Y-31169814D01*
X72689829Y-31169761D01*
X72386913Y-31294923D01*
X70695077Y-31294923D01*
X70385103Y-31356581D01*
X70267984Y-31434838D01*
X70122320Y-31532167D01*
X68171918Y-33482570D01*
X67871057Y-33606883D01*
X67607808Y-33869673D01*
X67560000Y-33984807D01*
X67560000Y-33114802D01*
X69239680Y-31435122D01*
X69285167Y-31435162D01*
X69628943Y-31293117D01*
X69892192Y-31030327D01*
X70034838Y-30686799D01*
X70035162Y-30314833D01*
X69893117Y-29971057D01*
X69630327Y-29707808D01*
X69286799Y-29565162D01*
X68914833Y-29564838D01*
X68571057Y-29706883D01*
X68413613Y-29864052D01*
X68194850Y-29773213D01*
X67822884Y-29772889D01*
X67479108Y-29914934D01*
X67215859Y-30177724D01*
X67073213Y-30521252D01*
X67073170Y-30570954D01*
X66852378Y-30479273D01*
X66480412Y-30478949D01*
X66136636Y-30620994D01*
X65873387Y-30883784D01*
X65730741Y-31227312D01*
X65730700Y-31274188D01*
X65362577Y-31642311D01*
X65197830Y-31888873D01*
X65139978Y-32179712D01*
X65139978Y-32217651D01*
X65030327Y-32107808D01*
X64686799Y-31965162D01*
X64314833Y-31964838D01*
X63971057Y-32106883D01*
X63707808Y-32369673D01*
X63565162Y-32713201D01*
X63564838Y-33085167D01*
X63690000Y-33388083D01*
X63690000Y-34101343D01*
X63751658Y-34411317D01*
X63868912Y-34586799D01*
X63927244Y-34674099D01*
X64095615Y-34842470D01*
X64219927Y-35143330D01*
X64482717Y-35406579D01*
X64826245Y-35549225D01*
X65139978Y-35549498D01*
X65139978Y-47294069D01*
X65197830Y-47584908D01*
X65362577Y-47831470D01*
X65658481Y-48127374D01*
X64445855Y-49340000D01*
X59939595Y-49340000D01*
X59876517Y-49297853D01*
X59585678Y-49240001D01*
X56275735Y-49240001D01*
X55984895Y-49297853D01*
X55738334Y-49462600D01*
X55162599Y-50038335D01*
X54997852Y-50284897D01*
X54940000Y-50575736D01*
X54940000Y-50737537D01*
X54907808Y-50769673D01*
X54826764Y-50964848D01*
X54814833Y-50964838D01*
X54653714Y-51031411D01*
X54530327Y-50907808D01*
X54186799Y-50765162D01*
X53814833Y-50764838D01*
X53471057Y-50906883D01*
X53207808Y-51169673D01*
X53065162Y-51513201D01*
X53064838Y-51885167D01*
X30710000Y-51885167D01*
X30710000Y-40552532D01*
X43427073Y-40552532D01*
X43525736Y-40819387D01*
X44135461Y-41045908D01*
X44785460Y-41021856D01*
X45274264Y-40819387D01*
X45372927Y-40552532D01*
X44400000Y-39579605D01*
X43427073Y-40552532D01*
X30710000Y-40552532D01*
X30710000Y-38076661D01*
X36752758Y-38076661D01*
X36964990Y-38590303D01*
X37357630Y-38983629D01*
X37870900Y-39196757D01*
X38426661Y-39197242D01*
X38940303Y-38985010D01*
X39198134Y-38727629D01*
X39319329Y-39020943D01*
X39975602Y-39678362D01*
X40833502Y-40034593D01*
X41762422Y-40035404D01*
X42620943Y-39680671D01*
X42768805Y-39533067D01*
X42778144Y-39785460D01*
X42980613Y-40274264D01*
X43247468Y-40372927D01*
X44220395Y-39400000D01*
X44579605Y-39400000D01*
X45552532Y-40372927D01*
X45819387Y-40274264D01*
X46045908Y-39664539D01*
X46031871Y-39285167D01*
X56064838Y-39285167D01*
X56206883Y-39628943D01*
X56469673Y-39892192D01*
X56772372Y-40017884D01*
X60227244Y-43472757D01*
X60490027Y-43648343D01*
X60800000Y-43710000D01*
X62112559Y-43710000D01*
X62413201Y-43834838D01*
X62785167Y-43835162D01*
X63128943Y-43693117D01*
X63392192Y-43430327D01*
X63534838Y-43086799D01*
X63535162Y-42714833D01*
X63393117Y-42371057D01*
X63130327Y-42107808D01*
X62786799Y-41965162D01*
X62414833Y-41964838D01*
X62111917Y-42090000D01*
X61135513Y-42090000D01*
X59786057Y-40740545D01*
X59892332Y-40784674D01*
X60264298Y-40784998D01*
X60608074Y-40642953D01*
X60871323Y-40380163D01*
X61013969Y-40036635D01*
X61014209Y-39760593D01*
X61339680Y-39435122D01*
X61385167Y-39435162D01*
X61728943Y-39293117D01*
X61992192Y-39030327D01*
X62134838Y-38686799D01*
X62135162Y-38314833D01*
X61993117Y-37971057D01*
X61730327Y-37707808D01*
X61635115Y-37668273D01*
X61635162Y-37614833D01*
X61493117Y-37271057D01*
X61230327Y-37007808D01*
X60886799Y-36865162D01*
X60514833Y-36864838D01*
X60171057Y-37006883D01*
X59907808Y-37269673D01*
X59765162Y-37613201D01*
X59764842Y-37980643D01*
X59272342Y-38473143D01*
X59226855Y-38473103D01*
X58883079Y-38615148D01*
X58619830Y-38877938D01*
X58477184Y-39221466D01*
X58477001Y-39431489D01*
X57917430Y-38871918D01*
X57793117Y-38571057D01*
X57530327Y-38307808D01*
X57186799Y-38165162D01*
X56814833Y-38164838D01*
X56471057Y-38306883D01*
X56207808Y-38569673D01*
X56065162Y-38913201D01*
X56064838Y-39285167D01*
X46031871Y-39285167D01*
X46021856Y-39014540D01*
X45819387Y-38525736D01*
X45552532Y-38427073D01*
X44579605Y-39400000D01*
X44220395Y-39400000D01*
X44206253Y-39385858D01*
X44385858Y-39206253D01*
X44400000Y-39220395D01*
X45372927Y-38247468D01*
X45274264Y-37980613D01*
X44664539Y-37754092D01*
X44014540Y-37778144D01*
X43634795Y-37935439D01*
X43635404Y-37237578D01*
X43280671Y-36379057D01*
X42624398Y-35721638D01*
X41766498Y-35365407D01*
X40837578Y-35364596D01*
X39979057Y-35719329D01*
X39321638Y-36375602D01*
X39139615Y-36813961D01*
X38942370Y-36616371D01*
X38429100Y-36403243D01*
X37873339Y-36402758D01*
X37359697Y-36614990D01*
X36966371Y-37007630D01*
X36753243Y-37520900D01*
X36752758Y-38076661D01*
X30710000Y-38076661D01*
X30710000Y-36280213D01*
X35849392Y-36280213D01*
X35918857Y-36522397D01*
X36442302Y-36709144D01*
X36997368Y-36681362D01*
X37381143Y-36522397D01*
X37450608Y-36280213D01*
X36650000Y-35479605D01*
X35849392Y-36280213D01*
X30710000Y-36280213D01*
X30710000Y-35092302D01*
X35240856Y-35092302D01*
X35268638Y-35647368D01*
X35427603Y-36031143D01*
X35669787Y-36100608D01*
X36470395Y-35300000D01*
X36829605Y-35300000D01*
X37630213Y-36100608D01*
X37872397Y-36031143D01*
X38059144Y-35507698D01*
X38031362Y-34952632D01*
X37872397Y-34568857D01*
X37630213Y-34499392D01*
X36829605Y-35300000D01*
X36470395Y-35300000D01*
X35669787Y-34499392D01*
X35427603Y-34568857D01*
X35240856Y-35092302D01*
X30710000Y-35092302D01*
X30710000Y-34319787D01*
X35849392Y-34319787D01*
X36650000Y-35120395D01*
X37450608Y-34319787D01*
X37381143Y-34077603D01*
X36857698Y-33890856D01*
X36302632Y-33918638D01*
X35918857Y-34077603D01*
X35849392Y-34319787D01*
X30710000Y-34319787D01*
X30710000Y-27926661D01*
X36752758Y-27926661D01*
X36964990Y-28440303D01*
X37357630Y-28833629D01*
X37870900Y-29046757D01*
X38426661Y-29047242D01*
X38940303Y-28835010D01*
X39333629Y-28442370D01*
X39546757Y-27929100D01*
X39547242Y-27373339D01*
X39530262Y-27332244D01*
X39975602Y-27778362D01*
X40833502Y-28134593D01*
X41762422Y-28135404D01*
X42620943Y-27780671D01*
X43075745Y-27326661D01*
X46302758Y-27326661D01*
X46514990Y-27840303D01*
X46907630Y-28233629D01*
X47107464Y-28316607D01*
X46909697Y-28398323D01*
X46516371Y-28790963D01*
X46303243Y-29304233D01*
X46302758Y-29859994D01*
X46514990Y-30373636D01*
X46907630Y-30766962D01*
X47107464Y-30849940D01*
X46909697Y-30931656D01*
X46516371Y-31324296D01*
X46303243Y-31837566D01*
X46302758Y-32393327D01*
X46514990Y-32906969D01*
X46907630Y-33300295D01*
X47107464Y-33383273D01*
X46909697Y-33464989D01*
X46516371Y-33857629D01*
X46303243Y-34370899D01*
X46302758Y-34926660D01*
X46514990Y-35440302D01*
X46907630Y-35833628D01*
X47420900Y-36046756D01*
X47976661Y-36047241D01*
X48490303Y-35835009D01*
X48883629Y-35442369D01*
X49096757Y-34929099D01*
X49097242Y-34373338D01*
X48885010Y-33859696D01*
X48492370Y-33466370D01*
X48292536Y-33383392D01*
X48490303Y-33301676D01*
X48883629Y-32909036D01*
X49096757Y-32395766D01*
X49097242Y-31840005D01*
X48885010Y-31326363D01*
X48492370Y-30933037D01*
X48292536Y-30850059D01*
X48490303Y-30768343D01*
X48883629Y-30375703D01*
X49096757Y-29862433D01*
X49097242Y-29306672D01*
X48885010Y-28793030D01*
X48718932Y-28626661D01*
X48902758Y-28626661D01*
X49114990Y-29140303D01*
X49507630Y-29533629D01*
X49707464Y-29616607D01*
X49509697Y-29698323D01*
X49116371Y-30090963D01*
X48903243Y-30604233D01*
X48902758Y-31159994D01*
X49114990Y-31673636D01*
X49507630Y-32066962D01*
X49707464Y-32149940D01*
X49509697Y-32231656D01*
X49116371Y-32624296D01*
X48903243Y-33137566D01*
X48902758Y-33693327D01*
X49114990Y-34206969D01*
X49507630Y-34600295D01*
X49707464Y-34683273D01*
X49509697Y-34764989D01*
X49116371Y-35157629D01*
X48903243Y-35670899D01*
X48902758Y-36226660D01*
X49114990Y-36740302D01*
X49507630Y-37133628D01*
X50020900Y-37346756D01*
X50576661Y-37347241D01*
X51090303Y-37135009D01*
X51483629Y-36742369D01*
X51696757Y-36229099D01*
X51697242Y-35673338D01*
X51485010Y-35159696D01*
X51092370Y-34766370D01*
X50892536Y-34683392D01*
X51090303Y-34601676D01*
X51483629Y-34209036D01*
X51696757Y-33695766D01*
X51697242Y-33140005D01*
X51485010Y-32626363D01*
X51092370Y-32233037D01*
X50892536Y-32150059D01*
X51090303Y-32068343D01*
X51483629Y-31675703D01*
X51696757Y-31162433D01*
X51697242Y-30606672D01*
X51485010Y-30093030D01*
X51092370Y-29699704D01*
X50892536Y-29616726D01*
X51090303Y-29535010D01*
X51483629Y-29142370D01*
X51548905Y-28985167D01*
X52564838Y-28985167D01*
X52690000Y-29288083D01*
X52690000Y-32300000D01*
X52751658Y-32609974D01*
X52927244Y-32872756D01*
X54782571Y-34728084D01*
X54906883Y-35028943D01*
X55169673Y-35292192D01*
X55513201Y-35434838D01*
X55885167Y-35435162D01*
X56228943Y-35293117D01*
X56492192Y-35030327D01*
X56634838Y-34686799D01*
X56635162Y-34314833D01*
X56493117Y-33971057D01*
X56230327Y-33707808D01*
X55927629Y-33582116D01*
X54310000Y-31964488D01*
X54310000Y-30560177D01*
X60064838Y-30560177D01*
X60190000Y-30863093D01*
X60190000Y-31809701D01*
X60251658Y-32119675D01*
X60365526Y-32290090D01*
X60400722Y-32342764D01*
X60534309Y-32666070D01*
X60797099Y-32929319D01*
X61140627Y-33071965D01*
X61512593Y-33072289D01*
X61856369Y-32930244D01*
X62119618Y-32667454D01*
X62262264Y-32323926D01*
X62262588Y-31951960D01*
X62120543Y-31608184D01*
X61857753Y-31344935D01*
X61810000Y-31325106D01*
X61810000Y-30862451D01*
X61934838Y-30561809D01*
X61935162Y-30189843D01*
X61793117Y-29846067D01*
X61530327Y-29582818D01*
X61186799Y-29440172D01*
X60814833Y-29439848D01*
X60471057Y-29581893D01*
X60207808Y-29844683D01*
X60065162Y-30188211D01*
X60064838Y-30560177D01*
X54310000Y-30560177D01*
X54310000Y-29287441D01*
X54434838Y-28986799D01*
X54435162Y-28614833D01*
X54310000Y-28311917D01*
X54310000Y-26200944D01*
X54328943Y-26193117D01*
X54592192Y-25930327D01*
X54734838Y-25586799D01*
X54735162Y-25214833D01*
X54598030Y-24882946D01*
X88894017Y-24882946D01*
X89162812Y-25468379D01*
X89635182Y-25906385D01*
X90117056Y-26105975D01*
X90373000Y-25986836D01*
X90373000Y-24627000D01*
X89012633Y-24627000D01*
X88894017Y-24882946D01*
X54598030Y-24882946D01*
X54593117Y-24871057D01*
X54330327Y-24607808D01*
X53986799Y-24465162D01*
X53614833Y-24464838D01*
X53271057Y-24606883D01*
X53007808Y-24869673D01*
X52865162Y-25213201D01*
X52865156Y-25220165D01*
X52751658Y-25390026D01*
X52690000Y-25700000D01*
X52690000Y-28312559D01*
X52565162Y-28613201D01*
X52564838Y-28985167D01*
X51548905Y-28985167D01*
X51696757Y-28629100D01*
X51697242Y-28073339D01*
X51485010Y-27559697D01*
X51092370Y-27166371D01*
X50579100Y-26953243D01*
X50023339Y-26952758D01*
X49509697Y-27164990D01*
X49116371Y-27557630D01*
X48903243Y-28070900D01*
X48902758Y-28626661D01*
X48718932Y-28626661D01*
X48492370Y-28399704D01*
X48292536Y-28316726D01*
X48490303Y-28235010D01*
X48883629Y-27842370D01*
X49096757Y-27329100D01*
X49097242Y-26773339D01*
X48885010Y-26259697D01*
X48492370Y-25866371D01*
X47979100Y-25653243D01*
X47423339Y-25652758D01*
X46909697Y-25864990D01*
X46516371Y-26257630D01*
X46303243Y-26770900D01*
X46302758Y-27326661D01*
X43075745Y-27326661D01*
X43278362Y-27124398D01*
X43634593Y-26266498D01*
X43635384Y-25360123D01*
X44135461Y-25545908D01*
X44785460Y-25521856D01*
X45274264Y-25319387D01*
X45372927Y-25052532D01*
X44400000Y-24079605D01*
X44385858Y-24093748D01*
X44206253Y-23914143D01*
X44220395Y-23900000D01*
X44579605Y-23900000D01*
X45552532Y-24872927D01*
X45819387Y-24774264D01*
X46045908Y-24164539D01*
X46021856Y-23514540D01*
X45819387Y-23025736D01*
X45552532Y-22927073D01*
X44579605Y-23900000D01*
X44220395Y-23900000D01*
X43247468Y-22927073D01*
X42980613Y-23025736D01*
X42754092Y-23635461D01*
X42766239Y-23963727D01*
X42624398Y-23821638D01*
X41766498Y-23465407D01*
X40837578Y-23464596D01*
X39979057Y-23819329D01*
X39321638Y-24475602D01*
X38965407Y-25333502D01*
X38964596Y-26262422D01*
X39124076Y-26648395D01*
X38942370Y-26466371D01*
X38429100Y-26253243D01*
X37873339Y-26252758D01*
X37359697Y-26464990D01*
X36966371Y-26857630D01*
X36753243Y-27370900D01*
X36752758Y-27926661D01*
X30710000Y-27926661D01*
X30710000Y-26080213D01*
X35849392Y-26080213D01*
X35918857Y-26322397D01*
X36442302Y-26509144D01*
X36997368Y-26481362D01*
X37381143Y-26322397D01*
X37450608Y-26080213D01*
X36650000Y-25279605D01*
X35849392Y-26080213D01*
X30710000Y-26080213D01*
X30710000Y-24892302D01*
X35240856Y-24892302D01*
X35268638Y-25447368D01*
X35427603Y-25831143D01*
X35669787Y-25900608D01*
X36470395Y-25100000D01*
X36829605Y-25100000D01*
X37630213Y-25900608D01*
X37872397Y-25831143D01*
X38059144Y-25307698D01*
X38031362Y-24752632D01*
X37872397Y-24368857D01*
X37630213Y-24299392D01*
X36829605Y-25100000D01*
X36470395Y-25100000D01*
X35669787Y-24299392D01*
X35427603Y-24368857D01*
X35240856Y-24892302D01*
X30710000Y-24892302D01*
X30710000Y-24119787D01*
X35849392Y-24119787D01*
X36650000Y-24920395D01*
X37450608Y-24119787D01*
X37381143Y-23877603D01*
X36857698Y-23690856D01*
X36302632Y-23718638D01*
X35918857Y-23877603D01*
X35849392Y-24119787D01*
X30710000Y-24119787D01*
X30710000Y-22747468D01*
X43427073Y-22747468D01*
X44400000Y-23720395D01*
X45372927Y-22747468D01*
X45274264Y-22480613D01*
X44664539Y-22254092D01*
X44014540Y-22278144D01*
X43525736Y-22480613D01*
X43427073Y-22747468D01*
X30710000Y-22747468D01*
X30710000Y-20710000D01*
X88883946Y-20710000D01*
X88836560Y-20944000D01*
X88836560Y-20944000D01*
G37*
X88836560Y-20944000D02*
X88836560Y-22976000D01*
X88880838Y-23211317D01*
X89019910Y-23427441D01*
X89166872Y-23527856D01*
X89162812Y-23531621D01*
X88894017Y-24117054D01*
X89012633Y-24373000D01*
X90373000Y-24373000D01*
X90373000Y-24353000D01*
X90627000Y-24353000D01*
X90627000Y-24373000D01*
X90647000Y-24373000D01*
X90647000Y-24627000D01*
X90627000Y-24627000D01*
X90627000Y-25986836D01*
X90882944Y-26105975D01*
X91364818Y-25906385D01*
X91790000Y-25512134D01*
X91790000Y-28270676D01*
X91767890Y-28255569D01*
X91516000Y-28204560D01*
X89484000Y-28204560D01*
X89248683Y-28248838D01*
X89032559Y-28387910D01*
X88887569Y-28600110D01*
X88836560Y-28852000D01*
X88836560Y-30884000D01*
X88880838Y-31119317D01*
X89019910Y-31335441D01*
X89166872Y-31435856D01*
X89162812Y-31439621D01*
X88894017Y-32025054D01*
X89012633Y-32281000D01*
X90373000Y-32281000D01*
X90373000Y-32261000D01*
X90627000Y-32261000D01*
X90627000Y-32281000D01*
X90647000Y-32281000D01*
X90647000Y-32535000D01*
X90627000Y-32535000D01*
X90627000Y-33894836D01*
X90882944Y-34013975D01*
X91364818Y-33814385D01*
X91790000Y-33420134D01*
X91790000Y-36178676D01*
X91767890Y-36163569D01*
X91516000Y-36112560D01*
X89484000Y-36112560D01*
X89248683Y-36156838D01*
X89032559Y-36295910D01*
X88887569Y-36508110D01*
X88836560Y-36760000D01*
X88836560Y-38792000D01*
X88880838Y-39027317D01*
X89019910Y-39243441D01*
X89166872Y-39343856D01*
X89162812Y-39347621D01*
X88894017Y-39933054D01*
X89012633Y-40189000D01*
X90373000Y-40189000D01*
X90373000Y-40169000D01*
X90627000Y-40169000D01*
X90627000Y-40189000D01*
X90647000Y-40189000D01*
X90647000Y-40443000D01*
X90627000Y-40443000D01*
X90627000Y-41802836D01*
X90882944Y-41921975D01*
X91364818Y-41722385D01*
X91790000Y-41328134D01*
X91790000Y-44086676D01*
X91767890Y-44071569D01*
X91516000Y-44020560D01*
X89484000Y-44020560D01*
X89248683Y-44064838D01*
X89032559Y-44203910D01*
X88887569Y-44416110D01*
X88836560Y-44668000D01*
X88836560Y-46700000D01*
X88880838Y-46935317D01*
X89019910Y-47151441D01*
X89166872Y-47251856D01*
X89162812Y-47255621D01*
X88894017Y-47841054D01*
X89012633Y-48097000D01*
X90373000Y-48097000D01*
X90373000Y-48077000D01*
X90627000Y-48077000D01*
X90627000Y-48097000D01*
X90647000Y-48097000D01*
X90647000Y-48351000D01*
X90627000Y-48351000D01*
X90627000Y-49710836D01*
X90882944Y-49829975D01*
X91364818Y-49630385D01*
X91790000Y-49236134D01*
X91790000Y-51994676D01*
X91767890Y-51979569D01*
X91516000Y-51928560D01*
X89484000Y-51928560D01*
X89248683Y-51972838D01*
X89032559Y-52111910D01*
X88887569Y-52324110D01*
X88836560Y-52576000D01*
X88836560Y-54608000D01*
X88880838Y-54843317D01*
X89019910Y-55059441D01*
X89166872Y-55159856D01*
X89162812Y-55163621D01*
X88894017Y-55749054D01*
X89012633Y-56005000D01*
X90373000Y-56005000D01*
X90373000Y-55985000D01*
X90627000Y-55985000D01*
X90627000Y-56005000D01*
X90647000Y-56005000D01*
X90647000Y-56259000D01*
X90627000Y-56259000D01*
X90627000Y-57618836D01*
X90882944Y-57737975D01*
X91364818Y-57538385D01*
X91790000Y-57144134D01*
X91790000Y-59902676D01*
X91767890Y-59887569D01*
X91516000Y-59836560D01*
X89484000Y-59836560D01*
X89248683Y-59880838D01*
X89032559Y-60019910D01*
X88887569Y-60232110D01*
X88836560Y-60484000D01*
X88836560Y-62516000D01*
X88880838Y-62751317D01*
X89019910Y-62967441D01*
X89166872Y-63067856D01*
X89162812Y-63071621D01*
X88894017Y-63657054D01*
X89012633Y-63913000D01*
X90373000Y-63913000D01*
X90373000Y-63893000D01*
X90627000Y-63893000D01*
X90627000Y-63913000D01*
X90647000Y-63913000D01*
X90647000Y-64167000D01*
X90627000Y-64167000D01*
X90627000Y-65526836D01*
X90882944Y-65645975D01*
X91364818Y-65446385D01*
X91790000Y-65052134D01*
X91790000Y-70407730D01*
X91739778Y-70332567D01*
X91204155Y-69974675D01*
X90572345Y-69849000D01*
X90507655Y-69849000D01*
X89875845Y-69974675D01*
X89573038Y-70177004D01*
X89480090Y-70032559D01*
X89267890Y-69887569D01*
X89016000Y-69836560D01*
X86984000Y-69836560D01*
X86748683Y-69880838D01*
X86532559Y-70019910D01*
X86387569Y-70232110D01*
X86336560Y-70484000D01*
X86336560Y-72516000D01*
X86380838Y-72751317D01*
X86405730Y-72790000D01*
X84016344Y-72790000D01*
X84199778Y-72667433D01*
X84557670Y-72131810D01*
X84683345Y-71500000D01*
X84557670Y-70868190D01*
X84199778Y-70332567D01*
X83664155Y-69974675D01*
X83032345Y-69849000D01*
X82967655Y-69849000D01*
X82335845Y-69974675D01*
X82033038Y-70177004D01*
X81940090Y-70032559D01*
X81727890Y-69887569D01*
X81476000Y-69836560D01*
X79444000Y-69836560D01*
X79208683Y-69880838D01*
X78992559Y-70019910D01*
X78847569Y-70232110D01*
X78796560Y-70484000D01*
X78796560Y-72516000D01*
X78840838Y-72751317D01*
X78865730Y-72790000D01*
X75616298Y-72790000D01*
X75951954Y-72414320D01*
X76145184Y-71861913D01*
X76000924Y-71627000D01*
X74787000Y-71627000D01*
X74787000Y-71647000D01*
X74533000Y-71647000D01*
X74533000Y-71627000D01*
X72247000Y-71627000D01*
X72247000Y-71647000D01*
X71993000Y-71647000D01*
X71993000Y-71627000D01*
X69707000Y-71627000D01*
X69707000Y-71647000D01*
X69453000Y-71647000D01*
X69453000Y-71627000D01*
X67167000Y-71627000D01*
X67167000Y-71647000D01*
X66913000Y-71647000D01*
X66913000Y-71627000D01*
X66893000Y-71627000D01*
X66893000Y-71373000D01*
X66913000Y-71373000D01*
X66913000Y-70013783D01*
X67167000Y-70013783D01*
X67167000Y-71373000D01*
X69453000Y-71373000D01*
X69453000Y-70013783D01*
X69707000Y-70013783D01*
X69707000Y-71373000D01*
X71993000Y-71373000D01*
X71993000Y-70013783D01*
X72247000Y-70013783D01*
X72247000Y-71373000D01*
X74533000Y-71373000D01*
X74533000Y-70013783D01*
X74787000Y-70013783D01*
X74787000Y-71373000D01*
X76000924Y-71373000D01*
X76145184Y-71138087D01*
X75951954Y-70585680D01*
X75562036Y-70149268D01*
X75034791Y-69895291D01*
X75019026Y-69892642D01*
X74787000Y-70013783D01*
X74533000Y-70013783D01*
X74300974Y-69892642D01*
X74285209Y-69895291D01*
X73757964Y-70149268D01*
X73390000Y-70561108D01*
X73022036Y-70149268D01*
X72494791Y-69895291D01*
X72479026Y-69892642D01*
X72247000Y-70013783D01*
X71993000Y-70013783D01*
X71760974Y-69892642D01*
X71745209Y-69895291D01*
X71217964Y-70149268D01*
X70850000Y-70561108D01*
X70482036Y-70149268D01*
X69954791Y-69895291D01*
X69939026Y-69892642D01*
X69707000Y-70013783D01*
X69453000Y-70013783D01*
X69220974Y-69892642D01*
X69205209Y-69895291D01*
X68677964Y-70149268D01*
X68310000Y-70561108D01*
X67942036Y-70149268D01*
X67414791Y-69895291D01*
X67399026Y-69892642D01*
X67167000Y-70013783D01*
X66913000Y-70013783D01*
X66680974Y-69892642D01*
X66665209Y-69895291D01*
X66137964Y-70149268D01*
X65766461Y-70565069D01*
X65559670Y-70255585D01*
X65073489Y-69930729D01*
X64500000Y-69816655D01*
X63926511Y-69930729D01*
X63440330Y-70255585D01*
X63230000Y-70570366D01*
X63019670Y-70255585D01*
X62533489Y-69930729D01*
X61960000Y-69816655D01*
X61386511Y-69930729D01*
X60900330Y-70255585D01*
X60690000Y-70570366D01*
X60479670Y-70255585D01*
X59993489Y-69930729D01*
X59420000Y-69816655D01*
X58846511Y-69930729D01*
X58360330Y-70255585D01*
X58350757Y-70269913D01*
X58346762Y-70248683D01*
X58207690Y-70032559D01*
X57995490Y-69887569D01*
X57743600Y-69836560D01*
X56016400Y-69836560D01*
X55781083Y-69880838D01*
X55564959Y-70019910D01*
X55419969Y-70232110D01*
X55368960Y-70484000D01*
X55368960Y-72516000D01*
X55413238Y-72751317D01*
X55438130Y-72790000D01*
X45977374Y-72790000D01*
X46145975Y-72382944D01*
X46026836Y-72127000D01*
X44667000Y-72127000D01*
X44667000Y-72147000D01*
X44413000Y-72147000D01*
X44413000Y-72127000D01*
X44393000Y-72127000D01*
X44393000Y-71873000D01*
X44413000Y-71873000D01*
X44413000Y-70512633D01*
X44667000Y-70512633D01*
X44667000Y-71873000D01*
X46026836Y-71873000D01*
X46145975Y-71617056D01*
X45946385Y-71135182D01*
X45508379Y-70662812D01*
X44922946Y-70394017D01*
X44667000Y-70512633D01*
X44413000Y-70512633D01*
X44157054Y-70394017D01*
X43571621Y-70662812D01*
X43567066Y-70667724D01*
X43480090Y-70532559D01*
X43341588Y-70437925D01*
X44294121Y-69485392D01*
X44413201Y-69534838D01*
X44785167Y-69535162D01*
X45128943Y-69393117D01*
X45392192Y-69130327D01*
X45534838Y-68786799D01*
X45535162Y-68414833D01*
X45393117Y-68071057D01*
X45130327Y-67807808D01*
X44786799Y-67665162D01*
X44414833Y-67664838D01*
X44111917Y-67790000D01*
X44034000Y-67790000D01*
X43724026Y-67851658D01*
X43639992Y-67907808D01*
X43461243Y-68027244D01*
X41427244Y-70061244D01*
X41251658Y-70324026D01*
X41249165Y-70336560D01*
X40984000Y-70336560D01*
X40748683Y-70380838D01*
X40532559Y-70519910D01*
X40387569Y-70732110D01*
X40336560Y-70984000D01*
X40336560Y-72790000D01*
X32919089Y-72790000D01*
X33105983Y-72382946D01*
X32987367Y-72127000D01*
X31627000Y-72127000D01*
X31627000Y-72147000D01*
X31373000Y-72147000D01*
X31373000Y-72127000D01*
X31353000Y-72127000D01*
X31353000Y-71873000D01*
X31373000Y-71873000D01*
X31373000Y-71853000D01*
X31627000Y-71853000D01*
X31627000Y-71873000D01*
X32987367Y-71873000D01*
X33105983Y-71617054D01*
X32837188Y-71031621D01*
X32832276Y-71027066D01*
X32967441Y-70940090D01*
X33112431Y-70727890D01*
X33163440Y-70476000D01*
X33163440Y-68444000D01*
X33119162Y-68208683D01*
X32980090Y-67992559D01*
X32767890Y-67847569D01*
X32516000Y-67796560D01*
X30710000Y-67796560D01*
X30710000Y-66937374D01*
X31117056Y-67105975D01*
X31373000Y-66986836D01*
X31373000Y-65627000D01*
X31627000Y-65627000D01*
X31627000Y-66986836D01*
X31882944Y-67105975D01*
X32364818Y-66906385D01*
X32837188Y-66468379D01*
X33105983Y-65882946D01*
X32987367Y-65627000D01*
X31627000Y-65627000D01*
X31373000Y-65627000D01*
X31353000Y-65627000D01*
X31353000Y-65373000D01*
X31373000Y-65373000D01*
X31373000Y-65353000D01*
X31627000Y-65353000D01*
X31627000Y-65373000D01*
X32987367Y-65373000D01*
X33105983Y-65117054D01*
X32837188Y-64531621D01*
X32832276Y-64527066D01*
X32967441Y-64440090D01*
X33112431Y-64227890D01*
X33163440Y-63976000D01*
X33163440Y-61944000D01*
X33119162Y-61708683D01*
X32980090Y-61492559D01*
X32767890Y-61347569D01*
X32516000Y-61296560D01*
X30710000Y-61296560D01*
X30710000Y-60185167D01*
X41564838Y-60185167D01*
X41690000Y-60488083D01*
X41690000Y-62116009D01*
X41751658Y-62425983D01*
X41820454Y-62528943D01*
X41927244Y-62688765D01*
X41992930Y-62754451D01*
X42117242Y-63055311D01*
X42380032Y-63318560D01*
X42723560Y-63461206D01*
X43095526Y-63461530D01*
X43439302Y-63319485D01*
X43702551Y-63056695D01*
X43845197Y-62713167D01*
X43845521Y-62341201D01*
X43781050Y-62185167D01*
X60364838Y-62185167D01*
X60506883Y-62528943D01*
X60540000Y-62562118D01*
X60540000Y-62800000D01*
X60597852Y-63090839D01*
X60762599Y-63337401D01*
X61664878Y-64239680D01*
X61664838Y-64285167D01*
X61806883Y-64628943D01*
X62069673Y-64892192D01*
X62413201Y-65034838D01*
X62785167Y-65035162D01*
X63128943Y-64893117D01*
X63392192Y-64630327D01*
X63534838Y-64286799D01*
X63534956Y-64151000D01*
X63547002Y-64151000D01*
X63547002Y-63986218D01*
X63779026Y-64107358D01*
X63794791Y-64104709D01*
X64322036Y-63850732D01*
X64690000Y-63438892D01*
X65057964Y-63850732D01*
X65585209Y-64104709D01*
X65600974Y-64107358D01*
X65833000Y-63986217D01*
X65833000Y-62627000D01*
X63547000Y-62627000D01*
X63547000Y-62647000D01*
X63293000Y-62647000D01*
X63293000Y-62627000D01*
X63273000Y-62627000D01*
X63273000Y-62373000D01*
X63293000Y-62373000D01*
X63293000Y-61013783D01*
X63547000Y-61013783D01*
X63547000Y-62373000D01*
X65833000Y-62373000D01*
X65833000Y-61013783D01*
X65600974Y-60892642D01*
X65585209Y-60895291D01*
X65057964Y-61149268D01*
X64690000Y-61561108D01*
X64322036Y-61149268D01*
X63794791Y-60895291D01*
X63779026Y-60892642D01*
X63547000Y-61013783D01*
X63293000Y-61013783D01*
X63060974Y-60892642D01*
X63045209Y-60895291D01*
X62517964Y-61149268D01*
X62136547Y-61576166D01*
X62093117Y-61471057D01*
X61830327Y-61207808D01*
X61486799Y-61065162D01*
X61114833Y-61064838D01*
X60771057Y-61206883D01*
X60507808Y-61469673D01*
X60365162Y-61813201D01*
X60364838Y-62185167D01*
X43781050Y-62185167D01*
X43703476Y-61997425D01*
X43440686Y-61734176D01*
X43310000Y-61679910D01*
X43310000Y-60487441D01*
X43434838Y-60186799D01*
X43435162Y-59814833D01*
X43293117Y-59471057D01*
X43030327Y-59207808D01*
X42686799Y-59065162D01*
X42314833Y-59064838D01*
X41971057Y-59206883D01*
X41707808Y-59469673D01*
X41565162Y-59813201D01*
X41564838Y-60185167D01*
X30710000Y-60185167D01*
X30710000Y-51885167D01*
X53064838Y-51885167D01*
X53206883Y-52228943D01*
X53274245Y-52296422D01*
X53297852Y-52415103D01*
X53462599Y-52661665D01*
X54163337Y-53362403D01*
X54409898Y-53527150D01*
X54700738Y-53585002D01*
X55736413Y-53585002D01*
X56027252Y-53527150D01*
X56273814Y-53362403D01*
X57076195Y-52560022D01*
X62094466Y-52560022D01*
X61871917Y-52782570D01*
X61571057Y-52906883D01*
X61307808Y-53169673D01*
X61165162Y-53513201D01*
X61164838Y-53885167D01*
X61306883Y-54228943D01*
X61546426Y-54468905D01*
X60785310Y-55230021D01*
X60739823Y-55229981D01*
X60396047Y-55372026D01*
X60132798Y-55634816D01*
X59990152Y-55978344D01*
X59990013Y-56137535D01*
X59987528Y-56137533D01*
X59643752Y-56279578D01*
X59380503Y-56542368D01*
X59237857Y-56885896D01*
X59237533Y-57257862D01*
X59379578Y-57601638D01*
X59642368Y-57864887D01*
X59985896Y-58007533D01*
X60032772Y-58007574D01*
X60087601Y-58062403D01*
X60334163Y-58227150D01*
X60625002Y-58285002D01*
X63474998Y-58285002D01*
X63765837Y-58227150D01*
X64012399Y-58062403D01*
X64139680Y-57935122D01*
X64185167Y-57935162D01*
X64528943Y-57793117D01*
X64599893Y-57722290D01*
X64669673Y-57792192D01*
X65013201Y-57934838D01*
X65385167Y-57935162D01*
X65728943Y-57793117D01*
X65971732Y-57550751D01*
X66171840Y-57751208D01*
X66515368Y-57893854D01*
X66887334Y-57894178D01*
X67172423Y-57776382D01*
X67313201Y-57834838D01*
X67672577Y-57835151D01*
X67672577Y-59232577D01*
X67730429Y-59523416D01*
X67895176Y-59769978D01*
X69051566Y-60926368D01*
X68500000Y-60816655D01*
X67926511Y-60930729D01*
X67440330Y-61255585D01*
X67233539Y-61565069D01*
X66862036Y-61149268D01*
X66334791Y-60895291D01*
X66319026Y-60892642D01*
X66087000Y-61013783D01*
X66087000Y-62373000D01*
X66107000Y-62373000D01*
X66107000Y-62627000D01*
X66087000Y-62627000D01*
X66087000Y-63986217D01*
X66319026Y-64107358D01*
X66334791Y-64104709D01*
X66862036Y-63850732D01*
X67233539Y-63434931D01*
X67440330Y-63744415D01*
X67926511Y-64069271D01*
X68490000Y-64181356D01*
X68490000Y-65187537D01*
X68457808Y-65219673D01*
X68449367Y-65240000D01*
X61312463Y-65240000D01*
X61280327Y-65207808D01*
X60936799Y-65065162D01*
X60564833Y-65064838D01*
X60221057Y-65206883D01*
X59957808Y-65469673D01*
X59815162Y-65813201D01*
X59814838Y-66185167D01*
X59956883Y-66528943D01*
X60219673Y-66792192D01*
X60266109Y-66811474D01*
X60207808Y-66869673D01*
X60065162Y-67213201D01*
X60064838Y-67585167D01*
X60206883Y-67928943D01*
X60469673Y-68192192D01*
X60813201Y-68334838D01*
X61185167Y-68335162D01*
X61488083Y-68210000D01*
X64687624Y-68210000D01*
X64769673Y-68292192D01*
X65113201Y-68434838D01*
X65485167Y-68435162D01*
X65828943Y-68293117D01*
X66092192Y-68030327D01*
X66234838Y-67686799D01*
X66235162Y-67314833D01*
X66093117Y-66971057D01*
X65882428Y-66760000D01*
X69000000Y-66760000D01*
X69290839Y-66702148D01*
X69316415Y-66685059D01*
X69435167Y-66685162D01*
X69778943Y-66543117D01*
X70042192Y-66280327D01*
X70184838Y-65936799D01*
X70185162Y-65564833D01*
X70043117Y-65221057D01*
X70010000Y-65187882D01*
X70010000Y-63764240D01*
X70466511Y-64069271D01*
X71040000Y-64183345D01*
X71613489Y-64069271D01*
X72099670Y-63744415D01*
X72310000Y-63429634D01*
X72520330Y-63744415D01*
X73006511Y-64069271D01*
X73580000Y-64183345D01*
X74153489Y-64069271D01*
X74639670Y-63744415D01*
X74649243Y-63730087D01*
X74653238Y-63751317D01*
X74792310Y-63967441D01*
X75004510Y-64112431D01*
X75256400Y-64163440D01*
X75914052Y-64163440D01*
X75907808Y-64169673D01*
X75765162Y-64513201D01*
X75764838Y-64885167D01*
X75906883Y-65228943D01*
X76169673Y-65492192D01*
X76513201Y-65634838D01*
X76885167Y-65635162D01*
X77188083Y-65510000D01*
X77700000Y-65510000D01*
X78009974Y-65448342D01*
X78272756Y-65272756D01*
X78728083Y-64817429D01*
X79028943Y-64693117D01*
X79292192Y-64430327D01*
X79434838Y-64086799D01*
X79435162Y-63714833D01*
X79293117Y-63371057D01*
X79030327Y-63107808D01*
X78686799Y-62965162D01*
X78314833Y-62964838D01*
X77971057Y-63106883D01*
X77707808Y-63369673D01*
X77615802Y-63591246D01*
X77631040Y-63516000D01*
X77631040Y-61484000D01*
X77612925Y-61387727D01*
X85064878Y-68839680D01*
X85064838Y-68885167D01*
X85206883Y-69228943D01*
X85469673Y-69492192D01*
X85813201Y-69634838D01*
X86185167Y-69635162D01*
X86528943Y-69493117D01*
X86792192Y-69230327D01*
X86934838Y-68886799D01*
X86935162Y-68514833D01*
X86793117Y-68171057D01*
X86530327Y-67907808D01*
X86186799Y-67765162D01*
X86139923Y-67765121D01*
X82797748Y-64422946D01*
X88894017Y-64422946D01*
X89162812Y-65008379D01*
X89635182Y-65446385D01*
X90117056Y-65645975D01*
X90373000Y-65526836D01*
X90373000Y-64167000D01*
X89012633Y-64167000D01*
X88894017Y-64422946D01*
X82797748Y-64422946D01*
X78437401Y-60062599D01*
X78190839Y-59897852D01*
X77900000Y-59840000D01*
X70114802Y-59840000D01*
X69192577Y-58917775D01*
X69192577Y-55585167D01*
X70864838Y-55585167D01*
X71006883Y-55928943D01*
X71269673Y-56192192D01*
X71490023Y-56283690D01*
X71489848Y-56485167D01*
X71631893Y-56828943D01*
X71894683Y-57092192D01*
X72238211Y-57234838D01*
X72610177Y-57235162D01*
X72953953Y-57093117D01*
X73217202Y-56830327D01*
X73359848Y-56486799D01*
X73359889Y-56439923D01*
X73414645Y-56385167D01*
X79264838Y-56385167D01*
X79390000Y-56688083D01*
X79390000Y-58112559D01*
X79265162Y-58413201D01*
X79264838Y-58785167D01*
X79406883Y-59128943D01*
X79669673Y-59392192D01*
X80013201Y-59534838D01*
X80385167Y-59535162D01*
X80728943Y-59393117D01*
X80992192Y-59130327D01*
X81134838Y-58786799D01*
X81135162Y-58414833D01*
X81010000Y-58111917D01*
X81010000Y-56687441D01*
X81134838Y-56386799D01*
X81135162Y-56014833D01*
X80993117Y-55671057D01*
X80730327Y-55407808D01*
X80386799Y-55265162D01*
X80014833Y-55264838D01*
X79671057Y-55406883D01*
X79407808Y-55669673D01*
X79265162Y-56013201D01*
X79264838Y-56385167D01*
X73414645Y-56385167D01*
X74862411Y-54937401D01*
X75027158Y-54690839D01*
X75085010Y-54400000D01*
X75085010Y-52262463D01*
X75117202Y-52230327D01*
X75259848Y-51886799D01*
X75260172Y-51514833D01*
X75118127Y-51171057D01*
X74855337Y-50907808D01*
X74634899Y-50816274D01*
X74635162Y-50514833D01*
X74493117Y-50171057D01*
X74230327Y-49907808D01*
X73886799Y-49765162D01*
X73514833Y-49764838D01*
X73171057Y-49906883D01*
X72907808Y-50169673D01*
X72765162Y-50513201D01*
X72764838Y-50885167D01*
X72906883Y-51228943D01*
X72940000Y-51262118D01*
X72940000Y-53685198D01*
X72109207Y-54515991D01*
X71986799Y-54465162D01*
X71614833Y-54464838D01*
X71271057Y-54606883D01*
X71007808Y-54869673D01*
X70865162Y-55213201D01*
X70864838Y-55585167D01*
X69192577Y-55585167D01*
X69192577Y-54134088D01*
X69134725Y-53843249D01*
X68969978Y-53596687D01*
X68154225Y-52780934D01*
X68234838Y-52586799D01*
X68235162Y-52214833D01*
X68093117Y-51871057D01*
X67830327Y-51607808D01*
X67486799Y-51465162D01*
X67114833Y-51464838D01*
X66811917Y-51590000D01*
X66384802Y-51590000D01*
X67139680Y-50835122D01*
X67185167Y-50835162D01*
X67528943Y-50693117D01*
X67596422Y-50625755D01*
X67715103Y-50602148D01*
X67961665Y-50437401D01*
X68937659Y-49461407D01*
X69006883Y-49628943D01*
X69269673Y-49892192D01*
X69613201Y-50034838D01*
X69985167Y-50035162D01*
X70288083Y-49910000D01*
X71000000Y-49910000D01*
X71309974Y-49848342D01*
X71572756Y-49672756D01*
X74128084Y-47117429D01*
X74428943Y-46993117D01*
X74557492Y-46864792D01*
X74619685Y-46927093D01*
X74963213Y-47069739D01*
X75335179Y-47070063D01*
X75678955Y-46928018D01*
X75942204Y-46665228D01*
X76084850Y-46321700D01*
X76085174Y-45949734D01*
X75943129Y-45605958D01*
X75910012Y-45572783D01*
X75910012Y-45040547D01*
X82540000Y-51670535D01*
X82540000Y-58237537D01*
X82507808Y-58269673D01*
X82365162Y-58613201D01*
X82364838Y-58985167D01*
X82506883Y-59328943D01*
X82769673Y-59592192D01*
X83113201Y-59734838D01*
X83485167Y-59735162D01*
X83828943Y-59593117D01*
X83894926Y-59527249D01*
X83913201Y-59534838D01*
X84285167Y-59535162D01*
X84550228Y-59425641D01*
X84813201Y-59534838D01*
X85185167Y-59535162D01*
X85528943Y-59393117D01*
X85792192Y-59130327D01*
X85934838Y-58786799D01*
X85935162Y-58414833D01*
X85793117Y-58071057D01*
X85760000Y-58037882D01*
X85760000Y-56514946D01*
X88894017Y-56514946D01*
X89162812Y-57100379D01*
X89635182Y-57538385D01*
X90117056Y-57737975D01*
X90373000Y-57618836D01*
X90373000Y-56259000D01*
X89012633Y-56259000D01*
X88894017Y-56514946D01*
X85760000Y-56514946D01*
X85760000Y-48606946D01*
X88894017Y-48606946D01*
X89162812Y-49192379D01*
X89635182Y-49630385D01*
X90117056Y-49829975D01*
X90373000Y-49710836D01*
X90373000Y-48351000D01*
X89012633Y-48351000D01*
X88894017Y-48606946D01*
X85760000Y-48606946D01*
X85760000Y-48300000D01*
X85702148Y-48009161D01*
X85537401Y-47762599D01*
X84014999Y-46240197D01*
X84128943Y-46193117D01*
X84392192Y-45930327D01*
X84534838Y-45586799D01*
X84535162Y-45214833D01*
X84410000Y-44911917D01*
X84410000Y-40698946D01*
X88894017Y-40698946D01*
X89162812Y-41284379D01*
X89635182Y-41722385D01*
X90117056Y-41921975D01*
X90373000Y-41802836D01*
X90373000Y-40443000D01*
X89012633Y-40443000D01*
X88894017Y-40698946D01*
X84410000Y-40698946D01*
X84410000Y-36500996D01*
X84404383Y-36472756D01*
X84348343Y-36191023D01*
X84172757Y-35928240D01*
X81035463Y-32790946D01*
X88894017Y-32790946D01*
X89162812Y-33376379D01*
X89635182Y-33814385D01*
X90117056Y-34013975D01*
X90373000Y-33894836D01*
X90373000Y-32535000D01*
X89012633Y-32535000D01*
X88894017Y-32790946D01*
X81035463Y-32790946D01*
X79017643Y-30773127D01*
X78920250Y-30708051D01*
X78754861Y-30597541D01*
X78444887Y-30535883D01*
X75757013Y-30535883D01*
X75456371Y-30411045D01*
X75334998Y-30410939D01*
X75334998Y-29674998D01*
X75277146Y-29384159D01*
X75112399Y-29137597D01*
X72837401Y-26862599D01*
X72590839Y-26697852D01*
X72300000Y-26640000D01*
X71362463Y-26640000D01*
X71330327Y-26607808D01*
X70986799Y-26465162D01*
X70614833Y-26464838D01*
X70271057Y-26606883D01*
X70007808Y-26869673D01*
X69865162Y-27213201D01*
X69864838Y-27585167D01*
X70006883Y-27928943D01*
X70269673Y-28192192D01*
X70613201Y-28334838D01*
X70985167Y-28335162D01*
X71097331Y-28288817D01*
X71206883Y-28553953D01*
X71469673Y-28817202D01*
X71813201Y-28959848D01*
X71860077Y-28959889D01*
X72750724Y-29850536D01*
X72750724Y-31169814D01*
X72689829Y-31169761D01*
X72386913Y-31294923D01*
X70695077Y-31294923D01*
X70385103Y-31356581D01*
X70267984Y-31434838D01*
X70122320Y-31532167D01*
X68171918Y-33482570D01*
X67871057Y-33606883D01*
X67607808Y-33869673D01*
X67560000Y-33984807D01*
X67560000Y-33114802D01*
X69239680Y-31435122D01*
X69285167Y-31435162D01*
X69628943Y-31293117D01*
X69892192Y-31030327D01*
X70034838Y-30686799D01*
X70035162Y-30314833D01*
X69893117Y-29971057D01*
X69630327Y-29707808D01*
X69286799Y-29565162D01*
X68914833Y-29564838D01*
X68571057Y-29706883D01*
X68413613Y-29864052D01*
X68194850Y-29773213D01*
X67822884Y-29772889D01*
X67479108Y-29914934D01*
X67215859Y-30177724D01*
X67073213Y-30521252D01*
X67073170Y-30570954D01*
X66852378Y-30479273D01*
X66480412Y-30478949D01*
X66136636Y-30620994D01*
X65873387Y-30883784D01*
X65730741Y-31227312D01*
X65730700Y-31274188D01*
X65362577Y-31642311D01*
X65197830Y-31888873D01*
X65139978Y-32179712D01*
X65139978Y-32217651D01*
X65030327Y-32107808D01*
X64686799Y-31965162D01*
X64314833Y-31964838D01*
X63971057Y-32106883D01*
X63707808Y-32369673D01*
X63565162Y-32713201D01*
X63564838Y-33085167D01*
X63690000Y-33388083D01*
X63690000Y-34101343D01*
X63751658Y-34411317D01*
X63868912Y-34586799D01*
X63927244Y-34674099D01*
X64095615Y-34842470D01*
X64219927Y-35143330D01*
X64482717Y-35406579D01*
X64826245Y-35549225D01*
X65139978Y-35549498D01*
X65139978Y-47294069D01*
X65197830Y-47584908D01*
X65362577Y-47831470D01*
X65658481Y-48127374D01*
X64445855Y-49340000D01*
X59939595Y-49340000D01*
X59876517Y-49297853D01*
X59585678Y-49240001D01*
X56275735Y-49240001D01*
X55984895Y-49297853D01*
X55738334Y-49462600D01*
X55162599Y-50038335D01*
X54997852Y-50284897D01*
X54940000Y-50575736D01*
X54940000Y-50737537D01*
X54907808Y-50769673D01*
X54826764Y-50964848D01*
X54814833Y-50964838D01*
X54653714Y-51031411D01*
X54530327Y-50907808D01*
X54186799Y-50765162D01*
X53814833Y-50764838D01*
X53471057Y-50906883D01*
X53207808Y-51169673D01*
X53065162Y-51513201D01*
X53064838Y-51885167D01*
X30710000Y-51885167D01*
X30710000Y-40552532D01*
X43427073Y-40552532D01*
X43525736Y-40819387D01*
X44135461Y-41045908D01*
X44785460Y-41021856D01*
X45274264Y-40819387D01*
X45372927Y-40552532D01*
X44400000Y-39579605D01*
X43427073Y-40552532D01*
X30710000Y-40552532D01*
X30710000Y-38076661D01*
X36752758Y-38076661D01*
X36964990Y-38590303D01*
X37357630Y-38983629D01*
X37870900Y-39196757D01*
X38426661Y-39197242D01*
X38940303Y-38985010D01*
X39198134Y-38727629D01*
X39319329Y-39020943D01*
X39975602Y-39678362D01*
X40833502Y-40034593D01*
X41762422Y-40035404D01*
X42620943Y-39680671D01*
X42768805Y-39533067D01*
X42778144Y-39785460D01*
X42980613Y-40274264D01*
X43247468Y-40372927D01*
X44220395Y-39400000D01*
X44579605Y-39400000D01*
X45552532Y-40372927D01*
X45819387Y-40274264D01*
X46045908Y-39664539D01*
X46031871Y-39285167D01*
X56064838Y-39285167D01*
X56206883Y-39628943D01*
X56469673Y-39892192D01*
X56772372Y-40017884D01*
X60227244Y-43472757D01*
X60490027Y-43648343D01*
X60800000Y-43710000D01*
X62112559Y-43710000D01*
X62413201Y-43834838D01*
X62785167Y-43835162D01*
X63128943Y-43693117D01*
X63392192Y-43430327D01*
X63534838Y-43086799D01*
X63535162Y-42714833D01*
X63393117Y-42371057D01*
X63130327Y-42107808D01*
X62786799Y-41965162D01*
X62414833Y-41964838D01*
X62111917Y-42090000D01*
X61135513Y-42090000D01*
X59786057Y-40740545D01*
X59892332Y-40784674D01*
X60264298Y-40784998D01*
X60608074Y-40642953D01*
X60871323Y-40380163D01*
X61013969Y-40036635D01*
X61014209Y-39760593D01*
X61339680Y-39435122D01*
X61385167Y-39435162D01*
X61728943Y-39293117D01*
X61992192Y-39030327D01*
X62134838Y-38686799D01*
X62135162Y-38314833D01*
X61993117Y-37971057D01*
X61730327Y-37707808D01*
X61635115Y-37668273D01*
X61635162Y-37614833D01*
X61493117Y-37271057D01*
X61230327Y-37007808D01*
X60886799Y-36865162D01*
X60514833Y-36864838D01*
X60171057Y-37006883D01*
X59907808Y-37269673D01*
X59765162Y-37613201D01*
X59764842Y-37980643D01*
X59272342Y-38473143D01*
X59226855Y-38473103D01*
X58883079Y-38615148D01*
X58619830Y-38877938D01*
X58477184Y-39221466D01*
X58477001Y-39431489D01*
X57917430Y-38871918D01*
X57793117Y-38571057D01*
X57530327Y-38307808D01*
X57186799Y-38165162D01*
X56814833Y-38164838D01*
X56471057Y-38306883D01*
X56207808Y-38569673D01*
X56065162Y-38913201D01*
X56064838Y-39285167D01*
X46031871Y-39285167D01*
X46021856Y-39014540D01*
X45819387Y-38525736D01*
X45552532Y-38427073D01*
X44579605Y-39400000D01*
X44220395Y-39400000D01*
X44206253Y-39385858D01*
X44385858Y-39206253D01*
X44400000Y-39220395D01*
X45372927Y-38247468D01*
X45274264Y-37980613D01*
X44664539Y-37754092D01*
X44014540Y-37778144D01*
X43634795Y-37935439D01*
X43635404Y-37237578D01*
X43280671Y-36379057D01*
X42624398Y-35721638D01*
X41766498Y-35365407D01*
X40837578Y-35364596D01*
X39979057Y-35719329D01*
X39321638Y-36375602D01*
X39139615Y-36813961D01*
X38942370Y-36616371D01*
X38429100Y-36403243D01*
X37873339Y-36402758D01*
X37359697Y-36614990D01*
X36966371Y-37007630D01*
X36753243Y-37520900D01*
X36752758Y-38076661D01*
X30710000Y-38076661D01*
X30710000Y-36280213D01*
X35849392Y-36280213D01*
X35918857Y-36522397D01*
X36442302Y-36709144D01*
X36997368Y-36681362D01*
X37381143Y-36522397D01*
X37450608Y-36280213D01*
X36650000Y-35479605D01*
X35849392Y-36280213D01*
X30710000Y-36280213D01*
X30710000Y-35092302D01*
X35240856Y-35092302D01*
X35268638Y-35647368D01*
X35427603Y-36031143D01*
X35669787Y-36100608D01*
X36470395Y-35300000D01*
X36829605Y-35300000D01*
X37630213Y-36100608D01*
X37872397Y-36031143D01*
X38059144Y-35507698D01*
X38031362Y-34952632D01*
X37872397Y-34568857D01*
X37630213Y-34499392D01*
X36829605Y-35300000D01*
X36470395Y-35300000D01*
X35669787Y-34499392D01*
X35427603Y-34568857D01*
X35240856Y-35092302D01*
X30710000Y-35092302D01*
X30710000Y-34319787D01*
X35849392Y-34319787D01*
X36650000Y-35120395D01*
X37450608Y-34319787D01*
X37381143Y-34077603D01*
X36857698Y-33890856D01*
X36302632Y-33918638D01*
X35918857Y-34077603D01*
X35849392Y-34319787D01*
X30710000Y-34319787D01*
X30710000Y-27926661D01*
X36752758Y-27926661D01*
X36964990Y-28440303D01*
X37357630Y-28833629D01*
X37870900Y-29046757D01*
X38426661Y-29047242D01*
X38940303Y-28835010D01*
X39333629Y-28442370D01*
X39546757Y-27929100D01*
X39547242Y-27373339D01*
X39530262Y-27332244D01*
X39975602Y-27778362D01*
X40833502Y-28134593D01*
X41762422Y-28135404D01*
X42620943Y-27780671D01*
X43075745Y-27326661D01*
X46302758Y-27326661D01*
X46514990Y-27840303D01*
X46907630Y-28233629D01*
X47107464Y-28316607D01*
X46909697Y-28398323D01*
X46516371Y-28790963D01*
X46303243Y-29304233D01*
X46302758Y-29859994D01*
X46514990Y-30373636D01*
X46907630Y-30766962D01*
X47107464Y-30849940D01*
X46909697Y-30931656D01*
X46516371Y-31324296D01*
X46303243Y-31837566D01*
X46302758Y-32393327D01*
X46514990Y-32906969D01*
X46907630Y-33300295D01*
X47107464Y-33383273D01*
X46909697Y-33464989D01*
X46516371Y-33857629D01*
X46303243Y-34370899D01*
X46302758Y-34926660D01*
X46514990Y-35440302D01*
X46907630Y-35833628D01*
X47420900Y-36046756D01*
X47976661Y-36047241D01*
X48490303Y-35835009D01*
X48883629Y-35442369D01*
X49096757Y-34929099D01*
X49097242Y-34373338D01*
X48885010Y-33859696D01*
X48492370Y-33466370D01*
X48292536Y-33383392D01*
X48490303Y-33301676D01*
X48883629Y-32909036D01*
X49096757Y-32395766D01*
X49097242Y-31840005D01*
X48885010Y-31326363D01*
X48492370Y-30933037D01*
X48292536Y-30850059D01*
X48490303Y-30768343D01*
X48883629Y-30375703D01*
X49096757Y-29862433D01*
X49097242Y-29306672D01*
X48885010Y-28793030D01*
X48718932Y-28626661D01*
X48902758Y-28626661D01*
X49114990Y-29140303D01*
X49507630Y-29533629D01*
X49707464Y-29616607D01*
X49509697Y-29698323D01*
X49116371Y-30090963D01*
X48903243Y-30604233D01*
X48902758Y-31159994D01*
X49114990Y-31673636D01*
X49507630Y-32066962D01*
X49707464Y-32149940D01*
X49509697Y-32231656D01*
X49116371Y-32624296D01*
X48903243Y-33137566D01*
X48902758Y-33693327D01*
X49114990Y-34206969D01*
X49507630Y-34600295D01*
X49707464Y-34683273D01*
X49509697Y-34764989D01*
X49116371Y-35157629D01*
X48903243Y-35670899D01*
X48902758Y-36226660D01*
X49114990Y-36740302D01*
X49507630Y-37133628D01*
X50020900Y-37346756D01*
X50576661Y-37347241D01*
X51090303Y-37135009D01*
X51483629Y-36742369D01*
X51696757Y-36229099D01*
X51697242Y-35673338D01*
X51485010Y-35159696D01*
X51092370Y-34766370D01*
X50892536Y-34683392D01*
X51090303Y-34601676D01*
X51483629Y-34209036D01*
X51696757Y-33695766D01*
X51697242Y-33140005D01*
X51485010Y-32626363D01*
X51092370Y-32233037D01*
X50892536Y-32150059D01*
X51090303Y-32068343D01*
X51483629Y-31675703D01*
X51696757Y-31162433D01*
X51697242Y-30606672D01*
X51485010Y-30093030D01*
X51092370Y-29699704D01*
X50892536Y-29616726D01*
X51090303Y-29535010D01*
X51483629Y-29142370D01*
X51548905Y-28985167D01*
X52564838Y-28985167D01*
X52690000Y-29288083D01*
X52690000Y-32300000D01*
X52751658Y-32609974D01*
X52927244Y-32872756D01*
X54782571Y-34728084D01*
X54906883Y-35028943D01*
X55169673Y-35292192D01*
X55513201Y-35434838D01*
X55885167Y-35435162D01*
X56228943Y-35293117D01*
X56492192Y-35030327D01*
X56634838Y-34686799D01*
X56635162Y-34314833D01*
X56493117Y-33971057D01*
X56230327Y-33707808D01*
X55927629Y-33582116D01*
X54310000Y-31964488D01*
X54310000Y-30560177D01*
X60064838Y-30560177D01*
X60190000Y-30863093D01*
X60190000Y-31809701D01*
X60251658Y-32119675D01*
X60365526Y-32290090D01*
X60400722Y-32342764D01*
X60534309Y-32666070D01*
X60797099Y-32929319D01*
X61140627Y-33071965D01*
X61512593Y-33072289D01*
X61856369Y-32930244D01*
X62119618Y-32667454D01*
X62262264Y-32323926D01*
X62262588Y-31951960D01*
X62120543Y-31608184D01*
X61857753Y-31344935D01*
X61810000Y-31325106D01*
X61810000Y-30862451D01*
X61934838Y-30561809D01*
X61935162Y-30189843D01*
X61793117Y-29846067D01*
X61530327Y-29582818D01*
X61186799Y-29440172D01*
X60814833Y-29439848D01*
X60471057Y-29581893D01*
X60207808Y-29844683D01*
X60065162Y-30188211D01*
X60064838Y-30560177D01*
X54310000Y-30560177D01*
X54310000Y-29287441D01*
X54434838Y-28986799D01*
X54435162Y-28614833D01*
X54310000Y-28311917D01*
X54310000Y-26200944D01*
X54328943Y-26193117D01*
X54592192Y-25930327D01*
X54734838Y-25586799D01*
X54735162Y-25214833D01*
X54598030Y-24882946D01*
X88894017Y-24882946D01*
X89162812Y-25468379D01*
X89635182Y-25906385D01*
X90117056Y-26105975D01*
X90373000Y-25986836D01*
X90373000Y-24627000D01*
X89012633Y-24627000D01*
X88894017Y-24882946D01*
X54598030Y-24882946D01*
X54593117Y-24871057D01*
X54330327Y-24607808D01*
X53986799Y-24465162D01*
X53614833Y-24464838D01*
X53271057Y-24606883D01*
X53007808Y-24869673D01*
X52865162Y-25213201D01*
X52865156Y-25220165D01*
X52751658Y-25390026D01*
X52690000Y-25700000D01*
X52690000Y-28312559D01*
X52565162Y-28613201D01*
X52564838Y-28985167D01*
X51548905Y-28985167D01*
X51696757Y-28629100D01*
X51697242Y-28073339D01*
X51485010Y-27559697D01*
X51092370Y-27166371D01*
X50579100Y-26953243D01*
X50023339Y-26952758D01*
X49509697Y-27164990D01*
X49116371Y-27557630D01*
X48903243Y-28070900D01*
X48902758Y-28626661D01*
X48718932Y-28626661D01*
X48492370Y-28399704D01*
X48292536Y-28316726D01*
X48490303Y-28235010D01*
X48883629Y-27842370D01*
X49096757Y-27329100D01*
X49097242Y-26773339D01*
X48885010Y-26259697D01*
X48492370Y-25866371D01*
X47979100Y-25653243D01*
X47423339Y-25652758D01*
X46909697Y-25864990D01*
X46516371Y-26257630D01*
X46303243Y-26770900D01*
X46302758Y-27326661D01*
X43075745Y-27326661D01*
X43278362Y-27124398D01*
X43634593Y-26266498D01*
X43635384Y-25360123D01*
X44135461Y-25545908D01*
X44785460Y-25521856D01*
X45274264Y-25319387D01*
X45372927Y-25052532D01*
X44400000Y-24079605D01*
X44385858Y-24093748D01*
X44206253Y-23914143D01*
X44220395Y-23900000D01*
X44579605Y-23900000D01*
X45552532Y-24872927D01*
X45819387Y-24774264D01*
X46045908Y-24164539D01*
X46021856Y-23514540D01*
X45819387Y-23025736D01*
X45552532Y-22927073D01*
X44579605Y-23900000D01*
X44220395Y-23900000D01*
X43247468Y-22927073D01*
X42980613Y-23025736D01*
X42754092Y-23635461D01*
X42766239Y-23963727D01*
X42624398Y-23821638D01*
X41766498Y-23465407D01*
X40837578Y-23464596D01*
X39979057Y-23819329D01*
X39321638Y-24475602D01*
X38965407Y-25333502D01*
X38964596Y-26262422D01*
X39124076Y-26648395D01*
X38942370Y-26466371D01*
X38429100Y-26253243D01*
X37873339Y-26252758D01*
X37359697Y-26464990D01*
X36966371Y-26857630D01*
X36753243Y-27370900D01*
X36752758Y-27926661D01*
X30710000Y-27926661D01*
X30710000Y-26080213D01*
X35849392Y-26080213D01*
X35918857Y-26322397D01*
X36442302Y-26509144D01*
X36997368Y-26481362D01*
X37381143Y-26322397D01*
X37450608Y-26080213D01*
X36650000Y-25279605D01*
X35849392Y-26080213D01*
X30710000Y-26080213D01*
X30710000Y-24892302D01*
X35240856Y-24892302D01*
X35268638Y-25447368D01*
X35427603Y-25831143D01*
X35669787Y-25900608D01*
X36470395Y-25100000D01*
X36829605Y-25100000D01*
X37630213Y-25900608D01*
X37872397Y-25831143D01*
X38059144Y-25307698D01*
X38031362Y-24752632D01*
X37872397Y-24368857D01*
X37630213Y-24299392D01*
X36829605Y-25100000D01*
X36470395Y-25100000D01*
X35669787Y-24299392D01*
X35427603Y-24368857D01*
X35240856Y-24892302D01*
X30710000Y-24892302D01*
X30710000Y-24119787D01*
X35849392Y-24119787D01*
X36650000Y-24920395D01*
X37450608Y-24119787D01*
X37381143Y-23877603D01*
X36857698Y-23690856D01*
X36302632Y-23718638D01*
X35918857Y-23877603D01*
X35849392Y-24119787D01*
X30710000Y-24119787D01*
X30710000Y-22747468D01*
X43427073Y-22747468D01*
X44400000Y-23720395D01*
X45372927Y-22747468D01*
X45274264Y-22480613D01*
X44664539Y-22254092D01*
X44014540Y-22278144D01*
X43525736Y-22480613D01*
X43427073Y-22747468D01*
X30710000Y-22747468D01*
X30710000Y-20710000D01*
X88883946Y-20710000D01*
X88836560Y-20944000D01*
G36*
X82790000Y-36836509D02*
X82790000Y-44912559D01*
X82759885Y-44985083D01*
X79937401Y-42162599D01*
X79690839Y-41997852D01*
X79400000Y-41940000D01*
X78562463Y-41940000D01*
X78530327Y-41907808D01*
X78186799Y-41765162D01*
X77814833Y-41764838D01*
X77471057Y-41906883D01*
X77207808Y-42169673D01*
X77067798Y-42506853D01*
X76786799Y-42390172D01*
X76414833Y-42389848D01*
X76071057Y-42531893D01*
X75910012Y-42692657D01*
X75910012Y-37025008D01*
X75852160Y-36734169D01*
X75687413Y-36487607D01*
X75353541Y-36153735D01*
X75353541Y-32280957D01*
X75454739Y-32281045D01*
X75757655Y-32155883D01*
X78109375Y-32155883D01*
X82790000Y-36836509D01*
X82790000Y-36836509D01*
G37*
X82790000Y-36836509D02*
X82790000Y-44912559D01*
X82759885Y-44985083D01*
X79937401Y-42162599D01*
X79690839Y-41997852D01*
X79400000Y-41940000D01*
X78562463Y-41940000D01*
X78530327Y-41907808D01*
X78186799Y-41765162D01*
X77814833Y-41764838D01*
X77471057Y-41906883D01*
X77207808Y-42169673D01*
X77067798Y-42506853D01*
X76786799Y-42390172D01*
X76414833Y-42389848D01*
X76071057Y-42531893D01*
X75910012Y-42692657D01*
X75910012Y-37025008D01*
X75852160Y-36734169D01*
X75687413Y-36487607D01*
X75353541Y-36153735D01*
X75353541Y-32280957D01*
X75454739Y-32281045D01*
X75757655Y-32155883D01*
X78109375Y-32155883D01*
X82790000Y-36836509D01*
M02*
