G04 #@! TF.FileFunction,Legend,Top*
%FSLAX46Y46*%
G04 Gerber Fmt 4.6, Leading zero omitted, Abs format (unit mm)*
G04 Created by KiCad (PCBNEW 4.0.6-e0-6349~53~ubuntu16.04.1) date Mon Jul 24 21:03:44 2017*
%MOMM*%
%LPD*%
G01*
G04 APERTURE LIST*
%ADD10C,0.100000*%
%ADD11C,0.300000*%
%ADD12C,0.200000*%
%ADD13C,0.150000*%
%ADD14C,0.120000*%
G04 APERTURE END LIST*
D10*
D11*
X70071429Y-42607143D02*
X70285715Y-42678571D01*
X70642858Y-42678571D01*
X70785715Y-42607143D01*
X70857144Y-42535714D01*
X70928572Y-42392857D01*
X70928572Y-42250000D01*
X70857144Y-42107143D01*
X70785715Y-42035714D01*
X70642858Y-41964286D01*
X70357144Y-41892857D01*
X70214286Y-41821429D01*
X70142858Y-41750000D01*
X70071429Y-41607143D01*
X70071429Y-41464286D01*
X70142858Y-41321429D01*
X70214286Y-41250000D01*
X70357144Y-41178571D01*
X70714286Y-41178571D01*
X70928572Y-41250000D01*
X71571429Y-42678571D02*
X71571429Y-41178571D01*
X72142857Y-41178571D01*
X72285715Y-41250000D01*
X72357143Y-41321429D01*
X72428572Y-41464286D01*
X72428572Y-41678571D01*
X72357143Y-41821429D01*
X72285715Y-41892857D01*
X72142857Y-41964286D01*
X71571429Y-41964286D01*
X73071429Y-42678571D02*
X73071429Y-41178571D01*
X73428572Y-41178571D01*
X73642857Y-41250000D01*
X73785715Y-41392857D01*
X73857143Y-41535714D01*
X73928572Y-41821429D01*
X73928572Y-42035714D01*
X73857143Y-42321429D01*
X73785715Y-42464286D01*
X73642857Y-42607143D01*
X73428572Y-42678571D01*
X73071429Y-42678571D01*
X59321429Y-42678571D02*
X59321429Y-41178571D01*
X59678572Y-41178571D01*
X59892857Y-41250000D01*
X60035715Y-41392857D01*
X60107143Y-41535714D01*
X60178572Y-41821429D01*
X60178572Y-42035714D01*
X60107143Y-42321429D01*
X60035715Y-42464286D01*
X59892857Y-42607143D01*
X59678572Y-42678571D01*
X59321429Y-42678571D01*
X60821429Y-41178571D02*
X60821429Y-42392857D01*
X60892857Y-42535714D01*
X60964286Y-42607143D01*
X61107143Y-42678571D01*
X61392857Y-42678571D01*
X61535715Y-42607143D01*
X61607143Y-42535714D01*
X61678572Y-42392857D01*
X61678572Y-41178571D01*
X62392858Y-42678571D02*
X62392858Y-41178571D01*
X62964286Y-41178571D01*
X63107144Y-41250000D01*
X63178572Y-41321429D01*
X63250001Y-41464286D01*
X63250001Y-41678571D01*
X63178572Y-41821429D01*
X63107144Y-41892857D01*
X62964286Y-41964286D01*
X62392858Y-41964286D01*
X43750000Y-68892857D02*
X43678571Y-69035714D01*
X43678571Y-69250000D01*
X43750000Y-69464285D01*
X43892857Y-69607143D01*
X44035714Y-69678571D01*
X44321429Y-69750000D01*
X44535714Y-69750000D01*
X44821429Y-69678571D01*
X44964286Y-69607143D01*
X45107143Y-69464285D01*
X45178571Y-69250000D01*
X45178571Y-69107143D01*
X45107143Y-68892857D01*
X45035714Y-68821428D01*
X44535714Y-68821428D01*
X44535714Y-69107143D01*
X45178571Y-68178571D02*
X43678571Y-68178571D01*
X45178571Y-67321428D01*
X43678571Y-67321428D01*
X45178571Y-66607142D02*
X43678571Y-66607142D01*
X43678571Y-66249999D01*
X43750000Y-66035714D01*
X43892857Y-65892856D01*
X44035714Y-65821428D01*
X44321429Y-65749999D01*
X44535714Y-65749999D01*
X44821429Y-65821428D01*
X44964286Y-65892856D01*
X45107143Y-66035714D01*
X45178571Y-66249999D01*
X45178571Y-66607142D01*
X41178571Y-69607143D02*
X42678571Y-69107143D01*
X41178571Y-68607143D01*
X42678571Y-67464286D02*
X41178571Y-67464286D01*
X42607143Y-67464286D02*
X42678571Y-67607143D01*
X42678571Y-67892857D01*
X42607143Y-68035715D01*
X42535714Y-68107143D01*
X42392857Y-68178572D01*
X41964286Y-68178572D01*
X41821429Y-68107143D01*
X41750000Y-68035715D01*
X41678571Y-67892857D01*
X41678571Y-67607143D01*
X41750000Y-67464286D01*
X42678571Y-66107143D02*
X41178571Y-66107143D01*
X42607143Y-66107143D02*
X42678571Y-66250000D01*
X42678571Y-66535714D01*
X42607143Y-66678572D01*
X42535714Y-66750000D01*
X42392857Y-66821429D01*
X41964286Y-66821429D01*
X41821429Y-66750000D01*
X41750000Y-66678572D01*
X41678571Y-66535714D01*
X41678571Y-66250000D01*
X41750000Y-66107143D01*
X36357143Y-71500000D02*
X36214286Y-71428571D01*
X36000000Y-71428571D01*
X35785715Y-71500000D01*
X35642857Y-71642857D01*
X35571429Y-71785714D01*
X35500000Y-72071429D01*
X35500000Y-72285714D01*
X35571429Y-72571429D01*
X35642857Y-72714286D01*
X35785715Y-72857143D01*
X36000000Y-72928571D01*
X36142857Y-72928571D01*
X36357143Y-72857143D01*
X36428572Y-72785714D01*
X36428572Y-72285714D01*
X36142857Y-72285714D01*
X37071429Y-72928571D02*
X37071429Y-71428571D01*
X37928572Y-72928571D01*
X37928572Y-71428571D01*
X38642858Y-72928571D02*
X38642858Y-71428571D01*
X39000001Y-71428571D01*
X39214286Y-71500000D01*
X39357144Y-71642857D01*
X39428572Y-71785714D01*
X39500001Y-72071429D01*
X39500001Y-72285714D01*
X39428572Y-72571429D01*
X39357144Y-72714286D01*
X39214286Y-72857143D01*
X39000001Y-72928571D01*
X38642858Y-72928571D01*
X36178572Y-69928571D02*
X35321429Y-69928571D01*
X35750001Y-69928571D02*
X35750001Y-68428571D01*
X35607144Y-68642857D01*
X35464286Y-68785714D01*
X35321429Y-68857143D01*
X36750000Y-68571429D02*
X36821429Y-68500000D01*
X36964286Y-68428571D01*
X37321429Y-68428571D01*
X37464286Y-68500000D01*
X37535715Y-68571429D01*
X37607143Y-68714286D01*
X37607143Y-68857143D01*
X37535715Y-69071429D01*
X36678572Y-69928571D01*
X37607143Y-69928571D01*
X38035714Y-68428571D02*
X38535714Y-69928571D01*
X39035714Y-68428571D01*
X39464285Y-69500000D02*
X40178571Y-69500000D01*
X39321428Y-69928571D02*
X39821428Y-68428571D01*
X40321428Y-69928571D01*
X36607143Y-65250000D02*
X36464286Y-65178571D01*
X36250000Y-65178571D01*
X36035715Y-65250000D01*
X35892857Y-65392857D01*
X35821429Y-65535714D01*
X35750000Y-65821429D01*
X35750000Y-66035714D01*
X35821429Y-66321429D01*
X35892857Y-66464286D01*
X36035715Y-66607143D01*
X36250000Y-66678571D01*
X36392857Y-66678571D01*
X36607143Y-66607143D01*
X36678572Y-66535714D01*
X36678572Y-66035714D01*
X36392857Y-66035714D01*
X37321429Y-66678571D02*
X37321429Y-65178571D01*
X38178572Y-66678571D01*
X38178572Y-65178571D01*
X38892858Y-66678571D02*
X38892858Y-65178571D01*
X39250001Y-65178571D01*
X39464286Y-65250000D01*
X39607144Y-65392857D01*
X39678572Y-65535714D01*
X39750001Y-65821429D01*
X39750001Y-66035714D01*
X39678572Y-66321429D01*
X39607144Y-66464286D01*
X39464286Y-66607143D01*
X39250001Y-66678571D01*
X38892858Y-66678571D01*
X35821429Y-63678571D02*
X34964286Y-63678571D01*
X35392858Y-63678571D02*
X35392858Y-62178571D01*
X35250001Y-62392857D01*
X35107143Y-62535714D01*
X34964286Y-62607143D01*
X36392857Y-62321429D02*
X36464286Y-62250000D01*
X36607143Y-62178571D01*
X36964286Y-62178571D01*
X37107143Y-62250000D01*
X37178572Y-62321429D01*
X37250000Y-62464286D01*
X37250000Y-62607143D01*
X37178572Y-62821429D01*
X36321429Y-63678571D01*
X37250000Y-63678571D01*
X37678571Y-62178571D02*
X38178571Y-63678571D01*
X38678571Y-62178571D01*
X39178571Y-63678571D02*
X39178571Y-62178571D01*
X39535714Y-62178571D01*
X39749999Y-62250000D01*
X39892857Y-62392857D01*
X39964285Y-62535714D01*
X40035714Y-62821429D01*
X40035714Y-63035714D01*
X39964285Y-63321429D01*
X39892857Y-63464286D01*
X39749999Y-63607143D01*
X39535714Y-63678571D01*
X39178571Y-63678571D01*
X85428571Y-64249999D02*
X83928571Y-64249999D01*
X83928571Y-63678571D01*
X84000000Y-63535713D01*
X84071429Y-63464285D01*
X84214286Y-63392856D01*
X84428571Y-63392856D01*
X84571429Y-63464285D01*
X84642857Y-63535713D01*
X84714286Y-63678571D01*
X84714286Y-64249999D01*
X85000000Y-62821428D02*
X85000000Y-62107142D01*
X85428571Y-62964285D02*
X83928571Y-62464285D01*
X85428571Y-61964285D01*
X83928571Y-60749999D02*
X83928571Y-61464285D01*
X84642857Y-61535714D01*
X84571429Y-61464285D01*
X84500000Y-61321428D01*
X84500000Y-60964285D01*
X84571429Y-60821428D01*
X84642857Y-60749999D01*
X84785714Y-60678571D01*
X85142857Y-60678571D01*
X85285714Y-60749999D01*
X85357143Y-60821428D01*
X85428571Y-60964285D01*
X85428571Y-61321428D01*
X85357143Y-61464285D01*
X85285714Y-61535714D01*
X85428571Y-56999999D02*
X83928571Y-56999999D01*
X83928571Y-56428571D01*
X84000000Y-56285713D01*
X84071429Y-56214285D01*
X84214286Y-56142856D01*
X84428571Y-56142856D01*
X84571429Y-56214285D01*
X84642857Y-56285713D01*
X84714286Y-56428571D01*
X84714286Y-56999999D01*
X85000000Y-55571428D02*
X85000000Y-54857142D01*
X85428571Y-55714285D02*
X83928571Y-55214285D01*
X85428571Y-54714285D01*
X84428571Y-53571428D02*
X85428571Y-53571428D01*
X83857143Y-53928571D02*
X84928571Y-54285714D01*
X84928571Y-53357142D01*
X85428571Y-48999999D02*
X83928571Y-48999999D01*
X83928571Y-48428571D01*
X84000000Y-48285713D01*
X84071429Y-48214285D01*
X84214286Y-48142856D01*
X84428571Y-48142856D01*
X84571429Y-48214285D01*
X84642857Y-48285713D01*
X84714286Y-48428571D01*
X84714286Y-48999999D01*
X85000000Y-47571428D02*
X85000000Y-46857142D01*
X85428571Y-47714285D02*
X83928571Y-47214285D01*
X85428571Y-46714285D01*
X83928571Y-46357142D02*
X83928571Y-45428571D01*
X84500000Y-45928571D01*
X84500000Y-45714285D01*
X84571429Y-45571428D01*
X84642857Y-45499999D01*
X84785714Y-45428571D01*
X85142857Y-45428571D01*
X85285714Y-45499999D01*
X85357143Y-45571428D01*
X85428571Y-45714285D01*
X85428571Y-46142857D01*
X85357143Y-46285714D01*
X85285714Y-46357142D01*
X85428571Y-40749999D02*
X83928571Y-40749999D01*
X83928571Y-40178571D01*
X84000000Y-40035713D01*
X84071429Y-39964285D01*
X84214286Y-39892856D01*
X84428571Y-39892856D01*
X84571429Y-39964285D01*
X84642857Y-40035713D01*
X84714286Y-40178571D01*
X84714286Y-40749999D01*
X85000000Y-39321428D02*
X85000000Y-38607142D01*
X85428571Y-39464285D02*
X83928571Y-38964285D01*
X85428571Y-38464285D01*
X84071429Y-38035714D02*
X84000000Y-37964285D01*
X83928571Y-37821428D01*
X83928571Y-37464285D01*
X84000000Y-37321428D01*
X84071429Y-37249999D01*
X84214286Y-37178571D01*
X84357143Y-37178571D01*
X84571429Y-37249999D01*
X85428571Y-38107142D01*
X85428571Y-37178571D01*
X85428571Y-32999999D02*
X83928571Y-32999999D01*
X83928571Y-32428571D01*
X84000000Y-32285713D01*
X84071429Y-32214285D01*
X84214286Y-32142856D01*
X84428571Y-32142856D01*
X84571429Y-32214285D01*
X84642857Y-32285713D01*
X84714286Y-32428571D01*
X84714286Y-32999999D01*
X85000000Y-31571428D02*
X85000000Y-30857142D01*
X85428571Y-31714285D02*
X83928571Y-31214285D01*
X85428571Y-30714285D01*
X85428571Y-29428571D02*
X85428571Y-30285714D01*
X85428571Y-29857142D02*
X83928571Y-29857142D01*
X84142857Y-29999999D01*
X84285714Y-30142857D01*
X84357143Y-30285714D01*
X85428571Y-24999999D02*
X83928571Y-24999999D01*
X83928571Y-24428571D01*
X84000000Y-24285713D01*
X84071429Y-24214285D01*
X84214286Y-24142856D01*
X84428571Y-24142856D01*
X84571429Y-24214285D01*
X84642857Y-24285713D01*
X84714286Y-24428571D01*
X84714286Y-24999999D01*
X85000000Y-23571428D02*
X85000000Y-22857142D01*
X85428571Y-23714285D02*
X83928571Y-23214285D01*
X85428571Y-22714285D01*
X83928571Y-21928571D02*
X83928571Y-21785714D01*
X84000000Y-21642857D01*
X84071429Y-21571428D01*
X84214286Y-21499999D01*
X84500000Y-21428571D01*
X84857143Y-21428571D01*
X85142857Y-21499999D01*
X85285714Y-21571428D01*
X85357143Y-21642857D01*
X85428571Y-21785714D01*
X85428571Y-21928571D01*
X85357143Y-22071428D01*
X85285714Y-22142857D01*
X85142857Y-22214285D01*
X84857143Y-22285714D01*
X84500000Y-22285714D01*
X84214286Y-22214285D01*
X84071429Y-22142857D01*
X84000000Y-22071428D01*
X83928571Y-21928571D01*
D12*
X66250000Y-65000000D02*
X66250000Y-69000000D01*
D11*
X65178571Y-68535714D02*
X65178571Y-69392857D01*
X65178571Y-68964285D02*
X63678571Y-68964285D01*
X63892857Y-69107142D01*
X64035714Y-69250000D01*
X64107143Y-69392857D01*
X63678571Y-67178571D02*
X63678571Y-67892857D01*
X64392857Y-67964286D01*
X64321429Y-67892857D01*
X64250000Y-67750000D01*
X64250000Y-67392857D01*
X64321429Y-67250000D01*
X64392857Y-67178571D01*
X64535714Y-67107143D01*
X64892857Y-67107143D01*
X65035714Y-67178571D01*
X65107143Y-67250000D01*
X65178571Y-67392857D01*
X65178571Y-67750000D01*
X65107143Y-67892857D01*
X65035714Y-67964286D01*
X61821429Y-69142856D02*
X61750000Y-69285714D01*
X61678571Y-69357142D01*
X61535714Y-69428571D01*
X61464286Y-69428571D01*
X61321429Y-69357142D01*
X61250000Y-69285714D01*
X61178571Y-69142856D01*
X61178571Y-68857142D01*
X61250000Y-68714285D01*
X61321429Y-68642856D01*
X61464286Y-68571428D01*
X61535714Y-68571428D01*
X61678571Y-68642856D01*
X61750000Y-68714285D01*
X61821429Y-68857142D01*
X61821429Y-69142856D01*
X61892857Y-69285714D01*
X61964286Y-69357142D01*
X62107143Y-69428571D01*
X62392857Y-69428571D01*
X62535714Y-69357142D01*
X62607143Y-69285714D01*
X62678571Y-69142856D01*
X62678571Y-68857142D01*
X62607143Y-68714285D01*
X62535714Y-68642856D01*
X62392857Y-68571428D01*
X62107143Y-68571428D01*
X61964286Y-68642856D01*
X61892857Y-68714285D01*
X61821429Y-68857142D01*
X58678571Y-69499999D02*
X58678571Y-68499999D01*
X60178571Y-69142856D01*
X55928571Y-68714285D02*
X55928571Y-68999999D01*
X56000000Y-69142856D01*
X56071429Y-69214285D01*
X56285714Y-69357142D01*
X56571429Y-69428571D01*
X57142857Y-69428571D01*
X57285714Y-69357142D01*
X57357143Y-69285714D01*
X57428571Y-69142856D01*
X57428571Y-68857142D01*
X57357143Y-68714285D01*
X57285714Y-68642856D01*
X57142857Y-68571428D01*
X56785714Y-68571428D01*
X56642857Y-68642856D01*
X56571429Y-68714285D01*
X56500000Y-68857142D01*
X56500000Y-69142856D01*
X56571429Y-69285714D01*
X56642857Y-69357142D01*
X56785714Y-69428571D01*
X52571429Y-64928571D02*
X52571429Y-63428571D01*
X53142857Y-63428571D01*
X53285715Y-63500000D01*
X53357143Y-63571429D01*
X53428572Y-63714286D01*
X53428572Y-63928571D01*
X53357143Y-64071429D01*
X53285715Y-64142857D01*
X53142857Y-64214286D01*
X52571429Y-64214286D01*
X54285715Y-64928571D02*
X54142857Y-64857143D01*
X54071429Y-64785714D01*
X54000000Y-64642857D01*
X54000000Y-64214286D01*
X54071429Y-64071429D01*
X54142857Y-64000000D01*
X54285715Y-63928571D01*
X54500000Y-63928571D01*
X54642857Y-64000000D01*
X54714286Y-64071429D01*
X54785715Y-64214286D01*
X54785715Y-64642857D01*
X54714286Y-64785714D01*
X54642857Y-64857143D01*
X54500000Y-64928571D01*
X54285715Y-64928571D01*
X55428572Y-64928571D02*
X55428572Y-63928571D01*
X55428572Y-64214286D02*
X55500000Y-64071429D01*
X55571429Y-64000000D01*
X55714286Y-63928571D01*
X55857143Y-63928571D01*
X56142857Y-63928571D02*
X56714286Y-63928571D01*
X56357143Y-63428571D02*
X56357143Y-64714286D01*
X56428571Y-64857143D01*
X56571429Y-64928571D01*
X56714286Y-64928571D01*
X58285714Y-64500000D02*
X59000000Y-64500000D01*
X58142857Y-64928571D02*
X58642857Y-63428571D01*
X59142857Y-64928571D01*
D12*
X67000000Y-65000000D02*
X67000000Y-62500000D01*
X62250000Y-65000000D02*
X67000000Y-65000000D01*
X62250000Y-62500000D02*
X62250000Y-65000000D01*
D11*
X69178571Y-60714285D02*
X67678571Y-60714285D01*
X69178571Y-59857142D01*
X67678571Y-59857142D01*
X69178571Y-58285713D02*
X68464286Y-58785713D01*
X69178571Y-59142856D02*
X67678571Y-59142856D01*
X67678571Y-58571428D01*
X67750000Y-58428570D01*
X67821429Y-58357142D01*
X67964286Y-58285713D01*
X68178571Y-58285713D01*
X68321429Y-58357142D01*
X68392857Y-58428570D01*
X68464286Y-58571428D01*
X68464286Y-59142856D01*
X69107143Y-57714285D02*
X69178571Y-57499999D01*
X69178571Y-57142856D01*
X69107143Y-56999999D01*
X69035714Y-56928570D01*
X68892857Y-56857142D01*
X68750000Y-56857142D01*
X68607143Y-56928570D01*
X68535714Y-56999999D01*
X68464286Y-57142856D01*
X68392857Y-57428570D01*
X68321429Y-57571428D01*
X68250000Y-57642856D01*
X68107143Y-57714285D01*
X67964286Y-57714285D01*
X67821429Y-57642856D01*
X67750000Y-57571428D01*
X67678571Y-57428570D01*
X67678571Y-57071428D01*
X67750000Y-56857142D01*
X67678571Y-56428571D02*
X67678571Y-55571428D01*
X69178571Y-55999999D02*
X67678571Y-55999999D01*
X71857143Y-60892857D02*
X71928571Y-60678571D01*
X71928571Y-60321428D01*
X71857143Y-60178571D01*
X71785714Y-60107142D01*
X71642857Y-60035714D01*
X71500000Y-60035714D01*
X71357143Y-60107142D01*
X71285714Y-60178571D01*
X71214286Y-60321428D01*
X71142857Y-60607142D01*
X71071429Y-60750000D01*
X71000000Y-60821428D01*
X70857143Y-60892857D01*
X70714286Y-60892857D01*
X70571429Y-60821428D01*
X70500000Y-60750000D01*
X70428571Y-60607142D01*
X70428571Y-60250000D01*
X70500000Y-60035714D01*
X70428571Y-59535714D02*
X71928571Y-59178571D01*
X70857143Y-58892857D01*
X71928571Y-58607143D01*
X70428571Y-58250000D01*
X71785714Y-56821428D02*
X71857143Y-56892857D01*
X71928571Y-57107143D01*
X71928571Y-57250000D01*
X71857143Y-57464285D01*
X71714286Y-57607143D01*
X71571429Y-57678571D01*
X71285714Y-57750000D01*
X71071429Y-57750000D01*
X70785714Y-57678571D01*
X70642857Y-57607143D01*
X70500000Y-57464285D01*
X70428571Y-57250000D01*
X70428571Y-57107143D01*
X70500000Y-56892857D01*
X70571429Y-56821428D01*
X71928571Y-55464285D02*
X71928571Y-56178571D01*
X70428571Y-56178571D01*
X71928571Y-54964285D02*
X70428571Y-54964285D01*
X71928571Y-54107142D02*
X71071429Y-54749999D01*
X70428571Y-54107142D02*
X71285714Y-54964285D01*
X74357143Y-60678572D02*
X74428571Y-60464286D01*
X74428571Y-60107143D01*
X74357143Y-59964286D01*
X74285714Y-59892857D01*
X74142857Y-59821429D01*
X74000000Y-59821429D01*
X73857143Y-59892857D01*
X73785714Y-59964286D01*
X73714286Y-60107143D01*
X73642857Y-60392857D01*
X73571429Y-60535715D01*
X73500000Y-60607143D01*
X73357143Y-60678572D01*
X73214286Y-60678572D01*
X73071429Y-60607143D01*
X73000000Y-60535715D01*
X72928571Y-60392857D01*
X72928571Y-60035715D01*
X73000000Y-59821429D01*
X72928571Y-59321429D02*
X74428571Y-58964286D01*
X73357143Y-58678572D01*
X74428571Y-58392858D01*
X72928571Y-58035715D01*
X74428571Y-57464286D02*
X72928571Y-57464286D01*
X72928571Y-57107143D01*
X73000000Y-56892858D01*
X73142857Y-56750000D01*
X73285714Y-56678572D01*
X73571429Y-56607143D01*
X73785714Y-56607143D01*
X74071429Y-56678572D01*
X74214286Y-56750000D01*
X74357143Y-56892858D01*
X74428571Y-57107143D01*
X74428571Y-57464286D01*
X74428571Y-55964286D02*
X72928571Y-55964286D01*
X72928571Y-54964286D02*
X72928571Y-54678572D01*
X73000000Y-54535714D01*
X73142857Y-54392857D01*
X73428571Y-54321429D01*
X73928571Y-54321429D01*
X74214286Y-54392857D01*
X74357143Y-54535714D01*
X74428571Y-54678572D01*
X74428571Y-54964286D01*
X74357143Y-55107143D01*
X74214286Y-55250000D01*
X73928571Y-55321429D01*
X73428571Y-55321429D01*
X73142857Y-55250000D01*
X73000000Y-55107143D01*
X72928571Y-54964286D01*
X75428571Y-60607143D02*
X76928571Y-60107143D01*
X75428571Y-59607143D01*
X76928571Y-58464286D02*
X75428571Y-58464286D01*
X76857143Y-58464286D02*
X76928571Y-58607143D01*
X76928571Y-58892857D01*
X76857143Y-59035715D01*
X76785714Y-59107143D01*
X76642857Y-59178572D01*
X76214286Y-59178572D01*
X76071429Y-59107143D01*
X76000000Y-59035715D01*
X75928571Y-58892857D01*
X75928571Y-58607143D01*
X76000000Y-58464286D01*
X76928571Y-57107143D02*
X75428571Y-57107143D01*
X76857143Y-57107143D02*
X76928571Y-57250000D01*
X76928571Y-57535714D01*
X76857143Y-57678572D01*
X76785714Y-57750000D01*
X76642857Y-57821429D01*
X76214286Y-57821429D01*
X76071429Y-57750000D01*
X76000000Y-57678572D01*
X75928571Y-57535714D01*
X75928571Y-57250000D01*
X76000000Y-57107143D01*
D12*
X75750000Y-69000000D02*
X75750000Y-72000000D01*
X65750000Y-69000000D02*
X75750000Y-69000000D01*
X65750000Y-71500000D02*
X65750000Y-69000000D01*
D11*
X67357143Y-66750000D02*
X67214286Y-66678571D01*
X67000000Y-66678571D01*
X66785715Y-66750000D01*
X66642857Y-66892857D01*
X66571429Y-67035714D01*
X66500000Y-67321429D01*
X66500000Y-67535714D01*
X66571429Y-67821429D01*
X66642857Y-67964286D01*
X66785715Y-68107143D01*
X67000000Y-68178571D01*
X67142857Y-68178571D01*
X67357143Y-68107143D01*
X67428572Y-68035714D01*
X67428572Y-67535714D01*
X67142857Y-67535714D01*
X68071429Y-68178571D02*
X68071429Y-66678571D01*
X68928572Y-68178571D01*
X68928572Y-66678571D01*
X69642858Y-68178571D02*
X69642858Y-66678571D01*
X70000001Y-66678571D01*
X70214286Y-66750000D01*
X70357144Y-66892857D01*
X70428572Y-67035714D01*
X70500001Y-67321429D01*
X70500001Y-67535714D01*
X70428572Y-67821429D01*
X70357144Y-67964286D01*
X70214286Y-68107143D01*
X70000001Y-68178571D01*
X69642858Y-68178571D01*
D12*
X76500000Y-65000000D02*
X88500000Y-65000000D01*
X76500000Y-69500000D02*
X76500000Y-65000000D01*
D11*
X85371429Y-67121429D02*
X85442858Y-67050000D01*
X85585715Y-66978571D01*
X85942858Y-66978571D01*
X86085715Y-67050000D01*
X86157144Y-67121429D01*
X86228572Y-67264286D01*
X86228572Y-67407143D01*
X86157144Y-67621429D01*
X85300001Y-68478571D01*
X86228572Y-68478571D01*
X79028572Y-68478571D02*
X78171429Y-68478571D01*
X78600001Y-68478571D02*
X78600001Y-66978571D01*
X78457144Y-67192857D01*
X78314286Y-67335714D01*
X78171429Y-67407143D01*
X81207143Y-69585714D02*
X81278571Y-69371428D01*
X81278571Y-69014285D01*
X81207143Y-68871428D01*
X81135714Y-68799999D01*
X80992857Y-68728571D01*
X80850000Y-68728571D01*
X80707143Y-68799999D01*
X80635714Y-68871428D01*
X80564286Y-69014285D01*
X80492857Y-69299999D01*
X80421429Y-69442857D01*
X80350000Y-69514285D01*
X80207143Y-69585714D01*
X80064286Y-69585714D01*
X79921429Y-69514285D01*
X79850000Y-69442857D01*
X79778571Y-69299999D01*
X79778571Y-68942857D01*
X79850000Y-68728571D01*
X81135714Y-67228571D02*
X81207143Y-67300000D01*
X81278571Y-67514286D01*
X81278571Y-67657143D01*
X81207143Y-67871428D01*
X81064286Y-68014286D01*
X80921429Y-68085714D01*
X80635714Y-68157143D01*
X80421429Y-68157143D01*
X80135714Y-68085714D01*
X79992857Y-68014286D01*
X79850000Y-67871428D01*
X79778571Y-67657143D01*
X79778571Y-67514286D01*
X79850000Y-67300000D01*
X79921429Y-67228571D01*
X81278571Y-65871428D02*
X81278571Y-66585714D01*
X79778571Y-66585714D01*
X91207143Y-69821428D02*
X91278571Y-69607142D01*
X91278571Y-69249999D01*
X91207143Y-69107142D01*
X91135714Y-69035713D01*
X90992857Y-68964285D01*
X90850000Y-68964285D01*
X90707143Y-69035713D01*
X90635714Y-69107142D01*
X90564286Y-69249999D01*
X90492857Y-69535713D01*
X90421429Y-69678571D01*
X90350000Y-69749999D01*
X90207143Y-69821428D01*
X90064286Y-69821428D01*
X89921429Y-69749999D01*
X89850000Y-69678571D01*
X89778571Y-69535713D01*
X89778571Y-69178571D01*
X89850000Y-68964285D01*
X91278571Y-68321428D02*
X89778571Y-68321428D01*
X89778571Y-67964285D01*
X89850000Y-67750000D01*
X89992857Y-67607142D01*
X90135714Y-67535714D01*
X90421429Y-67464285D01*
X90635714Y-67464285D01*
X90921429Y-67535714D01*
X91064286Y-67607142D01*
X91207143Y-67750000D01*
X91278571Y-67964285D01*
X91278571Y-68321428D01*
X90850000Y-66892857D02*
X90850000Y-66178571D01*
X91278571Y-67035714D02*
X89778571Y-66535714D01*
X91278571Y-66035714D01*
X88707143Y-69685714D02*
X88778571Y-69471428D01*
X88778571Y-69114285D01*
X88707143Y-68971428D01*
X88635714Y-68899999D01*
X88492857Y-68828571D01*
X88350000Y-68828571D01*
X88207143Y-68899999D01*
X88135714Y-68971428D01*
X88064286Y-69114285D01*
X87992857Y-69399999D01*
X87921429Y-69542857D01*
X87850000Y-69614285D01*
X87707143Y-69685714D01*
X87564286Y-69685714D01*
X87421429Y-69614285D01*
X87350000Y-69542857D01*
X87278571Y-69399999D01*
X87278571Y-69042857D01*
X87350000Y-68828571D01*
X88635714Y-67328571D02*
X88707143Y-67400000D01*
X88778571Y-67614286D01*
X88778571Y-67757143D01*
X88707143Y-67971428D01*
X88564286Y-68114286D01*
X88421429Y-68185714D01*
X88135714Y-68257143D01*
X87921429Y-68257143D01*
X87635714Y-68185714D01*
X87492857Y-68114286D01*
X87350000Y-67971428D01*
X87278571Y-67757143D01*
X87278571Y-67614286D01*
X87350000Y-67400000D01*
X87421429Y-67328571D01*
X88778571Y-65971428D02*
X88778571Y-66685714D01*
X87278571Y-66685714D01*
X83707143Y-69521428D02*
X83778571Y-69307142D01*
X83778571Y-68949999D01*
X83707143Y-68807142D01*
X83635714Y-68735713D01*
X83492857Y-68664285D01*
X83350000Y-68664285D01*
X83207143Y-68735713D01*
X83135714Y-68807142D01*
X83064286Y-68949999D01*
X82992857Y-69235713D01*
X82921429Y-69378571D01*
X82850000Y-69449999D01*
X82707143Y-69521428D01*
X82564286Y-69521428D01*
X82421429Y-69449999D01*
X82350000Y-69378571D01*
X82278571Y-69235713D01*
X82278571Y-68878571D01*
X82350000Y-68664285D01*
X83778571Y-68021428D02*
X82278571Y-68021428D01*
X82278571Y-67664285D01*
X82350000Y-67450000D01*
X82492857Y-67307142D01*
X82635714Y-67235714D01*
X82921429Y-67164285D01*
X83135714Y-67164285D01*
X83421429Y-67235714D01*
X83564286Y-67307142D01*
X83707143Y-67450000D01*
X83778571Y-67664285D01*
X83778571Y-68021428D01*
X83350000Y-66592857D02*
X83350000Y-65878571D01*
X83778571Y-66735714D02*
X82278571Y-66235714D01*
X83778571Y-65735714D01*
X72785715Y-66928571D02*
X72785715Y-65428571D01*
X73428572Y-65571429D02*
X73500001Y-65500000D01*
X73642858Y-65428571D01*
X74000001Y-65428571D01*
X74142858Y-65500000D01*
X74214287Y-65571429D01*
X74285715Y-65714286D01*
X74285715Y-65857143D01*
X74214287Y-66071429D01*
X73357144Y-66928571D01*
X74285715Y-66928571D01*
X75785715Y-66785714D02*
X75714286Y-66857143D01*
X75500000Y-66928571D01*
X75357143Y-66928571D01*
X75142858Y-66857143D01*
X75000000Y-66714286D01*
X74928572Y-66571429D01*
X74857143Y-66285714D01*
X74857143Y-66071429D01*
X74928572Y-65785714D01*
X75000000Y-65642857D01*
X75142858Y-65500000D01*
X75357143Y-65428571D01*
X75500000Y-65428571D01*
X75714286Y-65500000D01*
X75785715Y-65571429D01*
X71571429Y-20421429D02*
X71642858Y-20350000D01*
X71785715Y-20278571D01*
X72142858Y-20278571D01*
X72285715Y-20350000D01*
X72357144Y-20421429D01*
X72428572Y-20564286D01*
X72428572Y-20707143D01*
X72357144Y-20921429D01*
X71500001Y-21778571D01*
X72428572Y-21778571D01*
X63928572Y-20278571D02*
X64071429Y-20278571D01*
X64214286Y-20350000D01*
X64285715Y-20421429D01*
X64357144Y-20564286D01*
X64428572Y-20850000D01*
X64428572Y-21207143D01*
X64357144Y-21492857D01*
X64285715Y-21635714D01*
X64214286Y-21707143D01*
X64071429Y-21778571D01*
X63928572Y-21778571D01*
X63785715Y-21707143D01*
X63714286Y-21635714D01*
X63642858Y-21492857D01*
X63571429Y-21207143D01*
X63571429Y-20850000D01*
X63642858Y-20564286D01*
X63714286Y-20421429D01*
X63785715Y-20350000D01*
X63928572Y-20278571D01*
X68428572Y-21778571D02*
X67571429Y-21778571D01*
X68000001Y-21778571D02*
X68000001Y-20278571D01*
X67857144Y-20492857D01*
X67714286Y-20635714D01*
X67571429Y-20707143D01*
X75635714Y-22278571D02*
X75635714Y-20778571D01*
X76207142Y-20778571D01*
X76350000Y-20850000D01*
X76421428Y-20921429D01*
X76492857Y-21064286D01*
X76492857Y-21278571D01*
X76421428Y-21421429D01*
X76350000Y-21492857D01*
X76207142Y-21564286D01*
X75635714Y-21564286D01*
X77135714Y-22278571D02*
X77135714Y-20778571D01*
X77635714Y-21850000D01*
X78135714Y-20778571D01*
X78135714Y-22278571D01*
X79135714Y-20778571D02*
X79421428Y-20778571D01*
X79564286Y-20850000D01*
X79707143Y-20992857D01*
X79778571Y-21278571D01*
X79778571Y-21778571D01*
X79707143Y-22064286D01*
X79564286Y-22207143D01*
X79421428Y-22278571D01*
X79135714Y-22278571D01*
X78992857Y-22207143D01*
X78850000Y-22064286D01*
X78778571Y-21778571D01*
X78778571Y-21278571D01*
X78850000Y-20992857D01*
X78992857Y-20850000D01*
X79135714Y-20778571D01*
X80421429Y-22278571D02*
X80421429Y-20778571D01*
X80778572Y-20778571D01*
X80992857Y-20850000D01*
X81135715Y-20992857D01*
X81207143Y-21135714D01*
X81278572Y-21421429D01*
X81278572Y-21635714D01*
X81207143Y-21921429D01*
X81135715Y-22064286D01*
X80992857Y-22207143D01*
X80778572Y-22278571D01*
X80421429Y-22278571D01*
X81921429Y-21492857D02*
X82421429Y-21492857D01*
X82635715Y-22278571D02*
X81921429Y-22278571D01*
X81921429Y-20778571D01*
X82635715Y-20778571D01*
D13*
X63375000Y-27875000D02*
X63375000Y-28325000D01*
X70625000Y-27875000D02*
X70625000Y-28400000D01*
X70625000Y-35125000D02*
X70625000Y-34600000D01*
X63375000Y-35125000D02*
X63375000Y-34600000D01*
X63375000Y-27875000D02*
X63900000Y-27875000D01*
X63375000Y-35125000D02*
X63900000Y-35125000D01*
X70625000Y-35125000D02*
X70100000Y-35125000D01*
X70625000Y-27875000D02*
X70100000Y-27875000D01*
X63375000Y-28325000D02*
X62000000Y-28325000D01*
D14*
X58350000Y-45000000D02*
X58350000Y-44000000D01*
X56650000Y-44000000D02*
X56650000Y-45000000D01*
X56650000Y-58500000D02*
X56650000Y-59500000D01*
X58350000Y-59500000D02*
X58350000Y-58500000D01*
X48000000Y-60650000D02*
X47000000Y-60650000D01*
X47000000Y-62350000D02*
X48000000Y-62350000D01*
X48000000Y-63150000D02*
X47000000Y-63150000D01*
X47000000Y-64850000D02*
X48000000Y-64850000D01*
X79350000Y-55000000D02*
X79350000Y-54000000D01*
X77650000Y-54000000D02*
X77650000Y-55000000D01*
X82850000Y-55000000D02*
X82850000Y-54000000D01*
X81150000Y-54000000D02*
X81150000Y-55000000D01*
X77350000Y-34500000D02*
X77350000Y-33500000D01*
X75650000Y-33500000D02*
X75650000Y-34500000D01*
X77350000Y-29000000D02*
X77350000Y-28000000D01*
X75650000Y-28000000D02*
X75650000Y-29000000D01*
X57500000Y-37650000D02*
X56500000Y-37650000D01*
X56500000Y-39350000D02*
X57500000Y-39350000D01*
X57500000Y-35150000D02*
X56500000Y-35150000D01*
X56500000Y-36850000D02*
X57500000Y-36850000D01*
D13*
X45250000Y-43000000D02*
X43000000Y-43000000D01*
X45250000Y-45250000D02*
X45250000Y-43000000D01*
X44500000Y-45250000D02*
X45250000Y-45250000D01*
X44500000Y-54250000D02*
X44500000Y-45250000D01*
X45250000Y-54250000D02*
X44500000Y-54250000D01*
X45250000Y-58250000D02*
X45250000Y-54250000D01*
X43000000Y-58250000D02*
X45250000Y-58250000D01*
X43000000Y-58250000D02*
X30000000Y-58250000D01*
X30000000Y-43000000D02*
X43000000Y-43000000D01*
X30000000Y-44500000D02*
X30000000Y-43000000D01*
X33000000Y-44500000D02*
X30000000Y-44500000D01*
X33097167Y-54499999D02*
G75*
G03X33000000Y-44544870I-2347167J4955129D01*
G01*
X31000000Y-54500000D02*
X33000000Y-54500000D01*
X30500000Y-56750000D02*
X31000000Y-54500000D01*
X30000000Y-56750000D02*
X30500000Y-56750000D01*
X30000000Y-58250000D02*
X30000000Y-56750000D01*
D14*
X62700000Y-36700000D02*
X61300000Y-36700000D01*
X61300000Y-36700000D02*
X61300000Y-39500000D01*
X62700000Y-36700000D02*
X62700000Y-39500000D01*
X72200000Y-36700000D02*
X70800000Y-36700000D01*
X70800000Y-36700000D02*
X70800000Y-39500000D01*
X72200000Y-36700000D02*
X72200000Y-39500000D01*
D13*
X62900000Y-22000000D02*
X65300000Y-22000000D01*
X65300000Y-22000000D02*
X65300000Y-25000000D01*
X65300000Y-25000000D02*
X62700000Y-25000000D01*
X62700000Y-25000000D02*
X62700000Y-22000000D01*
X62700000Y-22000000D02*
X62900000Y-22000000D01*
X66900000Y-22000000D02*
X69300000Y-22000000D01*
X69300000Y-22000000D02*
X69300000Y-25000000D01*
X69300000Y-25000000D02*
X66700000Y-25000000D01*
X66700000Y-25000000D02*
X66700000Y-22000000D01*
X66700000Y-22000000D02*
X66900000Y-22000000D01*
X70900000Y-22000000D02*
X73300000Y-22000000D01*
X73300000Y-22000000D02*
X73300000Y-25000000D01*
X73300000Y-25000000D02*
X70700000Y-25000000D01*
X70700000Y-25000000D02*
X70700000Y-22000000D01*
X70700000Y-22000000D02*
X70900000Y-22000000D01*
X74850000Y-61230000D02*
X62150000Y-61230000D01*
X62150000Y-61230000D02*
X62150000Y-63770000D01*
X62150000Y-63770000D02*
X74850000Y-63770000D01*
X77670000Y-60950000D02*
X76120000Y-60950000D01*
X74850000Y-61230000D02*
X74850000Y-63770000D01*
X76120000Y-64050000D02*
X77670000Y-64050000D01*
X77670000Y-64050000D02*
X77670000Y-60950000D01*
X88950000Y-20410000D02*
X88950000Y-21960000D01*
X89230000Y-25770000D02*
X89230000Y-23230000D01*
X89230000Y-23230000D02*
X91770000Y-23230000D01*
X92050000Y-21960000D02*
X92050000Y-20410000D01*
X92050000Y-20410000D02*
X88950000Y-20410000D01*
X91770000Y-23230000D02*
X91770000Y-25770000D01*
X91770000Y-25770000D02*
X89230000Y-25770000D01*
X88950000Y-28318000D02*
X88950000Y-29868000D01*
X89230000Y-33678000D02*
X89230000Y-31138000D01*
X89230000Y-31138000D02*
X91770000Y-31138000D01*
X92050000Y-29868000D02*
X92050000Y-28318000D01*
X92050000Y-28318000D02*
X88950000Y-28318000D01*
X91770000Y-31138000D02*
X91770000Y-33678000D01*
X91770000Y-33678000D02*
X89230000Y-33678000D01*
X88950000Y-36226000D02*
X88950000Y-37776000D01*
X89230000Y-41586000D02*
X89230000Y-39046000D01*
X89230000Y-39046000D02*
X91770000Y-39046000D01*
X92050000Y-37776000D02*
X92050000Y-36226000D01*
X92050000Y-36226000D02*
X88950000Y-36226000D01*
X91770000Y-39046000D02*
X91770000Y-41586000D01*
X91770000Y-41586000D02*
X89230000Y-41586000D01*
X88950000Y-44134000D02*
X88950000Y-45684000D01*
X89230000Y-49494000D02*
X89230000Y-46954000D01*
X89230000Y-46954000D02*
X91770000Y-46954000D01*
X92050000Y-45684000D02*
X92050000Y-44134000D01*
X92050000Y-44134000D02*
X88950000Y-44134000D01*
X91770000Y-46954000D02*
X91770000Y-49494000D01*
X91770000Y-49494000D02*
X89230000Y-49494000D01*
X88950000Y-52042000D02*
X88950000Y-53592000D01*
X89230000Y-57402000D02*
X89230000Y-54862000D01*
X89230000Y-54862000D02*
X91770000Y-54862000D01*
X92050000Y-53592000D02*
X92050000Y-52042000D01*
X92050000Y-52042000D02*
X88950000Y-52042000D01*
X91770000Y-54862000D02*
X91770000Y-57402000D01*
X91770000Y-57402000D02*
X89230000Y-57402000D01*
X88950000Y-59950000D02*
X88950000Y-61500000D01*
X89230000Y-65310000D02*
X89230000Y-62770000D01*
X89230000Y-62770000D02*
X91770000Y-62770000D01*
X92050000Y-61500000D02*
X92050000Y-59950000D01*
X92050000Y-59950000D02*
X88950000Y-59950000D01*
X91770000Y-62770000D02*
X91770000Y-65310000D01*
X91770000Y-65310000D02*
X89230000Y-65310000D01*
X58150000Y-72770000D02*
X75930000Y-72770000D01*
X75930000Y-72770000D02*
X75930000Y-70230000D01*
X75930000Y-70230000D02*
X58150000Y-70230000D01*
X55330000Y-73050000D02*
X56880000Y-73050000D01*
X58150000Y-72770000D02*
X58150000Y-70230000D01*
X56880000Y-69950000D02*
X55330000Y-69950000D01*
X55330000Y-69950000D02*
X55330000Y-73050000D01*
X78910000Y-73050000D02*
X80460000Y-73050000D01*
X84270000Y-72770000D02*
X81730000Y-72770000D01*
X81730000Y-72770000D02*
X81730000Y-70230000D01*
X80460000Y-69950000D02*
X78910000Y-69950000D01*
X78910000Y-69950000D02*
X78910000Y-73050000D01*
X81730000Y-70230000D02*
X84270000Y-70230000D01*
X84270000Y-70230000D02*
X84270000Y-72770000D01*
X86450000Y-73050000D02*
X88000000Y-73050000D01*
X91810000Y-72770000D02*
X89270000Y-72770000D01*
X89270000Y-72770000D02*
X89270000Y-70230000D01*
X88000000Y-69950000D02*
X86450000Y-69950000D01*
X86450000Y-69950000D02*
X86450000Y-73050000D01*
X89270000Y-70230000D02*
X91810000Y-70230000D01*
X91810000Y-70230000D02*
X91810000Y-72770000D01*
X29950000Y-61410000D02*
X29950000Y-62960000D01*
X30230000Y-66770000D02*
X30230000Y-64230000D01*
X30230000Y-64230000D02*
X32770000Y-64230000D01*
X33050000Y-62960000D02*
X33050000Y-61410000D01*
X33050000Y-61410000D02*
X29950000Y-61410000D01*
X32770000Y-64230000D02*
X32770000Y-66770000D01*
X32770000Y-66770000D02*
X30230000Y-66770000D01*
X40450000Y-73550000D02*
X42000000Y-73550000D01*
X45810000Y-73270000D02*
X43270000Y-73270000D01*
X43270000Y-73270000D02*
X43270000Y-70730000D01*
X42000000Y-70450000D02*
X40450000Y-70450000D01*
X40450000Y-70450000D02*
X40450000Y-73550000D01*
X43270000Y-70730000D02*
X45810000Y-70730000D01*
X45810000Y-70730000D02*
X45810000Y-73270000D01*
X29950000Y-67910000D02*
X29950000Y-69460000D01*
X30230000Y-73270000D02*
X30230000Y-70730000D01*
X30230000Y-70730000D02*
X32770000Y-70730000D01*
X33050000Y-69460000D02*
X33050000Y-67910000D01*
X33050000Y-67910000D02*
X29950000Y-67910000D01*
X32770000Y-70730000D02*
X32770000Y-73270000D01*
X32770000Y-73270000D02*
X30230000Y-73270000D01*
X30000000Y-23700000D02*
X51800000Y-23700000D01*
X30000000Y-39500000D02*
X30000000Y-23700000D01*
X51800000Y-39500000D02*
X30000000Y-39500000D01*
X51800000Y-23700000D02*
X51800000Y-39500000D01*
X74875000Y-27900000D02*
X74875000Y-29100000D01*
X73125000Y-29100000D02*
X73125000Y-27900000D01*
X61875000Y-23400000D02*
X61875000Y-24600000D01*
X60125000Y-24600000D02*
X60125000Y-23400000D01*
X46900000Y-40625000D02*
X48100000Y-40625000D01*
X48100000Y-42375000D02*
X46900000Y-42375000D01*
X37400000Y-40125000D02*
X38600000Y-40125000D01*
X38600000Y-41875000D02*
X37400000Y-41875000D01*
X67625000Y-40600000D02*
X67625000Y-39400000D01*
X69375000Y-39400000D02*
X69375000Y-40600000D01*
X64125000Y-40600000D02*
X64125000Y-39400000D01*
X65875000Y-39400000D02*
X65875000Y-40600000D01*
X57450000Y-33875000D02*
X56250000Y-33875000D01*
X56250000Y-32125000D02*
X57450000Y-32125000D01*
X57450000Y-31375000D02*
X56250000Y-31375000D01*
X56250000Y-29625000D02*
X57450000Y-29625000D01*
X57450000Y-26175000D02*
X56250000Y-26175000D01*
X56250000Y-24425000D02*
X57450000Y-24425000D01*
X57450000Y-28775000D02*
X56250000Y-28775000D01*
X56250000Y-27025000D02*
X57450000Y-27025000D01*
X61325000Y-55175000D02*
X62325000Y-55175000D01*
X61325000Y-44825000D02*
X62400000Y-44825000D01*
X71675000Y-44825000D02*
X70600000Y-44825000D01*
X71675000Y-55175000D02*
X70600000Y-55175000D01*
X61325000Y-55175000D02*
X61325000Y-54100000D01*
X71675000Y-55175000D02*
X71675000Y-54100000D01*
X71675000Y-44825000D02*
X71675000Y-45900000D01*
X61325000Y-44825000D02*
X61325000Y-45900000D01*
X62325000Y-55175000D02*
X62325000Y-56200000D01*
D14*
X41600000Y-64110000D02*
X43400000Y-64110000D01*
X43400000Y-60890000D02*
X40950000Y-60890000D01*
X78565000Y-48810952D02*
X78565000Y-50610952D01*
X81785000Y-50610952D02*
X81785000Y-48160952D01*
X50450000Y-45600000D02*
X50450000Y-61575000D01*
X50450000Y-61575000D02*
X55550000Y-61575000D01*
X55550000Y-61575000D02*
X55550000Y-45600000D01*
X78450000Y-27100000D02*
X78450000Y-43075000D01*
X78450000Y-43075000D02*
X83550000Y-43075000D01*
X83550000Y-43075000D02*
X83550000Y-27100000D01*
X73150000Y-33500000D02*
X73150000Y-34500000D01*
X74850000Y-34500000D02*
X74850000Y-33500000D01*
X72000000Y-65900000D02*
X71000000Y-65900000D01*
X71000000Y-67600000D02*
X72000000Y-67600000D01*
D13*
X51850000Y-62300000D02*
X51850000Y-62050000D01*
X51850000Y-62050000D02*
X58150000Y-62050000D01*
X58150000Y-62050000D02*
X58150000Y-62300000D01*
X51850000Y-66800000D02*
X51850000Y-64200000D01*
X58150000Y-68700000D02*
X58150000Y-68950000D01*
X58150000Y-68950000D02*
X51850000Y-68950000D01*
X51850000Y-68950000D02*
X51850000Y-68700000D01*
X58150000Y-64200000D02*
X58150000Y-66800000D01*
X56650000Y-65500000D02*
G75*
G03X56650000Y-65500000I-1650000J0D01*
G01*
X66238095Y-24952381D02*
X66238095Y-25761905D01*
X66285714Y-25857143D01*
X66333333Y-25904762D01*
X66428571Y-25952381D01*
X66619048Y-25952381D01*
X66714286Y-25904762D01*
X66761905Y-25857143D01*
X66809524Y-25761905D01*
X66809524Y-24952381D01*
X67714286Y-25285714D02*
X67714286Y-25952381D01*
X67476190Y-24904762D02*
X67238095Y-25619048D01*
X67857143Y-25619048D01*
X59957143Y-44666666D02*
X60004762Y-44714285D01*
X60052381Y-44857142D01*
X60052381Y-44952380D01*
X60004762Y-45095238D01*
X59909524Y-45190476D01*
X59814286Y-45238095D01*
X59623810Y-45285714D01*
X59480952Y-45285714D01*
X59290476Y-45238095D01*
X59195238Y-45190476D01*
X59100000Y-45095238D01*
X59052381Y-44952380D01*
X59052381Y-44857142D01*
X59100000Y-44714285D01*
X59147619Y-44666666D01*
X60052381Y-43714285D02*
X60052381Y-44285714D01*
X60052381Y-44000000D02*
X59052381Y-44000000D01*
X59195238Y-44095238D01*
X59290476Y-44190476D01*
X59338095Y-44285714D01*
X55757143Y-59166666D02*
X55804762Y-59214285D01*
X55852381Y-59357142D01*
X55852381Y-59452380D01*
X55804762Y-59595238D01*
X55709524Y-59690476D01*
X55614286Y-59738095D01*
X55423810Y-59785714D01*
X55280952Y-59785714D01*
X55090476Y-59738095D01*
X54995238Y-59690476D01*
X54900000Y-59595238D01*
X54852381Y-59452380D01*
X54852381Y-59357142D01*
X54900000Y-59214285D01*
X54947619Y-59166666D01*
X54947619Y-58785714D02*
X54900000Y-58738095D01*
X54852381Y-58642857D01*
X54852381Y-58404761D01*
X54900000Y-58309523D01*
X54947619Y-58261904D01*
X55042857Y-58214285D01*
X55138095Y-58214285D01*
X55280952Y-58261904D01*
X55852381Y-58833333D01*
X55852381Y-58214285D01*
X47333334Y-59757143D02*
X47285715Y-59804762D01*
X47142858Y-59852381D01*
X47047620Y-59852381D01*
X46904762Y-59804762D01*
X46809524Y-59709524D01*
X46761905Y-59614286D01*
X46714286Y-59423810D01*
X46714286Y-59280952D01*
X46761905Y-59090476D01*
X46809524Y-58995238D01*
X46904762Y-58900000D01*
X47047620Y-58852381D01*
X47142858Y-58852381D01*
X47285715Y-58900000D01*
X47333334Y-58947619D01*
X47666667Y-58852381D02*
X48285715Y-58852381D01*
X47952381Y-59233333D01*
X48095239Y-59233333D01*
X48190477Y-59280952D01*
X48238096Y-59328571D01*
X48285715Y-59423810D01*
X48285715Y-59661905D01*
X48238096Y-59757143D01*
X48190477Y-59804762D01*
X48095239Y-59852381D01*
X47809524Y-59852381D01*
X47714286Y-59804762D01*
X47666667Y-59757143D01*
X47333334Y-62257143D02*
X47285715Y-62304762D01*
X47142858Y-62352381D01*
X47047620Y-62352381D01*
X46904762Y-62304762D01*
X46809524Y-62209524D01*
X46761905Y-62114286D01*
X46714286Y-61923810D01*
X46714286Y-61780952D01*
X46761905Y-61590476D01*
X46809524Y-61495238D01*
X46904762Y-61400000D01*
X47047620Y-61352381D01*
X47142858Y-61352381D01*
X47285715Y-61400000D01*
X47333334Y-61447619D01*
X48190477Y-61685714D02*
X48190477Y-62352381D01*
X47952381Y-61304762D02*
X47714286Y-62019048D01*
X48333334Y-62019048D01*
X80957143Y-54666666D02*
X81004762Y-54714285D01*
X81052381Y-54857142D01*
X81052381Y-54952380D01*
X81004762Y-55095238D01*
X80909524Y-55190476D01*
X80814286Y-55238095D01*
X80623810Y-55285714D01*
X80480952Y-55285714D01*
X80290476Y-55238095D01*
X80195238Y-55190476D01*
X80100000Y-55095238D01*
X80052381Y-54952380D01*
X80052381Y-54857142D01*
X80100000Y-54714285D01*
X80147619Y-54666666D01*
X80052381Y-53761904D02*
X80052381Y-54238095D01*
X80528571Y-54285714D01*
X80480952Y-54238095D01*
X80433333Y-54142857D01*
X80433333Y-53904761D01*
X80480952Y-53809523D01*
X80528571Y-53761904D01*
X80623810Y-53714285D01*
X80861905Y-53714285D01*
X80957143Y-53761904D01*
X81004762Y-53809523D01*
X81052381Y-53904761D01*
X81052381Y-54142857D01*
X81004762Y-54238095D01*
X80957143Y-54285714D01*
X84457143Y-54666666D02*
X84504762Y-54714285D01*
X84552381Y-54857142D01*
X84552381Y-54952380D01*
X84504762Y-55095238D01*
X84409524Y-55190476D01*
X84314286Y-55238095D01*
X84123810Y-55285714D01*
X83980952Y-55285714D01*
X83790476Y-55238095D01*
X83695238Y-55190476D01*
X83600000Y-55095238D01*
X83552381Y-54952380D01*
X83552381Y-54857142D01*
X83600000Y-54714285D01*
X83647619Y-54666666D01*
X83552381Y-53809523D02*
X83552381Y-54000000D01*
X83600000Y-54095238D01*
X83647619Y-54142857D01*
X83790476Y-54238095D01*
X83980952Y-54285714D01*
X84361905Y-54285714D01*
X84457143Y-54238095D01*
X84504762Y-54190476D01*
X84552381Y-54095238D01*
X84552381Y-53904761D01*
X84504762Y-53809523D01*
X84457143Y-53761904D01*
X84361905Y-53714285D01*
X84123810Y-53714285D01*
X84028571Y-53761904D01*
X83980952Y-53809523D01*
X83933333Y-53904761D01*
X83933333Y-54095238D01*
X83980952Y-54190476D01*
X84028571Y-54238095D01*
X84123810Y-54285714D01*
X78957143Y-34166666D02*
X79004762Y-34214285D01*
X79052381Y-34357142D01*
X79052381Y-34452380D01*
X79004762Y-34595238D01*
X78909524Y-34690476D01*
X78814286Y-34738095D01*
X78623810Y-34785714D01*
X78480952Y-34785714D01*
X78290476Y-34738095D01*
X78195238Y-34690476D01*
X78100000Y-34595238D01*
X78052381Y-34452380D01*
X78052381Y-34357142D01*
X78100000Y-34214285D01*
X78147619Y-34166666D01*
X78052381Y-33833333D02*
X78052381Y-33166666D01*
X79052381Y-33595238D01*
X78957143Y-28666666D02*
X79004762Y-28714285D01*
X79052381Y-28857142D01*
X79052381Y-28952380D01*
X79004762Y-29095238D01*
X78909524Y-29190476D01*
X78814286Y-29238095D01*
X78623810Y-29285714D01*
X78480952Y-29285714D01*
X78290476Y-29238095D01*
X78195238Y-29190476D01*
X78100000Y-29095238D01*
X78052381Y-28952380D01*
X78052381Y-28857142D01*
X78100000Y-28714285D01*
X78147619Y-28666666D01*
X78480952Y-28095238D02*
X78433333Y-28190476D01*
X78385714Y-28238095D01*
X78290476Y-28285714D01*
X78242857Y-28285714D01*
X78147619Y-28238095D01*
X78100000Y-28190476D01*
X78052381Y-28095238D01*
X78052381Y-27904761D01*
X78100000Y-27809523D01*
X78147619Y-27761904D01*
X78242857Y-27714285D01*
X78290476Y-27714285D01*
X78385714Y-27761904D01*
X78433333Y-27809523D01*
X78480952Y-27904761D01*
X78480952Y-28095238D01*
X78528571Y-28190476D01*
X78576190Y-28238095D01*
X78671429Y-28285714D01*
X78861905Y-28285714D01*
X78957143Y-28238095D01*
X79004762Y-28190476D01*
X79052381Y-28095238D01*
X79052381Y-27904761D01*
X79004762Y-27809523D01*
X78957143Y-27761904D01*
X78861905Y-27714285D01*
X78671429Y-27714285D01*
X78576190Y-27761904D01*
X78528571Y-27809523D01*
X78480952Y-27904761D01*
X56357143Y-36757143D02*
X56309524Y-36804762D01*
X56166667Y-36852381D01*
X56071429Y-36852381D01*
X55928571Y-36804762D01*
X55833333Y-36709524D01*
X55785714Y-36614286D01*
X55738095Y-36423810D01*
X55738095Y-36280952D01*
X55785714Y-36090476D01*
X55833333Y-35995238D01*
X55928571Y-35900000D01*
X56071429Y-35852381D01*
X56166667Y-35852381D01*
X56309524Y-35900000D01*
X56357143Y-35947619D01*
X57309524Y-36852381D02*
X56738095Y-36852381D01*
X57023809Y-36852381D02*
X57023809Y-35852381D01*
X56928571Y-35995238D01*
X56833333Y-36090476D01*
X56738095Y-36138095D01*
X58261905Y-36852381D02*
X57690476Y-36852381D01*
X57976190Y-36852381D02*
X57976190Y-35852381D01*
X57880952Y-35995238D01*
X57785714Y-36090476D01*
X57690476Y-36138095D01*
X56357143Y-34257143D02*
X56309524Y-34304762D01*
X56166667Y-34352381D01*
X56071429Y-34352381D01*
X55928571Y-34304762D01*
X55833333Y-34209524D01*
X55785714Y-34114286D01*
X55738095Y-33923810D01*
X55738095Y-33780952D01*
X55785714Y-33590476D01*
X55833333Y-33495238D01*
X55928571Y-33400000D01*
X56071429Y-33352381D01*
X56166667Y-33352381D01*
X56309524Y-33400000D01*
X56357143Y-33447619D01*
X57309524Y-34352381D02*
X56738095Y-34352381D01*
X57023809Y-34352381D02*
X57023809Y-33352381D01*
X56928571Y-33495238D01*
X56833333Y-33590476D01*
X56738095Y-33638095D01*
X57690476Y-33447619D02*
X57738095Y-33400000D01*
X57833333Y-33352381D01*
X58071429Y-33352381D01*
X58166667Y-33400000D01*
X58214286Y-33447619D01*
X58261905Y-33542857D01*
X58261905Y-33638095D01*
X58214286Y-33780952D01*
X57642857Y-34352381D01*
X58261905Y-34352381D01*
X45257143Y-50914285D02*
X45304762Y-50961904D01*
X45352381Y-51104761D01*
X45352381Y-51199999D01*
X45304762Y-51342857D01*
X45209524Y-51438095D01*
X45114286Y-51485714D01*
X44923810Y-51533333D01*
X44780952Y-51533333D01*
X44590476Y-51485714D01*
X44495238Y-51438095D01*
X44400000Y-51342857D01*
X44352381Y-51199999D01*
X44352381Y-51104761D01*
X44400000Y-50961904D01*
X44447619Y-50914285D01*
X44352381Y-50295238D02*
X44352381Y-50104761D01*
X44400000Y-50009523D01*
X44495238Y-49914285D01*
X44685714Y-49866666D01*
X45019048Y-49866666D01*
X45209524Y-49914285D01*
X45304762Y-50009523D01*
X45352381Y-50104761D01*
X45352381Y-50295238D01*
X45304762Y-50390476D01*
X45209524Y-50485714D01*
X45019048Y-50533333D01*
X44685714Y-50533333D01*
X44495238Y-50485714D01*
X44400000Y-50390476D01*
X44352381Y-50295238D01*
X45352381Y-49438095D02*
X44352381Y-49438095D01*
X45352381Y-48866666D01*
X44352381Y-48866666D01*
X45352381Y-47866666D02*
X45352381Y-48438095D01*
X45352381Y-48152381D02*
X44352381Y-48152381D01*
X44495238Y-48247619D01*
X44590476Y-48342857D01*
X44638095Y-48438095D01*
X63902381Y-39238095D02*
X62902381Y-39238095D01*
X62902381Y-39000000D01*
X62950000Y-38857142D01*
X63045238Y-38761904D01*
X63140476Y-38714285D01*
X63330952Y-38666666D01*
X63473810Y-38666666D01*
X63664286Y-38714285D01*
X63759524Y-38761904D01*
X63854762Y-38857142D01*
X63902381Y-39000000D01*
X63902381Y-39238095D01*
X62997619Y-38285714D02*
X62950000Y-38238095D01*
X62902381Y-38142857D01*
X62902381Y-37904761D01*
X62950000Y-37809523D01*
X62997619Y-37761904D01*
X63092857Y-37714285D01*
X63188095Y-37714285D01*
X63330952Y-37761904D01*
X63902381Y-38333333D01*
X63902381Y-37714285D01*
X73402381Y-39238095D02*
X72402381Y-39238095D01*
X72402381Y-39000000D01*
X72450000Y-38857142D01*
X72545238Y-38761904D01*
X72640476Y-38714285D01*
X72830952Y-38666666D01*
X72973810Y-38666666D01*
X73164286Y-38714285D01*
X73259524Y-38761904D01*
X73354762Y-38857142D01*
X73402381Y-39000000D01*
X73402381Y-39238095D01*
X72735714Y-37809523D02*
X73402381Y-37809523D01*
X72354762Y-38047619D02*
X73069048Y-38285714D01*
X73069048Y-37666666D01*
X65752381Y-24333333D02*
X66466667Y-24333333D01*
X66609524Y-24380953D01*
X66704762Y-24476191D01*
X66752381Y-24619048D01*
X66752381Y-24714286D01*
X66752381Y-23857143D02*
X65752381Y-23857143D01*
X65752381Y-23476190D01*
X65800000Y-23380952D01*
X65847619Y-23333333D01*
X65942857Y-23285714D01*
X66085714Y-23285714D01*
X66180952Y-23333333D01*
X66228571Y-23380952D01*
X66276190Y-23476190D01*
X66276190Y-23857143D01*
X66752381Y-22333333D02*
X66752381Y-22904762D01*
X66752381Y-22619048D02*
X65752381Y-22619048D01*
X65895238Y-22714286D01*
X65990476Y-22809524D01*
X66038095Y-22904762D01*
X69752381Y-24333333D02*
X70466667Y-24333333D01*
X70609524Y-24380953D01*
X70704762Y-24476191D01*
X70752381Y-24619048D01*
X70752381Y-24714286D01*
X70752381Y-23857143D02*
X69752381Y-23857143D01*
X69752381Y-23476190D01*
X69800000Y-23380952D01*
X69847619Y-23333333D01*
X69942857Y-23285714D01*
X70085714Y-23285714D01*
X70180952Y-23333333D01*
X70228571Y-23380952D01*
X70276190Y-23476190D01*
X70276190Y-23857143D01*
X69847619Y-22904762D02*
X69800000Y-22857143D01*
X69752381Y-22761905D01*
X69752381Y-22523809D01*
X69800000Y-22428571D01*
X69847619Y-22380952D01*
X69942857Y-22333333D01*
X70038095Y-22333333D01*
X70180952Y-22380952D01*
X70752381Y-22952381D01*
X70752381Y-22333333D01*
X73752381Y-24333333D02*
X74466667Y-24333333D01*
X74609524Y-24380953D01*
X74704762Y-24476191D01*
X74752381Y-24619048D01*
X74752381Y-24714286D01*
X74752381Y-23857143D02*
X73752381Y-23857143D01*
X73752381Y-23476190D01*
X73800000Y-23380952D01*
X73847619Y-23333333D01*
X73942857Y-23285714D01*
X74085714Y-23285714D01*
X74180952Y-23333333D01*
X74228571Y-23380952D01*
X74276190Y-23476190D01*
X74276190Y-23857143D01*
X73752381Y-22952381D02*
X73752381Y-22333333D01*
X74133333Y-22666667D01*
X74133333Y-22523809D01*
X74180952Y-22428571D01*
X74228571Y-22380952D01*
X74323810Y-22333333D01*
X74561905Y-22333333D01*
X74657143Y-22380952D01*
X74704762Y-22428571D01*
X74752381Y-22523809D01*
X74752381Y-22809524D01*
X74704762Y-22904762D01*
X74657143Y-22952381D01*
X75381905Y-68052381D02*
X75381905Y-67052381D01*
X75762858Y-67052381D01*
X75858096Y-67100000D01*
X75905715Y-67147619D01*
X75953334Y-67242857D01*
X75953334Y-67385714D01*
X75905715Y-67480952D01*
X75858096Y-67528571D01*
X75762858Y-67576190D01*
X75381905Y-67576190D01*
X76905715Y-68052381D02*
X76334286Y-68052381D01*
X76620000Y-68052381D02*
X76620000Y-67052381D01*
X76524762Y-67195238D01*
X76429524Y-67290476D01*
X76334286Y-67338095D01*
X96052381Y-22698095D02*
X95052381Y-22698095D01*
X95052381Y-22317142D01*
X95100000Y-22221904D01*
X95147619Y-22174285D01*
X95242857Y-22126666D01*
X95385714Y-22126666D01*
X95480952Y-22174285D01*
X95528571Y-22221904D01*
X95576190Y-22317142D01*
X95576190Y-22698095D01*
X95147619Y-21745714D02*
X95100000Y-21698095D01*
X95052381Y-21602857D01*
X95052381Y-21364761D01*
X95100000Y-21269523D01*
X95147619Y-21221904D01*
X95242857Y-21174285D01*
X95338095Y-21174285D01*
X95480952Y-21221904D01*
X96052381Y-21793333D01*
X96052381Y-21174285D01*
X96052381Y-30606095D02*
X95052381Y-30606095D01*
X95052381Y-30225142D01*
X95100000Y-30129904D01*
X95147619Y-30082285D01*
X95242857Y-30034666D01*
X95385714Y-30034666D01*
X95480952Y-30082285D01*
X95528571Y-30129904D01*
X95576190Y-30225142D01*
X95576190Y-30606095D01*
X95052381Y-29701333D02*
X95052381Y-29082285D01*
X95433333Y-29415619D01*
X95433333Y-29272761D01*
X95480952Y-29177523D01*
X95528571Y-29129904D01*
X95623810Y-29082285D01*
X95861905Y-29082285D01*
X95957143Y-29129904D01*
X96004762Y-29177523D01*
X96052381Y-29272761D01*
X96052381Y-29558476D01*
X96004762Y-29653714D01*
X95957143Y-29701333D01*
X96052381Y-38514095D02*
X95052381Y-38514095D01*
X95052381Y-38133142D01*
X95100000Y-38037904D01*
X95147619Y-37990285D01*
X95242857Y-37942666D01*
X95385714Y-37942666D01*
X95480952Y-37990285D01*
X95528571Y-38037904D01*
X95576190Y-38133142D01*
X95576190Y-38514095D01*
X95385714Y-37085523D02*
X96052381Y-37085523D01*
X95004762Y-37323619D02*
X95719048Y-37561714D01*
X95719048Y-36942666D01*
X96052381Y-46422095D02*
X95052381Y-46422095D01*
X95052381Y-46041142D01*
X95100000Y-45945904D01*
X95147619Y-45898285D01*
X95242857Y-45850666D01*
X95385714Y-45850666D01*
X95480952Y-45898285D01*
X95528571Y-45945904D01*
X95576190Y-46041142D01*
X95576190Y-46422095D01*
X95052381Y-44945904D02*
X95052381Y-45422095D01*
X95528571Y-45469714D01*
X95480952Y-45422095D01*
X95433333Y-45326857D01*
X95433333Y-45088761D01*
X95480952Y-44993523D01*
X95528571Y-44945904D01*
X95623810Y-44898285D01*
X95861905Y-44898285D01*
X95957143Y-44945904D01*
X96004762Y-44993523D01*
X96052381Y-45088761D01*
X96052381Y-45326857D01*
X96004762Y-45422095D01*
X95957143Y-45469714D01*
X96052381Y-54330095D02*
X95052381Y-54330095D01*
X95052381Y-53949142D01*
X95100000Y-53853904D01*
X95147619Y-53806285D01*
X95242857Y-53758666D01*
X95385714Y-53758666D01*
X95480952Y-53806285D01*
X95528571Y-53853904D01*
X95576190Y-53949142D01*
X95576190Y-54330095D01*
X95052381Y-52901523D02*
X95052381Y-53092000D01*
X95100000Y-53187238D01*
X95147619Y-53234857D01*
X95290476Y-53330095D01*
X95480952Y-53377714D01*
X95861905Y-53377714D01*
X95957143Y-53330095D01*
X96004762Y-53282476D01*
X96052381Y-53187238D01*
X96052381Y-52996761D01*
X96004762Y-52901523D01*
X95957143Y-52853904D01*
X95861905Y-52806285D01*
X95623810Y-52806285D01*
X95528571Y-52853904D01*
X95480952Y-52901523D01*
X95433333Y-52996761D01*
X95433333Y-53187238D01*
X95480952Y-53282476D01*
X95528571Y-53330095D01*
X95623810Y-53377714D01*
X96052381Y-62238095D02*
X95052381Y-62238095D01*
X95052381Y-61857142D01*
X95100000Y-61761904D01*
X95147619Y-61714285D01*
X95242857Y-61666666D01*
X95385714Y-61666666D01*
X95480952Y-61714285D01*
X95528571Y-61761904D01*
X95576190Y-61857142D01*
X95576190Y-62238095D01*
X95052381Y-61333333D02*
X95052381Y-60666666D01*
X96052381Y-61095238D01*
X56141905Y-66852381D02*
X56141905Y-65852381D01*
X56522858Y-65852381D01*
X56618096Y-65900000D01*
X56665715Y-65947619D01*
X56713334Y-66042857D01*
X56713334Y-66185714D01*
X56665715Y-66280952D01*
X56618096Y-66328571D01*
X56522858Y-66376190D01*
X56141905Y-66376190D01*
X57284762Y-66280952D02*
X57189524Y-66233333D01*
X57141905Y-66185714D01*
X57094286Y-66090476D01*
X57094286Y-66042857D01*
X57141905Y-65947619D01*
X57189524Y-65900000D01*
X57284762Y-65852381D01*
X57475239Y-65852381D01*
X57570477Y-65900000D01*
X57618096Y-65947619D01*
X57665715Y-66042857D01*
X57665715Y-66090476D01*
X57618096Y-66185714D01*
X57570477Y-66233333D01*
X57475239Y-66280952D01*
X57284762Y-66280952D01*
X57189524Y-66328571D01*
X57141905Y-66376190D01*
X57094286Y-66471429D01*
X57094286Y-66661905D01*
X57141905Y-66757143D01*
X57189524Y-66804762D01*
X57284762Y-66852381D01*
X57475239Y-66852381D01*
X57570477Y-66804762D01*
X57618096Y-66757143D01*
X57665715Y-66661905D01*
X57665715Y-66471429D01*
X57618096Y-66376190D01*
X57570477Y-66328571D01*
X57475239Y-66280952D01*
X79721905Y-66852381D02*
X79721905Y-65852381D01*
X80102858Y-65852381D01*
X80198096Y-65900000D01*
X80245715Y-65947619D01*
X80293334Y-66042857D01*
X80293334Y-66185714D01*
X80245715Y-66280952D01*
X80198096Y-66328571D01*
X80102858Y-66376190D01*
X79721905Y-66376190D01*
X80769524Y-66852381D02*
X80960000Y-66852381D01*
X81055239Y-66804762D01*
X81102858Y-66757143D01*
X81198096Y-66614286D01*
X81245715Y-66423810D01*
X81245715Y-66042857D01*
X81198096Y-65947619D01*
X81150477Y-65900000D01*
X81055239Y-65852381D01*
X80864762Y-65852381D01*
X80769524Y-65900000D01*
X80721905Y-65947619D01*
X80674286Y-66042857D01*
X80674286Y-66280952D01*
X80721905Y-66376190D01*
X80769524Y-66423810D01*
X80864762Y-66471429D01*
X81055239Y-66471429D01*
X81150477Y-66423810D01*
X81198096Y-66376190D01*
X81245715Y-66280952D01*
X86785714Y-66852381D02*
X86785714Y-65852381D01*
X87166667Y-65852381D01*
X87261905Y-65900000D01*
X87309524Y-65947619D01*
X87357143Y-66042857D01*
X87357143Y-66185714D01*
X87309524Y-66280952D01*
X87261905Y-66328571D01*
X87166667Y-66376190D01*
X86785714Y-66376190D01*
X88309524Y-66852381D02*
X87738095Y-66852381D01*
X88023809Y-66852381D02*
X88023809Y-65852381D01*
X87928571Y-65995238D01*
X87833333Y-66090476D01*
X87738095Y-66138095D01*
X88928571Y-65852381D02*
X89023810Y-65852381D01*
X89119048Y-65900000D01*
X89166667Y-65947619D01*
X89214286Y-66042857D01*
X89261905Y-66233333D01*
X89261905Y-66471429D01*
X89214286Y-66661905D01*
X89166667Y-66757143D01*
X89119048Y-66804762D01*
X89023810Y-66852381D01*
X88928571Y-66852381D01*
X88833333Y-66804762D01*
X88785714Y-66757143D01*
X88738095Y-66661905D01*
X88690476Y-66471429D01*
X88690476Y-66233333D01*
X88738095Y-66042857D01*
X88785714Y-65947619D01*
X88833333Y-65900000D01*
X88928571Y-65852381D01*
X37052381Y-64174286D02*
X36052381Y-64174286D01*
X36052381Y-63793333D01*
X36100000Y-63698095D01*
X36147619Y-63650476D01*
X36242857Y-63602857D01*
X36385714Y-63602857D01*
X36480952Y-63650476D01*
X36528571Y-63698095D01*
X36576190Y-63793333D01*
X36576190Y-64174286D01*
X37052381Y-62650476D02*
X37052381Y-63221905D01*
X37052381Y-62936191D02*
X36052381Y-62936191D01*
X36195238Y-63031429D01*
X36290476Y-63126667D01*
X36338095Y-63221905D01*
X37052381Y-61698095D02*
X37052381Y-62269524D01*
X37052381Y-61983810D02*
X36052381Y-61983810D01*
X36195238Y-62079048D01*
X36290476Y-62174286D01*
X36338095Y-62269524D01*
X40785714Y-67352381D02*
X40785714Y-66352381D01*
X41166667Y-66352381D01*
X41261905Y-66400000D01*
X41309524Y-66447619D01*
X41357143Y-66542857D01*
X41357143Y-66685714D01*
X41309524Y-66780952D01*
X41261905Y-66828571D01*
X41166667Y-66876190D01*
X40785714Y-66876190D01*
X42309524Y-67352381D02*
X41738095Y-67352381D01*
X42023809Y-67352381D02*
X42023809Y-66352381D01*
X41928571Y-66495238D01*
X41833333Y-66590476D01*
X41738095Y-66638095D01*
X42690476Y-66447619D02*
X42738095Y-66400000D01*
X42833333Y-66352381D01*
X43071429Y-66352381D01*
X43166667Y-66400000D01*
X43214286Y-66447619D01*
X43261905Y-66542857D01*
X43261905Y-66638095D01*
X43214286Y-66780952D01*
X42642857Y-67352381D01*
X43261905Y-67352381D01*
X37052381Y-70674286D02*
X36052381Y-70674286D01*
X36052381Y-70293333D01*
X36100000Y-70198095D01*
X36147619Y-70150476D01*
X36242857Y-70102857D01*
X36385714Y-70102857D01*
X36480952Y-70150476D01*
X36528571Y-70198095D01*
X36576190Y-70293333D01*
X36576190Y-70674286D01*
X37052381Y-69150476D02*
X37052381Y-69721905D01*
X37052381Y-69436191D02*
X36052381Y-69436191D01*
X36195238Y-69531429D01*
X36290476Y-69626667D01*
X36338095Y-69721905D01*
X36052381Y-68817143D02*
X36052381Y-68198095D01*
X36433333Y-68531429D01*
X36433333Y-68388571D01*
X36480952Y-68293333D01*
X36528571Y-68245714D01*
X36623810Y-68198095D01*
X36861905Y-68198095D01*
X36957143Y-68245714D01*
X37004762Y-68293333D01*
X37052381Y-68388571D01*
X37052381Y-68674286D01*
X37004762Y-68769524D01*
X36957143Y-68817143D01*
X38952381Y-32714286D02*
X37952381Y-32714286D01*
X37952381Y-32333333D01*
X38000000Y-32238095D01*
X38047619Y-32190476D01*
X38142857Y-32142857D01*
X38285714Y-32142857D01*
X38380952Y-32190476D01*
X38428571Y-32238095D01*
X38476190Y-32333333D01*
X38476190Y-32714286D01*
X38952381Y-31190476D02*
X38952381Y-31761905D01*
X38952381Y-31476191D02*
X37952381Y-31476191D01*
X38095238Y-31571429D01*
X38190476Y-31666667D01*
X38238095Y-31761905D01*
X38285714Y-30333333D02*
X38952381Y-30333333D01*
X37904762Y-30571429D02*
X38619048Y-30809524D01*
X38619048Y-30190476D01*
X72352381Y-28666666D02*
X71876190Y-29000000D01*
X72352381Y-29238095D02*
X71352381Y-29238095D01*
X71352381Y-28857142D01*
X71400000Y-28761904D01*
X71447619Y-28714285D01*
X71542857Y-28666666D01*
X71685714Y-28666666D01*
X71780952Y-28714285D01*
X71828571Y-28761904D01*
X71876190Y-28857142D01*
X71876190Y-29238095D01*
X72352381Y-27714285D02*
X72352381Y-28285714D01*
X72352381Y-28000000D02*
X71352381Y-28000000D01*
X71495238Y-28095238D01*
X71590476Y-28190476D01*
X71638095Y-28285714D01*
X59352381Y-24166666D02*
X58876190Y-24500000D01*
X59352381Y-24738095D02*
X58352381Y-24738095D01*
X58352381Y-24357142D01*
X58400000Y-24261904D01*
X58447619Y-24214285D01*
X58542857Y-24166666D01*
X58685714Y-24166666D01*
X58780952Y-24214285D01*
X58828571Y-24261904D01*
X58876190Y-24357142D01*
X58876190Y-24738095D01*
X58447619Y-23785714D02*
X58400000Y-23738095D01*
X58352381Y-23642857D01*
X58352381Y-23404761D01*
X58400000Y-23309523D01*
X58447619Y-23261904D01*
X58542857Y-23214285D01*
X58638095Y-23214285D01*
X58780952Y-23261904D01*
X59352381Y-23833333D01*
X59352381Y-23214285D01*
X47333334Y-44052381D02*
X47000000Y-43576190D01*
X46761905Y-44052381D02*
X46761905Y-43052381D01*
X47142858Y-43052381D01*
X47238096Y-43100000D01*
X47285715Y-43147619D01*
X47333334Y-43242857D01*
X47333334Y-43385714D01*
X47285715Y-43480952D01*
X47238096Y-43528571D01*
X47142858Y-43576190D01*
X46761905Y-43576190D01*
X47666667Y-43052381D02*
X48285715Y-43052381D01*
X47952381Y-43433333D01*
X48095239Y-43433333D01*
X48190477Y-43480952D01*
X48238096Y-43528571D01*
X48285715Y-43623810D01*
X48285715Y-43861905D01*
X48238096Y-43957143D01*
X48190477Y-44004762D01*
X48095239Y-44052381D01*
X47809524Y-44052381D01*
X47714286Y-44004762D01*
X47666667Y-43957143D01*
X37833334Y-43552381D02*
X37500000Y-43076190D01*
X37261905Y-43552381D02*
X37261905Y-42552381D01*
X37642858Y-42552381D01*
X37738096Y-42600000D01*
X37785715Y-42647619D01*
X37833334Y-42742857D01*
X37833334Y-42885714D01*
X37785715Y-42980952D01*
X37738096Y-43028571D01*
X37642858Y-43076190D01*
X37261905Y-43076190D01*
X38690477Y-42885714D02*
X38690477Y-43552381D01*
X38452381Y-42504762D02*
X38214286Y-43219048D01*
X38833334Y-43219048D01*
X71052381Y-40166666D02*
X70576190Y-40500000D01*
X71052381Y-40738095D02*
X70052381Y-40738095D01*
X70052381Y-40357142D01*
X70100000Y-40261904D01*
X70147619Y-40214285D01*
X70242857Y-40166666D01*
X70385714Y-40166666D01*
X70480952Y-40214285D01*
X70528571Y-40261904D01*
X70576190Y-40357142D01*
X70576190Y-40738095D01*
X70052381Y-39261904D02*
X70052381Y-39738095D01*
X70528571Y-39785714D01*
X70480952Y-39738095D01*
X70433333Y-39642857D01*
X70433333Y-39404761D01*
X70480952Y-39309523D01*
X70528571Y-39261904D01*
X70623810Y-39214285D01*
X70861905Y-39214285D01*
X70957143Y-39261904D01*
X71004762Y-39309523D01*
X71052381Y-39404761D01*
X71052381Y-39642857D01*
X71004762Y-39738095D01*
X70957143Y-39785714D01*
X67552381Y-40166666D02*
X67076190Y-40500000D01*
X67552381Y-40738095D02*
X66552381Y-40738095D01*
X66552381Y-40357142D01*
X66600000Y-40261904D01*
X66647619Y-40214285D01*
X66742857Y-40166666D01*
X66885714Y-40166666D01*
X66980952Y-40214285D01*
X67028571Y-40261904D01*
X67076190Y-40357142D01*
X67076190Y-40738095D01*
X66552381Y-39309523D02*
X66552381Y-39500000D01*
X66600000Y-39595238D01*
X66647619Y-39642857D01*
X66790476Y-39738095D01*
X66980952Y-39785714D01*
X67361905Y-39785714D01*
X67457143Y-39738095D01*
X67504762Y-39690476D01*
X67552381Y-39595238D01*
X67552381Y-39404761D01*
X67504762Y-39309523D01*
X67457143Y-39261904D01*
X67361905Y-39214285D01*
X67123810Y-39214285D01*
X67028571Y-39261904D01*
X66980952Y-39309523D01*
X66933333Y-39404761D01*
X66933333Y-39595238D01*
X66980952Y-39690476D01*
X67028571Y-39738095D01*
X67123810Y-39785714D01*
X56683334Y-31352381D02*
X56350000Y-30876190D01*
X56111905Y-31352381D02*
X56111905Y-30352381D01*
X56492858Y-30352381D01*
X56588096Y-30400000D01*
X56635715Y-30447619D01*
X56683334Y-30542857D01*
X56683334Y-30685714D01*
X56635715Y-30780952D01*
X56588096Y-30828571D01*
X56492858Y-30876190D01*
X56111905Y-30876190D01*
X57016667Y-30352381D02*
X57683334Y-30352381D01*
X57254762Y-31352381D01*
X56683334Y-28852381D02*
X56350000Y-28376190D01*
X56111905Y-28852381D02*
X56111905Y-27852381D01*
X56492858Y-27852381D01*
X56588096Y-27900000D01*
X56635715Y-27947619D01*
X56683334Y-28042857D01*
X56683334Y-28185714D01*
X56635715Y-28280952D01*
X56588096Y-28328571D01*
X56492858Y-28376190D01*
X56111905Y-28376190D01*
X57254762Y-28280952D02*
X57159524Y-28233333D01*
X57111905Y-28185714D01*
X57064286Y-28090476D01*
X57064286Y-28042857D01*
X57111905Y-27947619D01*
X57159524Y-27900000D01*
X57254762Y-27852381D01*
X57445239Y-27852381D01*
X57540477Y-27900000D01*
X57588096Y-27947619D01*
X57635715Y-28042857D01*
X57635715Y-28090476D01*
X57588096Y-28185714D01*
X57540477Y-28233333D01*
X57445239Y-28280952D01*
X57254762Y-28280952D01*
X57159524Y-28328571D01*
X57111905Y-28376190D01*
X57064286Y-28471429D01*
X57064286Y-28661905D01*
X57111905Y-28757143D01*
X57159524Y-28804762D01*
X57254762Y-28852381D01*
X57445239Y-28852381D01*
X57540477Y-28804762D01*
X57588096Y-28757143D01*
X57635715Y-28661905D01*
X57635715Y-28471429D01*
X57588096Y-28376190D01*
X57540477Y-28328571D01*
X57445239Y-28280952D01*
X56683334Y-23652381D02*
X56350000Y-23176190D01*
X56111905Y-23652381D02*
X56111905Y-22652381D01*
X56492858Y-22652381D01*
X56588096Y-22700000D01*
X56635715Y-22747619D01*
X56683334Y-22842857D01*
X56683334Y-22985714D01*
X56635715Y-23080952D01*
X56588096Y-23128571D01*
X56492858Y-23176190D01*
X56111905Y-23176190D01*
X57159524Y-23652381D02*
X57350000Y-23652381D01*
X57445239Y-23604762D01*
X57492858Y-23557143D01*
X57588096Y-23414286D01*
X57635715Y-23223810D01*
X57635715Y-22842857D01*
X57588096Y-22747619D01*
X57540477Y-22700000D01*
X57445239Y-22652381D01*
X57254762Y-22652381D01*
X57159524Y-22700000D01*
X57111905Y-22747619D01*
X57064286Y-22842857D01*
X57064286Y-23080952D01*
X57111905Y-23176190D01*
X57159524Y-23223810D01*
X57254762Y-23271429D01*
X57445239Y-23271429D01*
X57540477Y-23223810D01*
X57588096Y-23176190D01*
X57635715Y-23080952D01*
X56207143Y-26252381D02*
X55873809Y-25776190D01*
X55635714Y-26252381D02*
X55635714Y-25252381D01*
X56016667Y-25252381D01*
X56111905Y-25300000D01*
X56159524Y-25347619D01*
X56207143Y-25442857D01*
X56207143Y-25585714D01*
X56159524Y-25680952D01*
X56111905Y-25728571D01*
X56016667Y-25776190D01*
X55635714Y-25776190D01*
X57159524Y-26252381D02*
X56588095Y-26252381D01*
X56873809Y-26252381D02*
X56873809Y-25252381D01*
X56778571Y-25395238D01*
X56683333Y-25490476D01*
X56588095Y-25538095D01*
X57778571Y-25252381D02*
X57873810Y-25252381D01*
X57969048Y-25300000D01*
X58016667Y-25347619D01*
X58064286Y-25442857D01*
X58111905Y-25633333D01*
X58111905Y-25871429D01*
X58064286Y-26061905D01*
X58016667Y-26157143D01*
X57969048Y-26204762D01*
X57873810Y-26252381D01*
X57778571Y-26252381D01*
X57683333Y-26204762D01*
X57635714Y-26157143D01*
X57588095Y-26061905D01*
X57540476Y-25871429D01*
X57540476Y-25633333D01*
X57588095Y-25442857D01*
X57635714Y-25347619D01*
X57683333Y-25300000D01*
X57778571Y-25252381D01*
X58752381Y-50761905D02*
X59561905Y-50761905D01*
X59657143Y-50714286D01*
X59704762Y-50666667D01*
X59752381Y-50571429D01*
X59752381Y-50380952D01*
X59704762Y-50285714D01*
X59657143Y-50238095D01*
X59561905Y-50190476D01*
X58752381Y-50190476D01*
X59752381Y-49190476D02*
X59752381Y-49761905D01*
X59752381Y-49476191D02*
X58752381Y-49476191D01*
X58895238Y-49571429D01*
X58990476Y-49666667D01*
X59038095Y-49761905D01*
X41738095Y-59052381D02*
X41738095Y-59861905D01*
X41785714Y-59957143D01*
X41833333Y-60004762D01*
X41928571Y-60052381D01*
X42119048Y-60052381D01*
X42214286Y-60004762D01*
X42261905Y-59957143D01*
X42309524Y-59861905D01*
X42309524Y-59052381D01*
X42738095Y-59147619D02*
X42785714Y-59100000D01*
X42880952Y-59052381D01*
X43119048Y-59052381D01*
X43214286Y-59100000D01*
X43261905Y-59147619D01*
X43309524Y-59242857D01*
X43309524Y-59338095D01*
X43261905Y-59480952D01*
X42690476Y-60052381D01*
X43309524Y-60052381D01*
X82527381Y-50472857D02*
X83336905Y-50472857D01*
X83432143Y-50425238D01*
X83479762Y-50377619D01*
X83527381Y-50282381D01*
X83527381Y-50091904D01*
X83479762Y-49996666D01*
X83432143Y-49949047D01*
X83336905Y-49901428D01*
X82527381Y-49901428D01*
X82527381Y-49520476D02*
X82527381Y-48901428D01*
X82908333Y-49234762D01*
X82908333Y-49091904D01*
X82955952Y-48996666D01*
X83003571Y-48949047D01*
X83098810Y-48901428D01*
X83336905Y-48901428D01*
X83432143Y-48949047D01*
X83479762Y-48996666D01*
X83527381Y-49091904D01*
X83527381Y-49377619D01*
X83479762Y-49472857D01*
X83432143Y-49520476D01*
X49426190Y-51976191D02*
X49902381Y-51976191D01*
X48902381Y-52309524D02*
X49426190Y-51976191D01*
X48902381Y-51642857D01*
X49902381Y-50785714D02*
X49902381Y-51357143D01*
X49902381Y-51071429D02*
X48902381Y-51071429D01*
X49045238Y-51166667D01*
X49140476Y-51261905D01*
X49188095Y-51357143D01*
X77426190Y-33476191D02*
X77902381Y-33476191D01*
X76902381Y-33809524D02*
X77426190Y-33476191D01*
X76902381Y-33142857D01*
X76997619Y-32857143D02*
X76950000Y-32809524D01*
X76902381Y-32714286D01*
X76902381Y-32476190D01*
X76950000Y-32380952D01*
X76997619Y-32333333D01*
X77092857Y-32285714D01*
X77188095Y-32285714D01*
X77330952Y-32333333D01*
X77902381Y-32904762D01*
X77902381Y-32285714D01*
X72257143Y-34166666D02*
X72304762Y-34214285D01*
X72352381Y-34357142D01*
X72352381Y-34452380D01*
X72304762Y-34595238D01*
X72209524Y-34690476D01*
X72114286Y-34738095D01*
X71923810Y-34785714D01*
X71780952Y-34785714D01*
X71590476Y-34738095D01*
X71495238Y-34690476D01*
X71400000Y-34595238D01*
X71352381Y-34452380D01*
X71352381Y-34357142D01*
X71400000Y-34214285D01*
X71447619Y-34166666D01*
X72352381Y-33690476D02*
X72352381Y-33500000D01*
X72304762Y-33404761D01*
X72257143Y-33357142D01*
X72114286Y-33261904D01*
X71923810Y-33214285D01*
X71542857Y-33214285D01*
X71447619Y-33261904D01*
X71400000Y-33309523D01*
X71352381Y-33404761D01*
X71352381Y-33595238D01*
X71400000Y-33690476D01*
X71447619Y-33738095D01*
X71542857Y-33785714D01*
X71780952Y-33785714D01*
X71876190Y-33738095D01*
X71923810Y-33690476D01*
X71971429Y-33595238D01*
X71971429Y-33404761D01*
X71923810Y-33309523D01*
X71876190Y-33261904D01*
X71780952Y-33214285D01*
X70857143Y-65007143D02*
X70809524Y-65054762D01*
X70666667Y-65102381D01*
X70571429Y-65102381D01*
X70428571Y-65054762D01*
X70333333Y-64959524D01*
X70285714Y-64864286D01*
X70238095Y-64673810D01*
X70238095Y-64530952D01*
X70285714Y-64340476D01*
X70333333Y-64245238D01*
X70428571Y-64150000D01*
X70571429Y-64102381D01*
X70666667Y-64102381D01*
X70809524Y-64150000D01*
X70857143Y-64197619D01*
X71809524Y-65102381D02*
X71238095Y-65102381D01*
X71523809Y-65102381D02*
X71523809Y-64102381D01*
X71428571Y-64245238D01*
X71333333Y-64340476D01*
X71238095Y-64388095D01*
X72428571Y-64102381D02*
X72523810Y-64102381D01*
X72619048Y-64150000D01*
X72666667Y-64197619D01*
X72714286Y-64292857D01*
X72761905Y-64483333D01*
X72761905Y-64721429D01*
X72714286Y-64911905D01*
X72666667Y-65007143D01*
X72619048Y-65054762D01*
X72523810Y-65102381D01*
X72428571Y-65102381D01*
X72333333Y-65054762D01*
X72285714Y-65007143D01*
X72238095Y-64911905D01*
X72190476Y-64721429D01*
X72190476Y-64483333D01*
X72238095Y-64292857D01*
X72285714Y-64197619D01*
X72333333Y-64150000D01*
X72428571Y-64102381D01*
X53666667Y-61404762D02*
X53809524Y-61452381D01*
X54047620Y-61452381D01*
X54142858Y-61404762D01*
X54190477Y-61357143D01*
X54238096Y-61261905D01*
X54238096Y-61166667D01*
X54190477Y-61071429D01*
X54142858Y-61023810D01*
X54047620Y-60976190D01*
X53857143Y-60928571D01*
X53761905Y-60880952D01*
X53714286Y-60833333D01*
X53666667Y-60738095D01*
X53666667Y-60642857D01*
X53714286Y-60547619D01*
X53761905Y-60500000D01*
X53857143Y-60452381D01*
X54095239Y-60452381D01*
X54238096Y-60500000D01*
X54571429Y-60452381D02*
X54809524Y-61452381D01*
X55000001Y-60738095D01*
X55190477Y-61452381D01*
X55428572Y-60452381D01*
X56333334Y-61452381D02*
X55761905Y-61452381D01*
X56047619Y-61452381D02*
X56047619Y-60452381D01*
X55952381Y-60595238D01*
X55857143Y-60690476D01*
X55761905Y-60738095D01*
M02*
