<?xml version="1.0" standalone="no"?>
 <!DOCTYPE svg PUBLIC "-//W3C//DTD SVG 1.1//EN" 
 "http://www.w3.org/Graphics/SVG/1.1/DTD/svg11.dtd"> 
<svg xmlns="http://www.w3.org/2000/svg" version="1.1" 
    width="29.7002cm" height="21.0007cm" viewBox="0 0 116930 82680 ">
<title>SVG Picture created as stm32f030-eth-F.Paste.svg date 2017/03/20 19:31:27 </title>
  <desc>Picture generated by PCBNEW </desc>
<g style="fill:#000000; fill-opacity:1;stroke:#000000; stroke-opacity:1;
stroke-linecap:round; stroke-linejoin:round; "
 transform="translate(0 0) scale(1 1)">
</g>
<g style="fill:#000000; fill-opacity:0.0; 
stroke:#000000; stroke-width:-0.000393701; stroke-opacity:1; 
stroke-linecap:round; stroke-linejoin:round;">
</g>
<g style="fill:#000000; fill-opacity:0.0; 
stroke:#000000; stroke-width:39.3701; stroke-opacity:1; 
stroke-linecap:round; stroke-linejoin:round;">
</g>
<g style="fill:#000000; fill-opacity:0.0; 
stroke:#000000; stroke-width:59.0551; stroke-opacity:1; 
stroke-linecap:round; stroke-linejoin:round;">
<rect x="69685.9" y="65357.2" width="42519.7" height="12598.4" rx="0" />
</g>
<g style="fill:#000000; fill-opacity:0.0; 
stroke:#000000; stroke-width:39.3701; stroke-opacity:1; 
stroke-linecap:round; stroke-linejoin:round;">
</g>
<g style="fill:#000000; fill-opacity:0.0; 
stroke:#000000; stroke-width:59.0551; stroke-opacity:1; 
stroke-linecap:round; stroke-linejoin:round;">
<rect x="3937.01" y="3937.01" width="109056" height="74806" rx="0" />
</g>
<g style="fill:#000000; fill-opacity:0.0; 
stroke:#000000; stroke-width:39.3701; stroke-opacity:1; 
stroke-linecap:round; stroke-linejoin:round;">
</g>
<g style="fill:#000000; fill-opacity:0.0; 
stroke:#000000; stroke-width:59.0551; stroke-opacity:1; 
stroke-linecap:round; stroke-linejoin:round;">
<rect x="4724.41" y="4724.41" width="107481" height="73231.2" rx="0" />
</g>
<g style="fill:#000000; fill-opacity:0.0; 
stroke:#000000; stroke-width:39.3701; stroke-opacity:1; 
stroke-linecap:round; stroke-linejoin:round;">
</g>
<g style="fill:#000000; fill-opacity:0.0; 
stroke:#000000; stroke-width:59.0551; stroke-opacity:1; 
stroke-linecap:round; stroke-linejoin:round;">
<path d="M23622 4724
L23622 3937
" />
</g>
<g style="fill:#000000; fill-opacity:0.0; 
stroke:#000000; stroke-width:39.3701; stroke-opacity:1; 
stroke-linecap:round; stroke-linejoin:round;">
</g>
<g style="fill:#000000; fill-opacity:0.0; 
stroke:#000000; stroke-width:59.0551; stroke-opacity:1; 
stroke-linecap:round; stroke-linejoin:round;">
<path d="M43307 4724
L43307 3937
" />
</g>
<g style="fill:#000000; fill-opacity:0.0; 
stroke:#000000; stroke-width:39.3701; stroke-opacity:1; 
stroke-linecap:round; stroke-linejoin:round;">
</g>
<g style="fill:#000000; fill-opacity:0.0; 
stroke:#000000; stroke-width:59.0551; stroke-opacity:1; 
stroke-linecap:round; stroke-linejoin:round;">
<path d="M62992 4724
L62992 3937
" />
</g>
<g style="fill:#000000; fill-opacity:0.0; 
stroke:#000000; stroke-width:39.3701; stroke-opacity:1; 
stroke-linecap:round; stroke-linejoin:round;">
</g>
<g style="fill:#000000; fill-opacity:0.0; 
stroke:#000000; stroke-width:59.0551; stroke-opacity:1; 
stroke-linecap:round; stroke-linejoin:round;">
<path d="M82677 4724
L82677 3937
" />
</g>
<g style="fill:#000000; fill-opacity:0.0; 
stroke:#000000; stroke-width:39.3701; stroke-opacity:1; 
stroke-linecap:round; stroke-linejoin:round;">
</g>
<g style="fill:#000000; fill-opacity:0.0; 
stroke:#000000; stroke-width:59.0551; stroke-opacity:1; 
stroke-linecap:round; stroke-linejoin:round;">
<path d="M102362 4724
L102362 3937
" />
</g>
<g style="fill:#000000; fill-opacity:0.0; 
stroke:#000000; stroke-width:39.3701; stroke-opacity:1; 
stroke-linecap:round; stroke-linejoin:round;">
</g>
<g style="fill:#000000; fill-opacity:0.0; 
stroke:#000000; stroke-width:59.0551; stroke-opacity:1; 
stroke-linecap:round; stroke-linejoin:round;">
<path d="M14169 4562
L13877 4562
" />
<path d="M14023 4562
L14023 4050
L13974 4123
L13925 4172
L13877 4196
" />
</g>
<g style="fill:#000000; fill-opacity:0.0; 
stroke:#000000; stroke-width:39.3701; stroke-opacity:1; 
stroke-linecap:round; stroke-linejoin:round;">
</g>
<g style="fill:#000000; fill-opacity:0.0; 
stroke:#000000; stroke-width:59.0551; stroke-opacity:1; 
stroke-linecap:round; stroke-linejoin:round;">
<path d="M33562 4099
L33586 4074
L33635 4050
L33757 4050
L33805 4074
L33830 4099
L33854 4147
L33854 4196
L33830 4269
L33537 4562
L33854 4562
" />
</g>
<g style="fill:#000000; fill-opacity:0.0; 
stroke:#000000; stroke-width:39.3701; stroke-opacity:1; 
stroke-linecap:round; stroke-linejoin:round;">
</g>
<g style="fill:#000000; fill-opacity:0.0; 
stroke:#000000; stroke-width:59.0551; stroke-opacity:1; 
stroke-linecap:round; stroke-linejoin:round;">
<path d="M53222 4050
L53539 4050
L53368 4245
L53442 4245
L53490 4269
L53515 4294
L53539 4342
L53539 4464
L53515 4513
L53490 4537
L53442 4562
L53295 4562
L53247 4537
L53222 4513
" />
</g>
<g style="fill:#000000; fill-opacity:0.0; 
stroke:#000000; stroke-width:39.3701; stroke-opacity:1; 
stroke-linecap:round; stroke-linejoin:round;">
</g>
<g style="fill:#000000; fill-opacity:0.0; 
stroke:#000000; stroke-width:59.0551; stroke-opacity:1; 
stroke-linecap:round; stroke-linejoin:round;">
<path d="M73175 4221
L73175 4562
" />
<path d="M73053 4026
L72932 4391
L73248 4391
" />
</g>
<g style="fill:#000000; fill-opacity:0.0; 
stroke:#000000; stroke-width:39.3701; stroke-opacity:1; 
stroke-linecap:round; stroke-linejoin:round;">
</g>
<g style="fill:#000000; fill-opacity:0.0; 
stroke:#000000; stroke-width:59.0551; stroke-opacity:1; 
stroke-linecap:round; stroke-linejoin:round;">
<path d="M92885 4050
L92641 4050
L92617 4294
L92641 4269
L92690 4245
L92812 4245
L92860 4269
L92885 4294
L92909 4342
L92909 4464
L92885 4513
L92860 4537
L92812 4562
L92690 4562
L92641 4537
L92617 4513
" />
</g>
<g style="fill:#000000; fill-opacity:0.0; 
stroke:#000000; stroke-width:39.3701; stroke-opacity:1; 
stroke-linecap:round; stroke-linejoin:round;">
</g>
<g style="fill:#000000; fill-opacity:0.0; 
stroke:#000000; stroke-width:59.0551; stroke-opacity:1; 
stroke-linecap:round; stroke-linejoin:round;">
<path d="M112545 4050
L112448 4050
L112399 4074
L112375 4099
L112326 4172
L112302 4269
L112302 4464
L112326 4513
L112350 4537
L112399 4562
L112497 4562
L112545 4537
L112570 4513
L112594 4464
L112594 4342
L112570 4294
L112545 4269
L112497 4245
L112399 4245
L112350 4269
L112326 4294
L112302 4342
" />
</g>
<g style="fill:#000000; fill-opacity:0.0; 
stroke:#000000; stroke-width:39.3701; stroke-opacity:1; 
stroke-linecap:round; stroke-linejoin:round;">
</g>
<g style="fill:#000000; fill-opacity:0.0; 
stroke:#000000; stroke-width:59.0551; stroke-opacity:1; 
stroke-linecap:round; stroke-linejoin:round;">
<path d="M23622 77955
L23622 78742
" />
</g>
<g style="fill:#000000; fill-opacity:0.0; 
stroke:#000000; stroke-width:39.3701; stroke-opacity:1; 
stroke-linecap:round; stroke-linejoin:round;">
</g>
<g style="fill:#000000; fill-opacity:0.0; 
stroke:#000000; stroke-width:59.0551; stroke-opacity:1; 
stroke-linecap:round; stroke-linejoin:round;">
<path d="M43307 77955
L43307 78742
" />
</g>
<g style="fill:#000000; fill-opacity:0.0; 
stroke:#000000; stroke-width:39.3701; stroke-opacity:1; 
stroke-linecap:round; stroke-linejoin:round;">
</g>
<g style="fill:#000000; fill-opacity:0.0; 
stroke:#000000; stroke-width:59.0551; stroke-opacity:1; 
stroke-linecap:round; stroke-linejoin:round;">
<path d="M62992 77955
L62992 78742
" />
</g>
<g style="fill:#000000; fill-opacity:0.0; 
stroke:#000000; stroke-width:39.3701; stroke-opacity:1; 
stroke-linecap:round; stroke-linejoin:round;">
</g>
<g style="fill:#000000; fill-opacity:0.0; 
stroke:#000000; stroke-width:59.0551; stroke-opacity:1; 
stroke-linecap:round; stroke-linejoin:round;">
<path d="M82677 77955
L82677 78742
" />
</g>
<g style="fill:#000000; fill-opacity:0.0; 
stroke:#000000; stroke-width:39.3701; stroke-opacity:1; 
stroke-linecap:round; stroke-linejoin:round;">
</g>
<g style="fill:#000000; fill-opacity:0.0; 
stroke:#000000; stroke-width:59.0551; stroke-opacity:1; 
stroke-linecap:round; stroke-linejoin:round;">
<path d="M102362 77955
L102362 78742
" />
</g>
<g style="fill:#000000; fill-opacity:0.0; 
stroke:#000000; stroke-width:39.3701; stroke-opacity:1; 
stroke-linecap:round; stroke-linejoin:round;">
</g>
<g style="fill:#000000; fill-opacity:0.0; 
stroke:#000000; stroke-width:59.0551; stroke-opacity:1; 
stroke-linecap:round; stroke-linejoin:round;">
<path d="M14169 78580
L13877 78580
" />
<path d="M14023 78580
L14023 78069
L13974 78142
L13925 78190
L13877 78215
" />
</g>
<g style="fill:#000000; fill-opacity:0.0; 
stroke:#000000; stroke-width:39.3701; stroke-opacity:1; 
stroke-linecap:round; stroke-linejoin:round;">
</g>
<g style="fill:#000000; fill-opacity:0.0; 
stroke:#000000; stroke-width:59.0551; stroke-opacity:1; 
stroke-linecap:round; stroke-linejoin:round;">
<path d="M33562 78117
L33586 78093
L33635 78069
L33757 78069
L33805 78093
L33830 78117
L33854 78166
L33854 78215
L33830 78288
L33537 78580
L33854 78580
" />
</g>
<g style="fill:#000000; fill-opacity:0.0; 
stroke:#000000; stroke-width:39.3701; stroke-opacity:1; 
stroke-linecap:round; stroke-linejoin:round;">
</g>
<g style="fill:#000000; fill-opacity:0.0; 
stroke:#000000; stroke-width:59.0551; stroke-opacity:1; 
stroke-linecap:round; stroke-linejoin:round;">
<path d="M53222 78069
L53539 78069
L53368 78263
L53442 78263
L53490 78288
L53515 78312
L53539 78361
L53539 78483
L53515 78532
L53490 78556
L53442 78580
L53295 78580
L53247 78556
L53222 78532
" />
</g>
<g style="fill:#000000; fill-opacity:0.0; 
stroke:#000000; stroke-width:39.3701; stroke-opacity:1; 
stroke-linecap:round; stroke-linejoin:round;">
</g>
<g style="fill:#000000; fill-opacity:0.0; 
stroke:#000000; stroke-width:59.0551; stroke-opacity:1; 
stroke-linecap:round; stroke-linejoin:round;">
<path d="M73175 78239
L73175 78580
" />
<path d="M73053 78044
L72932 78410
L73248 78410
" />
</g>
<g style="fill:#000000; fill-opacity:0.0; 
stroke:#000000; stroke-width:39.3701; stroke-opacity:1; 
stroke-linecap:round; stroke-linejoin:round;">
</g>
<g style="fill:#000000; fill-opacity:0.0; 
stroke:#000000; stroke-width:59.0551; stroke-opacity:1; 
stroke-linecap:round; stroke-linejoin:round;">
<path d="M92885 78069
L92641 78069
L92617 78312
L92641 78288
L92690 78263
L92812 78263
L92860 78288
L92885 78312
L92909 78361
L92909 78483
L92885 78532
L92860 78556
L92812 78580
L92690 78580
L92641 78556
L92617 78532
" />
</g>
<g style="fill:#000000; fill-opacity:0.0; 
stroke:#000000; stroke-width:39.3701; stroke-opacity:1; 
stroke-linecap:round; stroke-linejoin:round;">
</g>
<g style="fill:#000000; fill-opacity:0.0; 
stroke:#000000; stroke-width:59.0551; stroke-opacity:1; 
stroke-linecap:round; stroke-linejoin:round;">
<path d="M112545 78069
L112448 78069
L112399 78093
L112375 78117
L112326 78190
L112302 78288
L112302 78483
L112326 78532
L112350 78556
L112399 78580
L112497 78580
L112545 78556
L112570 78532
L112594 78483
L112594 78361
L112570 78312
L112545 78288
L112497 78263
L112399 78263
L112350 78288
L112326 78312
L112302 78361
" />
</g>
<g style="fill:#000000; fill-opacity:0.0; 
stroke:#000000; stroke-width:39.3701; stroke-opacity:1; 
stroke-linecap:round; stroke-linejoin:round;">
</g>
<g style="fill:#000000; fill-opacity:0.0; 
stroke:#000000; stroke-width:59.0551; stroke-opacity:1; 
stroke-linecap:round; stroke-linejoin:round;">
<path d="M3937 23622
L4724 23622
" />
</g>
<g style="fill:#000000; fill-opacity:0.0; 
stroke:#000000; stroke-width:39.3701; stroke-opacity:1; 
stroke-linecap:round; stroke-linejoin:round;">
</g>
<g style="fill:#000000; fill-opacity:0.0; 
stroke:#000000; stroke-width:59.0551; stroke-opacity:1; 
stroke-linecap:round; stroke-linejoin:round;">
<path d="M3937 43307
L4724 43307
" />
</g>
<g style="fill:#000000; fill-opacity:0.0; 
stroke:#000000; stroke-width:39.3701; stroke-opacity:1; 
stroke-linecap:round; stroke-linejoin:round;">
</g>
<g style="fill:#000000; fill-opacity:0.0; 
stroke:#000000; stroke-width:59.0551; stroke-opacity:1; 
stroke-linecap:round; stroke-linejoin:round;">
<path d="M3937 62992
L4724 62992
" />
</g>
<g style="fill:#000000; fill-opacity:0.0; 
stroke:#000000; stroke-width:39.3701; stroke-opacity:1; 
stroke-linecap:round; stroke-linejoin:round;">
</g>
<g style="fill:#000000; fill-opacity:0.0; 
stroke:#000000; stroke-width:59.0551; stroke-opacity:1; 
stroke-linecap:round; stroke-linejoin:round;">
<path d="M4208 13864
L4452 13864
" />
<path d="M4160 14011
L4330 13499
L4501 14011
" />
</g>
<g style="fill:#000000; fill-opacity:0.0; 
stroke:#000000; stroke-width:39.3701; stroke-opacity:1; 
stroke-linecap:round; stroke-linejoin:round;">
</g>
<g style="fill:#000000; fill-opacity:0.0; 
stroke:#000000; stroke-width:59.0551; stroke-opacity:1; 
stroke-linecap:round; stroke-linejoin:round;">
<path d="M4367 33428
L4440 33452
L4464 33476
L4489 33525
L4489 33598
L4464 33647
L4440 33671
L4391 33696
L4196 33696
L4196 33184
L4367 33184
L4416 33208
L4440 33233
L4464 33281
L4464 33330
L4440 33379
L4416 33403
L4367 33428
L4196 33428
" />
</g>
<g style="fill:#000000; fill-opacity:0.0; 
stroke:#000000; stroke-width:39.3701; stroke-opacity:1; 
stroke-linecap:round; stroke-linejoin:round;">
</g>
<g style="fill:#000000; fill-opacity:0.0; 
stroke:#000000; stroke-width:59.0551; stroke-opacity:1; 
stroke-linecap:round; stroke-linejoin:round;">
<path d="M4489 53332
L4464 53356
L4391 53381
L4342 53381
L4269 53356
L4221 53308
L4196 53259
L4172 53161
L4172 53088
L4196 52991
L4221 52942
L4269 52893
L4342 52869
L4391 52869
L4464 52893
L4489 52918
" />
</g>
<g style="fill:#000000; fill-opacity:0.0; 
stroke:#000000; stroke-width:39.3701; stroke-opacity:1; 
stroke-linecap:round; stroke-linejoin:round;">
</g>
<g style="fill:#000000; fill-opacity:0.0; 
stroke:#000000; stroke-width:59.0551; stroke-opacity:1; 
stroke-linecap:round; stroke-linejoin:round;">
<path d="M4196 73066
L4196 72554
L4318 72554
L4391 72578
L4440 72627
L4464 72676
L4489 72773
L4489 72846
L4464 72944
L4440 72993
L4391 73041
L4318 73066
L4196 73066
" />
</g>
<g style="fill:#000000; fill-opacity:0.0; 
stroke:#000000; stroke-width:39.3701; stroke-opacity:1; 
stroke-linecap:round; stroke-linejoin:round;">
</g>
<g style="fill:#000000; fill-opacity:0.0; 
stroke:#000000; stroke-width:59.0551; stroke-opacity:1; 
stroke-linecap:round; stroke-linejoin:round;">
<path d="M112992 23622
L112205 23622
" />
</g>
<g style="fill:#000000; fill-opacity:0.0; 
stroke:#000000; stroke-width:39.3701; stroke-opacity:1; 
stroke-linecap:round; stroke-linejoin:round;">
</g>
<g style="fill:#000000; fill-opacity:0.0; 
stroke:#000000; stroke-width:59.0551; stroke-opacity:1; 
stroke-linecap:round; stroke-linejoin:round;">
<path d="M112992 43307
L112205 43307
" />
</g>
<g style="fill:#000000; fill-opacity:0.0; 
stroke:#000000; stroke-width:39.3701; stroke-opacity:1; 
stroke-linecap:round; stroke-linejoin:round;">
</g>
<g style="fill:#000000; fill-opacity:0.0; 
stroke:#000000; stroke-width:59.0551; stroke-opacity:1; 
stroke-linecap:round; stroke-linejoin:round;">
<path d="M112992 62992
L112205 62992
" />
</g>
<g style="fill:#000000; fill-opacity:0.0; 
stroke:#000000; stroke-width:39.3701; stroke-opacity:1; 
stroke-linecap:round; stroke-linejoin:round;">
</g>
<g style="fill:#000000; fill-opacity:0.0; 
stroke:#000000; stroke-width:59.0551; stroke-opacity:1; 
stroke-linecap:round; stroke-linejoin:round;">
<path d="M112477 13864
L112721 13864
" />
<path d="M112428 14011
L112599 13499
L112769 14011
" />
</g>
<g style="fill:#000000; fill-opacity:0.0; 
stroke:#000000; stroke-width:39.3701; stroke-opacity:1; 
stroke-linecap:round; stroke-linejoin:round;">
</g>
<g style="fill:#000000; fill-opacity:0.0; 
stroke:#000000; stroke-width:59.0551; stroke-opacity:1; 
stroke-linecap:round; stroke-linejoin:round;">
<path d="M112635 33428
L112708 33452
L112733 33476
L112757 33525
L112757 33598
L112733 33647
L112708 33671
L112660 33696
L112465 33696
L112465 33184
L112635 33184
L112684 33208
L112708 33233
L112733 33281
L112733 33330
L112708 33379
L112684 33403
L112635 33428
L112465 33428
" />
</g>
<g style="fill:#000000; fill-opacity:0.0; 
stroke:#000000; stroke-width:39.3701; stroke-opacity:1; 
stroke-linecap:round; stroke-linejoin:round;">
</g>
<g style="fill:#000000; fill-opacity:0.0; 
stroke:#000000; stroke-width:59.0551; stroke-opacity:1; 
stroke-linecap:round; stroke-linejoin:round;">
<path d="M112757 53332
L112733 53356
L112660 53381
L112611 53381
L112538 53356
L112489 53308
L112465 53259
L112440 53161
L112440 53088
L112465 52991
L112489 52942
L112538 52893
L112611 52869
L112660 52869
L112733 52893
L112757 52918
" />
</g>
<g style="fill:#000000; fill-opacity:0.0; 
stroke:#000000; stroke-width:39.3701; stroke-opacity:1; 
stroke-linecap:round; stroke-linejoin:round;">
</g>
<g style="fill:#000000; fill-opacity:0.0; 
stroke:#000000; stroke-width:59.0551; stroke-opacity:1; 
stroke-linecap:round; stroke-linejoin:round;">
<path d="M112465 73066
L112465 72554
L112587 72554
L112660 72578
L112708 72627
L112733 72676
L112757 72773
L112757 72846
L112733 72944
L112708 72993
L112660 73041
L112587 73066
L112465 73066
" />
</g>
<g style="fill:#000000; fill-opacity:0.0; 
stroke:#000000; stroke-width:39.3701; stroke-opacity:1; 
stroke-linecap:round; stroke-linejoin:round;">
</g>
<g style="fill:#000000; fill-opacity:0.0; 
stroke:#000000; stroke-width:59.0551; stroke-opacity:1; 
stroke-linecap:round; stroke-linejoin:round;">
<path d="M78881 76293
L78881 75703
L79022 75703
L79106 75731
L79162 75787
L79190 75843
L79219 75956
L79219 76040
L79190 76153
L79162 76209
L79106 76265
L79022 76293
L78881 76293
" />
<path d="M79725 76293
L79725 75984
L79697 75928
L79640 75899
L79528 75899
L79472 75928
" />
<path d="M79725 76265
L79669 76293
L79528 76293
L79472 76265
L79444 76209
L79444 76153
L79472 76096
L79528 76068
L79669 76068
L79725 76040
" />
<path d="M79922 75899
L80147 75899
" />
<path d="M80006 75703
L80006 76209
L80034 76265
L80090 76293
L80147 76293
" />
<path d="M80568 76265
L80512 76293
L80400 76293
L80343 76265
L80315 76209
L80315 75984
L80343 75928
L80400 75899
L80512 75899
L80568 75928
L80597 75984
L80597 76040
L80315 76096
" />
<path d="M80850 76237
L80878 76265
L80850 76293
L80822 76265
L80850 76237
L80850 76293
" />
<path d="M80850 75928
L80878 75956
L80850 75984
L80822 75956
L80850 75928
L80850 75984
" />
</g>
<g style="fill:#000000; fill-opacity:0.0; 
stroke:#000000; stroke-width:39.3701; stroke-opacity:1; 
stroke-linecap:round; stroke-linejoin:round;">
</g>
<g style="fill:#000000; fill-opacity:0.0; 
stroke:#000000; stroke-width:59.0551; stroke-opacity:1; 
stroke-linecap:round; stroke-linejoin:round;">
<path d="M69685 76577
L112205 76577
" />
</g>
<g style="fill:#000000; fill-opacity:0.0; 
stroke:#000000; stroke-width:39.3701; stroke-opacity:1; 
stroke-linecap:round; stroke-linejoin:round;">
</g>
<g style="fill:#000000; fill-opacity:0.0; 
stroke:#000000; stroke-width:59.0551; stroke-opacity:1; 
stroke-linecap:round; stroke-linejoin:round;">
<path d="M70220 77395
L70220 76805
" />
<path d="M70557 77395
L70304 77058
" />
<path d="M70557 76805
L70220 77142
" />
<path d="M70810 77395
L70810 77002
" />
<path d="M70810 76805
L70782 76833
L70810 76861
L70838 76833
L70810 76805
L70810 76861
" />
<path d="M71429 77339
L71401 77367
L71316 77395
L71260 77395
L71176 77367
L71120 77311
L71091 77255
L71063 77142
L71063 77058
L71091 76946
L71120 76889
L71176 76833
L71260 76805
L71316 76805
L71401 76833
L71429 76861
" />
<path d="M71935 77395
L71935 77086
L71907 77030
L71851 77002
L71738 77002
L71682 77030
" />
<path d="M71935 77367
L71879 77395
L71738 77395
L71682 77367
L71654 77311
L71654 77255
L71682 77199
L71738 77171
L71879 77171
L71935 77142
" />
<path d="M72469 77395
L72469 76805
" />
<path d="M72469 77367
L72413 77395
L72301 77395
L72244 77367
L72216 77339
L72188 77283
L72188 77114
L72216 77058
L72244 77030
L72301 77002
L72413 77002
L72469 77030
" />
<path d="M73201 77086
L73397 77086
" />
<path d="M73482 77395
L73201 77395
L73201 76805
L73482 76805
" />
<path d="M73735 77339
L73763 77367
L73735 77395
L73707 77367
L73735 77339
L73735 77395
" />
<path d="M74016 77395
L74016 76805
L74157 76805
L74241 76833
L74297 76889
L74325 76946
L74354 77058
L74354 77142
L74325 77255
L74297 77311
L74241 77367
L74157 77395
L74016 77395
" />
<path d="M74607 77339
L74635 77367
L74607 77395
L74579 77367
L74607 77339
L74607 77395
" />
<path d="M74860 77227
L75141 77227
" />
<path d="M74804 77395
L75000 76805
L75197 77395
" />
<path d="M75394 77339
L75422 77367
L75394 77395
L75366 77367
L75394 77339
L75394 77395
" />
<path d="M76575 77395
L76575 76805
" />
<path d="M76631 77171
L76800 77395
" />
<path d="M76800 77002
L76575 77227
" />
<path d="M77053 77395
L77053 77002
" />
<path d="M77053 76805
L77025 76833
L77053 76861
L77081 76833
L77053 76805
L77053 76861
" />
<path d="M77588 77367
L77531 77395
L77419 77395
L77363 77367
L77334 77339
L77306 77283
L77306 77114
L77334 77058
L77363 77030
L77419 77002
L77531 77002
L77588 77030
" />
<path d="M78094 77395
L78094 77086
L78066 77030
L78009 77002
L77897 77002
L77841 77030
" />
<path d="M78094 77367
L78037 77395
L77897 77395
L77841 77367
L77813 77311
L77813 77255
L77841 77199
L77897 77171
L78037 77171
L78094 77142
" />
<path d="M78628 77395
L78628 76805
" />
<path d="M78628 77367
L78572 77395
L78459 77395
L78403 77367
L78375 77339
L78347 77283
L78347 77114
L78375 77058
L78403 77030
L78459 77002
L78572 77002
L78628 77030
" />
<path d="M79612 77002
L79612 77395
" />
<path d="M79472 76777
L79331 77199
L79697 77199
" />
<path d="M79922 77339
L79950 77367
L79922 77395
L79894 77367
L79922 77339
L79922 77395
" />
<path d="M80315 76805
L80372 76805
L80428 76833
L80456 76861
L80484 76917
L80512 77030
L80512 77171
L80484 77283
L80456 77339
L80428 77367
L80372 77395
L80315 77395
L80259 77367
L80231 77339
L80203 77283
L80175 77171
L80175 77030
L80203 76917
L80231 76861
L80259 76833
L80315 76805
" />
<path d="M80765 77339
L80793 77367
L80765 77395
L80737 77367
L80765 77339
L80765 77395
" />
<path d="M81300 76805
L81187 76805
L81131 76833
L81103 76861
L81046 76946
L81018 77058
L81018 77283
L81046 77339
L81075 77367
L81131 77395
L81243 77395
L81300 77367
L81328 77339
L81356 77283
L81356 77142
L81328 77086
L81300 77058
L81243 77030
L81131 77030
L81075 77058
L81046 77086
L81018 77142
" />
<path d="M81609 77171
L82059 77171
" />
<path d="M82565 77367
L82509 77395
L82396 77395
L82340 77367
L82312 77311
L82312 77086
L82340 77030
L82396 77002
L82509 77002
L82565 77030
L82593 77086
L82593 77142
L82312 77199
" />
<path d="M82959 76805
L83015 76805
L83071 76833
L83099 76861
L83127 76917
L83156 77030
L83156 77171
L83127 77283
L83099 77339
L83071 77367
L83015 77395
L82959 77395
L82903 77367
L82874 77339
L82846 77283
L82818 77171
L82818 77030
L82846 76917
L82874 76861
L82903 76833
L82959 76805
" />
<path d="M83409 77171
L83859 77171
" />
<path d="M84393 76805
L84280 76805
L84224 76833
L84196 76861
L84140 76946
L84112 77058
L84112 77283
L84140 77339
L84168 77367
L84224 77395
L84337 77395
L84393 77367
L84421 77339
L84449 77283
L84449 77142
L84421 77086
L84393 77058
L84337 77030
L84224 77030
L84168 77058
L84140 77086
L84112 77142
" />
<path d="M84646 76805
L85012 76805
L84815 77030
L84899 77030
L84955 77058
L84983 77086
L85012 77142
L85012 77283
L84983 77339
L84955 77367
L84899 77395
L84730 77395
L84674 77367
L84646 77339
" />
<path d="M85518 77002
L85518 77395
" />
<path d="M85377 76777
L85237 77199
L85602 77199
" />
<path d="M85855 77395
L85968 77395
L86024 77367
L86052 77339
L86108 77255
L86136 77142
L86136 76917
L86108 76861
L86080 76833
L86024 76805
L85912 76805
L85855 76833
L85827 76861
L85799 76917
L85799 77058
L85827 77114
L85855 77142
L85912 77171
L86024 77171
L86080 77142
L86108 77114
L86136 77058
" />
<path d="M86671 76805
L86390 76805
L86361 77086
L86390 77058
L86446 77030
L86586 77030
L86643 77058
L86671 77086
L86699 77142
L86699 77283
L86671 77339
L86643 77367
L86586 77395
L86446 77395
L86390 77367
L86361 77339
" />
<path d="M86896 76805
L87261 76805
L87064 77030
L87149 77030
L87205 77058
L87233 77086
L87261 77142
L87261 77283
L87233 77339
L87205 77367
L87149 77395
L86980 77395
L86924 77367
L86896 77339
" />
<path d="M86249 76703
L87374 76703
" />
<path d="M87768 77002
L87768 77395
" />
<path d="M87514 77002
L87514 77311
L87543 77367
L87599 77395
L87683 77395
L87739 77367
L87768 77339
" />
<path d="M88049 77395
L88049 76805
" />
<path d="M88049 77030
L88105 77002
L88217 77002
L88274 77030
L88302 77058
L88330 77114
L88330 77283
L88302 77339
L88274 77367
L88217 77395
L88105 77395
L88049 77367
" />
<path d="M88836 77002
L88836 77395
" />
<path d="M88583 77002
L88583 77311
L88611 77367
L88667 77395
L88752 77395
L88808 77367
L88836 77339
" />
<path d="M89117 77002
L89117 77395
" />
<path d="M89117 77058
L89145 77030
L89202 77002
L89286 77002
L89342 77030
L89370 77086
L89370 77395
" />
<path d="M89567 77002
L89792 77002
" />
<path d="M89652 76805
L89652 77311
L89680 77367
L89736 77395
L89792 77395
" />
<path d="M90242 77002
L90242 77395
" />
<path d="M89989 77002
L89989 77311
L90017 77367
L90073 77395
L90158 77395
L90214 77367
L90242 77339
" />
<path d="M90833 77395
L90495 77395
" />
<path d="M90664 77395
L90664 76805
L90608 76889
L90552 76946
L90495 76974
" />
<path d="M91339 76805
L91226 76805
L91170 76833
L91142 76861
L91086 76946
L91058 77058
L91058 77283
L91086 77339
L91114 77367
L91170 77395
L91283 77395
L91339 77367
L91367 77339
L91395 77283
L91395 77142
L91367 77086
L91339 77058
L91283 77030
L91170 77030
L91114 77058
L91086 77086
L91058 77142
" />
<path d="M91648 77339
L91676 77367
L91648 77395
L91620 77367
L91648 77339
L91648 77395
" />
<path d="M92042 76805
L92098 76805
L92154 76833
L92183 76861
L92211 76917
L92239 77030
L92239 77171
L92211 77283
L92183 77339
L92154 77367
L92098 77395
L92042 77395
L91986 77367
L91958 77339
L91929 77283
L91901 77171
L91901 77030
L91929 76917
L91958 76861
L91986 76833
L92042 76805
" />
<path d="M92745 77002
L92745 77395
" />
<path d="M92604 76777
L92464 77199
L92829 77199
" />
<path d="M93054 77339
L93082 77367
L93054 77395
L93026 77367
L93054 77339
L93054 77395
" />
<path d="M93645 77395
L93307 77395
" />
<path d="M93476 77395
L93476 76805
L93420 76889
L93364 76946
L93307 76974
" />
</g>
<g style="fill:#000000; fill-opacity:0.0; 
stroke:#000000; stroke-width:39.3701; stroke-opacity:1; 
stroke-linecap:round; stroke-linejoin:round;">
</g>
<g style="fill:#000000; fill-opacity:0.0; 
stroke:#000000; stroke-width:59.0551; stroke-opacity:1; 
stroke-linecap:round; stroke-linejoin:round;">
<path d="M69685 75396
L112205 75396
" />
</g>
<g style="fill:#000000; fill-opacity:0.0; 
stroke:#000000; stroke-width:39.3701; stroke-opacity:1; 
stroke-linecap:round; stroke-linejoin:round;">
</g>
<g style="fill:#000000; fill-opacity:0.0; 
stroke:#000000; stroke-width:118.11; stroke-opacity:1; 
stroke-linecap:round; stroke-linejoin:round;">
<path d="M104022 76293
L103825 76012
" />
<path d="M103684 76293
L103684 75703
L103909 75703
L103965 75731
L103994 75759
L104022 75815
L104022 75899
L103994 75956
L103965 75984
L103909 76012
L103684 76012
" />
<path d="M104500 76265
L104444 76293
L104331 76293
L104275 76265
L104247 76209
L104247 75984
L104275 75928
L104331 75899
L104444 75899
L104500 75928
L104528 75984
L104528 76040
L104247 76096
" />
<path d="M104725 75899
L104865 76293
L105006 75899
" />
<path d="M105231 76237
L105259 76265
L105231 76293
L105203 76265
L105231 76237
L105231 76293
" />
<path d="M105231 75928
L105259 75956
L105231 75984
L105203 75956
L105231 75928
L105231 75984
" />
</g>
<g style="fill:#000000; fill-opacity:0.0; 
stroke:#000000; stroke-width:39.3701; stroke-opacity:1; 
stroke-linecap:round; stroke-linejoin:round;">
</g>
<g style="fill:#000000; fill-opacity:0.0; 
stroke:#000000; stroke-width:59.0551; stroke-opacity:1; 
stroke-linecap:round; stroke-linejoin:round;">
<path d="M70192 76265
L70276 76293
L70417 76293
L70473 76265
L70501 76237
L70529 76181
L70529 76124
L70501 76068
L70473 76040
L70417 76012
L70304 75984
L70248 75956
L70220 75928
L70192 75871
L70192 75815
L70220 75759
L70248 75731
L70304 75703
L70445 75703
L70529 75731
" />
<path d="M70782 76293
L70782 75899
" />
<path d="M70782 75703
L70754 75731
L70782 75759
L70810 75731
L70782 75703
L70782 75759
" />
<path d="M71007 75899
L71316 75899
L71007 76293
L71316 76293
" />
<path d="M71766 76265
L71710 76293
L71598 76293
L71541 76265
L71513 76209
L71513 75984
L71541 75928
L71598 75899
L71710 75899
L71766 75928
L71795 75984
L71795 76040
L71513 76096
" />
<path d="M72048 76237
L72076 76265
L72048 76293
L72019 76265
L72048 76237
L72048 76293
" />
<path d="M72048 75928
L72076 75956
L72048 75984
L72019 75956
L72048 75928
L72048 75984
" />
<path d="M72751 76124
L73032 76124
" />
<path d="M72694 76293
L72891 75703
L73088 76293
" />
<path d="M73538 75899
L73538 76293
" />
<path d="M73397 75674
L73257 76096
L73622 76096
" />
</g>
<g style="fill:#000000; fill-opacity:0.0; 
stroke:#000000; stroke-width:39.3701; stroke-opacity:1; 
stroke-linecap:round; stroke-linejoin:round;">
</g>
<g style="fill:#000000; fill-opacity:0.0; 
stroke:#000000; stroke-width:59.0551; stroke-opacity:1; 
stroke-linecap:round; stroke-linejoin:round;">
<path d="M103684 77395
L103684 76805
" />
<path d="M104219 77395
L104219 76805
" />
<path d="M104219 77367
L104162 77395
L104050 77395
L103994 77367
L103965 77339
L103937 77283
L103937 77114
L103965 77058
L103994 77030
L104050 77002
L104162 77002
L104219 77030
" />
<path d="M104500 77339
L104528 77367
L104500 77395
L104472 77367
L104500 77339
L104500 77395
" />
<path d="M104500 77030
L104528 77058
L104500 77086
L104472 77058
L104500 77030
L104500 77086
" />
<path d="M105540 77395
L105203 77395
" />
<path d="M105372 77395
L105372 76805
L105315 76889
L105259 76946
L105203 76974
" />
<path d="M106215 76777
L105709 77536
" />
<path d="M106721 77395
L106384 77395
" />
<path d="M106553 77395
L106553 76805
L106496 76889
L106440 76946
L106384 76974
" />
</g>
<g style="fill:#000000; fill-opacity:0.0; 
stroke:#000000; stroke-width:39.3701; stroke-opacity:1; 
stroke-linecap:round; stroke-linejoin:round;">
</g>
<g style="fill:#000000; fill-opacity:0.0; 
stroke:#000000; stroke-width:59.0551; stroke-opacity:1; 
stroke-linecap:round; stroke-linejoin:round;">
<path d="M69685 73821
L112205 73821
" />
</g>
<g style="fill:#000000; fill-opacity:0.0; 
stroke:#000000; stroke-width:39.3701; stroke-opacity:1; 
stroke-linecap:round; stroke-linejoin:round;">
</g>
<g style="fill:#000000; fill-opacity:0.0; 
stroke:#000000; stroke-width:157.48; stroke-opacity:1; 
stroke-linecap:round; stroke-linejoin:round;">
<path d="M70257 74099
L70707 74099
" />
<path d="M70384 74886
L70482 74099
" />
<path d="M70871 74886
L70937 74361
" />
<path d="M70970 74099
L70927 74136
L70960 74174
L71002 74136
L70970 74099
L70960 74174
" />
<path d="M71199 74361
L71499 74361
" />
<path d="M71345 74099
L71260 74774
L71288 74849
L71359 74886
L71434 74886
" />
<path d="M71809 74886
L71738 74849
L71710 74774
L71795 74099
" />
<path d="M72413 74849
L72334 74886
L72184 74886
L72113 74849
L72085 74774
L72123 74474
L72169 74399
L72249 74361
L72399 74361
L72469 74399
L72498 74474
L72488 74549
L72104 74624
" />
<path d="M72793 74811
L72826 74849
L72783 74886
L72751 74849
L72793 74811
L72783 74886
" />
<path d="M72844 74399
L72877 74436
L72835 74474
L72802 74436
L72844 74399
L72835 74474
" />
</g>
<g style="fill:#000000; fill-opacity:0.0; 
stroke:#000000; stroke-width:39.3701; stroke-opacity:1; 
stroke-linecap:round; stroke-linejoin:round;">
</g>
<g style="fill:#000000; fill-opacity:0.0; 
stroke:#000000; stroke-width:59.0551; stroke-opacity:1; 
stroke-linecap:round; stroke-linejoin:round;">
<path d="M70417 73070
L70220 73070
" />
<path d="M70220 73380
L70220 72789
L70501 72789
" />
<path d="M70726 73380
L70726 72986
" />
<path d="M70726 72789
L70698 72817
L70726 72845
L70754 72817
L70726 72789
L70726 72845
" />
<path d="M71091 73380
L71035 73352
L71007 73295
L71007 72789
" />
<path d="M71541 73352
L71485 73380
L71373 73380
L71316 73352
L71288 73295
L71288 73070
L71316 73014
L71373 72986
L71485 72986
L71541 73014
L71570 73070
L71570 73127
L71288 73183
" />
<path d="M71823 73323
L71851 73352
L71823 73380
L71795 73352
L71823 73323
L71823 73380
" />
<path d="M71823 73014
L71851 73042
L71823 73070
L71795 73042
L71823 73014
L71823 73070
" />
<path d="M72526 73352
L72582 73380
L72694 73380
L72751 73352
L72779 73295
L72779 73267
L72751 73211
L72694 73183
L72610 73183
L72554 73155
L72526 73099
L72526 73070
L72554 73014
L72610 72986
L72694 72986
L72751 73014
" />
<path d="M72947 72986
L73172 72986
" />
<path d="M73032 72789
L73032 73295
L73060 73352
L73116 73380
L73172 73380
" />
<path d="M73369 73380
L73369 72986
" />
<path d="M73369 73042
L73397 73014
L73454 72986
L73538 72986
L73594 73014
L73622 73070
L73622 73380
" />
<path d="M73622 73070
L73651 73014
L73707 72986
L73791 72986
L73847 73014
L73876 73070
L73876 73380
" />
<path d="M74100 72789
L74466 72789
L74269 73014
L74354 73014
L74410 73042
L74438 73070
L74466 73127
L74466 73267
L74438 73323
L74410 73352
L74354 73380
L74185 73380
L74129 73352
L74100 73323
" />
<path d="M74691 72845
L74719 72817
L74775 72789
L74916 72789
L74972 72817
L75000 72845
L75028 72902
L75028 72958
L75000 73042
L74663 73380
L75028 73380
" />
<path d="M75197 72986
L75422 72986
" />
<path d="M75282 73380
L75282 72874
L75310 72817
L75366 72789
L75422 72789
" />
<path d="M75732 72789
L75788 72789
L75844 72817
L75872 72845
L75900 72902
L75928 73014
L75928 73155
L75900 73267
L75872 73323
L75844 73352
L75788 73380
L75732 73380
L75675 73352
L75647 73323
L75619 73267
L75591 73155
L75591 73014
L75619 72902
L75647 72845
L75675 72817
L75732 72789
" />
<path d="M76125 72789
L76491 72789
L76294 73014
L76378 73014
L76435 73042
L76463 73070
L76491 73127
L76491 73267
L76463 73323
L76435 73352
L76378 73380
L76210 73380
L76153 73352
L76125 73323
" />
<path d="M76856 72789
L76913 72789
L76969 72817
L76997 72845
L77025 72902
L77053 73014
L77053 73155
L77025 73267
L76997 73323
L76969 73352
L76913 73380
L76856 73380
L76800 73352
L76772 73323
L76744 73267
L76716 73155
L76716 73014
L76744 72902
L76772 72845
L76800 72817
L76856 72789
" />
<path d="M77306 73155
L77756 73155
" />
<path d="M78262 73352
L78206 73380
L78094 73380
L78037 73352
L78009 73295
L78009 73070
L78037 73014
L78094 72986
L78206 72986
L78262 73014
L78291 73070
L78291 73127
L78009 73183
" />
<path d="M78459 72986
L78684 72986
" />
<path d="M78544 72789
L78544 73295
L78572 73352
L78628 73380
L78684 73380
" />
<path d="M78881 73380
L78881 72789
" />
<path d="M79134 73380
L79134 73070
L79106 73014
L79050 72986
L78965 72986
L78909 73014
L78881 73042
" />
<path d="M79415 73323
L79444 73352
L79415 73380
L79387 73352
L79415 73323
L79415 73380
" />
<path d="M79697 73380
L79697 72789
" />
<path d="M79753 73155
L79922 73380
" />
<path d="M79922 72986
L79697 73211
" />
<path d="M80175 73380
L80175 72986
" />
<path d="M80175 72789
L80147 72817
L80175 72845
L80203 72817
L80175 72789
L80175 72845
" />
<path d="M80709 73352
L80653 73380
L80540 73380
L80484 73352
L80456 73323
L80428 73267
L80428 73099
L80456 73042
L80484 73014
L80540 72986
L80653 72986
L80709 73014
" />
<path d="M81215 73380
L81215 73070
L81187 73014
L81131 72986
L81018 72986
L80962 73014
" />
<path d="M81215 73352
L81159 73380
L81018 73380
L80962 73352
L80934 73295
L80934 73239
L80962 73183
L81018 73155
L81159 73155
L81215 73127
" />
<path d="M81750 73380
L81750 72789
" />
<path d="M81750 73352
L81693 73380
L81581 73380
L81525 73352
L81496 73323
L81468 73267
L81468 73099
L81496 73042
L81525 73014
L81581 72986
L81693 72986
L81750 73014
" />
<path d="M81890 73436
L82340 73436
" />
<path d="M82481 72986
L82481 73577
" />
<path d="M82481 73014
L82537 72986
L82649 72986
L82706 73014
L82734 73042
L82762 73099
L82762 73267
L82734 73323
L82706 73352
L82649 73380
L82537 73380
L82481 73352
" />
<path d="M83268 73352
L83212 73380
L83099 73380
L83043 73352
L83015 73323
L82987 73267
L82987 73099
L83015 73042
L83043 73014
L83099 72986
L83212 72986
L83268 73014
" />
<path d="M83521 73380
L83521 72789
" />
<path d="M83521 73014
L83577 72986
L83690 72986
L83746 73014
L83774 73042
L83802 73099
L83802 73267
L83774 73323
L83746 73352
L83690 73380
L83577 73380
L83521 73352
" />
</g>
<g style="fill:#000000; fill-opacity:0.0; 
stroke:#000000; stroke-width:39.3701; stroke-opacity:1; 
stroke-linecap:round; stroke-linejoin:round;">
</g>
<g style="fill:#000000; fill-opacity:0.0; 
stroke:#000000; stroke-width:59.0551; stroke-opacity:1; 
stroke-linecap:round; stroke-linejoin:round;">
<path d="M69685 71459
L112205 71459
" />
</g>
<g style="fill:#000000; fill-opacity:0.0; 
stroke:#000000; stroke-width:39.3701; stroke-opacity:1; 
stroke-linecap:round; stroke-linejoin:round;">
</g>
<g style="fill:#000000; fill-opacity:0.0; 
stroke:#000000; stroke-width:59.0551; stroke-opacity:1; 
stroke-linecap:round; stroke-linejoin:round;">
<path d="M70192 72289
L70276 72317
L70417 72317
L70473 72289
L70501 72260
L70529 72204
L70529 72148
L70501 72092
L70473 72064
L70417 72036
L70304 72007
L70248 71979
L70220 71951
L70192 71895
L70192 71839
L70220 71782
L70248 71754
L70304 71726
L70445 71726
L70529 71754
" />
<path d="M70782 72317
L70782 71726
" />
<path d="M71035 72317
L71035 72007
L71007 71951
L70951 71923
L70867 71923
L70810 71951
L70782 71979
" />
<path d="M71541 72289
L71485 72317
L71373 72317
L71316 72289
L71288 72232
L71288 72007
L71316 71951
L71373 71923
L71485 71923
L71541 71951
L71570 72007
L71570 72064
L71288 72120
" />
<path d="M72048 72289
L71991 72317
L71879 72317
L71823 72289
L71795 72232
L71795 72007
L71823 71951
L71879 71923
L71991 71923
L72048 71951
L72076 72007
L72076 72064
L71795 72120
" />
<path d="M72244 71923
L72469 71923
" />
<path d="M72329 71726
L72329 72232
L72357 72289
L72413 72317
L72469 72317
" />
<path d="M72666 72260
L72694 72289
L72666 72317
L72638 72289
L72666 72260
L72666 72317
" />
<path d="M72666 71951
L72694 71979
L72666 72007
L72638 71979
L72666 71951
L72666 72007
" />
</g>
<g style="fill:#000000; fill-opacity:0.0; 
stroke:#000000; stroke-width:39.3701; stroke-opacity:1; 
stroke-linecap:round; stroke-linejoin:round;">
</g>
<g style="fill:#000000; fill-opacity:0.0; 
stroke:#000000; stroke-width:59.0551; stroke-opacity:1; 
stroke-linecap:round; stroke-linejoin:round;">
<path d="M77559 75396
L77559 76577
" />
</g>
<g style="fill:#000000; fill-opacity:0.0; 
stroke:#000000; stroke-width:39.3701; stroke-opacity:1; 
stroke-linecap:round; stroke-linejoin:round;">
</g>
<g style="fill:#000000; fill-opacity:0.0; 
stroke:#000000; stroke-width:59.0551; stroke-opacity:1; 
stroke-linecap:round; stroke-linejoin:round;">
<path d="M102756 75396
L102756 77955
" />
</g>
<g style="fill:#C2C200; fill-opacity:0.0; 
stroke:#C2C200; stroke-width:59.0551; stroke-opacity:1; 
stroke-linecap:round; stroke-linejoin:round;">
<path d="M11811 7874
L36417 7874
" />
<path d="M11811 28937
L11811 7874
" />
<path d="M36417 28937
L11811 28937
" />
<path d="M36417 7874
L36417 28937
" />
</g>
<g style="fill:#840000; fill-opacity:0.0; 
stroke:#840000; stroke-width:59.0551; stroke-opacity:1; 
stroke-linecap:round; stroke-linejoin:round;">
</g>
<g style="fill:#840000; fill-opacity:0.0; 
stroke:#840000; stroke-width:0; stroke-opacity:1; 
stroke-linecap:round; stroke-linejoin:round;">
</g>
<g style="fill:#840000; fill-opacity:1.0; 
stroke:#840000; stroke-width:0; stroke-opacity:1; 
stroke-linecap:round; stroke-linejoin:round;">
<polyline style="fill-rule:evenodd;"
points="24409,11368
24409,11269
24921,11269
24921,11368
24409,11368
" /> 
<polyline style="fill-rule:evenodd;"
points="24409,11564
24409,11466
24921,11466
24921,11564
24409,11564
" /> 
<polyline style="fill-rule:evenodd;"
points="24409,11761
24409,11663
24921,11663
24921,11761
24409,11761
" /> 
<polyline style="fill-rule:evenodd;"
points="24409,11958
24409,11860
24921,11860
24921,11958
24409,11958
" /> 
<polyline style="fill-rule:evenodd;"
points="24409,12155
24409,12057
24921,12057
24921,12155
24409,12155
" /> 
<polyline style="fill-rule:evenodd;"
points="24409,12352
24409,12253
24921,12253
24921,12352
24409,12352
" /> 
<polyline style="fill-rule:evenodd;"
points="24409,12549
24409,12450
24921,12450
24921,12549
24409,12549
" /> 
<polyline style="fill-rule:evenodd;"
points="24409,12746
24409,12647
24921,12647
24921,12746
24409,12746
" /> 
<polyline style="fill-rule:evenodd;"
points="24409,12942
24409,12844
24921,12844
24921,12942
24409,12942
" /> 
<polyline style="fill-rule:evenodd;"
points="24409,13139
24409,13041
24921,13041
24921,13139
24409,13139
" /> 
<polyline style="fill-rule:evenodd;"
points="24409,13336
24409,13238
24921,13238
24921,13336
24409,13336
" /> 
<polyline style="fill-rule:evenodd;"
points="24409,13533
24409,13435
24921,13435
24921,13533
24409,13533
" /> 
<polyline style="fill-rule:evenodd;"
points="25344,14370
25246,14370
25246,13858
25344,13858
25344,14370
" /> 
<polyline style="fill-rule:evenodd;"
points="25541,14370
25442,14370
25442,13858
25541,13858
25541,14370
" /> 
<polyline style="fill-rule:evenodd;"
points="25738,14370
25639,14370
25639,13858
25738,13858
25738,14370
" /> 
<polyline style="fill-rule:evenodd;"
points="25935,14370
25836,14370
25836,13858
25935,13858
25935,14370
" /> 
<polyline style="fill-rule:evenodd;"
points="26131,14370
26033,14370
26033,13858
26131,13858
26131,14370
" /> 
<polyline style="fill-rule:evenodd;"
points="26328,14370
26230,14370
26230,13858
26328,13858
26328,14370
" /> 
<polyline style="fill-rule:evenodd;"
points="26525,14370
26427,14370
26427,13858
26525,13858
26525,14370
" /> 
<polyline style="fill-rule:evenodd;"
points="26722,14370
26624,14370
26624,13858
26722,13858
26722,14370
" /> 
<polyline style="fill-rule:evenodd;"
points="26919,14370
26820,14370
26820,13858
26919,13858
26919,14370
" /> 
<polyline style="fill-rule:evenodd;"
points="27116,14370
27017,14370
27017,13858
27116,13858
27116,14370
" /> 
<polyline style="fill-rule:evenodd;"
points="27312,14370
27214,14370
27214,13858
27312,13858
27312,14370
" /> 
<polyline style="fill-rule:evenodd;"
points="27509,14370
27411,14370
27411,13858
27509,13858
27509,14370
" /> 
<polyline style="fill-rule:evenodd;"
points="27834,13533
27834,13435
28346,13435
28346,13533
27834,13533
" /> 
<polyline style="fill-rule:evenodd;"
points="27834,13336
27834,13238
28346,13238
28346,13336
27834,13336
" /> 
<polyline style="fill-rule:evenodd;"
points="27834,13139
27834,13041
28346,13041
28346,13139
27834,13139
" /> 
<polyline style="fill-rule:evenodd;"
points="27834,12942
27834,12844
28346,12844
28346,12942
27834,12942
" /> 
<polyline style="fill-rule:evenodd;"
points="27834,12746
27834,12647
28346,12647
28346,12746
27834,12746
" /> 
<polyline style="fill-rule:evenodd;"
points="27834,12549
27834,12450
28346,12450
28346,12549
27834,12549
" /> 
<polyline style="fill-rule:evenodd;"
points="27834,12352
27834,12253
28346,12253
28346,12352
27834,12352
" /> 
<polyline style="fill-rule:evenodd;"
points="27834,12155
27834,12057
28346,12057
28346,12155
27834,12155
" /> 
<polyline style="fill-rule:evenodd;"
points="27834,11958
27834,11860
28346,11860
28346,11958
27834,11958
" /> 
<polyline style="fill-rule:evenodd;"
points="27834,11761
27834,11663
28346,11663
28346,11761
27834,11761
" /> 
<polyline style="fill-rule:evenodd;"
points="27834,11564
27834,11466
28346,11466
28346,11564
27834,11564
" /> 
<polyline style="fill-rule:evenodd;"
points="27834,11368
27834,11269
28346,11269
28346,11368
27834,11368
" /> 
<polyline style="fill-rule:evenodd;"
points="27509,10944
27411,10944
27411,10433
27509,10433
27509,10944
" /> 
<polyline style="fill-rule:evenodd;"
points="27312,10944
27214,10944
27214,10433
27312,10433
27312,10944
" /> 
<polyline style="fill-rule:evenodd;"
points="27116,10944
27017,10944
27017,10433
27116,10433
27116,10944
" /> 
<polyline style="fill-rule:evenodd;"
points="26919,10944
26820,10944
26820,10433
26919,10433
26919,10944
" /> 
<polyline style="fill-rule:evenodd;"
points="26722,10944
26624,10944
26624,10433
26722,10433
26722,10944
" /> 
<polyline style="fill-rule:evenodd;"
points="26525,10944
26427,10944
26427,10433
26525,10433
26525,10944
" /> 
<polyline style="fill-rule:evenodd;"
points="26328,10944
26230,10944
26230,10433
26328,10433
26328,10944
" /> 
<polyline style="fill-rule:evenodd;"
points="26131,10944
26033,10944
26033,10433
26131,10433
26131,10944
" /> 
<polyline style="fill-rule:evenodd;"
points="25935,10944
25836,10944
25836,10433
25935,10433
25935,10944
" /> 
<polyline style="fill-rule:evenodd;"
points="25738,10944
25639,10944
25639,10433
25738,10433
25738,10944
" /> 
<polyline style="fill-rule:evenodd;"
points="25541,10944
25442,10944
25442,10433
25541,10433
25541,10944
" /> 
<polyline style="fill-rule:evenodd;"
points="25344,10944
25246,10944
25246,10433
25344,10433
25344,10944
" /> 
<polyline style="fill-rule:evenodd;"
points="22391,16732
22883,16732
22883,17322
22391,17322
22391,16732
" /> 
<polyline style="fill-rule:evenodd;"
points="22391,17716
22883,17716
22883,18307
22391,18307
22391,17716
" /> 
<polyline style="fill-rule:evenodd;"
points="22883,24015
22391,24015
22391,23425
22883,23425
22883,24015
" /> 
<polyline style="fill-rule:evenodd;"
points="22883,23031
22391,23031
22391,22440
22883,22440
22883,23031
" /> 
<polyline style="fill-rule:evenodd;"
points="17913,24458
17913,23966
18503,23966
18503,24458
17913,24458
" /> 
<polyline style="fill-rule:evenodd;"
points="18897,24458
18897,23966
19488,23966
19488,24458
18897,24458
" /> 
<polyline style="fill-rule:evenodd;"
points="17913,25442
17913,24950
18503,24950
18503,25442
17913,25442
" /> 
<polyline style="fill-rule:evenodd;"
points="18897,25442
18897,24950
19488,24950
19488,25442
18897,25442
" /> 
<polyline style="fill-rule:evenodd;"
points="30659,20669
31151,20669
31151,21259
30659,21259
30659,20669
" /> 
<polyline style="fill-rule:evenodd;"
points="30659,21653
31151,21653
31151,22244
30659,22244
30659,21653
" /> 
<polyline style="fill-rule:evenodd;"
points="32037,20669
32529,20669
32529,21259
32037,21259
32037,20669
" /> 
<polyline style="fill-rule:evenodd;"
points="32037,21653
32529,21653
32529,22244
32037,22244
32037,21653
" /> 
<polyline style="fill-rule:evenodd;"
points="29872,12598
30364,12598
30364,13188
29872,13188
29872,12598
" /> 
<polyline style="fill-rule:evenodd;"
points="29872,13582
30364,13582
30364,14173
29872,14173
29872,13582
" /> 
<polyline style="fill-rule:evenodd;"
points="29872,10433
30364,10433
30364,11023
29872,11023
29872,10433
" /> 
<polyline style="fill-rule:evenodd;"
points="29872,11417
30364,11417
30364,12007
29872,12007
29872,11417
" /> 
<polyline style="fill-rule:evenodd;"
points="21653,15403
21653,14911
22244,14911
22244,15403
21653,15403
" /> 
<polyline style="fill-rule:evenodd;"
points="22637,15403
22637,14911
23228,14911
23228,15403
22637,15403
" /> 
<polyline style="fill-rule:evenodd;"
points="21653,14419
21653,13927
22244,13927
22244,14419
21653,14419
" /> 
<polyline style="fill-rule:evenodd;"
points="22637,14419
22637,13927
23228,13927
23228,14419
22637,14419
" /> 
<polyline style="fill-rule:evenodd;"
points="12842,18169
12354,18169
12354,17854
12842,17854
12842,18169
" /> 
<polyline style="fill-rule:evenodd;"
points="12842,18605
12354,18605
12354,18290
12842,18290
12842,18605
" /> 
<polyline style="fill-rule:evenodd;"
points="12842,19041
12354,19041
12354,18726
12842,18726
12842,19041
" /> 
<polyline style="fill-rule:evenodd;"
points="12842,19476
12354,19476
12354,19161
12842,19161
12842,19476
" /> 
<polyline style="fill-rule:evenodd;"
points="12842,19912
12354,19912
12354,19597
12842,19597
12842,19912
" /> 
<polyline style="fill-rule:evenodd;"
points="12842,20348
12354,20348
12354,20033
12842,20033
12842,20348
" /> 
<polyline style="fill-rule:evenodd;"
points="12842,20784
12354,20784
12354,20469
12842,20469
12842,20784
" /> 
<polyline style="fill-rule:evenodd;"
points="12842,21220
12354,21220
12354,20905
12842,20905
12842,21220
" /> 
<polyline style="fill-rule:evenodd;"
points="12842,17086
12354,17086
12354,16771
12842,16771
12842,17086
" /> 
<polyline style="fill-rule:evenodd;"
points="17824,18444
17372,18444
17372,17854
17824,17854
17824,18444
" /> 
<polyline style="fill-rule:evenodd;"
points="17824,21515
17372,21515
17372,20925
17824,20925
17824,21515
" /> 
<polyline style="fill-rule:evenodd;"
points="17755,23139
16889,23139
16889,22687
17755,22687
17755,23139
" /> 
<polyline style="fill-rule:evenodd;"
points="13326,23139
12342,23139
12342,22765
13326,22765
13326,23139
" /> 
<polyline style="fill-rule:evenodd;"
points="24645,15826
24173,15826
24173,15354
24645,15354
24645,15826
" /> 
<polyline style="fill-rule:evenodd;"
points="24645,14960
24173,14960
24173,14488
24645,14488
24645,14960
" /> 
<polyline style="fill-rule:evenodd;"
points="28385,15826
27913,15826
27913,15354
28385,15354
28385,15826
" /> 
<polyline style="fill-rule:evenodd;"
points="28385,14960
27913,14960
27913,14488
28385,14488
28385,14960
" /> 
<polyline style="fill-rule:evenodd;"
points="24803,9173
24803,8779
25590,8779
25590,9173
24803,9173
" /> 
<polyline style="fill-rule:evenodd;"
points="24803,9724
24803,9330
25590,9330
25590,9724
24803,9724
" /> 
<polyline style="fill-rule:evenodd;"
points="26377,9173
26377,8779
27165,8779
27165,9173
26377,9173
" /> 
<polyline style="fill-rule:evenodd;"
points="26377,9724
26377,9330
27165,9330
27165,9724
26377,9724
" /> 
<polyline style="fill-rule:evenodd;"
points="27952,9173
27952,8779
28740,8779
28740,9173
27952,9173
" /> 
<polyline style="fill-rule:evenodd;"
points="27952,9724
27952,9330
28740,9330
28740,9724
27952,9724
" /> 
<polyline style="fill-rule:evenodd;"
points="29389,12047
28877,12047
28877,11456
29389,11456
29389,12047
" /> 
<polyline style="fill-rule:evenodd;"
points="29389,10984
28877,10984
28877,10393
29389,10393
29389,10984
" /> 
<polyline style="fill-rule:evenodd;"
points="24271,10275
23759,10275
23759,9685
24271,9685
24271,10275
" /> 
<polyline style="fill-rule:evenodd;"
points="24271,9212
23759,9212
23759,8622
24271,8622
24271,9212
" /> 
<polyline style="fill-rule:evenodd;"
points="19527,16082
19527,16594
18937,16594
18937,16082
19527,16082
" /> 
<polyline style="fill-rule:evenodd;"
points="18464,16082
18464,16594
17874,16594
17874,16082
18464,16082
" /> 
<polyline style="fill-rule:evenodd;"
points="15787,15885
15787,16397
15196,16397
15196,15885
15787,15885
" /> 
<polyline style="fill-rule:evenodd;"
points="14724,15885
14724,16397
14133,16397
14133,15885
14724,15885
" /> 
<polyline style="fill-rule:evenodd;"
points="26712,14921
27224,14921
27224,15511
26712,15511
26712,14921
" /> 
<polyline style="fill-rule:evenodd;"
points="26712,15984
27224,15984
27224,16574
26712,16574
26712,15984
" /> 
<polyline style="fill-rule:evenodd;"
points="25334,14921
25846,14921
25846,15511
25334,15511
25334,14921
" /> 
<polyline style="fill-rule:evenodd;"
points="25334,15984
25846,15984
25846,16574
25334,16574
25334,15984
" /> 
<polyline style="fill-rule:evenodd;"
points="21555,13248
21555,12736
22145,12736
22145,13248
21555,13248
" /> 
<polyline style="fill-rule:evenodd;"
points="22618,13248
22618,12736
23208,12736
23208,13248
22618,13248
" /> 
<polyline style="fill-rule:evenodd;"
points="21555,12263
21555,11751
22145,11751
22145,12263
21555,12263
" /> 
<polyline style="fill-rule:evenodd;"
points="22618,12263
22618,11751
23208,11751
23208,12263
22618,12263
" /> 
<polyline style="fill-rule:evenodd;"
points="21555,10216
21555,9704
22145,9704
22145,10216
21555,10216
" /> 
<polyline style="fill-rule:evenodd;"
points="22618,10216
22618,9704
23208,9704
23208,10216
22618,10216
" /> 
<polyline style="fill-rule:evenodd;"
points="21555,11240
21555,10728
22145,10728
22145,11240
21555,11240
" /> 
<polyline style="fill-rule:evenodd;"
points="22618,11240
22618,10728
23208,10728
23208,11240
22618,11240
" /> 
<polyline style="fill-rule:evenodd;"
points="24753,22125
24655,22125
24655,21732
24753,21732
24753,22125
" /> 
<polyline style="fill-rule:evenodd;"
points="24950,22125
24852,22125
24852,21732
24950,21732
24950,22125
" /> 
<polyline style="fill-rule:evenodd;"
points="25147,22125
25049,22125
25049,21732
25147,21732
25147,22125
" /> 
<polyline style="fill-rule:evenodd;"
points="25344,22125
25246,22125
25246,21732
25344,21732
25344,22125
" /> 
<polyline style="fill-rule:evenodd;"
points="25541,22125
25442,22125
25442,21732
25541,21732
25541,22125
" /> 
<polyline style="fill-rule:evenodd;"
points="25738,22125
25639,22125
25639,21732
25738,21732
25738,22125
" /> 
<polyline style="fill-rule:evenodd;"
points="25935,22125
25836,22125
25836,21732
25935,21732
25935,22125
" /> 
<polyline style="fill-rule:evenodd;"
points="26131,22125
26033,22125
26033,21732
26131,21732
26131,22125
" /> 
<polyline style="fill-rule:evenodd;"
points="26328,22125
26230,22125
26230,21732
26328,21732
26328,22125
" /> 
<polyline style="fill-rule:evenodd;"
points="26525,22125
26427,22125
26427,21732
26525,21732
26525,22125
" /> 
<polyline style="fill-rule:evenodd;"
points="26722,22125
26624,22125
26624,21732
26722,21732
26722,22125
" /> 
<polyline style="fill-rule:evenodd;"
points="26919,22125
26820,22125
26820,21732
26919,21732
26919,22125
" /> 
<polyline style="fill-rule:evenodd;"
points="27116,22125
27017,22125
27017,21732
27116,21732
27116,22125
" /> 
<polyline style="fill-rule:evenodd;"
points="27312,22125
27214,22125
27214,21732
27312,21732
27312,22125
" /> 
<polyline style="fill-rule:evenodd;"
points="27509,22125
27411,22125
27411,21732
27509,21732
27509,22125
" /> 
<polyline style="fill-rule:evenodd;"
points="27706,22125
27608,22125
27608,21732
27706,21732
27706,22125
" /> 
<polyline style="fill-rule:evenodd;"
points="28622,21112
28622,21210
28228,21210
28228,21112
28622,21112
" /> 
<polyline style="fill-rule:evenodd;"
points="28622,20915
28622,21013
28228,21013
28228,20915
28622,20915
" /> 
<polyline style="fill-rule:evenodd;"
points="28622,20718
28622,20816
28228,20816
28228,20718
28622,20718
" /> 
<polyline style="fill-rule:evenodd;"
points="28622,20521
28622,20620
28228,20620
28228,20521
28622,20521
" /> 
<polyline style="fill-rule:evenodd;"
points="28622,20324
28622,20423
28228,20423
28228,20324
28622,20324
" /> 
<polyline style="fill-rule:evenodd;"
points="28622,20127
28622,20226
28228,20226
28228,20127
28622,20127
" /> 
<polyline style="fill-rule:evenodd;"
points="28622,19931
28622,20029
28228,20029
28228,19931
28622,19931
" /> 
<polyline style="fill-rule:evenodd;"
points="28622,19734
28622,19832
28228,19832
28228,19734
28622,19734
" /> 
<polyline style="fill-rule:evenodd;"
points="28622,19537
28622,19635
28228,19635
28228,19537
28622,19537
" /> 
<polyline style="fill-rule:evenodd;"
points="28622,19340
28622,19438
28228,19438
28228,19340
28622,19340
" /> 
<polyline style="fill-rule:evenodd;"
points="28622,19143
28622,19242
28228,19242
28228,19143
28622,19143
" /> 
<polyline style="fill-rule:evenodd;"
points="28622,18946
28622,19045
28228,19045
28228,18946
28622,18946
" /> 
<polyline style="fill-rule:evenodd;"
points="28622,18750
28622,18848
28228,18848
28228,18750
28622,18750
" /> 
<polyline style="fill-rule:evenodd;"
points="28622,18553
28622,18651
28228,18651
28228,18553
28622,18553
" /> 
<polyline style="fill-rule:evenodd;"
points="28622,18356
28622,18454
28228,18454
28228,18356
28622,18356
" /> 
<polyline style="fill-rule:evenodd;"
points="28622,18159
28622,18257
28228,18257
28228,18159
28622,18159
" /> 
<polyline style="fill-rule:evenodd;"
points="27706,17637
27608,17637
27608,17244
27706,17244
27706,17637
" /> 
<polyline style="fill-rule:evenodd;"
points="27509,17637
27411,17637
27411,17244
27509,17244
27509,17637
" /> 
<polyline style="fill-rule:evenodd;"
points="27312,17637
27214,17637
27214,17244
27312,17244
27312,17637
" /> 
<polyline style="fill-rule:evenodd;"
points="27116,17637
27017,17637
27017,17244
27116,17244
27116,17637
" /> 
<polyline style="fill-rule:evenodd;"
points="26919,17637
26820,17637
26820,17244
26919,17244
26919,17637
" /> 
<polyline style="fill-rule:evenodd;"
points="26722,17637
26624,17637
26624,17244
26722,17244
26722,17637
" /> 
<polyline style="fill-rule:evenodd;"
points="26525,17637
26427,17637
26427,17244
26525,17244
26525,17637
" /> 
<polyline style="fill-rule:evenodd;"
points="26328,17637
26230,17637
26230,17244
26328,17244
26328,17637
" /> 
<polyline style="fill-rule:evenodd;"
points="26131,17637
26033,17637
26033,17244
26131,17244
26131,17637
" /> 
<polyline style="fill-rule:evenodd;"
points="25935,17637
25836,17637
25836,17244
25935,17244
25935,17637
" /> 
<polyline style="fill-rule:evenodd;"
points="25738,17637
25639,17637
25639,17244
25738,17244
25738,17637
" /> 
<polyline style="fill-rule:evenodd;"
points="25541,17637
25442,17637
25442,17244
25541,17244
25541,17637
" /> 
<polyline style="fill-rule:evenodd;"
points="25344,17637
25246,17637
25246,17244
25344,17244
25344,17637
" /> 
<polyline style="fill-rule:evenodd;"
points="25147,17637
25049,17637
25049,17244
25147,17244
25147,17637
" /> 
<polyline style="fill-rule:evenodd;"
points="24950,17637
24852,17637
24852,17244
24950,17244
24950,17637
" /> 
<polyline style="fill-rule:evenodd;"
points="24753,17637
24655,17637
24655,17244
24753,17244
24753,17637
" /> 
<polyline style="fill-rule:evenodd;"
points="24133,18159
24133,18257
23740,18257
23740,18159
24133,18159
" /> 
<polyline style="fill-rule:evenodd;"
points="24133,18356
24133,18454
23740,18454
23740,18356
24133,18356
" /> 
<polyline style="fill-rule:evenodd;"
points="24133,18553
24133,18651
23740,18651
23740,18553
24133,18553
" /> 
<polyline style="fill-rule:evenodd;"
points="24133,18750
24133,18848
23740,18848
23740,18750
24133,18750
" /> 
<polyline style="fill-rule:evenodd;"
points="24133,18946
24133,19045
23740,19045
23740,18946
24133,18946
" /> 
<polyline style="fill-rule:evenodd;"
points="24133,19143
24133,19242
23740,19242
23740,19143
24133,19143
" /> 
<polyline style="fill-rule:evenodd;"
points="24133,19340
24133,19438
23740,19438
23740,19340
24133,19340
" /> 
<polyline style="fill-rule:evenodd;"
points="24133,19537
24133,19635
23740,19635
23740,19537
24133,19537
" /> 
<polyline style="fill-rule:evenodd;"
points="24133,19734
24133,19832
23740,19832
23740,19734
24133,19734
" /> 
<polyline style="fill-rule:evenodd;"
points="24133,19931
24133,20029
23740,20029
23740,19931
24133,19931
" /> 
<polyline style="fill-rule:evenodd;"
points="24133,20127
24133,20226
23740,20226
23740,20127
24133,20127
" /> 
<polyline style="fill-rule:evenodd;"
points="24133,20324
24133,20423
23740,20423
23740,20324
24133,20324
" /> 
<polyline style="fill-rule:evenodd;"
points="24133,20521
24133,20620
23740,20620
23740,20521
24133,20521
" /> 
<polyline style="fill-rule:evenodd;"
points="24133,20718
24133,20816
23740,20816
23740,20718
24133,20718
" /> 
<polyline style="fill-rule:evenodd;"
points="24133,20915
24133,21013
23740,21013
23740,20915
24133,20915
" /> 
<polyline style="fill-rule:evenodd;"
points="24133,21112
24133,21210
23740,21210
23740,21112
24133,21112
" /> 
<polyline style="fill-rule:evenodd;"
points="16090,24360
16090,24104
16507,24104
16507,24360
16090,24360
" /> 
<polyline style="fill-rule:evenodd;"
points="16090,24734
16090,24478
16507,24478
16507,24734
16090,24734
" /> 
<polyline style="fill-rule:evenodd;"
points="16090,25108
16090,24852
16507,24852
16507,25108
16090,25108
" /> 
<polyline style="fill-rule:evenodd;"
points="16956,25108
16956,24852
17374,24852
17374,25108
16956,25108
" /> 
<polyline style="fill-rule:evenodd;"
points="16956,24360
16956,24104
17374,24104
17374,24360
16956,24360
" /> 
<polyline style="fill-rule:evenodd;"
points="31811,18929
32066,18929
32066,19346
31811,19346
31811,18929
" /> 
<polyline style="fill-rule:evenodd;"
points="31437,18929
31692,18929
31692,19346
31437,19346
31437,18929
" /> 
<polyline style="fill-rule:evenodd;"
points="31062,18929
31318,18929
31318,19346
31062,19346
31062,18929
" /> 
<polyline style="fill-rule:evenodd;"
points="31062,19795
31318,19795
31318,20212
31062,20212
31062,19795
" /> 
<polyline style="fill-rule:evenodd;"
points="31811,19795
32066,19795
32066,20212
31811,20212
31811,19795
" /> 
<polyline style="fill-rule:evenodd;"
points="29379,14173
28887,14173
28887,13582
29379,13582
29379,14173
" /> 
<polyline style="fill-rule:evenodd;"
points="29379,13188
28887,13188
28887,12598
29379,12598
29379,13188
" /> 
</g> 
</svg>
