<?xml version="1.0" standalone="no"?>
 <!DOCTYPE svg PUBLIC "-//W3C//DTD SVG 1.1//EN" 
 "http://www.w3.org/Graphics/SVG/1.1/DTD/svg11.dtd"> 
<svg xmlns="http://www.w3.org/2000/svg" version="1.1" 
    width="29.7002cm" height="21.0007cm" viewBox="0 0 116930 82680 ">
<title>SVG Picture created as stm32f030-eth-F.SilkS.svg date 2017/03/20 19:31:27 </title>
  <desc>Picture generated by PCBNEW </desc>
<g style="fill:#000000; fill-opacity:1;stroke:#000000; stroke-opacity:1;
stroke-linecap:round; stroke-linejoin:round; "
 transform="translate(0 0) scale(1 1)">
</g>
<g style="fill:#000000; fill-opacity:0.0; 
stroke:#000000; stroke-width:-0.000393701; stroke-opacity:1; 
stroke-linecap:round; stroke-linejoin:round;">
</g>
<g style="fill:#000000; fill-opacity:0.0; 
stroke:#000000; stroke-width:39.3701; stroke-opacity:1; 
stroke-linecap:round; stroke-linejoin:round;">
</g>
<g style="fill:#000000; fill-opacity:0.0; 
stroke:#000000; stroke-width:59.0551; stroke-opacity:1; 
stroke-linecap:round; stroke-linejoin:round;">
<rect x="69685.9" y="65357.2" width="42519.7" height="12598.4" rx="0" />
</g>
<g style="fill:#000000; fill-opacity:0.0; 
stroke:#000000; stroke-width:39.3701; stroke-opacity:1; 
stroke-linecap:round; stroke-linejoin:round;">
</g>
<g style="fill:#000000; fill-opacity:0.0; 
stroke:#000000; stroke-width:59.0551; stroke-opacity:1; 
stroke-linecap:round; stroke-linejoin:round;">
<rect x="3937.01" y="3937.01" width="109056" height="74806" rx="0" />
</g>
<g style="fill:#000000; fill-opacity:0.0; 
stroke:#000000; stroke-width:39.3701; stroke-opacity:1; 
stroke-linecap:round; stroke-linejoin:round;">
</g>
<g style="fill:#000000; fill-opacity:0.0; 
stroke:#000000; stroke-width:59.0551; stroke-opacity:1; 
stroke-linecap:round; stroke-linejoin:round;">
<rect x="4724.41" y="4724.41" width="107481" height="73231.2" rx="0" />
</g>
<g style="fill:#000000; fill-opacity:0.0; 
stroke:#000000; stroke-width:39.3701; stroke-opacity:1; 
stroke-linecap:round; stroke-linejoin:round;">
</g>
<g style="fill:#000000; fill-opacity:0.0; 
stroke:#000000; stroke-width:59.0551; stroke-opacity:1; 
stroke-linecap:round; stroke-linejoin:round;">
<path d="M23622 4724
L23622 3937
" />
</g>
<g style="fill:#000000; fill-opacity:0.0; 
stroke:#000000; stroke-width:39.3701; stroke-opacity:1; 
stroke-linecap:round; stroke-linejoin:round;">
</g>
<g style="fill:#000000; fill-opacity:0.0; 
stroke:#000000; stroke-width:59.0551; stroke-opacity:1; 
stroke-linecap:round; stroke-linejoin:round;">
<path d="M43307 4724
L43307 3937
" />
</g>
<g style="fill:#000000; fill-opacity:0.0; 
stroke:#000000; stroke-width:39.3701; stroke-opacity:1; 
stroke-linecap:round; stroke-linejoin:round;">
</g>
<g style="fill:#000000; fill-opacity:0.0; 
stroke:#000000; stroke-width:59.0551; stroke-opacity:1; 
stroke-linecap:round; stroke-linejoin:round;">
<path d="M62992 4724
L62992 3937
" />
</g>
<g style="fill:#000000; fill-opacity:0.0; 
stroke:#000000; stroke-width:39.3701; stroke-opacity:1; 
stroke-linecap:round; stroke-linejoin:round;">
</g>
<g style="fill:#000000; fill-opacity:0.0; 
stroke:#000000; stroke-width:59.0551; stroke-opacity:1; 
stroke-linecap:round; stroke-linejoin:round;">
<path d="M82677 4724
L82677 3937
" />
</g>
<g style="fill:#000000; fill-opacity:0.0; 
stroke:#000000; stroke-width:39.3701; stroke-opacity:1; 
stroke-linecap:round; stroke-linejoin:round;">
</g>
<g style="fill:#000000; fill-opacity:0.0; 
stroke:#000000; stroke-width:59.0551; stroke-opacity:1; 
stroke-linecap:round; stroke-linejoin:round;">
<path d="M102362 4724
L102362 3937
" />
</g>
<g style="fill:#000000; fill-opacity:0.0; 
stroke:#000000; stroke-width:39.3701; stroke-opacity:1; 
stroke-linecap:round; stroke-linejoin:round;">
</g>
<g style="fill:#000000; fill-opacity:0.0; 
stroke:#000000; stroke-width:59.0551; stroke-opacity:1; 
stroke-linecap:round; stroke-linejoin:round;">
<path d="M14169 4562
L13877 4562
" />
<path d="M14023 4562
L14023 4050
L13974 4123
L13925 4172
L13877 4196
" />
</g>
<g style="fill:#000000; fill-opacity:0.0; 
stroke:#000000; stroke-width:39.3701; stroke-opacity:1; 
stroke-linecap:round; stroke-linejoin:round;">
</g>
<g style="fill:#000000; fill-opacity:0.0; 
stroke:#000000; stroke-width:59.0551; stroke-opacity:1; 
stroke-linecap:round; stroke-linejoin:round;">
<path d="M33562 4099
L33586 4074
L33635 4050
L33757 4050
L33805 4074
L33830 4099
L33854 4147
L33854 4196
L33830 4269
L33537 4562
L33854 4562
" />
</g>
<g style="fill:#000000; fill-opacity:0.0; 
stroke:#000000; stroke-width:39.3701; stroke-opacity:1; 
stroke-linecap:round; stroke-linejoin:round;">
</g>
<g style="fill:#000000; fill-opacity:0.0; 
stroke:#000000; stroke-width:59.0551; stroke-opacity:1; 
stroke-linecap:round; stroke-linejoin:round;">
<path d="M53222 4050
L53539 4050
L53368 4245
L53442 4245
L53490 4269
L53515 4294
L53539 4342
L53539 4464
L53515 4513
L53490 4537
L53442 4562
L53295 4562
L53247 4537
L53222 4513
" />
</g>
<g style="fill:#000000; fill-opacity:0.0; 
stroke:#000000; stroke-width:39.3701; stroke-opacity:1; 
stroke-linecap:round; stroke-linejoin:round;">
</g>
<g style="fill:#000000; fill-opacity:0.0; 
stroke:#000000; stroke-width:59.0551; stroke-opacity:1; 
stroke-linecap:round; stroke-linejoin:round;">
<path d="M73175 4221
L73175 4562
" />
<path d="M73053 4026
L72932 4391
L73248 4391
" />
</g>
<g style="fill:#000000; fill-opacity:0.0; 
stroke:#000000; stroke-width:39.3701; stroke-opacity:1; 
stroke-linecap:round; stroke-linejoin:round;">
</g>
<g style="fill:#000000; fill-opacity:0.0; 
stroke:#000000; stroke-width:59.0551; stroke-opacity:1; 
stroke-linecap:round; stroke-linejoin:round;">
<path d="M92885 4050
L92641 4050
L92617 4294
L92641 4269
L92690 4245
L92812 4245
L92860 4269
L92885 4294
L92909 4342
L92909 4464
L92885 4513
L92860 4537
L92812 4562
L92690 4562
L92641 4537
L92617 4513
" />
</g>
<g style="fill:#000000; fill-opacity:0.0; 
stroke:#000000; stroke-width:39.3701; stroke-opacity:1; 
stroke-linecap:round; stroke-linejoin:round;">
</g>
<g style="fill:#000000; fill-opacity:0.0; 
stroke:#000000; stroke-width:59.0551; stroke-opacity:1; 
stroke-linecap:round; stroke-linejoin:round;">
<path d="M112545 4050
L112448 4050
L112399 4074
L112375 4099
L112326 4172
L112302 4269
L112302 4464
L112326 4513
L112350 4537
L112399 4562
L112497 4562
L112545 4537
L112570 4513
L112594 4464
L112594 4342
L112570 4294
L112545 4269
L112497 4245
L112399 4245
L112350 4269
L112326 4294
L112302 4342
" />
</g>
<g style="fill:#000000; fill-opacity:0.0; 
stroke:#000000; stroke-width:39.3701; stroke-opacity:1; 
stroke-linecap:round; stroke-linejoin:round;">
</g>
<g style="fill:#000000; fill-opacity:0.0; 
stroke:#000000; stroke-width:59.0551; stroke-opacity:1; 
stroke-linecap:round; stroke-linejoin:round;">
<path d="M23622 77955
L23622 78742
" />
</g>
<g style="fill:#000000; fill-opacity:0.0; 
stroke:#000000; stroke-width:39.3701; stroke-opacity:1; 
stroke-linecap:round; stroke-linejoin:round;">
</g>
<g style="fill:#000000; fill-opacity:0.0; 
stroke:#000000; stroke-width:59.0551; stroke-opacity:1; 
stroke-linecap:round; stroke-linejoin:round;">
<path d="M43307 77955
L43307 78742
" />
</g>
<g style="fill:#000000; fill-opacity:0.0; 
stroke:#000000; stroke-width:39.3701; stroke-opacity:1; 
stroke-linecap:round; stroke-linejoin:round;">
</g>
<g style="fill:#000000; fill-opacity:0.0; 
stroke:#000000; stroke-width:59.0551; stroke-opacity:1; 
stroke-linecap:round; stroke-linejoin:round;">
<path d="M62992 77955
L62992 78742
" />
</g>
<g style="fill:#000000; fill-opacity:0.0; 
stroke:#000000; stroke-width:39.3701; stroke-opacity:1; 
stroke-linecap:round; stroke-linejoin:round;">
</g>
<g style="fill:#000000; fill-opacity:0.0; 
stroke:#000000; stroke-width:59.0551; stroke-opacity:1; 
stroke-linecap:round; stroke-linejoin:round;">
<path d="M82677 77955
L82677 78742
" />
</g>
<g style="fill:#000000; fill-opacity:0.0; 
stroke:#000000; stroke-width:39.3701; stroke-opacity:1; 
stroke-linecap:round; stroke-linejoin:round;">
</g>
<g style="fill:#000000; fill-opacity:0.0; 
stroke:#000000; stroke-width:59.0551; stroke-opacity:1; 
stroke-linecap:round; stroke-linejoin:round;">
<path d="M102362 77955
L102362 78742
" />
</g>
<g style="fill:#000000; fill-opacity:0.0; 
stroke:#000000; stroke-width:39.3701; stroke-opacity:1; 
stroke-linecap:round; stroke-linejoin:round;">
</g>
<g style="fill:#000000; fill-opacity:0.0; 
stroke:#000000; stroke-width:59.0551; stroke-opacity:1; 
stroke-linecap:round; stroke-linejoin:round;">
<path d="M14169 78580
L13877 78580
" />
<path d="M14023 78580
L14023 78069
L13974 78142
L13925 78190
L13877 78215
" />
</g>
<g style="fill:#000000; fill-opacity:0.0; 
stroke:#000000; stroke-width:39.3701; stroke-opacity:1; 
stroke-linecap:round; stroke-linejoin:round;">
</g>
<g style="fill:#000000; fill-opacity:0.0; 
stroke:#000000; stroke-width:59.0551; stroke-opacity:1; 
stroke-linecap:round; stroke-linejoin:round;">
<path d="M33562 78117
L33586 78093
L33635 78069
L33757 78069
L33805 78093
L33830 78117
L33854 78166
L33854 78215
L33830 78288
L33537 78580
L33854 78580
" />
</g>
<g style="fill:#000000; fill-opacity:0.0; 
stroke:#000000; stroke-width:39.3701; stroke-opacity:1; 
stroke-linecap:round; stroke-linejoin:round;">
</g>
<g style="fill:#000000; fill-opacity:0.0; 
stroke:#000000; stroke-width:59.0551; stroke-opacity:1; 
stroke-linecap:round; stroke-linejoin:round;">
<path d="M53222 78069
L53539 78069
L53368 78263
L53442 78263
L53490 78288
L53515 78312
L53539 78361
L53539 78483
L53515 78532
L53490 78556
L53442 78580
L53295 78580
L53247 78556
L53222 78532
" />
</g>
<g style="fill:#000000; fill-opacity:0.0; 
stroke:#000000; stroke-width:39.3701; stroke-opacity:1; 
stroke-linecap:round; stroke-linejoin:round;">
</g>
<g style="fill:#000000; fill-opacity:0.0; 
stroke:#000000; stroke-width:59.0551; stroke-opacity:1; 
stroke-linecap:round; stroke-linejoin:round;">
<path d="M73175 78239
L73175 78580
" />
<path d="M73053 78044
L72932 78410
L73248 78410
" />
</g>
<g style="fill:#000000; fill-opacity:0.0; 
stroke:#000000; stroke-width:39.3701; stroke-opacity:1; 
stroke-linecap:round; stroke-linejoin:round;">
</g>
<g style="fill:#000000; fill-opacity:0.0; 
stroke:#000000; stroke-width:59.0551; stroke-opacity:1; 
stroke-linecap:round; stroke-linejoin:round;">
<path d="M92885 78069
L92641 78069
L92617 78312
L92641 78288
L92690 78263
L92812 78263
L92860 78288
L92885 78312
L92909 78361
L92909 78483
L92885 78532
L92860 78556
L92812 78580
L92690 78580
L92641 78556
L92617 78532
" />
</g>
<g style="fill:#000000; fill-opacity:0.0; 
stroke:#000000; stroke-width:39.3701; stroke-opacity:1; 
stroke-linecap:round; stroke-linejoin:round;">
</g>
<g style="fill:#000000; fill-opacity:0.0; 
stroke:#000000; stroke-width:59.0551; stroke-opacity:1; 
stroke-linecap:round; stroke-linejoin:round;">
<path d="M112545 78069
L112448 78069
L112399 78093
L112375 78117
L112326 78190
L112302 78288
L112302 78483
L112326 78532
L112350 78556
L112399 78580
L112497 78580
L112545 78556
L112570 78532
L112594 78483
L112594 78361
L112570 78312
L112545 78288
L112497 78263
L112399 78263
L112350 78288
L112326 78312
L112302 78361
" />
</g>
<g style="fill:#000000; fill-opacity:0.0; 
stroke:#000000; stroke-width:39.3701; stroke-opacity:1; 
stroke-linecap:round; stroke-linejoin:round;">
</g>
<g style="fill:#000000; fill-opacity:0.0; 
stroke:#000000; stroke-width:59.0551; stroke-opacity:1; 
stroke-linecap:round; stroke-linejoin:round;">
<path d="M3937 23622
L4724 23622
" />
</g>
<g style="fill:#000000; fill-opacity:0.0; 
stroke:#000000; stroke-width:39.3701; stroke-opacity:1; 
stroke-linecap:round; stroke-linejoin:round;">
</g>
<g style="fill:#000000; fill-opacity:0.0; 
stroke:#000000; stroke-width:59.0551; stroke-opacity:1; 
stroke-linecap:round; stroke-linejoin:round;">
<path d="M3937 43307
L4724 43307
" />
</g>
<g style="fill:#000000; fill-opacity:0.0; 
stroke:#000000; stroke-width:39.3701; stroke-opacity:1; 
stroke-linecap:round; stroke-linejoin:round;">
</g>
<g style="fill:#000000; fill-opacity:0.0; 
stroke:#000000; stroke-width:59.0551; stroke-opacity:1; 
stroke-linecap:round; stroke-linejoin:round;">
<path d="M3937 62992
L4724 62992
" />
</g>
<g style="fill:#000000; fill-opacity:0.0; 
stroke:#000000; stroke-width:39.3701; stroke-opacity:1; 
stroke-linecap:round; stroke-linejoin:round;">
</g>
<g style="fill:#000000; fill-opacity:0.0; 
stroke:#000000; stroke-width:59.0551; stroke-opacity:1; 
stroke-linecap:round; stroke-linejoin:round;">
<path d="M4208 13864
L4452 13864
" />
<path d="M4160 14011
L4330 13499
L4501 14011
" />
</g>
<g style="fill:#000000; fill-opacity:0.0; 
stroke:#000000; stroke-width:39.3701; stroke-opacity:1; 
stroke-linecap:round; stroke-linejoin:round;">
</g>
<g style="fill:#000000; fill-opacity:0.0; 
stroke:#000000; stroke-width:59.0551; stroke-opacity:1; 
stroke-linecap:round; stroke-linejoin:round;">
<path d="M4367 33428
L4440 33452
L4464 33476
L4489 33525
L4489 33598
L4464 33647
L4440 33671
L4391 33696
L4196 33696
L4196 33184
L4367 33184
L4416 33208
L4440 33233
L4464 33281
L4464 33330
L4440 33379
L4416 33403
L4367 33428
L4196 33428
" />
</g>
<g style="fill:#000000; fill-opacity:0.0; 
stroke:#000000; stroke-width:39.3701; stroke-opacity:1; 
stroke-linecap:round; stroke-linejoin:round;">
</g>
<g style="fill:#000000; fill-opacity:0.0; 
stroke:#000000; stroke-width:59.0551; stroke-opacity:1; 
stroke-linecap:round; stroke-linejoin:round;">
<path d="M4489 53332
L4464 53356
L4391 53381
L4342 53381
L4269 53356
L4221 53308
L4196 53259
L4172 53161
L4172 53088
L4196 52991
L4221 52942
L4269 52893
L4342 52869
L4391 52869
L4464 52893
L4489 52918
" />
</g>
<g style="fill:#000000; fill-opacity:0.0; 
stroke:#000000; stroke-width:39.3701; stroke-opacity:1; 
stroke-linecap:round; stroke-linejoin:round;">
</g>
<g style="fill:#000000; fill-opacity:0.0; 
stroke:#000000; stroke-width:59.0551; stroke-opacity:1; 
stroke-linecap:round; stroke-linejoin:round;">
<path d="M4196 73066
L4196 72554
L4318 72554
L4391 72578
L4440 72627
L4464 72676
L4489 72773
L4489 72846
L4464 72944
L4440 72993
L4391 73041
L4318 73066
L4196 73066
" />
</g>
<g style="fill:#000000; fill-opacity:0.0; 
stroke:#000000; stroke-width:39.3701; stroke-opacity:1; 
stroke-linecap:round; stroke-linejoin:round;">
</g>
<g style="fill:#000000; fill-opacity:0.0; 
stroke:#000000; stroke-width:59.0551; stroke-opacity:1; 
stroke-linecap:round; stroke-linejoin:round;">
<path d="M112992 23622
L112205 23622
" />
</g>
<g style="fill:#000000; fill-opacity:0.0; 
stroke:#000000; stroke-width:39.3701; stroke-opacity:1; 
stroke-linecap:round; stroke-linejoin:round;">
</g>
<g style="fill:#000000; fill-opacity:0.0; 
stroke:#000000; stroke-width:59.0551; stroke-opacity:1; 
stroke-linecap:round; stroke-linejoin:round;">
<path d="M112992 43307
L112205 43307
" />
</g>
<g style="fill:#000000; fill-opacity:0.0; 
stroke:#000000; stroke-width:39.3701; stroke-opacity:1; 
stroke-linecap:round; stroke-linejoin:round;">
</g>
<g style="fill:#000000; fill-opacity:0.0; 
stroke:#000000; stroke-width:59.0551; stroke-opacity:1; 
stroke-linecap:round; stroke-linejoin:round;">
<path d="M112992 62992
L112205 62992
" />
</g>
<g style="fill:#000000; fill-opacity:0.0; 
stroke:#000000; stroke-width:39.3701; stroke-opacity:1; 
stroke-linecap:round; stroke-linejoin:round;">
</g>
<g style="fill:#000000; fill-opacity:0.0; 
stroke:#000000; stroke-width:59.0551; stroke-opacity:1; 
stroke-linecap:round; stroke-linejoin:round;">
<path d="M112477 13864
L112721 13864
" />
<path d="M112428 14011
L112599 13499
L112769 14011
" />
</g>
<g style="fill:#000000; fill-opacity:0.0; 
stroke:#000000; stroke-width:39.3701; stroke-opacity:1; 
stroke-linecap:round; stroke-linejoin:round;">
</g>
<g style="fill:#000000; fill-opacity:0.0; 
stroke:#000000; stroke-width:59.0551; stroke-opacity:1; 
stroke-linecap:round; stroke-linejoin:round;">
<path d="M112635 33428
L112708 33452
L112733 33476
L112757 33525
L112757 33598
L112733 33647
L112708 33671
L112660 33696
L112465 33696
L112465 33184
L112635 33184
L112684 33208
L112708 33233
L112733 33281
L112733 33330
L112708 33379
L112684 33403
L112635 33428
L112465 33428
" />
</g>
<g style="fill:#000000; fill-opacity:0.0; 
stroke:#000000; stroke-width:39.3701; stroke-opacity:1; 
stroke-linecap:round; stroke-linejoin:round;">
</g>
<g style="fill:#000000; fill-opacity:0.0; 
stroke:#000000; stroke-width:59.0551; stroke-opacity:1; 
stroke-linecap:round; stroke-linejoin:round;">
<path d="M112757 53332
L112733 53356
L112660 53381
L112611 53381
L112538 53356
L112489 53308
L112465 53259
L112440 53161
L112440 53088
L112465 52991
L112489 52942
L112538 52893
L112611 52869
L112660 52869
L112733 52893
L112757 52918
" />
</g>
<g style="fill:#000000; fill-opacity:0.0; 
stroke:#000000; stroke-width:39.3701; stroke-opacity:1; 
stroke-linecap:round; stroke-linejoin:round;">
</g>
<g style="fill:#000000; fill-opacity:0.0; 
stroke:#000000; stroke-width:59.0551; stroke-opacity:1; 
stroke-linecap:round; stroke-linejoin:round;">
<path d="M112465 73066
L112465 72554
L112587 72554
L112660 72578
L112708 72627
L112733 72676
L112757 72773
L112757 72846
L112733 72944
L112708 72993
L112660 73041
L112587 73066
L112465 73066
" />
</g>
<g style="fill:#000000; fill-opacity:0.0; 
stroke:#000000; stroke-width:39.3701; stroke-opacity:1; 
stroke-linecap:round; stroke-linejoin:round;">
</g>
<g style="fill:#000000; fill-opacity:0.0; 
stroke:#000000; stroke-width:59.0551; stroke-opacity:1; 
stroke-linecap:round; stroke-linejoin:round;">
<path d="M78881 76293
L78881 75703
L79022 75703
L79106 75731
L79162 75787
L79190 75843
L79219 75956
L79219 76040
L79190 76153
L79162 76209
L79106 76265
L79022 76293
L78881 76293
" />
<path d="M79725 76293
L79725 75984
L79697 75928
L79640 75899
L79528 75899
L79472 75928
" />
<path d="M79725 76265
L79669 76293
L79528 76293
L79472 76265
L79444 76209
L79444 76153
L79472 76096
L79528 76068
L79669 76068
L79725 76040
" />
<path d="M79922 75899
L80147 75899
" />
<path d="M80006 75703
L80006 76209
L80034 76265
L80090 76293
L80147 76293
" />
<path d="M80568 76265
L80512 76293
L80400 76293
L80343 76265
L80315 76209
L80315 75984
L80343 75928
L80400 75899
L80512 75899
L80568 75928
L80597 75984
L80597 76040
L80315 76096
" />
<path d="M80850 76237
L80878 76265
L80850 76293
L80822 76265
L80850 76237
L80850 76293
" />
<path d="M80850 75928
L80878 75956
L80850 75984
L80822 75956
L80850 75928
L80850 75984
" />
</g>
<g style="fill:#000000; fill-opacity:0.0; 
stroke:#000000; stroke-width:39.3701; stroke-opacity:1; 
stroke-linecap:round; stroke-linejoin:round;">
</g>
<g style="fill:#000000; fill-opacity:0.0; 
stroke:#000000; stroke-width:59.0551; stroke-opacity:1; 
stroke-linecap:round; stroke-linejoin:round;">
<path d="M69685 76577
L112205 76577
" />
</g>
<g style="fill:#000000; fill-opacity:0.0; 
stroke:#000000; stroke-width:39.3701; stroke-opacity:1; 
stroke-linecap:round; stroke-linejoin:round;">
</g>
<g style="fill:#000000; fill-opacity:0.0; 
stroke:#000000; stroke-width:59.0551; stroke-opacity:1; 
stroke-linecap:round; stroke-linejoin:round;">
<path d="M70220 77395
L70220 76805
" />
<path d="M70557 77395
L70304 77058
" />
<path d="M70557 76805
L70220 77142
" />
<path d="M70810 77395
L70810 77002
" />
<path d="M70810 76805
L70782 76833
L70810 76861
L70838 76833
L70810 76805
L70810 76861
" />
<path d="M71429 77339
L71401 77367
L71316 77395
L71260 77395
L71176 77367
L71120 77311
L71091 77255
L71063 77142
L71063 77058
L71091 76946
L71120 76889
L71176 76833
L71260 76805
L71316 76805
L71401 76833
L71429 76861
" />
<path d="M71935 77395
L71935 77086
L71907 77030
L71851 77002
L71738 77002
L71682 77030
" />
<path d="M71935 77367
L71879 77395
L71738 77395
L71682 77367
L71654 77311
L71654 77255
L71682 77199
L71738 77171
L71879 77171
L71935 77142
" />
<path d="M72469 77395
L72469 76805
" />
<path d="M72469 77367
L72413 77395
L72301 77395
L72244 77367
L72216 77339
L72188 77283
L72188 77114
L72216 77058
L72244 77030
L72301 77002
L72413 77002
L72469 77030
" />
<path d="M73201 77086
L73397 77086
" />
<path d="M73482 77395
L73201 77395
L73201 76805
L73482 76805
" />
<path d="M73735 77339
L73763 77367
L73735 77395
L73707 77367
L73735 77339
L73735 77395
" />
<path d="M74016 77395
L74016 76805
L74157 76805
L74241 76833
L74297 76889
L74325 76946
L74354 77058
L74354 77142
L74325 77255
L74297 77311
L74241 77367
L74157 77395
L74016 77395
" />
<path d="M74607 77339
L74635 77367
L74607 77395
L74579 77367
L74607 77339
L74607 77395
" />
<path d="M74860 77227
L75141 77227
" />
<path d="M74804 77395
L75000 76805
L75197 77395
" />
<path d="M75394 77339
L75422 77367
L75394 77395
L75366 77367
L75394 77339
L75394 77395
" />
<path d="M76575 77395
L76575 76805
" />
<path d="M76631 77171
L76800 77395
" />
<path d="M76800 77002
L76575 77227
" />
<path d="M77053 77395
L77053 77002
" />
<path d="M77053 76805
L77025 76833
L77053 76861
L77081 76833
L77053 76805
L77053 76861
" />
<path d="M77588 77367
L77531 77395
L77419 77395
L77363 77367
L77334 77339
L77306 77283
L77306 77114
L77334 77058
L77363 77030
L77419 77002
L77531 77002
L77588 77030
" />
<path d="M78094 77395
L78094 77086
L78066 77030
L78009 77002
L77897 77002
L77841 77030
" />
<path d="M78094 77367
L78037 77395
L77897 77395
L77841 77367
L77813 77311
L77813 77255
L77841 77199
L77897 77171
L78037 77171
L78094 77142
" />
<path d="M78628 77395
L78628 76805
" />
<path d="M78628 77367
L78572 77395
L78459 77395
L78403 77367
L78375 77339
L78347 77283
L78347 77114
L78375 77058
L78403 77030
L78459 77002
L78572 77002
L78628 77030
" />
<path d="M79612 77002
L79612 77395
" />
<path d="M79472 76777
L79331 77199
L79697 77199
" />
<path d="M79922 77339
L79950 77367
L79922 77395
L79894 77367
L79922 77339
L79922 77395
" />
<path d="M80315 76805
L80372 76805
L80428 76833
L80456 76861
L80484 76917
L80512 77030
L80512 77171
L80484 77283
L80456 77339
L80428 77367
L80372 77395
L80315 77395
L80259 77367
L80231 77339
L80203 77283
L80175 77171
L80175 77030
L80203 76917
L80231 76861
L80259 76833
L80315 76805
" />
<path d="M80765 77339
L80793 77367
L80765 77395
L80737 77367
L80765 77339
L80765 77395
" />
<path d="M81300 76805
L81187 76805
L81131 76833
L81103 76861
L81046 76946
L81018 77058
L81018 77283
L81046 77339
L81075 77367
L81131 77395
L81243 77395
L81300 77367
L81328 77339
L81356 77283
L81356 77142
L81328 77086
L81300 77058
L81243 77030
L81131 77030
L81075 77058
L81046 77086
L81018 77142
" />
<path d="M81609 77171
L82059 77171
" />
<path d="M82565 77367
L82509 77395
L82396 77395
L82340 77367
L82312 77311
L82312 77086
L82340 77030
L82396 77002
L82509 77002
L82565 77030
L82593 77086
L82593 77142
L82312 77199
" />
<path d="M82959 76805
L83015 76805
L83071 76833
L83099 76861
L83127 76917
L83156 77030
L83156 77171
L83127 77283
L83099 77339
L83071 77367
L83015 77395
L82959 77395
L82903 77367
L82874 77339
L82846 77283
L82818 77171
L82818 77030
L82846 76917
L82874 76861
L82903 76833
L82959 76805
" />
<path d="M83409 77171
L83859 77171
" />
<path d="M84393 76805
L84280 76805
L84224 76833
L84196 76861
L84140 76946
L84112 77058
L84112 77283
L84140 77339
L84168 77367
L84224 77395
L84337 77395
L84393 77367
L84421 77339
L84449 77283
L84449 77142
L84421 77086
L84393 77058
L84337 77030
L84224 77030
L84168 77058
L84140 77086
L84112 77142
" />
<path d="M84646 76805
L85012 76805
L84815 77030
L84899 77030
L84955 77058
L84983 77086
L85012 77142
L85012 77283
L84983 77339
L84955 77367
L84899 77395
L84730 77395
L84674 77367
L84646 77339
" />
<path d="M85518 77002
L85518 77395
" />
<path d="M85377 76777
L85237 77199
L85602 77199
" />
<path d="M85855 77395
L85968 77395
L86024 77367
L86052 77339
L86108 77255
L86136 77142
L86136 76917
L86108 76861
L86080 76833
L86024 76805
L85912 76805
L85855 76833
L85827 76861
L85799 76917
L85799 77058
L85827 77114
L85855 77142
L85912 77171
L86024 77171
L86080 77142
L86108 77114
L86136 77058
" />
<path d="M86671 76805
L86390 76805
L86361 77086
L86390 77058
L86446 77030
L86586 77030
L86643 77058
L86671 77086
L86699 77142
L86699 77283
L86671 77339
L86643 77367
L86586 77395
L86446 77395
L86390 77367
L86361 77339
" />
<path d="M86896 76805
L87261 76805
L87064 77030
L87149 77030
L87205 77058
L87233 77086
L87261 77142
L87261 77283
L87233 77339
L87205 77367
L87149 77395
L86980 77395
L86924 77367
L86896 77339
" />
<path d="M86249 76703
L87374 76703
" />
<path d="M87768 77002
L87768 77395
" />
<path d="M87514 77002
L87514 77311
L87543 77367
L87599 77395
L87683 77395
L87739 77367
L87768 77339
" />
<path d="M88049 77395
L88049 76805
" />
<path d="M88049 77030
L88105 77002
L88217 77002
L88274 77030
L88302 77058
L88330 77114
L88330 77283
L88302 77339
L88274 77367
L88217 77395
L88105 77395
L88049 77367
" />
<path d="M88836 77002
L88836 77395
" />
<path d="M88583 77002
L88583 77311
L88611 77367
L88667 77395
L88752 77395
L88808 77367
L88836 77339
" />
<path d="M89117 77002
L89117 77395
" />
<path d="M89117 77058
L89145 77030
L89202 77002
L89286 77002
L89342 77030
L89370 77086
L89370 77395
" />
<path d="M89567 77002
L89792 77002
" />
<path d="M89652 76805
L89652 77311
L89680 77367
L89736 77395
L89792 77395
" />
<path d="M90242 77002
L90242 77395
" />
<path d="M89989 77002
L89989 77311
L90017 77367
L90073 77395
L90158 77395
L90214 77367
L90242 77339
" />
<path d="M90833 77395
L90495 77395
" />
<path d="M90664 77395
L90664 76805
L90608 76889
L90552 76946
L90495 76974
" />
<path d="M91339 76805
L91226 76805
L91170 76833
L91142 76861
L91086 76946
L91058 77058
L91058 77283
L91086 77339
L91114 77367
L91170 77395
L91283 77395
L91339 77367
L91367 77339
L91395 77283
L91395 77142
L91367 77086
L91339 77058
L91283 77030
L91170 77030
L91114 77058
L91086 77086
L91058 77142
" />
<path d="M91648 77339
L91676 77367
L91648 77395
L91620 77367
L91648 77339
L91648 77395
" />
<path d="M92042 76805
L92098 76805
L92154 76833
L92183 76861
L92211 76917
L92239 77030
L92239 77171
L92211 77283
L92183 77339
L92154 77367
L92098 77395
L92042 77395
L91986 77367
L91958 77339
L91929 77283
L91901 77171
L91901 77030
L91929 76917
L91958 76861
L91986 76833
L92042 76805
" />
<path d="M92745 77002
L92745 77395
" />
<path d="M92604 76777
L92464 77199
L92829 77199
" />
<path d="M93054 77339
L93082 77367
L93054 77395
L93026 77367
L93054 77339
L93054 77395
" />
<path d="M93645 77395
L93307 77395
" />
<path d="M93476 77395
L93476 76805
L93420 76889
L93364 76946
L93307 76974
" />
</g>
<g style="fill:#000000; fill-opacity:0.0; 
stroke:#000000; stroke-width:39.3701; stroke-opacity:1; 
stroke-linecap:round; stroke-linejoin:round;">
</g>
<g style="fill:#000000; fill-opacity:0.0; 
stroke:#000000; stroke-width:59.0551; stroke-opacity:1; 
stroke-linecap:round; stroke-linejoin:round;">
<path d="M69685 75396
L112205 75396
" />
</g>
<g style="fill:#000000; fill-opacity:0.0; 
stroke:#000000; stroke-width:39.3701; stroke-opacity:1; 
stroke-linecap:round; stroke-linejoin:round;">
</g>
<g style="fill:#000000; fill-opacity:0.0; 
stroke:#000000; stroke-width:118.11; stroke-opacity:1; 
stroke-linecap:round; stroke-linejoin:round;">
<path d="M104022 76293
L103825 76012
" />
<path d="M103684 76293
L103684 75703
L103909 75703
L103965 75731
L103994 75759
L104022 75815
L104022 75899
L103994 75956
L103965 75984
L103909 76012
L103684 76012
" />
<path d="M104500 76265
L104444 76293
L104331 76293
L104275 76265
L104247 76209
L104247 75984
L104275 75928
L104331 75899
L104444 75899
L104500 75928
L104528 75984
L104528 76040
L104247 76096
" />
<path d="M104725 75899
L104865 76293
L105006 75899
" />
<path d="M105231 76237
L105259 76265
L105231 76293
L105203 76265
L105231 76237
L105231 76293
" />
<path d="M105231 75928
L105259 75956
L105231 75984
L105203 75956
L105231 75928
L105231 75984
" />
</g>
<g style="fill:#000000; fill-opacity:0.0; 
stroke:#000000; stroke-width:39.3701; stroke-opacity:1; 
stroke-linecap:round; stroke-linejoin:round;">
</g>
<g style="fill:#000000; fill-opacity:0.0; 
stroke:#000000; stroke-width:59.0551; stroke-opacity:1; 
stroke-linecap:round; stroke-linejoin:round;">
<path d="M70192 76265
L70276 76293
L70417 76293
L70473 76265
L70501 76237
L70529 76181
L70529 76124
L70501 76068
L70473 76040
L70417 76012
L70304 75984
L70248 75956
L70220 75928
L70192 75871
L70192 75815
L70220 75759
L70248 75731
L70304 75703
L70445 75703
L70529 75731
" />
<path d="M70782 76293
L70782 75899
" />
<path d="M70782 75703
L70754 75731
L70782 75759
L70810 75731
L70782 75703
L70782 75759
" />
<path d="M71007 75899
L71316 75899
L71007 76293
L71316 76293
" />
<path d="M71766 76265
L71710 76293
L71598 76293
L71541 76265
L71513 76209
L71513 75984
L71541 75928
L71598 75899
L71710 75899
L71766 75928
L71795 75984
L71795 76040
L71513 76096
" />
<path d="M72048 76237
L72076 76265
L72048 76293
L72019 76265
L72048 76237
L72048 76293
" />
<path d="M72048 75928
L72076 75956
L72048 75984
L72019 75956
L72048 75928
L72048 75984
" />
<path d="M72751 76124
L73032 76124
" />
<path d="M72694 76293
L72891 75703
L73088 76293
" />
<path d="M73538 75899
L73538 76293
" />
<path d="M73397 75674
L73257 76096
L73622 76096
" />
</g>
<g style="fill:#000000; fill-opacity:0.0; 
stroke:#000000; stroke-width:39.3701; stroke-opacity:1; 
stroke-linecap:round; stroke-linejoin:round;">
</g>
<g style="fill:#000000; fill-opacity:0.0; 
stroke:#000000; stroke-width:59.0551; stroke-opacity:1; 
stroke-linecap:round; stroke-linejoin:round;">
<path d="M103684 77395
L103684 76805
" />
<path d="M104219 77395
L104219 76805
" />
<path d="M104219 77367
L104162 77395
L104050 77395
L103994 77367
L103965 77339
L103937 77283
L103937 77114
L103965 77058
L103994 77030
L104050 77002
L104162 77002
L104219 77030
" />
<path d="M104500 77339
L104528 77367
L104500 77395
L104472 77367
L104500 77339
L104500 77395
" />
<path d="M104500 77030
L104528 77058
L104500 77086
L104472 77058
L104500 77030
L104500 77086
" />
<path d="M105540 77395
L105203 77395
" />
<path d="M105372 77395
L105372 76805
L105315 76889
L105259 76946
L105203 76974
" />
<path d="M106215 76777
L105709 77536
" />
<path d="M106721 77395
L106384 77395
" />
<path d="M106553 77395
L106553 76805
L106496 76889
L106440 76946
L106384 76974
" />
</g>
<g style="fill:#000000; fill-opacity:0.0; 
stroke:#000000; stroke-width:39.3701; stroke-opacity:1; 
stroke-linecap:round; stroke-linejoin:round;">
</g>
<g style="fill:#000000; fill-opacity:0.0; 
stroke:#000000; stroke-width:59.0551; stroke-opacity:1; 
stroke-linecap:round; stroke-linejoin:round;">
<path d="M69685 73821
L112205 73821
" />
</g>
<g style="fill:#000000; fill-opacity:0.0; 
stroke:#000000; stroke-width:39.3701; stroke-opacity:1; 
stroke-linecap:round; stroke-linejoin:round;">
</g>
<g style="fill:#000000; fill-opacity:0.0; 
stroke:#000000; stroke-width:157.48; stroke-opacity:1; 
stroke-linecap:round; stroke-linejoin:round;">
<path d="M70257 74099
L70707 74099
" />
<path d="M70384 74886
L70482 74099
" />
<path d="M70871 74886
L70937 74361
" />
<path d="M70970 74099
L70927 74136
L70960 74174
L71002 74136
L70970 74099
L70960 74174
" />
<path d="M71199 74361
L71499 74361
" />
<path d="M71345 74099
L71260 74774
L71288 74849
L71359 74886
L71434 74886
" />
<path d="M71809 74886
L71738 74849
L71710 74774
L71795 74099
" />
<path d="M72413 74849
L72334 74886
L72184 74886
L72113 74849
L72085 74774
L72123 74474
L72169 74399
L72249 74361
L72399 74361
L72469 74399
L72498 74474
L72488 74549
L72104 74624
" />
<path d="M72793 74811
L72826 74849
L72783 74886
L72751 74849
L72793 74811
L72783 74886
" />
<path d="M72844 74399
L72877 74436
L72835 74474
L72802 74436
L72844 74399
L72835 74474
" />
</g>
<g style="fill:#000000; fill-opacity:0.0; 
stroke:#000000; stroke-width:39.3701; stroke-opacity:1; 
stroke-linecap:round; stroke-linejoin:round;">
</g>
<g style="fill:#000000; fill-opacity:0.0; 
stroke:#000000; stroke-width:59.0551; stroke-opacity:1; 
stroke-linecap:round; stroke-linejoin:round;">
<path d="M70417 73070
L70220 73070
" />
<path d="M70220 73380
L70220 72789
L70501 72789
" />
<path d="M70726 73380
L70726 72986
" />
<path d="M70726 72789
L70698 72817
L70726 72845
L70754 72817
L70726 72789
L70726 72845
" />
<path d="M71091 73380
L71035 73352
L71007 73295
L71007 72789
" />
<path d="M71541 73352
L71485 73380
L71373 73380
L71316 73352
L71288 73295
L71288 73070
L71316 73014
L71373 72986
L71485 72986
L71541 73014
L71570 73070
L71570 73127
L71288 73183
" />
<path d="M71823 73323
L71851 73352
L71823 73380
L71795 73352
L71823 73323
L71823 73380
" />
<path d="M71823 73014
L71851 73042
L71823 73070
L71795 73042
L71823 73014
L71823 73070
" />
<path d="M72526 73352
L72582 73380
L72694 73380
L72751 73352
L72779 73295
L72779 73267
L72751 73211
L72694 73183
L72610 73183
L72554 73155
L72526 73099
L72526 73070
L72554 73014
L72610 72986
L72694 72986
L72751 73014
" />
<path d="M72947 72986
L73172 72986
" />
<path d="M73032 72789
L73032 73295
L73060 73352
L73116 73380
L73172 73380
" />
<path d="M73369 73380
L73369 72986
" />
<path d="M73369 73042
L73397 73014
L73454 72986
L73538 72986
L73594 73014
L73622 73070
L73622 73380
" />
<path d="M73622 73070
L73651 73014
L73707 72986
L73791 72986
L73847 73014
L73876 73070
L73876 73380
" />
<path d="M74100 72789
L74466 72789
L74269 73014
L74354 73014
L74410 73042
L74438 73070
L74466 73127
L74466 73267
L74438 73323
L74410 73352
L74354 73380
L74185 73380
L74129 73352
L74100 73323
" />
<path d="M74691 72845
L74719 72817
L74775 72789
L74916 72789
L74972 72817
L75000 72845
L75028 72902
L75028 72958
L75000 73042
L74663 73380
L75028 73380
" />
<path d="M75197 72986
L75422 72986
" />
<path d="M75282 73380
L75282 72874
L75310 72817
L75366 72789
L75422 72789
" />
<path d="M75732 72789
L75788 72789
L75844 72817
L75872 72845
L75900 72902
L75928 73014
L75928 73155
L75900 73267
L75872 73323
L75844 73352
L75788 73380
L75732 73380
L75675 73352
L75647 73323
L75619 73267
L75591 73155
L75591 73014
L75619 72902
L75647 72845
L75675 72817
L75732 72789
" />
<path d="M76125 72789
L76491 72789
L76294 73014
L76378 73014
L76435 73042
L76463 73070
L76491 73127
L76491 73267
L76463 73323
L76435 73352
L76378 73380
L76210 73380
L76153 73352
L76125 73323
" />
<path d="M76856 72789
L76913 72789
L76969 72817
L76997 72845
L77025 72902
L77053 73014
L77053 73155
L77025 73267
L76997 73323
L76969 73352
L76913 73380
L76856 73380
L76800 73352
L76772 73323
L76744 73267
L76716 73155
L76716 73014
L76744 72902
L76772 72845
L76800 72817
L76856 72789
" />
<path d="M77306 73155
L77756 73155
" />
<path d="M78262 73352
L78206 73380
L78094 73380
L78037 73352
L78009 73295
L78009 73070
L78037 73014
L78094 72986
L78206 72986
L78262 73014
L78291 73070
L78291 73127
L78009 73183
" />
<path d="M78459 72986
L78684 72986
" />
<path d="M78544 72789
L78544 73295
L78572 73352
L78628 73380
L78684 73380
" />
<path d="M78881 73380
L78881 72789
" />
<path d="M79134 73380
L79134 73070
L79106 73014
L79050 72986
L78965 72986
L78909 73014
L78881 73042
" />
<path d="M79415 73323
L79444 73352
L79415 73380
L79387 73352
L79415 73323
L79415 73380
" />
<path d="M79697 73380
L79697 72789
" />
<path d="M79753 73155
L79922 73380
" />
<path d="M79922 72986
L79697 73211
" />
<path d="M80175 73380
L80175 72986
" />
<path d="M80175 72789
L80147 72817
L80175 72845
L80203 72817
L80175 72789
L80175 72845
" />
<path d="M80709 73352
L80653 73380
L80540 73380
L80484 73352
L80456 73323
L80428 73267
L80428 73099
L80456 73042
L80484 73014
L80540 72986
L80653 72986
L80709 73014
" />
<path d="M81215 73380
L81215 73070
L81187 73014
L81131 72986
L81018 72986
L80962 73014
" />
<path d="M81215 73352
L81159 73380
L81018 73380
L80962 73352
L80934 73295
L80934 73239
L80962 73183
L81018 73155
L81159 73155
L81215 73127
" />
<path d="M81750 73380
L81750 72789
" />
<path d="M81750 73352
L81693 73380
L81581 73380
L81525 73352
L81496 73323
L81468 73267
L81468 73099
L81496 73042
L81525 73014
L81581 72986
L81693 72986
L81750 73014
" />
<path d="M81890 73436
L82340 73436
" />
<path d="M82481 72986
L82481 73577
" />
<path d="M82481 73014
L82537 72986
L82649 72986
L82706 73014
L82734 73042
L82762 73099
L82762 73267
L82734 73323
L82706 73352
L82649 73380
L82537 73380
L82481 73352
" />
<path d="M83268 73352
L83212 73380
L83099 73380
L83043 73352
L83015 73323
L82987 73267
L82987 73099
L83015 73042
L83043 73014
L83099 72986
L83212 72986
L83268 73014
" />
<path d="M83521 73380
L83521 72789
" />
<path d="M83521 73014
L83577 72986
L83690 72986
L83746 73014
L83774 73042
L83802 73099
L83802 73267
L83774 73323
L83746 73352
L83690 73380
L83577 73380
L83521 73352
" />
</g>
<g style="fill:#000000; fill-opacity:0.0; 
stroke:#000000; stroke-width:39.3701; stroke-opacity:1; 
stroke-linecap:round; stroke-linejoin:round;">
</g>
<g style="fill:#000000; fill-opacity:0.0; 
stroke:#000000; stroke-width:59.0551; stroke-opacity:1; 
stroke-linecap:round; stroke-linejoin:round;">
<path d="M69685 71459
L112205 71459
" />
</g>
<g style="fill:#000000; fill-opacity:0.0; 
stroke:#000000; stroke-width:39.3701; stroke-opacity:1; 
stroke-linecap:round; stroke-linejoin:round;">
</g>
<g style="fill:#000000; fill-opacity:0.0; 
stroke:#000000; stroke-width:59.0551; stroke-opacity:1; 
stroke-linecap:round; stroke-linejoin:round;">
<path d="M70192 72289
L70276 72317
L70417 72317
L70473 72289
L70501 72260
L70529 72204
L70529 72148
L70501 72092
L70473 72064
L70417 72036
L70304 72007
L70248 71979
L70220 71951
L70192 71895
L70192 71839
L70220 71782
L70248 71754
L70304 71726
L70445 71726
L70529 71754
" />
<path d="M70782 72317
L70782 71726
" />
<path d="M71035 72317
L71035 72007
L71007 71951
L70951 71923
L70867 71923
L70810 71951
L70782 71979
" />
<path d="M71541 72289
L71485 72317
L71373 72317
L71316 72289
L71288 72232
L71288 72007
L71316 71951
L71373 71923
L71485 71923
L71541 71951
L71570 72007
L71570 72064
L71288 72120
" />
<path d="M72048 72289
L71991 72317
L71879 72317
L71823 72289
L71795 72232
L71795 72007
L71823 71951
L71879 71923
L71991 71923
L72048 71951
L72076 72007
L72076 72064
L71795 72120
" />
<path d="M72244 71923
L72469 71923
" />
<path d="M72329 71726
L72329 72232
L72357 72289
L72413 72317
L72469 72317
" />
<path d="M72666 72260
L72694 72289
L72666 72317
L72638 72289
L72666 72260
L72666 72317
" />
<path d="M72666 71951
L72694 71979
L72666 72007
L72638 71979
L72666 71951
L72666 72007
" />
</g>
<g style="fill:#000000; fill-opacity:0.0; 
stroke:#000000; stroke-width:39.3701; stroke-opacity:1; 
stroke-linecap:round; stroke-linejoin:round;">
</g>
<g style="fill:#000000; fill-opacity:0.0; 
stroke:#000000; stroke-width:59.0551; stroke-opacity:1; 
stroke-linecap:round; stroke-linejoin:round;">
<path d="M77559 75396
L77559 76577
" />
</g>
<g style="fill:#000000; fill-opacity:0.0; 
stroke:#000000; stroke-width:39.3701; stroke-opacity:1; 
stroke-linecap:round; stroke-linejoin:round;">
</g>
<g style="fill:#000000; fill-opacity:0.0; 
stroke:#000000; stroke-width:59.0551; stroke-opacity:1; 
stroke-linecap:round; stroke-linejoin:round;">
<path d="M102756 75396
L102756 77955
" />
</g>
<g style="fill:#008484; fill-opacity:0.0; 
stroke:#008484; stroke-width:59.0551; stroke-opacity:1; 
stroke-linecap:round; stroke-linejoin:round;">
</g>
<g style="fill:#008484; fill-opacity:0.0; 
stroke:#008484; stroke-width:118.11; stroke-opacity:1; 
stroke-linecap:round; stroke-linejoin:round;">
<path d="M27587 16774
L27671 16802
L27812 16802
L27868 16774
L27896 16746
L27924 16690
L27924 16633
L27896 16577
L27868 16549
L27812 16521
L27699 16493
L27643 16465
L27615 16437
L27587 16380
L27587 16324
L27615 16268
L27643 16240
L27699 16212
L27840 16212
L27924 16240
" />
<path d="M28177 16802
L28177 16212
L28402 16212
L28458 16240
L28487 16268
L28515 16324
L28515 16408
L28487 16465
L28458 16493
L28402 16521
L28177 16521
" />
<path d="M28768 16802
L28768 16212
L28908 16212
L28993 16240
L29049 16296
L29077 16352
L29105 16465
L29105 16549
L29077 16661
L29049 16718
L28993 16774
L28908 16802
L28768 16802
" />
<path d="M23354 16802
L23354 16212
L23495 16212
L23579 16240
L23636 16296
L23664 16352
L23692 16465
L23692 16549
L23664 16661
L23636 16718
L23579 16774
L23495 16802
L23354 16802
" />
<path d="M23945 16212
L23945 16690
L23973 16746
L24001 16774
L24057 16802
L24170 16802
L24226 16774
L24254 16746
L24282 16690
L24282 16212
" />
<path d="M24564 16802
L24564 16212
L24789 16212
L24845 16240
L24873 16268
L24901 16324
L24901 16408
L24873 16465
L24845 16493
L24789 16521
L24564 16521
" />
<path d="M17224 27123
L17196 27179
L17196 27263
L17224 27348
L17280 27404
L17336 27432
L17449 27460
L17533 27460
L17646 27432
L17702 27404
L17758 27348
L17786 27263
L17786 27207
L17758 27123
L17730 27095
L17533 27095
L17533 27207
" />
<path d="M17786 26841
L17196 26841
L17786 26504
L17196 26504
" />
<path d="M17786 26223
L17196 26223
L17196 26082
L17224 25998
L17280 25942
L17336 25913
L17449 25885
L17533 25885
L17646 25913
L17702 25942
L17758 25998
L17786 26082
L17786 26223
" />
<path d="M16212 27404
L16802 27207
L16212 27010
" />
<path d="M16802 26560
L16212 26560
" />
<path d="M16774 26560
L16802 26616
L16802 26729
L16774 26785
L16746 26813
L16690 26841
L16521 26841
L16465 26813
L16437 26785
L16408 26729
L16408 26616
L16437 26560
" />
<path d="M16802 26026
L16212 26026
" />
<path d="M16774 26026
L16802 26082
L16802 26195
L16774 26251
L16746 26279
L16690 26307
L16521 26307
L16465 26279
L16437 26251
L16408 26195
L16408 26082
L16437 26026
" />
<path d="M14313 28149
L14257 28121
L14173 28121
L14088 28149
L14032 28205
L14004 28262
L13976 28374
L13976 28458
L14004 28571
L14032 28627
L14088 28683
L14173 28712
L14229 28712
L14313 28683
L14341 28655
L14341 28458
L14229 28458
" />
<path d="M14595 28712
L14595 28121
L14932 28712
L14932 28121
" />
<path d="M15213 28712
L15213 28121
L15354 28121
L15438 28149
L15494 28205
L15523 28262
L15551 28374
L15551 28458
L15523 28571
L15494 28627
L15438 28683
L15354 28712
L15213 28712
" />
<path d="M14243 27530
L13906 27530
" />
<path d="M14074 27530
L14074 26940
L14018 27024
L13962 27080
L13906 27109
" />
<path d="M14468 26996
L14496 26968
L14552 26940
L14693 26940
L14749 26968
L14777 26996
L14805 27052
L14805 27109
L14777 27193
L14440 27530
L14805 27530
" />
<path d="M14974 26940
L15171 27530
L15368 26940
" />
<path d="M15537 27362
L15818 27362
" />
<path d="M15480 27530
L15677 26940
L15874 27530
" />
<path d="M14412 25688
L14356 25660
L14271 25660
L14187 25688
L14131 25745
L14102 25801
L14074 25913
L14074 25998
L14102 26110
L14131 26167
L14187 26223
L14271 26251
L14327 26251
L14412 26223
L14440 26195
L14440 25998
L14327 25998
" />
<path d="M14693 26251
L14693 25660
L15030 26251
L15030 25660
" />
<path d="M15312 26251
L15312 25660
L15452 25660
L15537 25688
L15593 25745
L15621 25801
L15649 25913
L15649 25998
L15621 26110
L15593 26167
L15537 26223
L15452 26251
L15312 26251
" />
<path d="M14102 25070
L13765 25070
" />
<path d="M13934 25070
L13934 24479
L13877 24564
L13821 24620
L13765 24648
" />
<path d="M14327 24535
L14356 24507
L14412 24479
L14552 24479
L14609 24507
L14637 24535
L14665 24592
L14665 24648
L14637 24732
L14299 25070
L14665 25070
" />
<path d="M14834 24479
L15030 25070
L15227 24479
" />
<path d="M15424 25070
L15424 24479
L15565 24479
L15649 24507
L15705 24564
L15733 24620
L15762 24732
L15762 24817
L15733 24929
L15705 24985
L15649 25042
L15565 25070
L15424 25070
" />
<path d="M33633 25295
L33042 25295
L33042 25070
L33070 25014
L33098 24985
L33155 24957
L33239 24957
L33295 24985
L33323 25014
L33352 25070
L33352 25295
" />
<path d="M33464 24732
L33464 24451
" />
<path d="M33633 24789
L33042 24592
L33633 24395
" />
<path d="M33042 23917
L33042 24198
L33323 24226
L33295 24198
L33267 24142
L33267 24001
L33295 23945
L33323 23917
L33380 23889
L33520 23889
L33577 23917
L33605 23945
L33633 24001
L33633 24142
L33605 24198
L33577 24226
" />
<path d="M33633 22440
L33042 22440
L33042 22215
L33070 22159
L33098 22131
L33155 22103
L33239 22103
L33295 22131
L33323 22159
L33352 22215
L33352 22440
" />
<path d="M33464 21878
L33464 21597
" />
<path d="M33633 21934
L33042 21737
L33633 21541
" />
<path d="M33239 21091
L33633 21091
" />
<path d="M33014 21231
L33436 21372
L33436 21006
" />
<path d="M33633 19291
L33042 19291
L33042 19066
L33070 19010
L33098 18982
L33155 18953
L33239 18953
L33295 18982
L33323 19010
L33352 19066
L33352 19291
" />
<path d="M33464 18728
L33464 18447
" />
<path d="M33633 18785
L33042 18588
L33633 18391
" />
<path d="M33042 18250
L33042 17885
L33267 18082
L33267 17997
L33295 17941
L33323 17913
L33380 17885
L33520 17885
L33577 17913
L33605 17941
L33633 17997
L33633 18166
L33605 18222
L33577 18250
" />
<path d="M33633 16043
L33042 16043
L33042 15818
L33070 15762
L33098 15733
L33155 15705
L33239 15705
L33295 15733
L33323 15762
L33352 15818
L33352 16043
" />
<path d="M33464 15480
L33464 15199
" />
<path d="M33633 15537
L33042 15340
L33633 15143
" />
<path d="M33098 14974
L33070 14946
L33042 14890
L33042 14749
L33070 14693
L33098 14665
L33155 14637
L33211 14637
L33295 14665
L33633 15002
L33633 14637
" />
<path d="M33633 12992
L33042 12992
L33042 12767
L33070 12710
L33098 12682
L33155 12654
L33239 12654
L33295 12682
L33323 12710
L33352 12767
L33352 12992
" />
<path d="M33464 12429
L33464 12148
" />
<path d="M33633 12485
L33042 12289
L33633 12092
" />
<path d="M33633 11586
L33633 11923
" />
<path d="M33633 11754
L33042 11754
L33127 11811
L33183 11867
L33211 11923
" />
<path d="M33633 9842
L33042 9842
L33042 9617
L33070 9561
L33098 9533
L33155 9505
L33239 9505
L33295 9533
L33323 9561
L33352 9617
L33352 9842
" />
<path d="M33464 9280
L33464 8998
" />
<path d="M33633 9336
L33042 9139
L33633 8942
" />
<path d="M33042 8633
L33042 8577
L33070 8520
L33098 8492
L33155 8464
L33267 8436
L33408 8436
L33520 8464
L33577 8492
L33605 8520
L33633 8577
L33633 8633
L33605 8689
L33577 8717
L33520 8745
L33408 8773
L33267 8773
L33155 8745
L33098 8717
L33070 8689
L33042 8633
" />
</g>
<g style="fill:#008484; fill-opacity:0.0; 
stroke:#008484; stroke-width:78.7402; stroke-opacity:1; 
stroke-linecap:round; stroke-linejoin:round;">
<path d="M26082 25590
L26082 27165
" />
</g>
<g style="fill:#008484; fill-opacity:0.0; 
stroke:#008484; stroke-width:118.11; stroke-opacity:1; 
stroke-linecap:round; stroke-linejoin:round;">
<path d="M25660 26982
L25660 27320
" />
<path d="M25660 27151
L25070 27151
L25154 27207
L25210 27263
L25239 27320
" />
<path d="M25070 26448
L25070 26729
L25351 26757
L25323 26729
L25295 26673
L25295 26532
L25323 26476
L25351 26448
L25407 26420
L25548 26420
L25604 26448
L25632 26476
L25660 26532
L25660 26673
L25632 26729
L25604 26757
" />
<path d="M24339 27221
L24311 27277
L24282 27305
L24226 27334
L24198 27334
L24142 27305
L24114 27277
L24086 27221
L24086 27109
L24114 27052
L24142 27024
L24198 26996
L24226 26996
L24282 27024
L24311 27052
L24339 27109
L24339 27221
L24367 27277
L24395 27305
L24451 27334
L24564 27334
L24620 27305
L24648 27277
L24676 27221
L24676 27109
L24648 27052
L24620 27024
L24564 26996
L24451 26996
L24395 27024
L24367 27052
L24339 27109
" />
<path d="M23101 27362
L23101 26968
L23692 27221
" />
<path d="M22019 27052
L22019 27165
L22047 27221
L22075 27249
L22159 27305
L22272 27334
L22497 27334
L22553 27305
L22581 27277
L22609 27221
L22609 27109
L22581 27052
L22553 27024
L22497 26996
L22356 26996
L22300 27024
L22272 27052
L22244 27109
L22244 27221
L22272 27277
L22300 27305
L22356 27334
" />
<path d="M20697 25562
L20697 24971
L20922 24971
L20978 25000
L21006 25028
L21034 25084
L21034 25168
L21006 25224
L20978 25253
L20922 25281
L20697 25281
" />
<path d="M21372 25562
L21316 25534
L21287 25506
L21259 25449
L21259 25281
L21287 25224
L21316 25196
L21372 25168
L21456 25168
L21512 25196
L21541 25224
L21569 25281
L21569 25449
L21541 25506
L21512 25534
L21456 25562
L21372 25562
" />
<path d="M21822 25562
L21822 25168
" />
<path d="M21822 25281
L21850 25224
L21878 25196
L21934 25168
L21991 25168
" />
<path d="M22103 25168
L22328 25168
" />
<path d="M22187 24971
L22187 25478
L22215 25534
L22272 25562
L22328 25562
" />
<path d="M22947 25393
L23228 25393
" />
<path d="M22890 25562
L23087 24971
L23284 25562
" />
</g>
<g style="fill:#008484; fill-opacity:0.0; 
stroke:#008484; stroke-width:78.7402; stroke-opacity:1; 
stroke-linecap:round; stroke-linejoin:round;">
<path d="M26377 25590
L26377 24606
" />
<path d="M24507 25590
L26377 25590
" />
<path d="M24507 24606
L24507 25590
" />
</g>
<g style="fill:#008484; fill-opacity:0.0; 
stroke:#008484; stroke-width:118.11; stroke-opacity:1; 
stroke-linecap:round; stroke-linejoin:round;">
<path d="M27235 23903
L26645 23903
L27235 23565
L26645 23565
" />
<path d="M27235 22947
L26954 23143
" />
<path d="M27235 23284
L26645 23284
L26645 23059
L26673 23003
L26701 22975
L26757 22947
L26841 22947
L26898 22975
L26926 23003
L26954 23059
L26954 23284
" />
<path d="M27207 22722
L27235 22637
L27235 22497
L27207 22440
L27179 22412
L27123 22384
L27066 22384
L27010 22412
L26982 22440
L26954 22497
L26926 22609
L26898 22665
L26870 22694
L26813 22722
L26757 22722
L26701 22694
L26673 22665
L26645 22609
L26645 22469
L26673 22384
" />
<path d="M26645 22215
L26645 21878
" />
<path d="M27235 22047
L26645 22047
" />
<path d="M28290 23973
L28318 23889
L28318 23748
L28290 23692
L28262 23664
L28205 23636
L28149 23636
L28093 23664
L28065 23692
L28037 23748
L28008 23861
L27980 23917
L27952 23945
L27896 23973
L27840 23973
L27784 23945
L27755 23917
L27727 23861
L27727 23720
L27755 23636
" />
<path d="M27727 23439
L28318 23298
L27896 23186
L28318 23073
L27727 22933
" />
<path d="M28262 22370
L28290 22398
L28318 22483
L28318 22539
L28290 22623
L28233 22679
L28177 22708
L28065 22736
L27980 22736
L27868 22708
L27812 22679
L27755 22623
L27727 22539
L27727 22483
L27755 22398
L27784 22370
" />
<path d="M28318 21836
L28318 22117
L27727 22117
" />
<path d="M28318 21639
L27727 21639
" />
<path d="M28318 21302
L27980 21555
" />
<path d="M27727 21302
L28065 21639
" />
<path d="M29274 23889
L29302 23804
L29302 23664
L29274 23607
L29246 23579
L29190 23551
L29133 23551
L29077 23579
L29049 23607
L29021 23664
L28993 23776
L28965 23832
L28937 23861
L28880 23889
L28824 23889
L28768 23861
L28740 23832
L28712 23776
L28712 23636
L28740 23551
" />
<path d="M28712 23354
L29302 23214
L28880 23101
L29302 22989
L28712 22848
" />
<path d="M29302 22623
L28712 22623
L28712 22483
L28740 22398
L28796 22342
L28852 22314
L28965 22286
L29049 22286
L29161 22314
L29218 22342
L29274 22398
L29302 22483
L29302 22623
" />
<path d="M29302 22033
L28712 22033
" />
<path d="M28712 21639
L28712 21526
L28740 21470
L28796 21414
L28908 21386
L29105 21386
L29218 21414
L29274 21470
L29302 21526
L29302 21639
L29274 21695
L29218 21751
L29105 21780
L28908 21780
L28796 21751
L28740 21695
L28712 21639
" />
<path d="M29696 23861
L30286 23664
L29696 23467
" />
<path d="M30286 23017
L29696 23017
" />
<path d="M30258 23017
L30286 23073
L30286 23186
L30258 23242
L30230 23270
L30174 23298
L30005 23298
L29949 23270
L29921 23242
L29893 23186
L29893 23073
L29921 23017
" />
<path d="M30286 22483
L29696 22483
" />
<path d="M30258 22483
L30286 22539
L30286 22651
L30258 22708
L30230 22736
L30174 22764
L30005 22764
L29949 22736
L29921 22708
L29893 22651
L29893 22539
L29921 22483
" />
</g>
<g style="fill:#008484; fill-opacity:0.0; 
stroke:#008484; stroke-width:78.7402; stroke-opacity:1; 
stroke-linecap:round; stroke-linejoin:round;">
<path d="M29822 27165
L29822 28346
" />
<path d="M25885 27165
L29822 27165
" />
<path d="M25885 28149
L25885 27165
" />
</g>
<g style="fill:#008484; fill-opacity:0.0; 
stroke:#008484; stroke-width:118.11; stroke-opacity:1; 
stroke-linecap:round; stroke-linejoin:round;">
<path d="M26518 26279
L26462 26251
L26377 26251
L26293 26279
L26237 26335
L26209 26392
L26181 26504
L26181 26588
L26209 26701
L26237 26757
L26293 26813
L26377 26841
L26434 26841
L26518 26813
L26546 26785
L26546 26588
L26434 26588
" />
<path d="M26799 26841
L26799 26251
L27137 26841
L27137 26251
" />
<path d="M27418 26841
L27418 26251
L27559 26251
L27643 26279
L27699 26335
L27727 26392
L27755 26504
L27755 26588
L27727 26701
L27699 26757
L27643 26813
L27559 26841
L27418 26841
" />
</g>
<g style="fill:#008484; fill-opacity:0.0; 
stroke:#008484; stroke-width:78.7402; stroke-opacity:1; 
stroke-linecap:round; stroke-linejoin:round;">
<path d="M30118 25590
L34842 25590
" />
<path d="M30118 27362
L30118 25590
" />
</g>
<g style="fill:#008484; fill-opacity:0.0; 
stroke:#008484; stroke-width:118.11; stroke-opacity:1; 
stroke-linecap:round; stroke-linejoin:round;">
<path d="M33610 26425
L33638 26397
L33695 26369
L33835 26369
L33892 26397
L33920 26425
L33948 26482
L33948 26538
L33920 26622
L33582 26960
L33948 26960
" />
<path d="M31113 26960
L30776 26960
" />
<path d="M30944 26960
L30944 26369
L30888 26453
L30832 26510
L30776 26538
" />
<path d="M31971 27395
L31999 27311
L31999 27170
L31971 27114
L31943 27086
L31886 27058
L31830 27058
L31774 27086
L31746 27114
L31718 27170
L31690 27283
L31661 27339
L31633 27367
L31577 27395
L31521 27395
L31465 27367
L31437 27339
L31408 27283
L31408 27142
L31437 27058
" />
<path d="M31943 26467
L31971 26496
L31999 26580
L31999 26636
L31971 26721
L31915 26777
L31858 26805
L31746 26833
L31661 26833
L31549 26805
L31493 26777
L31437 26721
L31408 26636
L31408 26580
L31437 26496
L31465 26467
" />
<path d="M31999 25933
L31999 26214
L31408 26214
" />
<path d="M35908 27488
L35936 27404
L35936 27263
L35908 27207
L35880 27179
L35823 27151
L35767 27151
L35711 27179
L35683 27207
L35655 27263
L35627 27376
L35598 27432
L35570 27460
L35514 27488
L35458 27488
L35402 27460
L35374 27432
L35345 27376
L35345 27235
L35374 27151
" />
<path d="M35936 26898
L35345 26898
L35345 26757
L35374 26673
L35430 26616
L35486 26588
L35598 26560
L35683 26560
L35795 26588
L35852 26616
L35908 26673
L35936 26757
L35936 26898
" />
<path d="M35767 26335
L35767 26054
" />
<path d="M35936 26392
L35345 26195
L35936 25998
" />
<path d="M34924 27435
L34952 27350
L34952 27210
L34924 27154
L34895 27125
L34839 27097
L34783 27097
L34727 27125
L34699 27154
L34670 27210
L34642 27322
L34614 27379
L34586 27407
L34530 27435
L34474 27435
L34417 27407
L34389 27379
L34361 27322
L34361 27182
L34389 27097
" />
<path d="M34895 26507
L34924 26535
L34952 26619
L34952 26676
L34924 26760
L34867 26816
L34811 26844
L34699 26872
L34614 26872
L34502 26844
L34446 26816
L34389 26760
L34361 26676
L34361 26619
L34389 26535
L34417 26507
" />
<path d="M34952 25973
L34952 26254
L34361 26254
" />
<path d="M32955 27370
L32983 27286
L32983 27145
L32955 27089
L32927 27061
L32871 27033
L32814 27033
L32758 27061
L32730 27089
L32702 27145
L32674 27258
L32646 27314
L32618 27342
L32561 27370
L32505 27370
L32449 27342
L32421 27314
L32393 27258
L32393 27117
L32421 27033
" />
<path d="M32983 26780
L32393 26780
L32393 26639
L32421 26555
L32477 26498
L32533 26470
L32646 26442
L32730 26442
L32843 26470
L32899 26498
L32955 26555
L32983 26639
L32983 26780
" />
<path d="M32814 26217
L32814 25936
" />
<path d="M32983 26273
L32393 26077
L32983 25880
" />
<path d="M28655 26349
L28655 25759
" />
<path d="M28908 25815
L28937 25787
L28993 25759
L29133 25759
L29190 25787
L29218 25815
L29246 25871
L29246 25928
L29218 26012
L28880 26349
L29246 26349
" />
<path d="M29836 26293
L29808 26321
L29724 26349
L29668 26349
L29583 26321
L29527 26265
L29499 26209
L29471 26096
L29471 26012
L29499 25899
L29527 25843
L29583 25787
L29668 25759
L29724 25759
L29808 25787
L29836 25815
" />
<path d="M28177 8039
L28205 8011
L28262 7983
L28402 7983
L28458 8011
L28487 8039
L28515 8096
L28515 8152
L28487 8236
L28149 8574
L28515 8574
" />
<path d="M25168 7983
L25224 7983
L25281 8011
L25309 8039
L25337 8096
L25365 8208
L25365 8349
L25337 8461
L25309 8517
L25281 8546
L25224 8574
L25168 8574
L25112 8546
L25084 8517
L25056 8461
L25028 8349
L25028 8208
L25056 8096
L25084 8039
L25112 8011
L25168 7983
" />
<path d="M26940 8574
L26602 8574
" />
<path d="M26771 8574
L26771 7983
L26715 8068
L26659 8124
L26602 8152
" />
<path d="M29777 8771
L29777 8180
L30002 8180
L30059 8208
L30087 8236
L30115 8293
L30115 8377
L30087 8433
L30059 8461
L30002 8489
L29777 8489
" />
<path d="M30368 8771
L30368 8180
L30565 8602
L30762 8180
L30762 8771
" />
<path d="M31155 8180
L31268 8180
L31324 8208
L31380 8264
L31408 8377
L31408 8574
L31380 8686
L31324 8742
L31268 8771
L31155 8771
L31099 8742
L31043 8686
L31015 8574
L31015 8377
L31043 8264
L31099 8208
L31155 8180
" />
<path d="M31661 8771
L31661 8180
L31802 8180
L31886 8208
L31943 8264
L31971 8321
L31999 8433
L31999 8517
L31971 8630
L31943 8686
L31886 8742
L31802 8771
L31661 8771
" />
<path d="M32252 8461
L32449 8461
" />
<path d="M32533 8771
L32252 8771
L32252 8180
L32533 8180
" />
</g>
<g style="fill:#C2C200; fill-opacity:0.0; 
stroke:#C2C200; stroke-width:118.11; stroke-opacity:1; 
stroke-linecap:round; stroke-linejoin:round;">
</g>
<g style="fill:#C2C200; fill-opacity:0.0; 
stroke:#C2C200; stroke-width:59.0551; stroke-opacity:1; 
stroke-linecap:round; stroke-linejoin:round;">
<path d="M11811 7874
L36417 7874
" />
<path d="M11811 28937
L11811 7874
" />
<path d="M36417 28937
L11811 28937
" />
<path d="M36417 7874
L36417 28937
" />
<path d="M26077 11516
L26077 11835
L26096 11872
L26115 11891
L26152 11910
L26227 11910
L26265 11891
L26284 11872
L26302 11835
L26302 11516
" />
<path d="M26659 11647
L26659 11910
" />
<path d="M26565 11497
L26471 11779
L26715 11779
" />
<path d="M23605 17585
L23623 17604
L23642 17660
L23642 17697
L23623 17754
L23586 17791
L23548 17810
L23473 17829
L23417 17829
L23342 17810
L23305 17791
L23267 17754
L23248 17697
L23248 17660
L23267 17604
L23286 17585
" />
<path d="M23642 17210
L23642 17435
" />
<path d="M23642 17322
L23248 17322
L23305 17360
L23342 17397
L23361 17435
" />
<path d="M23526 23254
L23545 23273
L23563 23329
L23563 23367
L23545 23423
L23507 23460
L23470 23479
L23395 23498
L23338 23498
L23263 23479
L23226 23460
L23188 23423
L23170 23367
L23170 23329
L23188 23273
L23207 23254
" />
<path d="M23207 23104
L23188 23085
L23170 23048
L23170 22954
L23188 22917
L23207 22898
L23245 22879
L23282 22879
L23338 22898
L23563 23123
L23563 22879
" />
<path d="M18635 23762
L18616 23781
L18560 23800
L18522 23800
L18466 23781
L18428 23743
L18410 23706
L18391 23631
L18391 23575
L18410 23500
L18428 23462
L18466 23425
L18522 23406
L18560 23406
L18616 23425
L18635 23443
" />
<path d="M18766 23406
L19010 23406
L18878 23556
L18935 23556
L18972 23575
L18991 23593
L19010 23631
L19010 23725
L18991 23762
L18972 23781
L18935 23800
L18822 23800
L18785 23781
L18766 23762
" />
<path d="M18635 25888
L18616 25907
L18560 25926
L18522 25926
L18466 25907
L18428 25869
L18410 25832
L18391 25757
L18391 25701
L18410 25626
L18428 25588
L18466 25551
L18522 25532
L18560 25532
L18616 25551
L18635 25569
" />
<path d="M18972 25663
L18972 25926
" />
<path d="M18878 25513
L18785 25794
L19028 25794
" />
<path d="M31046 22703
L31064 22722
L31083 22778
L31083 22815
L31064 22872
L31027 22909
L30989 22928
L30914 22947
L30858 22947
L30783 22928
L30746 22909
L30708 22872
L30689 22815
L30689 22778
L30708 22722
L30727 22703
" />
<path d="M30689 22347
L30689 22534
L30877 22553
L30858 22534
L30839 22497
L30839 22403
L30858 22365
L30877 22347
L30914 22328
L31008 22328
L31046 22347
L31064 22365
L31083 22403
L31083 22497
L31064 22534
L31046 22553
" />
<path d="M32424 22703
L32442 22722
L32461 22778
L32461 22815
L32442 22872
L32405 22909
L32367 22928
L32292 22947
L32236 22947
L32161 22928
L32124 22909
L32086 22872
L32067 22815
L32067 22778
L32086 22722
L32105 22703
" />
<path d="M32067 22365
L32067 22440
L32086 22478
L32105 22497
L32161 22534
L32236 22553
L32386 22553
L32424 22534
L32442 22515
L32461 22478
L32461 22403
L32442 22365
L32424 22347
L32386 22328
L32292 22328
L32255 22347
L32236 22365
L32217 22403
L32217 22478
L32236 22515
L32255 22534
L32292 22553
" />
<path d="M30770 14041
L30789 14060
L30808 14116
L30808 14154
L30789 14210
L30751 14248
L30714 14266
L30639 14285
L30583 14285
L30508 14266
L30470 14248
L30433 14210
L30414 14154
L30414 14116
L30433 14060
L30451 14041
" />
<path d="M30414 13910
L30414 13648
L30808 13817
" />
<path d="M30770 10695
L30789 10714
L30808 10770
L30808 10808
L30789 10864
L30751 10901
L30714 10920
L30639 10939
L30583 10939
L30508 10920
L30470 10901
L30433 10864
L30414 10808
L30414 10770
L30433 10714
L30451 10695
" />
<path d="M30583 10470
L30564 10508
L30545 10526
L30508 10545
L30489 10545
L30451 10526
L30433 10508
L30414 10470
L30414 10395
L30433 10358
L30451 10339
L30489 10320
L30508 10320
L30545 10339
L30564 10358
L30583 10395
L30583 10470
L30601 10508
L30620 10526
L30658 10545
L30733 10545
L30770 10526
L30789 10508
L30808 10470
L30808 10395
L30789 10358
L30770 10339
L30733 10320
L30658 10320
L30620 10339
L30601 10358
L30583 10395
" />
<path d="M20809 15298
L20791 15316
L20734 15335
L20697 15335
L20641 15316
L20603 15279
L20584 15241
L20566 15166
L20566 15110
L20584 15035
L20603 14998
L20641 14960
L20697 14941
L20734 14941
L20791 14960
L20809 14979
" />
<path d="M21184 15335
L20959 15335
" />
<path d="M21072 15335
L21072 14941
L21034 14998
L20997 15035
L20959 15054
" />
<path d="M21559 15335
L21334 15335
" />
<path d="M21447 15335
L21447 14941
L21409 14998
L21372 15035
L21334 15054
" />
<path d="M20849 14313
L20830 14332
L20774 14351
L20736 14351
L20680 14332
L20643 14295
L20624 14257
L20605 14182
L20605 14126
L20624 14051
L20643 14013
L20680 13976
L20736 13957
L20774 13957
L20830 13976
L20849 13995
" />
<path d="M21224 14351
L20999 14351
" />
<path d="M21111 14351
L21111 13957
L21074 14013
L21036 14051
L20999 14070
" />
<path d="M21374 13995
L21392 13976
L21430 13957
L21524 13957
L21561 13976
L21580 13995
L21599 14032
L21599 14070
L21580 14126
L21355 14351
L21599 14351
" />
<path d="M18250 20084
L18269 20103
L18288 20159
L18288 20196
L18269 20253
L18232 20290
L18194 20309
L18119 20328
L18063 20328
L17988 20309
L17950 20290
L17913 20253
L17894 20196
L17894 20159
L17913 20103
L17932 20084
" />
<path d="M17894 19840
L17894 19765
L17913 19728
L17950 19690
L18025 19671
L18157 19671
L18232 19690
L18269 19728
L18288 19765
L18288 19840
L18269 19878
L18232 19915
L18157 19934
L18025 19934
L17950 19915
L17913 19878
L17894 19840
" />
<path d="M18288 19503
L17894 19503
L18288 19278
L17894 19278
" />
<path d="M18288 18884
L18288 19109
" />
<path d="M18288 18997
L17894 18997
L17950 19034
L17988 19071
L18007 19109
" />
<path d="M24036 15329
L23642 15329
L23642 15236
L23661 15179
L23698 15142
L23736 15123
L23811 15104
L23867 15104
L23942 15123
L23980 15142
L24017 15179
L24036 15236
L24036 15329
" />
<path d="M23680 14955
L23661 14936
L23642 14898
L23642 14805
L23661 14767
L23680 14748
L23717 14730
L23755 14730
L23811 14748
L24036 14973
L24036 14730
" />
<path d="M28898 15369
L28504 15369
L28504 15275
L28523 15219
L28561 15181
L28598 15163
L28673 15144
L28729 15144
L28804 15163
L28842 15181
L28879 15219
L28898 15275
L28898 15369
" />
<path d="M28636 14806
L28898 14806
" />
<path d="M28486 14900
L28767 14994
L28767 14750
" />
<path d="M25768 9580
L26049 9580
L26106 9598
L26143 9636
L26162 9692
L26162 9730
" />
<path d="M26162 9392
L25768 9392
L25768 9242
L25787 9205
L25806 9186
L25843 9167
L25899 9167
L25937 9186
L25956 9205
L25974 9242
L25974 9392
" />
<path d="M26162 8792
L26162 9017
" />
<path d="M26162 8905
L25768 8905
L25824 8942
L25862 8980
L25881 9017
" />
<path d="M27382 9580
L27664 9580
L27720 9598
L27757 9636
L27776 9692
L27776 9730
" />
<path d="M27776 9392
L27382 9392
L27382 9242
L27401 9205
L27420 9186
L27457 9167
L27514 9167
L27551 9186
L27570 9205
L27589 9242
L27589 9392
" />
<path d="M27420 9017
L27401 8998
L27382 8961
L27382 8867
L27401 8830
L27420 8811
L27457 8792
L27495 8792
L27551 8811
L27776 9036
L27776 8792
" />
<path d="M28957 9580
L29238 9580
L29295 9598
L29332 9636
L29351 9692
L29351 9730
" />
<path d="M29351 9392
L28957 9392
L28957 9242
L28976 9205
L28995 9186
L29032 9167
L29088 9167
L29126 9186
L29145 9205
L29163 9242
L29163 9392
" />
<path d="M28957 9036
L28957 8792
L29107 8923
L29107 8867
L29126 8830
L29145 8811
L29182 8792
L29276 8792
L29313 8811
L29332 8830
L29351 8867
L29351 8980
L29332 9017
L29313 9036
" />
<path d="M31083 24857
L30689 24857
L30689 24707
L30708 24670
L30727 24651
L30764 24632
L30821 24632
L30858 24651
L30877 24670
L30896 24707
L30896 24857
" />
<path d="M31083 24257
L31083 24482
" />
<path d="M31083 24370
L30689 24370
L30746 24407
L30783 24445
L30802 24482
" />
<path d="M35418 10611
L35418 10217
L35568 10217
L35605 10236
L35624 10254
L35643 10292
L35643 10348
L35624 10386
L35605 10404
L35568 10423
L35418 10423
" />
<path d="M35793 10254
L35811 10236
L35849 10217
L35943 10217
L35980 10236
L35999 10254
L36017 10292
L36017 10329
L35999 10386
L35774 10611
L36017 10611
" />
<path d="M35339 13760
L35339 13367
L35489 13367
L35526 13385
L35545 13404
L35564 13442
L35564 13498
L35545 13535
L35526 13554
L35489 13573
L35339 13573
" />
<path d="M35695 13367
L35939 13367
L35808 13517
L35864 13517
L35901 13535
L35920 13554
L35939 13592
L35939 13685
L35920 13723
L35901 13742
L35864 13760
L35751 13760
L35714 13742
L35695 13723
" />
<path d="M35378 16792
L35378 16398
L35528 16398
L35566 16417
L35584 16436
L35603 16473
L35603 16529
L35584 16567
L35566 16586
L35528 16604
L35378 16604
" />
<path d="M35941 16529
L35941 16792
" />
<path d="M35847 16379
L35753 16661
L35997 16661
" />
<path d="M35418 20020
L35418 19626
L35568 19626
L35605 19645
L35624 19664
L35643 19701
L35643 19758
L35624 19795
L35605 19814
L35568 19833
L35418 19833
" />
<path d="M35999 19626
L35811 19626
L35793 19814
L35811 19795
L35849 19776
L35943 19776
L35980 19795
L35999 19814
L36017 19851
L36017 19945
L35999 19983
L35980 20001
L35943 20020
L35849 20020
L35811 20001
L35793 19983
" />
<path d="M35339 23130
L35339 22737
L35489 22737
L35526 22755
L35545 22774
L35564 22812
L35564 22868
L35545 22905
L35526 22924
L35489 22943
L35339 22943
" />
<path d="M35901 22737
L35826 22737
L35789 22755
L35770 22774
L35733 22830
L35714 22905
L35714 23055
L35733 23093
L35751 23112
L35789 23130
L35864 23130
L35901 23112
L35920 23093
L35939 23055
L35939 22962
L35920 22924
L35901 22905
L35864 22887
L35789 22887
L35751 22905
L35733 22924
L35714 22962
" />
<path d="M35418 26241
L35418 25847
L35568 25847
L35605 25866
L35624 25884
L35643 25922
L35643 25978
L35624 26016
L35605 26034
L35568 26053
L35418 26053
" />
<path d="M35774 25847
L36036 25847
L35868 26241
" />
<path d="M21634 28440
L21241 28440
L21241 28290
L21259 28252
L21278 28233
L21316 28215
L21372 28215
L21409 28233
L21428 28252
L21447 28290
L21447 28440
" />
<path d="M21409 27990
L21391 28027
L21372 28046
L21334 28065
L21316 28065
L21278 28046
L21259 28027
L21241 27990
L21241 27915
L21259 27877
L21278 27859
L21316 27840
L21334 27840
L21372 27859
L21391 27877
L21409 27915
L21409 27990
L21428 28027
L21447 28046
L21484 28065
L21559 28065
L21597 28046
L21616 28027
L21634 27990
L21634 27915
L21616 27877
L21597 27859
L21559 27840
L21484 27840
L21447 27859
L21428 27877
L21409 27915
" />
<path d="M30926 28400
L30532 28400
L30532 28250
L30551 28213
L30569 28194
L30607 28175
L30663 28175
L30701 28194
L30719 28213
L30738 28250
L30738 28400
" />
<path d="M30926 27988
L30926 27913
L30907 27875
L30888 27857
L30832 27819
L30757 27800
L30607 27800
L30569 27819
L30551 27838
L30532 27875
L30532 27950
L30551 27988
L30569 28007
L30607 28025
L30701 28025
L30738 28007
L30757 27988
L30776 27950
L30776 27875
L30757 27838
L30738 27819
L30701 27800
" />
<path d="M33839 28588
L33445 28588
L33445 28438
L33464 28400
L33483 28382
L33520 28363
L33577 28363
L33614 28382
L33633 28400
L33652 28438
L33652 28588
" />
<path d="M33839 27988
L33839 28213
" />
<path d="M33839 28100
L33445 28100
L33502 28138
L33539 28175
L33558 28213
" />
<path d="M33445 27744
L33445 27707
L33464 27669
L33483 27650
L33520 27632
L33595 27613
L33689 27613
L33764 27632
L33802 27650
L33820 27669
L33839 27707
L33839 27744
L33820 27782
L33802 27800
L33764 27819
L33689 27838
L33595 27838
L33520 27819
L33483 27800
L33464 27782
L33445 27744
" />
<path d="M12002 24115
L12002 23721
L12152 23721
L12189 23740
L12208 23758
L12227 23796
L12227 23852
L12208 23890
L12189 23908
L12152 23927
L12002 23927
" />
<path d="M12602 24115
L12377 24115
" />
<path d="M12489 24115
L12489 23721
L12452 23777
L12414 23815
L12377 23833
" />
<path d="M12977 24115
L12752 24115
" />
<path d="M12864 24115
L12864 23721
L12827 23777
L12789 23815
L12752 23833
" />
<path d="M18262 28603
L18262 28209
L18412 28209
L18449 28228
L18468 28247
L18487 28284
L18487 28340
L18468 28378
L18449 28397
L18412 28415
L18262 28415
" />
<path d="M18862 28603
L18637 28603
" />
<path d="M18749 28603
L18749 28209
L18712 28265
L18674 28303
L18637 28322
" />
<path d="M19011 28247
L19030 28228
L19068 28209
L19161 28209
L19199 28228
L19218 28247
L19236 28284
L19236 28322
L19218 28378
L18993 28603
L19236 28603
" />
<path d="M12041 26713
L12041 26319
L12191 26319
L12229 26338
L12247 26357
L12266 26394
L12266 26451
L12247 26488
L12229 26507
L12191 26526
L12041 26526
" />
<path d="M12641 26713
L12416 26713
" />
<path d="M12529 26713
L12529 26319
L12491 26376
L12454 26413
L12416 26432
" />
<path d="M12772 26319
L13016 26319
L12885 26469
L12941 26469
L12979 26488
L12997 26507
L13016 26544
L13016 26638
L12997 26676
L12979 26694
L12941 26713
L12829 26713
L12791 26694
L12772 26676
" />
<path d="M15335 12879
L14941 12879
L14941 12729
L14960 12692
L14979 12673
L15016 12654
L15073 12654
L15110 12673
L15129 12692
L15148 12729
L15148 12879
" />
<path d="M15335 12279
L15335 12504
" />
<path d="M15335 12392
L14941 12392
L14998 12429
L15035 12467
L15054 12504
" />
<path d="M15073 11942
L15335 11942
" />
<path d="M14923 12035
L15204 12129
L15204 11886
" />
<path d="M28642 10695
L28455 10826
" />
<path d="M28642 10920
L28248 10920
L28248 10770
L28267 10733
L28286 10714
L28323 10695
L28380 10695
L28417 10714
L28436 10733
L28455 10770
L28455 10920
" />
<path d="M28642 10320
L28642 10545
" />
<path d="M28642 10433
L28248 10433
L28305 10470
L28342 10508
L28361 10545
" />
<path d="M23563 9160
L23376 9291
" />
<path d="M23563 9385
L23170 9385
L23170 9235
L23188 9197
L23207 9178
L23245 9160
L23301 9160
L23338 9178
L23357 9197
L23376 9235
L23376 9385
" />
<path d="M23207 9010
L23188 8991
L23170 8953
L23170 8860
L23188 8822
L23207 8803
L23245 8785
L23282 8785
L23338 8803
L23563 9028
L23563 8785
" />
<path d="M19934 16556
L19803 16368
" />
<path d="M19709 16556
L19709 16162
L19859 16162
L19896 16181
L19915 16199
L19934 16237
L19934 16293
L19915 16331
L19896 16349
L19859 16368
L19709 16368
" />
<path d="M20065 16162
L20309 16162
L20178 16312
L20234 16312
L20271 16331
L20290 16349
L20309 16387
L20309 16481
L20290 16518
L20271 16537
L20234 16556
L20121 16556
L20084 16537
L20065 16518
" />
<path d="M16194 16359
L16062 16171
" />
<path d="M15969 16359
L15969 15965
L16119 15965
L16156 15984
L16175 16002
L16194 16040
L16194 16096
L16175 16134
L16156 16152
L16119 16171
L15969 16171
" />
<path d="M16531 16096
L16531 16359
" />
<path d="M16437 15946
L16344 16227
L16587 16227
" />
<path d="M26902 17067
L26771 16880
" />
<path d="M26677 17067
L26677 16674
L26827 16674
L26865 16692
L26884 16711
L26902 16749
L26902 16805
L26884 16842
L26865 16861
L26827 16880
L26677 16880
" />
<path d="M27259 16674
L27071 16674
L27052 16861
L27071 16842
L27109 16824
L27202 16824
L27240 16842
L27259 16861
L27277 16899
L27277 16992
L27259 17030
L27240 17049
L27202 17067
L27109 17067
L27071 17049
L27052 17030
" />
<path d="M25524 17067
L25393 16880
" />
<path d="M25299 17067
L25299 16674
L25449 16674
L25487 16692
L25506 16711
L25524 16749
L25524 16805
L25506 16842
L25487 16861
L25449 16880
L25299 16880
" />
<path d="M25862 16674
L25787 16674
L25749 16692
L25731 16711
L25693 16767
L25674 16842
L25674 16992
L25693 17030
L25712 17049
L25749 17067
L25824 17067
L25862 17049
L25881 17030
L25899 16992
L25899 16899
L25881 16861
L25862 16842
L25824 16824
L25749 16824
L25712 16842
L25693 16861
L25674 16899
" />
<path d="M21036 13170
L20905 12982
" />
<path d="M20811 13170
L20811 12776
L20961 12776
L20999 12795
L21017 12814
L21036 12851
L21036 12907
L21017 12945
L20999 12964
L20961 12982
L20811 12982
" />
<path d="M21167 12776
L21430 12776
L21261 13170
" />
<path d="M21036 12185
L20905 11998
" />
<path d="M20811 12185
L20811 11792
L20961 11792
L20999 11811
L21017 11829
L21036 11867
L21036 11923
L21017 11961
L20999 11979
L20961 11998
L20811 11998
" />
<path d="M21261 11961
L21224 11942
L21205 11923
L21186 11886
L21186 11867
L21205 11829
L21224 11811
L21261 11792
L21336 11792
L21374 11811
L21392 11829
L21411 11867
L21411 11886
L21392 11923
L21374 11942
L21336 11961
L21261 11961
L21224 11979
L21205 11998
L21186 12035
L21186 12110
L21205 12148
L21224 12167
L21261 12185
L21336 12185
L21374 12167
L21392 12148
L21411 12110
L21411 12035
L21392 11998
L21374 11979
L21336 11961
" />
<path d="M21076 10138
L20944 9951
" />
<path d="M20851 10138
L20851 9745
L21001 9745
L21038 9763
L21057 9782
L21076 9820
L21076 9876
L21057 9913
L21038 9932
L21001 9951
L20851 9951
" />
<path d="M21263 10138
L21338 10138
L21376 10119
L21394 10101
L21432 10044
L21451 9970
L21451 9820
L21432 9782
L21413 9763
L21376 9745
L21301 9745
L21263 9763
L21244 9782
L21226 9820
L21226 9913
L21244 9951
L21263 9970
L21301 9988
L21376 9988
L21413 9970
L21432 9951
L21451 9913
" />
<path d="M20731 11162
L20599 10974
" />
<path d="M20506 11162
L20506 10768
L20656 10768
L20693 10787
L20712 10806
L20731 10843
L20731 10899
L20712 10937
L20693 10956
L20656 10974
L20506 10974
" />
<path d="M21106 11162
L20881 11162
" />
<path d="M20993 11162
L20993 10768
L20956 10824
L20918 10862
L20881 10881
" />
<path d="M21349 10768
L21387 10768
L21424 10787
L21443 10806
L21462 10843
L21481 10918
L21481 11012
L21462 11087
L21443 11124
L21424 11143
L21387 11162
L21349 11162
L21312 11143
L21293 11124
L21274 11087
L21256 11012
L21256 10918
L21274 10843
L21293 10806
L21312 10787
L21349 10768
" />
<path d="M23130 19985
L23449 19985
L23487 19966
L23505 19947
L23524 19910
L23524 19835
L23505 19797
L23487 19778
L23449 19760
L23130 19760
" />
<path d="M23524 19366
L23524 19591
" />
<path d="M23524 19478
L23130 19478
L23187 19516
L23224 19553
L23243 19591
" />
<path d="M16392 23406
L16392 23725
L16411 23762
L16430 23781
L16467 23800
L16542 23800
L16580 23781
L16599 23762
L16617 23725
L16617 23406
" />
<path d="M16786 23443
L16805 23425
L16842 23406
L16936 23406
L16974 23425
L16992 23443
L17011 23481
L17011 23518
L16992 23575
L16767 23800
L17011 23800
" />
<path d="M32491 19871
L32809 19871
L32847 19852
L32866 19833
L32884 19796
L32884 19721
L32866 19683
L32847 19664
L32809 19646
L32491 19646
" />
<path d="M32491 19496
L32491 19252
L32641 19383
L32641 19327
L32659 19290
L32678 19271
L32716 19252
L32809 19252
L32847 19271
L32866 19290
L32884 19327
L32884 19440
L32866 19477
L32847 19496
" />
<path d="M19459 20463
L19646 20463
" />
<path d="M19252 20594
L19459 20463
L19252 20331
" />
<path d="M19646 19994
L19646 20219
" />
<path d="M19646 20106
L19252 20106
L19309 20144
L19346 20181
L19365 20219
" />
<path d="M30482 13179
L30670 13179
" />
<path d="M30276 13310
L30482 13179
L30276 13048
" />
<path d="M30314 12935
L30295 12917
L30276 12879
L30276 12785
L30295 12748
L30314 12729
L30351 12710
L30389 12710
L30445 12729
L30670 12954
L30670 12710
" />
<path d="M28683 14002
L28702 14021
L28721 14077
L28721 14115
L28702 14171
L28665 14208
L28627 14227
L28552 14246
L28496 14246
L28421 14227
L28383 14208
L28346 14171
L28327 14115
L28327 14077
L28346 14021
L28365 14002
" />
<path d="M28721 13815
L28721 13740
L28702 13702
L28683 13683
L28627 13646
L28552 13627
L28402 13627
L28365 13646
L28346 13665
L28327 13702
L28327 13777
L28346 13815
L28365 13833
L28402 13852
L28496 13852
L28533 13833
L28552 13815
L28571 13777
L28571 13702
L28552 13665
L28533 13646
L28496 13627
" />
</g>
<g style="fill:#008484; fill-opacity:0.0; 
stroke:#008484; stroke-width:59.0551; stroke-opacity:1; 
stroke-linecap:round; stroke-linejoin:round;">
<path d="M24950 10974
L24950 11151
" />
<path d="M27805 10974
L27805 11181
" />
<path d="M27805 13828
L27805 13622
" />
<path d="M24950 13828
L24950 13622
" />
<path d="M24950 10974
L25157 10974
" />
<path d="M24950 13828
L25157 13828
" />
<path d="M27805 13828
L27598 13828
" />
<path d="M27805 10974
L27598 10974
" />
<path d="M24950 11151
L24409 11151
" />
</g>
<g style="fill:#008484; fill-opacity:0.0; 
stroke:#008484; stroke-width:47.2441; stroke-opacity:1; 
stroke-linecap:round; stroke-linejoin:round;">
<path d="M22972 17716
L22972 17322
" />
<path d="M22303 17322
L22303 17716
" />
<path d="M22303 23031
L22303 23425
" />
<path d="M22972 23425
L22972 23031
" />
<path d="M18897 23877
L18503 23877
" />
<path d="M18503 24547
L18897 24547
" />
<path d="M18897 24862
L18503 24862
" />
<path d="M18503 25531
L18897 25531
" />
<path d="M31240 21653
L31240 21259
" />
<path d="M30570 21259
L30570 21653
" />
<path d="M32618 21653
L32618 21259
" />
<path d="M31948 21259
L31948 21653
" />
<path d="M30452 13582
L30452 13188
" />
<path d="M29783 13188
L29783 13582
" />
<path d="M30452 11417
L30452 11023
" />
<path d="M29783 11023
L29783 11417
" />
<path d="M22637 14822
L22244 14822
" />
<path d="M22244 15492
L22637 15492
" />
<path d="M22637 13838
L22244 13838
" />
<path d="M22244 14507
L22637 14507
" />
</g>
<g style="fill:#008484; fill-opacity:0.0; 
stroke:#008484; stroke-width:59.0551; stroke-opacity:1; 
stroke-linecap:round; stroke-linejoin:round;">
<path d="M17814 16929
L16929 16929
" />
<path d="M17814 17814
L17814 16929
" />
<path d="M17519 17814
L17814 17814
" />
<path d="M17519 21358
L17519 17814
" />
<path d="M17814 21358
L17519 21358
" />
<path d="M17814 22933
L17814 21358
" />
<path d="M16929 22933
L17814 22933
" />
<path d="M16929 22933
L11811 22933
" />
<path d="M11811 16929
L16929 16929
" />
<path d="M11811 17519
L11811 16929
" />
<path d="M12992 17519
L11811 17519
" />
<path d="M13030.4 21456.7 A2158.63 2158.63 0.0 0 0 12992.1 17537.4 " />
<path d="M12204 21456
L12992 21456
" />
<path d="M12007 22342
L12204 21456
" />
<path d="M11811 22342
L12007 22342
" />
<path d="M11811 22933
L11811 22342
" />
</g>
<g style="fill:#008484; fill-opacity:0.0; 
stroke:#008484; stroke-width:47.2441; stroke-opacity:1; 
stroke-linecap:round; stroke-linejoin:round;">
<path d="M24685 14448
L24133 14448
" />
<path d="M24133 14448
L24133 15551
" />
<path d="M24685 14448
L24685 15551
" />
<path d="M28425 14448
L27874 14448
" />
<path d="M27874 14448
L27874 15551
" />
<path d="M28425 14448
L28425 15551
" />
</g>
<g style="fill:#008484; fill-opacity:0.0; 
stroke:#008484; stroke-width:59.0551; stroke-opacity:1; 
stroke-linecap:round; stroke-linejoin:round;">
<path d="M24763 8661
L25708 8661
" />
<path d="M25708 8661
L25708 9842
" />
<path d="M25708 9842
L24685 9842
" />
<path d="M24685 9842
L24685 8661
" />
<path d="M24685 8661
L24763 8661
" />
<path d="M26338 8661
L27283 8661
" />
<path d="M27283 8661
L27283 9842
" />
<path d="M27283 9842
L26259 9842
" />
<path d="M26259 9842
L26259 8661
" />
<path d="M26259 8661
L26338 8661
" />
<path d="M27913 8661
L28858 8661
" />
<path d="M28858 8661
L28858 9842
" />
<path d="M28858 9842
L27834 9842
" />
<path d="M27834 9842
L27834 8661
" />
<path d="M27834 8661
L27913 8661
" />
<path d="M29468 24106
L24468 24106
" />
<path d="M24468 24106
L24468 25106
" />
<path d="M24468 25106
L29468 25106
" />
<path d="M30578 23996
L29968 23996
" />
<path d="M29468 24106
L29468 25106
" />
<path d="M29968 25216
L30578 25216
" />
<path d="M30578 25216
L30578 23996
" />
<path d="M35019 8035
L35019 8645
" />
<path d="M35129 10145
L35129 9145
" />
<path d="M35129 9145
L36129 9145
" />
<path d="M36240 8645
L36240 8035
" />
<path d="M36240 8035
L35019 8035
" />
<path d="M36129 9145
L36129 10145
" />
<path d="M36129 10145
L35129 10145
" />
<path d="M35019 11148
L35019 11759
" />
<path d="M35129 13259
L35129 12259
" />
<path d="M35129 12259
L36129 12259
" />
<path d="M36240 11759
L36240 11148
" />
<path d="M36240 11148
L35019 11148
" />
<path d="M36129 12259
L36129 13259
" />
<path d="M36129 13259
L35129 13259
" />
<path d="M35019 14262
L35019 14872
" />
<path d="M35129 16372
L35129 15372
" />
<path d="M35129 15372
L36129 15372
" />
<path d="M36240 14872
L36240 14262
" />
<path d="M36240 14262
L35019 14262
" />
<path d="M36129 15372
L36129 16372
" />
<path d="M36129 16372
L35129 16372
" />
<path d="M35019 17375
L35019 17985
" />
<path d="M35129 19485
L35129 18485
" />
<path d="M35129 18485
L36129 18485
" />
<path d="M36240 17985
L36240 17375
" />
<path d="M36240 17375
L35019 17375
" />
<path d="M36129 18485
L36129 19485
" />
<path d="M36129 19485
L35129 19485
" />
<path d="M35019 20488
L35019 21099
" />
<path d="M35129 22599
L35129 21599
" />
<path d="M35129 21599
L36129 21599
" />
<path d="M36240 21099
L36240 20488
" />
<path d="M36240 20488
L35019 20488
" />
<path d="M36129 21599
L36129 22599
" />
<path d="M36129 22599
L35129 22599
" />
<path d="M35019 23602
L35019 24212
" />
<path d="M35129 25712
L35129 24712
" />
<path d="M35129 24712
L36129 24712
" />
<path d="M36240 24212
L36240 23602
" />
<path d="M36240 23602
L35019 23602
" />
<path d="M36129 24712
L36129 25712
" />
<path d="M36129 25712
L35129 25712
" />
<path d="M22893 28649
L29893 28649
" />
<path d="M29893 28649
L29893 27649
" />
<path d="M29893 27649
L22893 27649
" />
<path d="M21783 28759
L22393 28759
" />
<path d="M22893 28649
L22893 27649
" />
<path d="M22393 27539
L21783 27539
" />
<path d="M21783 27539
L21783 28759
" />
<path d="M31066 28759
L31677 28759
" />
<path d="M33177 28649
L32177 28649
" />
<path d="M32177 28649
L32177 27649
" />
<path d="M31677 27539
L31066 27539
" />
<path d="M31066 27539
L31066 28759
" />
<path d="M32177 27649
L33177 27649
" />
<path d="M33177 27649
L33177 28649
" />
<path d="M34035 28759
L34645 28759
" />
<path d="M36145 28649
L35145 28649
" />
<path d="M35145 28649
L35145 27649
" />
<path d="M34645 27539
L34035 27539
" />
<path d="M34035 27539
L34035 28759
" />
<path d="M35145 27649
L36145 27649
" />
<path d="M36145 27649
L36145 28649
" />
<path d="M11791 24177
L11791 24787
" />
<path d="M11901 26287
L11901 25287
" />
<path d="M11901 25287
L12901 25287
" />
<path d="M13011 24787
L13011 24177
" />
<path d="M13011 24177
L11791 24177
" />
<path d="M12901 25287
L12901 26287
" />
<path d="M12901 26287
L11901 26287
" />
<path d="M15925 28956
L16535 28956
" />
<path d="M18035 28846
L17035 28846
" />
<path d="M17035 28846
L17035 27846
" />
<path d="M16535 27736
L15925 27736
" />
<path d="M15925 27736
L15925 28956
" />
<path d="M17035 27846
L18035 27846
" />
<path d="M18035 27846
L18035 28846
" />
<path d="M11791 26736
L11791 27346
" />
<path d="M11901 28846
L11901 27846
" />
<path d="M11901 27846
L12901 27846
" />
<path d="M13011 27346
L13011 26736
" />
<path d="M13011 26736
L11791 26736
" />
<path d="M12901 27846
L12901 28846
" />
<path d="M12901 28846
L11901 28846
" />
<path d="M11811 9330
L20393 9330
" />
<path d="M11811 15551
L11811 9330
" />
<path d="M20393 15551
L11811 15551
" />
<path d="M20393 9330
L20393 15551
" />
<path d="M29478 10984
L29478 11456
" />
<path d="M28789 11456
L28789 10984
" />
<path d="M24360 9212
L24360 9685
" />
<path d="M23671 9685
L23671 9212
" />
<path d="M18464 15994
L18937 15994
" />
<path d="M18937 16683
L18464 16683
" />
<path d="M14724 15797
L15196 15797
" />
<path d="M15196 16486
L14724 16486
" />
<path d="M26624 15984
L26624 15511
" />
<path d="M27312 15511
L27312 15984
" />
<path d="M25246 15984
L25246 15511
" />
<path d="M25935 15511
L25935 15984
" />
<path d="M22618 13336
L22145 13336
" />
<path d="M22145 12647
L22618 12647
" />
<path d="M22618 12352
L22145 12352
" />
<path d="M22145 11663
L22618 11663
" />
<path d="M22618 10305
L22145 10305
" />
<path d="M22145 9616
L22618 9616
" />
<path d="M22618 11328
L22145 11328
" />
<path d="M22145 10639
L22618 10639
" />
<path d="M24143 21722
L24537 21722
" />
<path d="M24143 17647
L24566 17647
" />
<path d="M28218 17647
L27795 17647
" />
<path d="M28218 21722
L27795 21722
" />
<path d="M24143 21722
L24143 21299
" />
<path d="M28218 21722
L28218 21299
" />
<path d="M28218 17647
L28218 18070
" />
<path d="M24143 17647
L24143 18070
" />
<path d="M24537 21722
L24537 22125
" />
</g>
<g style="fill:#008484; fill-opacity:0.0; 
stroke:#008484; stroke-width:47.2441; stroke-opacity:1; 
stroke-linecap:round; stroke-linejoin:round;">
<path d="M16377 25240
L17086 25240
" />
<path d="M17086 23972
L16122 23972
" />
<path d="M30931 19216
L30931 19925
" />
<path d="M32198 19925
L32198 18961
" />
<path d="M19862 17952
L19862 24242
" />
<path d="M19862 24242
L21870 24242
" />
<path d="M21870 24242
L21870 17952
" />
<path d="M30885 10669
L30885 16958
" />
<path d="M30885 16958
L32893 16958
" />
<path d="M32893 16958
L32893 10669
" />
<path d="M28799 13188
L28799 13582
" />
<path d="M29468 13582
L29468 13188
" />
</g> 
</svg>
