<?xml version="1.0" standalone="no"?>
 <!DOCTYPE svg PUBLIC "-//W3C//DTD SVG 1.1//EN" 
 "http://www.w3.org/Graphics/SVG/1.1/DTD/svg11.dtd"> 
<svg xmlns="http://www.w3.org/2000/svg" version="1.1" 
    width="29.7002cm" height="21.0007cm" viewBox="0 0 116930 82680 ">
<title>SVG Picture created as stm32f030-eth-B.SilkS.svg date 2017/03/20 19:31:27 </title>
  <desc>Picture generated by PCBNEW </desc>
<g style="fill:#000000; fill-opacity:1;stroke:#000000; stroke-opacity:1;
stroke-linecap:round; stroke-linejoin:round; "
 transform="translate(0 0) scale(1 1)">
</g>
<g style="fill:#000000; fill-opacity:0.0; 
stroke:#000000; stroke-width:-0.000393701; stroke-opacity:1; 
stroke-linecap:round; stroke-linejoin:round;">
</g>
<g style="fill:#000000; fill-opacity:0.0; 
stroke:#000000; stroke-width:39.3701; stroke-opacity:1; 
stroke-linecap:round; stroke-linejoin:round;">
</g>
<g style="fill:#000000; fill-opacity:0.0; 
stroke:#000000; stroke-width:59.0551; stroke-opacity:1; 
stroke-linecap:round; stroke-linejoin:round;">
<rect x="69685.9" y="65357.2" width="42519.7" height="12598.4" rx="0" />
</g>
<g style="fill:#000000; fill-opacity:0.0; 
stroke:#000000; stroke-width:39.3701; stroke-opacity:1; 
stroke-linecap:round; stroke-linejoin:round;">
</g>
<g style="fill:#000000; fill-opacity:0.0; 
stroke:#000000; stroke-width:59.0551; stroke-opacity:1; 
stroke-linecap:round; stroke-linejoin:round;">
<rect x="3937.01" y="3937.01" width="109056" height="74806" rx="0" />
</g>
<g style="fill:#000000; fill-opacity:0.0; 
stroke:#000000; stroke-width:39.3701; stroke-opacity:1; 
stroke-linecap:round; stroke-linejoin:round;">
</g>
<g style="fill:#000000; fill-opacity:0.0; 
stroke:#000000; stroke-width:59.0551; stroke-opacity:1; 
stroke-linecap:round; stroke-linejoin:round;">
<rect x="4724.41" y="4724.41" width="107481" height="73231.2" rx="0" />
</g>
<g style="fill:#000000; fill-opacity:0.0; 
stroke:#000000; stroke-width:39.3701; stroke-opacity:1; 
stroke-linecap:round; stroke-linejoin:round;">
</g>
<g style="fill:#000000; fill-opacity:0.0; 
stroke:#000000; stroke-width:59.0551; stroke-opacity:1; 
stroke-linecap:round; stroke-linejoin:round;">
<path d="M23622 4724
L23622 3937
" />
</g>
<g style="fill:#000000; fill-opacity:0.0; 
stroke:#000000; stroke-width:39.3701; stroke-opacity:1; 
stroke-linecap:round; stroke-linejoin:round;">
</g>
<g style="fill:#000000; fill-opacity:0.0; 
stroke:#000000; stroke-width:59.0551; stroke-opacity:1; 
stroke-linecap:round; stroke-linejoin:round;">
<path d="M43307 4724
L43307 3937
" />
</g>
<g style="fill:#000000; fill-opacity:0.0; 
stroke:#000000; stroke-width:39.3701; stroke-opacity:1; 
stroke-linecap:round; stroke-linejoin:round;">
</g>
<g style="fill:#000000; fill-opacity:0.0; 
stroke:#000000; stroke-width:59.0551; stroke-opacity:1; 
stroke-linecap:round; stroke-linejoin:round;">
<path d="M62992 4724
L62992 3937
" />
</g>
<g style="fill:#000000; fill-opacity:0.0; 
stroke:#000000; stroke-width:39.3701; stroke-opacity:1; 
stroke-linecap:round; stroke-linejoin:round;">
</g>
<g style="fill:#000000; fill-opacity:0.0; 
stroke:#000000; stroke-width:59.0551; stroke-opacity:1; 
stroke-linecap:round; stroke-linejoin:round;">
<path d="M82677 4724
L82677 3937
" />
</g>
<g style="fill:#000000; fill-opacity:0.0; 
stroke:#000000; stroke-width:39.3701; stroke-opacity:1; 
stroke-linecap:round; stroke-linejoin:round;">
</g>
<g style="fill:#000000; fill-opacity:0.0; 
stroke:#000000; stroke-width:59.0551; stroke-opacity:1; 
stroke-linecap:round; stroke-linejoin:round;">
<path d="M102362 4724
L102362 3937
" />
</g>
<g style="fill:#000000; fill-opacity:0.0; 
stroke:#000000; stroke-width:39.3701; stroke-opacity:1; 
stroke-linecap:round; stroke-linejoin:round;">
</g>
<g style="fill:#000000; fill-opacity:0.0; 
stroke:#000000; stroke-width:59.0551; stroke-opacity:1; 
stroke-linecap:round; stroke-linejoin:round;">
<path d="M14169 4562
L13877 4562
" />
<path d="M14023 4562
L14023 4050
L13974 4123
L13925 4172
L13877 4196
" />
</g>
<g style="fill:#000000; fill-opacity:0.0; 
stroke:#000000; stroke-width:39.3701; stroke-opacity:1; 
stroke-linecap:round; stroke-linejoin:round;">
</g>
<g style="fill:#000000; fill-opacity:0.0; 
stroke:#000000; stroke-width:59.0551; stroke-opacity:1; 
stroke-linecap:round; stroke-linejoin:round;">
<path d="M33562 4099
L33586 4074
L33635 4050
L33757 4050
L33805 4074
L33830 4099
L33854 4147
L33854 4196
L33830 4269
L33537 4562
L33854 4562
" />
</g>
<g style="fill:#000000; fill-opacity:0.0; 
stroke:#000000; stroke-width:39.3701; stroke-opacity:1; 
stroke-linecap:round; stroke-linejoin:round;">
</g>
<g style="fill:#000000; fill-opacity:0.0; 
stroke:#000000; stroke-width:59.0551; stroke-opacity:1; 
stroke-linecap:round; stroke-linejoin:round;">
<path d="M53222 4050
L53539 4050
L53368 4245
L53442 4245
L53490 4269
L53515 4294
L53539 4342
L53539 4464
L53515 4513
L53490 4537
L53442 4562
L53295 4562
L53247 4537
L53222 4513
" />
</g>
<g style="fill:#000000; fill-opacity:0.0; 
stroke:#000000; stroke-width:39.3701; stroke-opacity:1; 
stroke-linecap:round; stroke-linejoin:round;">
</g>
<g style="fill:#000000; fill-opacity:0.0; 
stroke:#000000; stroke-width:59.0551; stroke-opacity:1; 
stroke-linecap:round; stroke-linejoin:round;">
<path d="M73175 4221
L73175 4562
" />
<path d="M73053 4026
L72932 4391
L73248 4391
" />
</g>
<g style="fill:#000000; fill-opacity:0.0; 
stroke:#000000; stroke-width:39.3701; stroke-opacity:1; 
stroke-linecap:round; stroke-linejoin:round;">
</g>
<g style="fill:#000000; fill-opacity:0.0; 
stroke:#000000; stroke-width:59.0551; stroke-opacity:1; 
stroke-linecap:round; stroke-linejoin:round;">
<path d="M92885 4050
L92641 4050
L92617 4294
L92641 4269
L92690 4245
L92812 4245
L92860 4269
L92885 4294
L92909 4342
L92909 4464
L92885 4513
L92860 4537
L92812 4562
L92690 4562
L92641 4537
L92617 4513
" />
</g>
<g style="fill:#000000; fill-opacity:0.0; 
stroke:#000000; stroke-width:39.3701; stroke-opacity:1; 
stroke-linecap:round; stroke-linejoin:round;">
</g>
<g style="fill:#000000; fill-opacity:0.0; 
stroke:#000000; stroke-width:59.0551; stroke-opacity:1; 
stroke-linecap:round; stroke-linejoin:round;">
<path d="M112545 4050
L112448 4050
L112399 4074
L112375 4099
L112326 4172
L112302 4269
L112302 4464
L112326 4513
L112350 4537
L112399 4562
L112497 4562
L112545 4537
L112570 4513
L112594 4464
L112594 4342
L112570 4294
L112545 4269
L112497 4245
L112399 4245
L112350 4269
L112326 4294
L112302 4342
" />
</g>
<g style="fill:#000000; fill-opacity:0.0; 
stroke:#000000; stroke-width:39.3701; stroke-opacity:1; 
stroke-linecap:round; stroke-linejoin:round;">
</g>
<g style="fill:#000000; fill-opacity:0.0; 
stroke:#000000; stroke-width:59.0551; stroke-opacity:1; 
stroke-linecap:round; stroke-linejoin:round;">
<path d="M23622 77955
L23622 78742
" />
</g>
<g style="fill:#000000; fill-opacity:0.0; 
stroke:#000000; stroke-width:39.3701; stroke-opacity:1; 
stroke-linecap:round; stroke-linejoin:round;">
</g>
<g style="fill:#000000; fill-opacity:0.0; 
stroke:#000000; stroke-width:59.0551; stroke-opacity:1; 
stroke-linecap:round; stroke-linejoin:round;">
<path d="M43307 77955
L43307 78742
" />
</g>
<g style="fill:#000000; fill-opacity:0.0; 
stroke:#000000; stroke-width:39.3701; stroke-opacity:1; 
stroke-linecap:round; stroke-linejoin:round;">
</g>
<g style="fill:#000000; fill-opacity:0.0; 
stroke:#000000; stroke-width:59.0551; stroke-opacity:1; 
stroke-linecap:round; stroke-linejoin:round;">
<path d="M62992 77955
L62992 78742
" />
</g>
<g style="fill:#000000; fill-opacity:0.0; 
stroke:#000000; stroke-width:39.3701; stroke-opacity:1; 
stroke-linecap:round; stroke-linejoin:round;">
</g>
<g style="fill:#000000; fill-opacity:0.0; 
stroke:#000000; stroke-width:59.0551; stroke-opacity:1; 
stroke-linecap:round; stroke-linejoin:round;">
<path d="M82677 77955
L82677 78742
" />
</g>
<g style="fill:#000000; fill-opacity:0.0; 
stroke:#000000; stroke-width:39.3701; stroke-opacity:1; 
stroke-linecap:round; stroke-linejoin:round;">
</g>
<g style="fill:#000000; fill-opacity:0.0; 
stroke:#000000; stroke-width:59.0551; stroke-opacity:1; 
stroke-linecap:round; stroke-linejoin:round;">
<path d="M102362 77955
L102362 78742
" />
</g>
<g style="fill:#000000; fill-opacity:0.0; 
stroke:#000000; stroke-width:39.3701; stroke-opacity:1; 
stroke-linecap:round; stroke-linejoin:round;">
</g>
<g style="fill:#000000; fill-opacity:0.0; 
stroke:#000000; stroke-width:59.0551; stroke-opacity:1; 
stroke-linecap:round; stroke-linejoin:round;">
<path d="M14169 78580
L13877 78580
" />
<path d="M14023 78580
L14023 78069
L13974 78142
L13925 78190
L13877 78215
" />
</g>
<g style="fill:#000000; fill-opacity:0.0; 
stroke:#000000; stroke-width:39.3701; stroke-opacity:1; 
stroke-linecap:round; stroke-linejoin:round;">
</g>
<g style="fill:#000000; fill-opacity:0.0; 
stroke:#000000; stroke-width:59.0551; stroke-opacity:1; 
stroke-linecap:round; stroke-linejoin:round;">
<path d="M33562 78117
L33586 78093
L33635 78069
L33757 78069
L33805 78093
L33830 78117
L33854 78166
L33854 78215
L33830 78288
L33537 78580
L33854 78580
" />
</g>
<g style="fill:#000000; fill-opacity:0.0; 
stroke:#000000; stroke-width:39.3701; stroke-opacity:1; 
stroke-linecap:round; stroke-linejoin:round;">
</g>
<g style="fill:#000000; fill-opacity:0.0; 
stroke:#000000; stroke-width:59.0551; stroke-opacity:1; 
stroke-linecap:round; stroke-linejoin:round;">
<path d="M53222 78069
L53539 78069
L53368 78263
L53442 78263
L53490 78288
L53515 78312
L53539 78361
L53539 78483
L53515 78532
L53490 78556
L53442 78580
L53295 78580
L53247 78556
L53222 78532
" />
</g>
<g style="fill:#000000; fill-opacity:0.0; 
stroke:#000000; stroke-width:39.3701; stroke-opacity:1; 
stroke-linecap:round; stroke-linejoin:round;">
</g>
<g style="fill:#000000; fill-opacity:0.0; 
stroke:#000000; stroke-width:59.0551; stroke-opacity:1; 
stroke-linecap:round; stroke-linejoin:round;">
<path d="M73175 78239
L73175 78580
" />
<path d="M73053 78044
L72932 78410
L73248 78410
" />
</g>
<g style="fill:#000000; fill-opacity:0.0; 
stroke:#000000; stroke-width:39.3701; stroke-opacity:1; 
stroke-linecap:round; stroke-linejoin:round;">
</g>
<g style="fill:#000000; fill-opacity:0.0; 
stroke:#000000; stroke-width:59.0551; stroke-opacity:1; 
stroke-linecap:round; stroke-linejoin:round;">
<path d="M92885 78069
L92641 78069
L92617 78312
L92641 78288
L92690 78263
L92812 78263
L92860 78288
L92885 78312
L92909 78361
L92909 78483
L92885 78532
L92860 78556
L92812 78580
L92690 78580
L92641 78556
L92617 78532
" />
</g>
<g style="fill:#000000; fill-opacity:0.0; 
stroke:#000000; stroke-width:39.3701; stroke-opacity:1; 
stroke-linecap:round; stroke-linejoin:round;">
</g>
<g style="fill:#000000; fill-opacity:0.0; 
stroke:#000000; stroke-width:59.0551; stroke-opacity:1; 
stroke-linecap:round; stroke-linejoin:round;">
<path d="M112545 78069
L112448 78069
L112399 78093
L112375 78117
L112326 78190
L112302 78288
L112302 78483
L112326 78532
L112350 78556
L112399 78580
L112497 78580
L112545 78556
L112570 78532
L112594 78483
L112594 78361
L112570 78312
L112545 78288
L112497 78263
L112399 78263
L112350 78288
L112326 78312
L112302 78361
" />
</g>
<g style="fill:#000000; fill-opacity:0.0; 
stroke:#000000; stroke-width:39.3701; stroke-opacity:1; 
stroke-linecap:round; stroke-linejoin:round;">
</g>
<g style="fill:#000000; fill-opacity:0.0; 
stroke:#000000; stroke-width:59.0551; stroke-opacity:1; 
stroke-linecap:round; stroke-linejoin:round;">
<path d="M3937 23622
L4724 23622
" />
</g>
<g style="fill:#000000; fill-opacity:0.0; 
stroke:#000000; stroke-width:39.3701; stroke-opacity:1; 
stroke-linecap:round; stroke-linejoin:round;">
</g>
<g style="fill:#000000; fill-opacity:0.0; 
stroke:#000000; stroke-width:59.0551; stroke-opacity:1; 
stroke-linecap:round; stroke-linejoin:round;">
<path d="M3937 43307
L4724 43307
" />
</g>
<g style="fill:#000000; fill-opacity:0.0; 
stroke:#000000; stroke-width:39.3701; stroke-opacity:1; 
stroke-linecap:round; stroke-linejoin:round;">
</g>
<g style="fill:#000000; fill-opacity:0.0; 
stroke:#000000; stroke-width:59.0551; stroke-opacity:1; 
stroke-linecap:round; stroke-linejoin:round;">
<path d="M3937 62992
L4724 62992
" />
</g>
<g style="fill:#000000; fill-opacity:0.0; 
stroke:#000000; stroke-width:39.3701; stroke-opacity:1; 
stroke-linecap:round; stroke-linejoin:round;">
</g>
<g style="fill:#000000; fill-opacity:0.0; 
stroke:#000000; stroke-width:59.0551; stroke-opacity:1; 
stroke-linecap:round; stroke-linejoin:round;">
<path d="M4208 13864
L4452 13864
" />
<path d="M4160 14011
L4330 13499
L4501 14011
" />
</g>
<g style="fill:#000000; fill-opacity:0.0; 
stroke:#000000; stroke-width:39.3701; stroke-opacity:1; 
stroke-linecap:round; stroke-linejoin:round;">
</g>
<g style="fill:#000000; fill-opacity:0.0; 
stroke:#000000; stroke-width:59.0551; stroke-opacity:1; 
stroke-linecap:round; stroke-linejoin:round;">
<path d="M4367 33428
L4440 33452
L4464 33476
L4489 33525
L4489 33598
L4464 33647
L4440 33671
L4391 33696
L4196 33696
L4196 33184
L4367 33184
L4416 33208
L4440 33233
L4464 33281
L4464 33330
L4440 33379
L4416 33403
L4367 33428
L4196 33428
" />
</g>
<g style="fill:#000000; fill-opacity:0.0; 
stroke:#000000; stroke-width:39.3701; stroke-opacity:1; 
stroke-linecap:round; stroke-linejoin:round;">
</g>
<g style="fill:#000000; fill-opacity:0.0; 
stroke:#000000; stroke-width:59.0551; stroke-opacity:1; 
stroke-linecap:round; stroke-linejoin:round;">
<path d="M4489 53332
L4464 53356
L4391 53381
L4342 53381
L4269 53356
L4221 53308
L4196 53259
L4172 53161
L4172 53088
L4196 52991
L4221 52942
L4269 52893
L4342 52869
L4391 52869
L4464 52893
L4489 52918
" />
</g>
<g style="fill:#000000; fill-opacity:0.0; 
stroke:#000000; stroke-width:39.3701; stroke-opacity:1; 
stroke-linecap:round; stroke-linejoin:round;">
</g>
<g style="fill:#000000; fill-opacity:0.0; 
stroke:#000000; stroke-width:59.0551; stroke-opacity:1; 
stroke-linecap:round; stroke-linejoin:round;">
<path d="M4196 73066
L4196 72554
L4318 72554
L4391 72578
L4440 72627
L4464 72676
L4489 72773
L4489 72846
L4464 72944
L4440 72993
L4391 73041
L4318 73066
L4196 73066
" />
</g>
<g style="fill:#000000; fill-opacity:0.0; 
stroke:#000000; stroke-width:39.3701; stroke-opacity:1; 
stroke-linecap:round; stroke-linejoin:round;">
</g>
<g style="fill:#000000; fill-opacity:0.0; 
stroke:#000000; stroke-width:59.0551; stroke-opacity:1; 
stroke-linecap:round; stroke-linejoin:round;">
<path d="M112992 23622
L112205 23622
" />
</g>
<g style="fill:#000000; fill-opacity:0.0; 
stroke:#000000; stroke-width:39.3701; stroke-opacity:1; 
stroke-linecap:round; stroke-linejoin:round;">
</g>
<g style="fill:#000000; fill-opacity:0.0; 
stroke:#000000; stroke-width:59.0551; stroke-opacity:1; 
stroke-linecap:round; stroke-linejoin:round;">
<path d="M112992 43307
L112205 43307
" />
</g>
<g style="fill:#000000; fill-opacity:0.0; 
stroke:#000000; stroke-width:39.3701; stroke-opacity:1; 
stroke-linecap:round; stroke-linejoin:round;">
</g>
<g style="fill:#000000; fill-opacity:0.0; 
stroke:#000000; stroke-width:59.0551; stroke-opacity:1; 
stroke-linecap:round; stroke-linejoin:round;">
<path d="M112992 62992
L112205 62992
" />
</g>
<g style="fill:#000000; fill-opacity:0.0; 
stroke:#000000; stroke-width:39.3701; stroke-opacity:1; 
stroke-linecap:round; stroke-linejoin:round;">
</g>
<g style="fill:#000000; fill-opacity:0.0; 
stroke:#000000; stroke-width:59.0551; stroke-opacity:1; 
stroke-linecap:round; stroke-linejoin:round;">
<path d="M112477 13864
L112721 13864
" />
<path d="M112428 14011
L112599 13499
L112769 14011
" />
</g>
<g style="fill:#000000; fill-opacity:0.0; 
stroke:#000000; stroke-width:39.3701; stroke-opacity:1; 
stroke-linecap:round; stroke-linejoin:round;">
</g>
<g style="fill:#000000; fill-opacity:0.0; 
stroke:#000000; stroke-width:59.0551; stroke-opacity:1; 
stroke-linecap:round; stroke-linejoin:round;">
<path d="M112635 33428
L112708 33452
L112733 33476
L112757 33525
L112757 33598
L112733 33647
L112708 33671
L112660 33696
L112465 33696
L112465 33184
L112635 33184
L112684 33208
L112708 33233
L112733 33281
L112733 33330
L112708 33379
L112684 33403
L112635 33428
L112465 33428
" />
</g>
<g style="fill:#000000; fill-opacity:0.0; 
stroke:#000000; stroke-width:39.3701; stroke-opacity:1; 
stroke-linecap:round; stroke-linejoin:round;">
</g>
<g style="fill:#000000; fill-opacity:0.0; 
stroke:#000000; stroke-width:59.0551; stroke-opacity:1; 
stroke-linecap:round; stroke-linejoin:round;">
<path d="M112757 53332
L112733 53356
L112660 53381
L112611 53381
L112538 53356
L112489 53308
L112465 53259
L112440 53161
L112440 53088
L112465 52991
L112489 52942
L112538 52893
L112611 52869
L112660 52869
L112733 52893
L112757 52918
" />
</g>
<g style="fill:#000000; fill-opacity:0.0; 
stroke:#000000; stroke-width:39.3701; stroke-opacity:1; 
stroke-linecap:round; stroke-linejoin:round;">
</g>
<g style="fill:#000000; fill-opacity:0.0; 
stroke:#000000; stroke-width:59.0551; stroke-opacity:1; 
stroke-linecap:round; stroke-linejoin:round;">
<path d="M112465 73066
L112465 72554
L112587 72554
L112660 72578
L112708 72627
L112733 72676
L112757 72773
L112757 72846
L112733 72944
L112708 72993
L112660 73041
L112587 73066
L112465 73066
" />
</g>
<g style="fill:#000000; fill-opacity:0.0; 
stroke:#000000; stroke-width:39.3701; stroke-opacity:1; 
stroke-linecap:round; stroke-linejoin:round;">
</g>
<g style="fill:#000000; fill-opacity:0.0; 
stroke:#000000; stroke-width:59.0551; stroke-opacity:1; 
stroke-linecap:round; stroke-linejoin:round;">
<path d="M78881 76293
L78881 75703
L79022 75703
L79106 75731
L79162 75787
L79190 75843
L79219 75956
L79219 76040
L79190 76153
L79162 76209
L79106 76265
L79022 76293
L78881 76293
" />
<path d="M79725 76293
L79725 75984
L79697 75928
L79640 75899
L79528 75899
L79472 75928
" />
<path d="M79725 76265
L79669 76293
L79528 76293
L79472 76265
L79444 76209
L79444 76153
L79472 76096
L79528 76068
L79669 76068
L79725 76040
" />
<path d="M79922 75899
L80147 75899
" />
<path d="M80006 75703
L80006 76209
L80034 76265
L80090 76293
L80147 76293
" />
<path d="M80568 76265
L80512 76293
L80400 76293
L80343 76265
L80315 76209
L80315 75984
L80343 75928
L80400 75899
L80512 75899
L80568 75928
L80597 75984
L80597 76040
L80315 76096
" />
<path d="M80850 76237
L80878 76265
L80850 76293
L80822 76265
L80850 76237
L80850 76293
" />
<path d="M80850 75928
L80878 75956
L80850 75984
L80822 75956
L80850 75928
L80850 75984
" />
</g>
<g style="fill:#000000; fill-opacity:0.0; 
stroke:#000000; stroke-width:39.3701; stroke-opacity:1; 
stroke-linecap:round; stroke-linejoin:round;">
</g>
<g style="fill:#000000; fill-opacity:0.0; 
stroke:#000000; stroke-width:59.0551; stroke-opacity:1; 
stroke-linecap:round; stroke-linejoin:round;">
<path d="M69685 76577
L112205 76577
" />
</g>
<g style="fill:#000000; fill-opacity:0.0; 
stroke:#000000; stroke-width:39.3701; stroke-opacity:1; 
stroke-linecap:round; stroke-linejoin:round;">
</g>
<g style="fill:#000000; fill-opacity:0.0; 
stroke:#000000; stroke-width:59.0551; stroke-opacity:1; 
stroke-linecap:round; stroke-linejoin:round;">
<path d="M70220 77395
L70220 76805
" />
<path d="M70557 77395
L70304 77058
" />
<path d="M70557 76805
L70220 77142
" />
<path d="M70810 77395
L70810 77002
" />
<path d="M70810 76805
L70782 76833
L70810 76861
L70838 76833
L70810 76805
L70810 76861
" />
<path d="M71429 77339
L71401 77367
L71316 77395
L71260 77395
L71176 77367
L71120 77311
L71091 77255
L71063 77142
L71063 77058
L71091 76946
L71120 76889
L71176 76833
L71260 76805
L71316 76805
L71401 76833
L71429 76861
" />
<path d="M71935 77395
L71935 77086
L71907 77030
L71851 77002
L71738 77002
L71682 77030
" />
<path d="M71935 77367
L71879 77395
L71738 77395
L71682 77367
L71654 77311
L71654 77255
L71682 77199
L71738 77171
L71879 77171
L71935 77142
" />
<path d="M72469 77395
L72469 76805
" />
<path d="M72469 77367
L72413 77395
L72301 77395
L72244 77367
L72216 77339
L72188 77283
L72188 77114
L72216 77058
L72244 77030
L72301 77002
L72413 77002
L72469 77030
" />
<path d="M73201 77086
L73397 77086
" />
<path d="M73482 77395
L73201 77395
L73201 76805
L73482 76805
" />
<path d="M73735 77339
L73763 77367
L73735 77395
L73707 77367
L73735 77339
L73735 77395
" />
<path d="M74016 77395
L74016 76805
L74157 76805
L74241 76833
L74297 76889
L74325 76946
L74354 77058
L74354 77142
L74325 77255
L74297 77311
L74241 77367
L74157 77395
L74016 77395
" />
<path d="M74607 77339
L74635 77367
L74607 77395
L74579 77367
L74607 77339
L74607 77395
" />
<path d="M74860 77227
L75141 77227
" />
<path d="M74804 77395
L75000 76805
L75197 77395
" />
<path d="M75394 77339
L75422 77367
L75394 77395
L75366 77367
L75394 77339
L75394 77395
" />
<path d="M76575 77395
L76575 76805
" />
<path d="M76631 77171
L76800 77395
" />
<path d="M76800 77002
L76575 77227
" />
<path d="M77053 77395
L77053 77002
" />
<path d="M77053 76805
L77025 76833
L77053 76861
L77081 76833
L77053 76805
L77053 76861
" />
<path d="M77588 77367
L77531 77395
L77419 77395
L77363 77367
L77334 77339
L77306 77283
L77306 77114
L77334 77058
L77363 77030
L77419 77002
L77531 77002
L77588 77030
" />
<path d="M78094 77395
L78094 77086
L78066 77030
L78009 77002
L77897 77002
L77841 77030
" />
<path d="M78094 77367
L78037 77395
L77897 77395
L77841 77367
L77813 77311
L77813 77255
L77841 77199
L77897 77171
L78037 77171
L78094 77142
" />
<path d="M78628 77395
L78628 76805
" />
<path d="M78628 77367
L78572 77395
L78459 77395
L78403 77367
L78375 77339
L78347 77283
L78347 77114
L78375 77058
L78403 77030
L78459 77002
L78572 77002
L78628 77030
" />
<path d="M79612 77002
L79612 77395
" />
<path d="M79472 76777
L79331 77199
L79697 77199
" />
<path d="M79922 77339
L79950 77367
L79922 77395
L79894 77367
L79922 77339
L79922 77395
" />
<path d="M80315 76805
L80372 76805
L80428 76833
L80456 76861
L80484 76917
L80512 77030
L80512 77171
L80484 77283
L80456 77339
L80428 77367
L80372 77395
L80315 77395
L80259 77367
L80231 77339
L80203 77283
L80175 77171
L80175 77030
L80203 76917
L80231 76861
L80259 76833
L80315 76805
" />
<path d="M80765 77339
L80793 77367
L80765 77395
L80737 77367
L80765 77339
L80765 77395
" />
<path d="M81300 76805
L81187 76805
L81131 76833
L81103 76861
L81046 76946
L81018 77058
L81018 77283
L81046 77339
L81075 77367
L81131 77395
L81243 77395
L81300 77367
L81328 77339
L81356 77283
L81356 77142
L81328 77086
L81300 77058
L81243 77030
L81131 77030
L81075 77058
L81046 77086
L81018 77142
" />
<path d="M81609 77171
L82059 77171
" />
<path d="M82565 77367
L82509 77395
L82396 77395
L82340 77367
L82312 77311
L82312 77086
L82340 77030
L82396 77002
L82509 77002
L82565 77030
L82593 77086
L82593 77142
L82312 77199
" />
<path d="M82959 76805
L83015 76805
L83071 76833
L83099 76861
L83127 76917
L83156 77030
L83156 77171
L83127 77283
L83099 77339
L83071 77367
L83015 77395
L82959 77395
L82903 77367
L82874 77339
L82846 77283
L82818 77171
L82818 77030
L82846 76917
L82874 76861
L82903 76833
L82959 76805
" />
<path d="M83409 77171
L83859 77171
" />
<path d="M84393 76805
L84280 76805
L84224 76833
L84196 76861
L84140 76946
L84112 77058
L84112 77283
L84140 77339
L84168 77367
L84224 77395
L84337 77395
L84393 77367
L84421 77339
L84449 77283
L84449 77142
L84421 77086
L84393 77058
L84337 77030
L84224 77030
L84168 77058
L84140 77086
L84112 77142
" />
<path d="M84646 76805
L85012 76805
L84815 77030
L84899 77030
L84955 77058
L84983 77086
L85012 77142
L85012 77283
L84983 77339
L84955 77367
L84899 77395
L84730 77395
L84674 77367
L84646 77339
" />
<path d="M85518 77002
L85518 77395
" />
<path d="M85377 76777
L85237 77199
L85602 77199
" />
<path d="M85855 77395
L85968 77395
L86024 77367
L86052 77339
L86108 77255
L86136 77142
L86136 76917
L86108 76861
L86080 76833
L86024 76805
L85912 76805
L85855 76833
L85827 76861
L85799 76917
L85799 77058
L85827 77114
L85855 77142
L85912 77171
L86024 77171
L86080 77142
L86108 77114
L86136 77058
" />
<path d="M86671 76805
L86390 76805
L86361 77086
L86390 77058
L86446 77030
L86586 77030
L86643 77058
L86671 77086
L86699 77142
L86699 77283
L86671 77339
L86643 77367
L86586 77395
L86446 77395
L86390 77367
L86361 77339
" />
<path d="M86896 76805
L87261 76805
L87064 77030
L87149 77030
L87205 77058
L87233 77086
L87261 77142
L87261 77283
L87233 77339
L87205 77367
L87149 77395
L86980 77395
L86924 77367
L86896 77339
" />
<path d="M86249 76703
L87374 76703
" />
<path d="M87768 77002
L87768 77395
" />
<path d="M87514 77002
L87514 77311
L87543 77367
L87599 77395
L87683 77395
L87739 77367
L87768 77339
" />
<path d="M88049 77395
L88049 76805
" />
<path d="M88049 77030
L88105 77002
L88217 77002
L88274 77030
L88302 77058
L88330 77114
L88330 77283
L88302 77339
L88274 77367
L88217 77395
L88105 77395
L88049 77367
" />
<path d="M88836 77002
L88836 77395
" />
<path d="M88583 77002
L88583 77311
L88611 77367
L88667 77395
L88752 77395
L88808 77367
L88836 77339
" />
<path d="M89117 77002
L89117 77395
" />
<path d="M89117 77058
L89145 77030
L89202 77002
L89286 77002
L89342 77030
L89370 77086
L89370 77395
" />
<path d="M89567 77002
L89792 77002
" />
<path d="M89652 76805
L89652 77311
L89680 77367
L89736 77395
L89792 77395
" />
<path d="M90242 77002
L90242 77395
" />
<path d="M89989 77002
L89989 77311
L90017 77367
L90073 77395
L90158 77395
L90214 77367
L90242 77339
" />
<path d="M90833 77395
L90495 77395
" />
<path d="M90664 77395
L90664 76805
L90608 76889
L90552 76946
L90495 76974
" />
<path d="M91339 76805
L91226 76805
L91170 76833
L91142 76861
L91086 76946
L91058 77058
L91058 77283
L91086 77339
L91114 77367
L91170 77395
L91283 77395
L91339 77367
L91367 77339
L91395 77283
L91395 77142
L91367 77086
L91339 77058
L91283 77030
L91170 77030
L91114 77058
L91086 77086
L91058 77142
" />
<path d="M91648 77339
L91676 77367
L91648 77395
L91620 77367
L91648 77339
L91648 77395
" />
<path d="M92042 76805
L92098 76805
L92154 76833
L92183 76861
L92211 76917
L92239 77030
L92239 77171
L92211 77283
L92183 77339
L92154 77367
L92098 77395
L92042 77395
L91986 77367
L91958 77339
L91929 77283
L91901 77171
L91901 77030
L91929 76917
L91958 76861
L91986 76833
L92042 76805
" />
<path d="M92745 77002
L92745 77395
" />
<path d="M92604 76777
L92464 77199
L92829 77199
" />
<path d="M93054 77339
L93082 77367
L93054 77395
L93026 77367
L93054 77339
L93054 77395
" />
<path d="M93645 77395
L93307 77395
" />
<path d="M93476 77395
L93476 76805
L93420 76889
L93364 76946
L93307 76974
" />
</g>
<g style="fill:#000000; fill-opacity:0.0; 
stroke:#000000; stroke-width:39.3701; stroke-opacity:1; 
stroke-linecap:round; stroke-linejoin:round;">
</g>
<g style="fill:#000000; fill-opacity:0.0; 
stroke:#000000; stroke-width:59.0551; stroke-opacity:1; 
stroke-linecap:round; stroke-linejoin:round;">
<path d="M69685 75396
L112205 75396
" />
</g>
<g style="fill:#000000; fill-opacity:0.0; 
stroke:#000000; stroke-width:39.3701; stroke-opacity:1; 
stroke-linecap:round; stroke-linejoin:round;">
</g>
<g style="fill:#000000; fill-opacity:0.0; 
stroke:#000000; stroke-width:118.11; stroke-opacity:1; 
stroke-linecap:round; stroke-linejoin:round;">
<path d="M104022 76293
L103825 76012
" />
<path d="M103684 76293
L103684 75703
L103909 75703
L103965 75731
L103994 75759
L104022 75815
L104022 75899
L103994 75956
L103965 75984
L103909 76012
L103684 76012
" />
<path d="M104500 76265
L104444 76293
L104331 76293
L104275 76265
L104247 76209
L104247 75984
L104275 75928
L104331 75899
L104444 75899
L104500 75928
L104528 75984
L104528 76040
L104247 76096
" />
<path d="M104725 75899
L104865 76293
L105006 75899
" />
<path d="M105231 76237
L105259 76265
L105231 76293
L105203 76265
L105231 76237
L105231 76293
" />
<path d="M105231 75928
L105259 75956
L105231 75984
L105203 75956
L105231 75928
L105231 75984
" />
</g>
<g style="fill:#000000; fill-opacity:0.0; 
stroke:#000000; stroke-width:39.3701; stroke-opacity:1; 
stroke-linecap:round; stroke-linejoin:round;">
</g>
<g style="fill:#000000; fill-opacity:0.0; 
stroke:#000000; stroke-width:59.0551; stroke-opacity:1; 
stroke-linecap:round; stroke-linejoin:round;">
<path d="M70192 76265
L70276 76293
L70417 76293
L70473 76265
L70501 76237
L70529 76181
L70529 76124
L70501 76068
L70473 76040
L70417 76012
L70304 75984
L70248 75956
L70220 75928
L70192 75871
L70192 75815
L70220 75759
L70248 75731
L70304 75703
L70445 75703
L70529 75731
" />
<path d="M70782 76293
L70782 75899
" />
<path d="M70782 75703
L70754 75731
L70782 75759
L70810 75731
L70782 75703
L70782 75759
" />
<path d="M71007 75899
L71316 75899
L71007 76293
L71316 76293
" />
<path d="M71766 76265
L71710 76293
L71598 76293
L71541 76265
L71513 76209
L71513 75984
L71541 75928
L71598 75899
L71710 75899
L71766 75928
L71795 75984
L71795 76040
L71513 76096
" />
<path d="M72048 76237
L72076 76265
L72048 76293
L72019 76265
L72048 76237
L72048 76293
" />
<path d="M72048 75928
L72076 75956
L72048 75984
L72019 75956
L72048 75928
L72048 75984
" />
<path d="M72751 76124
L73032 76124
" />
<path d="M72694 76293
L72891 75703
L73088 76293
" />
<path d="M73538 75899
L73538 76293
" />
<path d="M73397 75674
L73257 76096
L73622 76096
" />
</g>
<g style="fill:#000000; fill-opacity:0.0; 
stroke:#000000; stroke-width:39.3701; stroke-opacity:1; 
stroke-linecap:round; stroke-linejoin:round;">
</g>
<g style="fill:#000000; fill-opacity:0.0; 
stroke:#000000; stroke-width:59.0551; stroke-opacity:1; 
stroke-linecap:round; stroke-linejoin:round;">
<path d="M103684 77395
L103684 76805
" />
<path d="M104219 77395
L104219 76805
" />
<path d="M104219 77367
L104162 77395
L104050 77395
L103994 77367
L103965 77339
L103937 77283
L103937 77114
L103965 77058
L103994 77030
L104050 77002
L104162 77002
L104219 77030
" />
<path d="M104500 77339
L104528 77367
L104500 77395
L104472 77367
L104500 77339
L104500 77395
" />
<path d="M104500 77030
L104528 77058
L104500 77086
L104472 77058
L104500 77030
L104500 77086
" />
<path d="M105540 77395
L105203 77395
" />
<path d="M105372 77395
L105372 76805
L105315 76889
L105259 76946
L105203 76974
" />
<path d="M106215 76777
L105709 77536
" />
<path d="M106721 77395
L106384 77395
" />
<path d="M106553 77395
L106553 76805
L106496 76889
L106440 76946
L106384 76974
" />
</g>
<g style="fill:#000000; fill-opacity:0.0; 
stroke:#000000; stroke-width:39.3701; stroke-opacity:1; 
stroke-linecap:round; stroke-linejoin:round;">
</g>
<g style="fill:#000000; fill-opacity:0.0; 
stroke:#000000; stroke-width:59.0551; stroke-opacity:1; 
stroke-linecap:round; stroke-linejoin:round;">
<path d="M69685 73821
L112205 73821
" />
</g>
<g style="fill:#000000; fill-opacity:0.0; 
stroke:#000000; stroke-width:39.3701; stroke-opacity:1; 
stroke-linecap:round; stroke-linejoin:round;">
</g>
<g style="fill:#000000; fill-opacity:0.0; 
stroke:#000000; stroke-width:157.48; stroke-opacity:1; 
stroke-linecap:round; stroke-linejoin:round;">
<path d="M70257 74099
L70707 74099
" />
<path d="M70384 74886
L70482 74099
" />
<path d="M70871 74886
L70937 74361
" />
<path d="M70970 74099
L70927 74136
L70960 74174
L71002 74136
L70970 74099
L70960 74174
" />
<path d="M71199 74361
L71499 74361
" />
<path d="M71345 74099
L71260 74774
L71288 74849
L71359 74886
L71434 74886
" />
<path d="M71809 74886
L71738 74849
L71710 74774
L71795 74099
" />
<path d="M72413 74849
L72334 74886
L72184 74886
L72113 74849
L72085 74774
L72123 74474
L72169 74399
L72249 74361
L72399 74361
L72469 74399
L72498 74474
L72488 74549
L72104 74624
" />
<path d="M72793 74811
L72826 74849
L72783 74886
L72751 74849
L72793 74811
L72783 74886
" />
<path d="M72844 74399
L72877 74436
L72835 74474
L72802 74436
L72844 74399
L72835 74474
" />
</g>
<g style="fill:#000000; fill-opacity:0.0; 
stroke:#000000; stroke-width:39.3701; stroke-opacity:1; 
stroke-linecap:round; stroke-linejoin:round;">
</g>
<g style="fill:#000000; fill-opacity:0.0; 
stroke:#000000; stroke-width:59.0551; stroke-opacity:1; 
stroke-linecap:round; stroke-linejoin:round;">
<path d="M70417 73070
L70220 73070
" />
<path d="M70220 73380
L70220 72789
L70501 72789
" />
<path d="M70726 73380
L70726 72986
" />
<path d="M70726 72789
L70698 72817
L70726 72845
L70754 72817
L70726 72789
L70726 72845
" />
<path d="M71091 73380
L71035 73352
L71007 73295
L71007 72789
" />
<path d="M71541 73352
L71485 73380
L71373 73380
L71316 73352
L71288 73295
L71288 73070
L71316 73014
L71373 72986
L71485 72986
L71541 73014
L71570 73070
L71570 73127
L71288 73183
" />
<path d="M71823 73323
L71851 73352
L71823 73380
L71795 73352
L71823 73323
L71823 73380
" />
<path d="M71823 73014
L71851 73042
L71823 73070
L71795 73042
L71823 73014
L71823 73070
" />
<path d="M72526 73352
L72582 73380
L72694 73380
L72751 73352
L72779 73295
L72779 73267
L72751 73211
L72694 73183
L72610 73183
L72554 73155
L72526 73099
L72526 73070
L72554 73014
L72610 72986
L72694 72986
L72751 73014
" />
<path d="M72947 72986
L73172 72986
" />
<path d="M73032 72789
L73032 73295
L73060 73352
L73116 73380
L73172 73380
" />
<path d="M73369 73380
L73369 72986
" />
<path d="M73369 73042
L73397 73014
L73454 72986
L73538 72986
L73594 73014
L73622 73070
L73622 73380
" />
<path d="M73622 73070
L73651 73014
L73707 72986
L73791 72986
L73847 73014
L73876 73070
L73876 73380
" />
<path d="M74100 72789
L74466 72789
L74269 73014
L74354 73014
L74410 73042
L74438 73070
L74466 73127
L74466 73267
L74438 73323
L74410 73352
L74354 73380
L74185 73380
L74129 73352
L74100 73323
" />
<path d="M74691 72845
L74719 72817
L74775 72789
L74916 72789
L74972 72817
L75000 72845
L75028 72902
L75028 72958
L75000 73042
L74663 73380
L75028 73380
" />
<path d="M75197 72986
L75422 72986
" />
<path d="M75282 73380
L75282 72874
L75310 72817
L75366 72789
L75422 72789
" />
<path d="M75732 72789
L75788 72789
L75844 72817
L75872 72845
L75900 72902
L75928 73014
L75928 73155
L75900 73267
L75872 73323
L75844 73352
L75788 73380
L75732 73380
L75675 73352
L75647 73323
L75619 73267
L75591 73155
L75591 73014
L75619 72902
L75647 72845
L75675 72817
L75732 72789
" />
<path d="M76125 72789
L76491 72789
L76294 73014
L76378 73014
L76435 73042
L76463 73070
L76491 73127
L76491 73267
L76463 73323
L76435 73352
L76378 73380
L76210 73380
L76153 73352
L76125 73323
" />
<path d="M76856 72789
L76913 72789
L76969 72817
L76997 72845
L77025 72902
L77053 73014
L77053 73155
L77025 73267
L76997 73323
L76969 73352
L76913 73380
L76856 73380
L76800 73352
L76772 73323
L76744 73267
L76716 73155
L76716 73014
L76744 72902
L76772 72845
L76800 72817
L76856 72789
" />
<path d="M77306 73155
L77756 73155
" />
<path d="M78262 73352
L78206 73380
L78094 73380
L78037 73352
L78009 73295
L78009 73070
L78037 73014
L78094 72986
L78206 72986
L78262 73014
L78291 73070
L78291 73127
L78009 73183
" />
<path d="M78459 72986
L78684 72986
" />
<path d="M78544 72789
L78544 73295
L78572 73352
L78628 73380
L78684 73380
" />
<path d="M78881 73380
L78881 72789
" />
<path d="M79134 73380
L79134 73070
L79106 73014
L79050 72986
L78965 72986
L78909 73014
L78881 73042
" />
<path d="M79415 73323
L79444 73352
L79415 73380
L79387 73352
L79415 73323
L79415 73380
" />
<path d="M79697 73380
L79697 72789
" />
<path d="M79753 73155
L79922 73380
" />
<path d="M79922 72986
L79697 73211
" />
<path d="M80175 73380
L80175 72986
" />
<path d="M80175 72789
L80147 72817
L80175 72845
L80203 72817
L80175 72789
L80175 72845
" />
<path d="M80709 73352
L80653 73380
L80540 73380
L80484 73352
L80456 73323
L80428 73267
L80428 73099
L80456 73042
L80484 73014
L80540 72986
L80653 72986
L80709 73014
" />
<path d="M81215 73380
L81215 73070
L81187 73014
L81131 72986
L81018 72986
L80962 73014
" />
<path d="M81215 73352
L81159 73380
L81018 73380
L80962 73352
L80934 73295
L80934 73239
L80962 73183
L81018 73155
L81159 73155
L81215 73127
" />
<path d="M81750 73380
L81750 72789
" />
<path d="M81750 73352
L81693 73380
L81581 73380
L81525 73352
L81496 73323
L81468 73267
L81468 73099
L81496 73042
L81525 73014
L81581 72986
L81693 72986
L81750 73014
" />
<path d="M81890 73436
L82340 73436
" />
<path d="M82481 72986
L82481 73577
" />
<path d="M82481 73014
L82537 72986
L82649 72986
L82706 73014
L82734 73042
L82762 73099
L82762 73267
L82734 73323
L82706 73352
L82649 73380
L82537 73380
L82481 73352
" />
<path d="M83268 73352
L83212 73380
L83099 73380
L83043 73352
L83015 73323
L82987 73267
L82987 73099
L83015 73042
L83043 73014
L83099 72986
L83212 72986
L83268 73014
" />
<path d="M83521 73380
L83521 72789
" />
<path d="M83521 73014
L83577 72986
L83690 72986
L83746 73014
L83774 73042
L83802 73099
L83802 73267
L83774 73323
L83746 73352
L83690 73380
L83577 73380
L83521 73352
" />
</g>
<g style="fill:#000000; fill-opacity:0.0; 
stroke:#000000; stroke-width:39.3701; stroke-opacity:1; 
stroke-linecap:round; stroke-linejoin:round;">
</g>
<g style="fill:#000000; fill-opacity:0.0; 
stroke:#000000; stroke-width:59.0551; stroke-opacity:1; 
stroke-linecap:round; stroke-linejoin:round;">
<path d="M69685 71459
L112205 71459
" />
</g>
<g style="fill:#000000; fill-opacity:0.0; 
stroke:#000000; stroke-width:39.3701; stroke-opacity:1; 
stroke-linecap:round; stroke-linejoin:round;">
</g>
<g style="fill:#000000; fill-opacity:0.0; 
stroke:#000000; stroke-width:59.0551; stroke-opacity:1; 
stroke-linecap:round; stroke-linejoin:round;">
<path d="M70192 72289
L70276 72317
L70417 72317
L70473 72289
L70501 72260
L70529 72204
L70529 72148
L70501 72092
L70473 72064
L70417 72036
L70304 72007
L70248 71979
L70220 71951
L70192 71895
L70192 71839
L70220 71782
L70248 71754
L70304 71726
L70445 71726
L70529 71754
" />
<path d="M70782 72317
L70782 71726
" />
<path d="M71035 72317
L71035 72007
L71007 71951
L70951 71923
L70867 71923
L70810 71951
L70782 71979
" />
<path d="M71541 72289
L71485 72317
L71373 72317
L71316 72289
L71288 72232
L71288 72007
L71316 71951
L71373 71923
L71485 71923
L71541 71951
L71570 72007
L71570 72064
L71288 72120
" />
<path d="M72048 72289
L71991 72317
L71879 72317
L71823 72289
L71795 72232
L71795 72007
L71823 71951
L71879 71923
L71991 71923
L72048 71951
L72076 72007
L72076 72064
L71795 72120
" />
<path d="M72244 71923
L72469 71923
" />
<path d="M72329 71726
L72329 72232
L72357 72289
L72413 72317
L72469 72317
" />
<path d="M72666 72260
L72694 72289
L72666 72317
L72638 72289
L72666 72260
L72666 72317
" />
<path d="M72666 71951
L72694 71979
L72666 72007
L72638 71979
L72666 71951
L72666 72007
" />
</g>
<g style="fill:#000000; fill-opacity:0.0; 
stroke:#000000; stroke-width:39.3701; stroke-opacity:1; 
stroke-linecap:round; stroke-linejoin:round;">
</g>
<g style="fill:#000000; fill-opacity:0.0; 
stroke:#000000; stroke-width:59.0551; stroke-opacity:1; 
stroke-linecap:round; stroke-linejoin:round;">
<path d="M77559 75396
L77559 76577
" />
</g>
<g style="fill:#000000; fill-opacity:0.0; 
stroke:#000000; stroke-width:39.3701; stroke-opacity:1; 
stroke-linecap:round; stroke-linejoin:round;">
</g>
<g style="fill:#000000; fill-opacity:0.0; 
stroke:#000000; stroke-width:59.0551; stroke-opacity:1; 
stroke-linecap:round; stroke-linejoin:round;">
<path d="M102756 75396
L102756 77955
" />
</g>
<g style="fill:#840084; fill-opacity:0.0; 
stroke:#840084; stroke-width:59.0551; stroke-opacity:1; 
stroke-linecap:round; stroke-linejoin:round;">
</g>
<g style="fill:#840084; fill-opacity:0.0; 
stroke:#840084; stroke-width:118.11; stroke-opacity:1; 
stroke-linecap:round; stroke-linejoin:round;">
<path d="M34940 24479
L34940 23889
L34715 23889
L34659 23917
L34631 23945
L34603 24001
L34603 24086
L34631 24142
L34659 24170
L34715 24198
L34940 24198
" />
<path d="M34378 24311
L34097 24311
" />
<path d="M34434 24479
L34237 23889
L34041 24479
" />
<path d="M33562 23889
L33844 23889
L33872 24170
L33844 24142
L33787 24114
L33647 24114
L33591 24142
L33562 24170
L33534 24226
L33534 24367
L33562 24423
L33591 24451
L33647 24479
L33787 24479
L33844 24451
L33872 24423
" />
<path d="M34842 21330
L34842 20739
L34617 20739
L34561 20767
L34533 20795
L34505 20852
L34505 20936
L34533 20992
L34561 21020
L34617 21048
L34842 21048
" />
<path d="M34280 21161
L33998 21161
" />
<path d="M34336 21330
L34139 20739
L33942 21330
" />
<path d="M33492 20936
L33492 21330
" />
<path d="M33633 20711
L33773 21133
L33408 21133
" />
<path d="M34842 18278
L34842 17688
L34617 17688
L34561 17716
L34533 17744
L34505 17800
L34505 17885
L34533 17941
L34561 17969
L34617 17997
L34842 17997
" />
<path d="M34280 18110
L33998 18110
" />
<path d="M34336 18278
L34139 17688
L33942 18278
" />
<path d="M33802 17688
L33436 17688
L33633 17913
L33548 17913
L33492 17941
L33464 17969
L33436 18025
L33436 18166
L33464 18222
L33492 18250
L33548 18278
L33717 18278
L33773 18250
L33802 18222
" />
<path d="M34842 15227
L34842 14637
L34617 14637
L34561 14665
L34533 14693
L34505 14749
L34505 14834
L34533 14890
L34561 14918
L34617 14946
L34842 14946
" />
<path d="M34280 15059
L33998 15059
" />
<path d="M34336 15227
L34139 14637
L33942 15227
" />
<path d="M33773 14693
L33745 14665
L33689 14637
L33548 14637
L33492 14665
L33464 14693
L33436 14749
L33436 14805
L33464 14890
L33802 15227
L33436 15227
" />
<path d="M34744 11979
L34744 11389
L34519 11389
L34462 11417
L34434 11445
L34406 11501
L34406 11586
L34434 11642
L34462 11670
L34519 11698
L34744 11698
" />
<path d="M34181 11811
L33900 11811
" />
<path d="M34237 11979
L34041 11389
L33844 11979
" />
<path d="M33338 11979
L33675 11979
" />
<path d="M33506 11979
L33506 11389
L33562 11473
L33619 11529
L33675 11557
" />
<path d="M34744 8928
L34744 8338
L34519 8338
L34462 8366
L34434 8394
L34406 8450
L34406 8534
L34434 8591
L34462 8619
L34519 8647
L34744 8647
" />
<path d="M34181 8759
L33900 8759
" />
<path d="M34237 8928
L34041 8338
L33844 8928
" />
<path d="M33534 8338
L33478 8338
L33422 8366
L33394 8394
L33366 8450
L33338 8562
L33338 8703
L33366 8816
L33394 8872
L33422 8900
L33478 8928
L33534 8928
L33591 8900
L33619 8872
L33647 8816
L33675 8703
L33675 8562
L33647 8450
L33619 8394
L33591 8366
L33534 8338
" />
<path d="M34701 24901
L34758 24873
L34842 24873
L34926 24901
L34983 24957
L35011 25014
L35039 25126
L35039 25210
L35011 25323
L34983 25379
L34926 25435
L34842 25464
L34786 25464
L34701 25435
L34673 25407
L34673 25210
L34786 25210
" />
<path d="M34420 25464
L34420 24873
L34083 25464
L34083 24873
" />
<path d="M33802 25464
L33802 24873
L33661 24873
L33577 24901
L33520 24957
L33492 25014
L33464 25126
L33464 25210
L33492 25323
L33520 25379
L33577 25435
L33661 25464
L33802 25464
" />
<path d="M34603 21751
L34659 21723
L34744 21723
L34828 21751
L34884 21808
L34912 21864
L34940 21976
L34940 22061
L34912 22173
L34884 22230
L34828 22286
L34744 22314
L34687 22314
L34603 22286
L34575 22258
L34575 22061
L34687 22061
" />
<path d="M34322 22314
L34322 21723
L33984 22314
L33984 21723
" />
<path d="M33703 22314
L33703 21723
L33562 21723
L33478 21751
L33422 21808
L33394 21864
L33366 21976
L33366 22061
L33394 22173
L33422 22230
L33478 22286
L33562 22314
L33703 22314
" />
<path d="M34701 18700
L34758 18672
L34842 18672
L34926 18700
L34983 18757
L35011 18813
L35039 18925
L35039 19010
L35011 19122
L34983 19178
L34926 19235
L34842 19263
L34786 19263
L34701 19235
L34673 19206
L34673 19010
L34786 19010
" />
<path d="M34420 19263
L34420 18672
L34083 19263
L34083 18672
" />
<path d="M33802 19263
L33802 18672
L33661 18672
L33577 18700
L33520 18757
L33492 18813
L33464 18925
L33464 19010
L33492 19122
L33520 19178
L33577 19235
L33661 19263
L33802 19263
" />
<path d="M34603 15649
L34659 15621
L34744 15621
L34828 15649
L34884 15705
L34912 15762
L34940 15874
L34940 15958
L34912 16071
L34884 16127
L34828 16183
L34744 16212
L34687 16212
L34603 16183
L34575 16155
L34575 15958
L34687 15958
" />
<path d="M34322 16212
L34322 15621
L33984 16212
L33984 15621
" />
<path d="M33703 16212
L33703 15621
L33562 15621
L33478 15649
L33422 15705
L33394 15762
L33366 15874
L33366 15958
L33394 16071
L33422 16127
L33478 16183
L33562 16212
L33703 16212
" />
<path d="M34505 12500
L34561 12471
L34645 12471
L34730 12500
L34786 12556
L34814 12612
L34842 12724
L34842 12809
L34814 12921
L34786 12978
L34730 13034
L34645 13062
L34589 13062
L34505 13034
L34476 13006
L34476 12809
L34589 12809
" />
<path d="M34223 13062
L34223 12471
L33886 13062
L33886 12471
" />
<path d="M33605 13062
L33605 12471
L33464 12471
L33380 12500
L33323 12556
L33295 12612
L33267 12724
L33267 12809
L33295 12921
L33323 12978
L33380 13034
L33464 13062
L33605 13062
" />
<path d="M34505 9350
L34561 9322
L34645 9322
L34730 9350
L34786 9406
L34814 9462
L34842 9575
L34842 9659
L34814 9772
L34786 9828
L34730 9884
L34645 9912
L34589 9912
L34505 9884
L34476 9856
L34476 9659
L34589 9659
" />
<path d="M34223 9912
L34223 9322
L33886 9912
L33886 9322
" />
<path d="M33605 9912
L33605 9322
L33464 9322
L33380 9350
L33323 9406
L33295 9462
L33267 9575
L33267 9659
L33295 9772
L33323 9828
L33380 9884
L33464 9912
L33605 9912
" />
<path d="M22694 20641
L22890 20359
" />
<path d="M23031 20641
L23031 20050
L22806 20050
L22750 20078
L22722 20106
L22694 20163
L22694 20247
L22722 20303
L22750 20331
L22806 20359
L23031 20359
" />
<path d="M22215 20613
L22272 20641
L22384 20641
L22440 20613
L22469 20556
L22469 20331
L22440 20275
L22384 20247
L22272 20247
L22215 20275
L22187 20331
L22187 20388
L22469 20444
" />
<path d="M21991 20247
L21850 20641
L21709 20247
" />
<path d="M21484 20641
L21484 20247
" />
<path d="M21484 20050
L21512 20078
L21484 20106
L21456 20078
L21484 20050
L21484 20106
" />
<path d="M21231 20613
L21175 20641
L21062 20641
L21006 20613
L20978 20556
L20978 20528
L21006 20472
L21062 20444
L21147 20444
L21203 20416
L21231 20359
L21231 20331
L21203 20275
L21147 20247
L21062 20247
L21006 20275
" />
<path d="M20725 20641
L20725 20247
" />
<path d="M20725 20050
L20753 20078
L20725 20106
L20697 20078
L20725 20050
L20725 20106
" />
<path d="M20359 20641
L20416 20613
L20444 20584
L20472 20528
L20472 20359
L20444 20303
L20416 20275
L20359 20247
L20275 20247
L20219 20275
L20191 20303
L20163 20359
L20163 20528
L20191 20584
L20219 20613
L20275 20641
L20359 20641
" />
<path d="M19910 20247
L19910 20641
" />
<path d="M19910 20303
L19881 20275
L19825 20247
L19741 20247
L19685 20275
L19656 20331
L19656 20641
" />
<path d="M18953 20472
L18672 20472
" />
<path d="M19010 20641
L18813 20050
L18616 20641
" />
<path d="M23073 18967
L23073 18377
L22933 18377
L22848 18405
L22792 18461
L22764 18517
L22736 18630
L22736 18714
L22764 18827
L22792 18883
L22848 18939
L22933 18967
L23073 18967
" />
<path d="M22230 18967
L22230 18658
L22258 18602
L22314 18574
L22426 18574
L22483 18602
" />
<path d="M22230 18939
L22286 18967
L22426 18967
L22483 18939
L22511 18883
L22511 18827
L22483 18771
L22426 18742
L22286 18742
L22230 18714
" />
<path d="M22005 18574
L21864 18967
L21723 18574
" />
<path d="M21498 18967
L21498 18574
" />
<path d="M21498 18377
L21526 18405
L21498 18433
L21470 18405
L21498 18377
L21498 18433
" />
<path d="M20964 18967
L20964 18377
" />
<path d="M20964 18939
L21020 18967
L21133 18967
L21189 18939
L21217 18911
L21245 18855
L21245 18686
L21217 18630
L21189 18602
L21133 18574
L21020 18574
L20964 18602
" />
<path d="M19952 18967
L20233 18967
L20233 18377
" />
<path d="M19530 18939
L19586 18967
L19699 18967
L19755 18939
L19783 18883
L19783 18658
L19755 18602
L19699 18574
L19586 18574
L19530 18602
L19502 18658
L19502 18714
L19783 18771
" />
<path d="M19249 18574
L19249 18967
" />
<path d="M19249 18630
L19221 18602
L19164 18574
L19080 18574
L19024 18602
L18996 18658
L18996 18967
" />
<path d="M18799 18574
L18574 18574
" />
<path d="M18714 18967
L18714 18461
L18686 18405
L18630 18377
L18574 18377
" />
<path d="M18152 18939
L18208 18967
L18321 18967
L18377 18939
L18405 18883
L18405 18658
L18377 18602
L18321 18574
L18208 18574
L18152 18602
L18124 18658
L18124 18714
L18405 18771
" />
<path d="M17899 18939
L17843 18967
L17730 18967
L17674 18939
L17646 18883
L17646 18855
L17674 18799
L17730 18771
L17814 18771
L17871 18742
L17899 18686
L17899 18658
L17871 18602
L17814 18574
L17730 18574
L17674 18602
" />
<path d="M17477 18574
L17252 18574
" />
<path d="M17393 18377
L17393 18883
L17365 18939
L17308 18967
L17252 18967
" />
<path d="M17111 18574
L16971 18967
" />
<path d="M16830 18574
L16971 18967
L17027 19108
L17055 19136
L17111 19164
" />
<path d="M23087 17561
L23003 17589
L22862 17589
L22806 17561
L22778 17533
L22750 17477
L22750 17421
L22778 17365
L22806 17336
L22862 17308
L22975 17280
L23031 17252
L23059 17224
L23087 17168
L23087 17111
L23059 17055
L23031 17027
L22975 16999
L22834 16999
L22750 17027
" />
<path d="M22581 16999
L22244 16999
" />
<path d="M22412 17589
L22412 16999
" />
<path d="M22047 17589
L22047 16999
L21850 17421
L21653 16999
L21653 17589
" />
<path d="M21428 16999
L21062 16999
L21259 17224
L21175 17224
L21119 17252
L21091 17280
L21062 17336
L21062 17477
L21091 17533
L21119 17561
L21175 17589
L21344 17589
L21400 17561
L21428 17533
" />
<path d="M20838 17055
L20809 17027
L20753 16999
L20613 16999
L20556 17027
L20528 17055
L20500 17111
L20500 17168
L20528 17252
L20866 17589
L20500 17589
" />
<path d="M20050 17280
L20247 17280
" />
<path d="M20247 17589
L20247 16999
L19966 16999
" />
<path d="M19628 16999
L19572 16999
L19516 17027
L19488 17055
L19460 17111
L19431 17224
L19431 17365
L19460 17477
L19488 17533
L19516 17561
L19572 17589
L19628 17589
L19685 17561
L19713 17533
L19741 17477
L19769 17365
L19769 17224
L19741 17111
L19713 17055
L19685 17027
L19628 16999
" />
<path d="M19235 16999
L18869 16999
L19066 17224
L18982 17224
L18925 17252
L18897 17280
L18869 17336
L18869 17477
L18897 17533
L18925 17561
L18982 17589
L19150 17589
L19206 17561
L19235 17533
" />
<path d="M18503 16999
L18447 16999
L18391 17027
L18363 17055
L18335 17111
L18307 17224
L18307 17365
L18335 17477
L18363 17533
L18391 17561
L18447 17589
L18503 17589
L18560 17561
L18588 17533
L18616 17477
L18644 17365
L18644 17224
L18616 17111
L18588 17055
L18560 17027
L18503 16999
" />
<path d="M18053 17365
L17604 17365
" />
<path d="M17322 17280
L17125 17280
" />
<path d="M17041 17589
L17322 17589
L17322 16999
L17041 16999
" />
<path d="M16872 17196
L16647 17196
" />
<path d="M16788 16999
L16788 17505
L16760 17561
L16704 17589
L16647 17589
" />
<path d="M16451 17589
L16451 16999
" />
<path d="M16197 17589
L16197 17280
L16226 17224
L16282 17196
L16366 17196
L16422 17224
L16451 17252
" />
<path d="M15691 17561
L15748 17589
L15860 17589
L15916 17561
L15944 17505
L15944 17280
L15916 17224
L15860 17196
L15748 17196
L15691 17224
L15663 17280
L15663 17336
L15944 17393
" />
<path d="M15410 17589
L15410 17196
" />
<path d="M15410 17308
L15382 17252
L15354 17224
L15298 17196
L15241 17196
" />
<path d="M15044 17196
L15044 17589
" />
<path d="M15044 17252
L15016 17224
L14960 17196
L14876 17196
L14820 17224
L14791 17280
L14791 17589
" />
<path d="M14285 17561
L14341 17589
L14454 17589
L14510 17561
L14538 17505
L14538 17280
L14510 17224
L14454 17196
L14341 17196
L14285 17224
L14257 17280
L14257 17336
L14538 17393
" />
<path d="M14088 17196
L13863 17196
" />
<path d="M14004 16999
L14004 17505
L13976 17561
L13920 17589
L13863 17589
" />
</g>
<g style="fill:#C2C200; fill-opacity:0.0; 
stroke:#C2C200; stroke-width:118.11; stroke-opacity:1; 
stroke-linecap:round; stroke-linejoin:round;">
</g>
<g style="fill:#C2C200; fill-opacity:0.0; 
stroke:#C2C200; stroke-width:59.0551; stroke-opacity:1; 
stroke-linecap:round; stroke-linejoin:round;">
<path d="M11811 7874
L36417 7874
" />
<path d="M11811 28937
L11811 7874
" />
<path d="M36417 28937
L11811 28937
" />
<path d="M36417 7874
L36417 28937
" />
</g> 
</svg>
