G04 #@! TF.FileFunction,Copper,L4,Bot,Mixed*
%FSLAX46Y46*%
G04 Gerber Fmt 4.6, Leading zero omitted, Abs format (unit mm)*
G04 Created by KiCad (PCBNEW 4.0.2+dfsg1-stable) date Tue 14 Aug 2018 10:54:23 PM MDT*
%MOMM*%
G01*
G04 APERTURE LIST*
%ADD10C,0.100000*%
%ADD11R,1.700000X1.700000*%
%ADD12O,1.700000X1.700000*%
%ADD13C,2.000000*%
%ADD14R,1.600000X1.600000*%
%ADD15O,1.600000X1.600000*%
%ADD16C,1.524000*%
%ADD17C,0.600000*%
%ADD18C,0.750000*%
%ADD19C,0.250000*%
%ADD20C,0.500000*%
%ADD21C,1.500000*%
%ADD22C,0.254000*%
G04 APERTURE END LIST*
D10*
D11*
X126720000Y-123870000D03*
D12*
X126720000Y-126410000D03*
X126720000Y-128950000D03*
D11*
X124180000Y-123870000D03*
D12*
X124180000Y-126410000D03*
X124180000Y-128950000D03*
D11*
X131800000Y-126410000D03*
D12*
X131800000Y-123870000D03*
D13*
X84720000Y-77300000D03*
X89800000Y-77300000D03*
X94920000Y-77300000D03*
X100000000Y-77300000D03*
X105120000Y-77300000D03*
X110200000Y-77300000D03*
X115320000Y-77300000D03*
X120400000Y-77300000D03*
X89960000Y-135720000D03*
X84880000Y-135720000D03*
X100120000Y-135720000D03*
X95040000Y-135720000D03*
X110280000Y-135720000D03*
X105200000Y-135720000D03*
X120440000Y-135720000D03*
X115360000Y-135720000D03*
X134630000Y-77240000D03*
X139710000Y-77240000D03*
X144790000Y-77240000D03*
X149870000Y-77240000D03*
X154950000Y-77240000D03*
X160030000Y-77240000D03*
X165110000Y-77240000D03*
X170190000Y-77240000D03*
X139780000Y-135680000D03*
X134700000Y-135680000D03*
X149940000Y-135680000D03*
X144860000Y-135680000D03*
X160100000Y-135680000D03*
X155020000Y-135680000D03*
X170260000Y-135680000D03*
X165180000Y-135680000D03*
D11*
X126250000Y-78000000D03*
D12*
X128790000Y-78000000D03*
D13*
X117500000Y-94500000D03*
X117500000Y-90000000D03*
X124000000Y-94500000D03*
X124000000Y-90000000D03*
D14*
X125040000Y-111130000D03*
D15*
X117420000Y-118750000D03*
X122500000Y-111130000D03*
X119960000Y-118750000D03*
X119960000Y-111130000D03*
X122500000Y-118750000D03*
X117420000Y-111130000D03*
X125040000Y-118750000D03*
D16*
X124130000Y-85250000D03*
X126670000Y-85250000D03*
X129210000Y-85250000D03*
X131750000Y-85250000D03*
D11*
X135500000Y-86960000D03*
D12*
X135500000Y-89500000D03*
X135500000Y-92040000D03*
X135500000Y-94580000D03*
D16*
X86250000Y-86420000D03*
X86250000Y-88960000D03*
X86250000Y-91500000D03*
X93250000Y-86420000D03*
X93250000Y-88960000D03*
X93250000Y-91500000D03*
X100250000Y-86420000D03*
X100250000Y-88960000D03*
X100250000Y-91500000D03*
X107250000Y-86420000D03*
X107250000Y-88960000D03*
X107250000Y-91500000D03*
X86050000Y-126300000D03*
X86050000Y-123760000D03*
X86050000Y-121220000D03*
X93050000Y-126300000D03*
X93050000Y-123760000D03*
X93050000Y-121220000D03*
X100050000Y-126300000D03*
X100050000Y-123760000D03*
X100050000Y-121220000D03*
X107050000Y-126300000D03*
X107050000Y-123760000D03*
X107050000Y-121220000D03*
X147750000Y-85960000D03*
X147750000Y-88500000D03*
X147750000Y-91040000D03*
X154750000Y-85960000D03*
X154750000Y-88500000D03*
X154750000Y-91040000D03*
X161750000Y-85960000D03*
X161750000Y-88500000D03*
X161750000Y-91040000D03*
X168750000Y-85960000D03*
X168750000Y-88500000D03*
X168750000Y-91040000D03*
X146500000Y-126580000D03*
X146500000Y-124040000D03*
X146500000Y-121500000D03*
X153500000Y-126580000D03*
X153500000Y-124040000D03*
X153500000Y-121500000D03*
X160500000Y-126580000D03*
X160500000Y-124040000D03*
X160500000Y-121500000D03*
X167500000Y-126580000D03*
X167500000Y-124040000D03*
X167500000Y-121500000D03*
D13*
X77000000Y-109580000D03*
X77000000Y-104500000D03*
X178000000Y-104460000D03*
X178000000Y-109540000D03*
D17*
X131750000Y-90000000D03*
X133550000Y-104000000D03*
X133250000Y-107750000D03*
X131250000Y-95750000D03*
X125750000Y-95250000D03*
X114500000Y-97500000D03*
X105750000Y-100750000D03*
X101000000Y-101750000D03*
X156000000Y-109000000D03*
X125750000Y-100000000D03*
X124750000Y-97750000D03*
X90250000Y-115250000D03*
X96750000Y-115250000D03*
X103750000Y-115250000D03*
X110500000Y-115250000D03*
X110000000Y-109000000D03*
X144000000Y-115000000D03*
X150500000Y-115250000D03*
X157750000Y-115250000D03*
X164750000Y-115250000D03*
X165000000Y-97250000D03*
X157750000Y-97250000D03*
X151250000Y-97250000D03*
X144250000Y-97250000D03*
X136000000Y-99750000D03*
X120000000Y-102500000D03*
X110250000Y-97500000D03*
X103250000Y-97500000D03*
X96000000Y-97500000D03*
X89250000Y-97500000D03*
X147250000Y-85460000D03*
X153500000Y-84000000D03*
X160750000Y-84000000D03*
X168000000Y-84250000D03*
X166500000Y-128500000D03*
X160000000Y-128250000D03*
X152750000Y-128250000D03*
X145080000Y-128000000D03*
X106000000Y-128000000D03*
X98750000Y-127750000D03*
X92000000Y-127750000D03*
X87250000Y-127750000D03*
X107500000Y-84750000D03*
X101000000Y-84500000D03*
X93500000Y-84500000D03*
X86750000Y-84500000D03*
X132500000Y-103750000D03*
X134217050Y-103374990D03*
X134250000Y-107750000D03*
X124500000Y-107750000D03*
X124500000Y-100500000D03*
X126500000Y-101300010D03*
X126997187Y-105374990D03*
X152000000Y-104750000D03*
X152750000Y-106500000D03*
X128164357Y-104924979D03*
X127250000Y-102000000D03*
X126106218Y-106374990D03*
X150823563Y-104474968D03*
X151000000Y-106250000D03*
X125874990Y-102600010D03*
X149000000Y-106750000D03*
X149468648Y-104349967D03*
X125250000Y-107275032D03*
X125250000Y-103250010D03*
X154000000Y-107500000D03*
X147250000Y-110500000D03*
X155250000Y-107250000D03*
X148500000Y-110500000D03*
X115250000Y-108500000D03*
X115250000Y-103750000D03*
X92000000Y-100000000D03*
X92000000Y-101750000D03*
X100000000Y-100250000D03*
X100500000Y-106500000D03*
X103750000Y-101750000D03*
X102250000Y-106750000D03*
X130149998Y-111250000D03*
X131000000Y-99000000D03*
X130149962Y-113000000D03*
X130434306Y-98434306D03*
D18*
X135500000Y-92040000D02*
X133790000Y-92040000D01*
X133790000Y-92040000D02*
X131750000Y-90000000D01*
D19*
X133250000Y-107750000D02*
X133550000Y-107450000D01*
X133550000Y-107450000D02*
X133550000Y-104000000D01*
D20*
X128950001Y-95450001D02*
X128750000Y-95250000D01*
X128750000Y-95250000D02*
X125750000Y-95250000D01*
X131250000Y-95750000D02*
X130950001Y-95450001D01*
X130950001Y-95450001D02*
X128950001Y-95450001D01*
X116000000Y-96000000D02*
X125000000Y-96000000D01*
X125000000Y-96000000D02*
X125750000Y-95250000D01*
X114500000Y-97500000D02*
X116000000Y-96000000D01*
X101000000Y-101750000D02*
X102000000Y-100750000D01*
X102000000Y-100750000D02*
X105750000Y-100750000D01*
D19*
X144000000Y-115000000D02*
X144500000Y-115000000D01*
X96000000Y-97500000D02*
X96250000Y-97500000D01*
D21*
X84720000Y-77300000D02*
X84720000Y-78714213D01*
X84720000Y-78714213D02*
X84000000Y-79434213D01*
X84000000Y-79434213D02*
X84000000Y-88500000D01*
X84000000Y-88500000D02*
X84460000Y-88960000D01*
X84460000Y-88960000D02*
X86250000Y-88960000D01*
X96500000Y-88250000D02*
X95790000Y-88960000D01*
X95790000Y-88960000D02*
X93250000Y-88960000D01*
X96500000Y-80294213D02*
X96500000Y-88250000D01*
X94920000Y-77300000D02*
X94920000Y-78714213D01*
X94920000Y-78714213D02*
X96500000Y-80294213D01*
X103500000Y-88250000D02*
X102790000Y-88960000D01*
X102790000Y-88960000D02*
X100250000Y-88960000D01*
X103500000Y-80334213D02*
X103500000Y-88250000D01*
X105120000Y-77300000D02*
X105120000Y-78714213D01*
X105120000Y-78714213D02*
X103500000Y-80334213D01*
X111000000Y-88000000D02*
X108210000Y-88000000D01*
X108210000Y-88000000D02*
X107250000Y-88960000D01*
X111000000Y-81620000D02*
X111000000Y-88000000D01*
X115320000Y-77300000D02*
X111000000Y-81620000D01*
X147750000Y-88500000D02*
X144250000Y-88500000D01*
X144250000Y-88500000D02*
X144250000Y-88274213D01*
X144250000Y-88274213D02*
X134630000Y-78654213D01*
X134630000Y-78654213D02*
X134630000Y-77240000D01*
X144790000Y-77240000D02*
X150750000Y-83200000D01*
X150750000Y-83200000D02*
X150750000Y-87250000D01*
X152000000Y-88500000D02*
X154750000Y-88500000D01*
X150750000Y-87250000D02*
X152000000Y-88500000D01*
X158000000Y-87250000D02*
X159250000Y-88500000D01*
X159250000Y-88500000D02*
X161750000Y-88500000D01*
X158000000Y-82750000D02*
X158000000Y-87250000D01*
X154950000Y-79700000D02*
X158000000Y-82750000D01*
X154950000Y-77240000D02*
X154950000Y-79700000D01*
X165110000Y-77240000D02*
X165000000Y-77350000D01*
X165000000Y-77350000D02*
X165000000Y-86750000D01*
X166750000Y-88500000D02*
X168750000Y-88500000D01*
X165000000Y-86750000D02*
X166750000Y-88500000D01*
D19*
X132500000Y-103750000D02*
X132875010Y-103374990D01*
X132875010Y-103374990D02*
X134217050Y-103374990D01*
X134250000Y-103407940D02*
X134217050Y-103374990D01*
X134250000Y-107750000D02*
X134250000Y-103407940D01*
X124500000Y-100500000D02*
X124500000Y-107750000D01*
X126500000Y-104877803D02*
X126500000Y-101724274D01*
X126997187Y-105374990D02*
X126500000Y-104877803D01*
X126500000Y-101724274D02*
X126500000Y-101300010D01*
X152750000Y-106500000D02*
X152750000Y-105500000D01*
X152750000Y-105500000D02*
X152000000Y-104750000D01*
X127250000Y-104010622D02*
X127864358Y-104624980D01*
X127864358Y-104624980D02*
X128164357Y-104924979D01*
X127250000Y-102000000D02*
X127250000Y-104010622D01*
X126106218Y-105950726D02*
X126106218Y-106374990D01*
X125998348Y-105842856D02*
X126106218Y-105950726D01*
X125874990Y-102600010D02*
X125874990Y-103024274D01*
X125998348Y-103147632D02*
X125998348Y-105842856D01*
X125874990Y-103024274D02*
X125998348Y-103147632D01*
X151000000Y-104651405D02*
X150823563Y-104474968D01*
X151000000Y-106250000D02*
X151000000Y-104651405D01*
X151000000Y-104684526D02*
X151000000Y-106250000D01*
X149000000Y-106325736D02*
X149000000Y-106750000D01*
X149000000Y-104818615D02*
X149000000Y-106325736D01*
X149468648Y-104349967D02*
X149000000Y-104818615D01*
X125250000Y-103250010D02*
X125250000Y-107275032D01*
X148750000Y-108500000D02*
X153000000Y-108500000D01*
X153000000Y-108500000D02*
X154000000Y-107500000D01*
X147549999Y-109700001D02*
X148750000Y-108500000D01*
X147250000Y-110500000D02*
X147549999Y-110200001D01*
X147549999Y-110200001D02*
X147549999Y-109700001D01*
X148500000Y-110500000D02*
X152050012Y-110500000D01*
X152050012Y-110500000D02*
X155250000Y-107300012D01*
X155250000Y-107300012D02*
X155250000Y-107250000D01*
X115250000Y-103750000D02*
X115250000Y-108500000D01*
X122500000Y-119881370D02*
X123000000Y-120381370D01*
X122500000Y-118750000D02*
X122500000Y-119881370D01*
X123000000Y-120381370D02*
X124618630Y-122000000D01*
X127360002Y-122000000D02*
X131770002Y-126410000D01*
X124618630Y-122000000D02*
X127360002Y-122000000D01*
X117420000Y-118750000D02*
X117420000Y-119881370D01*
X117920000Y-120381370D02*
X123000000Y-120381370D01*
X117420000Y-119881370D02*
X117920000Y-120381370D01*
D20*
X131770002Y-126410000D02*
X131800000Y-126410000D01*
D21*
X89960000Y-125710000D02*
X88010000Y-123760000D01*
X88010000Y-123760000D02*
X86050000Y-123760000D01*
X89960000Y-135720000D02*
X89960000Y-125710000D01*
X97000000Y-124750000D02*
X96010000Y-123760000D01*
X96010000Y-123760000D02*
X93050000Y-123760000D01*
X97000000Y-130500000D02*
X97000000Y-124750000D01*
X99120001Y-132620001D02*
X97000000Y-130500000D01*
X100120000Y-135720000D02*
X99120001Y-134720001D01*
X99120001Y-134720001D02*
X99120001Y-132620001D01*
X104250000Y-124750000D02*
X103260000Y-123760000D01*
X103260000Y-123760000D02*
X100050000Y-123760000D01*
X104250000Y-128250000D02*
X104250000Y-124750000D01*
X106724213Y-130724213D02*
X104250000Y-128250000D01*
X106724213Y-130750000D02*
X106724213Y-130724213D01*
X110280000Y-135720000D02*
X110280000Y-134305787D01*
X110280000Y-134305787D02*
X106724213Y-130750000D01*
X120440000Y-135720000D02*
X120440000Y-134305787D01*
X120440000Y-134305787D02*
X109894213Y-123760000D01*
X109894213Y-123760000D02*
X107050000Y-123760000D01*
X141750000Y-125250000D02*
X142960000Y-124040000D01*
X142960000Y-124040000D02*
X146500000Y-124040000D01*
X141750000Y-132295787D02*
X141750000Y-125250000D01*
X139780000Y-135680000D02*
X139780000Y-134265787D01*
X139780000Y-134265787D02*
X141750000Y-132295787D01*
X149940000Y-135680000D02*
X149940000Y-134265787D01*
X149940000Y-134265787D02*
X150250000Y-133955787D01*
X151790000Y-124040000D02*
X153500000Y-124040000D01*
X150250000Y-133955787D02*
X150250000Y-125580000D01*
X150250000Y-125580000D02*
X151790000Y-124040000D01*
X158000000Y-124500000D02*
X158460000Y-124040000D01*
X158460000Y-124040000D02*
X160500000Y-124040000D01*
X158000000Y-131750000D02*
X158000000Y-124500000D01*
X159100001Y-132850001D02*
X158000000Y-131750000D01*
X160100000Y-135680000D02*
X159100001Y-134680001D01*
X159100001Y-134680001D02*
X159100001Y-132850001D01*
X170260000Y-135680000D02*
X170260000Y-134265787D01*
X170260000Y-134265787D02*
X171000000Y-133525787D01*
X171000000Y-133525787D02*
X171000000Y-124500000D01*
X171000000Y-124500000D02*
X170540000Y-124040000D01*
X170540000Y-124040000D02*
X167500000Y-124040000D01*
D19*
X92000000Y-101750000D02*
X92000000Y-100000000D01*
X100500000Y-106500000D02*
X100000000Y-106000000D01*
X100000000Y-106000000D02*
X100000000Y-100250000D01*
X103750000Y-102174264D02*
X103750000Y-101750000D01*
X103750000Y-105250000D02*
X103750000Y-102174264D01*
X102250000Y-106750000D02*
X103750000Y-105250000D01*
X130149998Y-99850002D02*
X130149998Y-111250000D01*
X131000000Y-99000000D02*
X130149998Y-99850002D01*
X129849963Y-112700001D02*
X130149962Y-113000000D01*
X129524996Y-99343616D02*
X129524996Y-112375034D01*
X130434306Y-98434306D02*
X129524996Y-99343616D01*
X129524996Y-112375034D02*
X129849963Y-112700001D01*
D22*
G36*
X141882083Y-95797167D02*
X141909724Y-95839327D01*
X141951590Y-95867411D01*
X142000000Y-95877000D01*
X171873000Y-95877000D01*
X171873000Y-115623000D01*
X82127000Y-115623000D01*
X82127000Y-111479041D01*
X116028086Y-111479041D01*
X116267611Y-111985134D01*
X116682577Y-112361041D01*
X117070961Y-112521904D01*
X117293000Y-112399915D01*
X117293000Y-111257000D01*
X116149371Y-111257000D01*
X116028086Y-111479041D01*
X82127000Y-111479041D01*
X82127000Y-110780959D01*
X116028086Y-110780959D01*
X116149371Y-111003000D01*
X117293000Y-111003000D01*
X117293000Y-109860085D01*
X117547000Y-109860085D01*
X117547000Y-111003000D01*
X117567000Y-111003000D01*
X117567000Y-111257000D01*
X117547000Y-111257000D01*
X117547000Y-112399915D01*
X117769039Y-112521904D01*
X118157423Y-112361041D01*
X118572389Y-111985134D01*
X118675014Y-111768297D01*
X118945302Y-112172811D01*
X119410849Y-112483880D01*
X119960000Y-112593113D01*
X120509151Y-112483880D01*
X120974698Y-112172811D01*
X121244986Y-111768297D01*
X121347611Y-111985134D01*
X121762577Y-112361041D01*
X122150961Y-112521904D01*
X122373000Y-112399915D01*
X122373000Y-111257000D01*
X122353000Y-111257000D01*
X122353000Y-111003000D01*
X122373000Y-111003000D01*
X122373000Y-109860085D01*
X122627000Y-109860085D01*
X122627000Y-111003000D01*
X122647000Y-111003000D01*
X122647000Y-111257000D01*
X122627000Y-111257000D01*
X122627000Y-112399915D01*
X122849039Y-112521904D01*
X123237423Y-112361041D01*
X123610136Y-112023410D01*
X123636838Y-112165317D01*
X123775910Y-112381441D01*
X123988110Y-112526431D01*
X124240000Y-112577440D01*
X125840000Y-112577440D01*
X126075317Y-112533162D01*
X126291441Y-112394090D01*
X126436431Y-112181890D01*
X126487440Y-111930000D01*
X126487440Y-110330000D01*
X126443162Y-110094683D01*
X126304090Y-109878559D01*
X126091890Y-109733569D01*
X125840000Y-109682560D01*
X124240000Y-109682560D01*
X124004683Y-109726838D01*
X123788559Y-109865910D01*
X123643569Y-110078110D01*
X123611268Y-110237616D01*
X123237423Y-109898959D01*
X122849039Y-109738096D01*
X122627000Y-109860085D01*
X122373000Y-109860085D01*
X122150961Y-109738096D01*
X121762577Y-109898959D01*
X121347611Y-110274866D01*
X121244986Y-110491703D01*
X120974698Y-110087189D01*
X120509151Y-109776120D01*
X119960000Y-109666887D01*
X119410849Y-109776120D01*
X118945302Y-110087189D01*
X118675014Y-110491703D01*
X118572389Y-110274866D01*
X118157423Y-109898959D01*
X117769039Y-109738096D01*
X117547000Y-109860085D01*
X117293000Y-109860085D01*
X117070961Y-109738096D01*
X116682577Y-109898959D01*
X116267611Y-110274866D01*
X116028086Y-110780959D01*
X82127000Y-110780959D01*
X82127000Y-100185167D01*
X91064838Y-100185167D01*
X91206883Y-100528943D01*
X91240000Y-100562118D01*
X91240000Y-101187537D01*
X91207808Y-101219673D01*
X91065162Y-101563201D01*
X91064838Y-101935167D01*
X91206883Y-102278943D01*
X91469673Y-102542192D01*
X91813201Y-102684838D01*
X92185167Y-102685162D01*
X92528943Y-102543117D01*
X92792192Y-102280327D01*
X92934838Y-101936799D01*
X92935162Y-101564833D01*
X92793117Y-101221057D01*
X92760000Y-101187882D01*
X92760000Y-100562463D01*
X92792192Y-100530327D01*
X92831706Y-100435167D01*
X99064838Y-100435167D01*
X99206883Y-100778943D01*
X99240000Y-100812118D01*
X99240000Y-106000000D01*
X99297852Y-106290839D01*
X99462599Y-106537401D01*
X99564878Y-106639680D01*
X99564838Y-106685167D01*
X99706883Y-107028943D01*
X99969673Y-107292192D01*
X100313201Y-107434838D01*
X100685167Y-107435162D01*
X101028943Y-107293117D01*
X101292192Y-107030327D01*
X101323251Y-106955529D01*
X101456883Y-107278943D01*
X101719673Y-107542192D01*
X102063201Y-107684838D01*
X102435167Y-107685162D01*
X102778943Y-107543117D01*
X103042192Y-107280327D01*
X103184838Y-106936799D01*
X103184879Y-106889923D01*
X104287401Y-105787401D01*
X104452148Y-105540840D01*
X104510000Y-105250000D01*
X104510000Y-103935167D01*
X114314838Y-103935167D01*
X114456883Y-104278943D01*
X114490000Y-104312118D01*
X114490000Y-107937537D01*
X114457808Y-107969673D01*
X114315162Y-108313201D01*
X114314838Y-108685167D01*
X114456883Y-109028943D01*
X114719673Y-109292192D01*
X115063201Y-109434838D01*
X115435167Y-109435162D01*
X115778943Y-109293117D01*
X116042192Y-109030327D01*
X116184838Y-108686799D01*
X116185162Y-108314833D01*
X116043117Y-107971057D01*
X116010000Y-107937882D01*
X116010000Y-104312463D01*
X116042192Y-104280327D01*
X116184838Y-103936799D01*
X116185162Y-103564833D01*
X116043117Y-103221057D01*
X115780327Y-102957808D01*
X115436799Y-102815162D01*
X115064833Y-102814838D01*
X114721057Y-102956883D01*
X114457808Y-103219673D01*
X114315162Y-103563201D01*
X114314838Y-103935167D01*
X104510000Y-103935167D01*
X104510000Y-102312463D01*
X104542192Y-102280327D01*
X104684838Y-101936799D01*
X104685101Y-101635000D01*
X105443178Y-101635000D01*
X105563201Y-101684838D01*
X105935167Y-101685162D01*
X106278943Y-101543117D01*
X106542192Y-101280327D01*
X106684838Y-100936799D01*
X106685057Y-100685167D01*
X123564838Y-100685167D01*
X123706883Y-101028943D01*
X123740000Y-101062118D01*
X123740000Y-107187537D01*
X123707808Y-107219673D01*
X123565162Y-107563201D01*
X123564838Y-107935167D01*
X123706883Y-108278943D01*
X123969673Y-108542192D01*
X124313201Y-108684838D01*
X124685167Y-108685162D01*
X125028943Y-108543117D01*
X125292192Y-108280327D01*
X125321355Y-108210095D01*
X125435167Y-108210194D01*
X125778943Y-108068149D01*
X126042192Y-107805359D01*
X126184838Y-107461831D01*
X126184970Y-107310059D01*
X126291385Y-107310152D01*
X126635161Y-107168107D01*
X126898410Y-106905317D01*
X127041056Y-106561789D01*
X127041275Y-106310029D01*
X127182354Y-106310152D01*
X127526130Y-106168107D01*
X127789379Y-105905317D01*
X127833168Y-105799861D01*
X127977558Y-105859817D01*
X128349524Y-105860141D01*
X128693300Y-105718096D01*
X128764996Y-105646525D01*
X128764996Y-112375034D01*
X128822848Y-112665873D01*
X128987595Y-112912435D01*
X129214840Y-113139680D01*
X129214800Y-113185167D01*
X129356845Y-113528943D01*
X129619635Y-113792192D01*
X129963163Y-113934838D01*
X130335129Y-113935162D01*
X130678905Y-113793117D01*
X130942154Y-113530327D01*
X131084800Y-113186799D01*
X131085124Y-112814833D01*
X130943079Y-112471057D01*
X130680289Y-112207808D01*
X130480817Y-112124980D01*
X130678941Y-112043117D01*
X130942190Y-111780327D01*
X131084836Y-111436799D01*
X131085160Y-111064833D01*
X130943115Y-110721057D01*
X130909998Y-110687882D01*
X130909998Y-110685167D01*
X146314838Y-110685167D01*
X146456883Y-111028943D01*
X146719673Y-111292192D01*
X147063201Y-111434838D01*
X147435167Y-111435162D01*
X147778943Y-111293117D01*
X147874937Y-111197290D01*
X147969673Y-111292192D01*
X148313201Y-111434838D01*
X148685167Y-111435162D01*
X149028943Y-111293117D01*
X149062118Y-111260000D01*
X152050012Y-111260000D01*
X152340851Y-111202148D01*
X152587413Y-111037401D01*
X155442810Y-108182004D01*
X155778943Y-108043117D01*
X156042192Y-107780327D01*
X156184838Y-107436799D01*
X156185162Y-107064833D01*
X156043117Y-106721057D01*
X155780327Y-106457808D01*
X155436799Y-106315162D01*
X155064833Y-106314838D01*
X154721057Y-106456883D01*
X154487506Y-106690027D01*
X154186799Y-106565162D01*
X153814833Y-106564838D01*
X153684897Y-106618526D01*
X153685162Y-106314833D01*
X153543117Y-105971057D01*
X153510000Y-105937882D01*
X153510000Y-105500000D01*
X153463685Y-105267160D01*
X153452148Y-105209160D01*
X153287401Y-104962599D01*
X152935122Y-104610320D01*
X152935162Y-104564833D01*
X152793117Y-104221057D01*
X152530327Y-103957808D01*
X152186799Y-103815162D01*
X151814833Y-103814838D01*
X151581829Y-103911113D01*
X151353890Y-103682776D01*
X151010362Y-103540130D01*
X150638396Y-103539806D01*
X150294620Y-103681851D01*
X150208577Y-103767744D01*
X149998975Y-103557775D01*
X149655447Y-103415129D01*
X149283481Y-103414805D01*
X148939705Y-103556850D01*
X148676456Y-103819640D01*
X148533810Y-104163168D01*
X148533769Y-104210044D01*
X148462599Y-104281214D01*
X148297852Y-104527776D01*
X148240000Y-104818615D01*
X148240000Y-106187537D01*
X148207808Y-106219673D01*
X148065162Y-106563201D01*
X148064838Y-106935167D01*
X148206883Y-107278943D01*
X148469673Y-107542192D01*
X148813201Y-107684838D01*
X149185167Y-107685162D01*
X149528943Y-107543117D01*
X149792192Y-107280327D01*
X149934838Y-106936799D01*
X149935162Y-106564833D01*
X149793117Y-106221057D01*
X149760000Y-106187882D01*
X149760000Y-105241254D01*
X149997591Y-105143084D01*
X150083634Y-105057191D01*
X150240000Y-105213831D01*
X150240000Y-105687537D01*
X150207808Y-105719673D01*
X150065162Y-106063201D01*
X150064838Y-106435167D01*
X150206883Y-106778943D01*
X150469673Y-107042192D01*
X150813201Y-107184838D01*
X151185167Y-107185162D01*
X151528943Y-107043117D01*
X151792192Y-106780327D01*
X151823251Y-106705529D01*
X151956883Y-107028943D01*
X152219673Y-107292192D01*
X152563201Y-107434838D01*
X152935167Y-107435162D01*
X153028671Y-107396527D01*
X152685198Y-107740000D01*
X148750000Y-107740000D01*
X148459161Y-107797852D01*
X148212599Y-107962599D01*
X147012598Y-109162600D01*
X146847851Y-109409162D01*
X146794681Y-109676462D01*
X146721057Y-109706883D01*
X146457808Y-109969673D01*
X146315162Y-110313201D01*
X146314838Y-110685167D01*
X130909998Y-110685167D01*
X130909998Y-103935167D01*
X131564838Y-103935167D01*
X131706883Y-104278943D01*
X131969673Y-104542192D01*
X132313201Y-104684838D01*
X132685167Y-104685162D01*
X132790000Y-104641846D01*
X132790000Y-106928396D01*
X132721057Y-106956883D01*
X132457808Y-107219673D01*
X132315162Y-107563201D01*
X132314838Y-107935167D01*
X132456883Y-108278943D01*
X132719673Y-108542192D01*
X133063201Y-108684838D01*
X133435167Y-108685162D01*
X133750351Y-108554931D01*
X134063201Y-108684838D01*
X134435167Y-108685162D01*
X134778943Y-108543117D01*
X135042192Y-108280327D01*
X135184838Y-107936799D01*
X135185162Y-107564833D01*
X135043117Y-107221057D01*
X135010000Y-107187882D01*
X135010000Y-103903492D01*
X135151888Y-103561789D01*
X135152212Y-103189823D01*
X135010167Y-102846047D01*
X134747377Y-102582798D01*
X134403849Y-102440152D01*
X134031883Y-102439828D01*
X133688107Y-102581873D01*
X133654932Y-102614990D01*
X132875010Y-102614990D01*
X132584170Y-102672842D01*
X132371584Y-102814887D01*
X132314833Y-102814838D01*
X131971057Y-102956883D01*
X131707808Y-103219673D01*
X131565162Y-103563201D01*
X131564838Y-103935167D01*
X130909998Y-103935167D01*
X130909998Y-100164804D01*
X131139680Y-99935122D01*
X131185167Y-99935162D01*
X131528943Y-99793117D01*
X131792192Y-99530327D01*
X131934838Y-99186799D01*
X131935162Y-98814833D01*
X131793117Y-98471057D01*
X131530327Y-98207808D01*
X131315539Y-98118620D01*
X131227423Y-97905363D01*
X130964633Y-97642114D01*
X130621105Y-97499468D01*
X130249139Y-97499144D01*
X129905363Y-97641189D01*
X129642114Y-97903979D01*
X129499468Y-98247507D01*
X129499427Y-98294383D01*
X128987595Y-98806215D01*
X128822848Y-99052777D01*
X128764996Y-99343616D01*
X128764996Y-104203222D01*
X128694684Y-104132787D01*
X128351156Y-103990141D01*
X128304280Y-103990100D01*
X128010000Y-103695820D01*
X128010000Y-102562463D01*
X128042192Y-102530327D01*
X128184838Y-102186799D01*
X128185162Y-101814833D01*
X128043117Y-101471057D01*
X127780327Y-101207808D01*
X127436799Y-101065162D01*
X127414626Y-101065143D01*
X127293117Y-100771067D01*
X127030327Y-100507818D01*
X126686799Y-100365172D01*
X126314833Y-100364848D01*
X125971057Y-100506893D01*
X125707808Y-100769683D01*
X125565162Y-101113211D01*
X125564838Y-101485177D01*
X125646477Y-101682758D01*
X125346047Y-101806893D01*
X125260000Y-101892790D01*
X125260000Y-101062463D01*
X125292192Y-101030327D01*
X125434838Y-100686799D01*
X125435162Y-100314833D01*
X125293117Y-99971057D01*
X125030327Y-99707808D01*
X124686799Y-99565162D01*
X124314833Y-99564838D01*
X123971057Y-99706883D01*
X123707808Y-99969673D01*
X123565162Y-100313201D01*
X123564838Y-100685167D01*
X106685057Y-100685167D01*
X106685162Y-100564833D01*
X106543117Y-100221057D01*
X106280327Y-99957808D01*
X105936799Y-99815162D01*
X105564833Y-99814838D01*
X105443431Y-99865000D01*
X102000005Y-99865000D01*
X102000000Y-99864999D01*
X101661326Y-99932366D01*
X101616079Y-99962599D01*
X101374210Y-100124210D01*
X101374208Y-100124213D01*
X100844809Y-100653611D01*
X100934838Y-100436799D01*
X100935162Y-100064833D01*
X100793117Y-99721057D01*
X100530327Y-99457808D01*
X100186799Y-99315162D01*
X99814833Y-99314838D01*
X99471057Y-99456883D01*
X99207808Y-99719673D01*
X99065162Y-100063201D01*
X99064838Y-100435167D01*
X92831706Y-100435167D01*
X92934838Y-100186799D01*
X92935162Y-99814833D01*
X92793117Y-99471057D01*
X92530327Y-99207808D01*
X92186799Y-99065162D01*
X91814833Y-99064838D01*
X91471057Y-99206883D01*
X91207808Y-99469673D01*
X91065162Y-99813201D01*
X91064838Y-100185167D01*
X82127000Y-100185167D01*
X82127000Y-97685167D01*
X113564838Y-97685167D01*
X113706883Y-98028943D01*
X113969673Y-98292192D01*
X114313201Y-98434838D01*
X114685167Y-98435162D01*
X115028943Y-98293117D01*
X115292192Y-98030327D01*
X115342566Y-97909014D01*
X116366579Y-96885000D01*
X124999995Y-96885000D01*
X125000000Y-96885001D01*
X125282484Y-96828810D01*
X125338675Y-96817633D01*
X125625790Y-96625790D01*
X126116579Y-96135000D01*
X128412824Y-96135000D01*
X128611326Y-96267634D01*
X128950001Y-96335002D01*
X128950006Y-96335001D01*
X130512843Y-96335001D01*
X130719673Y-96542192D01*
X131063201Y-96684838D01*
X131435167Y-96685162D01*
X131778943Y-96543117D01*
X132042192Y-96280327D01*
X132184838Y-95936799D01*
X132185162Y-95564833D01*
X132043117Y-95221057D01*
X131780327Y-94957808D01*
X131729952Y-94936890D01*
X134058524Y-94936890D01*
X134228355Y-95346924D01*
X134618642Y-95775183D01*
X135143108Y-96021486D01*
X135373000Y-95900819D01*
X135373000Y-94707000D01*
X135627000Y-94707000D01*
X135627000Y-95900819D01*
X135856892Y-96021486D01*
X136381358Y-95775183D01*
X136771645Y-95346924D01*
X136941476Y-94936890D01*
X136820155Y-94707000D01*
X135627000Y-94707000D01*
X135373000Y-94707000D01*
X134179845Y-94707000D01*
X134058524Y-94936890D01*
X131729952Y-94936890D01*
X131659014Y-94907434D01*
X131575791Y-94824211D01*
X131421409Y-94721057D01*
X131288676Y-94632368D01*
X131232485Y-94621191D01*
X130950001Y-94565000D01*
X130949996Y-94565001D01*
X129287177Y-94565001D01*
X129126750Y-94457808D01*
X129088675Y-94432367D01*
X129032484Y-94421190D01*
X128750000Y-94364999D01*
X128749995Y-94365000D01*
X126056822Y-94365000D01*
X125936799Y-94315162D01*
X125635163Y-94314899D01*
X125635284Y-94176205D01*
X125386894Y-93575057D01*
X124927363Y-93114722D01*
X124326648Y-92865284D01*
X123676205Y-92864716D01*
X123075057Y-93113106D01*
X122614722Y-93572637D01*
X122365284Y-94173352D01*
X122364716Y-94823795D01*
X122485040Y-95115000D01*
X119014982Y-95115000D01*
X119134716Y-94826648D01*
X119135284Y-94176205D01*
X118886894Y-93575057D01*
X118427363Y-93114722D01*
X117826648Y-92865284D01*
X117176205Y-92864716D01*
X116575057Y-93113106D01*
X116114722Y-93572637D01*
X115865284Y-94173352D01*
X115864716Y-94823795D01*
X115986176Y-95117750D01*
X115661325Y-95182367D01*
X115374210Y-95374210D01*
X115374208Y-95374213D01*
X114091164Y-96657256D01*
X113971057Y-96706883D01*
X113707808Y-96969673D01*
X113565162Y-97313201D01*
X113564838Y-97685167D01*
X82127000Y-97685167D01*
X82127000Y-96377000D01*
X112000000Y-96377000D01*
X112049410Y-96366994D01*
X112091035Y-96338553D01*
X112124715Y-96273984D01*
X113109609Y-91152532D01*
X116527073Y-91152532D01*
X116625736Y-91419387D01*
X117235461Y-91645908D01*
X117885460Y-91621856D01*
X118374264Y-91419387D01*
X118472927Y-91152532D01*
X123027073Y-91152532D01*
X123125736Y-91419387D01*
X123735461Y-91645908D01*
X124385460Y-91621856D01*
X124874264Y-91419387D01*
X124972927Y-91152532D01*
X124000000Y-90179605D01*
X123027073Y-91152532D01*
X118472927Y-91152532D01*
X117500000Y-90179605D01*
X116527073Y-91152532D01*
X113109609Y-91152532D01*
X113382123Y-89735461D01*
X115854092Y-89735461D01*
X115878144Y-90385460D01*
X116080613Y-90874264D01*
X116347468Y-90972927D01*
X117320395Y-90000000D01*
X117679605Y-90000000D01*
X118652532Y-90972927D01*
X118919387Y-90874264D01*
X119145908Y-90264539D01*
X119126331Y-89735461D01*
X122354092Y-89735461D01*
X122378144Y-90385460D01*
X122580613Y-90874264D01*
X122847468Y-90972927D01*
X123820395Y-90000000D01*
X124179605Y-90000000D01*
X125152532Y-90972927D01*
X125419387Y-90874264D01*
X125645908Y-90264539D01*
X125636120Y-90000000D01*
X130740000Y-90000000D01*
X130816882Y-90386510D01*
X131035822Y-90714178D01*
X133075822Y-92754178D01*
X133403490Y-92973118D01*
X133790000Y-93050000D01*
X134394090Y-93050000D01*
X134420853Y-93090054D01*
X134761553Y-93317702D01*
X134618642Y-93384817D01*
X134228355Y-93813076D01*
X134058524Y-94223110D01*
X134179845Y-94453000D01*
X135373000Y-94453000D01*
X135373000Y-94433000D01*
X135627000Y-94433000D01*
X135627000Y-94453000D01*
X136820155Y-94453000D01*
X136941476Y-94223110D01*
X136771645Y-93813076D01*
X136381358Y-93384817D01*
X136238447Y-93317702D01*
X136579147Y-93090054D01*
X136901054Y-92608285D01*
X137014093Y-92040000D01*
X136901054Y-91471715D01*
X136579147Y-90989946D01*
X136249974Y-90770000D01*
X136579147Y-90550054D01*
X136901054Y-90068285D01*
X137014093Y-89500000D01*
X136901054Y-88931715D01*
X136579147Y-88449946D01*
X136537548Y-88422150D01*
X136585317Y-88413162D01*
X136801441Y-88274090D01*
X136946431Y-88061890D01*
X136997440Y-87810000D01*
X136997440Y-86110000D01*
X136953162Y-85874683D01*
X136814090Y-85658559D01*
X136601890Y-85513569D01*
X136350000Y-85462560D01*
X134650000Y-85462560D01*
X134414683Y-85506838D01*
X134198559Y-85645910D01*
X134053569Y-85858110D01*
X134002560Y-86110000D01*
X134002560Y-87810000D01*
X134046838Y-88045317D01*
X134185910Y-88261441D01*
X134398110Y-88406431D01*
X134465541Y-88420086D01*
X134420853Y-88449946D01*
X134098946Y-88931715D01*
X133985907Y-89500000D01*
X134098946Y-90068285D01*
X134420853Y-90550054D01*
X134750026Y-90770000D01*
X134420853Y-90989946D01*
X134394090Y-91030000D01*
X134208356Y-91030000D01*
X132464178Y-89285822D01*
X132136510Y-89066882D01*
X131750000Y-88990000D01*
X131363490Y-89066882D01*
X131035822Y-89285822D01*
X130816882Y-89613490D01*
X130740000Y-90000000D01*
X125636120Y-90000000D01*
X125621856Y-89614540D01*
X125419387Y-89125736D01*
X125152532Y-89027073D01*
X124179605Y-90000000D01*
X123820395Y-90000000D01*
X122847468Y-89027073D01*
X122580613Y-89125736D01*
X122354092Y-89735461D01*
X119126331Y-89735461D01*
X119121856Y-89614540D01*
X118919387Y-89125736D01*
X118652532Y-89027073D01*
X117679605Y-90000000D01*
X117320395Y-90000000D01*
X116347468Y-89027073D01*
X116080613Y-89125736D01*
X115854092Y-89735461D01*
X113382123Y-89735461D01*
X113552890Y-88847468D01*
X116527073Y-88847468D01*
X117500000Y-89820395D01*
X118472927Y-88847468D01*
X123027073Y-88847468D01*
X124000000Y-89820395D01*
X124972927Y-88847468D01*
X124874264Y-88580613D01*
X124264539Y-88354092D01*
X123614540Y-88378144D01*
X123125736Y-88580613D01*
X123027073Y-88847468D01*
X118472927Y-88847468D01*
X118374264Y-88580613D01*
X117764539Y-88354092D01*
X117114540Y-88378144D01*
X116625736Y-88580613D01*
X116527073Y-88847468D01*
X113552890Y-88847468D01*
X114191507Y-85526661D01*
X122732758Y-85526661D01*
X122944990Y-86040303D01*
X123337630Y-86433629D01*
X123850900Y-86646757D01*
X124406661Y-86647242D01*
X124920303Y-86435010D01*
X125313629Y-86042370D01*
X125399949Y-85834488D01*
X125484990Y-86040303D01*
X125877630Y-86433629D01*
X126390900Y-86646757D01*
X126946661Y-86647242D01*
X127460303Y-86435010D01*
X127665457Y-86230213D01*
X128409392Y-86230213D01*
X128478857Y-86472397D01*
X129002302Y-86659144D01*
X129557368Y-86631362D01*
X129941143Y-86472397D01*
X130010608Y-86230213D01*
X129210000Y-85429605D01*
X128409392Y-86230213D01*
X127665457Y-86230213D01*
X127853629Y-86042370D01*
X127933395Y-85850273D01*
X127987603Y-85981143D01*
X128229787Y-86050608D01*
X129030395Y-85250000D01*
X129389605Y-85250000D01*
X130190213Y-86050608D01*
X130432397Y-85981143D01*
X130482509Y-85840682D01*
X130564990Y-86040303D01*
X130957630Y-86433629D01*
X131470900Y-86646757D01*
X132026661Y-86647242D01*
X132540303Y-86435010D01*
X132933629Y-86042370D01*
X133146757Y-85529100D01*
X133147242Y-84973339D01*
X132935010Y-84459697D01*
X132542370Y-84066371D01*
X132029100Y-83853243D01*
X131473339Y-83852758D01*
X130959697Y-84064990D01*
X130566371Y-84457630D01*
X130486605Y-84649727D01*
X130432397Y-84518857D01*
X130190213Y-84449392D01*
X129389605Y-85250000D01*
X129030395Y-85250000D01*
X128229787Y-84449392D01*
X127987603Y-84518857D01*
X127937491Y-84659318D01*
X127855010Y-84459697D01*
X127665432Y-84269787D01*
X128409392Y-84269787D01*
X129210000Y-85070395D01*
X130010608Y-84269787D01*
X129941143Y-84027603D01*
X129417698Y-83840856D01*
X128862632Y-83868638D01*
X128478857Y-84027603D01*
X128409392Y-84269787D01*
X127665432Y-84269787D01*
X127462370Y-84066371D01*
X126949100Y-83853243D01*
X126393339Y-83852758D01*
X125879697Y-84064990D01*
X125486371Y-84457630D01*
X125400051Y-84665512D01*
X125315010Y-84459697D01*
X124922370Y-84066371D01*
X124409100Y-83853243D01*
X123853339Y-83852758D01*
X123339697Y-84064990D01*
X122946371Y-84457630D01*
X122733243Y-84970900D01*
X122732758Y-85526661D01*
X114191507Y-85526661D01*
X114604904Y-83377000D01*
X136914016Y-83377000D01*
X141882083Y-95797167D01*
X141882083Y-95797167D01*
G37*
X141882083Y-95797167D02*
X141909724Y-95839327D01*
X141951590Y-95867411D01*
X142000000Y-95877000D01*
X171873000Y-95877000D01*
X171873000Y-115623000D01*
X82127000Y-115623000D01*
X82127000Y-111479041D01*
X116028086Y-111479041D01*
X116267611Y-111985134D01*
X116682577Y-112361041D01*
X117070961Y-112521904D01*
X117293000Y-112399915D01*
X117293000Y-111257000D01*
X116149371Y-111257000D01*
X116028086Y-111479041D01*
X82127000Y-111479041D01*
X82127000Y-110780959D01*
X116028086Y-110780959D01*
X116149371Y-111003000D01*
X117293000Y-111003000D01*
X117293000Y-109860085D01*
X117547000Y-109860085D01*
X117547000Y-111003000D01*
X117567000Y-111003000D01*
X117567000Y-111257000D01*
X117547000Y-111257000D01*
X117547000Y-112399915D01*
X117769039Y-112521904D01*
X118157423Y-112361041D01*
X118572389Y-111985134D01*
X118675014Y-111768297D01*
X118945302Y-112172811D01*
X119410849Y-112483880D01*
X119960000Y-112593113D01*
X120509151Y-112483880D01*
X120974698Y-112172811D01*
X121244986Y-111768297D01*
X121347611Y-111985134D01*
X121762577Y-112361041D01*
X122150961Y-112521904D01*
X122373000Y-112399915D01*
X122373000Y-111257000D01*
X122353000Y-111257000D01*
X122353000Y-111003000D01*
X122373000Y-111003000D01*
X122373000Y-109860085D01*
X122627000Y-109860085D01*
X122627000Y-111003000D01*
X122647000Y-111003000D01*
X122647000Y-111257000D01*
X122627000Y-111257000D01*
X122627000Y-112399915D01*
X122849039Y-112521904D01*
X123237423Y-112361041D01*
X123610136Y-112023410D01*
X123636838Y-112165317D01*
X123775910Y-112381441D01*
X123988110Y-112526431D01*
X124240000Y-112577440D01*
X125840000Y-112577440D01*
X126075317Y-112533162D01*
X126291441Y-112394090D01*
X126436431Y-112181890D01*
X126487440Y-111930000D01*
X126487440Y-110330000D01*
X126443162Y-110094683D01*
X126304090Y-109878559D01*
X126091890Y-109733569D01*
X125840000Y-109682560D01*
X124240000Y-109682560D01*
X124004683Y-109726838D01*
X123788559Y-109865910D01*
X123643569Y-110078110D01*
X123611268Y-110237616D01*
X123237423Y-109898959D01*
X122849039Y-109738096D01*
X122627000Y-109860085D01*
X122373000Y-109860085D01*
X122150961Y-109738096D01*
X121762577Y-109898959D01*
X121347611Y-110274866D01*
X121244986Y-110491703D01*
X120974698Y-110087189D01*
X120509151Y-109776120D01*
X119960000Y-109666887D01*
X119410849Y-109776120D01*
X118945302Y-110087189D01*
X118675014Y-110491703D01*
X118572389Y-110274866D01*
X118157423Y-109898959D01*
X117769039Y-109738096D01*
X117547000Y-109860085D01*
X117293000Y-109860085D01*
X117070961Y-109738096D01*
X116682577Y-109898959D01*
X116267611Y-110274866D01*
X116028086Y-110780959D01*
X82127000Y-110780959D01*
X82127000Y-100185167D01*
X91064838Y-100185167D01*
X91206883Y-100528943D01*
X91240000Y-100562118D01*
X91240000Y-101187537D01*
X91207808Y-101219673D01*
X91065162Y-101563201D01*
X91064838Y-101935167D01*
X91206883Y-102278943D01*
X91469673Y-102542192D01*
X91813201Y-102684838D01*
X92185167Y-102685162D01*
X92528943Y-102543117D01*
X92792192Y-102280327D01*
X92934838Y-101936799D01*
X92935162Y-101564833D01*
X92793117Y-101221057D01*
X92760000Y-101187882D01*
X92760000Y-100562463D01*
X92792192Y-100530327D01*
X92831706Y-100435167D01*
X99064838Y-100435167D01*
X99206883Y-100778943D01*
X99240000Y-100812118D01*
X99240000Y-106000000D01*
X99297852Y-106290839D01*
X99462599Y-106537401D01*
X99564878Y-106639680D01*
X99564838Y-106685167D01*
X99706883Y-107028943D01*
X99969673Y-107292192D01*
X100313201Y-107434838D01*
X100685167Y-107435162D01*
X101028943Y-107293117D01*
X101292192Y-107030327D01*
X101323251Y-106955529D01*
X101456883Y-107278943D01*
X101719673Y-107542192D01*
X102063201Y-107684838D01*
X102435167Y-107685162D01*
X102778943Y-107543117D01*
X103042192Y-107280327D01*
X103184838Y-106936799D01*
X103184879Y-106889923D01*
X104287401Y-105787401D01*
X104452148Y-105540840D01*
X104510000Y-105250000D01*
X104510000Y-103935167D01*
X114314838Y-103935167D01*
X114456883Y-104278943D01*
X114490000Y-104312118D01*
X114490000Y-107937537D01*
X114457808Y-107969673D01*
X114315162Y-108313201D01*
X114314838Y-108685167D01*
X114456883Y-109028943D01*
X114719673Y-109292192D01*
X115063201Y-109434838D01*
X115435167Y-109435162D01*
X115778943Y-109293117D01*
X116042192Y-109030327D01*
X116184838Y-108686799D01*
X116185162Y-108314833D01*
X116043117Y-107971057D01*
X116010000Y-107937882D01*
X116010000Y-104312463D01*
X116042192Y-104280327D01*
X116184838Y-103936799D01*
X116185162Y-103564833D01*
X116043117Y-103221057D01*
X115780327Y-102957808D01*
X115436799Y-102815162D01*
X115064833Y-102814838D01*
X114721057Y-102956883D01*
X114457808Y-103219673D01*
X114315162Y-103563201D01*
X114314838Y-103935167D01*
X104510000Y-103935167D01*
X104510000Y-102312463D01*
X104542192Y-102280327D01*
X104684838Y-101936799D01*
X104685101Y-101635000D01*
X105443178Y-101635000D01*
X105563201Y-101684838D01*
X105935167Y-101685162D01*
X106278943Y-101543117D01*
X106542192Y-101280327D01*
X106684838Y-100936799D01*
X106685057Y-100685167D01*
X123564838Y-100685167D01*
X123706883Y-101028943D01*
X123740000Y-101062118D01*
X123740000Y-107187537D01*
X123707808Y-107219673D01*
X123565162Y-107563201D01*
X123564838Y-107935167D01*
X123706883Y-108278943D01*
X123969673Y-108542192D01*
X124313201Y-108684838D01*
X124685167Y-108685162D01*
X125028943Y-108543117D01*
X125292192Y-108280327D01*
X125321355Y-108210095D01*
X125435167Y-108210194D01*
X125778943Y-108068149D01*
X126042192Y-107805359D01*
X126184838Y-107461831D01*
X126184970Y-107310059D01*
X126291385Y-107310152D01*
X126635161Y-107168107D01*
X126898410Y-106905317D01*
X127041056Y-106561789D01*
X127041275Y-106310029D01*
X127182354Y-106310152D01*
X127526130Y-106168107D01*
X127789379Y-105905317D01*
X127833168Y-105799861D01*
X127977558Y-105859817D01*
X128349524Y-105860141D01*
X128693300Y-105718096D01*
X128764996Y-105646525D01*
X128764996Y-112375034D01*
X128822848Y-112665873D01*
X128987595Y-112912435D01*
X129214840Y-113139680D01*
X129214800Y-113185167D01*
X129356845Y-113528943D01*
X129619635Y-113792192D01*
X129963163Y-113934838D01*
X130335129Y-113935162D01*
X130678905Y-113793117D01*
X130942154Y-113530327D01*
X131084800Y-113186799D01*
X131085124Y-112814833D01*
X130943079Y-112471057D01*
X130680289Y-112207808D01*
X130480817Y-112124980D01*
X130678941Y-112043117D01*
X130942190Y-111780327D01*
X131084836Y-111436799D01*
X131085160Y-111064833D01*
X130943115Y-110721057D01*
X130909998Y-110687882D01*
X130909998Y-110685167D01*
X146314838Y-110685167D01*
X146456883Y-111028943D01*
X146719673Y-111292192D01*
X147063201Y-111434838D01*
X147435167Y-111435162D01*
X147778943Y-111293117D01*
X147874937Y-111197290D01*
X147969673Y-111292192D01*
X148313201Y-111434838D01*
X148685167Y-111435162D01*
X149028943Y-111293117D01*
X149062118Y-111260000D01*
X152050012Y-111260000D01*
X152340851Y-111202148D01*
X152587413Y-111037401D01*
X155442810Y-108182004D01*
X155778943Y-108043117D01*
X156042192Y-107780327D01*
X156184838Y-107436799D01*
X156185162Y-107064833D01*
X156043117Y-106721057D01*
X155780327Y-106457808D01*
X155436799Y-106315162D01*
X155064833Y-106314838D01*
X154721057Y-106456883D01*
X154487506Y-106690027D01*
X154186799Y-106565162D01*
X153814833Y-106564838D01*
X153684897Y-106618526D01*
X153685162Y-106314833D01*
X153543117Y-105971057D01*
X153510000Y-105937882D01*
X153510000Y-105500000D01*
X153463685Y-105267160D01*
X153452148Y-105209160D01*
X153287401Y-104962599D01*
X152935122Y-104610320D01*
X152935162Y-104564833D01*
X152793117Y-104221057D01*
X152530327Y-103957808D01*
X152186799Y-103815162D01*
X151814833Y-103814838D01*
X151581829Y-103911113D01*
X151353890Y-103682776D01*
X151010362Y-103540130D01*
X150638396Y-103539806D01*
X150294620Y-103681851D01*
X150208577Y-103767744D01*
X149998975Y-103557775D01*
X149655447Y-103415129D01*
X149283481Y-103414805D01*
X148939705Y-103556850D01*
X148676456Y-103819640D01*
X148533810Y-104163168D01*
X148533769Y-104210044D01*
X148462599Y-104281214D01*
X148297852Y-104527776D01*
X148240000Y-104818615D01*
X148240000Y-106187537D01*
X148207808Y-106219673D01*
X148065162Y-106563201D01*
X148064838Y-106935167D01*
X148206883Y-107278943D01*
X148469673Y-107542192D01*
X148813201Y-107684838D01*
X149185167Y-107685162D01*
X149528943Y-107543117D01*
X149792192Y-107280327D01*
X149934838Y-106936799D01*
X149935162Y-106564833D01*
X149793117Y-106221057D01*
X149760000Y-106187882D01*
X149760000Y-105241254D01*
X149997591Y-105143084D01*
X150083634Y-105057191D01*
X150240000Y-105213831D01*
X150240000Y-105687537D01*
X150207808Y-105719673D01*
X150065162Y-106063201D01*
X150064838Y-106435167D01*
X150206883Y-106778943D01*
X150469673Y-107042192D01*
X150813201Y-107184838D01*
X151185167Y-107185162D01*
X151528943Y-107043117D01*
X151792192Y-106780327D01*
X151823251Y-106705529D01*
X151956883Y-107028943D01*
X152219673Y-107292192D01*
X152563201Y-107434838D01*
X152935167Y-107435162D01*
X153028671Y-107396527D01*
X152685198Y-107740000D01*
X148750000Y-107740000D01*
X148459161Y-107797852D01*
X148212599Y-107962599D01*
X147012598Y-109162600D01*
X146847851Y-109409162D01*
X146794681Y-109676462D01*
X146721057Y-109706883D01*
X146457808Y-109969673D01*
X146315162Y-110313201D01*
X146314838Y-110685167D01*
X130909998Y-110685167D01*
X130909998Y-103935167D01*
X131564838Y-103935167D01*
X131706883Y-104278943D01*
X131969673Y-104542192D01*
X132313201Y-104684838D01*
X132685167Y-104685162D01*
X132790000Y-104641846D01*
X132790000Y-106928396D01*
X132721057Y-106956883D01*
X132457808Y-107219673D01*
X132315162Y-107563201D01*
X132314838Y-107935167D01*
X132456883Y-108278943D01*
X132719673Y-108542192D01*
X133063201Y-108684838D01*
X133435167Y-108685162D01*
X133750351Y-108554931D01*
X134063201Y-108684838D01*
X134435167Y-108685162D01*
X134778943Y-108543117D01*
X135042192Y-108280327D01*
X135184838Y-107936799D01*
X135185162Y-107564833D01*
X135043117Y-107221057D01*
X135010000Y-107187882D01*
X135010000Y-103903492D01*
X135151888Y-103561789D01*
X135152212Y-103189823D01*
X135010167Y-102846047D01*
X134747377Y-102582798D01*
X134403849Y-102440152D01*
X134031883Y-102439828D01*
X133688107Y-102581873D01*
X133654932Y-102614990D01*
X132875010Y-102614990D01*
X132584170Y-102672842D01*
X132371584Y-102814887D01*
X132314833Y-102814838D01*
X131971057Y-102956883D01*
X131707808Y-103219673D01*
X131565162Y-103563201D01*
X131564838Y-103935167D01*
X130909998Y-103935167D01*
X130909998Y-100164804D01*
X131139680Y-99935122D01*
X131185167Y-99935162D01*
X131528943Y-99793117D01*
X131792192Y-99530327D01*
X131934838Y-99186799D01*
X131935162Y-98814833D01*
X131793117Y-98471057D01*
X131530327Y-98207808D01*
X131315539Y-98118620D01*
X131227423Y-97905363D01*
X130964633Y-97642114D01*
X130621105Y-97499468D01*
X130249139Y-97499144D01*
X129905363Y-97641189D01*
X129642114Y-97903979D01*
X129499468Y-98247507D01*
X129499427Y-98294383D01*
X128987595Y-98806215D01*
X128822848Y-99052777D01*
X128764996Y-99343616D01*
X128764996Y-104203222D01*
X128694684Y-104132787D01*
X128351156Y-103990141D01*
X128304280Y-103990100D01*
X128010000Y-103695820D01*
X128010000Y-102562463D01*
X128042192Y-102530327D01*
X128184838Y-102186799D01*
X128185162Y-101814833D01*
X128043117Y-101471057D01*
X127780327Y-101207808D01*
X127436799Y-101065162D01*
X127414626Y-101065143D01*
X127293117Y-100771067D01*
X127030327Y-100507818D01*
X126686799Y-100365172D01*
X126314833Y-100364848D01*
X125971057Y-100506893D01*
X125707808Y-100769683D01*
X125565162Y-101113211D01*
X125564838Y-101485177D01*
X125646477Y-101682758D01*
X125346047Y-101806893D01*
X125260000Y-101892790D01*
X125260000Y-101062463D01*
X125292192Y-101030327D01*
X125434838Y-100686799D01*
X125435162Y-100314833D01*
X125293117Y-99971057D01*
X125030327Y-99707808D01*
X124686799Y-99565162D01*
X124314833Y-99564838D01*
X123971057Y-99706883D01*
X123707808Y-99969673D01*
X123565162Y-100313201D01*
X123564838Y-100685167D01*
X106685057Y-100685167D01*
X106685162Y-100564833D01*
X106543117Y-100221057D01*
X106280327Y-99957808D01*
X105936799Y-99815162D01*
X105564833Y-99814838D01*
X105443431Y-99865000D01*
X102000005Y-99865000D01*
X102000000Y-99864999D01*
X101661326Y-99932366D01*
X101616079Y-99962599D01*
X101374210Y-100124210D01*
X101374208Y-100124213D01*
X100844809Y-100653611D01*
X100934838Y-100436799D01*
X100935162Y-100064833D01*
X100793117Y-99721057D01*
X100530327Y-99457808D01*
X100186799Y-99315162D01*
X99814833Y-99314838D01*
X99471057Y-99456883D01*
X99207808Y-99719673D01*
X99065162Y-100063201D01*
X99064838Y-100435167D01*
X92831706Y-100435167D01*
X92934838Y-100186799D01*
X92935162Y-99814833D01*
X92793117Y-99471057D01*
X92530327Y-99207808D01*
X92186799Y-99065162D01*
X91814833Y-99064838D01*
X91471057Y-99206883D01*
X91207808Y-99469673D01*
X91065162Y-99813201D01*
X91064838Y-100185167D01*
X82127000Y-100185167D01*
X82127000Y-97685167D01*
X113564838Y-97685167D01*
X113706883Y-98028943D01*
X113969673Y-98292192D01*
X114313201Y-98434838D01*
X114685167Y-98435162D01*
X115028943Y-98293117D01*
X115292192Y-98030327D01*
X115342566Y-97909014D01*
X116366579Y-96885000D01*
X124999995Y-96885000D01*
X125000000Y-96885001D01*
X125282484Y-96828810D01*
X125338675Y-96817633D01*
X125625790Y-96625790D01*
X126116579Y-96135000D01*
X128412824Y-96135000D01*
X128611326Y-96267634D01*
X128950001Y-96335002D01*
X128950006Y-96335001D01*
X130512843Y-96335001D01*
X130719673Y-96542192D01*
X131063201Y-96684838D01*
X131435167Y-96685162D01*
X131778943Y-96543117D01*
X132042192Y-96280327D01*
X132184838Y-95936799D01*
X132185162Y-95564833D01*
X132043117Y-95221057D01*
X131780327Y-94957808D01*
X131729952Y-94936890D01*
X134058524Y-94936890D01*
X134228355Y-95346924D01*
X134618642Y-95775183D01*
X135143108Y-96021486D01*
X135373000Y-95900819D01*
X135373000Y-94707000D01*
X135627000Y-94707000D01*
X135627000Y-95900819D01*
X135856892Y-96021486D01*
X136381358Y-95775183D01*
X136771645Y-95346924D01*
X136941476Y-94936890D01*
X136820155Y-94707000D01*
X135627000Y-94707000D01*
X135373000Y-94707000D01*
X134179845Y-94707000D01*
X134058524Y-94936890D01*
X131729952Y-94936890D01*
X131659014Y-94907434D01*
X131575791Y-94824211D01*
X131421409Y-94721057D01*
X131288676Y-94632368D01*
X131232485Y-94621191D01*
X130950001Y-94565000D01*
X130949996Y-94565001D01*
X129287177Y-94565001D01*
X129126750Y-94457808D01*
X129088675Y-94432367D01*
X129032484Y-94421190D01*
X128750000Y-94364999D01*
X128749995Y-94365000D01*
X126056822Y-94365000D01*
X125936799Y-94315162D01*
X125635163Y-94314899D01*
X125635284Y-94176205D01*
X125386894Y-93575057D01*
X124927363Y-93114722D01*
X124326648Y-92865284D01*
X123676205Y-92864716D01*
X123075057Y-93113106D01*
X122614722Y-93572637D01*
X122365284Y-94173352D01*
X122364716Y-94823795D01*
X122485040Y-95115000D01*
X119014982Y-95115000D01*
X119134716Y-94826648D01*
X119135284Y-94176205D01*
X118886894Y-93575057D01*
X118427363Y-93114722D01*
X117826648Y-92865284D01*
X117176205Y-92864716D01*
X116575057Y-93113106D01*
X116114722Y-93572637D01*
X115865284Y-94173352D01*
X115864716Y-94823795D01*
X115986176Y-95117750D01*
X115661325Y-95182367D01*
X115374210Y-95374210D01*
X115374208Y-95374213D01*
X114091164Y-96657256D01*
X113971057Y-96706883D01*
X113707808Y-96969673D01*
X113565162Y-97313201D01*
X113564838Y-97685167D01*
X82127000Y-97685167D01*
X82127000Y-96377000D01*
X112000000Y-96377000D01*
X112049410Y-96366994D01*
X112091035Y-96338553D01*
X112124715Y-96273984D01*
X113109609Y-91152532D01*
X116527073Y-91152532D01*
X116625736Y-91419387D01*
X117235461Y-91645908D01*
X117885460Y-91621856D01*
X118374264Y-91419387D01*
X118472927Y-91152532D01*
X123027073Y-91152532D01*
X123125736Y-91419387D01*
X123735461Y-91645908D01*
X124385460Y-91621856D01*
X124874264Y-91419387D01*
X124972927Y-91152532D01*
X124000000Y-90179605D01*
X123027073Y-91152532D01*
X118472927Y-91152532D01*
X117500000Y-90179605D01*
X116527073Y-91152532D01*
X113109609Y-91152532D01*
X113382123Y-89735461D01*
X115854092Y-89735461D01*
X115878144Y-90385460D01*
X116080613Y-90874264D01*
X116347468Y-90972927D01*
X117320395Y-90000000D01*
X117679605Y-90000000D01*
X118652532Y-90972927D01*
X118919387Y-90874264D01*
X119145908Y-90264539D01*
X119126331Y-89735461D01*
X122354092Y-89735461D01*
X122378144Y-90385460D01*
X122580613Y-90874264D01*
X122847468Y-90972927D01*
X123820395Y-90000000D01*
X124179605Y-90000000D01*
X125152532Y-90972927D01*
X125419387Y-90874264D01*
X125645908Y-90264539D01*
X125636120Y-90000000D01*
X130740000Y-90000000D01*
X130816882Y-90386510D01*
X131035822Y-90714178D01*
X133075822Y-92754178D01*
X133403490Y-92973118D01*
X133790000Y-93050000D01*
X134394090Y-93050000D01*
X134420853Y-93090054D01*
X134761553Y-93317702D01*
X134618642Y-93384817D01*
X134228355Y-93813076D01*
X134058524Y-94223110D01*
X134179845Y-94453000D01*
X135373000Y-94453000D01*
X135373000Y-94433000D01*
X135627000Y-94433000D01*
X135627000Y-94453000D01*
X136820155Y-94453000D01*
X136941476Y-94223110D01*
X136771645Y-93813076D01*
X136381358Y-93384817D01*
X136238447Y-93317702D01*
X136579147Y-93090054D01*
X136901054Y-92608285D01*
X137014093Y-92040000D01*
X136901054Y-91471715D01*
X136579147Y-90989946D01*
X136249974Y-90770000D01*
X136579147Y-90550054D01*
X136901054Y-90068285D01*
X137014093Y-89500000D01*
X136901054Y-88931715D01*
X136579147Y-88449946D01*
X136537548Y-88422150D01*
X136585317Y-88413162D01*
X136801441Y-88274090D01*
X136946431Y-88061890D01*
X136997440Y-87810000D01*
X136997440Y-86110000D01*
X136953162Y-85874683D01*
X136814090Y-85658559D01*
X136601890Y-85513569D01*
X136350000Y-85462560D01*
X134650000Y-85462560D01*
X134414683Y-85506838D01*
X134198559Y-85645910D01*
X134053569Y-85858110D01*
X134002560Y-86110000D01*
X134002560Y-87810000D01*
X134046838Y-88045317D01*
X134185910Y-88261441D01*
X134398110Y-88406431D01*
X134465541Y-88420086D01*
X134420853Y-88449946D01*
X134098946Y-88931715D01*
X133985907Y-89500000D01*
X134098946Y-90068285D01*
X134420853Y-90550054D01*
X134750026Y-90770000D01*
X134420853Y-90989946D01*
X134394090Y-91030000D01*
X134208356Y-91030000D01*
X132464178Y-89285822D01*
X132136510Y-89066882D01*
X131750000Y-88990000D01*
X131363490Y-89066882D01*
X131035822Y-89285822D01*
X130816882Y-89613490D01*
X130740000Y-90000000D01*
X125636120Y-90000000D01*
X125621856Y-89614540D01*
X125419387Y-89125736D01*
X125152532Y-89027073D01*
X124179605Y-90000000D01*
X123820395Y-90000000D01*
X122847468Y-89027073D01*
X122580613Y-89125736D01*
X122354092Y-89735461D01*
X119126331Y-89735461D01*
X119121856Y-89614540D01*
X118919387Y-89125736D01*
X118652532Y-89027073D01*
X117679605Y-90000000D01*
X117320395Y-90000000D01*
X116347468Y-89027073D01*
X116080613Y-89125736D01*
X115854092Y-89735461D01*
X113382123Y-89735461D01*
X113552890Y-88847468D01*
X116527073Y-88847468D01*
X117500000Y-89820395D01*
X118472927Y-88847468D01*
X123027073Y-88847468D01*
X124000000Y-89820395D01*
X124972927Y-88847468D01*
X124874264Y-88580613D01*
X124264539Y-88354092D01*
X123614540Y-88378144D01*
X123125736Y-88580613D01*
X123027073Y-88847468D01*
X118472927Y-88847468D01*
X118374264Y-88580613D01*
X117764539Y-88354092D01*
X117114540Y-88378144D01*
X116625736Y-88580613D01*
X116527073Y-88847468D01*
X113552890Y-88847468D01*
X114191507Y-85526661D01*
X122732758Y-85526661D01*
X122944990Y-86040303D01*
X123337630Y-86433629D01*
X123850900Y-86646757D01*
X124406661Y-86647242D01*
X124920303Y-86435010D01*
X125313629Y-86042370D01*
X125399949Y-85834488D01*
X125484990Y-86040303D01*
X125877630Y-86433629D01*
X126390900Y-86646757D01*
X126946661Y-86647242D01*
X127460303Y-86435010D01*
X127665457Y-86230213D01*
X128409392Y-86230213D01*
X128478857Y-86472397D01*
X129002302Y-86659144D01*
X129557368Y-86631362D01*
X129941143Y-86472397D01*
X130010608Y-86230213D01*
X129210000Y-85429605D01*
X128409392Y-86230213D01*
X127665457Y-86230213D01*
X127853629Y-86042370D01*
X127933395Y-85850273D01*
X127987603Y-85981143D01*
X128229787Y-86050608D01*
X129030395Y-85250000D01*
X129389605Y-85250000D01*
X130190213Y-86050608D01*
X130432397Y-85981143D01*
X130482509Y-85840682D01*
X130564990Y-86040303D01*
X130957630Y-86433629D01*
X131470900Y-86646757D01*
X132026661Y-86647242D01*
X132540303Y-86435010D01*
X132933629Y-86042370D01*
X133146757Y-85529100D01*
X133147242Y-84973339D01*
X132935010Y-84459697D01*
X132542370Y-84066371D01*
X132029100Y-83853243D01*
X131473339Y-83852758D01*
X130959697Y-84064990D01*
X130566371Y-84457630D01*
X130486605Y-84649727D01*
X130432397Y-84518857D01*
X130190213Y-84449392D01*
X129389605Y-85250000D01*
X129030395Y-85250000D01*
X128229787Y-84449392D01*
X127987603Y-84518857D01*
X127937491Y-84659318D01*
X127855010Y-84459697D01*
X127665432Y-84269787D01*
X128409392Y-84269787D01*
X129210000Y-85070395D01*
X130010608Y-84269787D01*
X129941143Y-84027603D01*
X129417698Y-83840856D01*
X128862632Y-83868638D01*
X128478857Y-84027603D01*
X128409392Y-84269787D01*
X127665432Y-84269787D01*
X127462370Y-84066371D01*
X126949100Y-83853243D01*
X126393339Y-83852758D01*
X125879697Y-84064990D01*
X125486371Y-84457630D01*
X125400051Y-84665512D01*
X125315010Y-84459697D01*
X124922370Y-84066371D01*
X124409100Y-83853243D01*
X123853339Y-83852758D01*
X123339697Y-84064990D01*
X122946371Y-84457630D01*
X122733243Y-84970900D01*
X122732758Y-85526661D01*
X114191507Y-85526661D01*
X114604904Y-83377000D01*
X136914016Y-83377000D01*
X141882083Y-95797167D01*
M02*
