G04 #@! TF.FileFunction,Copper,L2,Inr,Plane*
%FSLAX46Y46*%
G04 Gerber Fmt 4.6, Leading zero omitted, Abs format (unit mm)*
G04 Created by KiCad (PCBNEW 4.0.2+dfsg1-stable) date Tue 14 Aug 2018 10:54:23 PM MDT*
%MOMM*%
G01*
G04 APERTURE LIST*
%ADD10C,0.100000*%
%ADD11R,1.700000X1.700000*%
%ADD12O,1.700000X1.700000*%
%ADD13C,2.000000*%
%ADD14R,1.600000X1.600000*%
%ADD15O,1.600000X1.600000*%
%ADD16C,1.524000*%
%ADD17C,0.600000*%
%ADD18C,0.250000*%
%ADD19C,1.000000*%
G04 APERTURE END LIST*
D10*
D11*
X126720000Y-123870000D03*
D12*
X126720000Y-126410000D03*
X126720000Y-128950000D03*
D11*
X124180000Y-123870000D03*
D12*
X124180000Y-126410000D03*
X124180000Y-128950000D03*
D11*
X131800000Y-126410000D03*
D12*
X131800000Y-123870000D03*
D13*
X84720000Y-77300000D03*
X89800000Y-77300000D03*
X94920000Y-77300000D03*
X100000000Y-77300000D03*
X105120000Y-77300000D03*
X110200000Y-77300000D03*
X115320000Y-77300000D03*
X120400000Y-77300000D03*
X89960000Y-135720000D03*
X84880000Y-135720000D03*
X100120000Y-135720000D03*
X95040000Y-135720000D03*
X110280000Y-135720000D03*
X105200000Y-135720000D03*
X120440000Y-135720000D03*
X115360000Y-135720000D03*
X134630000Y-77240000D03*
X139710000Y-77240000D03*
X144790000Y-77240000D03*
X149870000Y-77240000D03*
X154950000Y-77240000D03*
X160030000Y-77240000D03*
X165110000Y-77240000D03*
X170190000Y-77240000D03*
X139780000Y-135680000D03*
X134700000Y-135680000D03*
X149940000Y-135680000D03*
X144860000Y-135680000D03*
X160100000Y-135680000D03*
X155020000Y-135680000D03*
X170260000Y-135680000D03*
X165180000Y-135680000D03*
D11*
X126250000Y-78000000D03*
D12*
X128790000Y-78000000D03*
D13*
X117500000Y-94500000D03*
X117500000Y-90000000D03*
X124000000Y-94500000D03*
X124000000Y-90000000D03*
D14*
X125040000Y-111130000D03*
D15*
X117420000Y-118750000D03*
X122500000Y-111130000D03*
X119960000Y-118750000D03*
X119960000Y-111130000D03*
X122500000Y-118750000D03*
X117420000Y-111130000D03*
X125040000Y-118750000D03*
D16*
X124130000Y-85250000D03*
X126670000Y-85250000D03*
X129210000Y-85250000D03*
X131750000Y-85250000D03*
D11*
X135500000Y-86960000D03*
D12*
X135500000Y-89500000D03*
X135500000Y-92040000D03*
X135500000Y-94580000D03*
D16*
X86250000Y-86420000D03*
X86250000Y-88960000D03*
X86250000Y-91500000D03*
X93250000Y-86420000D03*
X93250000Y-88960000D03*
X93250000Y-91500000D03*
X100250000Y-86420000D03*
X100250000Y-88960000D03*
X100250000Y-91500000D03*
X107250000Y-86420000D03*
X107250000Y-88960000D03*
X107250000Y-91500000D03*
X86050000Y-126300000D03*
X86050000Y-123760000D03*
X86050000Y-121220000D03*
X93050000Y-126300000D03*
X93050000Y-123760000D03*
X93050000Y-121220000D03*
X100050000Y-126300000D03*
X100050000Y-123760000D03*
X100050000Y-121220000D03*
X107050000Y-126300000D03*
X107050000Y-123760000D03*
X107050000Y-121220000D03*
X147750000Y-85960000D03*
X147750000Y-88500000D03*
X147750000Y-91040000D03*
X154750000Y-85960000D03*
X154750000Y-88500000D03*
X154750000Y-91040000D03*
X161750000Y-85960000D03*
X161750000Y-88500000D03*
X161750000Y-91040000D03*
X168750000Y-85960000D03*
X168750000Y-88500000D03*
X168750000Y-91040000D03*
X146500000Y-126580000D03*
X146500000Y-124040000D03*
X146500000Y-121500000D03*
X153500000Y-126580000D03*
X153500000Y-124040000D03*
X153500000Y-121500000D03*
X160500000Y-126580000D03*
X160500000Y-124040000D03*
X160500000Y-121500000D03*
X167500000Y-126580000D03*
X167500000Y-124040000D03*
X167500000Y-121500000D03*
D13*
X77000000Y-109580000D03*
X77000000Y-104500000D03*
X178000000Y-104460000D03*
X178000000Y-109540000D03*
D17*
X131750000Y-90000000D03*
X133550000Y-104000000D03*
X133250000Y-107750000D03*
X131250000Y-95750000D03*
X125750000Y-95250000D03*
X114500000Y-97500000D03*
X105750000Y-100750000D03*
X101000000Y-101750000D03*
X156000000Y-109000000D03*
X125750000Y-100000000D03*
X124750000Y-97750000D03*
X90250000Y-115250000D03*
X96750000Y-115250000D03*
X103750000Y-115250000D03*
X110500000Y-115250000D03*
X110000000Y-109000000D03*
X144000000Y-115000000D03*
X150500000Y-115250000D03*
X157750000Y-115250000D03*
X164750000Y-115250000D03*
X165000000Y-97250000D03*
X157750000Y-97250000D03*
X151250000Y-97250000D03*
X144250000Y-97250000D03*
X136000000Y-99750000D03*
X120000000Y-102500000D03*
X110250000Y-97500000D03*
X103250000Y-97500000D03*
X96000000Y-97500000D03*
X89250000Y-97500000D03*
X147250000Y-85460000D03*
X153500000Y-84000000D03*
X160750000Y-84000000D03*
X168000000Y-84250000D03*
X166500000Y-128500000D03*
X160000000Y-128250000D03*
X152750000Y-128250000D03*
X145080000Y-128000000D03*
X106000000Y-128000000D03*
X98750000Y-127750000D03*
X92000000Y-127750000D03*
X87250000Y-127750000D03*
X107500000Y-84750000D03*
X101000000Y-84500000D03*
X93500000Y-84500000D03*
X86750000Y-84500000D03*
X132500000Y-103750000D03*
X134217050Y-103374990D03*
X134250000Y-107750000D03*
X124500000Y-107750000D03*
X124500000Y-100500000D03*
X126500000Y-101300010D03*
X126997187Y-105374990D03*
X152000000Y-104750000D03*
X152750000Y-106500000D03*
X128164357Y-104924979D03*
X127250000Y-102000000D03*
X126106218Y-106374990D03*
X150823563Y-104474968D03*
X151000000Y-106250000D03*
X125874990Y-102600010D03*
X149000000Y-106750000D03*
X149468648Y-104349967D03*
X125250000Y-107275032D03*
X125250000Y-103250010D03*
X154000000Y-107500000D03*
X147250000Y-110500000D03*
X155250000Y-107250000D03*
X148500000Y-110500000D03*
X115250000Y-108500000D03*
X115250000Y-103750000D03*
X92000000Y-100000000D03*
X92000000Y-101750000D03*
X100000000Y-100250000D03*
X100500000Y-106500000D03*
X103750000Y-101750000D03*
X102250000Y-106750000D03*
X130149998Y-111250000D03*
X131000000Y-99000000D03*
X130149962Y-113000000D03*
X130434306Y-98434306D03*
D18*
X122750000Y-132500000D02*
X118580000Y-132500000D01*
X118580000Y-132500000D02*
X115360000Y-135720000D01*
X125930000Y-135680000D02*
X122750000Y-132500000D01*
X134700000Y-135680000D02*
X125930000Y-135680000D01*
D19*
G36*
X81719481Y-77894119D02*
X82175241Y-78997143D01*
X83018418Y-79841793D01*
X84120645Y-80299478D01*
X85314119Y-80300519D01*
X86417143Y-79844759D01*
X87261793Y-79001582D01*
X87719478Y-77899355D01*
X87720415Y-76825000D01*
X91920414Y-76825000D01*
X91919481Y-77894119D01*
X92375241Y-78997143D01*
X93218418Y-79841793D01*
X94320645Y-80299478D01*
X95514119Y-80300519D01*
X96617143Y-79844759D01*
X97461793Y-79001582D01*
X97919478Y-77899355D01*
X97920415Y-76825000D01*
X102120414Y-76825000D01*
X102119481Y-77894119D01*
X102575241Y-78997143D01*
X103418418Y-79841793D01*
X104520645Y-80299478D01*
X105714119Y-80300519D01*
X106817143Y-79844759D01*
X107661793Y-79001582D01*
X108119478Y-77899355D01*
X108120415Y-76825000D01*
X112320414Y-76825000D01*
X112319481Y-77894119D01*
X112775241Y-78997143D01*
X113618418Y-79841793D01*
X114720645Y-80299478D01*
X115914119Y-80300519D01*
X117017143Y-79844759D01*
X117861793Y-79001582D01*
X118319478Y-77899355D01*
X118320415Y-76825000D01*
X123426632Y-76825000D01*
X123360818Y-77150000D01*
X123360818Y-78850000D01*
X123500276Y-79591156D01*
X123938298Y-80271862D01*
X124606644Y-80728523D01*
X125400000Y-80889182D01*
X127100000Y-80889182D01*
X127841156Y-80749724D01*
X127879885Y-80724802D01*
X128790000Y-80905835D01*
X129880648Y-80688892D01*
X130805254Y-80071089D01*
X131423057Y-79146483D01*
X131640000Y-78055835D01*
X131640000Y-77944165D01*
X131423057Y-76853517D01*
X131404003Y-76825000D01*
X131630361Y-76825000D01*
X131629481Y-77834119D01*
X132085241Y-78937143D01*
X132928418Y-79781793D01*
X134030645Y-80239478D01*
X135224119Y-80240519D01*
X136327143Y-79784759D01*
X137171793Y-78941582D01*
X137629478Y-77839355D01*
X137630363Y-76825000D01*
X141790361Y-76825000D01*
X141789481Y-77834119D01*
X142245241Y-78937143D01*
X143088418Y-79781793D01*
X144190645Y-80239478D01*
X145384119Y-80240519D01*
X146487143Y-79784759D01*
X147331793Y-78941582D01*
X147789478Y-77839355D01*
X147790363Y-76825000D01*
X151950361Y-76825000D01*
X151949481Y-77834119D01*
X152405241Y-78937143D01*
X153248418Y-79781793D01*
X154350645Y-80239478D01*
X155544119Y-80240519D01*
X156647143Y-79784759D01*
X157491793Y-78941582D01*
X157949478Y-77839355D01*
X157950363Y-76825000D01*
X162110361Y-76825000D01*
X162109481Y-77834119D01*
X162565241Y-78937143D01*
X163408418Y-79781793D01*
X164510645Y-80239478D01*
X165704119Y-80240519D01*
X166807143Y-79784759D01*
X167651793Y-78941582D01*
X168109478Y-77839355D01*
X168110363Y-76825000D01*
X178425000Y-76825000D01*
X178425000Y-106540370D01*
X177405881Y-106539481D01*
X176302857Y-106995241D01*
X175458207Y-107838418D01*
X175000522Y-108940645D01*
X174999481Y-110134119D01*
X175455241Y-111237143D01*
X176298418Y-112081793D01*
X177400645Y-112539478D01*
X178425000Y-112540371D01*
X178425000Y-136175000D01*
X173259569Y-136175000D01*
X173260519Y-135085881D01*
X172804759Y-133982857D01*
X171961582Y-133138207D01*
X170859355Y-132680522D01*
X169665881Y-132679481D01*
X168562857Y-133135241D01*
X167718207Y-133978418D01*
X167260522Y-135080645D01*
X167259567Y-136175000D01*
X163099569Y-136175000D01*
X163100519Y-135085881D01*
X162644759Y-133982857D01*
X161801582Y-133138207D01*
X160699355Y-132680522D01*
X159505881Y-132679481D01*
X158402857Y-133135241D01*
X157558207Y-133978418D01*
X157100522Y-135080645D01*
X157099567Y-136175000D01*
X152939569Y-136175000D01*
X152940519Y-135085881D01*
X152484759Y-133982857D01*
X151641582Y-133138207D01*
X150539355Y-132680522D01*
X149345881Y-132679481D01*
X148242857Y-133135241D01*
X147398207Y-133978418D01*
X146940522Y-135080645D01*
X146939567Y-136175000D01*
X142779569Y-136175000D01*
X142780519Y-135085881D01*
X142324759Y-133982857D01*
X141481582Y-133138207D01*
X140379355Y-132680522D01*
X139185881Y-132679481D01*
X138082857Y-133135241D01*
X137238207Y-133978418D01*
X136780522Y-135080645D01*
X136779567Y-136175000D01*
X123439604Y-136175000D01*
X123440519Y-135125881D01*
X122984759Y-134022857D01*
X122141582Y-133178207D01*
X121039355Y-132720522D01*
X119845881Y-132719481D01*
X118742857Y-133175241D01*
X117898207Y-134018418D01*
X117440522Y-135120645D01*
X117439602Y-136175000D01*
X113279604Y-136175000D01*
X113280519Y-135125881D01*
X112824759Y-134022857D01*
X111981582Y-133178207D01*
X110879355Y-132720522D01*
X109685881Y-132719481D01*
X108582857Y-133175241D01*
X107738207Y-134018418D01*
X107280522Y-135120645D01*
X107279602Y-136175000D01*
X103119604Y-136175000D01*
X103120519Y-135125881D01*
X102664759Y-134022857D01*
X101821582Y-133178207D01*
X100719355Y-132720522D01*
X99525881Y-132719481D01*
X98422857Y-133175241D01*
X97578207Y-134018418D01*
X97120522Y-135120645D01*
X97119602Y-136175000D01*
X92959604Y-136175000D01*
X92960519Y-135125881D01*
X92504759Y-134022857D01*
X91661582Y-133178207D01*
X90559355Y-132720522D01*
X89365881Y-132719481D01*
X88262857Y-133175241D01*
X87418207Y-134018418D01*
X86960522Y-135120645D01*
X86959602Y-136175000D01*
X76575000Y-136175000D01*
X76575000Y-107499630D01*
X77594119Y-107500519D01*
X78697143Y-107044759D01*
X79541793Y-106201582D01*
X79999478Y-105099355D01*
X80000519Y-103905881D01*
X79544759Y-102802857D01*
X78701582Y-101958207D01*
X77599355Y-101500522D01*
X76575000Y-101499629D01*
X76575000Y-95750000D01*
X82750000Y-95750000D01*
X82750000Y-115500000D01*
X82751333Y-115536488D01*
X83309052Y-123158651D01*
X83288480Y-123208194D01*
X83287521Y-124306985D01*
X83415792Y-124617423D01*
X83467062Y-125318120D01*
X83288480Y-125748194D01*
X83287521Y-126846985D01*
X83707125Y-127862503D01*
X83964080Y-128119907D01*
X84009710Y-128348058D01*
X84086488Y-128531083D01*
X84228424Y-128669817D01*
X84500000Y-128750000D01*
X84747971Y-128750000D01*
X85262943Y-128963835D01*
X85299018Y-129051143D01*
X85945453Y-129698708D01*
X86790495Y-130049600D01*
X87705491Y-130050399D01*
X88551143Y-129700982D01*
X89198708Y-129054547D01*
X89325167Y-128750000D01*
X89924588Y-128750000D01*
X90049018Y-129051143D01*
X90695453Y-129698708D01*
X91540495Y-130049600D01*
X92455491Y-130050399D01*
X93301143Y-129700982D01*
X93948708Y-129054547D01*
X94017576Y-128888694D01*
X94353241Y-128750000D01*
X96674588Y-128750000D01*
X96799018Y-129051143D01*
X97445453Y-129698708D01*
X98290495Y-130049600D01*
X99205491Y-130050399D01*
X100051143Y-129700982D01*
X100698708Y-129054547D01*
X100715800Y-129013386D01*
X101353241Y-128750000D01*
X103821290Y-128750000D01*
X104049018Y-129301143D01*
X104695453Y-129948708D01*
X105540495Y-130299600D01*
X106455491Y-130300399D01*
X107301143Y-129950982D01*
X107948708Y-129304547D01*
X108142885Y-128836918D01*
X108353242Y-128750000D01*
X116842389Y-128750000D01*
X121713269Y-132159616D01*
X121878732Y-132235071D01*
X127878732Y-133735071D01*
X128000000Y-133750000D01*
X132000000Y-133750000D01*
X132194528Y-133710607D01*
X132322068Y-133632456D01*
X136934229Y-129748531D01*
X143522586Y-129695399D01*
X143775453Y-129948708D01*
X144620495Y-130299600D01*
X145535491Y-130300399D01*
X146381143Y-129950982D01*
X146662539Y-129670077D01*
X150883762Y-129636035D01*
X151445453Y-130198708D01*
X152290495Y-130549600D01*
X153205491Y-130550399D01*
X154051143Y-130200982D01*
X154647484Y-129605682D01*
X158075862Y-129578034D01*
X158695453Y-130198708D01*
X159540495Y-130549600D01*
X160455491Y-130550399D01*
X161301143Y-130200982D01*
X161948708Y-129554547D01*
X161951935Y-129546775D01*
X164435639Y-129526745D01*
X164549018Y-129801143D01*
X165195453Y-130448708D01*
X166040495Y-130799600D01*
X166955491Y-130800399D01*
X167801143Y-130450982D01*
X168448708Y-129804547D01*
X168763511Y-129046416D01*
X169062503Y-128922875D01*
X169565352Y-128420903D01*
X172271626Y-126669785D01*
X172413545Y-126531034D01*
X172500000Y-126250000D01*
X172500000Y-88250000D01*
X172460607Y-88055472D01*
X172312348Y-87859566D01*
X171291122Y-87042585D01*
X171511520Y-86511806D01*
X171512479Y-85413015D01*
X171092875Y-84397497D01*
X170316590Y-83619855D01*
X170209934Y-83575568D01*
X169950982Y-82948857D01*
X169304547Y-82301292D01*
X168459505Y-81950400D01*
X167544509Y-81949601D01*
X166698857Y-82299018D01*
X166051292Y-82945453D01*
X165717215Y-83750000D01*
X163446508Y-83750000D01*
X163316590Y-83619855D01*
X163032849Y-83502036D01*
X162700982Y-82698857D01*
X162054547Y-82051292D01*
X161209505Y-81700400D01*
X160294509Y-81699601D01*
X159448857Y-82049018D01*
X158801292Y-82695453D01*
X158450400Y-83540495D01*
X158450217Y-83750000D01*
X156446508Y-83750000D01*
X156316590Y-83619855D01*
X155731073Y-83376727D01*
X155450982Y-82698857D01*
X154804547Y-82051292D01*
X153959505Y-81700400D01*
X153044509Y-81699601D01*
X152198857Y-82049018D01*
X151551292Y-82695453D01*
X151200400Y-83540495D01*
X151200217Y-83750000D01*
X149446508Y-83750000D01*
X149316590Y-83619855D01*
X148301806Y-83198480D01*
X147800157Y-83198042D01*
X147709505Y-83160400D01*
X146794509Y-83159601D01*
X145948857Y-83509018D01*
X145707454Y-83750000D01*
X144022685Y-83750000D01*
X132906090Y-82739400D01*
X132301806Y-82488480D01*
X131203015Y-82487521D01*
X131010485Y-82567073D01*
X127545268Y-82252053D01*
X127462371Y-82251418D01*
X124325421Y-82488169D01*
X123583015Y-82487521D01*
X123415188Y-82556866D01*
X114231160Y-83250000D01*
X109252472Y-83250000D01*
X108804547Y-82801292D01*
X107959505Y-82450400D01*
X107044509Y-82449601D01*
X106198857Y-82799018D01*
X105747087Y-83250000D01*
X102972114Y-83250000D01*
X102950982Y-83198857D01*
X102304547Y-82551292D01*
X101459505Y-82200400D01*
X100544509Y-82199601D01*
X99698857Y-82549018D01*
X99051292Y-83195453D01*
X99028642Y-83250000D01*
X95472114Y-83250000D01*
X95450982Y-83198857D01*
X94804547Y-82551292D01*
X93959505Y-82200400D01*
X93044509Y-82199601D01*
X92198857Y-82549018D01*
X91551292Y-83195453D01*
X91528642Y-83250000D01*
X88722114Y-83250000D01*
X88700982Y-83198857D01*
X88054547Y-82551292D01*
X87209505Y-82200400D01*
X86294509Y-82199601D01*
X85448857Y-82549018D01*
X84801292Y-83195453D01*
X84450400Y-84040495D01*
X84450161Y-84314047D01*
X83909855Y-84853410D01*
X83877906Y-84930353D01*
X83237951Y-85324171D01*
X83092926Y-85459672D01*
X83000156Y-85737504D01*
X82750156Y-95737504D01*
X82750000Y-95750000D01*
X76575000Y-95750000D01*
X76575000Y-76825000D01*
X81720414Y-76825000D01*
X81719481Y-77894119D01*
X81719481Y-77894119D01*
G37*
X81719481Y-77894119D02*
X82175241Y-78997143D01*
X83018418Y-79841793D01*
X84120645Y-80299478D01*
X85314119Y-80300519D01*
X86417143Y-79844759D01*
X87261793Y-79001582D01*
X87719478Y-77899355D01*
X87720415Y-76825000D01*
X91920414Y-76825000D01*
X91919481Y-77894119D01*
X92375241Y-78997143D01*
X93218418Y-79841793D01*
X94320645Y-80299478D01*
X95514119Y-80300519D01*
X96617143Y-79844759D01*
X97461793Y-79001582D01*
X97919478Y-77899355D01*
X97920415Y-76825000D01*
X102120414Y-76825000D01*
X102119481Y-77894119D01*
X102575241Y-78997143D01*
X103418418Y-79841793D01*
X104520645Y-80299478D01*
X105714119Y-80300519D01*
X106817143Y-79844759D01*
X107661793Y-79001582D01*
X108119478Y-77899355D01*
X108120415Y-76825000D01*
X112320414Y-76825000D01*
X112319481Y-77894119D01*
X112775241Y-78997143D01*
X113618418Y-79841793D01*
X114720645Y-80299478D01*
X115914119Y-80300519D01*
X117017143Y-79844759D01*
X117861793Y-79001582D01*
X118319478Y-77899355D01*
X118320415Y-76825000D01*
X123426632Y-76825000D01*
X123360818Y-77150000D01*
X123360818Y-78850000D01*
X123500276Y-79591156D01*
X123938298Y-80271862D01*
X124606644Y-80728523D01*
X125400000Y-80889182D01*
X127100000Y-80889182D01*
X127841156Y-80749724D01*
X127879885Y-80724802D01*
X128790000Y-80905835D01*
X129880648Y-80688892D01*
X130805254Y-80071089D01*
X131423057Y-79146483D01*
X131640000Y-78055835D01*
X131640000Y-77944165D01*
X131423057Y-76853517D01*
X131404003Y-76825000D01*
X131630361Y-76825000D01*
X131629481Y-77834119D01*
X132085241Y-78937143D01*
X132928418Y-79781793D01*
X134030645Y-80239478D01*
X135224119Y-80240519D01*
X136327143Y-79784759D01*
X137171793Y-78941582D01*
X137629478Y-77839355D01*
X137630363Y-76825000D01*
X141790361Y-76825000D01*
X141789481Y-77834119D01*
X142245241Y-78937143D01*
X143088418Y-79781793D01*
X144190645Y-80239478D01*
X145384119Y-80240519D01*
X146487143Y-79784759D01*
X147331793Y-78941582D01*
X147789478Y-77839355D01*
X147790363Y-76825000D01*
X151950361Y-76825000D01*
X151949481Y-77834119D01*
X152405241Y-78937143D01*
X153248418Y-79781793D01*
X154350645Y-80239478D01*
X155544119Y-80240519D01*
X156647143Y-79784759D01*
X157491793Y-78941582D01*
X157949478Y-77839355D01*
X157950363Y-76825000D01*
X162110361Y-76825000D01*
X162109481Y-77834119D01*
X162565241Y-78937143D01*
X163408418Y-79781793D01*
X164510645Y-80239478D01*
X165704119Y-80240519D01*
X166807143Y-79784759D01*
X167651793Y-78941582D01*
X168109478Y-77839355D01*
X168110363Y-76825000D01*
X178425000Y-76825000D01*
X178425000Y-106540370D01*
X177405881Y-106539481D01*
X176302857Y-106995241D01*
X175458207Y-107838418D01*
X175000522Y-108940645D01*
X174999481Y-110134119D01*
X175455241Y-111237143D01*
X176298418Y-112081793D01*
X177400645Y-112539478D01*
X178425000Y-112540371D01*
X178425000Y-136175000D01*
X173259569Y-136175000D01*
X173260519Y-135085881D01*
X172804759Y-133982857D01*
X171961582Y-133138207D01*
X170859355Y-132680522D01*
X169665881Y-132679481D01*
X168562857Y-133135241D01*
X167718207Y-133978418D01*
X167260522Y-135080645D01*
X167259567Y-136175000D01*
X163099569Y-136175000D01*
X163100519Y-135085881D01*
X162644759Y-133982857D01*
X161801582Y-133138207D01*
X160699355Y-132680522D01*
X159505881Y-132679481D01*
X158402857Y-133135241D01*
X157558207Y-133978418D01*
X157100522Y-135080645D01*
X157099567Y-136175000D01*
X152939569Y-136175000D01*
X152940519Y-135085881D01*
X152484759Y-133982857D01*
X151641582Y-133138207D01*
X150539355Y-132680522D01*
X149345881Y-132679481D01*
X148242857Y-133135241D01*
X147398207Y-133978418D01*
X146940522Y-135080645D01*
X146939567Y-136175000D01*
X142779569Y-136175000D01*
X142780519Y-135085881D01*
X142324759Y-133982857D01*
X141481582Y-133138207D01*
X140379355Y-132680522D01*
X139185881Y-132679481D01*
X138082857Y-133135241D01*
X137238207Y-133978418D01*
X136780522Y-135080645D01*
X136779567Y-136175000D01*
X123439604Y-136175000D01*
X123440519Y-135125881D01*
X122984759Y-134022857D01*
X122141582Y-133178207D01*
X121039355Y-132720522D01*
X119845881Y-132719481D01*
X118742857Y-133175241D01*
X117898207Y-134018418D01*
X117440522Y-135120645D01*
X117439602Y-136175000D01*
X113279604Y-136175000D01*
X113280519Y-135125881D01*
X112824759Y-134022857D01*
X111981582Y-133178207D01*
X110879355Y-132720522D01*
X109685881Y-132719481D01*
X108582857Y-133175241D01*
X107738207Y-134018418D01*
X107280522Y-135120645D01*
X107279602Y-136175000D01*
X103119604Y-136175000D01*
X103120519Y-135125881D01*
X102664759Y-134022857D01*
X101821582Y-133178207D01*
X100719355Y-132720522D01*
X99525881Y-132719481D01*
X98422857Y-133175241D01*
X97578207Y-134018418D01*
X97120522Y-135120645D01*
X97119602Y-136175000D01*
X92959604Y-136175000D01*
X92960519Y-135125881D01*
X92504759Y-134022857D01*
X91661582Y-133178207D01*
X90559355Y-132720522D01*
X89365881Y-132719481D01*
X88262857Y-133175241D01*
X87418207Y-134018418D01*
X86960522Y-135120645D01*
X86959602Y-136175000D01*
X76575000Y-136175000D01*
X76575000Y-107499630D01*
X77594119Y-107500519D01*
X78697143Y-107044759D01*
X79541793Y-106201582D01*
X79999478Y-105099355D01*
X80000519Y-103905881D01*
X79544759Y-102802857D01*
X78701582Y-101958207D01*
X77599355Y-101500522D01*
X76575000Y-101499629D01*
X76575000Y-95750000D01*
X82750000Y-95750000D01*
X82750000Y-115500000D01*
X82751333Y-115536488D01*
X83309052Y-123158651D01*
X83288480Y-123208194D01*
X83287521Y-124306985D01*
X83415792Y-124617423D01*
X83467062Y-125318120D01*
X83288480Y-125748194D01*
X83287521Y-126846985D01*
X83707125Y-127862503D01*
X83964080Y-128119907D01*
X84009710Y-128348058D01*
X84086488Y-128531083D01*
X84228424Y-128669817D01*
X84500000Y-128750000D01*
X84747971Y-128750000D01*
X85262943Y-128963835D01*
X85299018Y-129051143D01*
X85945453Y-129698708D01*
X86790495Y-130049600D01*
X87705491Y-130050399D01*
X88551143Y-129700982D01*
X89198708Y-129054547D01*
X89325167Y-128750000D01*
X89924588Y-128750000D01*
X90049018Y-129051143D01*
X90695453Y-129698708D01*
X91540495Y-130049600D01*
X92455491Y-130050399D01*
X93301143Y-129700982D01*
X93948708Y-129054547D01*
X94017576Y-128888694D01*
X94353241Y-128750000D01*
X96674588Y-128750000D01*
X96799018Y-129051143D01*
X97445453Y-129698708D01*
X98290495Y-130049600D01*
X99205491Y-130050399D01*
X100051143Y-129700982D01*
X100698708Y-129054547D01*
X100715800Y-129013386D01*
X101353241Y-128750000D01*
X103821290Y-128750000D01*
X104049018Y-129301143D01*
X104695453Y-129948708D01*
X105540495Y-130299600D01*
X106455491Y-130300399D01*
X107301143Y-129950982D01*
X107948708Y-129304547D01*
X108142885Y-128836918D01*
X108353242Y-128750000D01*
X116842389Y-128750000D01*
X121713269Y-132159616D01*
X121878732Y-132235071D01*
X127878732Y-133735071D01*
X128000000Y-133750000D01*
X132000000Y-133750000D01*
X132194528Y-133710607D01*
X132322068Y-133632456D01*
X136934229Y-129748531D01*
X143522586Y-129695399D01*
X143775453Y-129948708D01*
X144620495Y-130299600D01*
X145535491Y-130300399D01*
X146381143Y-129950982D01*
X146662539Y-129670077D01*
X150883762Y-129636035D01*
X151445453Y-130198708D01*
X152290495Y-130549600D01*
X153205491Y-130550399D01*
X154051143Y-130200982D01*
X154647484Y-129605682D01*
X158075862Y-129578034D01*
X158695453Y-130198708D01*
X159540495Y-130549600D01*
X160455491Y-130550399D01*
X161301143Y-130200982D01*
X161948708Y-129554547D01*
X161951935Y-129546775D01*
X164435639Y-129526745D01*
X164549018Y-129801143D01*
X165195453Y-130448708D01*
X166040495Y-130799600D01*
X166955491Y-130800399D01*
X167801143Y-130450982D01*
X168448708Y-129804547D01*
X168763511Y-129046416D01*
X169062503Y-128922875D01*
X169565352Y-128420903D01*
X172271626Y-126669785D01*
X172413545Y-126531034D01*
X172500000Y-126250000D01*
X172500000Y-88250000D01*
X172460607Y-88055472D01*
X172312348Y-87859566D01*
X171291122Y-87042585D01*
X171511520Y-86511806D01*
X171512479Y-85413015D01*
X171092875Y-84397497D01*
X170316590Y-83619855D01*
X170209934Y-83575568D01*
X169950982Y-82948857D01*
X169304547Y-82301292D01*
X168459505Y-81950400D01*
X167544509Y-81949601D01*
X166698857Y-82299018D01*
X166051292Y-82945453D01*
X165717215Y-83750000D01*
X163446508Y-83750000D01*
X163316590Y-83619855D01*
X163032849Y-83502036D01*
X162700982Y-82698857D01*
X162054547Y-82051292D01*
X161209505Y-81700400D01*
X160294509Y-81699601D01*
X159448857Y-82049018D01*
X158801292Y-82695453D01*
X158450400Y-83540495D01*
X158450217Y-83750000D01*
X156446508Y-83750000D01*
X156316590Y-83619855D01*
X155731073Y-83376727D01*
X155450982Y-82698857D01*
X154804547Y-82051292D01*
X153959505Y-81700400D01*
X153044509Y-81699601D01*
X152198857Y-82049018D01*
X151551292Y-82695453D01*
X151200400Y-83540495D01*
X151200217Y-83750000D01*
X149446508Y-83750000D01*
X149316590Y-83619855D01*
X148301806Y-83198480D01*
X147800157Y-83198042D01*
X147709505Y-83160400D01*
X146794509Y-83159601D01*
X145948857Y-83509018D01*
X145707454Y-83750000D01*
X144022685Y-83750000D01*
X132906090Y-82739400D01*
X132301806Y-82488480D01*
X131203015Y-82487521D01*
X131010485Y-82567073D01*
X127545268Y-82252053D01*
X127462371Y-82251418D01*
X124325421Y-82488169D01*
X123583015Y-82487521D01*
X123415188Y-82556866D01*
X114231160Y-83250000D01*
X109252472Y-83250000D01*
X108804547Y-82801292D01*
X107959505Y-82450400D01*
X107044509Y-82449601D01*
X106198857Y-82799018D01*
X105747087Y-83250000D01*
X102972114Y-83250000D01*
X102950982Y-83198857D01*
X102304547Y-82551292D01*
X101459505Y-82200400D01*
X100544509Y-82199601D01*
X99698857Y-82549018D01*
X99051292Y-83195453D01*
X99028642Y-83250000D01*
X95472114Y-83250000D01*
X95450982Y-83198857D01*
X94804547Y-82551292D01*
X93959505Y-82200400D01*
X93044509Y-82199601D01*
X92198857Y-82549018D01*
X91551292Y-83195453D01*
X91528642Y-83250000D01*
X88722114Y-83250000D01*
X88700982Y-83198857D01*
X88054547Y-82551292D01*
X87209505Y-82200400D01*
X86294509Y-82199601D01*
X85448857Y-82549018D01*
X84801292Y-83195453D01*
X84450400Y-84040495D01*
X84450161Y-84314047D01*
X83909855Y-84853410D01*
X83877906Y-84930353D01*
X83237951Y-85324171D01*
X83092926Y-85459672D01*
X83000156Y-85737504D01*
X82750156Y-95737504D01*
X82750000Y-95750000D01*
X76575000Y-95750000D01*
X76575000Y-76825000D01*
X81720414Y-76825000D01*
X81719481Y-77894119D01*
M02*
