G04 #@! TF.FileFunction,Copper,L3,Inr,Plane*
%FSLAX46Y46*%
G04 Gerber Fmt 4.6, Leading zero omitted, Abs format (unit mm)*
G04 Created by KiCad (PCBNEW 4.0.2+dfsg1-stable) date Tue 14 Aug 2018 11:21:20 PM MDT*
%MOMM*%
G01*
G04 APERTURE LIST*
%ADD10C,0.100000*%
%ADD11R,1.700000X1.700000*%
%ADD12O,1.700000X1.700000*%
%ADD13C,2.000000*%
%ADD14R,1.600000X1.600000*%
%ADD15O,1.600000X1.600000*%
%ADD16C,1.524000*%
%ADD17C,0.600000*%
%ADD18C,2.000000*%
%ADD19C,1.000000*%
G04 APERTURE END LIST*
D10*
D11*
X126720000Y-123870000D03*
D12*
X126720000Y-126410000D03*
X126720000Y-128950000D03*
D11*
X124180000Y-123870000D03*
D12*
X124180000Y-126410000D03*
X124180000Y-128950000D03*
D11*
X131800000Y-126410000D03*
D12*
X131800000Y-123870000D03*
D13*
X84720000Y-77300000D03*
X89800000Y-77300000D03*
X94920000Y-77300000D03*
X100000000Y-77300000D03*
X105120000Y-77300000D03*
X110200000Y-77300000D03*
X115320000Y-77300000D03*
X120400000Y-77300000D03*
X89960000Y-135720000D03*
X84880000Y-135720000D03*
X100120000Y-135720000D03*
X95040000Y-135720000D03*
X110280000Y-135720000D03*
X105200000Y-135720000D03*
X120440000Y-135720000D03*
X115360000Y-135720000D03*
X134630000Y-77240000D03*
X139710000Y-77240000D03*
X144790000Y-77240000D03*
X149870000Y-77240000D03*
X154950000Y-77240000D03*
X160030000Y-77240000D03*
X165110000Y-77240000D03*
X170190000Y-77240000D03*
X139780000Y-135680000D03*
X134700000Y-135680000D03*
X149940000Y-135680000D03*
X144860000Y-135680000D03*
X160100000Y-135680000D03*
X155020000Y-135680000D03*
X170260000Y-135680000D03*
X165180000Y-135680000D03*
D11*
X126250000Y-78000000D03*
D12*
X128790000Y-78000000D03*
D13*
X117500000Y-94500000D03*
X117500000Y-90000000D03*
X124000000Y-94500000D03*
X124000000Y-90000000D03*
D14*
X125040000Y-111130000D03*
D15*
X117420000Y-118750000D03*
X122500000Y-111130000D03*
X119960000Y-118750000D03*
X119960000Y-111130000D03*
X122500000Y-118750000D03*
X117420000Y-111130000D03*
X125040000Y-118750000D03*
D16*
X124130000Y-85250000D03*
X126670000Y-85250000D03*
X129210000Y-85250000D03*
X131750000Y-85250000D03*
D11*
X135500000Y-86960000D03*
D12*
X135500000Y-89500000D03*
X135500000Y-92040000D03*
X135500000Y-94580000D03*
D16*
X86250000Y-86420000D03*
X86250000Y-88960000D03*
X86250000Y-91500000D03*
X93250000Y-86420000D03*
X93250000Y-88960000D03*
X93250000Y-91500000D03*
X100250000Y-86420000D03*
X100250000Y-88960000D03*
X100250000Y-91500000D03*
X107250000Y-86420000D03*
X107250000Y-88960000D03*
X107250000Y-91500000D03*
X86050000Y-126300000D03*
X86050000Y-123760000D03*
X86050000Y-121220000D03*
X93050000Y-126300000D03*
X93050000Y-123760000D03*
X93050000Y-121220000D03*
X100050000Y-126300000D03*
X100050000Y-123760000D03*
X100050000Y-121220000D03*
X107050000Y-126300000D03*
X107050000Y-123760000D03*
X107050000Y-121220000D03*
X147750000Y-85960000D03*
X147750000Y-88500000D03*
X147750000Y-91040000D03*
X154750000Y-85960000D03*
X154750000Y-88500000D03*
X154750000Y-91040000D03*
X161750000Y-85960000D03*
X161750000Y-88500000D03*
X161750000Y-91040000D03*
X168750000Y-85960000D03*
X168750000Y-88500000D03*
X168750000Y-91040000D03*
X146500000Y-126580000D03*
X146500000Y-124040000D03*
X146500000Y-121500000D03*
X153500000Y-126580000D03*
X153500000Y-124040000D03*
X153500000Y-121500000D03*
X160500000Y-126580000D03*
X160500000Y-124040000D03*
X160500000Y-121500000D03*
X167500000Y-126580000D03*
X167500000Y-124040000D03*
X167500000Y-121500000D03*
D13*
X77000000Y-109580000D03*
X77000000Y-104500000D03*
X178000000Y-104460000D03*
X178000000Y-109540000D03*
D17*
X131750000Y-90000000D03*
X133550000Y-104000000D03*
X133250000Y-107750000D03*
X131250000Y-95750000D03*
X125750000Y-95250000D03*
X114500000Y-97500000D03*
X105750000Y-100750000D03*
X101000000Y-101750000D03*
X156000000Y-109000000D03*
X125750000Y-100000000D03*
X124750000Y-97750000D03*
X90250000Y-115250000D03*
X96750000Y-115250000D03*
X103750000Y-115250000D03*
X110500000Y-115250000D03*
X110000000Y-109000000D03*
X144000000Y-115000000D03*
X150500000Y-115250000D03*
X157750000Y-115250000D03*
X164750000Y-115250000D03*
X165000000Y-97250000D03*
X157750000Y-97250000D03*
X151250000Y-97250000D03*
X144250000Y-97250000D03*
X136000000Y-99750000D03*
X120000000Y-102500000D03*
X110250000Y-97500000D03*
X103250000Y-97500000D03*
X96000000Y-97500000D03*
X89250000Y-97500000D03*
X147250000Y-85460000D03*
X153500000Y-84000000D03*
X160750000Y-84000000D03*
X168000000Y-84250000D03*
X166500000Y-128500000D03*
X160000000Y-128250000D03*
X152750000Y-128250000D03*
X145080000Y-128000000D03*
X106000000Y-128000000D03*
X98750000Y-127750000D03*
X92000000Y-127750000D03*
X87250000Y-127750000D03*
X107500000Y-84750000D03*
X101000000Y-84500000D03*
X93500000Y-84500000D03*
X86750000Y-84500000D03*
X132500000Y-103750000D03*
X134217050Y-103374990D03*
X134250000Y-107750000D03*
X124500000Y-107750000D03*
X124500000Y-100500000D03*
X126500000Y-101300010D03*
X126997187Y-105374990D03*
X152000000Y-104750000D03*
X152750000Y-106500000D03*
X128164357Y-104924979D03*
X127250000Y-102000000D03*
X126106218Y-106374990D03*
X150823563Y-104474968D03*
X151000000Y-106250000D03*
X125874990Y-102600010D03*
X149000000Y-106750000D03*
X149468648Y-104349967D03*
X125250000Y-107275032D03*
X125250000Y-103250010D03*
X154000000Y-107500000D03*
X147250000Y-110500000D03*
X155250000Y-107250000D03*
X148500000Y-110500000D03*
X115250000Y-108500000D03*
X115250000Y-103750000D03*
X92000000Y-100000000D03*
X92000000Y-101750000D03*
X100000000Y-100250000D03*
X100500000Y-106500000D03*
X103750000Y-101750000D03*
X102250000Y-106750000D03*
X130149998Y-111250000D03*
X131000000Y-99000000D03*
X130149962Y-113000000D03*
X130434306Y-98434306D03*
D18*
X143790000Y-82000000D02*
X147250000Y-85460000D01*
X147250000Y-85460000D02*
X147750000Y-85960000D01*
X141330000Y-131750000D02*
X145080000Y-128000000D01*
X145080000Y-128000000D02*
X146500000Y-126580000D01*
X118500000Y-82000000D02*
X143790000Y-82000000D01*
X114080000Y-86420000D02*
X118500000Y-82000000D01*
X107250000Y-86420000D02*
X114080000Y-86420000D01*
X112500000Y-131750000D02*
X141330000Y-131750000D01*
X107050000Y-126300000D02*
X112500000Y-131750000D01*
D19*
G36*
X111500000Y-90250000D02*
X109721999Y-90250000D01*
X109713518Y-90229475D01*
X110011520Y-89511806D01*
X110012479Y-88413015D01*
X109592875Y-87397497D01*
X108816590Y-86619855D01*
X107801806Y-86198480D01*
X106703015Y-86197521D01*
X105687497Y-86617125D01*
X104909855Y-87393410D01*
X104488480Y-88408194D01*
X104487521Y-89506985D01*
X104786482Y-90230525D01*
X104778395Y-90250000D01*
X102721999Y-90250000D01*
X102713518Y-90229475D01*
X103011520Y-89511806D01*
X103012479Y-88413015D01*
X102592875Y-87397497D01*
X101816590Y-86619855D01*
X100801806Y-86198480D01*
X99703015Y-86197521D01*
X98687497Y-86617125D01*
X97909855Y-87393410D01*
X97488480Y-88408194D01*
X97487521Y-89506985D01*
X97786482Y-90230525D01*
X97778395Y-90250000D01*
X95721999Y-90250000D01*
X95713518Y-90229475D01*
X96011520Y-89511806D01*
X96012479Y-88413015D01*
X95592875Y-87397497D01*
X94816590Y-86619855D01*
X93801806Y-86198480D01*
X92703015Y-86197521D01*
X91687497Y-86617125D01*
X90909855Y-87393410D01*
X90488480Y-88408194D01*
X90487521Y-89506985D01*
X90786482Y-90230525D01*
X90778395Y-90250000D01*
X88721999Y-90250000D01*
X88713518Y-90229475D01*
X89011520Y-89511806D01*
X89012479Y-88413015D01*
X88592875Y-87397497D01*
X87816590Y-86619855D01*
X86801806Y-86198480D01*
X85703015Y-86197521D01*
X84687497Y-86617125D01*
X83909855Y-87393410D01*
X83488480Y-88408194D01*
X83487521Y-89506985D01*
X83786482Y-90230525D01*
X83778395Y-90250000D01*
X83250000Y-90250000D01*
X83055472Y-90289393D01*
X82891596Y-90401365D01*
X82764929Y-90628732D01*
X81514929Y-95628732D01*
X81500000Y-95750000D01*
X81500000Y-118250000D01*
X81539393Y-118444528D01*
X81646447Y-118603553D01*
X83412475Y-120369581D01*
X83288480Y-120668194D01*
X83287521Y-121766985D01*
X83586482Y-122490525D01*
X83288480Y-123208194D01*
X83287521Y-124306985D01*
X83707125Y-125322503D01*
X84483410Y-126100145D01*
X85498194Y-126521520D01*
X86596985Y-126522479D01*
X87612503Y-126102875D01*
X88390145Y-125326590D01*
X88811520Y-124311806D01*
X88812479Y-123213015D01*
X88513518Y-122489475D01*
X88811520Y-121771806D01*
X88811975Y-121250000D01*
X90287972Y-121250000D01*
X90287521Y-121766985D01*
X90586482Y-122490525D01*
X90288480Y-123208194D01*
X90287521Y-124306985D01*
X90707125Y-125322503D01*
X91483410Y-126100145D01*
X92498194Y-126521520D01*
X93596985Y-126522479D01*
X94612503Y-126102875D01*
X95390145Y-125326590D01*
X95811520Y-124311806D01*
X95812479Y-123213015D01*
X95513518Y-122489475D01*
X95811520Y-121771806D01*
X95811975Y-121250000D01*
X97287972Y-121250000D01*
X97287521Y-121766985D01*
X97586482Y-122490525D01*
X97288480Y-123208194D01*
X97287521Y-124306985D01*
X97707125Y-125322503D01*
X98483410Y-126100145D01*
X99498194Y-126521520D01*
X100596985Y-126522479D01*
X101612503Y-126102875D01*
X102390145Y-125326590D01*
X102811520Y-124311806D01*
X102812479Y-123213015D01*
X102513518Y-122489475D01*
X102811520Y-121771806D01*
X102811975Y-121250000D01*
X104287972Y-121250000D01*
X104287521Y-121766985D01*
X104586482Y-122490525D01*
X104288480Y-123208194D01*
X104287521Y-124306985D01*
X104707125Y-125322503D01*
X105483410Y-126100145D01*
X106498194Y-126521520D01*
X107596985Y-126522479D01*
X108612503Y-126102875D01*
X109390145Y-125326590D01*
X109811520Y-124311806D01*
X109812479Y-123213015D01*
X109513518Y-122489475D01*
X109811520Y-121771806D01*
X109811975Y-121250000D01*
X112989012Y-121250000D01*
X112760751Y-131750000D01*
X76575000Y-131750000D01*
X76575000Y-112579630D01*
X77594119Y-112580519D01*
X78697143Y-112124759D01*
X79541793Y-111281582D01*
X79999478Y-110179355D01*
X80000519Y-108985881D01*
X79544759Y-107882857D01*
X78701582Y-107038207D01*
X77599355Y-106580522D01*
X76575000Y-106579629D01*
X76575000Y-81250000D01*
X111500000Y-81250000D01*
X111500000Y-90250000D01*
X111500000Y-90250000D01*
G37*
X111500000Y-90250000D02*
X109721999Y-90250000D01*
X109713518Y-90229475D01*
X110011520Y-89511806D01*
X110012479Y-88413015D01*
X109592875Y-87397497D01*
X108816590Y-86619855D01*
X107801806Y-86198480D01*
X106703015Y-86197521D01*
X105687497Y-86617125D01*
X104909855Y-87393410D01*
X104488480Y-88408194D01*
X104487521Y-89506985D01*
X104786482Y-90230525D01*
X104778395Y-90250000D01*
X102721999Y-90250000D01*
X102713518Y-90229475D01*
X103011520Y-89511806D01*
X103012479Y-88413015D01*
X102592875Y-87397497D01*
X101816590Y-86619855D01*
X100801806Y-86198480D01*
X99703015Y-86197521D01*
X98687497Y-86617125D01*
X97909855Y-87393410D01*
X97488480Y-88408194D01*
X97487521Y-89506985D01*
X97786482Y-90230525D01*
X97778395Y-90250000D01*
X95721999Y-90250000D01*
X95713518Y-90229475D01*
X96011520Y-89511806D01*
X96012479Y-88413015D01*
X95592875Y-87397497D01*
X94816590Y-86619855D01*
X93801806Y-86198480D01*
X92703015Y-86197521D01*
X91687497Y-86617125D01*
X90909855Y-87393410D01*
X90488480Y-88408194D01*
X90487521Y-89506985D01*
X90786482Y-90230525D01*
X90778395Y-90250000D01*
X88721999Y-90250000D01*
X88713518Y-90229475D01*
X89011520Y-89511806D01*
X89012479Y-88413015D01*
X88592875Y-87397497D01*
X87816590Y-86619855D01*
X86801806Y-86198480D01*
X85703015Y-86197521D01*
X84687497Y-86617125D01*
X83909855Y-87393410D01*
X83488480Y-88408194D01*
X83487521Y-89506985D01*
X83786482Y-90230525D01*
X83778395Y-90250000D01*
X83250000Y-90250000D01*
X83055472Y-90289393D01*
X82891596Y-90401365D01*
X82764929Y-90628732D01*
X81514929Y-95628732D01*
X81500000Y-95750000D01*
X81500000Y-118250000D01*
X81539393Y-118444528D01*
X81646447Y-118603553D01*
X83412475Y-120369581D01*
X83288480Y-120668194D01*
X83287521Y-121766985D01*
X83586482Y-122490525D01*
X83288480Y-123208194D01*
X83287521Y-124306985D01*
X83707125Y-125322503D01*
X84483410Y-126100145D01*
X85498194Y-126521520D01*
X86596985Y-126522479D01*
X87612503Y-126102875D01*
X88390145Y-125326590D01*
X88811520Y-124311806D01*
X88812479Y-123213015D01*
X88513518Y-122489475D01*
X88811520Y-121771806D01*
X88811975Y-121250000D01*
X90287972Y-121250000D01*
X90287521Y-121766985D01*
X90586482Y-122490525D01*
X90288480Y-123208194D01*
X90287521Y-124306985D01*
X90707125Y-125322503D01*
X91483410Y-126100145D01*
X92498194Y-126521520D01*
X93596985Y-126522479D01*
X94612503Y-126102875D01*
X95390145Y-125326590D01*
X95811520Y-124311806D01*
X95812479Y-123213015D01*
X95513518Y-122489475D01*
X95811520Y-121771806D01*
X95811975Y-121250000D01*
X97287972Y-121250000D01*
X97287521Y-121766985D01*
X97586482Y-122490525D01*
X97288480Y-123208194D01*
X97287521Y-124306985D01*
X97707125Y-125322503D01*
X98483410Y-126100145D01*
X99498194Y-126521520D01*
X100596985Y-126522479D01*
X101612503Y-126102875D01*
X102390145Y-125326590D01*
X102811520Y-124311806D01*
X102812479Y-123213015D01*
X102513518Y-122489475D01*
X102811520Y-121771806D01*
X102811975Y-121250000D01*
X104287972Y-121250000D01*
X104287521Y-121766985D01*
X104586482Y-122490525D01*
X104288480Y-123208194D01*
X104287521Y-124306985D01*
X104707125Y-125322503D01*
X105483410Y-126100145D01*
X106498194Y-126521520D01*
X107596985Y-126522479D01*
X108612503Y-126102875D01*
X109390145Y-125326590D01*
X109811520Y-124311806D01*
X109812479Y-123213015D01*
X109513518Y-122489475D01*
X109811520Y-121771806D01*
X109811975Y-121250000D01*
X112989012Y-121250000D01*
X112760751Y-131750000D01*
X76575000Y-131750000D01*
X76575000Y-112579630D01*
X77594119Y-112580519D01*
X78697143Y-112124759D01*
X79541793Y-111281582D01*
X79999478Y-110179355D01*
X80000519Y-108985881D01*
X79544759Y-107882857D01*
X78701582Y-107038207D01*
X77599355Y-106580522D01*
X76575000Y-106579629D01*
X76575000Y-81250000D01*
X111500000Y-81250000D01*
X111500000Y-90250000D01*
G36*
X178425000Y-80988999D02*
X178425000Y-101460370D01*
X177405881Y-101459481D01*
X176302857Y-101915241D01*
X175458207Y-102758418D01*
X175000522Y-103860645D01*
X174999481Y-105054119D01*
X175455241Y-106157143D01*
X176298418Y-107001793D01*
X177400645Y-107459478D01*
X178425000Y-107460371D01*
X178425000Y-132000000D01*
X145036988Y-132000000D01*
X145248729Y-129035624D01*
X145250000Y-129000000D01*
X145250000Y-126511605D01*
X145948194Y-126801520D01*
X147046985Y-126802479D01*
X148062503Y-126382875D01*
X148840145Y-125606590D01*
X149261520Y-124591806D01*
X149262479Y-123493015D01*
X148963518Y-122769475D01*
X149261520Y-122051806D01*
X149261825Y-121702030D01*
X150737836Y-121686328D01*
X150737521Y-122046985D01*
X151036482Y-122770525D01*
X150738480Y-123488194D01*
X150737521Y-124586985D01*
X151157125Y-125602503D01*
X151933410Y-126380145D01*
X152948194Y-126801520D01*
X154046985Y-126802479D01*
X155062503Y-126382875D01*
X155840145Y-125606590D01*
X156261520Y-124591806D01*
X156262479Y-123493015D01*
X155963518Y-122769475D01*
X156261520Y-122051806D01*
X156261890Y-121627561D01*
X157737901Y-121611859D01*
X157737521Y-122046985D01*
X158036482Y-122770525D01*
X157738480Y-123488194D01*
X157737521Y-124586985D01*
X158157125Y-125602503D01*
X158933410Y-126380145D01*
X159948194Y-126801520D01*
X161046985Y-126802479D01*
X162062503Y-126382875D01*
X162840145Y-125606590D01*
X163261520Y-124591806D01*
X163262479Y-123493015D01*
X162963518Y-122769475D01*
X163261520Y-122051806D01*
X163261955Y-121553093D01*
X164737966Y-121537391D01*
X164737521Y-122046985D01*
X165036482Y-122770525D01*
X164738480Y-123488194D01*
X164737521Y-124586985D01*
X165157125Y-125602503D01*
X165933410Y-126380145D01*
X166948194Y-126801520D01*
X168046985Y-126802479D01*
X169062503Y-126382875D01*
X169840145Y-125606590D01*
X170261520Y-124591806D01*
X170262479Y-123493015D01*
X169963518Y-122769475D01*
X170261520Y-122051806D01*
X170262479Y-120953015D01*
X169998338Y-120313746D01*
X171550000Y-119150000D01*
X171681987Y-119001769D01*
X171749974Y-118755102D01*
X171999974Y-94255102D01*
X171921831Y-93981562D01*
X171063668Y-92633021D01*
X171090145Y-92606590D01*
X171511520Y-91591806D01*
X171512479Y-90493015D01*
X171213518Y-89769475D01*
X171511520Y-89051806D01*
X171512479Y-87953015D01*
X171092875Y-86937497D01*
X170316590Y-86159855D01*
X169301806Y-85738480D01*
X168203015Y-85737521D01*
X167187497Y-86157125D01*
X166409855Y-86933410D01*
X165988480Y-87948194D01*
X165987521Y-89046985D01*
X166286482Y-89770525D01*
X165988480Y-90488194D01*
X165988033Y-91000000D01*
X164512037Y-91000000D01*
X164512479Y-90493015D01*
X164213518Y-89769475D01*
X164511520Y-89051806D01*
X164512479Y-87953015D01*
X164092875Y-86937497D01*
X163316590Y-86159855D01*
X162301806Y-85738480D01*
X161203015Y-85737521D01*
X160187497Y-86157125D01*
X159409855Y-86933410D01*
X158988480Y-87948194D01*
X158987521Y-89046985D01*
X159286482Y-89770525D01*
X158988480Y-90488194D01*
X158988033Y-91000000D01*
X157512037Y-91000000D01*
X157512479Y-90493015D01*
X157213518Y-89769475D01*
X157511520Y-89051806D01*
X157512479Y-87953015D01*
X157092875Y-86937497D01*
X156316590Y-86159855D01*
X155301806Y-85738480D01*
X154203015Y-85737521D01*
X153187497Y-86157125D01*
X152409855Y-86933410D01*
X151988480Y-87948194D01*
X151987521Y-89046985D01*
X152286482Y-89770525D01*
X151988480Y-90488194D01*
X151988033Y-91000000D01*
X150512037Y-91000000D01*
X150512479Y-90493015D01*
X150213518Y-89769475D01*
X150511520Y-89051806D01*
X150512479Y-87953015D01*
X150092875Y-86937497D01*
X149316590Y-86159855D01*
X148301806Y-85738480D01*
X147203015Y-85737521D01*
X146187497Y-86157125D01*
X145409855Y-86933410D01*
X144988480Y-87948194D01*
X144987521Y-89046985D01*
X145286482Y-89770525D01*
X144988480Y-90488194D01*
X144988033Y-91000000D01*
X144034444Y-91000000D01*
X144717558Y-80753282D01*
X178425000Y-80988999D01*
X178425000Y-80988999D01*
G37*
X178425000Y-80988999D02*
X178425000Y-101460370D01*
X177405881Y-101459481D01*
X176302857Y-101915241D01*
X175458207Y-102758418D01*
X175000522Y-103860645D01*
X174999481Y-105054119D01*
X175455241Y-106157143D01*
X176298418Y-107001793D01*
X177400645Y-107459478D01*
X178425000Y-107460371D01*
X178425000Y-132000000D01*
X145036988Y-132000000D01*
X145248729Y-129035624D01*
X145250000Y-129000000D01*
X145250000Y-126511605D01*
X145948194Y-126801520D01*
X147046985Y-126802479D01*
X148062503Y-126382875D01*
X148840145Y-125606590D01*
X149261520Y-124591806D01*
X149262479Y-123493015D01*
X148963518Y-122769475D01*
X149261520Y-122051806D01*
X149261825Y-121702030D01*
X150737836Y-121686328D01*
X150737521Y-122046985D01*
X151036482Y-122770525D01*
X150738480Y-123488194D01*
X150737521Y-124586985D01*
X151157125Y-125602503D01*
X151933410Y-126380145D01*
X152948194Y-126801520D01*
X154046985Y-126802479D01*
X155062503Y-126382875D01*
X155840145Y-125606590D01*
X156261520Y-124591806D01*
X156262479Y-123493015D01*
X155963518Y-122769475D01*
X156261520Y-122051806D01*
X156261890Y-121627561D01*
X157737901Y-121611859D01*
X157737521Y-122046985D01*
X158036482Y-122770525D01*
X157738480Y-123488194D01*
X157737521Y-124586985D01*
X158157125Y-125602503D01*
X158933410Y-126380145D01*
X159948194Y-126801520D01*
X161046985Y-126802479D01*
X162062503Y-126382875D01*
X162840145Y-125606590D01*
X163261520Y-124591806D01*
X163262479Y-123493015D01*
X162963518Y-122769475D01*
X163261520Y-122051806D01*
X163261955Y-121553093D01*
X164737966Y-121537391D01*
X164737521Y-122046985D01*
X165036482Y-122770525D01*
X164738480Y-123488194D01*
X164737521Y-124586985D01*
X165157125Y-125602503D01*
X165933410Y-126380145D01*
X166948194Y-126801520D01*
X168046985Y-126802479D01*
X169062503Y-126382875D01*
X169840145Y-125606590D01*
X170261520Y-124591806D01*
X170262479Y-123493015D01*
X169963518Y-122769475D01*
X170261520Y-122051806D01*
X170262479Y-120953015D01*
X169998338Y-120313746D01*
X171550000Y-119150000D01*
X171681987Y-119001769D01*
X171749974Y-118755102D01*
X171999974Y-94255102D01*
X171921831Y-93981562D01*
X171063668Y-92633021D01*
X171090145Y-92606590D01*
X171511520Y-91591806D01*
X171512479Y-90493015D01*
X171213518Y-89769475D01*
X171511520Y-89051806D01*
X171512479Y-87953015D01*
X171092875Y-86937497D01*
X170316590Y-86159855D01*
X169301806Y-85738480D01*
X168203015Y-85737521D01*
X167187497Y-86157125D01*
X166409855Y-86933410D01*
X165988480Y-87948194D01*
X165987521Y-89046985D01*
X166286482Y-89770525D01*
X165988480Y-90488194D01*
X165988033Y-91000000D01*
X164512037Y-91000000D01*
X164512479Y-90493015D01*
X164213518Y-89769475D01*
X164511520Y-89051806D01*
X164512479Y-87953015D01*
X164092875Y-86937497D01*
X163316590Y-86159855D01*
X162301806Y-85738480D01*
X161203015Y-85737521D01*
X160187497Y-86157125D01*
X159409855Y-86933410D01*
X158988480Y-87948194D01*
X158987521Y-89046985D01*
X159286482Y-89770525D01*
X158988480Y-90488194D01*
X158988033Y-91000000D01*
X157512037Y-91000000D01*
X157512479Y-90493015D01*
X157213518Y-89769475D01*
X157511520Y-89051806D01*
X157512479Y-87953015D01*
X157092875Y-86937497D01*
X156316590Y-86159855D01*
X155301806Y-85738480D01*
X154203015Y-85737521D01*
X153187497Y-86157125D01*
X152409855Y-86933410D01*
X151988480Y-87948194D01*
X151987521Y-89046985D01*
X152286482Y-89770525D01*
X151988480Y-90488194D01*
X151988033Y-91000000D01*
X150512037Y-91000000D01*
X150512479Y-90493015D01*
X150213518Y-89769475D01*
X150511520Y-89051806D01*
X150512479Y-87953015D01*
X150092875Y-86937497D01*
X149316590Y-86159855D01*
X148301806Y-85738480D01*
X147203015Y-85737521D01*
X146187497Y-86157125D01*
X145409855Y-86933410D01*
X144988480Y-87948194D01*
X144987521Y-89046985D01*
X145286482Y-89770525D01*
X144988480Y-90488194D01*
X144988033Y-91000000D01*
X144034444Y-91000000D01*
X144717558Y-80753282D01*
X178425000Y-80988999D01*
M02*
