M48
; DRILL file {KiCad 5.1.5-52549c5~84~ubuntu18.04.1} date Wed 04 Dec 2019 11:12:20 AM MST
; FORMAT={-:-/ absolute / inch / decimal}
; #@! TF.CreationDate,2019-12-04T11:12:20-07:00
; #@! TF.GenerationSoftware,Kicad,Pcbnew,5.1.5-52549c5~84~ubuntu18.04.1
; #@! TF.FileFunction,Plated,1,2,PTH
FMAT,2
INCH
T1C0.0157
T2C0.0394
%
G90
G05
T1
X5.975Y-3.25
X6.05Y-2.3
X6.15Y-2.6
X6.2465Y-2.875
X6.25Y-3.125
X6.275Y-2.8
X6.3Y-2.75
X6.3Y-3.025
X6.3035Y-2.8279
X6.3035Y-2.925
X6.325Y-3.075
X6.425Y-2.775
X6.475Y-2.975
X6.5Y-3.3
X6.5256Y-2.5994
X6.5256Y-2.8018
X6.6Y-3.0
T2
X5.6Y-2.55
X5.6Y-2.65
X5.6Y-2.75
X5.6Y-2.85
X5.6Y-2.95
X5.6Y-3.05
X5.6Y-3.15
X5.6Y-3.25
X5.6Y-3.35
X5.6Y-3.45
T0
M30
