G04 #@! TF.GenerationSoftware,KiCad,Pcbnew,5.1.5-52549c5~84~ubuntu18.04.1*
G04 #@! TF.CreationDate,2019-12-04T11:12:13-07:00*
G04 #@! TF.ProjectId,relay-shift,72656c61-792d-4736-9869-66742e6b6963,rev?*
G04 #@! TF.SameCoordinates,Original*
G04 #@! TF.FileFunction,Legend,Top*
G04 #@! TF.FilePolarity,Positive*
%FSLAX46Y46*%
G04 Gerber Fmt 4.6, Leading zero omitted, Abs format (unit mm)*
G04 Created by KiCad (PCBNEW 5.1.5-52549c5~84~ubuntu18.04.1) date 2019-12-04 11:12:13*
%MOMM*%
%LPD*%
G04 APERTURE LIST*
%ADD10C,0.150000*%
%ADD11C,0.120000*%
G04 APERTURE END LIST*
D10*
X151003333Y-84224761D02*
X151146190Y-84272380D01*
X151384285Y-84272380D01*
X151479523Y-84224761D01*
X151527142Y-84177142D01*
X151574761Y-84081904D01*
X151574761Y-83986666D01*
X151527142Y-83891428D01*
X151479523Y-83843809D01*
X151384285Y-83796190D01*
X151193809Y-83748571D01*
X151098571Y-83700952D01*
X151050952Y-83653333D01*
X151003333Y-83558095D01*
X151003333Y-83462857D01*
X151050952Y-83367619D01*
X151098571Y-83320000D01*
X151193809Y-83272380D01*
X151431904Y-83272380D01*
X151574761Y-83320000D01*
X152003333Y-83748571D02*
X152336666Y-83748571D01*
X152479523Y-84272380D02*
X152003333Y-84272380D01*
X152003333Y-83272380D01*
X152479523Y-83272380D01*
X153479523Y-84272380D02*
X153146190Y-83796190D01*
X152908095Y-84272380D02*
X152908095Y-83272380D01*
X153289047Y-83272380D01*
X153384285Y-83320000D01*
X153431904Y-83367619D01*
X153479523Y-83462857D01*
X153479523Y-83605714D01*
X153431904Y-83700952D01*
X153384285Y-83748571D01*
X153289047Y-83796190D01*
X152908095Y-83796190D01*
X154098571Y-83272380D02*
X154289047Y-83272380D01*
X154384285Y-83320000D01*
X154479523Y-83415238D01*
X154527142Y-83605714D01*
X154527142Y-83939047D01*
X154479523Y-84129523D01*
X154384285Y-84224761D01*
X154289047Y-84272380D01*
X154098571Y-84272380D01*
X154003333Y-84224761D01*
X153908095Y-84129523D01*
X153860476Y-83939047D01*
X153860476Y-83605714D01*
X153908095Y-83415238D01*
X154003333Y-83320000D01*
X154098571Y-83272380D01*
X154955714Y-83272380D02*
X154955714Y-84081904D01*
X155003333Y-84177142D01*
X155050952Y-84224761D01*
X155146190Y-84272380D01*
X155336666Y-84272380D01*
X155431904Y-84224761D01*
X155479523Y-84177142D01*
X155527142Y-84081904D01*
X155527142Y-83272380D01*
X155860476Y-83272380D02*
X156431904Y-83272380D01*
X156146190Y-84272380D02*
X156146190Y-83272380D01*
X165784285Y-65389285D02*
X165784285Y-66151190D01*
X165327142Y-65770238D02*
X166241428Y-65770238D01*
X166527142Y-67103571D02*
X166527142Y-66627380D01*
X165955714Y-66579761D01*
X166012857Y-66627380D01*
X166070000Y-66722619D01*
X166070000Y-66960714D01*
X166012857Y-67055952D01*
X165955714Y-67103571D01*
X165841428Y-67151190D01*
X165555714Y-67151190D01*
X165441428Y-67103571D01*
X165384285Y-67055952D01*
X165327142Y-66960714D01*
X165327142Y-66722619D01*
X165384285Y-66627380D01*
X165441428Y-66579761D01*
X166527142Y-67436904D02*
X165327142Y-67770238D01*
X166527142Y-68103571D01*
X163434285Y-64675000D02*
X163377142Y-64817857D01*
X163377142Y-65055952D01*
X163434285Y-65151190D01*
X163491428Y-65198809D01*
X163605714Y-65246428D01*
X163720000Y-65246428D01*
X163834285Y-65198809D01*
X163891428Y-65151190D01*
X163948571Y-65055952D01*
X164005714Y-64865476D01*
X164062857Y-64770238D01*
X164120000Y-64722619D01*
X164234285Y-64675000D01*
X164348571Y-64675000D01*
X164462857Y-64722619D01*
X164520000Y-64770238D01*
X164577142Y-64865476D01*
X164577142Y-65103571D01*
X164520000Y-65246428D01*
X164005714Y-65675000D02*
X164005714Y-66008333D01*
X163377142Y-66151190D02*
X163377142Y-65675000D01*
X164577142Y-65675000D01*
X164577142Y-66151190D01*
X163377142Y-67151190D02*
X163948571Y-66817857D01*
X163377142Y-66579761D02*
X164577142Y-66579761D01*
X164577142Y-66960714D01*
X164520000Y-67055952D01*
X164462857Y-67103571D01*
X164348571Y-67151190D01*
X164177142Y-67151190D01*
X164062857Y-67103571D01*
X164005714Y-67055952D01*
X163948571Y-66960714D01*
X163948571Y-66579761D01*
X163377142Y-67579761D02*
X164577142Y-67579761D01*
X163377142Y-68055952D02*
X164577142Y-68055952D01*
X163377142Y-68627380D01*
X164577142Y-68627380D01*
X161484285Y-64484523D02*
X161427142Y-64627380D01*
X161427142Y-64865476D01*
X161484285Y-64960714D01*
X161541428Y-65008333D01*
X161655714Y-65055952D01*
X161770000Y-65055952D01*
X161884285Y-65008333D01*
X161941428Y-64960714D01*
X161998571Y-64865476D01*
X162055714Y-64675000D01*
X162112857Y-64579761D01*
X162170000Y-64532142D01*
X162284285Y-64484523D01*
X162398571Y-64484523D01*
X162512857Y-64532142D01*
X162570000Y-64579761D01*
X162627142Y-64675000D01*
X162627142Y-64913095D01*
X162570000Y-65055952D01*
X161427142Y-66055952D02*
X161998571Y-65722619D01*
X161427142Y-65484523D02*
X162627142Y-65484523D01*
X162627142Y-65865476D01*
X162570000Y-65960714D01*
X162512857Y-66008333D01*
X162398571Y-66055952D01*
X162227142Y-66055952D01*
X162112857Y-66008333D01*
X162055714Y-65960714D01*
X161998571Y-65865476D01*
X161998571Y-65484523D01*
X161541428Y-67055952D02*
X161484285Y-67008333D01*
X161427142Y-66865476D01*
X161427142Y-66770238D01*
X161484285Y-66627380D01*
X161598571Y-66532142D01*
X161712857Y-66484523D01*
X161941428Y-66436904D01*
X162112857Y-66436904D01*
X162341428Y-66484523D01*
X162455714Y-66532142D01*
X162570000Y-66627380D01*
X162627142Y-66770238D01*
X162627142Y-66865476D01*
X162570000Y-67008333D01*
X162512857Y-67055952D01*
X161427142Y-67960714D02*
X161427142Y-67484523D01*
X162627142Y-67484523D01*
X161427142Y-68294047D02*
X162627142Y-68294047D01*
X161427142Y-68865476D02*
X162112857Y-68436904D01*
X162627142Y-68865476D02*
X161941428Y-68294047D01*
X161079000Y-64294047D02*
X161079000Y-65246428D01*
X159534285Y-64484523D02*
X159477142Y-64627380D01*
X159477142Y-64865476D01*
X159534285Y-64960714D01*
X159591428Y-65008333D01*
X159705714Y-65055952D01*
X159820000Y-65055952D01*
X159934285Y-65008333D01*
X159991428Y-64960714D01*
X160048571Y-64865476D01*
X160105714Y-64675000D01*
X160162857Y-64579761D01*
X160220000Y-64532142D01*
X160334285Y-64484523D01*
X160448571Y-64484523D01*
X160562857Y-64532142D01*
X160620000Y-64579761D01*
X160677142Y-64675000D01*
X160677142Y-64913095D01*
X160620000Y-65055952D01*
X161079000Y-65246428D02*
X161079000Y-66246428D01*
X159477142Y-66055952D02*
X160048571Y-65722619D01*
X159477142Y-65484523D02*
X160677142Y-65484523D01*
X160677142Y-65865476D01*
X160620000Y-65960714D01*
X160562857Y-66008333D01*
X160448571Y-66055952D01*
X160277142Y-66055952D01*
X160162857Y-66008333D01*
X160105714Y-65960714D01*
X160048571Y-65865476D01*
X160048571Y-65484523D01*
X161079000Y-66246428D02*
X161079000Y-67246428D01*
X159591428Y-67055952D02*
X159534285Y-67008333D01*
X159477142Y-66865476D01*
X159477142Y-66770238D01*
X159534285Y-66627380D01*
X159648571Y-66532142D01*
X159762857Y-66484523D01*
X159991428Y-66436904D01*
X160162857Y-66436904D01*
X160391428Y-66484523D01*
X160505714Y-66532142D01*
X160620000Y-66627380D01*
X160677142Y-66770238D01*
X160677142Y-66865476D01*
X160620000Y-67008333D01*
X160562857Y-67055952D01*
X161079000Y-67246428D02*
X161079000Y-68055952D01*
X159477142Y-67960714D02*
X159477142Y-67484523D01*
X160677142Y-67484523D01*
X161079000Y-68055952D02*
X161079000Y-69055952D01*
X159477142Y-68865476D02*
X160048571Y-68532142D01*
X159477142Y-68294047D02*
X160677142Y-68294047D01*
X160677142Y-68675000D01*
X160620000Y-68770238D01*
X160562857Y-68817857D01*
X160448571Y-68865476D01*
X160277142Y-68865476D01*
X160162857Y-68817857D01*
X160105714Y-68770238D01*
X160048571Y-68675000D01*
X160048571Y-68294047D01*
X157527142Y-65579761D02*
X158098571Y-65246428D01*
X157527142Y-65008333D02*
X158727142Y-65008333D01*
X158727142Y-65389285D01*
X158670000Y-65484523D01*
X158612857Y-65532142D01*
X158498571Y-65579761D01*
X158327142Y-65579761D01*
X158212857Y-65532142D01*
X158155714Y-65484523D01*
X158098571Y-65389285D01*
X158098571Y-65008333D01*
X157641428Y-66579761D02*
X157584285Y-66532142D01*
X157527142Y-66389285D01*
X157527142Y-66294047D01*
X157584285Y-66151190D01*
X157698571Y-66055952D01*
X157812857Y-66008333D01*
X158041428Y-65960714D01*
X158212857Y-65960714D01*
X158441428Y-66008333D01*
X158555714Y-66055952D01*
X158670000Y-66151190D01*
X158727142Y-66294047D01*
X158727142Y-66389285D01*
X158670000Y-66532142D01*
X158612857Y-66579761D01*
X157527142Y-67484523D02*
X157527142Y-67008333D01*
X158727142Y-67008333D01*
X157527142Y-67817857D02*
X158727142Y-67817857D01*
X157527142Y-68389285D02*
X158212857Y-67960714D01*
X158727142Y-68389285D02*
X158041428Y-67817857D01*
X157179000Y-65698809D02*
X157179000Y-66746428D01*
X156777142Y-66127380D02*
X156777142Y-66317857D01*
X156720000Y-66413095D01*
X156605714Y-66508333D01*
X156377142Y-66555952D01*
X155977142Y-66555952D01*
X155748571Y-66508333D01*
X155634285Y-66413095D01*
X155577142Y-66317857D01*
X155577142Y-66127380D01*
X155634285Y-66032142D01*
X155748571Y-65936904D01*
X155977142Y-65889285D01*
X156377142Y-65889285D01*
X156605714Y-65936904D01*
X156720000Y-66032142D01*
X156777142Y-66127380D01*
X157179000Y-66746428D02*
X157179000Y-67651190D01*
X156205714Y-66984523D02*
X156205714Y-67317857D01*
X155577142Y-67460714D02*
X155577142Y-66984523D01*
X156777142Y-66984523D01*
X156777142Y-67460714D01*
X154770000Y-65913095D02*
X154827142Y-65817857D01*
X154827142Y-65675000D01*
X154770000Y-65532142D01*
X154655714Y-65436904D01*
X154541428Y-65389285D01*
X154312857Y-65341666D01*
X154141428Y-65341666D01*
X153912857Y-65389285D01*
X153798571Y-65436904D01*
X153684285Y-65532142D01*
X153627142Y-65675000D01*
X153627142Y-65770238D01*
X153684285Y-65913095D01*
X153741428Y-65960714D01*
X154141428Y-65960714D01*
X154141428Y-65770238D01*
X153627142Y-66389285D02*
X154827142Y-66389285D01*
X153627142Y-66960714D01*
X154827142Y-66960714D01*
X153627142Y-67436904D02*
X154827142Y-67436904D01*
X154827142Y-67675000D01*
X154770000Y-67817857D01*
X154655714Y-67913095D01*
X154541428Y-67960714D01*
X154312857Y-68008333D01*
X154141428Y-68008333D01*
X153912857Y-67960714D01*
X153798571Y-67913095D01*
X153684285Y-67817857D01*
X153627142Y-67675000D01*
X153627142Y-67436904D01*
X145004404Y-87130000D02*
X144909166Y-87082380D01*
X144766309Y-87082380D01*
X144623452Y-87130000D01*
X144528214Y-87225238D01*
X144480595Y-87320476D01*
X144432976Y-87510952D01*
X144432976Y-87653809D01*
X144480595Y-87844285D01*
X144528214Y-87939523D01*
X144623452Y-88034761D01*
X144766309Y-88082380D01*
X144861547Y-88082380D01*
X145004404Y-88034761D01*
X145052023Y-87987142D01*
X145052023Y-87653809D01*
X144861547Y-87653809D01*
X145480595Y-88082380D02*
X145480595Y-87082380D01*
X146052023Y-88082380D01*
X146052023Y-87082380D01*
X146528214Y-88082380D02*
X146528214Y-87082380D01*
X146766309Y-87082380D01*
X146909166Y-87130000D01*
X147004404Y-87225238D01*
X147052023Y-87320476D01*
X147099642Y-87510952D01*
X147099642Y-87653809D01*
X147052023Y-87844285D01*
X147004404Y-87939523D01*
X146909166Y-88034761D01*
X146766309Y-88082380D01*
X146528214Y-88082380D01*
X144480595Y-64841428D02*
X145242500Y-64841428D01*
X144861547Y-65222380D02*
X144861547Y-64460476D01*
X146194880Y-64222380D02*
X145718690Y-64222380D01*
X145671071Y-64698571D01*
X145718690Y-64650952D01*
X145813928Y-64603333D01*
X146052023Y-64603333D01*
X146147261Y-64650952D01*
X146194880Y-64698571D01*
X146242500Y-64793809D01*
X146242500Y-65031904D01*
X146194880Y-65127142D01*
X146147261Y-65174761D01*
X146052023Y-65222380D01*
X145813928Y-65222380D01*
X145718690Y-65174761D01*
X145671071Y-65127142D01*
X146528214Y-64222380D02*
X146861547Y-65222380D01*
X147194880Y-64222380D01*
D11*
X153620000Y-71195000D02*
X151805000Y-71195000D01*
X153620000Y-70940000D02*
X153620000Y-71195000D01*
X157480000Y-70940000D02*
X153620000Y-70940000D01*
X161340000Y-70940000D02*
X161340000Y-71195000D01*
X157480000Y-70940000D02*
X161340000Y-70940000D01*
X153620000Y-81460000D02*
X153620000Y-81205000D01*
X157480000Y-81460000D02*
X153620000Y-81460000D01*
X161340000Y-81460000D02*
X161340000Y-81205000D01*
X157480000Y-81460000D02*
X161340000Y-81460000D01*
X168350000Y-74251078D02*
X168350000Y-73733922D01*
X166930000Y-74251078D02*
X166930000Y-73733922D01*
X140910000Y-63440000D02*
X142240000Y-63440000D01*
X140910000Y-64770000D02*
X140910000Y-63440000D01*
X140910000Y-66040000D02*
X143570000Y-66040000D01*
X143570000Y-66040000D02*
X143570000Y-88960000D01*
X140910000Y-66040000D02*
X140910000Y-88960000D01*
X140910000Y-88960000D02*
X143570000Y-88960000D01*
X150560000Y-94160000D02*
X166940000Y-94160000D01*
X168860000Y-86990000D02*
X166510000Y-86990000D01*
X168860000Y-88690000D02*
X168860000Y-86990000D01*
X150990000Y-86990000D02*
X150990000Y-85050000D01*
X148640000Y-86990000D02*
X150990000Y-86990000D01*
X148640000Y-88690000D02*
X148640000Y-86990000D01*
X166940000Y-54430000D02*
X150560000Y-54430000D01*
X148640000Y-61600000D02*
X150990000Y-61600000D01*
X148640000Y-59900000D02*
X148640000Y-61600000D01*
X166510000Y-61600000D02*
X166510000Y-63540000D01*
X168860000Y-61600000D02*
X166510000Y-61600000D01*
X168860000Y-59900000D02*
X168860000Y-61600000D01*
D10*
X155765714Y-69552380D02*
X155765714Y-70361904D01*
X155813333Y-70457142D01*
X155860952Y-70504761D01*
X155956190Y-70552380D01*
X156146666Y-70552380D01*
X156241904Y-70504761D01*
X156289523Y-70457142D01*
X156337142Y-70361904D01*
X156337142Y-69552380D01*
X157337142Y-70552380D02*
X156765714Y-70552380D01*
X157051428Y-70552380D02*
X157051428Y-69552380D01*
X156956190Y-69695238D01*
X156860952Y-69790476D01*
X156765714Y-69838095D01*
X157956190Y-69552380D02*
X158051428Y-69552380D01*
X158146666Y-69600000D01*
X158194285Y-69647619D01*
X158241904Y-69742857D01*
X158289523Y-69933333D01*
X158289523Y-70171428D01*
X158241904Y-70361904D01*
X158194285Y-70457142D01*
X158146666Y-70504761D01*
X158051428Y-70552380D01*
X157956190Y-70552380D01*
X157860952Y-70504761D01*
X157813333Y-70457142D01*
X157765714Y-70361904D01*
X157718095Y-70171428D01*
X157718095Y-69933333D01*
X157765714Y-69742857D01*
X157813333Y-69647619D01*
X157860952Y-69600000D01*
X157956190Y-69552380D01*
X159241904Y-70552380D02*
X158670476Y-70552380D01*
X158956190Y-70552380D02*
X158956190Y-69552380D01*
X158860952Y-69695238D01*
X158765714Y-69790476D01*
X158670476Y-69838095D01*
X166442380Y-75111547D02*
X165966190Y-75444880D01*
X166442380Y-75682976D02*
X165442380Y-75682976D01*
X165442380Y-75302023D01*
X165490000Y-75206785D01*
X165537619Y-75159166D01*
X165632857Y-75111547D01*
X165775714Y-75111547D01*
X165870952Y-75159166D01*
X165918571Y-75206785D01*
X165966190Y-75302023D01*
X165966190Y-75682976D01*
X166442380Y-74159166D02*
X166442380Y-74730595D01*
X166442380Y-74444880D02*
X165442380Y-74444880D01*
X165585238Y-74540119D01*
X165680476Y-74635357D01*
X165728095Y-74730595D01*
X165442380Y-73540119D02*
X165442380Y-73444880D01*
X165490000Y-73349642D01*
X165537619Y-73302023D01*
X165632857Y-73254404D01*
X165823333Y-73206785D01*
X166061428Y-73206785D01*
X166251904Y-73254404D01*
X166347142Y-73302023D01*
X166394761Y-73349642D01*
X166442380Y-73444880D01*
X166442380Y-73540119D01*
X166394761Y-73635357D01*
X166347142Y-73682976D01*
X166251904Y-73730595D01*
X166061428Y-73778214D01*
X165823333Y-73778214D01*
X165632857Y-73730595D01*
X165537619Y-73682976D01*
X165490000Y-73635357D01*
X165442380Y-73540119D01*
X166442380Y-72254404D02*
X166442380Y-72825833D01*
X166442380Y-72540119D02*
X165442380Y-72540119D01*
X165585238Y-72635357D01*
X165680476Y-72730595D01*
X165728095Y-72825833D01*
X140954285Y-61892380D02*
X140954285Y-62606666D01*
X140906666Y-62749523D01*
X140811428Y-62844761D01*
X140668571Y-62892380D01*
X140573333Y-62892380D01*
X141954285Y-62892380D02*
X141382857Y-62892380D01*
X141668571Y-62892380D02*
X141668571Y-61892380D01*
X141573333Y-62035238D01*
X141478095Y-62130476D01*
X141382857Y-62178095D01*
X142573333Y-61892380D02*
X142668571Y-61892380D01*
X142763809Y-61940000D01*
X142811428Y-61987619D01*
X142859047Y-62082857D01*
X142906666Y-62273333D01*
X142906666Y-62511428D01*
X142859047Y-62701904D01*
X142811428Y-62797142D01*
X142763809Y-62844761D01*
X142668571Y-62892380D01*
X142573333Y-62892380D01*
X142478095Y-62844761D01*
X142430476Y-62797142D01*
X142382857Y-62701904D01*
X142335238Y-62511428D01*
X142335238Y-62273333D01*
X142382857Y-62082857D01*
X142430476Y-61987619D01*
X142478095Y-61940000D01*
X142573333Y-61892380D01*
X143240000Y-61892380D02*
X143859047Y-61892380D01*
X143525714Y-62273333D01*
X143668571Y-62273333D01*
X143763809Y-62320952D01*
X143811428Y-62368571D01*
X143859047Y-62463809D01*
X143859047Y-62701904D01*
X143811428Y-62797142D01*
X143763809Y-62844761D01*
X143668571Y-62892380D01*
X143382857Y-62892380D01*
X143287619Y-62844761D01*
X143240000Y-62797142D01*
X166989285Y-85177380D02*
X166989285Y-85891666D01*
X166941666Y-86034523D01*
X166846428Y-86129761D01*
X166703571Y-86177380D01*
X166608333Y-86177380D01*
X167989285Y-86177380D02*
X167417857Y-86177380D01*
X167703571Y-86177380D02*
X167703571Y-85177380D01*
X167608333Y-85320238D01*
X167513095Y-85415476D01*
X167417857Y-85463095D01*
X168608333Y-85177380D02*
X168703571Y-85177380D01*
X168798809Y-85225000D01*
X168846428Y-85272619D01*
X168894047Y-85367857D01*
X168941666Y-85558333D01*
X168941666Y-85796428D01*
X168894047Y-85986904D01*
X168846428Y-86082142D01*
X168798809Y-86129761D01*
X168703571Y-86177380D01*
X168608333Y-86177380D01*
X168513095Y-86129761D01*
X168465476Y-86082142D01*
X168417857Y-85986904D01*
X168370238Y-85796428D01*
X168370238Y-85558333D01*
X168417857Y-85367857D01*
X168465476Y-85272619D01*
X168513095Y-85225000D01*
X168608333Y-85177380D01*
X169322619Y-85272619D02*
X169370238Y-85225000D01*
X169465476Y-85177380D01*
X169703571Y-85177380D01*
X169798809Y-85225000D01*
X169846428Y-85272619D01*
X169894047Y-85367857D01*
X169894047Y-85463095D01*
X169846428Y-85605952D01*
X169275000Y-86177380D01*
X169894047Y-86177380D01*
X147939285Y-61682380D02*
X147939285Y-62396666D01*
X147891666Y-62539523D01*
X147796428Y-62634761D01*
X147653571Y-62682380D01*
X147558333Y-62682380D01*
X148939285Y-62682380D02*
X148367857Y-62682380D01*
X148653571Y-62682380D02*
X148653571Y-61682380D01*
X148558333Y-61825238D01*
X148463095Y-61920476D01*
X148367857Y-61968095D01*
X149558333Y-61682380D02*
X149653571Y-61682380D01*
X149748809Y-61730000D01*
X149796428Y-61777619D01*
X149844047Y-61872857D01*
X149891666Y-62063333D01*
X149891666Y-62301428D01*
X149844047Y-62491904D01*
X149796428Y-62587142D01*
X149748809Y-62634761D01*
X149653571Y-62682380D01*
X149558333Y-62682380D01*
X149463095Y-62634761D01*
X149415476Y-62587142D01*
X149367857Y-62491904D01*
X149320238Y-62301428D01*
X149320238Y-62063333D01*
X149367857Y-61872857D01*
X149415476Y-61777619D01*
X149463095Y-61730000D01*
X149558333Y-61682380D01*
X150844047Y-62682380D02*
X150272619Y-62682380D01*
X150558333Y-62682380D02*
X150558333Y-61682380D01*
X150463095Y-61825238D01*
X150367857Y-61920476D01*
X150272619Y-61968095D01*
M02*
