G04 #@! TF.GenerationSoftware,KiCad,Pcbnew,5.1.5-52549c5~84~ubuntu18.04.1*
G04 #@! TF.CreationDate,2019-12-04T11:12:13-07:00*
G04 #@! TF.ProjectId,relay-shift,72656c61-792d-4736-9869-66742e6b6963,rev?*
G04 #@! TF.SameCoordinates,Original*
G04 #@! TF.FileFunction,Soldermask,Bot*
G04 #@! TF.FilePolarity,Negative*
%FSLAX46Y46*%
G04 Gerber Fmt 4.6, Leading zero omitted, Abs format (unit mm)*
G04 Created by KiCad (PCBNEW 5.1.5-52549c5~84~ubuntu18.04.1) date 2019-12-04 11:12:13*
%MOMM*%
%LPD*%
G04 APERTURE LIST*
%ADD10C,0.100000*%
G04 APERTURE END LIST*
D10*
G36*
X142353512Y-86733927D02*
G01*
X142502812Y-86763624D01*
X142666784Y-86831544D01*
X142814354Y-86930147D01*
X142939853Y-87055646D01*
X143038456Y-87203216D01*
X143106376Y-87367188D01*
X143141000Y-87541259D01*
X143141000Y-87718741D01*
X143106376Y-87892812D01*
X143038456Y-88056784D01*
X142939853Y-88204354D01*
X142814354Y-88329853D01*
X142666784Y-88428456D01*
X142502812Y-88496376D01*
X142353512Y-88526073D01*
X142328742Y-88531000D01*
X142151258Y-88531000D01*
X142126488Y-88526073D01*
X141977188Y-88496376D01*
X141813216Y-88428456D01*
X141665646Y-88329853D01*
X141540147Y-88204354D01*
X141441544Y-88056784D01*
X141373624Y-87892812D01*
X141339000Y-87718741D01*
X141339000Y-87541259D01*
X141373624Y-87367188D01*
X141441544Y-87203216D01*
X141540147Y-87055646D01*
X141665646Y-86930147D01*
X141813216Y-86831544D01*
X141977188Y-86763624D01*
X142126488Y-86733927D01*
X142151258Y-86729000D01*
X142328742Y-86729000D01*
X142353512Y-86733927D01*
G37*
G36*
X142353512Y-84193927D02*
G01*
X142502812Y-84223624D01*
X142666784Y-84291544D01*
X142814354Y-84390147D01*
X142939853Y-84515646D01*
X143038456Y-84663216D01*
X143106376Y-84827188D01*
X143141000Y-85001259D01*
X143141000Y-85178741D01*
X143106376Y-85352812D01*
X143038456Y-85516784D01*
X142939853Y-85664354D01*
X142814354Y-85789853D01*
X142666784Y-85888456D01*
X142502812Y-85956376D01*
X142353512Y-85986073D01*
X142328742Y-85991000D01*
X142151258Y-85991000D01*
X142126488Y-85986073D01*
X141977188Y-85956376D01*
X141813216Y-85888456D01*
X141665646Y-85789853D01*
X141540147Y-85664354D01*
X141441544Y-85516784D01*
X141373624Y-85352812D01*
X141339000Y-85178741D01*
X141339000Y-85001259D01*
X141373624Y-84827188D01*
X141441544Y-84663216D01*
X141540147Y-84515646D01*
X141665646Y-84390147D01*
X141813216Y-84291544D01*
X141977188Y-84223624D01*
X142126488Y-84193927D01*
X142151258Y-84189000D01*
X142328742Y-84189000D01*
X142353512Y-84193927D01*
G37*
G36*
X142353512Y-81653927D02*
G01*
X142502812Y-81683624D01*
X142666784Y-81751544D01*
X142814354Y-81850147D01*
X142939853Y-81975646D01*
X143038456Y-82123216D01*
X143106376Y-82287188D01*
X143141000Y-82461259D01*
X143141000Y-82638741D01*
X143106376Y-82812812D01*
X143038456Y-82976784D01*
X142939853Y-83124354D01*
X142814354Y-83249853D01*
X142666784Y-83348456D01*
X142502812Y-83416376D01*
X142353512Y-83446073D01*
X142328742Y-83451000D01*
X142151258Y-83451000D01*
X142126488Y-83446073D01*
X141977188Y-83416376D01*
X141813216Y-83348456D01*
X141665646Y-83249853D01*
X141540147Y-83124354D01*
X141441544Y-82976784D01*
X141373624Y-82812812D01*
X141339000Y-82638741D01*
X141339000Y-82461259D01*
X141373624Y-82287188D01*
X141441544Y-82123216D01*
X141540147Y-81975646D01*
X141665646Y-81850147D01*
X141813216Y-81751544D01*
X141977188Y-81683624D01*
X142126488Y-81653927D01*
X142151258Y-81649000D01*
X142328742Y-81649000D01*
X142353512Y-81653927D01*
G37*
G36*
X142353512Y-79113927D02*
G01*
X142502812Y-79143624D01*
X142666784Y-79211544D01*
X142814354Y-79310147D01*
X142939853Y-79435646D01*
X143038456Y-79583216D01*
X143106376Y-79747188D01*
X143141000Y-79921259D01*
X143141000Y-80098741D01*
X143106376Y-80272812D01*
X143038456Y-80436784D01*
X142939853Y-80584354D01*
X142814354Y-80709853D01*
X142666784Y-80808456D01*
X142502812Y-80876376D01*
X142353512Y-80906073D01*
X142328742Y-80911000D01*
X142151258Y-80911000D01*
X142126488Y-80906073D01*
X141977188Y-80876376D01*
X141813216Y-80808456D01*
X141665646Y-80709853D01*
X141540147Y-80584354D01*
X141441544Y-80436784D01*
X141373624Y-80272812D01*
X141339000Y-80098741D01*
X141339000Y-79921259D01*
X141373624Y-79747188D01*
X141441544Y-79583216D01*
X141540147Y-79435646D01*
X141665646Y-79310147D01*
X141813216Y-79211544D01*
X141977188Y-79143624D01*
X142126488Y-79113927D01*
X142151258Y-79109000D01*
X142328742Y-79109000D01*
X142353512Y-79113927D01*
G37*
G36*
X142353512Y-76573927D02*
G01*
X142502812Y-76603624D01*
X142666784Y-76671544D01*
X142814354Y-76770147D01*
X142939853Y-76895646D01*
X143038456Y-77043216D01*
X143106376Y-77207188D01*
X143141000Y-77381259D01*
X143141000Y-77558741D01*
X143106376Y-77732812D01*
X143038456Y-77896784D01*
X142939853Y-78044354D01*
X142814354Y-78169853D01*
X142666784Y-78268456D01*
X142502812Y-78336376D01*
X142353512Y-78366073D01*
X142328742Y-78371000D01*
X142151258Y-78371000D01*
X142126488Y-78366073D01*
X141977188Y-78336376D01*
X141813216Y-78268456D01*
X141665646Y-78169853D01*
X141540147Y-78044354D01*
X141441544Y-77896784D01*
X141373624Y-77732812D01*
X141339000Y-77558741D01*
X141339000Y-77381259D01*
X141373624Y-77207188D01*
X141441544Y-77043216D01*
X141540147Y-76895646D01*
X141665646Y-76770147D01*
X141813216Y-76671544D01*
X141977188Y-76603624D01*
X142126488Y-76573927D01*
X142151258Y-76569000D01*
X142328742Y-76569000D01*
X142353512Y-76573927D01*
G37*
G36*
X142353512Y-74033927D02*
G01*
X142502812Y-74063624D01*
X142666784Y-74131544D01*
X142814354Y-74230147D01*
X142939853Y-74355646D01*
X143038456Y-74503216D01*
X143106376Y-74667188D01*
X143141000Y-74841259D01*
X143141000Y-75018741D01*
X143106376Y-75192812D01*
X143038456Y-75356784D01*
X142939853Y-75504354D01*
X142814354Y-75629853D01*
X142666784Y-75728456D01*
X142502812Y-75796376D01*
X142353512Y-75826073D01*
X142328742Y-75831000D01*
X142151258Y-75831000D01*
X142126488Y-75826073D01*
X141977188Y-75796376D01*
X141813216Y-75728456D01*
X141665646Y-75629853D01*
X141540147Y-75504354D01*
X141441544Y-75356784D01*
X141373624Y-75192812D01*
X141339000Y-75018741D01*
X141339000Y-74841259D01*
X141373624Y-74667188D01*
X141441544Y-74503216D01*
X141540147Y-74355646D01*
X141665646Y-74230147D01*
X141813216Y-74131544D01*
X141977188Y-74063624D01*
X142126488Y-74033927D01*
X142151258Y-74029000D01*
X142328742Y-74029000D01*
X142353512Y-74033927D01*
G37*
G36*
X142353512Y-71493927D02*
G01*
X142502812Y-71523624D01*
X142666784Y-71591544D01*
X142814354Y-71690147D01*
X142939853Y-71815646D01*
X143038456Y-71963216D01*
X143106376Y-72127188D01*
X143141000Y-72301259D01*
X143141000Y-72478741D01*
X143106376Y-72652812D01*
X143038456Y-72816784D01*
X142939853Y-72964354D01*
X142814354Y-73089853D01*
X142666784Y-73188456D01*
X142502812Y-73256376D01*
X142353512Y-73286073D01*
X142328742Y-73291000D01*
X142151258Y-73291000D01*
X142126488Y-73286073D01*
X141977188Y-73256376D01*
X141813216Y-73188456D01*
X141665646Y-73089853D01*
X141540147Y-72964354D01*
X141441544Y-72816784D01*
X141373624Y-72652812D01*
X141339000Y-72478741D01*
X141339000Y-72301259D01*
X141373624Y-72127188D01*
X141441544Y-71963216D01*
X141540147Y-71815646D01*
X141665646Y-71690147D01*
X141813216Y-71591544D01*
X141977188Y-71523624D01*
X142126488Y-71493927D01*
X142151258Y-71489000D01*
X142328742Y-71489000D01*
X142353512Y-71493927D01*
G37*
G36*
X142353512Y-68953927D02*
G01*
X142502812Y-68983624D01*
X142666784Y-69051544D01*
X142814354Y-69150147D01*
X142939853Y-69275646D01*
X143038456Y-69423216D01*
X143106376Y-69587188D01*
X143141000Y-69761259D01*
X143141000Y-69938741D01*
X143106376Y-70112812D01*
X143038456Y-70276784D01*
X142939853Y-70424354D01*
X142814354Y-70549853D01*
X142666784Y-70648456D01*
X142502812Y-70716376D01*
X142353512Y-70746073D01*
X142328742Y-70751000D01*
X142151258Y-70751000D01*
X142126488Y-70746073D01*
X141977188Y-70716376D01*
X141813216Y-70648456D01*
X141665646Y-70549853D01*
X141540147Y-70424354D01*
X141441544Y-70276784D01*
X141373624Y-70112812D01*
X141339000Y-69938741D01*
X141339000Y-69761259D01*
X141373624Y-69587188D01*
X141441544Y-69423216D01*
X141540147Y-69275646D01*
X141665646Y-69150147D01*
X141813216Y-69051544D01*
X141977188Y-68983624D01*
X142126488Y-68953927D01*
X142151258Y-68949000D01*
X142328742Y-68949000D01*
X142353512Y-68953927D01*
G37*
G36*
X142353512Y-66413927D02*
G01*
X142502812Y-66443624D01*
X142666784Y-66511544D01*
X142814354Y-66610147D01*
X142939853Y-66735646D01*
X143038456Y-66883216D01*
X143106376Y-67047188D01*
X143141000Y-67221259D01*
X143141000Y-67398741D01*
X143106376Y-67572812D01*
X143038456Y-67736784D01*
X142939853Y-67884354D01*
X142814354Y-68009853D01*
X142666784Y-68108456D01*
X142502812Y-68176376D01*
X142353512Y-68206073D01*
X142328742Y-68211000D01*
X142151258Y-68211000D01*
X142126488Y-68206073D01*
X141977188Y-68176376D01*
X141813216Y-68108456D01*
X141665646Y-68009853D01*
X141540147Y-67884354D01*
X141441544Y-67736784D01*
X141373624Y-67572812D01*
X141339000Y-67398741D01*
X141339000Y-67221259D01*
X141373624Y-67047188D01*
X141441544Y-66883216D01*
X141540147Y-66735646D01*
X141665646Y-66610147D01*
X141813216Y-66511544D01*
X141977188Y-66443624D01*
X142126488Y-66413927D01*
X142151258Y-66409000D01*
X142328742Y-66409000D01*
X142353512Y-66413927D01*
G37*
G36*
X143141000Y-65671000D02*
G01*
X141339000Y-65671000D01*
X141339000Y-63869000D01*
X143141000Y-63869000D01*
X143141000Y-65671000D01*
G37*
M02*
