G04 #@! TF.FileFunction,Paste,Top*
%FSLAX46Y46*%
G04 Gerber Fmt 4.6, Leading zero omitted, Abs format (unit mm)*
G04 Created by KiCad (PCBNEW 4.0.6-e0-6349~53~ubuntu16.04.1) date Wed Aug  9 14:24:47 2017*
%MOMM*%
%LPD*%
G01*
G04 APERTURE LIST*
%ADD10C,0.100000*%
%ADD11R,0.900000X0.800000*%
%ADD12R,1.200000X1.200000*%
%ADD13R,1.600000X1.500000*%
%ADD14R,1.300000X1.500000*%
%ADD15R,1.143000X0.508000*%
%ADD16R,2.000000X1.000000*%
%ADD17R,0.800000X0.900000*%
%ADD18R,1.500000X1.300000*%
%ADD19R,1.060000X0.650000*%
%ADD20R,0.406400X1.270000*%
%ADD21R,1.700000X2.000000*%
G04 APERTURE END LIST*
D10*
D11*
X182800000Y-74450000D03*
X182800000Y-76350000D03*
X184800000Y-75400000D03*
X117872000Y-105800000D03*
X117872000Y-107700000D03*
X119872000Y-106750000D03*
X214000000Y-110550000D03*
X214000000Y-112450000D03*
X216000000Y-111500000D03*
X86250000Y-61050000D03*
X86250000Y-62950000D03*
X88250000Y-62000000D03*
D12*
X70482000Y-80794000D03*
D13*
X71882000Y-77544000D03*
D12*
X73282000Y-80794000D03*
D14*
X87122000Y-74248000D03*
X87122000Y-71548000D03*
D12*
X80642000Y-80794000D03*
D13*
X82042000Y-77544000D03*
D12*
X83442000Y-80794000D03*
D14*
X71882000Y-74248000D03*
X71882000Y-71548000D03*
D12*
X85722000Y-80794000D03*
D13*
X87122000Y-77544000D03*
D12*
X88522000Y-80794000D03*
D14*
X76962000Y-74248000D03*
X76962000Y-71548000D03*
X82042000Y-74248000D03*
X82042000Y-71548000D03*
D12*
X75562000Y-80794000D03*
D13*
X76962000Y-77544000D03*
D12*
X78362000Y-80794000D03*
D11*
X81750000Y-61050000D03*
X81750000Y-62950000D03*
X83750000Y-62000000D03*
D15*
X72136000Y-60452000D03*
X72136000Y-61722000D03*
X72136000Y-62992000D03*
X72136000Y-64262000D03*
X72136000Y-65532000D03*
X72136000Y-66802000D03*
X72136000Y-68072000D03*
X78486000Y-68072000D03*
X78486000Y-66802000D03*
X78486000Y-64262000D03*
X78486000Y-62992000D03*
X78486000Y-61722000D03*
X78486000Y-60452000D03*
X78486000Y-65532000D03*
D11*
X81750000Y-65550000D03*
X81750000Y-67450000D03*
X83750000Y-66500000D03*
X86500000Y-65800000D03*
X86500000Y-67700000D03*
X88500000Y-66750000D03*
D14*
X115570000Y-80852000D03*
X115570000Y-78152000D03*
D12*
X113030000Y-80622000D03*
X113030000Y-78422000D03*
D11*
X113554000Y-73980000D03*
X113554000Y-75880000D03*
X115554000Y-74930000D03*
D14*
X99822000Y-81360000D03*
X99822000Y-78660000D03*
D11*
X97298000Y-74488000D03*
X97298000Y-76388000D03*
X99298000Y-75438000D03*
D12*
X97282000Y-81110000D03*
X97282000Y-78910000D03*
D11*
X122190000Y-74488000D03*
X122190000Y-76388000D03*
X124190000Y-75438000D03*
D14*
X124206000Y-81360000D03*
X124206000Y-78660000D03*
D12*
X121666000Y-81110000D03*
X121666000Y-78910000D03*
X105410000Y-80622000D03*
X105410000Y-78422000D03*
D14*
X107950000Y-80872000D03*
X107950000Y-78172000D03*
D11*
X105426000Y-74488000D03*
X105426000Y-76388000D03*
X107426000Y-75438000D03*
D12*
X91948000Y-100881000D03*
X91948000Y-103081000D03*
X100711000Y-101262000D03*
X100711000Y-103462000D03*
X109347000Y-101643000D03*
X109347000Y-103843000D03*
X117602000Y-101770000D03*
X117602000Y-103970000D03*
X176276000Y-81110000D03*
X176276000Y-78910000D03*
X184912000Y-80602000D03*
X184912000Y-78402000D03*
X193040000Y-81110000D03*
X193040000Y-78910000D03*
X201168000Y-81110000D03*
X201168000Y-78910000D03*
X175768000Y-101770000D03*
X175768000Y-103970000D03*
X184404000Y-101770000D03*
X184404000Y-103970000D03*
X192532000Y-101770000D03*
X192532000Y-103970000D03*
X200660000Y-101770000D03*
X200660000Y-103970000D03*
D16*
X131826000Y-88962000D03*
X131826000Y-90362000D03*
X127762000Y-88962000D03*
X127762000Y-90362000D03*
X123698000Y-88962000D03*
X123698000Y-90362000D03*
X119634000Y-88962000D03*
X119634000Y-90362000D03*
X115570000Y-88962000D03*
X115570000Y-90362000D03*
X111506000Y-88962000D03*
X111506000Y-90362000D03*
X107442000Y-88962000D03*
X107442000Y-90362000D03*
X173354996Y-89024000D03*
X173354996Y-90424000D03*
X169206330Y-89024000D03*
X169206330Y-90424000D03*
X165057664Y-89024000D03*
X165057664Y-90424000D03*
X160908998Y-89024000D03*
X160908998Y-90424000D03*
X156760332Y-89024000D03*
X156760332Y-90424000D03*
X152611666Y-89024000D03*
X152611666Y-90424000D03*
X148463000Y-89024000D03*
X148463000Y-90424000D03*
D11*
X91440000Y-89286000D03*
X91440000Y-91186000D03*
X93440000Y-90236000D03*
X95000000Y-107450000D03*
X95000000Y-105550000D03*
X93000000Y-106500000D03*
X103200000Y-107450000D03*
X103200000Y-105550000D03*
X101200000Y-106500000D03*
D17*
X74100000Y-117700000D03*
X72200000Y-117700000D03*
X73150000Y-119700000D03*
X79100000Y-117900000D03*
X77200000Y-117900000D03*
X78150000Y-119900000D03*
D11*
X109600000Y-106150000D03*
X109600000Y-108050000D03*
X111600000Y-107100000D03*
D17*
X84350000Y-117800000D03*
X82450000Y-117800000D03*
X83400000Y-119800000D03*
X89450000Y-117800000D03*
X87550000Y-117800000D03*
X88500000Y-119800000D03*
D11*
X174100000Y-74650000D03*
X174100000Y-76550000D03*
X176100000Y-75600000D03*
D17*
X211450000Y-62200000D03*
X213350000Y-62200000D03*
X212400000Y-60200000D03*
X216350000Y-62200000D03*
X218250000Y-62200000D03*
X217300000Y-60200000D03*
D11*
X191500000Y-74550000D03*
X191500000Y-76450000D03*
X193500000Y-75500000D03*
X199200000Y-74850000D03*
X199200000Y-76750000D03*
X201200000Y-75800000D03*
X134000000Y-82050000D03*
X134000000Y-83950000D03*
X136000000Y-83000000D03*
D17*
X221450000Y-62200000D03*
X223350000Y-62200000D03*
X222400000Y-60200000D03*
X226250000Y-62200000D03*
X228150000Y-62200000D03*
X227200000Y-60200000D03*
D14*
X131826000Y-95330000D03*
X131826000Y-92630000D03*
X127762000Y-95330000D03*
X127762000Y-92630000D03*
X123698000Y-95330000D03*
X123698000Y-92630000D03*
X119888000Y-95250000D03*
X119888000Y-92550000D03*
X115570000Y-95330000D03*
X115570000Y-92630000D03*
X111506000Y-95330000D03*
X111506000Y-92630000D03*
X107442000Y-95250000D03*
X107442000Y-92550000D03*
D18*
X89916000Y-94234000D03*
X92616000Y-94234000D03*
D14*
X91000000Y-69700000D03*
X91000000Y-67000000D03*
X99314000Y-69422000D03*
X99314000Y-66722000D03*
X107442000Y-69422000D03*
X107442000Y-66722000D03*
X115250000Y-68914000D03*
X115250000Y-66214000D03*
X94869000Y-103204000D03*
X94869000Y-100504000D03*
X103378000Y-103331000D03*
X103378000Y-100631000D03*
X93599000Y-116887000D03*
X93599000Y-119587000D03*
X102489000Y-116506000D03*
X102489000Y-119206000D03*
X82042000Y-105076000D03*
X82042000Y-107776000D03*
X85090000Y-105076000D03*
X85090000Y-107776000D03*
X112014000Y-103839000D03*
X112014000Y-101139000D03*
X120142000Y-103839000D03*
X120142000Y-101139000D03*
X111125000Y-116760000D03*
X111125000Y-119460000D03*
X119126000Y-116760000D03*
X119126000Y-119460000D03*
X82042000Y-113364000D03*
X82042000Y-110664000D03*
X88138000Y-105076000D03*
X88138000Y-107776000D03*
X173228000Y-96600000D03*
X173228000Y-93900000D03*
X169672000Y-96600000D03*
X169672000Y-93900000D03*
X166116000Y-96600000D03*
X166116000Y-93900000D03*
X162560000Y-96600000D03*
X162560000Y-93900000D03*
X159004000Y-96600000D03*
X159004000Y-93900000D03*
X155448000Y-96600000D03*
X155448000Y-93900000D03*
X151892000Y-96600000D03*
X151892000Y-93900000D03*
X148336000Y-93900000D03*
X148336000Y-96600000D03*
X173228000Y-78660000D03*
X173228000Y-81360000D03*
X182372000Y-78660000D03*
X182372000Y-81360000D03*
X175768000Y-69676000D03*
X175768000Y-66976000D03*
X183896000Y-69676000D03*
X183896000Y-66976000D03*
X212344000Y-75391000D03*
X212344000Y-72691000D03*
X214884000Y-66976000D03*
X214884000Y-69676000D03*
X190500000Y-78660000D03*
X190500000Y-81360000D03*
X198628000Y-78660000D03*
X198628000Y-81360000D03*
X192532000Y-69676000D03*
X192532000Y-66976000D03*
X200660000Y-69676000D03*
X200660000Y-66976000D03*
X212344000Y-66976000D03*
X212344000Y-69676000D03*
X214884000Y-75391000D03*
X214884000Y-72691000D03*
X172720000Y-104220000D03*
X172720000Y-101520000D03*
X181864000Y-104728000D03*
X181864000Y-102028000D03*
X182372000Y-115744000D03*
X182372000Y-118444000D03*
X190500000Y-115744000D03*
X190500000Y-118444000D03*
D18*
X220138000Y-120142000D03*
X222838000Y-120142000D03*
X220138000Y-115062000D03*
X222838000Y-115062000D03*
D14*
X189992000Y-104220000D03*
X189992000Y-101520000D03*
X198120000Y-104220000D03*
X198120000Y-101520000D03*
X198628000Y-115744000D03*
X198628000Y-118444000D03*
X206756000Y-115744000D03*
X206756000Y-118444000D03*
D18*
X220138000Y-117602000D03*
X222838000Y-117602000D03*
X220138000Y-122682000D03*
X222838000Y-122682000D03*
D14*
X129000000Y-83000000D03*
X129000000Y-80300000D03*
D18*
X165862000Y-80391000D03*
X168562000Y-80391000D03*
X165782000Y-83312000D03*
X168482000Y-83312000D03*
D12*
X70736000Y-101622000D03*
D13*
X72136000Y-98372000D03*
D12*
X73536000Y-101622000D03*
X75850000Y-101585000D03*
D13*
X77250000Y-98335000D03*
D12*
X78650000Y-101585000D03*
X80896000Y-101585000D03*
D13*
X82296000Y-98335000D03*
D12*
X83696000Y-101585000D03*
X85976000Y-101575000D03*
D13*
X87376000Y-98325000D03*
D12*
X88776000Y-101575000D03*
X210436000Y-81810000D03*
D13*
X211836000Y-78560000D03*
D12*
X213236000Y-81810000D03*
X216024000Y-81810000D03*
D13*
X217424000Y-78560000D03*
D12*
X218824000Y-81810000D03*
X221612000Y-81810000D03*
D13*
X223012000Y-78560000D03*
D12*
X224412000Y-81810000D03*
X227200000Y-81810000D03*
D13*
X228600000Y-78560000D03*
D12*
X230000000Y-81810000D03*
X208912000Y-107210000D03*
D13*
X210312000Y-103960000D03*
D12*
X211712000Y-107210000D03*
X213992000Y-107210000D03*
D13*
X215392000Y-103960000D03*
D12*
X216792000Y-107210000D03*
X219072000Y-107210000D03*
D13*
X220472000Y-103960000D03*
D12*
X221872000Y-107210000D03*
X224152000Y-107210000D03*
D13*
X225552000Y-103960000D03*
D12*
X226952000Y-107210000D03*
D19*
X85936000Y-90612000D03*
X85936000Y-89662000D03*
X85936000Y-88712000D03*
X83736000Y-88712000D03*
X83736000Y-90612000D03*
X187094524Y-92966000D03*
X187094524Y-93916000D03*
X187094524Y-94866000D03*
X189294524Y-94866000D03*
X189294524Y-92966000D03*
D20*
X103251000Y-86995000D03*
X102616000Y-86995000D03*
X101955600Y-86995000D03*
X101295200Y-86995000D03*
X100660200Y-86995000D03*
X99999800Y-86995000D03*
X99339400Y-86995000D03*
X98704400Y-86995000D03*
X98044000Y-86995000D03*
X97409000Y-86995000D03*
X97409000Y-92329000D03*
X98044000Y-92329000D03*
X98704400Y-92329000D03*
X99339400Y-92329000D03*
X99999800Y-92329000D03*
X100660200Y-92329000D03*
X101295200Y-92329000D03*
X101955600Y-92329000D03*
X102616000Y-92329000D03*
X103251000Y-92329000D03*
X183007000Y-87249000D03*
X182372000Y-87249000D03*
X181711600Y-87249000D03*
X181051200Y-87249000D03*
X180416200Y-87249000D03*
X179755800Y-87249000D03*
X179095400Y-87249000D03*
X178460400Y-87249000D03*
X177800000Y-87249000D03*
X177165000Y-87249000D03*
X177165000Y-92583000D03*
X177800000Y-92583000D03*
X178460400Y-92583000D03*
X179095400Y-92583000D03*
X179755800Y-92583000D03*
X180416200Y-92583000D03*
X181051200Y-92583000D03*
X181711600Y-92583000D03*
X182372000Y-92583000D03*
X183007000Y-92583000D03*
D15*
X71882000Y-105410000D03*
X71882000Y-106680000D03*
X71882000Y-107950000D03*
X71882000Y-109220000D03*
X71882000Y-110490000D03*
X71882000Y-111760000D03*
X71882000Y-113030000D03*
X78232000Y-113030000D03*
X78232000Y-111760000D03*
X78232000Y-109220000D03*
X78232000Y-107950000D03*
X78232000Y-106680000D03*
X78232000Y-105410000D03*
X78232000Y-110490000D03*
X220091000Y-67183000D03*
X220091000Y-68453000D03*
X220091000Y-69723000D03*
X220091000Y-70993000D03*
X220091000Y-72263000D03*
X220091000Y-73533000D03*
X220091000Y-74803000D03*
X226441000Y-74803000D03*
X226441000Y-73533000D03*
X226441000Y-70993000D03*
X226441000Y-69723000D03*
X226441000Y-68453000D03*
X226441000Y-67183000D03*
X226441000Y-72263000D03*
X216662000Y-122936000D03*
X216662000Y-121666000D03*
X216662000Y-120396000D03*
X216662000Y-119126000D03*
X216662000Y-117856000D03*
X216662000Y-116586000D03*
X216662000Y-115316000D03*
X210312000Y-115316000D03*
X210312000Y-116586000D03*
X210312000Y-119126000D03*
X210312000Y-120396000D03*
X210312000Y-121666000D03*
X210312000Y-122936000D03*
X210312000Y-117856000D03*
D18*
X80598000Y-87630000D03*
X77898000Y-87630000D03*
X193722000Y-95250000D03*
X196422000Y-95250000D03*
X80598000Y-91694000D03*
X77898000Y-91694000D03*
X193722000Y-92329000D03*
X196422000Y-92329000D03*
D17*
X173850000Y-108500000D03*
X175750000Y-108500000D03*
X174800000Y-106500000D03*
X182800000Y-108500000D03*
X184700000Y-108500000D03*
X183750000Y-106500000D03*
D11*
X209500000Y-110550000D03*
X209500000Y-112450000D03*
X211500000Y-111500000D03*
D17*
X190550000Y-108500000D03*
X192450000Y-108500000D03*
X191500000Y-106500000D03*
X198550000Y-108500000D03*
X200450000Y-108500000D03*
X199500000Y-106500000D03*
D11*
X218250000Y-110550000D03*
X218250000Y-112450000D03*
X220250000Y-111500000D03*
X222000000Y-110800000D03*
X222000000Y-112700000D03*
X224000000Y-111750000D03*
D21*
X94250000Y-72250000D03*
X94250000Y-76250000D03*
X102250000Y-72000000D03*
X102250000Y-76000000D03*
X110500000Y-71750000D03*
X110500000Y-75750000D03*
X118750000Y-71500000D03*
X118750000Y-75500000D03*
X97800000Y-110900000D03*
X97800000Y-106900000D03*
X106200000Y-110900000D03*
X106200000Y-106900000D03*
X114200000Y-110700000D03*
X114200000Y-106700000D03*
X122400000Y-110900000D03*
X122400000Y-106900000D03*
X179300000Y-72300000D03*
X179300000Y-76300000D03*
X187500000Y-72400000D03*
X187500000Y-76400000D03*
X195900000Y-72400000D03*
X195900000Y-76400000D03*
X203900000Y-72400000D03*
X203900000Y-76400000D03*
X178900000Y-111400000D03*
X178900000Y-107400000D03*
X187100000Y-111000000D03*
X187100000Y-107000000D03*
X195200000Y-111200000D03*
X195200000Y-107200000D03*
X203400000Y-111200000D03*
X203400000Y-107200000D03*
D14*
X91694000Y-110918000D03*
X91694000Y-113618000D03*
D18*
X108759000Y-114046000D03*
X111459000Y-114046000D03*
X101059000Y-114046000D03*
X103759000Y-114046000D03*
X117014000Y-114173000D03*
X119714000Y-114173000D03*
X181911000Y-122936000D03*
X184611000Y-122936000D03*
X197913000Y-121539000D03*
X200613000Y-121539000D03*
D14*
X190500000Y-123524000D03*
X190500000Y-120824000D03*
X206883000Y-123397000D03*
X206883000Y-120697000D03*
X90932000Y-75485000D03*
X90932000Y-78185000D03*
X105410000Y-65151000D03*
X105410000Y-62451000D03*
X99314000Y-64088000D03*
X99314000Y-61388000D03*
D18*
X113458000Y-63119000D03*
X116158000Y-63119000D03*
D14*
X173228000Y-69676000D03*
X173228000Y-66976000D03*
X190500000Y-69596000D03*
X190500000Y-66896000D03*
X183388000Y-61943000D03*
X183388000Y-64643000D03*
X200533000Y-64643000D03*
X200533000Y-61943000D03*
M02*
