G04 #@! TF.FileFunction,Copper,L1,Top,Signal*
%FSLAX46Y46*%
G04 Gerber Fmt 4.6, Leading zero omitted, Abs format (unit mm)*
G04 Created by KiCad (PCBNEW 4.0.6-e0-6349~53~ubuntu16.04.1) date Wed Aug  9 14:24:47 2017*
%MOMM*%
%LPD*%
G01*
G04 APERTURE LIST*
%ADD10C,0.100000*%
%ADD11R,0.900000X0.800000*%
%ADD12O,2.540000X2.032000*%
%ADD13R,1.200000X1.200000*%
%ADD14R,1.600000X1.500000*%
%ADD15R,1.300000X1.500000*%
%ADD16R,1.143000X0.508000*%
%ADD17R,2.000000X1.000000*%
%ADD18R,2.032000X2.032000*%
%ADD19O,2.032000X2.032000*%
%ADD20C,4.000000*%
%ADD21R,1.727200X2.032000*%
%ADD22O,1.727200X2.032000*%
%ADD23R,0.800000X0.900000*%
%ADD24R,1.500000X1.300000*%
%ADD25R,1.060000X0.650000*%
%ADD26R,0.406400X1.270000*%
%ADD27C,1.500000*%
%ADD28R,1.700000X2.000000*%
%ADD29C,0.600000*%
%ADD30C,1.000000*%
%ADD31C,0.600000*%
%ADD32C,0.250000*%
%ADD33C,2.000000*%
%ADD34C,0.254000*%
G04 APERTURE END LIST*
D10*
D11*
X182800000Y-74450000D03*
X182800000Y-76350000D03*
X184800000Y-75400000D03*
X117872000Y-105800000D03*
X117872000Y-107700000D03*
X119872000Y-106750000D03*
X214000000Y-110550000D03*
X214000000Y-112450000D03*
X216000000Y-111500000D03*
X86250000Y-61050000D03*
X86250000Y-62950000D03*
X88250000Y-62000000D03*
D12*
X102362000Y-64262000D03*
X102362000Y-66802000D03*
X102362000Y-61722000D03*
X110490000Y-64262000D03*
X110490000Y-66802000D03*
X110490000Y-61722000D03*
X94234000Y-64262000D03*
X94234000Y-66802000D03*
X94234000Y-61722000D03*
D13*
X70482000Y-80794000D03*
D14*
X71882000Y-77544000D03*
D13*
X73282000Y-80794000D03*
D15*
X87122000Y-74248000D03*
X87122000Y-71548000D03*
D13*
X80642000Y-80794000D03*
D14*
X82042000Y-77544000D03*
D13*
X83442000Y-80794000D03*
D15*
X71882000Y-74248000D03*
X71882000Y-71548000D03*
D13*
X85722000Y-80794000D03*
D14*
X87122000Y-77544000D03*
D13*
X88522000Y-80794000D03*
D15*
X76962000Y-74248000D03*
X76962000Y-71548000D03*
X82042000Y-74248000D03*
X82042000Y-71548000D03*
D13*
X75562000Y-80794000D03*
D14*
X76962000Y-77544000D03*
D13*
X78362000Y-80794000D03*
D11*
X81750000Y-61050000D03*
X81750000Y-62950000D03*
X83750000Y-62000000D03*
D16*
X72136000Y-60452000D03*
X72136000Y-61722000D03*
X72136000Y-62992000D03*
X72136000Y-64262000D03*
X72136000Y-65532000D03*
X72136000Y-66802000D03*
X72136000Y-68072000D03*
X78486000Y-68072000D03*
X78486000Y-66802000D03*
X78486000Y-64262000D03*
X78486000Y-62992000D03*
X78486000Y-61722000D03*
X78486000Y-60452000D03*
X78486000Y-65532000D03*
D11*
X81750000Y-65550000D03*
X81750000Y-67450000D03*
X83750000Y-66500000D03*
X86500000Y-65800000D03*
X86500000Y-67700000D03*
X88500000Y-66750000D03*
D15*
X115570000Y-80852000D03*
X115570000Y-78152000D03*
D13*
X113030000Y-80622000D03*
X113030000Y-78422000D03*
D11*
X113554000Y-73980000D03*
X113554000Y-75880000D03*
X115554000Y-74930000D03*
D12*
X118618000Y-64262000D03*
X118618000Y-66802000D03*
X118618000Y-61722000D03*
D15*
X99822000Y-81360000D03*
X99822000Y-78660000D03*
D11*
X97298000Y-74488000D03*
X97298000Y-76388000D03*
X99298000Y-75438000D03*
D13*
X97282000Y-81110000D03*
X97282000Y-78910000D03*
D11*
X122190000Y-74488000D03*
X122190000Y-76388000D03*
X124190000Y-75438000D03*
D15*
X124206000Y-81360000D03*
X124206000Y-78660000D03*
D13*
X121666000Y-81110000D03*
X121666000Y-78910000D03*
X105410000Y-80622000D03*
X105410000Y-78422000D03*
D15*
X107950000Y-80872000D03*
X107950000Y-78172000D03*
D11*
X105426000Y-74488000D03*
X105426000Y-76388000D03*
X107426000Y-75438000D03*
D13*
X91948000Y-100881000D03*
X91948000Y-103081000D03*
X100711000Y-101262000D03*
X100711000Y-103462000D03*
X109347000Y-101643000D03*
X109347000Y-103843000D03*
X117602000Y-101770000D03*
X117602000Y-103970000D03*
X176276000Y-81110000D03*
X176276000Y-78910000D03*
X184912000Y-80602000D03*
X184912000Y-78402000D03*
X193040000Y-81110000D03*
X193040000Y-78910000D03*
X201168000Y-81110000D03*
X201168000Y-78910000D03*
X175768000Y-101770000D03*
X175768000Y-103970000D03*
X184404000Y-101770000D03*
X184404000Y-103970000D03*
X192532000Y-101770000D03*
X192532000Y-103970000D03*
X200660000Y-101770000D03*
X200660000Y-103970000D03*
D17*
X131826000Y-88962000D03*
X131826000Y-90362000D03*
X127762000Y-88962000D03*
X127762000Y-90362000D03*
X123698000Y-88962000D03*
X123698000Y-90362000D03*
X119634000Y-88962000D03*
X119634000Y-90362000D03*
X115570000Y-88962000D03*
X115570000Y-90362000D03*
X111506000Y-88962000D03*
X111506000Y-90362000D03*
X107442000Y-88962000D03*
X107442000Y-90362000D03*
X173354996Y-89024000D03*
X173354996Y-90424000D03*
X169206330Y-89024000D03*
X169206330Y-90424000D03*
X165057664Y-89024000D03*
X165057664Y-90424000D03*
X160908998Y-89024000D03*
X160908998Y-90424000D03*
X156760332Y-89024000D03*
X156760332Y-90424000D03*
X152611666Y-89024000D03*
X152611666Y-90424000D03*
X148463000Y-89024000D03*
X148463000Y-90424000D03*
D18*
X132461000Y-78105000D03*
D19*
X135001000Y-78105000D03*
D20*
X142836000Y-81700000D03*
X142836000Y-70900000D03*
X148046000Y-81700000D03*
X148046000Y-70900000D03*
X153256000Y-81700000D03*
X153256000Y-70900000D03*
D18*
X128778000Y-107188000D03*
D19*
X128778000Y-109728000D03*
D18*
X128778000Y-99822000D03*
D19*
X128778000Y-102362000D03*
D20*
X143344000Y-111672000D03*
X143344000Y-100872000D03*
X148554000Y-111672000D03*
X148554000Y-100872000D03*
X153764000Y-111672000D03*
X153764000Y-100872000D03*
D21*
X127762000Y-59182000D03*
D22*
X130302000Y-59182000D03*
X132842000Y-59182000D03*
X135382000Y-59182000D03*
X137922000Y-59182000D03*
X140462000Y-59182000D03*
X143002000Y-59182000D03*
X145542000Y-59182000D03*
D21*
X127762000Y-123698000D03*
D22*
X130302000Y-123698000D03*
X132842000Y-123698000D03*
X135382000Y-123698000D03*
X137922000Y-123698000D03*
X140462000Y-123698000D03*
X143002000Y-123698000D03*
X145542000Y-123698000D03*
D21*
X152400000Y-59182000D03*
D22*
X154940000Y-59182000D03*
X157480000Y-59182000D03*
X160020000Y-59182000D03*
X162560000Y-59182000D03*
X165100000Y-59182000D03*
X167640000Y-59182000D03*
X170180000Y-59182000D03*
D21*
X152400000Y-123698000D03*
D22*
X154940000Y-123698000D03*
X157480000Y-123698000D03*
X160020000Y-123698000D03*
X162560000Y-123698000D03*
X165100000Y-123698000D03*
X167640000Y-123698000D03*
X170180000Y-123698000D03*
D18*
X168275000Y-74930000D03*
D19*
X165735000Y-74930000D03*
D11*
X91440000Y-89286000D03*
X91440000Y-91186000D03*
X93440000Y-90236000D03*
X95000000Y-107450000D03*
X95000000Y-105550000D03*
X93000000Y-106500000D03*
X103200000Y-107450000D03*
X103200000Y-105550000D03*
X101200000Y-106500000D03*
D23*
X74100000Y-117700000D03*
X72200000Y-117700000D03*
X73150000Y-119700000D03*
D12*
X179324000Y-64389000D03*
X179324000Y-66929000D03*
X179324000Y-61849000D03*
D23*
X79100000Y-117900000D03*
X77200000Y-117900000D03*
X78150000Y-119900000D03*
D11*
X109600000Y-106150000D03*
X109600000Y-108050000D03*
X111600000Y-107100000D03*
D12*
X187536666Y-64389000D03*
X187536666Y-66929000D03*
X187536666Y-61849000D03*
D23*
X84350000Y-117800000D03*
X82450000Y-117800000D03*
X83400000Y-119800000D03*
D12*
X97790000Y-118364000D03*
X97790000Y-115824000D03*
X97790000Y-120904000D03*
D23*
X89450000Y-117800000D03*
X87550000Y-117800000D03*
X88500000Y-119800000D03*
D12*
X106172000Y-118364000D03*
X106172000Y-115824000D03*
X106172000Y-120904000D03*
D11*
X174100000Y-74650000D03*
X174100000Y-76550000D03*
X176100000Y-75600000D03*
D23*
X211450000Y-62200000D03*
X213350000Y-62200000D03*
X212400000Y-60200000D03*
X216350000Y-62200000D03*
X218250000Y-62200000D03*
X217300000Y-60200000D03*
D11*
X191500000Y-74550000D03*
X191500000Y-76450000D03*
X193500000Y-75500000D03*
D12*
X114300000Y-118364000D03*
X114300000Y-115824000D03*
X114300000Y-120904000D03*
D11*
X199200000Y-74850000D03*
X199200000Y-76750000D03*
X201200000Y-75800000D03*
D12*
X122428000Y-118364000D03*
X122428000Y-115824000D03*
X122428000Y-120904000D03*
D11*
X134000000Y-82050000D03*
X134000000Y-83950000D03*
X136000000Y-83000000D03*
D23*
X221450000Y-62200000D03*
X223350000Y-62200000D03*
X222400000Y-60200000D03*
D12*
X195749332Y-64389000D03*
X195749332Y-66929000D03*
X195749332Y-61849000D03*
D23*
X226250000Y-62200000D03*
X228150000Y-62200000D03*
X227200000Y-60200000D03*
D12*
X203961998Y-64389000D03*
X203961998Y-66929000D03*
X203961998Y-61849000D03*
X178990855Y-119054938D03*
X178990855Y-116514938D03*
X178990855Y-121594938D03*
X187118854Y-119054938D03*
X187118854Y-116514938D03*
X187118854Y-121594938D03*
X195246853Y-119054938D03*
X195246853Y-116514938D03*
X195246853Y-121594938D03*
X203374852Y-119054938D03*
X203374852Y-116514938D03*
X203374852Y-121594938D03*
D15*
X131826000Y-95330000D03*
X131826000Y-92630000D03*
X127762000Y-95330000D03*
X127762000Y-92630000D03*
X123698000Y-95330000D03*
X123698000Y-92630000D03*
X119888000Y-95250000D03*
X119888000Y-92550000D03*
X115570000Y-95330000D03*
X115570000Y-92630000D03*
X111506000Y-95330000D03*
X111506000Y-92630000D03*
X107442000Y-95250000D03*
X107442000Y-92550000D03*
D24*
X89916000Y-94234000D03*
X92616000Y-94234000D03*
D15*
X91000000Y-69700000D03*
X91000000Y-67000000D03*
X99314000Y-69422000D03*
X99314000Y-66722000D03*
X107442000Y-69422000D03*
X107442000Y-66722000D03*
X115250000Y-68914000D03*
X115250000Y-66214000D03*
X94869000Y-103204000D03*
X94869000Y-100504000D03*
X103378000Y-103331000D03*
X103378000Y-100631000D03*
X93599000Y-116887000D03*
X93599000Y-119587000D03*
X102489000Y-116506000D03*
X102489000Y-119206000D03*
X82042000Y-105076000D03*
X82042000Y-107776000D03*
X85090000Y-105076000D03*
X85090000Y-107776000D03*
X112014000Y-103839000D03*
X112014000Y-101139000D03*
X120142000Y-103839000D03*
X120142000Y-101139000D03*
X111125000Y-116760000D03*
X111125000Y-119460000D03*
X119126000Y-116760000D03*
X119126000Y-119460000D03*
X82042000Y-113364000D03*
X82042000Y-110664000D03*
X88138000Y-105076000D03*
X88138000Y-107776000D03*
X173228000Y-96600000D03*
X173228000Y-93900000D03*
X169672000Y-96600000D03*
X169672000Y-93900000D03*
X166116000Y-96600000D03*
X166116000Y-93900000D03*
X162560000Y-96600000D03*
X162560000Y-93900000D03*
X159004000Y-96600000D03*
X159004000Y-93900000D03*
X155448000Y-96600000D03*
X155448000Y-93900000D03*
X151892000Y-96600000D03*
X151892000Y-93900000D03*
X148336000Y-93900000D03*
X148336000Y-96600000D03*
X173228000Y-78660000D03*
X173228000Y-81360000D03*
X182372000Y-78660000D03*
X182372000Y-81360000D03*
X175768000Y-69676000D03*
X175768000Y-66976000D03*
X183896000Y-69676000D03*
X183896000Y-66976000D03*
X212344000Y-75391000D03*
X212344000Y-72691000D03*
X214884000Y-66976000D03*
X214884000Y-69676000D03*
X190500000Y-78660000D03*
X190500000Y-81360000D03*
X198628000Y-78660000D03*
X198628000Y-81360000D03*
X192532000Y-69676000D03*
X192532000Y-66976000D03*
X200660000Y-69676000D03*
X200660000Y-66976000D03*
X212344000Y-66976000D03*
X212344000Y-69676000D03*
X214884000Y-75391000D03*
X214884000Y-72691000D03*
X172720000Y-104220000D03*
X172720000Y-101520000D03*
X181864000Y-104728000D03*
X181864000Y-102028000D03*
X182372000Y-115744000D03*
X182372000Y-118444000D03*
X190500000Y-115744000D03*
X190500000Y-118444000D03*
D24*
X220138000Y-120142000D03*
X222838000Y-120142000D03*
X220138000Y-115062000D03*
X222838000Y-115062000D03*
D15*
X189992000Y-104220000D03*
X189992000Y-101520000D03*
X198120000Y-104220000D03*
X198120000Y-101520000D03*
X198628000Y-115744000D03*
X198628000Y-118444000D03*
X206756000Y-115744000D03*
X206756000Y-118444000D03*
D24*
X220138000Y-117602000D03*
X222838000Y-117602000D03*
X220138000Y-122682000D03*
X222838000Y-122682000D03*
D15*
X129000000Y-83000000D03*
X129000000Y-80300000D03*
D24*
X165862000Y-80391000D03*
X168562000Y-80391000D03*
X165782000Y-83312000D03*
X168482000Y-83312000D03*
D13*
X70736000Y-101622000D03*
D14*
X72136000Y-98372000D03*
D13*
X73536000Y-101622000D03*
X75850000Y-101585000D03*
D14*
X77250000Y-98335000D03*
D13*
X78650000Y-101585000D03*
X80896000Y-101585000D03*
D14*
X82296000Y-98335000D03*
D13*
X83696000Y-101585000D03*
X85976000Y-101575000D03*
D14*
X87376000Y-98325000D03*
D13*
X88776000Y-101575000D03*
X210436000Y-81810000D03*
D14*
X211836000Y-78560000D03*
D13*
X213236000Y-81810000D03*
X216024000Y-81810000D03*
D14*
X217424000Y-78560000D03*
D13*
X218824000Y-81810000D03*
X221612000Y-81810000D03*
D14*
X223012000Y-78560000D03*
D13*
X224412000Y-81810000D03*
X227200000Y-81810000D03*
D14*
X228600000Y-78560000D03*
D13*
X230000000Y-81810000D03*
X208912000Y-107210000D03*
D14*
X210312000Y-103960000D03*
D13*
X211712000Y-107210000D03*
X213992000Y-107210000D03*
D14*
X215392000Y-103960000D03*
D13*
X216792000Y-107210000D03*
X219072000Y-107210000D03*
D14*
X220472000Y-103960000D03*
D13*
X221872000Y-107210000D03*
X224152000Y-107210000D03*
D14*
X225552000Y-103960000D03*
D13*
X226952000Y-107210000D03*
D25*
X85936000Y-90612000D03*
X85936000Y-89662000D03*
X85936000Y-88712000D03*
X83736000Y-88712000D03*
X83736000Y-90612000D03*
X187094524Y-92966000D03*
X187094524Y-93916000D03*
X187094524Y-94866000D03*
X189294524Y-94866000D03*
X189294524Y-92966000D03*
D26*
X103251000Y-86995000D03*
X102616000Y-86995000D03*
X101955600Y-86995000D03*
X101295200Y-86995000D03*
X100660200Y-86995000D03*
X99999800Y-86995000D03*
X99339400Y-86995000D03*
X98704400Y-86995000D03*
X98044000Y-86995000D03*
X97409000Y-86995000D03*
X97409000Y-92329000D03*
X98044000Y-92329000D03*
X98704400Y-92329000D03*
X99339400Y-92329000D03*
X99999800Y-92329000D03*
X100660200Y-92329000D03*
X101295200Y-92329000D03*
X101955600Y-92329000D03*
X102616000Y-92329000D03*
X103251000Y-92329000D03*
X183007000Y-87249000D03*
X182372000Y-87249000D03*
X181711600Y-87249000D03*
X181051200Y-87249000D03*
X180416200Y-87249000D03*
X179755800Y-87249000D03*
X179095400Y-87249000D03*
X178460400Y-87249000D03*
X177800000Y-87249000D03*
X177165000Y-87249000D03*
X177165000Y-92583000D03*
X177800000Y-92583000D03*
X178460400Y-92583000D03*
X179095400Y-92583000D03*
X179755800Y-92583000D03*
X180416200Y-92583000D03*
X181051200Y-92583000D03*
X181711600Y-92583000D03*
X182372000Y-92583000D03*
X183007000Y-92583000D03*
D16*
X71882000Y-105410000D03*
X71882000Y-106680000D03*
X71882000Y-107950000D03*
X71882000Y-109220000D03*
X71882000Y-110490000D03*
X71882000Y-111760000D03*
X71882000Y-113030000D03*
X78232000Y-113030000D03*
X78232000Y-111760000D03*
X78232000Y-109220000D03*
X78232000Y-107950000D03*
X78232000Y-106680000D03*
X78232000Y-105410000D03*
X78232000Y-110490000D03*
X220091000Y-67183000D03*
X220091000Y-68453000D03*
X220091000Y-69723000D03*
X220091000Y-70993000D03*
X220091000Y-72263000D03*
X220091000Y-73533000D03*
X220091000Y-74803000D03*
X226441000Y-74803000D03*
X226441000Y-73533000D03*
X226441000Y-70993000D03*
X226441000Y-69723000D03*
X226441000Y-68453000D03*
X226441000Y-67183000D03*
X226441000Y-72263000D03*
X216662000Y-122936000D03*
X216662000Y-121666000D03*
X216662000Y-120396000D03*
X216662000Y-119126000D03*
X216662000Y-117856000D03*
X216662000Y-116586000D03*
X216662000Y-115316000D03*
X210312000Y-115316000D03*
X210312000Y-116586000D03*
X210312000Y-119126000D03*
X210312000Y-120396000D03*
X210312000Y-121666000D03*
X210312000Y-122936000D03*
X210312000Y-117856000D03*
D27*
X98298000Y-71882000D03*
X106426000Y-71882000D03*
X114554000Y-71882000D03*
X123190000Y-71882000D03*
X94107000Y-110871000D03*
X102489000Y-110617000D03*
X110617000Y-110744000D03*
X118618000Y-110871000D03*
X183388000Y-72390000D03*
X190500000Y-72390000D03*
X199136000Y-72390000D03*
X208280000Y-72390000D03*
X175260000Y-110998000D03*
X183388000Y-110998000D03*
X191516000Y-110998000D03*
X199136000Y-110998000D03*
D24*
X80598000Y-87630000D03*
X77898000Y-87630000D03*
X193722000Y-95250000D03*
X196422000Y-95250000D03*
X80598000Y-91694000D03*
X77898000Y-91694000D03*
X193722000Y-92329000D03*
X196422000Y-92329000D03*
D18*
X69215000Y-88265000D03*
D19*
X69215000Y-90805000D03*
D18*
X228346000Y-91567000D03*
D19*
X228346000Y-94107000D03*
D18*
X83820000Y-84074000D03*
D19*
X86360000Y-84074000D03*
D18*
X187452000Y-88138000D03*
D19*
X189992000Y-88138000D03*
D23*
X173850000Y-108500000D03*
X175750000Y-108500000D03*
X174800000Y-106500000D03*
X182800000Y-108500000D03*
X184700000Y-108500000D03*
X183750000Y-106500000D03*
D11*
X209500000Y-110550000D03*
X209500000Y-112450000D03*
X211500000Y-111500000D03*
D23*
X190550000Y-108500000D03*
X192450000Y-108500000D03*
X191500000Y-106500000D03*
X198550000Y-108500000D03*
X200450000Y-108500000D03*
X199500000Y-106500000D03*
D11*
X218250000Y-110550000D03*
X218250000Y-112450000D03*
X220250000Y-111500000D03*
X222000000Y-110800000D03*
X222000000Y-112700000D03*
X224000000Y-111750000D03*
D28*
X94250000Y-72250000D03*
X94250000Y-76250000D03*
X102250000Y-72000000D03*
X102250000Y-76000000D03*
X110500000Y-71750000D03*
X110500000Y-75750000D03*
X118750000Y-71500000D03*
X118750000Y-75500000D03*
X97800000Y-110900000D03*
X97800000Y-106900000D03*
X106200000Y-110900000D03*
X106200000Y-106900000D03*
X114200000Y-110700000D03*
X114200000Y-106700000D03*
X122400000Y-110900000D03*
X122400000Y-106900000D03*
X179300000Y-72300000D03*
X179300000Y-76300000D03*
X187500000Y-72400000D03*
X187500000Y-76400000D03*
X195900000Y-72400000D03*
X195900000Y-76400000D03*
X203900000Y-72400000D03*
X203900000Y-76400000D03*
X178900000Y-111400000D03*
X178900000Y-107400000D03*
X187100000Y-111000000D03*
X187100000Y-107000000D03*
X195200000Y-111200000D03*
X195200000Y-107200000D03*
X203400000Y-111200000D03*
X203400000Y-107200000D03*
D15*
X91694000Y-110918000D03*
X91694000Y-113618000D03*
D24*
X108759000Y-114046000D03*
X111459000Y-114046000D03*
X101059000Y-114046000D03*
X103759000Y-114046000D03*
X117014000Y-114173000D03*
X119714000Y-114173000D03*
X181911000Y-122936000D03*
X184611000Y-122936000D03*
X197913000Y-121539000D03*
X200613000Y-121539000D03*
D15*
X190500000Y-123524000D03*
X190500000Y-120824000D03*
X206883000Y-123397000D03*
X206883000Y-120697000D03*
X90932000Y-75485000D03*
X90932000Y-78185000D03*
X105410000Y-65151000D03*
X105410000Y-62451000D03*
X99314000Y-64088000D03*
X99314000Y-61388000D03*
D24*
X113458000Y-63119000D03*
X116158000Y-63119000D03*
D15*
X173228000Y-69676000D03*
X173228000Y-66976000D03*
X190500000Y-69596000D03*
X190500000Y-66896000D03*
X183388000Y-61943000D03*
X183388000Y-64643000D03*
X200533000Y-64643000D03*
X200533000Y-61943000D03*
D29*
X86233000Y-92583000D03*
X83947000Y-94234000D03*
X176657000Y-84455000D03*
X207772000Y-112903000D03*
X97418990Y-85558057D03*
X85600000Y-67000000D03*
X82042000Y-71548000D03*
X81400000Y-68800000D03*
X82400000Y-63400000D03*
X86250000Y-62950000D03*
X133800000Y-85600000D03*
X87000000Y-116400000D03*
X72200000Y-117700000D03*
X77200000Y-117900000D03*
X81400000Y-116800000D03*
X95000000Y-105550000D03*
X82400000Y-89662000D03*
X91440000Y-91186000D03*
X174100000Y-76550000D03*
X213350000Y-62200000D03*
X218250000Y-62200000D03*
X223350000Y-62200000D03*
X228200000Y-63600000D03*
X227800000Y-70600000D03*
X212800000Y-110000000D03*
X218250000Y-112450000D03*
X222000000Y-112700000D03*
X224600000Y-115000000D03*
X200800000Y-107200000D03*
D30*
X179000000Y-104800000D03*
X187000000Y-104400000D03*
X195200000Y-104400000D03*
X203400000Y-104400000D03*
X203800000Y-79200000D03*
X196000000Y-78800000D03*
X187600000Y-79000000D03*
X179200000Y-78600000D03*
X118800000Y-78000000D03*
X110600001Y-77626154D03*
X103400000Y-77800000D03*
X93800000Y-78200000D03*
X122400000Y-104000000D03*
X114200000Y-104000000D03*
X106200000Y-104000000D03*
X97800000Y-104000000D03*
D29*
X224775551Y-122540551D03*
X76835000Y-64262000D03*
X71628000Y-70104000D03*
X76581000Y-70104000D03*
X85598000Y-71628000D03*
X222838000Y-118872000D03*
X212217000Y-119126000D03*
X83627651Y-106995660D03*
X89408000Y-107442000D03*
X216281000Y-72517000D03*
X213233000Y-72644000D03*
X194310000Y-93916000D03*
X164465000Y-96600000D03*
X121285000Y-95250000D03*
X76200000Y-85725000D03*
X78232000Y-93218000D03*
X103302491Y-95020370D03*
X101633564Y-78154900D03*
X99895229Y-96047125D03*
X92800000Y-80700000D03*
X93900000Y-79800000D03*
X95758000Y-77724000D03*
X70104000Y-82804000D03*
X70612000Y-65024000D03*
X93218000Y-97282000D03*
X94361000Y-98171000D03*
X94869000Y-95377000D03*
X211474977Y-114798010D03*
X196078010Y-102017467D03*
X187962449Y-101978551D03*
X182374990Y-84477021D03*
X183515000Y-95123000D03*
X182245000Y-98552000D03*
X174371000Y-100711000D03*
X177927000Y-101981000D03*
X183007000Y-100711000D03*
X191262000Y-100457000D03*
X204978000Y-109601000D03*
X183134000Y-89789000D03*
X175133000Y-85217000D03*
X190627000Y-84963000D03*
X223139000Y-83439000D03*
X221742000Y-73406000D03*
X150368000Y-91440000D03*
X150114000Y-93091000D03*
X129540000Y-89408000D03*
X129794000Y-91694000D03*
X125730000Y-89154000D03*
X125730000Y-91186000D03*
X121666000Y-89408000D03*
X121666000Y-91948000D03*
X117602000Y-89154000D03*
X117602000Y-91186000D03*
X113538000Y-89408000D03*
X113538000Y-91186000D03*
X109220000Y-89408000D03*
X109474000Y-91440000D03*
X175006000Y-90043000D03*
X175387000Y-92583000D03*
X171577000Y-89662000D03*
X169799000Y-92456000D03*
X167513000Y-89789000D03*
X167259000Y-92583000D03*
X162814000Y-89789000D03*
X162814000Y-92456000D03*
X158632990Y-92583000D03*
X158496000Y-89535000D03*
X154559000Y-89281000D03*
X154940000Y-91059000D03*
X151003000Y-89281000D03*
X156210000Y-91567000D03*
X131000000Y-100600000D03*
X159257998Y-103504998D03*
X159257998Y-98552000D03*
X159258000Y-86868000D03*
X169926000Y-98933000D03*
X182499000Y-95123000D03*
X110292542Y-97019823D03*
X105409998Y-96520000D03*
X172466000Y-98542010D03*
X107211540Y-97247966D03*
X162179000Y-86868000D03*
X161417000Y-98806000D03*
X161036000Y-102997000D03*
X161290000Y-104648000D03*
X181737000Y-94742000D03*
X109855000Y-97917000D03*
X94900000Y-84300000D03*
X101100000Y-84800000D03*
X90421136Y-71393146D03*
X90424000Y-72898000D03*
X100800000Y-72985002D03*
X98679000Y-73914000D03*
X73400000Y-61600000D03*
X83600000Y-69200000D03*
X74750000Y-61250000D03*
X74750000Y-59500000D03*
X102297440Y-70729010D03*
X73200000Y-65500000D03*
X107823435Y-73405567D03*
X108876332Y-71796345D03*
X109220000Y-79629000D03*
X108712000Y-76454000D03*
X114035525Y-70113990D03*
X112895785Y-68048516D03*
X98298000Y-84836000D03*
X99568000Y-85344000D03*
X117094000Y-80391000D03*
X117094000Y-78613000D03*
X108204000Y-61087000D03*
X104775000Y-60706000D03*
X104100000Y-57300000D03*
X81100000Y-59000000D03*
X80300000Y-64100000D03*
X89147010Y-76806958D03*
X87122000Y-77544000D03*
X88300000Y-71500000D03*
X88200000Y-68800000D03*
X112980876Y-68843990D03*
X107383023Y-67972399D03*
X104211737Y-67855155D03*
X104211740Y-67855154D03*
X104211736Y-67855156D03*
X100310186Y-56474990D03*
X80200000Y-58800000D03*
X79600000Y-63200000D03*
X180104624Y-86121053D03*
X179644051Y-84140051D03*
X182118000Y-73152000D03*
X181991000Y-71755000D03*
X70400000Y-105300000D03*
X69000000Y-105200000D03*
X185175990Y-71863604D03*
X221488000Y-68326000D03*
X96012000Y-111633000D03*
X95885000Y-109982000D03*
X218760672Y-68758928D03*
X193040000Y-72390000D03*
X80100000Y-112400000D03*
X79749543Y-102206409D03*
X94000000Y-112800000D03*
X70500080Y-107799330D03*
X86700000Y-108000000D03*
X86106000Y-103124000D03*
X83566000Y-104394000D03*
X102235000Y-112121002D03*
X75057000Y-110998000D03*
X179638305Y-85471003D03*
X178489877Y-86112564D03*
X192024000Y-73152000D03*
X192151000Y-71628000D03*
X177790010Y-85725000D03*
X183769000Y-87503000D03*
X198882000Y-84455000D03*
X200787000Y-83312000D03*
X190500000Y-69596000D03*
X189357000Y-73660000D03*
X109625010Y-112150990D03*
X76835000Y-112268000D03*
X197358000Y-73025000D03*
X197358000Y-71628000D03*
X117639010Y-111543530D03*
X75800000Y-112400000D03*
X226441000Y-74803000D03*
X223300000Y-72300000D03*
X227584000Y-75946000D03*
X224574010Y-78289693D03*
X227394234Y-72420650D03*
X200745348Y-71785039D03*
X224533556Y-70985454D03*
X209349087Y-71043806D03*
X183916949Y-115082949D03*
X184531000Y-116586000D03*
X191097551Y-114262551D03*
X190627000Y-113030000D03*
X195261195Y-124361732D03*
X184667990Y-115380468D03*
X213868000Y-124850990D03*
X215392000Y-120650000D03*
X188604990Y-118171705D03*
X194565373Y-124928962D03*
X218059000Y-118745000D03*
X216916000Y-125476000D03*
X198554188Y-113860711D03*
X197223408Y-112279282D03*
X205359000Y-115316000D03*
X205613000Y-117094000D03*
X210312000Y-117856000D03*
X210947000Y-124079000D03*
X208704117Y-120503793D03*
X72898000Y-69850000D03*
X74422000Y-70358000D03*
X80800000Y-73600000D03*
X79600000Y-74200000D03*
X73660000Y-103886000D03*
X73406000Y-106172000D03*
X77216000Y-102108000D03*
X73152000Y-110998000D03*
X87055594Y-106408642D03*
X85805582Y-106321683D03*
X216281000Y-69850000D03*
X219019498Y-69596000D03*
X217424000Y-73787000D03*
X221534956Y-75678978D03*
X218994251Y-73764566D03*
X224447034Y-75995649D03*
X217678000Y-72517000D03*
X225180990Y-73533000D03*
X222973990Y-77252003D03*
X217805000Y-76454000D03*
X221361000Y-118872000D03*
X224663000Y-113411000D03*
X211455000Y-116586000D03*
X218694000Y-117602000D03*
X98023044Y-65665424D03*
X96984606Y-66435887D03*
X108182987Y-67963664D03*
X107959990Y-64632760D03*
X89281000Y-69850000D03*
X103886000Y-69723000D03*
X114606024Y-69316339D03*
X106172000Y-67818000D03*
X104267000Y-66802000D03*
X89916000Y-68326000D03*
X113568920Y-66111181D03*
X189110963Y-68116137D03*
X184979384Y-62214058D03*
X177292000Y-65786000D03*
X189074990Y-62902424D03*
X192608051Y-61208051D03*
X185900000Y-68200000D03*
X108839000Y-110744000D03*
X107950000Y-112522000D03*
X185166000Y-62992000D03*
X189800000Y-65000000D03*
X193600000Y-61100000D03*
X221081551Y-66065449D03*
X218536952Y-67508916D03*
X146000000Y-89000000D03*
X135000000Y-89000000D03*
X180543790Y-94032492D03*
X175641000Y-94361000D03*
X176022000Y-116967000D03*
X176403000Y-120904000D03*
X185293000Y-120904000D03*
X186055000Y-123444000D03*
X212700000Y-112266968D03*
X212700000Y-117700000D03*
X214949981Y-112045638D03*
X213900000Y-107302000D03*
X216662000Y-115316000D03*
X213900000Y-109200000D03*
X191643000Y-119380000D03*
X194157556Y-123494815D03*
X201422000Y-120015000D03*
X201549000Y-123444000D03*
X212294516Y-114798010D03*
X216050494Y-112718407D03*
X219072000Y-107210000D03*
X210312000Y-115316000D03*
X215200000Y-115100000D03*
X219200000Y-109600000D03*
X224152000Y-107210000D03*
X227600000Y-110900000D03*
X224100000Y-110700000D03*
X223200000Y-109800000D03*
X89747495Y-66970505D03*
X91000000Y-69478990D03*
X97621264Y-68349287D03*
X100527307Y-65461683D03*
X92551979Y-68049288D03*
X106268334Y-66649685D03*
X105028098Y-70067991D03*
X121793000Y-67183000D03*
X122047000Y-61976000D03*
X81288151Y-118399989D03*
X93599000Y-116887000D03*
X107769051Y-123130949D03*
X114681000Y-123317000D03*
X109474000Y-124079000D03*
X181500739Y-71122811D03*
X182800000Y-74450000D03*
X193929000Y-66167000D03*
X209700000Y-62700000D03*
X212300000Y-63200000D03*
X210100000Y-63900000D03*
X217300000Y-63100000D03*
X201431990Y-112776000D03*
X196715250Y-113671020D03*
X192414990Y-113465770D03*
X182372000Y-115744000D03*
X189357000Y-114046000D03*
X206629000Y-112014000D03*
X181054315Y-116895254D03*
X201431990Y-113626202D03*
X206585883Y-113176207D03*
X190500000Y-115744000D03*
X196977000Y-114554000D03*
X206883000Y-113919000D03*
X198628000Y-115744000D03*
X197231000Y-117221000D03*
D31*
X191831000Y-95791000D02*
X188224524Y-95791000D01*
X188224524Y-95791000D02*
X187299524Y-94866000D01*
X192372000Y-95250000D02*
X191831000Y-95791000D01*
X187299524Y-94866000D02*
X187094524Y-94866000D01*
X193722000Y-95250000D02*
X192372000Y-95250000D01*
X142836000Y-81700000D02*
X142836000Y-84528427D01*
X142836000Y-84528427D02*
X139200000Y-88164427D01*
X139200000Y-88164427D02*
X139200000Y-104800000D01*
X139200000Y-104800000D02*
X138800000Y-105200000D01*
X138800000Y-105200000D02*
X138800000Y-112200000D01*
X138800000Y-112200000D02*
X150298000Y-123698000D01*
X150298000Y-123698000D02*
X152400000Y-123698000D01*
X164400000Y-129000000D02*
X162560000Y-127160000D01*
X162560000Y-127160000D02*
X162560000Y-123698000D01*
X225000000Y-129000000D02*
X164400000Y-129000000D01*
X230800000Y-123200000D02*
X225000000Y-129000000D01*
X230800000Y-103800000D02*
X230800000Y-123200000D01*
X228346000Y-101346000D02*
X230800000Y-103800000D01*
X228346000Y-94107000D02*
X228346000Y-101346000D01*
X134000000Y-130000000D02*
X137922000Y-126078000D01*
X137922000Y-126078000D02*
X137922000Y-123698000D01*
X78600000Y-130000000D02*
X134000000Y-130000000D01*
X67800000Y-119200000D02*
X78600000Y-130000000D01*
X67800000Y-97200000D02*
X67800000Y-119200000D01*
X68199001Y-96800999D02*
X67800000Y-97200000D01*
X69215000Y-90805000D02*
X68199001Y-91820999D01*
X68199001Y-91820999D02*
X68199001Y-96800999D01*
X86995000Y-90358002D02*
X86995000Y-88965998D01*
X86741002Y-88712000D02*
X85936000Y-88712000D01*
X86995000Y-88965998D02*
X86741002Y-88712000D01*
X85936000Y-90612000D02*
X86741002Y-90612000D01*
X86741002Y-90612000D02*
X86995000Y-90358002D01*
X86233000Y-92583000D02*
X86233000Y-90909000D01*
X86233000Y-90909000D02*
X85936000Y-90612000D01*
X71627999Y-91820999D02*
X74041000Y-94234000D01*
X74041000Y-94234000D02*
X83947000Y-94234000D01*
X69215000Y-90805000D02*
X70230999Y-91820999D01*
X70230999Y-91820999D02*
X71627999Y-91820999D01*
D32*
X85936000Y-88712000D02*
X85936000Y-88137000D01*
X81598000Y-87630000D02*
X80598000Y-87630000D01*
X85936000Y-88137000D02*
X85429000Y-87630000D01*
X85429000Y-87630000D02*
X81598000Y-87630000D01*
X86426000Y-88712000D02*
X85936000Y-88712000D01*
D31*
X193722000Y-95250000D02*
X193822000Y-95250000D01*
X193822000Y-95250000D02*
X194972001Y-96400001D01*
X194972001Y-96400001D02*
X226052999Y-96400001D01*
X226052999Y-96400001D02*
X228346000Y-94107000D01*
X187094524Y-94866000D02*
X186289522Y-94866000D01*
X186289522Y-94866000D02*
X186064523Y-94641001D01*
X186064523Y-94641001D02*
X186064523Y-93190999D01*
X186064523Y-93190999D02*
X186289522Y-92966000D01*
X186289522Y-92966000D02*
X187094524Y-92966000D01*
D32*
X177165000Y-87249000D02*
X177165000Y-84963000D01*
X177165000Y-84963000D02*
X176657000Y-84455000D01*
X208225000Y-112450000D02*
X207772000Y-112903000D01*
X209500000Y-112450000D02*
X208225000Y-112450000D01*
X177165000Y-87249000D02*
X177165000Y-86817200D01*
X97409000Y-86995000D02*
X97409000Y-85568047D01*
X97409000Y-85568047D02*
X97418990Y-85558057D01*
D33*
X93800000Y-77492894D02*
X93800000Y-78200000D01*
X94250000Y-76250000D02*
X93800000Y-76700000D01*
X93800000Y-76700000D02*
X93800000Y-77492894D01*
D32*
X86500000Y-67700000D02*
X86300000Y-67700000D01*
X86300000Y-67700000D02*
X85600000Y-67000000D01*
X81750000Y-67450000D02*
X81750000Y-68450000D01*
X81750000Y-68450000D02*
X81400000Y-68800000D01*
X94250000Y-76250000D02*
X97160000Y-76250000D01*
X97160000Y-76250000D02*
X97298000Y-76388000D01*
X82042000Y-71548000D02*
X82548000Y-71548000D01*
X81750000Y-62950000D02*
X81950000Y-62950000D01*
X81950000Y-62950000D02*
X82400000Y-63400000D01*
X113554000Y-75880000D02*
X110630000Y-75880000D01*
X110630000Y-75880000D02*
X110500000Y-75750000D01*
X105426000Y-76388000D02*
X102638000Y-76388000D01*
X102638000Y-76388000D02*
X102250000Y-76000000D01*
D31*
X122190000Y-76388000D02*
X119638000Y-76388000D01*
X119638000Y-76388000D02*
X118750000Y-75500000D01*
X134000000Y-83950000D02*
X134000000Y-85400000D01*
X134000000Y-85400000D02*
X133800000Y-85600000D01*
D32*
X87550000Y-117800000D02*
X87550000Y-116950000D01*
X87550000Y-116950000D02*
X87000000Y-116400000D01*
X82450000Y-117800000D02*
X82400000Y-117800000D01*
X82400000Y-117800000D02*
X81400000Y-116800000D01*
X109600000Y-108050000D02*
X113000000Y-108050000D01*
X114200000Y-106850000D02*
X114200000Y-106700000D01*
X113000000Y-108050000D02*
X114200000Y-106850000D01*
X117872000Y-107700000D02*
X121600000Y-107700000D01*
X121600000Y-107700000D02*
X122400000Y-106900000D01*
X103200000Y-105550000D02*
X105000000Y-105550000D01*
X105000000Y-105550000D02*
X106200000Y-106750000D01*
X106200000Y-106750000D02*
X106200000Y-106900000D01*
D31*
X82400000Y-89662000D02*
X78680000Y-89662000D01*
X85936000Y-89662000D02*
X82400000Y-89662000D01*
D32*
X182800000Y-76350000D02*
X179350000Y-76350000D01*
X179350000Y-76350000D02*
X179300000Y-76300000D01*
X191500000Y-76450000D02*
X187550000Y-76450000D01*
X187550000Y-76450000D02*
X187500000Y-76400000D01*
X199200000Y-76750000D02*
X196250000Y-76750000D01*
X196250000Y-76750000D02*
X195900000Y-76400000D01*
X228150000Y-62200000D02*
X228150000Y-63550000D01*
X228150000Y-63550000D02*
X228200000Y-63600000D01*
X226441000Y-70993000D02*
X227407000Y-70993000D01*
X227407000Y-70993000D02*
X227800000Y-70600000D01*
X214000000Y-112450000D02*
X213950000Y-112450000D01*
X213950000Y-112450000D02*
X213224999Y-111724999D01*
X213224999Y-111724999D02*
X213224999Y-110424999D01*
X213224999Y-110424999D02*
X212800000Y-110000000D01*
X222838000Y-115062000D02*
X224538000Y-115062000D01*
X224538000Y-115062000D02*
X224600000Y-115000000D01*
X200450000Y-108500000D02*
X200450000Y-107550000D01*
X200450000Y-107550000D02*
X200800000Y-107200000D01*
X192450000Y-108500000D02*
X192450000Y-108450000D01*
X192450000Y-108450000D02*
X193700000Y-107200000D01*
X193700000Y-107200000D02*
X194100000Y-107200000D01*
X194100000Y-107200000D02*
X195200000Y-107200000D01*
X175750000Y-108500000D02*
X177800000Y-108500000D01*
X177800000Y-108500000D02*
X178900000Y-107400000D01*
X184700000Y-108500000D02*
X185750000Y-108500000D01*
X185750000Y-108500000D02*
X187100000Y-107150000D01*
X187100000Y-107150000D02*
X187100000Y-107000000D01*
D33*
X178900000Y-107400000D02*
X178900000Y-104900000D01*
X178900000Y-104900000D02*
X179000000Y-104800000D01*
X187100000Y-107000000D02*
X187100000Y-104500000D01*
X187100000Y-104500000D02*
X187000000Y-104400000D01*
X195200000Y-107200000D02*
X195200000Y-104400000D01*
X203400000Y-107200000D02*
X203400000Y-104400000D01*
X203900000Y-76400000D02*
X203900000Y-79100000D01*
X203900000Y-79100000D02*
X203800000Y-79200000D01*
X195900000Y-76400000D02*
X195900000Y-78700000D01*
X195900000Y-78700000D02*
X196000000Y-78800000D01*
X187500000Y-76400000D02*
X187500000Y-78900000D01*
X187500000Y-78900000D02*
X187600000Y-79000000D01*
X179300000Y-76300000D02*
X179300000Y-78500000D01*
X179300000Y-78500000D02*
X179200000Y-78600000D01*
X118750000Y-75500000D02*
X118750000Y-77950000D01*
X118750000Y-77950000D02*
X118800000Y-78000000D01*
X110500000Y-75750000D02*
X110500000Y-76679998D01*
X110500000Y-76679998D02*
X110600001Y-76779999D01*
X110600001Y-76779999D02*
X110600001Y-77626154D01*
X102250000Y-76000000D02*
X102250000Y-76650000D01*
X102250000Y-76650000D02*
X103400000Y-77800000D01*
X122400000Y-106900000D02*
X122400000Y-104000000D01*
X114200000Y-106700000D02*
X114200000Y-104000000D01*
X106200000Y-106900000D02*
X106200000Y-104000000D01*
X97800000Y-106900000D02*
X97800000Y-104000000D01*
D32*
X224634102Y-122682000D02*
X224775551Y-122540551D01*
X222838000Y-122682000D02*
X224634102Y-122682000D01*
X228150000Y-62200000D02*
X228150000Y-62250000D01*
X78486000Y-64262000D02*
X76835000Y-64262000D01*
X71882000Y-71548000D02*
X71882000Y-70358000D01*
X71882000Y-70358000D02*
X71628000Y-70104000D01*
X76962000Y-71548000D02*
X76962000Y-70485000D01*
X76962000Y-70485000D02*
X76581000Y-70104000D01*
X87122000Y-71548000D02*
X85678000Y-71548000D01*
X85678000Y-71548000D02*
X85598000Y-71628000D01*
X76962000Y-71548000D02*
X76962000Y-70866000D01*
X105376000Y-76388000D02*
X105426000Y-76388000D01*
X113504000Y-75880000D02*
X113554000Y-75880000D01*
X222838000Y-118872000D02*
X222838000Y-117602000D01*
X222838000Y-119242000D02*
X222838000Y-118872000D01*
X222838000Y-120142000D02*
X222838000Y-119242000D01*
X210312000Y-119126000D02*
X212217000Y-119126000D01*
X226441000Y-70993000D02*
X226949000Y-70993000D01*
X83566000Y-107057311D02*
X83627651Y-106995660D01*
X83566000Y-107776000D02*
X85090000Y-107776000D01*
X82042000Y-107776000D02*
X83566000Y-107776000D01*
X83566000Y-107776000D02*
X83566000Y-107057311D01*
X88138000Y-107776000D02*
X89074000Y-107776000D01*
X89074000Y-107776000D02*
X89408000Y-107442000D01*
X226441000Y-70993000D02*
X226187000Y-70993000D01*
X216281000Y-72517000D02*
X215058000Y-72517000D01*
X215058000Y-72517000D02*
X214884000Y-72691000D01*
X212344000Y-72691000D02*
X213186000Y-72691000D01*
X213186000Y-72691000D02*
X213233000Y-72644000D01*
X212344000Y-69676000D02*
X214884000Y-69676000D01*
X212344000Y-72691000D02*
X212344000Y-71691000D01*
X212344000Y-71691000D02*
X212344000Y-69676000D01*
D31*
X194310000Y-93916000D02*
X196085000Y-93916000D01*
X187094524Y-93916000D02*
X194310000Y-93916000D01*
D32*
X164465000Y-96600000D02*
X166116000Y-96600000D01*
X163460000Y-96600000D02*
X164465000Y-96600000D01*
X121285000Y-95250000D02*
X123618000Y-95250000D01*
X119888000Y-95250000D02*
X121285000Y-95250000D01*
X97409000Y-87426800D02*
X97409000Y-86995000D01*
D31*
X77898000Y-87630000D02*
X77898000Y-87423000D01*
X77898000Y-87423000D02*
X76200000Y-85725000D01*
X78680000Y-89662000D02*
X77898000Y-88880000D01*
X77898000Y-88880000D02*
X77898000Y-87630000D01*
X196422000Y-95250000D02*
X196422000Y-94000000D01*
X196422000Y-94000000D02*
X196338000Y-93916000D01*
X196338000Y-93916000D02*
X196085000Y-93916000D01*
X196085000Y-93916000D02*
X196422000Y-93579000D01*
X196422000Y-93579000D02*
X196422000Y-92329000D01*
X81315000Y-84963000D02*
X80665000Y-84963000D01*
X80665000Y-84963000D02*
X77998000Y-87630000D01*
X77998000Y-87630000D02*
X77898000Y-87630000D01*
X83820000Y-84074000D02*
X82204000Y-84074000D01*
X82204000Y-84074000D02*
X81315000Y-84963000D01*
D32*
X169672000Y-96600000D02*
X170572000Y-96600000D01*
X170572000Y-96600000D02*
X173228000Y-96600000D01*
X166116000Y-96600000D02*
X167016000Y-96600000D01*
X167016000Y-96600000D02*
X169672000Y-96600000D01*
X162560000Y-96600000D02*
X163460000Y-96600000D01*
X159004000Y-96600000D02*
X162560000Y-96600000D01*
X155448000Y-96600000D02*
X159004000Y-96600000D01*
X151892000Y-96600000D02*
X155448000Y-96600000D01*
X88138000Y-107776000D02*
X88138000Y-107876000D01*
X82042000Y-107776000D02*
X82042000Y-108776000D01*
X82042000Y-108776000D02*
X82042000Y-110664000D01*
X78232000Y-109220000D02*
X80698000Y-109220000D01*
X80698000Y-109220000D02*
X82042000Y-110564000D01*
X82042000Y-110564000D02*
X82042000Y-110664000D01*
X77898000Y-91694000D02*
X77898000Y-92884000D01*
X77898000Y-92884000D02*
X78232000Y-93218000D01*
X127762000Y-95330000D02*
X128662000Y-95330000D01*
X128662000Y-95330000D02*
X131826000Y-95330000D01*
X123698000Y-95330000D02*
X127762000Y-95330000D01*
X123618000Y-95250000D02*
X123698000Y-95330000D01*
X115570000Y-95330000D02*
X119808000Y-95330000D01*
X119808000Y-95330000D02*
X119888000Y-95250000D01*
X111506000Y-95330000D02*
X115570000Y-95330000D01*
X107442000Y-95250000D02*
X111426000Y-95250000D01*
X111426000Y-95250000D02*
X111506000Y-95330000D01*
D31*
X95458001Y-78666263D02*
X94324264Y-79800000D01*
X94324264Y-79800000D02*
X93900000Y-79800000D01*
X95458001Y-78023999D02*
X95458001Y-78666263D01*
X95758000Y-77724000D02*
X95458001Y-78023999D01*
X103302491Y-94596106D02*
X103302491Y-95020370D01*
D32*
X104962374Y-95020370D02*
X103726755Y-95020370D01*
X112014000Y-101039000D02*
X107321998Y-96346998D01*
X103726755Y-95020370D02*
X103302491Y-95020370D01*
X112014000Y-101139000D02*
X112014000Y-101039000D01*
X106289002Y-96346998D02*
X104962374Y-95020370D01*
X107321998Y-96346998D02*
X106289002Y-96346998D01*
D31*
X103319201Y-92397201D02*
X103319201Y-94579396D01*
X103319201Y-94579396D02*
X103302491Y-94596106D01*
X101933563Y-78454899D02*
X101633564Y-78154900D01*
X99822000Y-78760000D02*
X100961999Y-79899999D01*
X102153999Y-78675335D02*
X101933563Y-78454899D01*
X102153999Y-78930005D02*
X102153999Y-78675335D01*
X101184005Y-79899999D02*
X102153999Y-78930005D01*
X100961999Y-79899999D02*
X101184005Y-79899999D01*
D32*
X109728000Y-78628000D02*
X109272000Y-78172000D01*
X109272000Y-78172000D02*
X107950000Y-78172000D01*
X109728000Y-79050000D02*
X109728000Y-78628000D01*
X106562000Y-79660000D02*
X107950000Y-78272000D01*
X107950000Y-78272000D02*
X107950000Y-78172000D01*
D31*
X89916000Y-94234000D02*
X89916000Y-92984000D01*
X89200000Y-92268000D02*
X89200000Y-84282000D01*
X89916000Y-92984000D02*
X89200000Y-92268000D01*
X89200000Y-84282000D02*
X89916000Y-83566000D01*
D32*
X103378000Y-100631000D02*
X103378000Y-99529896D01*
X103378000Y-99529896D02*
X100195228Y-96347124D01*
X100195228Y-96347124D02*
X99895229Y-96047125D01*
X84655000Y-96012000D02*
X86433000Y-94234000D01*
X70866000Y-96012000D02*
X84655000Y-96012000D01*
X69596000Y-97282000D02*
X70866000Y-96012000D01*
X69596000Y-105529004D02*
X69625002Y-105500002D01*
X69596000Y-108585000D02*
X69596000Y-105529004D01*
X69625002Y-104899998D02*
X69596000Y-104870996D01*
X70231000Y-109220000D02*
X69596000Y-108585000D01*
X69625002Y-105500002D02*
X69625002Y-104899998D01*
X71882000Y-109220000D02*
X70231000Y-109220000D01*
X69596000Y-104870996D02*
X69596000Y-97282000D01*
D31*
X92800000Y-80700000D02*
X89934000Y-83566000D01*
X89934000Y-83566000D02*
X89916000Y-83566000D01*
X99822000Y-78760000D02*
X99822000Y-78660000D01*
D32*
X99822000Y-78760000D02*
X100722000Y-79660000D01*
X100722000Y-79660000D02*
X106562000Y-79660000D01*
X70104000Y-82804000D02*
X77912000Y-90612000D01*
D31*
X89408000Y-84074000D02*
X89916000Y-83566000D01*
D32*
X72136000Y-64262000D02*
X71374000Y-64262000D01*
X71374000Y-64262000D02*
X70612000Y-65024000D01*
X120142000Y-80010000D02*
X122956000Y-80010000D01*
X122956000Y-80010000D02*
X124206000Y-78760000D01*
X124206000Y-78760000D02*
X124206000Y-78660000D01*
X119634000Y-79502000D02*
X120142000Y-80010000D01*
X115920000Y-79502000D02*
X119634000Y-79502000D01*
X115570000Y-78152000D02*
X115570000Y-79152000D01*
X115570000Y-79152000D02*
X115920000Y-79502000D01*
X111252000Y-79502000D02*
X114320000Y-79502000D01*
X114320000Y-79502000D02*
X115570000Y-78252000D01*
X115570000Y-78252000D02*
X115570000Y-78152000D01*
X110800000Y-79050000D02*
X111252000Y-79502000D01*
X109728000Y-79050000D02*
X110800000Y-79050000D01*
X99822000Y-78272000D02*
X99822000Y-78172000D01*
X77912000Y-90612000D02*
X80780000Y-90612000D01*
D31*
X86360000Y-84074000D02*
X89408000Y-84074000D01*
D32*
X114525999Y-100612001D02*
X113999000Y-101139000D01*
X113999000Y-101139000D02*
X112014000Y-101139000D01*
X118306000Y-100203000D02*
X117896999Y-100612001D01*
X117896999Y-100612001D02*
X114525999Y-100612001D01*
X120142000Y-101139000D02*
X119242000Y-101139000D01*
X119242000Y-101139000D02*
X118306000Y-100203000D01*
D31*
X91458999Y-95676999D02*
X93218000Y-95676999D01*
X93218000Y-95676999D02*
X94569001Y-95676999D01*
D32*
X93218000Y-97282000D02*
X93218000Y-95676999D01*
X94869000Y-100504000D02*
X94869000Y-98679000D01*
X94869000Y-98679000D02*
X94361000Y-98171000D01*
D31*
X90016000Y-94234000D02*
X91458999Y-95676999D01*
X94569001Y-95676999D02*
X94869000Y-95377000D01*
X89916000Y-94234000D02*
X90016000Y-94234000D01*
X83736000Y-90612000D02*
X83736000Y-91537000D01*
X83736000Y-91537000D02*
X86433000Y-94234000D01*
X86433000Y-94234000D02*
X88566000Y-94234000D01*
X88566000Y-94234000D02*
X89916000Y-94234000D01*
D32*
X83736000Y-90612000D02*
X80780000Y-90612000D01*
X80780000Y-90612000D02*
X80598000Y-90794000D01*
X80598000Y-90794000D02*
X80598000Y-91694000D01*
X103632000Y-90932000D02*
X103251000Y-91313000D01*
X103251000Y-91313000D02*
X103251000Y-92329000D01*
X105622000Y-90932000D02*
X103632000Y-90932000D01*
X107442000Y-90362000D02*
X106192000Y-90362000D01*
X106192000Y-90362000D02*
X105622000Y-90932000D01*
X127762000Y-90362000D02*
X129012000Y-90362000D01*
X129012000Y-90362000D02*
X131826000Y-90362000D01*
X123698000Y-90362000D02*
X127762000Y-90362000D01*
X119634000Y-90362000D02*
X120884000Y-90362000D01*
X120884000Y-90362000D02*
X123698000Y-90362000D01*
X115570000Y-90362000D02*
X119634000Y-90362000D01*
X111506000Y-90362000D02*
X112756000Y-90362000D01*
X112756000Y-90362000D02*
X115570000Y-90362000D01*
X107442000Y-90362000D02*
X108692000Y-90362000D01*
X108692000Y-90362000D02*
X111506000Y-90362000D01*
D31*
X83941000Y-90612000D02*
X83736000Y-90612000D01*
D32*
X83736000Y-90762000D02*
X83736000Y-90612000D01*
D31*
X216662000Y-119126000D02*
X215490500Y-119126000D01*
X211474977Y-115110477D02*
X211474977Y-114798010D01*
X215490500Y-119126000D02*
X211474977Y-115110477D01*
X196378009Y-101717468D02*
X196078010Y-102017467D01*
X196575477Y-101520000D02*
X196378009Y-101717468D01*
X198120000Y-101520000D02*
X196575477Y-101520000D01*
X188421000Y-101520000D02*
X188262448Y-101678552D01*
X189992000Y-101520000D02*
X188421000Y-101520000D01*
X188262448Y-101678552D02*
X187962449Y-101978551D01*
X204978000Y-109601000D02*
X204601000Y-109601000D01*
X204601000Y-109601000D02*
X204100000Y-109100000D01*
X204100000Y-109100000D02*
X202549998Y-109100000D01*
X202549998Y-109100000D02*
X201900000Y-108450002D01*
X201900000Y-108450002D02*
X201900000Y-100935000D01*
X201900000Y-100935000D02*
X201135000Y-100170000D01*
X201135000Y-100170000D02*
X199370000Y-100170000D01*
X199370000Y-100170000D02*
X198120000Y-101420000D01*
X198120000Y-101420000D02*
X198120000Y-101520000D01*
X182372000Y-81360000D02*
X182372000Y-84474031D01*
X182372000Y-84474031D02*
X182374990Y-84477021D01*
X183515000Y-95123000D02*
X183515000Y-93784799D01*
X183433999Y-90088999D02*
X183134000Y-89789000D01*
X183515000Y-93784799D02*
X183075201Y-93345000D01*
X183075201Y-93345000D02*
X183075201Y-92514799D01*
X183075201Y-92514799D02*
X183433999Y-92156001D01*
X183433999Y-92156001D02*
X183433999Y-90088999D01*
X183007000Y-100711000D02*
X183007000Y-99314000D01*
X183007000Y-99314000D02*
X182245000Y-98552000D01*
X174371000Y-100711000D02*
X173529000Y-100711000D01*
X173529000Y-100711000D02*
X172720000Y-101520000D01*
X181864000Y-102028000D02*
X177974000Y-102028000D01*
X177974000Y-102028000D02*
X177927000Y-101981000D01*
X183007000Y-100711000D02*
X183007000Y-100885000D01*
X183007000Y-100885000D02*
X181864000Y-102028000D01*
X191262000Y-100457000D02*
X191055000Y-100457000D01*
X191055000Y-100457000D02*
X189992000Y-101520000D01*
X173228000Y-81360000D02*
X173228000Y-83312000D01*
X173228000Y-83312000D02*
X175133000Y-85217000D01*
X190500000Y-81360000D02*
X190500000Y-84836000D01*
X190500000Y-84836000D02*
X190627000Y-84963000D01*
X202311000Y-88646000D02*
X200025000Y-88646000D01*
X200025000Y-88646000D02*
X195453000Y-88646000D01*
X198628000Y-81360000D02*
X198628000Y-82710000D01*
X198628000Y-82710000D02*
X200025000Y-84107000D01*
X200025000Y-84107000D02*
X200025000Y-88646000D01*
X195453000Y-88646000D02*
X193722000Y-90377000D01*
X193722000Y-90377000D02*
X193722000Y-92329000D01*
X207218001Y-83738999D02*
X202311000Y-88646000D01*
X223139000Y-83439000D02*
X222839001Y-83738999D01*
X222839001Y-83738999D02*
X207218001Y-83738999D01*
X221869000Y-71882000D02*
X221869000Y-73279000D01*
X221869000Y-73279000D02*
X221742000Y-73406000D01*
X220091000Y-70993000D02*
X220980000Y-70993000D01*
X220980000Y-70993000D02*
X221869000Y-71882000D01*
X189294524Y-92966000D02*
X190881000Y-92966000D01*
X190881000Y-92966000D02*
X193085000Y-92966000D01*
X189992000Y-88138000D02*
X189992000Y-92077000D01*
X189992000Y-92077000D02*
X190881000Y-92966000D01*
X193085000Y-92966000D02*
X193722000Y-92329000D01*
D32*
X152611666Y-90424000D02*
X150368000Y-90424000D01*
X150368000Y-90424000D02*
X148463000Y-90424000D01*
X150368000Y-91440000D02*
X150368000Y-90424000D01*
X148336000Y-93900000D02*
X149305000Y-93900000D01*
X149305000Y-93900000D02*
X150114000Y-93091000D01*
X181768055Y-90459055D02*
X183007000Y-91698000D01*
X173598997Y-90668001D02*
X175306001Y-90668001D01*
X183007000Y-91698000D02*
X183007000Y-92583000D01*
X175306001Y-90668001D02*
X175514947Y-90459055D01*
X173354996Y-90424000D02*
X173598997Y-90668001D01*
X175514947Y-90459055D02*
X181768055Y-90459055D01*
X173354996Y-90424000D02*
X173854996Y-90424000D01*
X156760332Y-90424000D02*
X152611666Y-90424000D01*
X160908998Y-90424000D02*
X156760332Y-90424000D01*
X165057664Y-90424000D02*
X163807664Y-90424000D01*
X163807664Y-90424000D02*
X160908998Y-90424000D01*
X169206330Y-90424000D02*
X165057664Y-90424000D01*
X173354996Y-90424000D02*
X169206330Y-90424000D01*
X97282000Y-81110000D02*
X99572000Y-81110000D01*
X99572000Y-81110000D02*
X99822000Y-81360000D01*
X99298000Y-75438000D02*
X99298000Y-76894000D01*
X99298000Y-76894000D02*
X97282000Y-78910000D01*
X105410000Y-80622000D02*
X107700000Y-80622000D01*
X107700000Y-80622000D02*
X107950000Y-80872000D01*
X105410000Y-78422000D02*
X107426000Y-76406000D01*
X107426000Y-76406000D02*
X107426000Y-75438000D01*
X113030000Y-80622000D02*
X115340000Y-80622000D01*
X115340000Y-80622000D02*
X115570000Y-80852000D01*
X115554000Y-74930000D02*
X115554000Y-75580000D01*
X115554000Y-75580000D02*
X113030000Y-78104000D01*
X113030000Y-78104000D02*
X113030000Y-78422000D01*
X121666000Y-81110000D02*
X123956000Y-81110000D01*
X123956000Y-81110000D02*
X124206000Y-81360000D01*
X124190000Y-75438000D02*
X124190000Y-76088000D01*
X124190000Y-76088000D02*
X121666000Y-78612000D01*
X121666000Y-78612000D02*
X121666000Y-78910000D01*
X94869000Y-103204000D02*
X94869000Y-102952000D01*
X94869000Y-102952000D02*
X92798000Y-100881000D01*
X92798000Y-100881000D02*
X91948000Y-100881000D01*
X93000000Y-106500000D02*
X93000000Y-103283000D01*
X93000000Y-103283000D02*
X92798000Y-103081000D01*
X92798000Y-103081000D02*
X91948000Y-103081000D01*
X103378000Y-103331000D02*
X102478000Y-103331000D01*
X102478000Y-103331000D02*
X100711000Y-101564000D01*
X100711000Y-101564000D02*
X100711000Y-101262000D01*
X100711000Y-103462000D02*
X100711000Y-106011000D01*
X100711000Y-106011000D02*
X101200000Y-106500000D01*
X101108000Y-103859000D02*
X100711000Y-103462000D01*
X112014000Y-103839000D02*
X111114000Y-103839000D01*
X111114000Y-103839000D02*
X109347000Y-102072000D01*
X109347000Y-102072000D02*
X109347000Y-101643000D01*
X109347000Y-103843000D02*
X111600000Y-106096000D01*
X111600000Y-106096000D02*
X111600000Y-107100000D01*
X109617000Y-104113000D02*
X109347000Y-103843000D01*
X120142000Y-103839000D02*
X120142000Y-103460000D01*
X118452000Y-101770000D02*
X117602000Y-101770000D01*
X120142000Y-103460000D02*
X118452000Y-101770000D01*
X117602000Y-103970000D02*
X117742000Y-103970000D01*
X117742000Y-103970000D02*
X119872000Y-106100000D01*
X119872000Y-106100000D02*
X119872000Y-106750000D01*
X117618000Y-103986000D02*
X117602000Y-103970000D01*
X176276000Y-81110000D02*
X175426000Y-81110000D01*
X173228000Y-78912000D02*
X173228000Y-78660000D01*
X175426000Y-81110000D02*
X173228000Y-78912000D01*
X176276000Y-78910000D02*
X176276000Y-75776000D01*
X176276000Y-75776000D02*
X176100000Y-75600000D01*
X184912000Y-80602000D02*
X184062000Y-80602000D01*
X184062000Y-80602000D02*
X182372000Y-78912000D01*
X182372000Y-78912000D02*
X182372000Y-78660000D01*
X184800000Y-75400000D02*
X184800000Y-78290000D01*
X184800000Y-78290000D02*
X184912000Y-78402000D01*
X184896000Y-78386000D02*
X184912000Y-78402000D01*
X193040000Y-81110000D02*
X192190000Y-81110000D01*
X190500000Y-79420000D02*
X190500000Y-78660000D01*
X192190000Y-81110000D02*
X190500000Y-79420000D01*
X193500000Y-75500000D02*
X193500000Y-78450000D01*
X193500000Y-78450000D02*
X193040000Y-78910000D01*
X193024000Y-78894000D02*
X193040000Y-78910000D01*
X201168000Y-81110000D02*
X200318000Y-81110000D01*
X200318000Y-81110000D02*
X198628000Y-79420000D01*
X198628000Y-79420000D02*
X198628000Y-78660000D01*
X201200000Y-75800000D02*
X201200000Y-78878000D01*
X201200000Y-78878000D02*
X201168000Y-78910000D01*
X201152000Y-78894000D02*
X201168000Y-78910000D01*
X172720000Y-104220000D02*
X172720000Y-103968000D01*
X172720000Y-103968000D02*
X174918000Y-101770000D01*
X174918000Y-101770000D02*
X175768000Y-101770000D01*
X174800000Y-106500000D02*
X174800000Y-104088000D01*
X174800000Y-104088000D02*
X174918000Y-103970000D01*
X174918000Y-103970000D02*
X175768000Y-103970000D01*
X181864000Y-104728000D02*
X181864000Y-104628000D01*
X184404000Y-102088000D02*
X184404000Y-101770000D01*
X181864000Y-104628000D02*
X184404000Y-102088000D01*
X183750000Y-106500000D02*
X183750000Y-104624000D01*
X183750000Y-104624000D02*
X184404000Y-103970000D01*
X189992000Y-104220000D02*
X189992000Y-103460000D01*
X189992000Y-103460000D02*
X191682000Y-101770000D01*
X191682000Y-101770000D02*
X192532000Y-101770000D01*
X191500000Y-106500000D02*
X191500000Y-104152000D01*
X191500000Y-104152000D02*
X191682000Y-103970000D01*
X191682000Y-103970000D02*
X192532000Y-103970000D01*
X198120000Y-104220000D02*
X198120000Y-103460000D01*
X198120000Y-103460000D02*
X199810000Y-101770000D01*
X199810000Y-101770000D02*
X200660000Y-101770000D01*
X199500000Y-106500000D02*
X199500000Y-104280000D01*
X199500000Y-104280000D02*
X199810000Y-103970000D01*
X199810000Y-103970000D02*
X200660000Y-103970000D01*
X127754011Y-86140011D02*
X130576000Y-88962000D01*
X109579070Y-85832012D02*
X109887068Y-86140011D01*
X109887068Y-86140011D02*
X127754011Y-86140011D01*
X104867188Y-85832012D02*
X109579070Y-85832012D01*
X103704200Y-86995000D02*
X104867188Y-85832012D01*
X103251000Y-86995000D02*
X103704200Y-86995000D01*
X130576000Y-88962000D02*
X131826000Y-88962000D01*
X133604000Y-91752000D02*
X133604000Y-89490000D01*
X133604000Y-89490000D02*
X133076000Y-88962000D01*
X133076000Y-88962000D02*
X131826000Y-88962000D01*
X131826000Y-92630000D02*
X132726000Y-92630000D01*
X132726000Y-92630000D02*
X133604000Y-91752000D01*
X126512000Y-88962000D02*
X127762000Y-88962000D01*
X124140022Y-86590022D02*
X126512000Y-88962000D01*
X102616000Y-87880000D02*
X102691001Y-87955001D01*
X109392670Y-86282023D02*
X109437057Y-86326411D01*
X109437057Y-86326411D02*
X109700668Y-86590022D01*
X103686589Y-87955001D02*
X105359567Y-86282023D01*
X102616000Y-86995000D02*
X102616000Y-87880000D01*
X102691001Y-87955001D02*
X103686589Y-87955001D01*
X109700668Y-86590022D02*
X124140022Y-86590022D01*
X105359567Y-86282023D02*
X109392670Y-86282023D01*
X129540000Y-89408000D02*
X128208000Y-89408000D01*
X128208000Y-89408000D02*
X127762000Y-88962000D01*
X127762000Y-92630000D02*
X128858000Y-92630000D01*
X128858000Y-92630000D02*
X129794000Y-91694000D01*
X105668733Y-86732034D02*
X109206268Y-86732034D01*
X101955600Y-86995000D02*
X101955600Y-87880000D01*
X103995755Y-88405012D02*
X105668733Y-86732034D01*
X109250657Y-86776422D02*
X109514268Y-87040033D01*
X102480612Y-88405012D02*
X103995755Y-88405012D01*
X122448000Y-88962000D02*
X123698000Y-88962000D01*
X109514268Y-87040033D02*
X120526033Y-87040033D01*
X109206268Y-86732034D02*
X109250651Y-86776419D01*
X109250651Y-86776419D02*
X109250657Y-86776422D01*
X120526033Y-87040033D02*
X122448000Y-88962000D01*
X101955600Y-87880000D02*
X102480612Y-88405012D01*
X125730000Y-89154000D02*
X123890000Y-89154000D01*
X123890000Y-89154000D02*
X123698000Y-88962000D01*
X123698000Y-92630000D02*
X123698000Y-92530000D01*
X123698000Y-92530000D02*
X125042000Y-91186000D01*
X125042000Y-91186000D02*
X125730000Y-91186000D01*
X116912044Y-87490044D02*
X118384000Y-88962000D01*
X105855133Y-87182045D02*
X109019869Y-87182045D01*
X118384000Y-88962000D02*
X119634000Y-88962000D01*
X109327868Y-87490044D02*
X116912044Y-87490044D01*
X102270223Y-88855023D02*
X104182155Y-88855023D01*
X104182155Y-88855023D02*
X105855133Y-87182045D01*
X101295200Y-87880000D02*
X102270223Y-88855023D01*
X109019869Y-87182045D02*
X109327868Y-87490044D01*
X101295200Y-86995000D02*
X101295200Y-87880000D01*
X121666000Y-89408000D02*
X120080000Y-89408000D01*
X120080000Y-89408000D02*
X119634000Y-88962000D01*
X119888000Y-92550000D02*
X121064000Y-92550000D01*
X121064000Y-92550000D02*
X121666000Y-91948000D01*
X113298055Y-87940055D02*
X109122681Y-87940055D01*
X100660200Y-87960200D02*
X100660200Y-87880000D01*
X108814682Y-87632056D02*
X106041533Y-87632056D01*
X100660200Y-87880000D02*
X100660200Y-86995000D01*
X114320000Y-88962000D02*
X113298055Y-87940055D01*
X102005034Y-89305034D02*
X100660200Y-87960200D01*
X106041533Y-87632056D02*
X104368555Y-89305034D01*
X115570000Y-88962000D02*
X114320000Y-88962000D01*
X109122681Y-87940055D02*
X108814682Y-87632056D01*
X104368555Y-89305034D02*
X102005034Y-89305034D01*
X117602000Y-89154000D02*
X115762000Y-89154000D01*
X115762000Y-89154000D02*
X115570000Y-88962000D01*
X115570000Y-92630000D02*
X115570000Y-92530000D01*
X115570000Y-92530000D02*
X116914000Y-91186000D01*
X116914000Y-91186000D02*
X117602000Y-91186000D01*
X110256000Y-88962000D02*
X109684066Y-88390066D01*
X100660200Y-91444000D02*
X100660200Y-92329000D01*
X101346000Y-89916000D02*
X100660200Y-90601800D01*
X104402998Y-89916000D02*
X101346000Y-89916000D01*
X106236931Y-88082067D02*
X104402998Y-89916000D01*
X108601427Y-88082067D02*
X106236931Y-88082067D01*
X108909426Y-88390066D02*
X108601427Y-88082067D01*
X109684066Y-88390066D02*
X108909426Y-88390066D01*
X111506000Y-88962000D02*
X110256000Y-88962000D01*
X100660200Y-90601800D02*
X100660200Y-91444000D01*
X113538000Y-89408000D02*
X111952000Y-89408000D01*
X111952000Y-89408000D02*
X111506000Y-88962000D01*
X111506000Y-92630000D02*
X111506000Y-92530000D01*
X111506000Y-92530000D02*
X112850000Y-91186000D01*
X112850000Y-91186000D02*
X113538000Y-91186000D01*
X109220000Y-89408000D02*
X107888000Y-89408000D01*
X107888000Y-89408000D02*
X107442000Y-88962000D01*
X107442000Y-92550000D02*
X108364000Y-92550000D01*
X108364000Y-92550000D02*
X109474000Y-91440000D01*
X106192000Y-88962000D02*
X107442000Y-88962000D01*
X104672011Y-90481989D02*
X106192000Y-88962000D01*
X102257211Y-90481989D02*
X104672011Y-90481989D01*
X101295200Y-91444000D02*
X102257211Y-90481989D01*
X101295200Y-92329000D02*
X101295200Y-91444000D01*
X175514000Y-89916000D02*
X175260000Y-89662000D01*
X175260000Y-89662000D02*
X174622000Y-89024000D01*
X175006000Y-90043000D02*
X175305999Y-89743001D01*
X175305999Y-89743001D02*
X175305999Y-89707999D01*
X175305999Y-89707999D02*
X175260000Y-89662000D01*
X173228000Y-93900000D02*
X173228000Y-93800000D01*
X173228000Y-93800000D02*
X174445000Y-92583000D01*
X174445000Y-92583000D02*
X175387000Y-92583000D01*
X174622000Y-89024000D02*
X173354996Y-89024000D01*
X175863154Y-89916000D02*
X175514000Y-89916000D01*
X175956199Y-90009045D02*
X175863154Y-89916000D01*
X181057646Y-89916000D02*
X180964601Y-90009045D01*
X181225000Y-89916000D02*
X181057646Y-89916000D01*
X180964601Y-90009045D02*
X175956199Y-90009045D01*
X183007000Y-88134000D02*
X181225000Y-89916000D01*
X183007000Y-87249000D02*
X183007000Y-88134000D01*
X171577000Y-89662000D02*
X171277001Y-89362001D01*
X171277001Y-89362001D02*
X170794331Y-89362001D01*
X170794331Y-89362001D02*
X170456330Y-89024000D01*
X169672000Y-92583000D02*
X169799000Y-92456000D01*
X169672000Y-93900000D02*
X169672000Y-92583000D01*
X170456330Y-89024000D02*
X169206330Y-89024000D01*
X171850330Y-87630000D02*
X170456330Y-89024000D01*
X182372000Y-87249000D02*
X182372000Y-87965235D01*
X180778201Y-89559034D02*
X176142599Y-89559034D01*
X174213565Y-87630000D02*
X171850330Y-87630000D01*
X182372000Y-87965235D02*
X180778201Y-89559034D01*
X176142599Y-89559034D02*
X174213565Y-87630000D01*
X167513000Y-89364736D02*
X167132000Y-88900000D01*
X167132000Y-88900000D02*
X167132000Y-88983736D01*
X167513000Y-89789000D02*
X167513000Y-89364736D01*
X166116000Y-93900000D02*
X166116000Y-93726000D01*
X166116000Y-93726000D02*
X167259000Y-92583000D01*
X180591801Y-89109023D02*
X176328999Y-89109023D01*
X166307664Y-89024000D02*
X165057664Y-89024000D01*
X167133589Y-89024000D02*
X166307664Y-89024000D01*
X174399965Y-87179989D02*
X168977600Y-87179989D01*
X168977600Y-87179989D02*
X167133589Y-89024000D01*
X176328999Y-89109023D02*
X174399965Y-87179989D01*
X181711600Y-87249000D02*
X181711600Y-87989224D01*
X181711600Y-87989224D02*
X180591801Y-89109023D01*
X162814000Y-89789000D02*
X163113999Y-89489001D01*
X163113999Y-89489001D02*
X163113999Y-89066999D01*
X163113999Y-89066999D02*
X163071000Y-89024000D01*
X162560000Y-93900000D02*
X162560000Y-92710000D01*
X162560000Y-92710000D02*
X162814000Y-92456000D01*
X166183600Y-87179989D02*
X165324976Y-88038613D01*
X181051200Y-87249000D02*
X181051200Y-88013213D01*
X176515399Y-88659012D02*
X174586365Y-86729978D01*
X165324976Y-88038613D02*
X164056387Y-88038613D01*
X162158998Y-89024000D02*
X160908998Y-89024000D01*
X163071000Y-89024000D02*
X162158998Y-89024000D01*
X180405401Y-88659012D02*
X176515399Y-88659012D01*
X181051200Y-88013213D02*
X180405401Y-88659012D01*
X174586365Y-86729978D02*
X168791200Y-86729978D01*
X164056387Y-88038613D02*
X163071000Y-89024000D01*
X168341189Y-87179989D02*
X166183600Y-87179989D01*
X168791200Y-86729978D02*
X168341189Y-87179989D01*
X158687000Y-92583000D02*
X158632990Y-92583000D01*
X159004000Y-92900000D02*
X158687000Y-92583000D01*
X159004000Y-93900000D02*
X159004000Y-92900000D01*
X158496000Y-89535000D02*
X158196001Y-89235001D01*
X158196001Y-89235001D02*
X158196001Y-89209669D01*
X158196001Y-89209669D02*
X158010332Y-89024000D01*
X168604800Y-86279967D02*
X168154789Y-86729978D01*
X164564388Y-87529202D02*
X159505130Y-87529202D01*
X158010332Y-89024000D02*
X156760332Y-89024000D01*
X174772765Y-86279967D02*
X168604800Y-86279967D01*
X159505130Y-87529202D02*
X158010332Y-89024000D01*
X180219001Y-88209001D02*
X176701799Y-88209001D01*
X180416200Y-87249000D02*
X180416200Y-88011802D01*
X180416200Y-88011802D02*
X180219001Y-88209001D01*
X168154789Y-86729978D02*
X165363612Y-86729978D01*
X176701799Y-88209001D02*
X174772765Y-86279967D01*
X165363612Y-86729978D02*
X164564388Y-87529202D01*
X158098984Y-92192002D02*
X155648738Y-92192002D01*
X175679824Y-91567000D02*
X175288826Y-91957998D01*
X158332988Y-91957998D02*
X158098984Y-92192002D01*
X162386998Y-91957998D02*
X158332988Y-91957998D01*
X163114002Y-91830998D02*
X162513998Y-91830998D01*
X162513998Y-91830998D02*
X162386998Y-91957998D01*
X163241002Y-91957998D02*
X163114002Y-91830998D01*
X170099002Y-91830998D02*
X169498998Y-91830998D01*
X169371998Y-91957998D02*
X163241002Y-91957998D01*
X175288826Y-91957998D02*
X170226002Y-91957998D01*
X180163003Y-91567000D02*
X175679824Y-91567000D01*
X169498998Y-91830998D02*
X169371998Y-91957998D01*
X180416200Y-92583000D02*
X180416200Y-91820197D01*
X180416200Y-91820197D02*
X180163003Y-91567000D01*
X170226002Y-91957998D02*
X170099002Y-91830998D01*
X155448000Y-93900000D02*
X155448000Y-92900000D01*
X155448000Y-92900000D02*
X155648738Y-92699262D01*
X155648738Y-92699262D02*
X155648738Y-92192002D01*
X155648738Y-92192002D02*
X154940000Y-91483264D01*
X154940000Y-91483264D02*
X154940000Y-91059000D01*
X154559000Y-89281000D02*
X152868666Y-89281000D01*
X152868666Y-89281000D02*
X152611666Y-89024000D01*
X175343412Y-91267001D02*
X156509999Y-91267001D01*
X181051200Y-91698000D02*
X180285200Y-90932000D01*
X156509999Y-91267001D02*
X156210000Y-91567000D01*
X181051200Y-92583000D02*
X181051200Y-91698000D01*
X175678413Y-90932000D02*
X175343412Y-91267001D01*
X180285200Y-90932000D02*
X175678413Y-90932000D01*
X147701000Y-92202000D02*
X147137999Y-91638999D01*
X147137999Y-91638999D02*
X147137999Y-89099001D01*
X147137999Y-89099001D02*
X147213000Y-89024000D01*
X147213000Y-89024000D02*
X148463000Y-89024000D01*
X151194000Y-92202000D02*
X147701000Y-92202000D01*
X151892000Y-93900000D02*
X151892000Y-92900000D01*
X151892000Y-92900000D02*
X151194000Y-92202000D01*
X150576001Y-88981001D02*
X150533002Y-89024000D01*
X150533002Y-89024000D02*
X148463000Y-89024000D01*
X151003000Y-89281000D02*
X150703001Y-88981001D01*
X150703001Y-88981001D02*
X150576001Y-88981001D01*
X129000000Y-80300000D02*
X131532000Y-80300000D01*
X131532000Y-80300000D02*
X132461000Y-79371000D01*
X132461000Y-79371000D02*
X132461000Y-78105000D01*
X132461000Y-78105000D02*
X135001000Y-78105000D01*
X102616000Y-92329000D02*
X102616000Y-95217778D01*
X103124000Y-95725778D02*
X103124000Y-95885000D01*
X102616000Y-95217778D02*
X103124000Y-95725778D01*
X130988000Y-100588000D02*
X131000000Y-100600000D01*
X130810000Y-100588000D02*
X130988000Y-100588000D01*
X127344996Y-99822000D02*
X124242820Y-96719824D01*
X110592541Y-96719824D02*
X110292542Y-97019823D01*
X128778000Y-99822000D02*
X127344996Y-99822000D01*
X124242820Y-96719824D02*
X110592541Y-96719824D01*
X159257998Y-98976264D02*
X159257998Y-98552000D01*
X159385000Y-103632000D02*
X159257998Y-103504998D01*
X159257998Y-103504998D02*
X159257998Y-98976264D01*
X165227000Y-103632000D02*
X159385000Y-103632000D01*
X165862000Y-80391000D02*
X165762000Y-80391000D01*
X165762000Y-80391000D02*
X159285000Y-86868000D01*
X159285000Y-86868000D02*
X159258000Y-86868000D01*
X169926000Y-98933000D02*
X165227000Y-103632000D01*
X182372000Y-92583000D02*
X182372000Y-94996000D01*
X182372000Y-94996000D02*
X182499000Y-95123000D01*
X130810000Y-103890000D02*
X130810000Y-100588000D01*
X130810000Y-100588000D02*
X130044000Y-99822000D01*
X130044000Y-99822000D02*
X128778000Y-99822000D01*
X128778000Y-107188000D02*
X128778000Y-105922000D01*
X128778000Y-105922000D02*
X130810000Y-103890000D01*
X103759000Y-96520000D02*
X105409998Y-96520000D01*
X103124000Y-95885000D02*
X103378000Y-96139000D01*
X103759000Y-96520000D02*
X103378000Y-96139000D01*
X103124000Y-95885000D02*
X103759000Y-96520000D01*
X101955600Y-93214000D02*
X101955600Y-92329000D01*
X102558011Y-95796200D02*
X101955600Y-95193789D01*
X101955600Y-95193789D02*
X101955600Y-93214000D01*
X103249589Y-96774000D02*
X102558011Y-96082422D01*
X102558011Y-96082422D02*
X102558011Y-95796200D01*
X161163000Y-104082011D02*
X166925999Y-104082011D01*
X172166001Y-98842009D02*
X172466000Y-98542010D01*
X166925999Y-104082011D02*
X172166001Y-98842009D01*
X103850556Y-97247966D02*
X106787276Y-97247966D01*
X106787276Y-97247966D02*
X107211540Y-97247966D01*
X103249589Y-96774000D02*
X103376590Y-96774000D01*
X103376590Y-96774000D02*
X103850556Y-97247966D01*
X162179000Y-86868000D02*
X165735000Y-83312000D01*
X165735000Y-83312000D02*
X165782000Y-83312000D01*
X161036000Y-102997000D02*
X161036000Y-99187000D01*
X161036000Y-99187000D02*
X161417000Y-98806000D01*
X161163000Y-104521000D02*
X161290000Y-104648000D01*
X161163000Y-104082011D02*
X161163000Y-104521000D01*
X181711600Y-92583000D02*
X181711600Y-94716600D01*
X181711600Y-94716600D02*
X181737000Y-94742000D01*
X127254000Y-103886000D02*
X127254000Y-108204000D01*
X127254000Y-108204000D02*
X128778000Y-109728000D01*
X128778000Y-102362000D02*
X127254000Y-103886000D01*
X126619000Y-101268998D02*
X127684998Y-101268998D01*
X127684998Y-101268998D02*
X128778000Y-102362000D01*
X110787264Y-97409000D02*
X122759002Y-97409000D01*
X122759002Y-97409000D02*
X126619000Y-101268998D01*
X109855000Y-97917000D02*
X110279264Y-97917000D01*
X110279264Y-97917000D02*
X110787264Y-97409000D01*
X103251000Y-96774000D02*
X103249589Y-96774000D01*
D33*
X96424152Y-64262000D02*
X94234000Y-64262000D01*
X123698000Y-59182000D02*
X123134989Y-58618989D01*
X96845989Y-63840163D02*
X96424152Y-64262000D01*
X96845989Y-60126011D02*
X96845989Y-63840163D01*
X115184163Y-58618989D02*
X114930163Y-58872989D01*
X123134989Y-58618989D02*
X115184163Y-58618989D01*
X98099011Y-58872989D02*
X96845989Y-60126011D01*
X114930163Y-58872989D02*
X98099011Y-58872989D01*
X125222000Y-61722000D02*
X129261602Y-61722000D01*
X123698000Y-60198000D02*
X125222000Y-61722000D01*
X123698000Y-59182000D02*
X123698000Y-60198000D01*
X122682000Y-59182000D02*
X123698000Y-59182000D01*
X129261602Y-61722000D02*
X130302000Y-60681602D01*
X130302000Y-60681602D02*
X130302000Y-59182000D01*
X122142000Y-64516000D02*
X143764000Y-64516000D01*
X118618000Y-64262000D02*
X121888000Y-64262000D01*
X121888000Y-64262000D02*
X122142000Y-64516000D01*
X143764000Y-64516000D02*
X145542000Y-62738000D01*
X145542000Y-62738000D02*
X145542000Y-59182000D01*
X114488004Y-126238000D02*
X133413285Y-126238000D01*
X108899990Y-120649986D02*
X114488004Y-126238000D01*
X108899990Y-119694990D02*
X108899990Y-120649986D01*
X107569000Y-118364000D02*
X108899990Y-119694990D01*
X106172000Y-118364000D02*
X107569000Y-118364000D01*
X135382000Y-124269285D02*
X135382000Y-123698000D01*
X133413285Y-126238000D02*
X135382000Y-124269285D01*
X122428000Y-118364000D02*
X122751990Y-118687990D01*
X122751990Y-118687990D02*
X125687990Y-118687990D01*
X125687990Y-118687990D02*
X128000000Y-121000000D01*
X144000000Y-121000000D02*
X145542000Y-122542000D01*
X128000000Y-121000000D02*
X144000000Y-121000000D01*
X145542000Y-122542000D02*
X145542000Y-123698000D01*
X179220998Y-64285998D02*
X179324000Y-64389000D01*
X157027998Y-64285998D02*
X179220998Y-64285998D01*
X154940000Y-62198000D02*
X157027998Y-64285998D01*
X154940000Y-59182000D02*
X154940000Y-62198000D01*
X165100000Y-61214000D02*
X165100000Y-59182000D01*
X174809010Y-59632990D02*
X173043990Y-61398010D01*
X189006838Y-59632990D02*
X174809010Y-59632990D01*
X173043990Y-61398010D02*
X165284010Y-61398010D01*
X191025011Y-61651163D02*
X189006838Y-59632990D01*
X191025011Y-62934679D02*
X191025011Y-61651163D01*
X165284010Y-61398010D02*
X165100000Y-61214000D01*
X195749332Y-64389000D02*
X192479332Y-64389000D01*
X192479332Y-64389000D02*
X191025011Y-62934679D01*
X178990855Y-119054938D02*
X156567062Y-119054938D01*
X156567062Y-119054938D02*
X154940000Y-120682000D01*
X154940000Y-120682000D02*
X154940000Y-123698000D01*
X194398942Y-119054938D02*
X195246853Y-119054938D01*
X165100000Y-123698000D02*
X165100000Y-125590020D01*
X165100000Y-125590020D02*
X165423990Y-125914010D01*
X165423990Y-125914010D02*
X191966990Y-125914010D01*
X192431767Y-121022113D02*
X194398942Y-119054938D01*
X191966990Y-125914010D02*
X192431767Y-125449233D01*
X192431767Y-125449233D02*
X192431767Y-121022113D01*
D32*
X168562000Y-80391000D02*
X168562000Y-83232000D01*
X168562000Y-83232000D02*
X168482000Y-83312000D01*
X168275000Y-74930000D02*
X167009000Y-74930000D01*
X167009000Y-74930000D02*
X165735000Y-74930000D01*
X168275000Y-74930000D02*
X168275000Y-80104000D01*
X168275000Y-80104000D02*
X168562000Y-80391000D01*
X130310000Y-85690000D02*
X129000000Y-85690000D01*
X129000000Y-85690000D02*
X110073468Y-85690000D01*
X129000000Y-83000000D02*
X129000000Y-85690000D01*
X134000000Y-82050000D02*
X133950000Y-82050000D01*
X109183468Y-84800000D02*
X101100000Y-84800000D01*
X133950000Y-82050000D02*
X130310000Y-85690000D01*
X110073468Y-85690000D02*
X109183468Y-84800000D01*
X94900000Y-84300000D02*
X91440000Y-87760000D01*
X91440000Y-87760000D02*
X91440000Y-89286000D01*
X91440000Y-89286000D02*
X91390000Y-89286000D01*
X91900000Y-68322311D02*
X92120999Y-68543310D01*
X91000000Y-67000000D02*
X91000000Y-67100000D01*
X91000000Y-67100000D02*
X91900000Y-68000000D01*
X92120999Y-68543310D02*
X92120999Y-71074001D01*
X92120999Y-71074001D02*
X91801854Y-71393146D01*
X91900000Y-68000000D02*
X91900000Y-68322311D01*
X90845400Y-71393146D02*
X90421136Y-71393146D01*
X91801854Y-71393146D02*
X90845400Y-71393146D01*
X89916000Y-77069000D02*
X89916000Y-73406000D01*
X89916000Y-73406000D02*
X90424000Y-72898000D01*
X90932000Y-78185000D02*
X90932000Y-78085000D01*
X90932000Y-78085000D02*
X89916000Y-77069000D01*
X95758000Y-82677000D02*
X92266000Y-79185000D01*
X90932000Y-78285000D02*
X90932000Y-78185000D01*
X92266000Y-79185000D02*
X91832000Y-79185000D01*
X91832000Y-79185000D02*
X90932000Y-78285000D01*
X95758000Y-87503000D02*
X95758000Y-82677000D01*
X97455800Y-89200800D02*
X95758000Y-87503000D01*
X98679000Y-89200800D02*
X97455800Y-89200800D01*
X99999800Y-86995000D02*
X99999800Y-87880000D01*
X99999800Y-87880000D02*
X98679000Y-89200800D01*
X91000000Y-66900000D02*
X91000000Y-67000000D01*
X91625002Y-67625002D02*
X91000000Y-67000000D01*
X98171000Y-62631000D02*
X99314000Y-61488000D01*
X97291998Y-65485998D02*
X98171000Y-64606996D01*
X98195721Y-66722000D02*
X97291998Y-65818277D01*
X99314000Y-61488000D02*
X99314000Y-61388000D01*
X99314000Y-66722000D02*
X98195721Y-66722000D01*
X97291998Y-65818277D02*
X97291998Y-65485998D01*
X98171000Y-64606996D02*
X98171000Y-62631000D01*
X98273999Y-74700001D02*
X98679000Y-74295000D01*
X98679000Y-74295000D02*
X98679000Y-73914000D01*
X98273999Y-77113001D02*
X98273999Y-74700001D01*
X96356999Y-78014001D02*
X97257999Y-77113001D01*
X97257999Y-77113001D02*
X98273999Y-77113001D01*
X96393000Y-87402202D02*
X96356999Y-87366201D01*
X96356999Y-87366201D02*
X96356999Y-78014001D01*
X98954400Y-88265000D02*
X97255798Y-88265000D01*
X97255798Y-88265000D02*
X96393000Y-87402202D01*
X99339400Y-86995000D02*
X99339400Y-87880000D01*
X99339400Y-87880000D02*
X98954400Y-88265000D01*
X100214000Y-66722000D02*
X99314000Y-66722000D01*
X100825002Y-67333002D02*
X100214000Y-66722000D01*
X100825002Y-68500002D02*
X100825002Y-67333002D01*
X100800000Y-68525004D02*
X100825002Y-68500002D01*
X100800000Y-72985002D02*
X100800000Y-68525004D01*
X81750000Y-61050000D02*
X75475002Y-61050000D01*
X75475002Y-61050000D02*
X74877002Y-60452000D01*
X74877002Y-60452000D02*
X72453500Y-60452000D01*
X72453500Y-60452000D02*
X72136000Y-60452000D01*
X71882000Y-77544000D02*
X71882000Y-77470000D01*
X71882000Y-76544000D02*
X69399989Y-74061989D01*
X71882000Y-77544000D02*
X71882000Y-76544000D01*
X69399989Y-74061989D02*
X69399989Y-62043600D01*
X70482000Y-78944000D02*
X71882000Y-77544000D01*
X70482000Y-80794000D02*
X70482000Y-78944000D01*
X71314500Y-60452000D02*
X72136000Y-60452000D01*
X70991589Y-60452000D02*
X71314500Y-60452000D01*
X69399989Y-62043600D02*
X70991589Y-60452000D01*
D33*
X94234000Y-66802000D02*
X94051989Y-66984011D01*
X94051989Y-66984011D02*
X94051989Y-71699989D01*
X94051989Y-71699989D02*
X94234000Y-71882000D01*
D32*
X83899999Y-69499999D02*
X83600000Y-69200000D01*
X87775013Y-70050011D02*
X84450011Y-70050011D01*
X89978003Y-72253001D02*
X87775013Y-70050011D01*
X84450011Y-70050011D02*
X83899999Y-69499999D01*
X90597001Y-72253001D02*
X89978003Y-72253001D01*
X90600002Y-72250000D02*
X90597001Y-72253001D01*
X94250000Y-72250000D02*
X90600002Y-72250000D01*
X73400000Y-61600000D02*
X73100001Y-61899999D01*
X73100001Y-61899999D02*
X73100001Y-62345499D01*
X73100001Y-62345499D02*
X72453500Y-62992000D01*
X72453500Y-62992000D02*
X72136000Y-62992000D01*
X72390000Y-62738000D02*
X72136000Y-62992000D01*
X94234000Y-71882000D02*
X95789634Y-71882000D01*
X95789634Y-71882000D02*
X98298000Y-71882000D01*
X73825002Y-67456988D02*
X73660000Y-67621990D01*
X74750000Y-61250000D02*
X74750000Y-66531990D01*
X74750000Y-66531990D02*
X73825002Y-67456988D01*
X85550000Y-61050000D02*
X84125001Y-59625001D01*
X86250000Y-61050000D02*
X85550000Y-61050000D01*
X84125001Y-59625001D02*
X80799999Y-59625001D01*
X80799999Y-59625001D02*
X80674998Y-59500000D01*
X75174264Y-59500000D02*
X74750000Y-59500000D01*
X80674998Y-59500000D02*
X75174264Y-59500000D01*
X73660000Y-73242000D02*
X73660000Y-68072000D01*
X76962000Y-76544000D02*
X73660000Y-73242000D01*
X73660000Y-68072000D02*
X73660000Y-67621990D01*
X73660000Y-67621990D02*
X72136000Y-68072000D01*
X76962000Y-77544000D02*
X76962000Y-77470000D01*
X76962000Y-77544000D02*
X76962000Y-76544000D01*
X75562000Y-78944000D02*
X76962000Y-77544000D01*
X75562000Y-80794000D02*
X75562000Y-78944000D01*
D33*
X102214458Y-70221764D02*
X102297440Y-70304746D01*
X102362000Y-66802000D02*
X102214458Y-66949542D01*
X102297440Y-70304746D02*
X102297440Y-70729010D01*
X102362000Y-71755000D02*
X102297440Y-71690440D01*
X102297440Y-71690440D02*
X102297440Y-71153274D01*
X102297440Y-71153274D02*
X102297440Y-70729010D01*
X102214458Y-66949542D02*
X102214458Y-70221764D01*
D32*
X105365340Y-71882000D02*
X106426000Y-71882000D01*
X102489000Y-71882000D02*
X105365340Y-71882000D01*
X102362000Y-71755000D02*
X102489000Y-71882000D01*
X72136000Y-65532000D02*
X73168000Y-65532000D01*
X73168000Y-65532000D02*
X73200000Y-65500000D01*
X72453500Y-65532000D02*
X72136000Y-65532000D01*
X107442000Y-66722000D02*
X108342000Y-66722000D01*
X108123434Y-73705566D02*
X107823435Y-73405567D01*
X108712000Y-76454000D02*
X108712000Y-74294132D01*
X108712000Y-74294132D02*
X108123434Y-73705566D01*
X108876332Y-67256332D02*
X108876332Y-71372081D01*
X108342000Y-66722000D02*
X108876332Y-67256332D01*
X108876332Y-71372081D02*
X108876332Y-71796345D01*
X106310000Y-63907774D02*
X106310000Y-63451000D01*
X107442000Y-66722000D02*
X107442000Y-65039774D01*
X107442000Y-65039774D02*
X106310000Y-63907774D01*
X106310000Y-63451000D02*
X105410000Y-62551000D01*
X105410000Y-62551000D02*
X105410000Y-62451000D01*
X98704400Y-85317189D02*
X98704400Y-86110000D01*
X100905600Y-83115989D02*
X98704400Y-85317189D01*
X107638011Y-83115989D02*
X100905600Y-83115989D01*
X98704400Y-86110000D02*
X98704400Y-86995000D01*
X109220000Y-81534000D02*
X107638011Y-83115989D01*
X109220000Y-79629000D02*
X109220000Y-81534000D01*
X107364000Y-66800000D02*
X107442000Y-66722000D01*
X116205000Y-71859201D02*
X114459789Y-70113990D01*
X116205000Y-74145998D02*
X116205000Y-71859201D01*
X117094000Y-78613000D02*
X117094000Y-75034998D01*
X114459789Y-70113990D02*
X114035525Y-70113990D01*
X117094000Y-75034998D02*
X116205000Y-74145998D01*
X112895785Y-67668215D02*
X112895785Y-68048516D01*
X115250000Y-66214000D02*
X114350000Y-66214000D01*
X114350000Y-66214000D02*
X112895785Y-67668215D01*
X98044000Y-85090000D02*
X98044000Y-86995000D01*
X98298000Y-84836000D02*
X98044000Y-85090000D01*
X108458000Y-83566000D02*
X101346000Y-83566000D01*
X101346000Y-83566000D02*
X99568000Y-85344000D01*
X109093000Y-82931000D02*
X108458000Y-83566000D01*
X115476002Y-82931000D02*
X109093000Y-82931000D01*
X117094000Y-80391000D02*
X116794001Y-80690999D01*
X116794001Y-80690999D02*
X116794001Y-81613001D01*
X116794001Y-81613001D02*
X115476002Y-82931000D01*
X116158000Y-63119000D02*
X116158000Y-66206000D01*
X116150000Y-66214000D02*
X115250000Y-66214000D01*
X116158000Y-66206000D02*
X116150000Y-66214000D01*
X115250000Y-66314000D02*
X115250000Y-66214000D01*
X115316000Y-66314000D02*
X115316000Y-66214000D01*
X78486000Y-68576000D02*
X78486000Y-68072000D01*
X79307500Y-69397500D02*
X78486000Y-68576000D01*
X79307500Y-72782496D02*
X79307500Y-69397500D01*
X80174999Y-73649995D02*
X79307500Y-72782496D01*
X80174999Y-73900001D02*
X80174999Y-73649995D01*
X80225002Y-73950004D02*
X80174999Y-73900001D01*
X80225002Y-74300002D02*
X80225002Y-73950004D01*
X82042000Y-76117000D02*
X80225002Y-74300002D01*
X82042000Y-77544000D02*
X82042000Y-76117000D01*
X81750000Y-65550000D02*
X81325500Y-65550000D01*
X81325500Y-65550000D02*
X78803500Y-68072000D01*
X80642000Y-80794000D02*
X80642000Y-78944000D01*
X80642000Y-78944000D02*
X82042000Y-77544000D01*
X82042000Y-77544000D02*
X81608000Y-77544000D01*
D33*
X110490000Y-66802000D02*
X110224498Y-67067502D01*
X110224498Y-71138714D02*
X110490000Y-71404216D01*
X110224498Y-67067502D02*
X110224498Y-71138714D01*
X110490000Y-71404216D02*
X110490000Y-71755000D01*
D32*
X107904001Y-60787001D02*
X108204000Y-61087000D01*
X104775000Y-60706000D02*
X107823000Y-60706000D01*
X107823000Y-60706000D02*
X107904001Y-60787001D01*
X100000000Y-57100000D02*
X103900000Y-57100000D01*
X103900000Y-57100000D02*
X104100000Y-57300000D01*
X99600000Y-56700000D02*
X100000000Y-57100000D01*
X82700000Y-56700000D02*
X99600000Y-56700000D01*
X81100000Y-58300000D02*
X82700000Y-56700000D01*
X81100000Y-59000000D02*
X81100000Y-58300000D01*
X78486000Y-65532000D02*
X78868000Y-65532000D01*
X78868000Y-65532000D02*
X80300000Y-64100000D01*
X110490000Y-71755000D02*
X114427000Y-71755000D01*
X114427000Y-71755000D02*
X114554000Y-71882000D01*
X89147010Y-76382694D02*
X89147010Y-76806958D01*
X89147010Y-72347010D02*
X89147010Y-76382694D01*
X88300000Y-71500000D02*
X89147010Y-72347010D01*
X82750000Y-62750000D02*
X85800000Y-65800000D01*
X85800000Y-65800000D02*
X86500000Y-65800000D01*
X87600000Y-66850000D02*
X86550000Y-65800000D01*
X86550000Y-65800000D02*
X86500000Y-65800000D01*
X87600000Y-66850000D02*
X87600000Y-68200000D01*
X87600000Y-68200000D02*
X88200000Y-68800000D01*
X78486000Y-60452000D02*
X79307500Y-60452000D01*
X82750000Y-60614998D02*
X82750000Y-62750000D01*
X79307500Y-60452000D02*
X79559489Y-60200011D01*
X79559489Y-60200011D02*
X82335013Y-60200011D01*
X82335013Y-60200011D02*
X82750000Y-60614998D01*
X85722000Y-80794000D02*
X85722000Y-78944000D01*
X85722000Y-78944000D02*
X87122000Y-77544000D01*
X78486000Y-60198000D02*
X78486000Y-60452000D01*
X117098000Y-66802000D02*
X116511012Y-67388988D01*
X113445164Y-68543991D02*
X113280875Y-68543991D01*
X114153599Y-67388988D02*
X113824988Y-67717599D01*
X116511012Y-67388988D02*
X114153599Y-67388988D01*
X113824988Y-67717599D02*
X113824988Y-68164167D01*
X113280875Y-68543991D02*
X112980876Y-68843990D01*
X113824988Y-68164167D02*
X113445164Y-68543991D01*
X118618000Y-66802000D02*
X117098000Y-66802000D01*
X105871998Y-68443002D02*
X106472002Y-68443002D01*
X106472002Y-68443002D02*
X106942605Y-67972399D01*
X106942605Y-67972399D02*
X106958759Y-67972399D01*
X106958759Y-67972399D02*
X107383023Y-67972399D01*
X105325984Y-67896988D02*
X105871998Y-68443002D01*
X104927276Y-67896988D02*
X105325984Y-67896988D01*
X104927276Y-67896988D02*
X104677838Y-67896988D01*
X104927276Y-67896988D02*
X104677832Y-67896988D01*
X104677832Y-67896988D02*
X104636000Y-67855156D01*
X104636000Y-67855156D02*
X104211736Y-67855156D01*
X104677838Y-67896988D02*
X104636004Y-67855154D01*
X104636004Y-67855154D02*
X104211740Y-67855154D01*
X100010187Y-56174991D02*
X100310186Y-56474990D01*
X99885187Y-56049991D02*
X100010187Y-56174991D01*
X82525745Y-56049991D02*
X99885187Y-56049991D01*
X80200000Y-58375736D02*
X82525745Y-56049991D01*
X80200000Y-58800000D02*
X80200000Y-58375736D01*
X79392000Y-62992000D02*
X79600000Y-63200000D01*
X78486000Y-62992000D02*
X79392000Y-62992000D01*
X78486000Y-62992000D02*
X78168500Y-62992000D01*
D33*
X118618000Y-66802000D02*
X118618000Y-71755000D01*
D32*
X118618000Y-71755000D02*
X123063000Y-71755000D01*
X123063000Y-71755000D02*
X123190000Y-71882000D01*
X179755800Y-87249000D02*
X179755800Y-86364000D01*
X179755800Y-86364000D02*
X179998747Y-86121053D01*
X179998747Y-86121053D02*
X180104624Y-86121053D01*
X179344052Y-83840052D02*
X179644051Y-84140051D01*
X177874991Y-82370991D02*
X179344052Y-83840052D01*
X177038000Y-76708000D02*
X177874991Y-77544991D01*
X175768000Y-67076000D02*
X177038000Y-68346000D01*
X175768000Y-66976000D02*
X175768000Y-67076000D01*
X177874991Y-77544991D02*
X177874991Y-82370991D01*
X177038000Y-68346000D02*
X177038000Y-76708000D01*
X173228000Y-66976000D02*
X175768000Y-66976000D01*
X179800000Y-87204800D02*
X179755800Y-87249000D01*
X176196000Y-66548000D02*
X175768000Y-66976000D01*
X178952998Y-85170998D02*
X178952998Y-85650683D01*
X180975000Y-78071998D02*
X180975000Y-83693000D01*
X178952998Y-85650683D02*
X179114878Y-85812563D01*
X179095400Y-86364000D02*
X179095400Y-87249000D01*
X179114878Y-85812563D02*
X179114878Y-86344522D01*
X183115002Y-77470000D02*
X181576998Y-77470000D01*
X179114878Y-86344522D02*
X179095400Y-86364000D01*
X183575001Y-77010001D02*
X183115002Y-77470000D01*
X183529998Y-75565000D02*
X183575001Y-75610003D01*
X181991000Y-75565000D02*
X183529998Y-75565000D01*
X182118000Y-73152000D02*
X181818001Y-73451999D01*
X179822002Y-84845998D02*
X179277998Y-84845998D01*
X180975000Y-83693000D02*
X179822002Y-84845998D01*
X181576998Y-77470000D02*
X180975000Y-78071998D01*
X183575001Y-75610003D02*
X183575001Y-77010001D01*
X181818001Y-75392001D02*
X181991000Y-75565000D01*
X181818001Y-73451999D02*
X181818001Y-75392001D01*
X179277998Y-84845998D02*
X178952998Y-85170998D01*
X182626000Y-68346000D02*
X182626000Y-71120000D01*
X182626000Y-71120000D02*
X181991000Y-71755000D01*
X183896000Y-67076000D02*
X182626000Y-68346000D01*
X183896000Y-66976000D02*
X183896000Y-65151000D01*
X183896000Y-65151000D02*
X183388000Y-64643000D01*
X183896000Y-66976000D02*
X183896000Y-67076000D01*
X70400000Y-105300000D02*
X71772000Y-105300000D01*
X71772000Y-105300000D02*
X71882000Y-105410000D01*
X69000000Y-111900000D02*
X69000000Y-111558502D01*
X71800000Y-114700000D02*
X69000000Y-111900000D01*
X69000000Y-111558502D02*
X69000000Y-105200000D01*
X74100000Y-117700000D02*
X74100000Y-117000000D01*
X74100000Y-117000000D02*
X71800000Y-114700000D01*
X70736000Y-101622000D02*
X70736000Y-100772000D01*
X70736000Y-100772000D02*
X72136000Y-99372000D01*
X72136000Y-99372000D02*
X72136000Y-98372000D01*
X70736000Y-101622000D02*
X70736000Y-104581500D01*
X70736000Y-104581500D02*
X71564500Y-105410000D01*
X71564500Y-105410000D02*
X71882000Y-105410000D01*
X184649594Y-72390000D02*
X184875991Y-72163603D01*
X183388000Y-72390000D02*
X184649594Y-72390000D01*
X184875991Y-72163603D02*
X185175990Y-71863604D01*
X183388000Y-72390000D02*
X179451000Y-72390000D01*
X179451000Y-72390000D02*
X179324000Y-72263000D01*
X221488000Y-68326000D02*
X221488000Y-69258264D01*
X221488000Y-69258264D02*
X221023264Y-69723000D01*
X221023264Y-69723000D02*
X220091000Y-69723000D01*
X220408500Y-69723000D02*
X220091000Y-69723000D01*
D33*
X179324000Y-66929000D02*
X179324000Y-72263000D01*
D32*
X95712001Y-113075999D02*
X95170000Y-113618000D01*
X95170000Y-113618000D02*
X91694000Y-113618000D01*
X96012000Y-111633000D02*
X95712001Y-111932999D01*
X95712001Y-111932999D02*
X95712001Y-113075999D01*
X96139000Y-94484000D02*
X96139000Y-109728000D01*
X96139000Y-109728000D02*
X95885000Y-109982000D01*
X97409000Y-92329000D02*
X97409000Y-93214000D01*
X97409000Y-93214000D02*
X96139000Y-94484000D01*
X93599000Y-119587000D02*
X92699000Y-119587000D01*
X92699000Y-119587000D02*
X91694000Y-118582000D01*
X91694000Y-118582000D02*
X91694000Y-114618000D01*
X91694000Y-114618000D02*
X91694000Y-113618000D01*
X93599000Y-119487000D02*
X93599000Y-119587000D01*
X101473000Y-115189000D02*
X102516000Y-115189000D01*
X102516000Y-115189000D02*
X103659000Y-114046000D01*
X103659000Y-114046000D02*
X103759000Y-114046000D01*
X100259001Y-116402999D02*
X101473000Y-115189000D01*
X99785999Y-116402999D02*
X100259001Y-116402999D01*
X98044000Y-101219000D02*
X99785999Y-102960999D01*
X99785999Y-102960999D02*
X99785999Y-116402999D01*
X99785999Y-116402999D02*
X102489000Y-119106000D01*
X102489000Y-119106000D02*
X102489000Y-119206000D01*
X98044000Y-92329000D02*
X98044000Y-101219000D01*
X117014000Y-106608000D02*
X117822000Y-105800000D01*
X117014000Y-114173000D02*
X117014000Y-106608000D01*
X117822000Y-105800000D02*
X117872000Y-105800000D01*
X190500000Y-72390000D02*
X187579000Y-72390000D01*
X187579000Y-72390000D02*
X187452000Y-72263000D01*
X219008949Y-70510455D02*
X218394496Y-69896002D01*
X219008949Y-71498449D02*
X219008949Y-70510455D01*
X218394496Y-69295998D02*
X218760672Y-68929822D01*
X218394496Y-69896002D02*
X218394496Y-69295998D01*
X219773500Y-72263000D02*
X219008949Y-71498449D01*
X220091000Y-72263000D02*
X219773500Y-72263000D01*
X218760672Y-68929822D02*
X218760672Y-68758928D01*
X190500000Y-72390000D02*
X193040000Y-72390000D01*
X220091000Y-72263000D02*
X220408500Y-72263000D01*
D33*
X187536666Y-66929000D02*
X187536666Y-72178334D01*
X187536666Y-72178334D02*
X187452000Y-72263000D01*
D32*
X80100000Y-112400000D02*
X79630000Y-112870000D01*
X79630000Y-112870000D02*
X79630000Y-113030000D01*
X80896000Y-101585000D02*
X80370952Y-101585000D01*
X80370952Y-101585000D02*
X79749543Y-102206409D01*
X78232000Y-113030000D02*
X79630000Y-113030000D01*
X79630000Y-113030000D02*
X84350000Y-117750000D01*
X84350000Y-117750000D02*
X84350000Y-117800000D01*
X80896000Y-101585000D02*
X80896000Y-100735000D01*
X80896000Y-100735000D02*
X82296000Y-99335000D01*
X82296000Y-99335000D02*
X82296000Y-98335000D01*
X94000000Y-112800000D02*
X94000000Y-110978000D01*
X94000000Y-110978000D02*
X94107000Y-110871000D01*
X71882000Y-107950000D02*
X70650750Y-107950000D01*
X70650750Y-107950000D02*
X70500080Y-107799330D01*
X94107000Y-110871000D02*
X95167660Y-110871000D01*
X95167660Y-110871000D02*
X97790000Y-110871000D01*
D33*
X97790000Y-115824000D02*
X97790000Y-110871000D01*
D32*
X89450000Y-117800000D02*
X89450000Y-110950000D01*
X89450000Y-110950000D02*
X86700000Y-108200000D01*
X86700000Y-108200000D02*
X86700000Y-108000000D01*
X83566000Y-105537002D02*
X83566000Y-104818264D01*
X81131999Y-106151001D02*
X82952001Y-106151001D01*
X78232000Y-105410000D02*
X80390998Y-105410000D01*
X82952001Y-106151001D02*
X83566000Y-105537002D01*
X80390998Y-105410000D02*
X81131999Y-106151001D01*
X83566000Y-104818264D02*
X83566000Y-104394000D01*
X77914500Y-105410000D02*
X78232000Y-105410000D01*
X86106000Y-103124000D02*
X86106000Y-101705000D01*
X86106000Y-101705000D02*
X85976000Y-101575000D01*
X85976000Y-101575000D02*
X85976000Y-100725000D01*
X85976000Y-100725000D02*
X87376000Y-99325000D01*
X87376000Y-99325000D02*
X87376000Y-98325000D01*
X102489000Y-111867002D02*
X102235000Y-112121002D01*
X102489000Y-110617000D02*
X102489000Y-111867002D01*
X74295000Y-110236000D02*
X75057000Y-110998000D01*
X72957500Y-110236000D02*
X74295000Y-110236000D01*
X72703500Y-110490000D02*
X72957500Y-110236000D01*
X71882000Y-110490000D02*
X72703500Y-110490000D01*
X102489000Y-110617000D02*
X106172000Y-110617000D01*
D33*
X106172000Y-115824000D02*
X106172000Y-110617000D01*
D32*
X98704400Y-93214000D02*
X98704400Y-92329000D01*
X98704400Y-93501632D02*
X98704400Y-93214000D01*
X107823000Y-111379000D02*
X107823000Y-102620232D01*
X109220000Y-112776000D02*
X107823000Y-111379000D01*
X107823000Y-102620232D02*
X98704400Y-93501632D01*
X111359000Y-114046000D02*
X110089000Y-112776000D01*
X110089000Y-112776000D02*
X109220000Y-112776000D01*
X111459000Y-114046000D02*
X111359000Y-114046000D01*
X109601000Y-115804000D02*
X109601000Y-117836000D01*
X109601000Y-117836000D02*
X111125000Y-119360000D01*
X111125000Y-119360000D02*
X111125000Y-119460000D01*
X111359000Y-114046000D02*
X109601000Y-115804000D01*
X116078000Y-115443000D02*
X118344000Y-115443000D01*
X118344000Y-115443000D02*
X119614000Y-114173000D01*
X119614000Y-114173000D02*
X119714000Y-114173000D01*
X115895010Y-115260010D02*
X116078000Y-115443000D01*
X115570000Y-111220846D02*
X115895010Y-111545856D01*
X115895010Y-111545856D02*
X115895010Y-115260010D01*
X111251998Y-102362000D02*
X114435847Y-102362000D01*
X114435847Y-102362000D02*
X115625009Y-103551162D01*
X115625009Y-103551162D02*
X115625009Y-111165837D01*
X115625009Y-111165837D02*
X115570000Y-111220846D01*
X110871000Y-101092000D02*
X110871000Y-101981002D01*
X110871000Y-101981002D02*
X111251998Y-102362000D01*
X108585000Y-98806000D02*
X110871000Y-101092000D01*
X104645179Y-98806000D02*
X108585000Y-98806000D01*
X99339400Y-93214000D02*
X102108001Y-95982601D01*
X102108002Y-96268823D02*
X104645179Y-98806000D01*
X102108001Y-95982601D02*
X102108002Y-96268823D01*
X99339400Y-92329000D02*
X99339400Y-93214000D01*
X120338000Y-115697000D02*
X120338000Y-118148000D01*
X120338000Y-118148000D02*
X119126000Y-119360000D01*
X119126000Y-119360000D02*
X119126000Y-119460000D01*
X119714000Y-114173000D02*
X119714000Y-115073000D01*
X119714000Y-115073000D02*
X120338000Y-115697000D01*
X118940000Y-119460000D02*
X119126000Y-119460000D01*
X188925009Y-79548837D02*
X183002843Y-85471003D01*
X188925009Y-78249989D02*
X188925009Y-79548837D01*
X192323999Y-73451999D02*
X192323999Y-77061003D01*
X189831998Y-77343000D02*
X188925009Y-78249989D01*
X192323999Y-77061003D02*
X192042002Y-77343000D01*
X192024000Y-73152000D02*
X192323999Y-73451999D01*
X183002843Y-85471003D02*
X180062569Y-85471003D01*
X192042002Y-77343000D02*
X189831998Y-77343000D01*
X180062569Y-85471003D02*
X179638305Y-85471003D01*
X178460400Y-86142041D02*
X178489877Y-86112564D01*
X178460400Y-87249000D02*
X178460400Y-86142041D01*
X190165998Y-71247000D02*
X191770000Y-71247000D01*
X191770000Y-71247000D02*
X192151000Y-71628000D01*
X190500000Y-67610998D02*
X189524999Y-68585999D01*
X189524999Y-70606001D02*
X190165998Y-71247000D01*
X190500000Y-66896000D02*
X190500000Y-67610998D01*
X189524999Y-68585999D02*
X189524999Y-70606001D01*
X192532000Y-66976000D02*
X190580000Y-66976000D01*
X190580000Y-66976000D02*
X190500000Y-66896000D01*
X178400000Y-87188600D02*
X178460400Y-87249000D01*
X192532000Y-66976000D02*
X192532000Y-67076000D01*
X192532000Y-66976000D02*
X192993000Y-66976000D01*
X177800000Y-87249000D02*
X177800000Y-85734990D01*
X177800000Y-86487000D02*
X177790010Y-86477010D01*
X177790010Y-86149264D02*
X177790010Y-85725000D01*
X177790010Y-86477010D02*
X177790010Y-86149264D01*
X177800000Y-85734990D02*
X177790010Y-85725000D01*
X197060736Y-85852000D02*
X185420000Y-85852000D01*
X185420000Y-85852000D02*
X183769000Y-87503000D01*
X198882000Y-84455000D02*
X198457736Y-84455000D01*
X198457736Y-84455000D02*
X197060736Y-85852000D01*
X202438000Y-72866846D02*
X202438000Y-81661000D01*
X202438000Y-81661000D02*
X200787000Y-83312000D01*
X201168000Y-71120000D02*
X202382991Y-72334991D01*
X202382991Y-72334991D02*
X202382991Y-72811837D01*
X202382991Y-72811837D02*
X202438000Y-72866846D01*
X200118998Y-71120000D02*
X201168000Y-71120000D01*
X199390000Y-68346000D02*
X199390000Y-70391002D01*
X199390000Y-70391002D02*
X200118998Y-71120000D01*
X200660000Y-67076000D02*
X199390000Y-68346000D01*
X200660000Y-66976000D02*
X200660000Y-66876000D01*
X201508001Y-63018001D02*
X200533000Y-62043000D01*
X200660000Y-66876000D02*
X201508001Y-66027999D01*
X201508001Y-66027999D02*
X201508001Y-63018001D01*
X200533000Y-62043000D02*
X200533000Y-61943000D01*
X200660000Y-66976000D02*
X200660000Y-67076000D01*
X191500000Y-74550000D02*
X190247000Y-74550000D01*
X190247000Y-74550000D02*
X189357000Y-73660000D01*
D33*
X114300000Y-115824000D02*
X114244989Y-115768989D01*
X114244989Y-115768989D02*
X114244989Y-110672011D01*
X114244989Y-110672011D02*
X114300000Y-110617000D01*
D32*
X110617000Y-110744000D02*
X109625010Y-111735990D01*
X109625010Y-111735990D02*
X109625010Y-112150990D01*
X76835000Y-110490000D02*
X78232000Y-110490000D01*
X76835000Y-112268000D02*
X76835000Y-110490000D01*
X110617000Y-110744000D02*
X114173000Y-110744000D01*
X114173000Y-110744000D02*
X114300000Y-110617000D01*
X197358000Y-73025000D02*
X199183000Y-74850000D01*
X199183000Y-74850000D02*
X199200000Y-74850000D01*
X200533000Y-64643000D02*
X200533000Y-64743000D01*
X197358000Y-67918000D02*
X197358000Y-71628000D01*
X200533000Y-64743000D02*
X197358000Y-67918000D01*
X117716479Y-111620999D02*
X117639010Y-111543530D01*
X117868001Y-111620999D02*
X117716479Y-111620999D01*
X118618000Y-110871000D02*
X117868001Y-111620999D01*
X76300000Y-111900000D02*
X76300000Y-109564500D01*
X76300000Y-109564500D02*
X77914500Y-107950000D01*
X77914500Y-107950000D02*
X78232000Y-107950000D01*
X75800000Y-112400000D02*
X76300000Y-111900000D01*
X78359000Y-108077000D02*
X78232000Y-107950000D01*
X118618000Y-110871000D02*
X118237000Y-110871000D01*
X118618000Y-110871000D02*
X122174000Y-110871000D01*
X122174000Y-110871000D02*
X122428000Y-110617000D01*
D33*
X122428000Y-115824000D02*
X122428000Y-110617000D01*
D32*
X223300000Y-64100000D02*
X223300000Y-72300000D01*
X221450000Y-62200000D02*
X221450000Y-62250000D01*
X221450000Y-62250000D02*
X223300000Y-64100000D01*
X227584000Y-75946000D02*
X227883999Y-75646001D01*
X227883999Y-75646001D02*
X227883999Y-75424499D01*
X227883999Y-75424499D02*
X227262500Y-74803000D01*
X224303703Y-78560000D02*
X224574010Y-78289693D01*
X223012000Y-78560000D02*
X224303703Y-78560000D01*
X221612000Y-81810000D02*
X221612000Y-80960000D01*
X223012000Y-79560000D02*
X223012000Y-78560000D01*
X221612000Y-80960000D02*
X223012000Y-79560000D01*
X227262500Y-74803000D02*
X226441000Y-74803000D01*
X227262500Y-72263000D02*
X227394234Y-72394734D01*
X227394234Y-72394734D02*
X227394234Y-72420650D01*
X226441000Y-72263000D02*
X227262500Y-72263000D01*
X200196660Y-72390000D02*
X199136000Y-72390000D01*
X195580000Y-72263000D02*
X199009000Y-72263000D01*
X199009000Y-72263000D02*
X199136000Y-72390000D01*
X195707000Y-72390000D02*
X195580000Y-72263000D01*
X200745348Y-71841312D02*
X200745348Y-71785039D01*
X200196660Y-72390000D02*
X200745348Y-71841312D01*
D33*
X195749332Y-66929000D02*
X195749332Y-72093668D01*
X195749332Y-72093668D02*
X195580000Y-72263000D01*
D32*
X226250000Y-62200000D02*
X226250000Y-66992000D01*
X226250000Y-66992000D02*
X226441000Y-67183000D01*
X225367011Y-75327011D02*
X225367011Y-74466487D01*
X228600000Y-78560000D02*
X228550000Y-78560000D01*
X225665498Y-74168000D02*
X227216502Y-74168000D01*
X227550000Y-77510000D02*
X225367011Y-75327011D01*
X228590002Y-72794500D02*
X228590002Y-69014502D01*
X228590002Y-69014502D02*
X226758500Y-67183000D01*
X227216502Y-74168000D02*
X228590002Y-72794500D01*
X226758500Y-67183000D02*
X226441000Y-67183000D01*
X227550000Y-77560000D02*
X227550000Y-77510000D01*
X225367011Y-74466487D02*
X225665498Y-74168000D01*
X228550000Y-78560000D02*
X227550000Y-77560000D01*
X227200000Y-81810000D02*
X227200000Y-80960000D01*
X227200000Y-80960000D02*
X228600000Y-79560000D01*
X228600000Y-79560000D02*
X228600000Y-78560000D01*
X224861046Y-70985454D02*
X224533556Y-70985454D01*
X226441000Y-69723000D02*
X226123500Y-69723000D01*
X226123500Y-69723000D02*
X224861046Y-70985454D01*
X208280000Y-72390000D02*
X209349087Y-71320913D01*
X209349087Y-71320913D02*
X209349087Y-71043806D01*
X208280000Y-72390000D02*
X203835000Y-72390000D01*
X203835000Y-72390000D02*
X203708000Y-72263000D01*
D33*
X203961998Y-66929000D02*
X203961998Y-72009002D01*
X203961998Y-72009002D02*
X203708000Y-72263000D01*
D32*
X180888999Y-104815153D02*
X180888999Y-111298677D01*
X180888999Y-111298677D02*
X183916949Y-114326627D01*
X178816846Y-102743000D02*
X180888999Y-104815153D01*
X176711800Y-102289800D02*
X177165000Y-102743000D01*
X177165000Y-92583000D02*
X177165000Y-93014800D01*
X177165000Y-93014800D02*
X176711800Y-93468000D01*
X177165000Y-102743000D02*
X178816846Y-102743000D01*
X183916949Y-114326627D02*
X183916949Y-114658685D01*
X183916949Y-114658685D02*
X183916949Y-115082949D01*
X176711800Y-93468000D02*
X176711800Y-102289800D01*
X182372000Y-118444000D02*
X182372000Y-118344000D01*
X184130000Y-116586000D02*
X184531000Y-116586000D01*
X182372000Y-118344000D02*
X184130000Y-116586000D01*
X184611000Y-122936000D02*
X184611000Y-119783000D01*
X184611000Y-119783000D02*
X183272000Y-118444000D01*
X183272000Y-118444000D02*
X182372000Y-118444000D01*
X182372000Y-118467793D02*
X182372000Y-118444000D01*
X182372000Y-118444000D02*
X182372000Y-118544000D01*
X182123212Y-97925034D02*
X177800000Y-93601822D01*
X177800000Y-93468000D02*
X177800000Y-92583000D01*
X188722000Y-103632000D02*
X183015034Y-97925034D01*
X188722000Y-111125000D02*
X188722000Y-103632000D01*
X190627000Y-113030000D02*
X188722000Y-111125000D01*
X183015034Y-97925034D02*
X182123212Y-97925034D01*
X177800000Y-93601822D02*
X177800000Y-93468000D01*
X191475001Y-114640001D02*
X191397550Y-114562550D01*
X191475001Y-117368999D02*
X191475001Y-114640001D01*
X190500000Y-118444000D02*
X190500000Y-118344000D01*
X190500000Y-118344000D02*
X191475001Y-117368999D01*
X191397550Y-114562550D02*
X191097551Y-114262551D01*
X190500000Y-118444000D02*
X190500000Y-120824000D01*
X190500000Y-118544000D02*
X190500000Y-118444000D01*
X196050452Y-125150989D02*
X195561194Y-124661731D01*
X213568001Y-125150989D02*
X196050452Y-125150989D01*
X213868000Y-124850990D02*
X213568001Y-125150989D01*
X195561194Y-124661731D02*
X195261195Y-124361732D01*
X184367991Y-115680467D02*
X184667990Y-115380468D01*
X183223456Y-116825002D02*
X184367991Y-115680467D01*
X182042002Y-116825002D02*
X183223456Y-116825002D01*
X181086066Y-117780938D02*
X182042002Y-116825002D01*
X180510855Y-117780938D02*
X181086066Y-117780938D01*
X179244855Y-116514938D02*
X180510855Y-117780938D01*
X178990855Y-116514938D02*
X179244855Y-116514938D01*
X215392000Y-120650000D02*
X216408000Y-120650000D01*
X216408000Y-120650000D02*
X216662000Y-120396000D01*
D33*
X178990855Y-116514938D02*
X178990855Y-111053941D01*
X178990855Y-111053941D02*
X178990852Y-111053938D01*
D32*
X175260000Y-110998000D02*
X178934914Y-110998000D01*
X178934914Y-110998000D02*
X178990852Y-111053938D01*
X194865372Y-125228961D02*
X194565373Y-124928962D01*
X195412410Y-125775999D02*
X194865372Y-125228961D01*
X216916000Y-125476000D02*
X216616001Y-125775999D01*
X216616001Y-125775999D02*
X195412410Y-125775999D01*
X188604990Y-117747441D02*
X188604990Y-118171705D01*
X188604990Y-117747074D02*
X188604990Y-117747441D01*
X187372854Y-116514938D02*
X188604990Y-117747074D01*
X187118854Y-116514938D02*
X187372854Y-116514938D01*
D33*
X187099998Y-111221792D02*
X187267852Y-111053938D01*
X187099998Y-116496082D02*
X187099998Y-111221792D01*
X187118854Y-116514938D02*
X187099998Y-116496082D01*
D32*
X218059000Y-118745000D02*
X217170000Y-117856000D01*
X217170000Y-117856000D02*
X216662000Y-117856000D01*
X183388000Y-110998000D02*
X187211914Y-110998000D01*
X187211914Y-110998000D02*
X187267852Y-111053938D01*
X197223408Y-111855018D02*
X197223408Y-112279282D01*
X196469000Y-107804847D02*
X196469000Y-110327740D01*
X197223408Y-111082148D02*
X197223408Y-111855018D01*
X196469000Y-110327740D02*
X197223408Y-111082148D01*
X196525010Y-107748837D02*
X196469000Y-107804847D01*
X178460400Y-93625811D02*
X182309612Y-97475023D01*
X178460400Y-92583000D02*
X178460400Y-93625811D01*
X195453000Y-101346000D02*
X195453000Y-102362000D01*
X182309612Y-97475023D02*
X191582023Y-97475023D01*
X196525010Y-103434010D02*
X196525010Y-107748837D01*
X195453000Y-102362000D02*
X196525010Y-103434010D01*
X191582023Y-97475023D02*
X195453000Y-101346000D01*
X198978452Y-113860711D02*
X198554188Y-113860711D01*
X200533000Y-115415259D02*
X198978452Y-113860711D01*
X198628000Y-118344000D02*
X200533000Y-116439000D01*
X198628000Y-118444000D02*
X198628000Y-118344000D01*
X200533000Y-116439000D02*
X200533000Y-115415259D01*
X198628000Y-118444000D02*
X198628000Y-119554000D01*
X198628000Y-119554000D02*
X200613000Y-121539000D01*
X198628000Y-118544000D02*
X198628000Y-118444000D01*
X198656000Y-118444000D02*
X198628000Y-118444000D01*
X182496012Y-97025012D02*
X179095400Y-93624400D01*
X179095400Y-93624400D02*
X179095400Y-92583000D01*
X205613000Y-102997000D02*
X199641012Y-97025012D01*
X199641012Y-97025012D02*
X182496012Y-97025012D01*
X205613000Y-109982000D02*
X205613000Y-102997000D01*
X205359000Y-115316000D02*
X205359000Y-110236000D01*
X205359000Y-110236000D02*
X205613000Y-109982000D01*
X206756000Y-118237000D02*
X205613000Y-117094000D01*
X206756000Y-118444000D02*
X206756000Y-118237000D01*
X206756000Y-118444000D02*
X206756000Y-120570000D01*
X206756000Y-120570000D02*
X206883000Y-120697000D01*
X206756000Y-118444000D02*
X206756000Y-118344000D01*
X206756000Y-118444000D02*
X206756000Y-118544000D01*
X195246853Y-116514938D02*
X195500853Y-116514938D01*
X195500853Y-116514938D02*
X197231000Y-118245085D01*
X197231000Y-118245085D02*
X197231000Y-119032002D01*
X197231000Y-119032002D02*
X198467998Y-120269000D01*
X198467998Y-120269000D02*
X198628002Y-120269000D01*
X198628002Y-120269000D02*
X199537999Y-121178997D01*
X199537999Y-123718999D02*
X200406000Y-124587000D01*
X210439000Y-124587000D02*
X210947000Y-124079000D01*
X199537999Y-121178997D02*
X199537999Y-123718999D01*
X200406000Y-124587000D02*
X210439000Y-124587000D01*
D33*
X195246853Y-116514938D02*
X195199998Y-116468083D01*
X195199998Y-116468083D02*
X195199998Y-111175292D01*
X195199998Y-111175292D02*
X195321352Y-111053938D01*
D32*
X191516000Y-110998000D02*
X195265414Y-110998000D01*
X195265414Y-110998000D02*
X195321352Y-111053938D01*
D33*
X203636011Y-116253779D02*
X203636011Y-111315097D01*
X203636011Y-111315097D02*
X203374852Y-111053938D01*
X203374852Y-116514938D02*
X203636011Y-116253779D01*
D32*
X208811910Y-120396000D02*
X208704117Y-120503793D01*
X210312000Y-120396000D02*
X208811910Y-120396000D01*
X199136000Y-110998000D02*
X203318914Y-110998000D01*
X203318914Y-110998000D02*
X203374852Y-111053938D01*
X72216000Y-74248000D02*
X73282000Y-75314000D01*
X71882000Y-74248000D02*
X72216000Y-74248000D01*
X71882000Y-74248000D02*
X70982000Y-74248000D01*
X69850000Y-73116000D02*
X69850000Y-62738000D01*
X70982000Y-74248000D02*
X69850000Y-73116000D01*
X73282000Y-75314000D02*
X73282000Y-80794000D01*
X70866000Y-61722000D02*
X72136000Y-61722000D01*
X69850000Y-62738000D02*
X70866000Y-61722000D01*
X76962000Y-74248000D02*
X77296000Y-74248000D01*
X75438000Y-73624000D02*
X75438000Y-71374000D01*
X76962000Y-74248000D02*
X76062000Y-74248000D01*
X76062000Y-74248000D02*
X75438000Y-73624000D01*
X78362000Y-75314000D02*
X78362000Y-80794000D01*
X77296000Y-74248000D02*
X78362000Y-75314000D01*
X72898000Y-69850000D02*
X71882000Y-68834000D01*
X75438000Y-71374000D02*
X74422000Y-70358000D01*
X71882000Y-68834000D02*
X71487498Y-68834000D01*
X70866000Y-68212502D02*
X70866000Y-67754500D01*
X71487498Y-68834000D02*
X70866000Y-68212502D01*
X71818500Y-66802000D02*
X72136000Y-66802000D01*
X70866000Y-67754500D02*
X71818500Y-66802000D01*
X80800000Y-73600000D02*
X81394000Y-73600000D01*
X81394000Y-73600000D02*
X82042000Y-74248000D01*
X78168500Y-66802000D02*
X77589499Y-67381001D01*
X77589499Y-67381001D02*
X77589499Y-68586001D01*
X78486000Y-66802000D02*
X78168500Y-66802000D01*
X77589499Y-68586001D02*
X78486000Y-69482502D01*
X78486000Y-69482502D02*
X78486000Y-73086000D01*
X78486000Y-73086000D02*
X79600000Y-74200000D01*
X82042000Y-74248000D02*
X82042000Y-74148000D01*
X82042000Y-74248000D02*
X82376000Y-74248000D01*
X83442000Y-75314000D02*
X83442000Y-80794000D01*
X82376000Y-74248000D02*
X83442000Y-75314000D01*
X88522000Y-76648000D02*
X88522000Y-79944000D01*
X88522000Y-79944000D02*
X88522000Y-80794000D01*
X87122000Y-74248000D02*
X87122000Y-75248000D01*
X87122000Y-75248000D02*
X88522000Y-76648000D01*
X78486000Y-61722000D02*
X78803500Y-61722000D01*
X78803500Y-61722000D02*
X79307500Y-62226000D01*
X79307500Y-62226000D02*
X79551004Y-62226000D01*
X79551004Y-62226000D02*
X81374993Y-64049989D01*
X81374993Y-64049989D02*
X82500000Y-64049989D01*
X82500000Y-64049989D02*
X82800000Y-64349989D01*
X82800000Y-64349989D02*
X82800000Y-70000000D01*
X82800000Y-70000000D02*
X86048000Y-73248000D01*
X86048000Y-73248000D02*
X86222000Y-73248000D01*
X87122000Y-74148000D02*
X87122000Y-74248000D01*
X86222000Y-73248000D02*
X87122000Y-74148000D01*
X74442000Y-103378000D02*
X74188000Y-103124000D01*
X74188000Y-103124000D02*
X73536000Y-102472000D01*
X73660000Y-103886000D02*
X73959999Y-103586001D01*
X73959999Y-103586001D02*
X73959999Y-103352001D01*
X73959999Y-103352001D02*
X74188000Y-103124000D01*
X71882000Y-106680000D02*
X72898000Y-106680000D01*
X72898000Y-106680000D02*
X73406000Y-106172000D01*
X79444000Y-103378000D02*
X74442000Y-103378000D01*
X73536000Y-102472000D02*
X73536000Y-101622000D01*
X82042000Y-105076000D02*
X81142000Y-105076000D01*
X81142000Y-105076000D02*
X79444000Y-103378000D01*
X77216000Y-102108000D02*
X78127000Y-102108000D01*
X78127000Y-102108000D02*
X78650000Y-101585000D01*
X71882000Y-111760000D02*
X72390000Y-111760000D01*
X72390000Y-111760000D02*
X73152000Y-110998000D01*
X82984000Y-102870000D02*
X79085000Y-102870000D01*
X79085000Y-102870000D02*
X78650000Y-102435000D01*
X78650000Y-102435000D02*
X78650000Y-101585000D01*
X85090000Y-105076000D02*
X85090000Y-104976000D01*
X85090000Y-104976000D02*
X82984000Y-102870000D01*
X86065001Y-109240999D02*
X86065001Y-106987268D01*
X83696000Y-101696998D02*
X83696000Y-101585000D01*
X86430584Y-106621685D02*
X86430584Y-104431582D01*
X82042000Y-113264000D02*
X86065001Y-109240999D01*
X86065001Y-106987268D02*
X86430584Y-106621685D01*
X86430584Y-104431582D02*
X83696000Y-101696998D01*
X82042000Y-113364000D02*
X82042000Y-113264000D01*
X82042000Y-113264000D02*
X80538000Y-111760000D01*
X80538000Y-111760000D02*
X79053500Y-111760000D01*
X79053500Y-111760000D02*
X78232000Y-111760000D01*
X88138000Y-105176000D02*
X87055594Y-106258406D01*
X83059413Y-106680000D02*
X83417730Y-106321683D01*
X88138000Y-105076000D02*
X88138000Y-105176000D01*
X78232000Y-106680000D02*
X83059413Y-106680000D01*
X87055594Y-106258406D02*
X87055594Y-106408642D01*
X83417730Y-106321683D02*
X85381318Y-106321683D01*
X85381318Y-106321683D02*
X85805582Y-106321683D01*
X88138000Y-105076000D02*
X88138000Y-102213000D01*
X88138000Y-102213000D02*
X88776000Y-101575000D01*
X213868000Y-71120000D02*
X213868000Y-73767000D01*
X213868000Y-73767000D02*
X212344000Y-75291000D01*
X212344000Y-75291000D02*
X212344000Y-75391000D01*
X215425002Y-71120000D02*
X213868000Y-71120000D01*
X216281000Y-69850000D02*
X215981001Y-70149999D01*
X215981001Y-70149999D02*
X215981001Y-70564001D01*
X215981001Y-70564001D02*
X215425002Y-71120000D01*
X219904001Y-69143999D02*
X219259499Y-69143999D01*
X220091000Y-68957000D02*
X219904001Y-69143999D01*
X219259499Y-69143999D02*
X219194499Y-69208999D01*
X219194499Y-69208999D02*
X219194499Y-69420999D01*
X220091000Y-68453000D02*
X220091000Y-68957000D01*
X219194499Y-69420999D02*
X219019498Y-69596000D01*
X209898998Y-83058000D02*
X211138000Y-83058000D01*
X211138000Y-83058000D02*
X212386000Y-81810000D01*
X212386000Y-81810000D02*
X213236000Y-81810000D01*
X210111000Y-80084000D02*
X209510999Y-80684001D01*
X209510999Y-80684001D02*
X209510999Y-82670001D01*
X209510999Y-82670001D02*
X209898998Y-83058000D01*
X210111000Y-77724000D02*
X210111000Y-80084000D01*
X212344000Y-75391000D02*
X212344000Y-75491000D01*
X212344000Y-75491000D02*
X210111000Y-77724000D01*
X214884000Y-66976000D02*
X214884000Y-67076000D01*
X214884000Y-67076000D02*
X216906001Y-69098001D01*
X216906001Y-73269001D02*
X217124001Y-73487001D01*
X216906001Y-69098001D02*
X216906001Y-73269001D01*
X217124001Y-73487001D02*
X217424000Y-73787000D01*
X221234957Y-75978977D02*
X221534956Y-75678978D01*
X218824000Y-78389934D02*
X221234957Y-75978977D01*
X218824000Y-81810000D02*
X218824000Y-78389934D01*
X219225817Y-73533000D02*
X218994251Y-73764566D01*
X220091000Y-73533000D02*
X219225817Y-73533000D01*
X224747033Y-76295648D02*
X224447034Y-75995649D01*
X225298000Y-80074000D02*
X225298000Y-76846615D01*
X225298000Y-76846615D02*
X224747033Y-76295648D01*
X224412000Y-80960000D02*
X225298000Y-80074000D01*
X224412000Y-81810000D02*
X224412000Y-80960000D01*
X213908999Y-65872001D02*
X213937997Y-65900999D01*
X213937997Y-65900999D02*
X216395999Y-65900999D01*
X212344000Y-66976000D02*
X212344000Y-66876000D01*
X212344000Y-66876000D02*
X213347999Y-65872001D01*
X217378001Y-66883001D02*
X217378001Y-72217001D01*
X216395999Y-65900999D02*
X217378001Y-66883001D01*
X217378001Y-72217001D02*
X217678000Y-72517000D01*
X213347999Y-65872001D02*
X213908999Y-65872001D01*
X226441000Y-73533000D02*
X225180990Y-73533000D01*
X226123500Y-68453000D02*
X226441000Y-68453000D01*
X223908555Y-70667945D02*
X226123500Y-68453000D01*
X223908555Y-71983551D02*
X223908555Y-70667945D01*
X223925002Y-71999998D02*
X223908555Y-71983551D01*
X224917000Y-75184000D02*
X223925002Y-74192002D01*
X223925002Y-74192002D02*
X223925002Y-71999998D01*
X222973990Y-76238010D02*
X222973990Y-76827739D01*
X222973990Y-76827739D02*
X222973990Y-77252003D01*
X224917000Y-75184000D02*
X224028000Y-75184000D01*
X224028000Y-75184000D02*
X222973990Y-76238010D01*
X224917000Y-75561167D02*
X224917000Y-75184000D01*
X226060000Y-76704167D02*
X224917000Y-75561167D01*
X230000000Y-81810000D02*
X229150000Y-81810000D01*
X229150000Y-81810000D02*
X228029000Y-82931000D01*
X228029000Y-82931000D02*
X226535998Y-82931000D01*
X226060000Y-82455002D02*
X226060000Y-76704167D01*
X226535998Y-82931000D02*
X226060000Y-82455002D01*
X214884000Y-75391000D02*
X216742000Y-75391000D01*
X216742000Y-75391000D02*
X217805000Y-76454000D01*
X224962999Y-113111001D02*
X224663000Y-113411000D01*
X224962999Y-110513997D02*
X224962999Y-113111001D01*
X223542002Y-109093000D02*
X224962999Y-110513997D01*
X218899998Y-108974998D02*
X219500002Y-108974998D01*
X219500002Y-108974998D02*
X219618004Y-109093000D01*
X218781996Y-109093000D02*
X218899998Y-108974998D01*
X213571996Y-108574998D02*
X214200002Y-108574998D01*
X219618004Y-109093000D02*
X223542002Y-109093000D01*
X213066999Y-108070001D02*
X213571996Y-108574998D01*
X214200002Y-108574998D02*
X214718004Y-109093000D01*
X214718004Y-109093000D02*
X218781996Y-109093000D01*
X221361000Y-118872000D02*
X221361000Y-118919000D01*
X221361000Y-118919000D02*
X220138000Y-120142000D01*
X212725000Y-107373000D02*
X213066999Y-107714999D01*
X213066999Y-107714999D02*
X213066999Y-108070001D01*
X213066999Y-108070001D02*
X212725000Y-107373000D01*
X211712000Y-107210000D02*
X212562000Y-107210000D01*
X212562000Y-107210000D02*
X212725000Y-107373000D01*
X220138000Y-120142000D02*
X220138000Y-121042000D01*
X220138000Y-121042000D02*
X219514000Y-121666000D01*
X219514000Y-121666000D02*
X217483500Y-121666000D01*
X217483500Y-121666000D02*
X216662000Y-121666000D01*
X220852998Y-115062000D02*
X220138000Y-115062000D01*
X221827999Y-114086999D02*
X220852998Y-115062000D01*
X225875009Y-113123995D02*
X224912005Y-114086999D01*
X222655588Y-108135001D02*
X223163576Y-108642989D01*
X218232002Y-108575002D02*
X218672003Y-108135001D01*
X224912005Y-114086999D02*
X221827999Y-114086999D01*
X225875009Y-110557599D02*
X225875009Y-113123995D01*
X223960400Y-108642989D02*
X225875009Y-110557599D01*
X217307002Y-108575002D02*
X218232002Y-108575002D01*
X216867001Y-108135001D02*
X217307002Y-108575002D01*
X218672003Y-108135001D02*
X222655588Y-108135001D01*
X223163576Y-108642989D02*
X223960400Y-108642989D01*
X216867001Y-108135001D02*
X216792000Y-107210000D01*
X216792000Y-107210000D02*
X216792000Y-108060000D01*
X216792000Y-108060000D02*
X216867001Y-108135001D01*
X220138000Y-115062000D02*
X219138000Y-115062000D01*
X219138000Y-115062000D02*
X217614000Y-116586000D01*
X217483500Y-116586000D02*
X216662000Y-116586000D01*
X217614000Y-116586000D02*
X217483500Y-116586000D01*
X220238000Y-117602000D02*
X220138000Y-117602000D01*
X221635000Y-116205000D02*
X220238000Y-117602000D01*
X224146800Y-108192978D02*
X226325020Y-110371199D01*
X226325020Y-110371199D02*
X226325020Y-114669980D01*
X221872000Y-107210000D02*
X222366998Y-107210000D01*
X223349976Y-108192978D02*
X224146800Y-108192978D01*
X222366998Y-107210000D02*
X223349976Y-108192978D01*
X226325020Y-114669980D02*
X224790000Y-116205000D01*
X224790000Y-116205000D02*
X221635000Y-116205000D01*
X211455000Y-116586000D02*
X210312000Y-116586000D01*
X220138000Y-117602000D02*
X218694000Y-117602000D01*
X210629500Y-116586000D02*
X210312000Y-116586000D01*
X210629500Y-121666000D02*
X210312000Y-121666000D01*
X212545500Y-123582000D02*
X210629500Y-121666000D01*
X219138000Y-123582000D02*
X212545500Y-123582000D01*
X220038000Y-122682000D02*
X219138000Y-123582000D01*
X220138000Y-122682000D02*
X220038000Y-122682000D01*
X226952000Y-107210000D02*
X226952000Y-118013002D01*
X226952000Y-118013002D02*
X223680002Y-121285000D01*
X223680002Y-121285000D02*
X221635000Y-121285000D01*
X221635000Y-121285000D02*
X220238000Y-122682000D01*
X220238000Y-122682000D02*
X220138000Y-122682000D01*
X93440000Y-90236000D02*
X95890000Y-90236000D01*
X95890000Y-90236000D02*
X96227000Y-90573000D01*
X92616000Y-94234000D02*
X92616000Y-94184000D01*
X99209000Y-90573000D02*
X99999800Y-91363800D01*
X92616000Y-94184000D02*
X96227000Y-90573000D01*
X96227000Y-90573000D02*
X99209000Y-90573000D01*
X99999800Y-91363800D02*
X99999800Y-92329000D01*
X93440000Y-90236000D02*
X93490000Y-90236000D01*
X92516000Y-94234000D02*
X92616000Y-94234000D01*
X97298000Y-74488000D02*
X91929000Y-74488000D01*
X91929000Y-74488000D02*
X91926000Y-74485000D01*
X91926000Y-74485000D02*
X91832000Y-74485000D01*
X91832000Y-74485000D02*
X90932000Y-75385000D01*
X90932000Y-75385000D02*
X90932000Y-75485000D01*
X96714999Y-70806999D02*
X95758000Y-69850000D01*
X98023044Y-65478956D02*
X98023044Y-65665424D01*
X99314000Y-64188000D02*
X98023044Y-65478956D01*
X99314000Y-64088000D02*
X99314000Y-64188000D01*
X100777000Y-74488000D02*
X99568000Y-73279000D01*
X96560342Y-66435887D02*
X96984606Y-66435887D01*
X99381999Y-70806999D02*
X96714999Y-70806999D01*
X99568000Y-70993000D02*
X99381999Y-70806999D01*
X101666588Y-74488000D02*
X100777000Y-74488000D01*
X99568000Y-73279000D02*
X99568000Y-70993000D01*
X95758000Y-69850000D02*
X95758000Y-67238229D01*
X95758000Y-67238229D02*
X96560342Y-66435887D01*
X105426000Y-74488000D02*
X101666588Y-74488000D01*
X101666588Y-74488000D02*
X102302998Y-74488000D01*
X105476000Y-74488000D02*
X105426000Y-74488000D01*
X103586001Y-69423001D02*
X103886000Y-69723000D01*
X107442000Y-69422000D02*
X106542000Y-69422000D01*
X103586001Y-69006999D02*
X103586001Y-69423001D01*
X103886000Y-68707000D02*
X103586001Y-69006999D01*
X105685598Y-68893013D02*
X105499586Y-68707001D01*
X106013013Y-68893013D02*
X105685598Y-68893013D01*
X105499586Y-68707001D02*
X103886000Y-68707000D01*
X106542000Y-69422000D02*
X106013013Y-68893013D01*
X107442000Y-69422000D02*
X107442000Y-69322000D01*
X108342000Y-68422000D02*
X108342000Y-68122677D01*
X108342000Y-68122677D02*
X108182987Y-67963664D01*
X107442000Y-69322000D02*
X108342000Y-68422000D01*
X110236000Y-61722000D02*
X107959990Y-63998010D01*
X107959990Y-63998010D02*
X107959990Y-64632760D01*
X110490000Y-61722000D02*
X110236000Y-61722000D01*
X89281000Y-69850000D02*
X88981001Y-69550001D01*
X88981001Y-69550001D02*
X86850001Y-69550001D01*
X86850001Y-69550001D02*
X83800000Y-66500000D01*
X83800000Y-66500000D02*
X83750000Y-66500000D01*
X113568920Y-65686917D02*
X113568920Y-66111181D01*
X114533001Y-64722836D02*
X113568920Y-65686917D01*
X114533001Y-61780409D02*
X114533001Y-64722836D01*
X114591410Y-61722000D02*
X114533001Y-61780409D01*
X118618000Y-61722000D02*
X114591410Y-61722000D01*
X115250000Y-68914000D02*
X115008363Y-68914000D01*
X115008363Y-68914000D02*
X114906023Y-69016340D01*
X114906023Y-69016340D02*
X114606024Y-69316339D01*
X105836999Y-67482999D02*
X106172000Y-67818000D01*
X105836999Y-67101999D02*
X105836999Y-67482999D01*
X104566999Y-67101999D02*
X105836999Y-67101999D01*
X104267000Y-66802000D02*
X104566999Y-67101999D01*
X88500000Y-66750000D02*
X88500000Y-66910000D01*
X88500000Y-66910000D02*
X89916000Y-68326000D01*
X115250000Y-68914000D02*
X115250000Y-69014000D01*
X118364000Y-61722000D02*
X118618000Y-61722000D01*
X91694000Y-110918000D02*
X91694000Y-110706000D01*
X91694000Y-110706000D02*
X94950000Y-107450000D01*
X94950000Y-107450000D02*
X95000000Y-107450000D01*
X100965000Y-113052000D02*
X100965000Y-110335000D01*
X100965000Y-110335000D02*
X103200000Y-108100000D01*
X103200000Y-108100000D02*
X103200000Y-107450000D01*
X101059000Y-114046000D02*
X101059000Y-113146000D01*
X101059000Y-113146000D02*
X100965000Y-113052000D01*
X189174990Y-63426688D02*
X189174990Y-67627846D01*
X189074990Y-63326688D02*
X189174990Y-63426688D01*
X189110963Y-67691873D02*
X189110963Y-68116137D01*
X189074990Y-62902424D02*
X189074990Y-63326688D01*
X189174990Y-67627846D02*
X189110963Y-67691873D01*
X185403648Y-62214058D02*
X184979384Y-62214058D01*
X185900000Y-62710410D02*
X185403648Y-62214058D01*
X185900000Y-68200000D02*
X185900000Y-62710410D01*
X171450000Y-66167000D02*
X171716001Y-65900999D01*
X171716001Y-65900999D02*
X177177001Y-65900999D01*
X177177001Y-65900999D02*
X177292000Y-65786000D01*
X171450000Y-67818000D02*
X171450000Y-66167000D01*
X171958000Y-68326000D02*
X171450000Y-67818000D01*
X174518000Y-68326000D02*
X171958000Y-68326000D01*
X175768000Y-69676000D02*
X175768000Y-69576000D01*
X175768000Y-69576000D02*
X174518000Y-68326000D01*
X198295521Y-59549989D02*
X194266113Y-59549989D01*
X198345532Y-59499978D02*
X198295521Y-59549989D01*
X207772800Y-59499978D02*
X198345532Y-59499978D01*
X208472821Y-60200000D02*
X207772800Y-59499978D01*
X192908050Y-60908052D02*
X192608051Y-61208051D01*
X212400000Y-60200000D02*
X208472821Y-60200000D01*
X194266113Y-59549989D02*
X192908050Y-60908052D01*
X79100000Y-117200000D02*
X74930000Y-113030000D01*
X74930000Y-113030000D02*
X71882000Y-113030000D01*
X79100000Y-117900000D02*
X79100000Y-117200000D01*
X75283504Y-111823500D02*
X73406000Y-111823500D01*
X75682002Y-111425002D02*
X75283504Y-111823500D01*
X73777002Y-106726002D02*
X73777002Y-108792998D01*
X74031002Y-106472002D02*
X73777002Y-106726002D01*
X74031002Y-105871998D02*
X74031002Y-106472002D01*
X72136000Y-103976996D02*
X74031002Y-105871998D01*
X73777002Y-108792998D02*
X75682002Y-110697998D01*
X75682002Y-110697998D02*
X75682002Y-111425002D01*
X72136000Y-101236998D02*
X72136000Y-103976996D01*
X72788998Y-100584000D02*
X72136000Y-101236998D01*
X75699000Y-100584000D02*
X72788998Y-100584000D01*
X75850000Y-100735000D02*
X75699000Y-100584000D01*
X73406000Y-111823500D02*
X72199500Y-113030000D01*
X72199500Y-113030000D02*
X71882000Y-113030000D01*
X75850000Y-101585000D02*
X75850000Y-100735000D01*
X75850000Y-100735000D02*
X77250000Y-99335000D01*
X77250000Y-99335000D02*
X77250000Y-98335000D01*
X108458000Y-109938736D02*
X108458000Y-107242000D01*
X108458000Y-107242000D02*
X109550000Y-106150000D01*
X109550000Y-106150000D02*
X109600000Y-106150000D01*
X108839000Y-110744000D02*
X108839000Y-110319736D01*
X108839000Y-110319736D02*
X108458000Y-109938736D01*
X108759000Y-114046000D02*
X108759000Y-113331000D01*
X108759000Y-113331000D02*
X107950000Y-112522000D01*
X185166000Y-69306000D02*
X185166000Y-62992000D01*
X183896000Y-69676000D02*
X184796000Y-69676000D01*
X184796000Y-69676000D02*
X185166000Y-69306000D01*
X183896000Y-69776000D02*
X183896000Y-69676000D01*
X217300000Y-60200000D02*
X215163589Y-60200000D01*
X214388588Y-60975001D02*
X208611412Y-60975001D01*
X208611412Y-60975001D02*
X207586400Y-59949989D01*
X198531932Y-59949989D02*
X198481921Y-60000000D01*
X215163589Y-60200000D02*
X214388588Y-60975001D01*
X194700000Y-60000000D02*
X193899999Y-60800001D01*
X198481921Y-60000000D02*
X194700000Y-60000000D01*
X193899999Y-60800001D02*
X193600000Y-61100000D01*
X207586400Y-59949989D02*
X198531932Y-59949989D01*
X189700000Y-64475736D02*
X189700000Y-62492025D01*
X189056666Y-61849000D02*
X187536666Y-61849000D01*
X189700000Y-62492025D02*
X189056975Y-61849000D01*
X189056975Y-61849000D02*
X189056666Y-61849000D01*
X189800000Y-65000000D02*
X189800000Y-64575736D01*
X189800000Y-64575736D02*
X189700000Y-64475736D01*
X187282666Y-61849000D02*
X187536666Y-61849000D01*
X218536952Y-67084652D02*
X218536952Y-67508916D01*
X215277302Y-63825002D02*
X218536952Y-67084652D01*
X211999998Y-63825002D02*
X215277302Y-63825002D01*
X211450000Y-63275004D02*
X211999998Y-63825002D01*
X211450000Y-62200000D02*
X211450000Y-63275004D01*
X221081551Y-66489713D02*
X221081551Y-66065449D01*
X221081551Y-66509949D02*
X221081551Y-66489713D01*
X220408500Y-67183000D02*
X221081551Y-66509949D01*
X220091000Y-67183000D02*
X220408500Y-67183000D01*
X218236953Y-67808915D02*
X218536952Y-67508916D01*
X217944485Y-68101383D02*
X218236953Y-67808915D01*
X217944485Y-70082402D02*
X217944485Y-68101383D01*
X218303002Y-70440919D02*
X217944485Y-70082402D01*
X218303002Y-74158000D02*
X218303002Y-70440919D01*
X218440000Y-74294998D02*
X218303002Y-74158000D01*
X216163998Y-77079002D02*
X218105002Y-77079002D01*
X218440000Y-76744004D02*
X218440000Y-74294998D01*
X218105002Y-77079002D02*
X218440000Y-76744004D01*
X214683000Y-78560000D02*
X216163998Y-77079002D01*
X211836000Y-78560000D02*
X214683000Y-78560000D01*
X210436000Y-81810000D02*
X210436000Y-80960000D01*
X210436000Y-80960000D02*
X211836000Y-79560000D01*
X211836000Y-79560000D02*
X211836000Y-78560000D01*
X216350000Y-62900000D02*
X216350000Y-62200000D01*
X216350000Y-63075004D02*
X216350000Y-62900000D01*
X216999998Y-63725002D02*
X216350000Y-63075004D01*
X222600000Y-66700000D02*
X219625002Y-63725002D01*
X219625002Y-63725002D02*
X216999998Y-63725002D01*
X222600000Y-74706000D02*
X222600000Y-66700000D01*
X220091000Y-74803000D02*
X222503000Y-74803000D01*
X222503000Y-74803000D02*
X222600000Y-74706000D01*
X220091000Y-75307000D02*
X220091000Y-74803000D01*
X220091000Y-75943000D02*
X220091000Y-75307000D01*
X217474000Y-78560000D02*
X220091000Y-75943000D01*
X217424000Y-78560000D02*
X217474000Y-78560000D01*
X216024000Y-81810000D02*
X216024000Y-80960000D01*
X216024000Y-80960000D02*
X217424000Y-79560000D01*
X217424000Y-79560000D02*
X217424000Y-78560000D01*
X136000000Y-83000000D02*
X136000000Y-84000000D01*
X136000000Y-84000000D02*
X135000000Y-85000000D01*
X135000000Y-85000000D02*
X135000000Y-89000000D01*
X146000000Y-89000000D02*
X146000000Y-95164000D01*
X146000000Y-95164000D02*
X147436000Y-96600000D01*
X147436000Y-96600000D02*
X148336000Y-96600000D01*
X180320292Y-94032492D02*
X180543790Y-94032492D01*
X179755800Y-92583000D02*
X179755800Y-93468000D01*
X179755800Y-93468000D02*
X180320292Y-94032492D01*
X148336000Y-96600000D02*
X149236000Y-96600000D01*
X150553000Y-97917000D02*
X173896002Y-97917000D01*
X149236000Y-96600000D02*
X150553000Y-97917000D01*
X173896002Y-97917000D02*
X175641000Y-96172002D01*
X175641000Y-96172002D02*
X175641000Y-94785264D01*
X175641000Y-94785264D02*
X175641000Y-94361000D01*
X179832000Y-92659200D02*
X179755800Y-92583000D01*
X176022000Y-116967000D02*
X173850000Y-114795000D01*
X173850000Y-114795000D02*
X173850000Y-108500000D01*
X181911000Y-122936000D02*
X178181443Y-122936000D01*
X178181443Y-122936000D02*
X176403000Y-121157557D01*
X176403000Y-121157557D02*
X176403000Y-120904000D01*
X183515000Y-112776000D02*
X182312999Y-111573999D01*
X182312999Y-111573999D02*
X182312999Y-109687001D01*
X182312999Y-109687001D02*
X182800000Y-109200000D01*
X182800000Y-109200000D02*
X182800000Y-108500000D01*
X185293000Y-112776000D02*
X183515000Y-112776000D01*
X185293000Y-120904000D02*
X185293000Y-112776000D01*
X189583998Y-122074002D02*
X188214000Y-123444000D01*
X188214000Y-123444000D02*
X186055000Y-123444000D01*
X190500000Y-122074002D02*
X189583998Y-122074002D01*
X190500000Y-123524000D02*
X190500000Y-122074002D01*
X211985002Y-110550000D02*
X212700000Y-111264998D01*
X212700000Y-111264998D02*
X212700000Y-111842704D01*
X209500000Y-110550000D02*
X211985002Y-110550000D01*
X212700000Y-111842704D02*
X212700000Y-112266968D01*
X214000000Y-119424264D02*
X214000000Y-120591500D01*
X214000000Y-120591500D02*
X216344500Y-122936000D01*
X216344500Y-122936000D02*
X216662000Y-122936000D01*
X212700000Y-117700000D02*
X212700000Y-118124264D01*
X212700000Y-118124264D02*
X214000000Y-119424264D01*
X209500000Y-110550000D02*
X209500000Y-107798000D01*
X209500000Y-107798000D02*
X208912000Y-107210000D01*
X208912000Y-107210000D02*
X208912000Y-106360000D01*
X208912000Y-106360000D02*
X210312000Y-104960000D01*
X210312000Y-104960000D02*
X210312000Y-103960000D01*
X214000000Y-110550000D02*
X214050000Y-110550000D01*
X214050000Y-110550000D02*
X214949981Y-111449981D01*
X214949981Y-111621374D02*
X214949981Y-112045638D01*
X214949981Y-111449981D02*
X214949981Y-111621374D01*
X214000000Y-110550000D02*
X214000000Y-109300000D01*
X214000000Y-109300000D02*
X213900000Y-109200000D01*
X213992000Y-107210000D02*
X213992000Y-106360000D01*
X213992000Y-106360000D02*
X215392000Y-104960000D01*
X215392000Y-104960000D02*
X215392000Y-103960000D01*
X190550000Y-108550000D02*
X190550000Y-108500000D01*
X189900000Y-109200000D02*
X190550000Y-108550000D01*
X189900000Y-110973002D02*
X189900000Y-109200000D01*
X191194998Y-112268000D02*
X189900000Y-110973002D01*
X192786000Y-112268000D02*
X191194998Y-112268000D01*
X191643000Y-119380000D02*
X193040000Y-117983000D01*
X193040000Y-112522000D02*
X192786000Y-112268000D01*
X193040000Y-117983000D02*
X193040000Y-112522000D01*
X197813000Y-121539000D02*
X195857185Y-123494815D01*
X197913000Y-121539000D02*
X197813000Y-121539000D01*
X195857185Y-123494815D02*
X194157556Y-123494815D01*
X206883000Y-123397000D02*
X201596000Y-123397000D01*
X201596000Y-123397000D02*
X201549000Y-123444000D01*
X197739000Y-111192002D02*
X197739000Y-110011000D01*
X197739000Y-110011000D02*
X198550000Y-109200000D01*
X198550000Y-109200000D02*
X198550000Y-108500000D01*
X201930000Y-112141000D02*
X198687998Y-112141000D01*
X198687998Y-112141000D02*
X197739000Y-111192002D01*
X202057000Y-112014000D02*
X201930000Y-112141000D01*
X202057000Y-114300000D02*
X202057000Y-112014000D01*
X201422000Y-114935000D02*
X202057000Y-114300000D01*
X201422000Y-120015000D02*
X201422000Y-114935000D01*
X212718780Y-114798010D02*
X212294516Y-114798010D01*
X214898010Y-114798010D02*
X212718780Y-114798010D01*
X215200000Y-115100000D02*
X214898010Y-114798010D01*
X218250000Y-110550000D02*
X218200000Y-110550000D01*
X218200000Y-110550000D02*
X217550000Y-111200000D01*
X217550000Y-111200000D02*
X217550000Y-111643165D01*
X216474758Y-112718407D02*
X216050494Y-112718407D01*
X217550000Y-111643165D02*
X216474758Y-112718407D01*
X218250000Y-110550000D02*
X219200000Y-109600000D01*
X219072000Y-107210000D02*
X218672000Y-107210000D01*
X219072000Y-107210000D02*
X219072000Y-106360000D01*
X219072000Y-106360000D02*
X220472000Y-104960000D01*
X220472000Y-104960000D02*
X220472000Y-103960000D01*
X224100000Y-124100000D02*
X212297500Y-124100000D01*
X212297500Y-124100000D02*
X211133500Y-122936000D01*
X211133500Y-122936000D02*
X210312000Y-122936000D01*
X227900000Y-120300000D02*
X224100000Y-124100000D01*
X227900000Y-111200000D02*
X227900000Y-120300000D01*
X227600000Y-110900000D02*
X227900000Y-111200000D01*
X222000000Y-110800000D02*
X224000000Y-110800000D01*
X224000000Y-110800000D02*
X224100000Y-110700000D01*
X222000000Y-110800000D02*
X222200000Y-110800000D01*
X222200000Y-110800000D02*
X223200000Y-109800000D01*
X210312000Y-122936000D02*
X209994500Y-122936000D01*
X224152000Y-107210000D02*
X224152000Y-106360000D01*
X224152000Y-106360000D02*
X225552000Y-104960000D01*
X225552000Y-104960000D02*
X225552000Y-103960000D01*
X89747495Y-66546241D02*
X89747495Y-66970505D01*
X88276253Y-65074999D02*
X89747495Y-66546241D01*
X84250000Y-62450000D02*
X86874999Y-65074999D01*
X86874999Y-65074999D02*
X88276253Y-65074999D01*
X86974999Y-61775001D02*
X88294000Y-60456000D01*
X88294000Y-60456000D02*
X92714000Y-60456000D01*
X92714000Y-60456000D02*
X93980000Y-61722000D01*
X93980000Y-61722000D02*
X94234000Y-61722000D01*
X85300000Y-62450000D02*
X85974999Y-61775001D01*
X85974999Y-61775001D02*
X86974999Y-61775001D01*
X83800000Y-62000000D02*
X84250000Y-62450000D01*
X84250000Y-62450000D02*
X85300000Y-62450000D01*
X83750000Y-62000000D02*
X83800000Y-62000000D01*
X99314000Y-69422000D02*
X98693977Y-69422000D01*
X98693977Y-69422000D02*
X97621264Y-68349287D01*
X100527307Y-65037419D02*
X100527307Y-65461683D01*
X102362000Y-61722000D02*
X102108000Y-61722000D01*
X100527307Y-63302693D02*
X100527307Y-65037419D01*
X102108000Y-61722000D02*
X100527307Y-63302693D01*
X88300000Y-62000000D02*
X92551979Y-66251979D01*
X92551979Y-66251979D02*
X92551979Y-67625024D01*
X88250000Y-62000000D02*
X88300000Y-62000000D01*
X92551979Y-67625024D02*
X92551979Y-68049288D01*
X99314000Y-69422000D02*
X99314000Y-69522000D01*
X105908685Y-66649685D02*
X106268334Y-66649685D01*
X105410000Y-66151000D02*
X105908685Y-66649685D01*
X105410000Y-65151000D02*
X105410000Y-66151000D01*
X106942001Y-70806999D02*
X105767106Y-70806999D01*
X110115002Y-73980000D02*
X106942001Y-70806999D01*
X113554000Y-73980000D02*
X110115002Y-73980000D01*
X105767106Y-70806999D02*
X105328097Y-70367990D01*
X105328097Y-70367990D02*
X105028098Y-70067991D01*
X113604000Y-73980000D02*
X113554000Y-73980000D01*
X121793000Y-67183000D02*
X124265001Y-69655001D01*
X124265001Y-69655001D02*
X124265001Y-73465001D01*
X124265001Y-73465001D02*
X123242002Y-74488000D01*
X123242002Y-74488000D02*
X122190000Y-74488000D01*
X115733000Y-59944000D02*
X120015000Y-59944000D01*
X120015000Y-59944000D02*
X122047000Y-61976000D01*
X113458000Y-63119000D02*
X113458000Y-62219000D01*
X113458000Y-62219000D02*
X115733000Y-59944000D01*
X80863887Y-118399989D02*
X81288151Y-118399989D01*
X76523999Y-118675001D02*
X79760001Y-118675001D01*
X75499000Y-119700000D02*
X76523999Y-118675001D01*
X73150000Y-119700000D02*
X75499000Y-119700000D01*
X79760001Y-118675001D02*
X80035013Y-118399989D01*
X80035013Y-118399989D02*
X80863887Y-118399989D01*
X94499000Y-117867000D02*
X95123000Y-118491000D01*
X95123000Y-118491000D02*
X97536000Y-120904000D01*
X93599000Y-116887000D02*
X93599000Y-116987000D01*
X93599000Y-116987000D02*
X95103000Y-118491000D01*
X95103000Y-118491000D02*
X95123000Y-118491000D01*
X97536000Y-120904000D02*
X97790000Y-120904000D01*
X102816011Y-122739989D02*
X92874991Y-122739989D01*
X106172000Y-120904000D02*
X104652000Y-120904000D01*
X104652000Y-120904000D02*
X102816011Y-122739989D01*
X92874991Y-122739989D02*
X89160001Y-119024999D01*
X89160001Y-119024999D02*
X89281000Y-119073727D01*
X78800000Y-119900000D02*
X78150000Y-119900000D01*
X80046414Y-119024999D02*
X79171413Y-119900000D01*
X89160001Y-119024999D02*
X80046414Y-119024999D01*
X79171413Y-119900000D02*
X78800000Y-119900000D01*
X104267000Y-118999000D02*
X103389000Y-118121000D01*
X104652000Y-119384000D02*
X104267000Y-118999000D01*
X106172000Y-120904000D02*
X105918000Y-120904000D01*
X105918000Y-120904000D02*
X104652000Y-119638000D01*
X104652000Y-119638000D02*
X104652000Y-119384000D01*
X103389000Y-118121000D02*
X103389000Y-117506000D01*
X103389000Y-117506000D02*
X102489000Y-116606000D01*
X102489000Y-116606000D02*
X102489000Y-116506000D01*
X105504000Y-120904000D02*
X106172000Y-120904000D01*
X107469052Y-123430948D02*
X107769051Y-123130949D01*
X106878989Y-124021011D02*
X107469052Y-123430948D01*
X91357422Y-124021011D02*
X106878989Y-124021011D01*
X83400000Y-119800000D02*
X87136411Y-119800000D01*
X87136411Y-119800000D02*
X91357422Y-124021011D01*
X111125000Y-116760000D02*
X111125000Y-117339474D01*
X114046000Y-120904000D02*
X114300000Y-120904000D01*
X111125000Y-117339474D02*
X112780000Y-118994474D01*
X112780000Y-118994474D02*
X112780000Y-119638000D01*
X112780000Y-119638000D02*
X114046000Y-120904000D01*
X119126000Y-116760000D02*
X118226000Y-116760000D01*
X118226000Y-116760000D02*
X117094000Y-117892000D01*
X117094000Y-117892000D02*
X117094000Y-120904000D01*
X114681000Y-123317000D02*
X117094000Y-120904000D01*
X117094000Y-120904000D02*
X122428000Y-120904000D01*
X107823000Y-122301000D02*
X109474000Y-123952000D01*
X109474000Y-123952000D02*
X109474000Y-124079000D01*
X107823000Y-122047000D02*
X107823000Y-122301000D01*
X106680000Y-123190000D02*
X107823000Y-122047000D01*
X92540000Y-123190000D02*
X106680000Y-123190000D01*
X89150000Y-119800000D02*
X92540000Y-123190000D01*
X88500000Y-119800000D02*
X89150000Y-119800000D01*
X173228000Y-69676000D02*
X173228000Y-73828000D01*
X173228000Y-73828000D02*
X174050000Y-74650000D01*
X174050000Y-74650000D02*
X174100000Y-74650000D01*
X181500739Y-63930261D02*
X181500739Y-70698547D01*
X183388000Y-61943000D02*
X183388000Y-62043000D01*
X181500739Y-70698547D02*
X181500739Y-71122811D01*
X183388000Y-62043000D02*
X181500739Y-63930261D01*
X192532000Y-69676000D02*
X192532000Y-69576000D01*
X192532000Y-69576000D02*
X193929000Y-68179000D01*
X193929000Y-68179000D02*
X193929000Y-66167000D01*
X215585002Y-61400000D02*
X213785002Y-63200000D01*
X219063590Y-61400000D02*
X215585002Y-61400000D01*
X213785002Y-63200000D02*
X212724264Y-63200000D01*
X222400000Y-60200000D02*
X220263590Y-60200000D01*
X212724264Y-63200000D02*
X212300000Y-63200000D01*
X220263590Y-60200000D02*
X219063590Y-61400000D01*
X207400000Y-60400000D02*
X198718332Y-60400000D01*
X198718332Y-60400000D02*
X197269332Y-61849000D01*
X197269332Y-61849000D02*
X195749332Y-61849000D01*
X209700000Y-62700000D02*
X207400000Y-60400000D01*
X200660000Y-69676000D02*
X200660000Y-69576000D01*
X202366988Y-67869012D02*
X202366988Y-63190010D01*
X202366988Y-63190010D02*
X203707998Y-61849000D01*
X200660000Y-69576000D02*
X202366988Y-67869012D01*
X203707998Y-61849000D02*
X203961998Y-61849000D01*
X210100000Y-63900000D02*
X206266998Y-63900000D01*
X206266998Y-63900000D02*
X204215998Y-61849000D01*
X204215998Y-61849000D02*
X203961998Y-61849000D01*
X219675001Y-61424999D02*
X219675001Y-62210001D01*
X219675001Y-62210001D02*
X218785002Y-63100000D01*
X218785002Y-63100000D02*
X217300000Y-63100000D01*
X226550000Y-60200000D02*
X225325001Y-61424999D01*
X227200000Y-60200000D02*
X226550000Y-60200000D01*
X225325001Y-61424999D02*
X219675001Y-61424999D01*
X201007726Y-112776000D02*
X201431990Y-112776000D01*
X200822737Y-112591011D02*
X201007726Y-112776000D01*
X198219523Y-112591011D02*
X200822737Y-112591011D01*
X197139514Y-113671020D02*
X198219523Y-112591011D01*
X196715250Y-113671020D02*
X197139514Y-113671020D01*
X191818947Y-113637549D02*
X191990726Y-113465770D01*
X190797549Y-113637549D02*
X191818947Y-113637549D01*
X191990726Y-113465770D02*
X192414990Y-113465770D01*
X189357000Y-114046000D02*
X190389098Y-114046000D01*
X190389098Y-114046000D02*
X190797549Y-113637549D01*
X182372000Y-115644000D02*
X182472988Y-115543012D01*
X181054315Y-116895254D02*
X182472988Y-115476581D01*
X211500000Y-111500000D02*
X207143000Y-111500000D01*
X207143000Y-111500000D02*
X206629000Y-112014000D01*
X178990855Y-121594938D02*
X179244855Y-121594938D01*
X211500000Y-111500000D02*
X211450000Y-111500000D01*
X179321062Y-121594938D02*
X178990855Y-121594938D01*
X207120203Y-113176207D02*
X207010147Y-113176207D01*
X207471998Y-113528002D02*
X207120203Y-113176207D01*
X216000000Y-111500000D02*
X216000000Y-111885002D01*
X208199002Y-113528002D02*
X207471998Y-113528002D01*
X210574200Y-112891978D02*
X210263176Y-113203002D01*
X208524002Y-113203002D02*
X208199002Y-113528002D01*
X213006976Y-112891978D02*
X210574200Y-112891978D01*
X213289999Y-113175001D02*
X213006976Y-112891978D01*
X214710001Y-113175001D02*
X213289999Y-113175001D01*
X210263176Y-113203002D02*
X208524002Y-113203002D01*
X207010147Y-113176207D02*
X206585883Y-113176207D01*
X216000000Y-111885002D02*
X214710001Y-113175001D01*
X198374000Y-113157000D02*
X200538524Y-113157000D01*
X201007726Y-113626202D02*
X201431990Y-113626202D01*
X200538524Y-113157000D02*
X201007726Y-113626202D01*
X196977000Y-114554000D02*
X198374000Y-113157000D01*
X189230000Y-117114000D02*
X189230000Y-119737792D01*
X187372854Y-121594938D02*
X187118854Y-121594938D01*
X189230000Y-119737792D02*
X187372854Y-121594938D01*
X190500000Y-115744000D02*
X190500000Y-115844000D01*
X190500000Y-115844000D02*
X189230000Y-117114000D01*
X190500000Y-115744000D02*
X190318990Y-115744000D01*
X190318990Y-115744000D02*
X190199999Y-115625009D01*
X187118854Y-121594938D02*
X187449062Y-121594938D01*
X186864854Y-121594938D02*
X187118854Y-121594938D01*
X220250000Y-111500000D02*
X220200000Y-111500000D01*
X219550000Y-112585002D02*
X218412013Y-113722989D01*
X219550000Y-112150000D02*
X219550000Y-112585002D01*
X208144416Y-114218999D02*
X207182999Y-114218999D01*
X220200000Y-111500000D02*
X219550000Y-112150000D01*
X218412013Y-113722989D02*
X208640426Y-113722989D01*
X208640426Y-113722989D02*
X208144416Y-114218999D01*
X207182999Y-114218999D02*
X206883000Y-113919000D01*
X198628000Y-115744000D02*
X198628000Y-115824000D01*
X198628000Y-115824000D02*
X197231000Y-117221000D01*
X198628000Y-115744000D02*
X198628000Y-116078000D01*
X195500853Y-121594938D02*
X195246853Y-121594938D01*
X203628852Y-121594938D02*
X203374852Y-121594938D01*
X204987998Y-120235792D02*
X203628852Y-121594938D01*
X204987998Y-116612002D02*
X204987998Y-120235792D01*
X206756000Y-115744000D02*
X205856000Y-115744000D01*
X205856000Y-115744000D02*
X204987998Y-116612002D01*
X218598413Y-114173000D02*
X209227000Y-114173000D01*
X209227000Y-114173000D02*
X207656000Y-115744000D01*
X207656000Y-115744000D02*
X206756000Y-115744000D01*
X222862000Y-113538000D02*
X219233413Y-113538000D01*
X219233413Y-113538000D02*
X218598413Y-114173000D01*
X224000000Y-111750000D02*
X224000000Y-112400000D01*
X224000000Y-112400000D02*
X222862000Y-113538000D01*
X203705062Y-121594938D02*
X203374852Y-121594938D01*
D34*
G36*
X171873000Y-59763010D02*
X171599778Y-59763010D01*
X171678600Y-59366745D01*
X171678600Y-58997255D01*
X171564526Y-58423766D01*
X171239670Y-57937585D01*
X170753489Y-57612729D01*
X170180000Y-57498655D01*
X169606511Y-57612729D01*
X169120330Y-57937585D01*
X168913539Y-58247069D01*
X168542036Y-57831268D01*
X168014791Y-57577291D01*
X167999026Y-57574642D01*
X167767000Y-57695783D01*
X167767000Y-59055000D01*
X167787000Y-59055000D01*
X167787000Y-59309000D01*
X167767000Y-59309000D01*
X167767000Y-59329000D01*
X167513000Y-59329000D01*
X167513000Y-59309000D01*
X167493000Y-59309000D01*
X167493000Y-59055000D01*
X167513000Y-59055000D01*
X167513000Y-57695783D01*
X167280974Y-57574642D01*
X167265209Y-57577291D01*
X166737964Y-57831268D01*
X166387889Y-58223086D01*
X166256120Y-58025880D01*
X166188459Y-57980670D01*
X166159670Y-57937585D01*
X165673489Y-57612729D01*
X165100000Y-57498655D01*
X164526511Y-57612729D01*
X164040330Y-57937585D01*
X164011541Y-57980670D01*
X163943880Y-58025880D01*
X163812111Y-58223086D01*
X163462036Y-57831268D01*
X162934791Y-57577291D01*
X162919026Y-57574642D01*
X162687000Y-57695783D01*
X162687000Y-59055000D01*
X162707000Y-59055000D01*
X162707000Y-59309000D01*
X162687000Y-59309000D01*
X162687000Y-60668217D01*
X162919026Y-60789358D01*
X162934791Y-60786709D01*
X163462036Y-60532732D01*
X163465000Y-60529415D01*
X163465000Y-61213995D01*
X163464999Y-61214000D01*
X163589457Y-61839688D01*
X163611715Y-61873000D01*
X157000000Y-61873000D01*
X156950590Y-61883006D01*
X156942663Y-61888423D01*
X156575000Y-61520760D01*
X156575000Y-60529415D01*
X156577964Y-60532732D01*
X157105209Y-60786709D01*
X157120974Y-60789358D01*
X157353000Y-60668217D01*
X157353000Y-59309000D01*
X157333000Y-59309000D01*
X157333000Y-59055000D01*
X157353000Y-59055000D01*
X157353000Y-57695783D01*
X157607000Y-57695783D01*
X157607000Y-59055000D01*
X157627000Y-59055000D01*
X157627000Y-59309000D01*
X157607000Y-59309000D01*
X157607000Y-60668217D01*
X157839026Y-60789358D01*
X157854791Y-60786709D01*
X158382036Y-60532732D01*
X158753539Y-60116931D01*
X158960330Y-60426415D01*
X159446511Y-60751271D01*
X160020000Y-60865345D01*
X160593489Y-60751271D01*
X161079670Y-60426415D01*
X161286461Y-60116931D01*
X161657964Y-60532732D01*
X162185209Y-60786709D01*
X162200974Y-60789358D01*
X162433000Y-60668217D01*
X162433000Y-59309000D01*
X162413000Y-59309000D01*
X162413000Y-59055000D01*
X162433000Y-59055000D01*
X162433000Y-57695783D01*
X162200974Y-57574642D01*
X162185209Y-57577291D01*
X161657964Y-57831268D01*
X161286461Y-58247069D01*
X161079670Y-57937585D01*
X160593489Y-57612729D01*
X160020000Y-57498655D01*
X159446511Y-57612729D01*
X158960330Y-57937585D01*
X158753539Y-58247069D01*
X158382036Y-57831268D01*
X157854791Y-57577291D01*
X157839026Y-57574642D01*
X157607000Y-57695783D01*
X157353000Y-57695783D01*
X157120974Y-57574642D01*
X157105209Y-57577291D01*
X156577964Y-57831268D01*
X156227889Y-58223086D01*
X156096120Y-58025880D01*
X156028459Y-57980670D01*
X155999670Y-57937585D01*
X155513489Y-57612729D01*
X154940000Y-57498655D01*
X154366511Y-57612729D01*
X153880330Y-57937585D01*
X153865500Y-57959780D01*
X153801927Y-57806301D01*
X153623298Y-57627673D01*
X153389909Y-57531000D01*
X152685750Y-57531000D01*
X152527000Y-57689750D01*
X152527000Y-59055000D01*
X152547000Y-59055000D01*
X152547000Y-59309000D01*
X152527000Y-59309000D01*
X152527000Y-60674250D01*
X152685750Y-60833000D01*
X153305000Y-60833000D01*
X153305000Y-62197995D01*
X153304999Y-62198000D01*
X153429457Y-62823688D01*
X153783880Y-63354120D01*
X155871878Y-65442118D01*
X156402310Y-65796541D01*
X156873000Y-65890168D01*
X156873000Y-83873000D01*
X154773966Y-83873000D01*
X154951416Y-83575022D01*
X153256000Y-81879605D01*
X151560584Y-83575022D01*
X151738034Y-83873000D01*
X149563966Y-83873000D01*
X149741416Y-83575022D01*
X148046000Y-81879605D01*
X146350584Y-83575022D01*
X146571353Y-83945743D01*
X146832314Y-84051393D01*
X144886408Y-87943204D01*
X144873000Y-88000000D01*
X144873000Y-95938961D01*
X139920664Y-99900830D01*
X139888331Y-99939509D01*
X139873000Y-100000000D01*
X139873000Y-101873000D01*
X132127000Y-101873000D01*
X132127000Y-98063500D01*
X136076200Y-95101600D01*
X136109725Y-95063949D01*
X136127000Y-95000000D01*
X136127000Y-86067968D01*
X139070447Y-84105670D01*
X139106008Y-84069937D01*
X139127000Y-84000000D01*
X139127000Y-83575022D01*
X141140584Y-83575022D01*
X141361353Y-83945743D01*
X142333012Y-84339119D01*
X143381247Y-84330713D01*
X144310647Y-83945743D01*
X144531416Y-83575022D01*
X142836000Y-81879605D01*
X141140584Y-83575022D01*
X139127000Y-83575022D01*
X139127000Y-81197012D01*
X140196881Y-81197012D01*
X140205287Y-82245247D01*
X140590257Y-83174647D01*
X140960978Y-83395416D01*
X142656395Y-81700000D01*
X143015605Y-81700000D01*
X144711022Y-83395416D01*
X145081743Y-83174647D01*
X145436893Y-82297408D01*
X145800257Y-83174647D01*
X146170978Y-83395416D01*
X147866395Y-81700000D01*
X148225605Y-81700000D01*
X149921022Y-83395416D01*
X150291743Y-83174647D01*
X150646893Y-82297408D01*
X151010257Y-83174647D01*
X151380978Y-83395416D01*
X153076395Y-81700000D01*
X153435605Y-81700000D01*
X155131022Y-83395416D01*
X155501743Y-83174647D01*
X155895119Y-82202988D01*
X155886713Y-81154753D01*
X155501743Y-80225353D01*
X155131022Y-80004584D01*
X153435605Y-81700000D01*
X153076395Y-81700000D01*
X151380978Y-80004584D01*
X151010257Y-80225353D01*
X150655107Y-81102592D01*
X150291743Y-80225353D01*
X149921022Y-80004584D01*
X148225605Y-81700000D01*
X147866395Y-81700000D01*
X146170978Y-80004584D01*
X145800257Y-80225353D01*
X145445107Y-81102592D01*
X145081743Y-80225353D01*
X144711022Y-80004584D01*
X143015605Y-81700000D01*
X142656395Y-81700000D01*
X140960978Y-80004584D01*
X140590257Y-80225353D01*
X140196881Y-81197012D01*
X139127000Y-81197012D01*
X139127000Y-79824978D01*
X141140584Y-79824978D01*
X142836000Y-81520395D01*
X144531416Y-79824978D01*
X146350584Y-79824978D01*
X148046000Y-81520395D01*
X149741416Y-79824978D01*
X151560584Y-79824978D01*
X153256000Y-81520395D01*
X154951416Y-79824978D01*
X154730647Y-79454257D01*
X153758988Y-79060881D01*
X152710753Y-79069287D01*
X151781353Y-79454257D01*
X151560584Y-79824978D01*
X149741416Y-79824978D01*
X149520647Y-79454257D01*
X148548988Y-79060881D01*
X147500753Y-79069287D01*
X146571353Y-79454257D01*
X146350584Y-79824978D01*
X144531416Y-79824978D01*
X144310647Y-79454257D01*
X143338988Y-79060881D01*
X142290753Y-79069287D01*
X141361353Y-79454257D01*
X141140584Y-79824978D01*
X139127000Y-79824978D01*
X139127000Y-72775022D01*
X141140584Y-72775022D01*
X141361353Y-73145743D01*
X142333012Y-73539119D01*
X143381247Y-73530713D01*
X144310647Y-73145743D01*
X144531416Y-72775022D01*
X146350584Y-72775022D01*
X146571353Y-73145743D01*
X147543012Y-73539119D01*
X148591247Y-73530713D01*
X149520647Y-73145743D01*
X149741416Y-72775022D01*
X151560584Y-72775022D01*
X151781353Y-73145743D01*
X152753012Y-73539119D01*
X153801247Y-73530713D01*
X154730647Y-73145743D01*
X154951416Y-72775022D01*
X153256000Y-71079605D01*
X151560584Y-72775022D01*
X149741416Y-72775022D01*
X148046000Y-71079605D01*
X146350584Y-72775022D01*
X144531416Y-72775022D01*
X142836000Y-71079605D01*
X141140584Y-72775022D01*
X139127000Y-72775022D01*
X139127000Y-70397012D01*
X140196881Y-70397012D01*
X140205287Y-71445247D01*
X140590257Y-72374647D01*
X140960978Y-72595416D01*
X142656395Y-70900000D01*
X143015605Y-70900000D01*
X144711022Y-72595416D01*
X145081743Y-72374647D01*
X145436893Y-71497408D01*
X145800257Y-72374647D01*
X146170978Y-72595416D01*
X147866395Y-70900000D01*
X148225605Y-70900000D01*
X149921022Y-72595416D01*
X150291743Y-72374647D01*
X150646893Y-71497408D01*
X151010257Y-72374647D01*
X151380978Y-72595416D01*
X153076395Y-70900000D01*
X153435605Y-70900000D01*
X155131022Y-72595416D01*
X155501743Y-72374647D01*
X155895119Y-71402988D01*
X155886713Y-70354753D01*
X155501743Y-69425353D01*
X155131022Y-69204584D01*
X153435605Y-70900000D01*
X153076395Y-70900000D01*
X151380978Y-69204584D01*
X151010257Y-69425353D01*
X150655107Y-70302592D01*
X150291743Y-69425353D01*
X149921022Y-69204584D01*
X148225605Y-70900000D01*
X147866395Y-70900000D01*
X146170978Y-69204584D01*
X145800257Y-69425353D01*
X145445107Y-70302592D01*
X145081743Y-69425353D01*
X144711022Y-69204584D01*
X143015605Y-70900000D01*
X142656395Y-70900000D01*
X140960978Y-69204584D01*
X140590257Y-69425353D01*
X140196881Y-70397012D01*
X139127000Y-70397012D01*
X139127000Y-69024978D01*
X141140584Y-69024978D01*
X142836000Y-70720395D01*
X144531416Y-69024978D01*
X146350584Y-69024978D01*
X148046000Y-70720395D01*
X149741416Y-69024978D01*
X151560584Y-69024978D01*
X153256000Y-70720395D01*
X154951416Y-69024978D01*
X154730647Y-68654257D01*
X153758988Y-68260881D01*
X152710753Y-68269287D01*
X151781353Y-68654257D01*
X151560584Y-69024978D01*
X149741416Y-69024978D01*
X149520647Y-68654257D01*
X148548988Y-68260881D01*
X147500753Y-68269287D01*
X146571353Y-68654257D01*
X146350584Y-69024978D01*
X144531416Y-69024978D01*
X144310647Y-68654257D01*
X143338988Y-68260881D01*
X142290753Y-68269287D01*
X141361353Y-68654257D01*
X141140584Y-69024978D01*
X139127000Y-69024978D01*
X139127000Y-66151000D01*
X143763995Y-66151000D01*
X143764000Y-66151001D01*
X144389688Y-66026543D01*
X144920120Y-65672120D01*
X146698117Y-63894122D01*
X146698120Y-63894120D01*
X147052543Y-63363687D01*
X147078629Y-63232543D01*
X147177001Y-62738000D01*
X147177000Y-62737995D01*
X147177000Y-59467750D01*
X150901400Y-59467750D01*
X150901400Y-60324310D01*
X150998073Y-60557699D01*
X151176702Y-60736327D01*
X151410091Y-60833000D01*
X152114250Y-60833000D01*
X152273000Y-60674250D01*
X152273000Y-59309000D01*
X151060150Y-59309000D01*
X150901400Y-59467750D01*
X147177000Y-59467750D01*
X147177000Y-59182000D01*
X147052543Y-58556313D01*
X146707348Y-58039690D01*
X150901400Y-58039690D01*
X150901400Y-58896250D01*
X151060150Y-59055000D01*
X152273000Y-59055000D01*
X152273000Y-57689750D01*
X152114250Y-57531000D01*
X151410091Y-57531000D01*
X151176702Y-57627673D01*
X150998073Y-57806301D01*
X150901400Y-58039690D01*
X146707348Y-58039690D01*
X146698120Y-58025880D01*
X146630459Y-57980670D01*
X146601670Y-57937585D01*
X146115489Y-57612729D01*
X145542000Y-57498655D01*
X144968511Y-57612729D01*
X144482330Y-57937585D01*
X144453541Y-57980670D01*
X144385880Y-58025880D01*
X144254111Y-58223086D01*
X143904036Y-57831268D01*
X143376791Y-57577291D01*
X143361026Y-57574642D01*
X143129000Y-57695783D01*
X143129000Y-59055000D01*
X143149000Y-59055000D01*
X143149000Y-59309000D01*
X143129000Y-59309000D01*
X143129000Y-60668217D01*
X143361026Y-60789358D01*
X143376791Y-60786709D01*
X143904036Y-60532732D01*
X143907000Y-60529415D01*
X143907000Y-62060761D01*
X143086760Y-62881000D01*
X139127000Y-62881000D01*
X139127000Y-62000000D01*
X139116994Y-61950590D01*
X139088553Y-61908965D01*
X139046159Y-61881685D01*
X139000000Y-61873000D01*
X131422842Y-61873000D01*
X131458120Y-61837722D01*
X131812543Y-61307290D01*
X131937001Y-60681602D01*
X131937000Y-60681597D01*
X131937000Y-60529415D01*
X131939964Y-60532732D01*
X132467209Y-60786709D01*
X132482974Y-60789358D01*
X132715000Y-60668217D01*
X132715000Y-59309000D01*
X132695000Y-59309000D01*
X132695000Y-59055000D01*
X132715000Y-59055000D01*
X132715000Y-57695783D01*
X132969000Y-57695783D01*
X132969000Y-59055000D01*
X132989000Y-59055000D01*
X132989000Y-59309000D01*
X132969000Y-59309000D01*
X132969000Y-60668217D01*
X133201026Y-60789358D01*
X133216791Y-60786709D01*
X133744036Y-60532732D01*
X134115539Y-60116931D01*
X134322330Y-60426415D01*
X134808511Y-60751271D01*
X135382000Y-60865345D01*
X135955489Y-60751271D01*
X136441670Y-60426415D01*
X136648461Y-60116931D01*
X137019964Y-60532732D01*
X137547209Y-60786709D01*
X137562974Y-60789358D01*
X137795000Y-60668217D01*
X137795000Y-59309000D01*
X137775000Y-59309000D01*
X137775000Y-59055000D01*
X137795000Y-59055000D01*
X137795000Y-57695783D01*
X138049000Y-57695783D01*
X138049000Y-59055000D01*
X138069000Y-59055000D01*
X138069000Y-59309000D01*
X138049000Y-59309000D01*
X138049000Y-60668217D01*
X138281026Y-60789358D01*
X138296791Y-60786709D01*
X138824036Y-60532732D01*
X139195539Y-60116931D01*
X139402330Y-60426415D01*
X139888511Y-60751271D01*
X140462000Y-60865345D01*
X141035489Y-60751271D01*
X141521670Y-60426415D01*
X141728461Y-60116931D01*
X142099964Y-60532732D01*
X142627209Y-60786709D01*
X142642974Y-60789358D01*
X142875000Y-60668217D01*
X142875000Y-59309000D01*
X142855000Y-59309000D01*
X142855000Y-59055000D01*
X142875000Y-59055000D01*
X142875000Y-57695783D01*
X142642974Y-57574642D01*
X142627209Y-57577291D01*
X142099964Y-57831268D01*
X141728461Y-58247069D01*
X141521670Y-57937585D01*
X141035489Y-57612729D01*
X140462000Y-57498655D01*
X139888511Y-57612729D01*
X139402330Y-57937585D01*
X139195539Y-58247069D01*
X138824036Y-57831268D01*
X138296791Y-57577291D01*
X138281026Y-57574642D01*
X138049000Y-57695783D01*
X137795000Y-57695783D01*
X137562974Y-57574642D01*
X137547209Y-57577291D01*
X137019964Y-57831268D01*
X136648461Y-58247069D01*
X136441670Y-57937585D01*
X135955489Y-57612729D01*
X135382000Y-57498655D01*
X134808511Y-57612729D01*
X134322330Y-57937585D01*
X134115539Y-58247069D01*
X133744036Y-57831268D01*
X133216791Y-57577291D01*
X133201026Y-57574642D01*
X132969000Y-57695783D01*
X132715000Y-57695783D01*
X132482974Y-57574642D01*
X132467209Y-57577291D01*
X131939964Y-57831268D01*
X131589889Y-58223086D01*
X131458120Y-58025880D01*
X131390459Y-57980670D01*
X131361670Y-57937585D01*
X130875489Y-57612729D01*
X130302000Y-57498655D01*
X129728511Y-57612729D01*
X129242330Y-57937585D01*
X129227500Y-57959780D01*
X129163927Y-57806301D01*
X128985298Y-57627673D01*
X128751909Y-57531000D01*
X128047750Y-57531000D01*
X127889000Y-57689750D01*
X127889000Y-59055000D01*
X127909000Y-59055000D01*
X127909000Y-59309000D01*
X127889000Y-59309000D01*
X127889000Y-59329000D01*
X127635000Y-59329000D01*
X127635000Y-59309000D01*
X126422150Y-59309000D01*
X126263400Y-59467750D01*
X126263400Y-60087000D01*
X125899239Y-60087000D01*
X125333000Y-59520760D01*
X125333000Y-59182005D01*
X125333001Y-59182000D01*
X125208543Y-58556312D01*
X125127000Y-58434274D01*
X125127000Y-58039690D01*
X126263400Y-58039690D01*
X126263400Y-58896250D01*
X126422150Y-59055000D01*
X127635000Y-59055000D01*
X127635000Y-57689750D01*
X127476250Y-57531000D01*
X126772091Y-57531000D01*
X126538702Y-57627673D01*
X126360073Y-57806301D01*
X126263400Y-58039690D01*
X125127000Y-58039690D01*
X125127000Y-56127000D01*
X171873000Y-56127000D01*
X171873000Y-59763010D01*
X171873000Y-59763010D01*
G37*
X171873000Y-59763010D02*
X171599778Y-59763010D01*
X171678600Y-59366745D01*
X171678600Y-58997255D01*
X171564526Y-58423766D01*
X171239670Y-57937585D01*
X170753489Y-57612729D01*
X170180000Y-57498655D01*
X169606511Y-57612729D01*
X169120330Y-57937585D01*
X168913539Y-58247069D01*
X168542036Y-57831268D01*
X168014791Y-57577291D01*
X167999026Y-57574642D01*
X167767000Y-57695783D01*
X167767000Y-59055000D01*
X167787000Y-59055000D01*
X167787000Y-59309000D01*
X167767000Y-59309000D01*
X167767000Y-59329000D01*
X167513000Y-59329000D01*
X167513000Y-59309000D01*
X167493000Y-59309000D01*
X167493000Y-59055000D01*
X167513000Y-59055000D01*
X167513000Y-57695783D01*
X167280974Y-57574642D01*
X167265209Y-57577291D01*
X166737964Y-57831268D01*
X166387889Y-58223086D01*
X166256120Y-58025880D01*
X166188459Y-57980670D01*
X166159670Y-57937585D01*
X165673489Y-57612729D01*
X165100000Y-57498655D01*
X164526511Y-57612729D01*
X164040330Y-57937585D01*
X164011541Y-57980670D01*
X163943880Y-58025880D01*
X163812111Y-58223086D01*
X163462036Y-57831268D01*
X162934791Y-57577291D01*
X162919026Y-57574642D01*
X162687000Y-57695783D01*
X162687000Y-59055000D01*
X162707000Y-59055000D01*
X162707000Y-59309000D01*
X162687000Y-59309000D01*
X162687000Y-60668217D01*
X162919026Y-60789358D01*
X162934791Y-60786709D01*
X163462036Y-60532732D01*
X163465000Y-60529415D01*
X163465000Y-61213995D01*
X163464999Y-61214000D01*
X163589457Y-61839688D01*
X163611715Y-61873000D01*
X157000000Y-61873000D01*
X156950590Y-61883006D01*
X156942663Y-61888423D01*
X156575000Y-61520760D01*
X156575000Y-60529415D01*
X156577964Y-60532732D01*
X157105209Y-60786709D01*
X157120974Y-60789358D01*
X157353000Y-60668217D01*
X157353000Y-59309000D01*
X157333000Y-59309000D01*
X157333000Y-59055000D01*
X157353000Y-59055000D01*
X157353000Y-57695783D01*
X157607000Y-57695783D01*
X157607000Y-59055000D01*
X157627000Y-59055000D01*
X157627000Y-59309000D01*
X157607000Y-59309000D01*
X157607000Y-60668217D01*
X157839026Y-60789358D01*
X157854791Y-60786709D01*
X158382036Y-60532732D01*
X158753539Y-60116931D01*
X158960330Y-60426415D01*
X159446511Y-60751271D01*
X160020000Y-60865345D01*
X160593489Y-60751271D01*
X161079670Y-60426415D01*
X161286461Y-60116931D01*
X161657964Y-60532732D01*
X162185209Y-60786709D01*
X162200974Y-60789358D01*
X162433000Y-60668217D01*
X162433000Y-59309000D01*
X162413000Y-59309000D01*
X162413000Y-59055000D01*
X162433000Y-59055000D01*
X162433000Y-57695783D01*
X162200974Y-57574642D01*
X162185209Y-57577291D01*
X161657964Y-57831268D01*
X161286461Y-58247069D01*
X161079670Y-57937585D01*
X160593489Y-57612729D01*
X160020000Y-57498655D01*
X159446511Y-57612729D01*
X158960330Y-57937585D01*
X158753539Y-58247069D01*
X158382036Y-57831268D01*
X157854791Y-57577291D01*
X157839026Y-57574642D01*
X157607000Y-57695783D01*
X157353000Y-57695783D01*
X157120974Y-57574642D01*
X157105209Y-57577291D01*
X156577964Y-57831268D01*
X156227889Y-58223086D01*
X156096120Y-58025880D01*
X156028459Y-57980670D01*
X155999670Y-57937585D01*
X155513489Y-57612729D01*
X154940000Y-57498655D01*
X154366511Y-57612729D01*
X153880330Y-57937585D01*
X153865500Y-57959780D01*
X153801927Y-57806301D01*
X153623298Y-57627673D01*
X153389909Y-57531000D01*
X152685750Y-57531000D01*
X152527000Y-57689750D01*
X152527000Y-59055000D01*
X152547000Y-59055000D01*
X152547000Y-59309000D01*
X152527000Y-59309000D01*
X152527000Y-60674250D01*
X152685750Y-60833000D01*
X153305000Y-60833000D01*
X153305000Y-62197995D01*
X153304999Y-62198000D01*
X153429457Y-62823688D01*
X153783880Y-63354120D01*
X155871878Y-65442118D01*
X156402310Y-65796541D01*
X156873000Y-65890168D01*
X156873000Y-83873000D01*
X154773966Y-83873000D01*
X154951416Y-83575022D01*
X153256000Y-81879605D01*
X151560584Y-83575022D01*
X151738034Y-83873000D01*
X149563966Y-83873000D01*
X149741416Y-83575022D01*
X148046000Y-81879605D01*
X146350584Y-83575022D01*
X146571353Y-83945743D01*
X146832314Y-84051393D01*
X144886408Y-87943204D01*
X144873000Y-88000000D01*
X144873000Y-95938961D01*
X139920664Y-99900830D01*
X139888331Y-99939509D01*
X139873000Y-100000000D01*
X139873000Y-101873000D01*
X132127000Y-101873000D01*
X132127000Y-98063500D01*
X136076200Y-95101600D01*
X136109725Y-95063949D01*
X136127000Y-95000000D01*
X136127000Y-86067968D01*
X139070447Y-84105670D01*
X139106008Y-84069937D01*
X139127000Y-84000000D01*
X139127000Y-83575022D01*
X141140584Y-83575022D01*
X141361353Y-83945743D01*
X142333012Y-84339119D01*
X143381247Y-84330713D01*
X144310647Y-83945743D01*
X144531416Y-83575022D01*
X142836000Y-81879605D01*
X141140584Y-83575022D01*
X139127000Y-83575022D01*
X139127000Y-81197012D01*
X140196881Y-81197012D01*
X140205287Y-82245247D01*
X140590257Y-83174647D01*
X140960978Y-83395416D01*
X142656395Y-81700000D01*
X143015605Y-81700000D01*
X144711022Y-83395416D01*
X145081743Y-83174647D01*
X145436893Y-82297408D01*
X145800257Y-83174647D01*
X146170978Y-83395416D01*
X147866395Y-81700000D01*
X148225605Y-81700000D01*
X149921022Y-83395416D01*
X150291743Y-83174647D01*
X150646893Y-82297408D01*
X151010257Y-83174647D01*
X151380978Y-83395416D01*
X153076395Y-81700000D01*
X153435605Y-81700000D01*
X155131022Y-83395416D01*
X155501743Y-83174647D01*
X155895119Y-82202988D01*
X155886713Y-81154753D01*
X155501743Y-80225353D01*
X155131022Y-80004584D01*
X153435605Y-81700000D01*
X153076395Y-81700000D01*
X151380978Y-80004584D01*
X151010257Y-80225353D01*
X150655107Y-81102592D01*
X150291743Y-80225353D01*
X149921022Y-80004584D01*
X148225605Y-81700000D01*
X147866395Y-81700000D01*
X146170978Y-80004584D01*
X145800257Y-80225353D01*
X145445107Y-81102592D01*
X145081743Y-80225353D01*
X144711022Y-80004584D01*
X143015605Y-81700000D01*
X142656395Y-81700000D01*
X140960978Y-80004584D01*
X140590257Y-80225353D01*
X140196881Y-81197012D01*
X139127000Y-81197012D01*
X139127000Y-79824978D01*
X141140584Y-79824978D01*
X142836000Y-81520395D01*
X144531416Y-79824978D01*
X146350584Y-79824978D01*
X148046000Y-81520395D01*
X149741416Y-79824978D01*
X151560584Y-79824978D01*
X153256000Y-81520395D01*
X154951416Y-79824978D01*
X154730647Y-79454257D01*
X153758988Y-79060881D01*
X152710753Y-79069287D01*
X151781353Y-79454257D01*
X151560584Y-79824978D01*
X149741416Y-79824978D01*
X149520647Y-79454257D01*
X148548988Y-79060881D01*
X147500753Y-79069287D01*
X146571353Y-79454257D01*
X146350584Y-79824978D01*
X144531416Y-79824978D01*
X144310647Y-79454257D01*
X143338988Y-79060881D01*
X142290753Y-79069287D01*
X141361353Y-79454257D01*
X141140584Y-79824978D01*
X139127000Y-79824978D01*
X139127000Y-72775022D01*
X141140584Y-72775022D01*
X141361353Y-73145743D01*
X142333012Y-73539119D01*
X143381247Y-73530713D01*
X144310647Y-73145743D01*
X144531416Y-72775022D01*
X146350584Y-72775022D01*
X146571353Y-73145743D01*
X147543012Y-73539119D01*
X148591247Y-73530713D01*
X149520647Y-73145743D01*
X149741416Y-72775022D01*
X151560584Y-72775022D01*
X151781353Y-73145743D01*
X152753012Y-73539119D01*
X153801247Y-73530713D01*
X154730647Y-73145743D01*
X154951416Y-72775022D01*
X153256000Y-71079605D01*
X151560584Y-72775022D01*
X149741416Y-72775022D01*
X148046000Y-71079605D01*
X146350584Y-72775022D01*
X144531416Y-72775022D01*
X142836000Y-71079605D01*
X141140584Y-72775022D01*
X139127000Y-72775022D01*
X139127000Y-70397012D01*
X140196881Y-70397012D01*
X140205287Y-71445247D01*
X140590257Y-72374647D01*
X140960978Y-72595416D01*
X142656395Y-70900000D01*
X143015605Y-70900000D01*
X144711022Y-72595416D01*
X145081743Y-72374647D01*
X145436893Y-71497408D01*
X145800257Y-72374647D01*
X146170978Y-72595416D01*
X147866395Y-70900000D01*
X148225605Y-70900000D01*
X149921022Y-72595416D01*
X150291743Y-72374647D01*
X150646893Y-71497408D01*
X151010257Y-72374647D01*
X151380978Y-72595416D01*
X153076395Y-70900000D01*
X153435605Y-70900000D01*
X155131022Y-72595416D01*
X155501743Y-72374647D01*
X155895119Y-71402988D01*
X155886713Y-70354753D01*
X155501743Y-69425353D01*
X155131022Y-69204584D01*
X153435605Y-70900000D01*
X153076395Y-70900000D01*
X151380978Y-69204584D01*
X151010257Y-69425353D01*
X150655107Y-70302592D01*
X150291743Y-69425353D01*
X149921022Y-69204584D01*
X148225605Y-70900000D01*
X147866395Y-70900000D01*
X146170978Y-69204584D01*
X145800257Y-69425353D01*
X145445107Y-70302592D01*
X145081743Y-69425353D01*
X144711022Y-69204584D01*
X143015605Y-70900000D01*
X142656395Y-70900000D01*
X140960978Y-69204584D01*
X140590257Y-69425353D01*
X140196881Y-70397012D01*
X139127000Y-70397012D01*
X139127000Y-69024978D01*
X141140584Y-69024978D01*
X142836000Y-70720395D01*
X144531416Y-69024978D01*
X146350584Y-69024978D01*
X148046000Y-70720395D01*
X149741416Y-69024978D01*
X151560584Y-69024978D01*
X153256000Y-70720395D01*
X154951416Y-69024978D01*
X154730647Y-68654257D01*
X153758988Y-68260881D01*
X152710753Y-68269287D01*
X151781353Y-68654257D01*
X151560584Y-69024978D01*
X149741416Y-69024978D01*
X149520647Y-68654257D01*
X148548988Y-68260881D01*
X147500753Y-68269287D01*
X146571353Y-68654257D01*
X146350584Y-69024978D01*
X144531416Y-69024978D01*
X144310647Y-68654257D01*
X143338988Y-68260881D01*
X142290753Y-68269287D01*
X141361353Y-68654257D01*
X141140584Y-69024978D01*
X139127000Y-69024978D01*
X139127000Y-66151000D01*
X143763995Y-66151000D01*
X143764000Y-66151001D01*
X144389688Y-66026543D01*
X144920120Y-65672120D01*
X146698117Y-63894122D01*
X146698120Y-63894120D01*
X147052543Y-63363687D01*
X147078629Y-63232543D01*
X147177001Y-62738000D01*
X147177000Y-62737995D01*
X147177000Y-59467750D01*
X150901400Y-59467750D01*
X150901400Y-60324310D01*
X150998073Y-60557699D01*
X151176702Y-60736327D01*
X151410091Y-60833000D01*
X152114250Y-60833000D01*
X152273000Y-60674250D01*
X152273000Y-59309000D01*
X151060150Y-59309000D01*
X150901400Y-59467750D01*
X147177000Y-59467750D01*
X147177000Y-59182000D01*
X147052543Y-58556313D01*
X146707348Y-58039690D01*
X150901400Y-58039690D01*
X150901400Y-58896250D01*
X151060150Y-59055000D01*
X152273000Y-59055000D01*
X152273000Y-57689750D01*
X152114250Y-57531000D01*
X151410091Y-57531000D01*
X151176702Y-57627673D01*
X150998073Y-57806301D01*
X150901400Y-58039690D01*
X146707348Y-58039690D01*
X146698120Y-58025880D01*
X146630459Y-57980670D01*
X146601670Y-57937585D01*
X146115489Y-57612729D01*
X145542000Y-57498655D01*
X144968511Y-57612729D01*
X144482330Y-57937585D01*
X144453541Y-57980670D01*
X144385880Y-58025880D01*
X144254111Y-58223086D01*
X143904036Y-57831268D01*
X143376791Y-57577291D01*
X143361026Y-57574642D01*
X143129000Y-57695783D01*
X143129000Y-59055000D01*
X143149000Y-59055000D01*
X143149000Y-59309000D01*
X143129000Y-59309000D01*
X143129000Y-60668217D01*
X143361026Y-60789358D01*
X143376791Y-60786709D01*
X143904036Y-60532732D01*
X143907000Y-60529415D01*
X143907000Y-62060761D01*
X143086760Y-62881000D01*
X139127000Y-62881000D01*
X139127000Y-62000000D01*
X139116994Y-61950590D01*
X139088553Y-61908965D01*
X139046159Y-61881685D01*
X139000000Y-61873000D01*
X131422842Y-61873000D01*
X131458120Y-61837722D01*
X131812543Y-61307290D01*
X131937001Y-60681602D01*
X131937000Y-60681597D01*
X131937000Y-60529415D01*
X131939964Y-60532732D01*
X132467209Y-60786709D01*
X132482974Y-60789358D01*
X132715000Y-60668217D01*
X132715000Y-59309000D01*
X132695000Y-59309000D01*
X132695000Y-59055000D01*
X132715000Y-59055000D01*
X132715000Y-57695783D01*
X132969000Y-57695783D01*
X132969000Y-59055000D01*
X132989000Y-59055000D01*
X132989000Y-59309000D01*
X132969000Y-59309000D01*
X132969000Y-60668217D01*
X133201026Y-60789358D01*
X133216791Y-60786709D01*
X133744036Y-60532732D01*
X134115539Y-60116931D01*
X134322330Y-60426415D01*
X134808511Y-60751271D01*
X135382000Y-60865345D01*
X135955489Y-60751271D01*
X136441670Y-60426415D01*
X136648461Y-60116931D01*
X137019964Y-60532732D01*
X137547209Y-60786709D01*
X137562974Y-60789358D01*
X137795000Y-60668217D01*
X137795000Y-59309000D01*
X137775000Y-59309000D01*
X137775000Y-59055000D01*
X137795000Y-59055000D01*
X137795000Y-57695783D01*
X138049000Y-57695783D01*
X138049000Y-59055000D01*
X138069000Y-59055000D01*
X138069000Y-59309000D01*
X138049000Y-59309000D01*
X138049000Y-60668217D01*
X138281026Y-60789358D01*
X138296791Y-60786709D01*
X138824036Y-60532732D01*
X139195539Y-60116931D01*
X139402330Y-60426415D01*
X139888511Y-60751271D01*
X140462000Y-60865345D01*
X141035489Y-60751271D01*
X141521670Y-60426415D01*
X141728461Y-60116931D01*
X142099964Y-60532732D01*
X142627209Y-60786709D01*
X142642974Y-60789358D01*
X142875000Y-60668217D01*
X142875000Y-59309000D01*
X142855000Y-59309000D01*
X142855000Y-59055000D01*
X142875000Y-59055000D01*
X142875000Y-57695783D01*
X142642974Y-57574642D01*
X142627209Y-57577291D01*
X142099964Y-57831268D01*
X141728461Y-58247069D01*
X141521670Y-57937585D01*
X141035489Y-57612729D01*
X140462000Y-57498655D01*
X139888511Y-57612729D01*
X139402330Y-57937585D01*
X139195539Y-58247069D01*
X138824036Y-57831268D01*
X138296791Y-57577291D01*
X138281026Y-57574642D01*
X138049000Y-57695783D01*
X137795000Y-57695783D01*
X137562974Y-57574642D01*
X137547209Y-57577291D01*
X137019964Y-57831268D01*
X136648461Y-58247069D01*
X136441670Y-57937585D01*
X135955489Y-57612729D01*
X135382000Y-57498655D01*
X134808511Y-57612729D01*
X134322330Y-57937585D01*
X134115539Y-58247069D01*
X133744036Y-57831268D01*
X133216791Y-57577291D01*
X133201026Y-57574642D01*
X132969000Y-57695783D01*
X132715000Y-57695783D01*
X132482974Y-57574642D01*
X132467209Y-57577291D01*
X131939964Y-57831268D01*
X131589889Y-58223086D01*
X131458120Y-58025880D01*
X131390459Y-57980670D01*
X131361670Y-57937585D01*
X130875489Y-57612729D01*
X130302000Y-57498655D01*
X129728511Y-57612729D01*
X129242330Y-57937585D01*
X129227500Y-57959780D01*
X129163927Y-57806301D01*
X128985298Y-57627673D01*
X128751909Y-57531000D01*
X128047750Y-57531000D01*
X127889000Y-57689750D01*
X127889000Y-59055000D01*
X127909000Y-59055000D01*
X127909000Y-59309000D01*
X127889000Y-59309000D01*
X127889000Y-59329000D01*
X127635000Y-59329000D01*
X127635000Y-59309000D01*
X126422150Y-59309000D01*
X126263400Y-59467750D01*
X126263400Y-60087000D01*
X125899239Y-60087000D01*
X125333000Y-59520760D01*
X125333000Y-59182005D01*
X125333001Y-59182000D01*
X125208543Y-58556312D01*
X125127000Y-58434274D01*
X125127000Y-58039690D01*
X126263400Y-58039690D01*
X126263400Y-58896250D01*
X126422150Y-59055000D01*
X127635000Y-59055000D01*
X127635000Y-57689750D01*
X127476250Y-57531000D01*
X126772091Y-57531000D01*
X126538702Y-57627673D01*
X126360073Y-57806301D01*
X126263400Y-58039690D01*
X125127000Y-58039690D01*
X125127000Y-56127000D01*
X171873000Y-56127000D01*
X171873000Y-59763010D01*
G36*
X139873000Y-113000000D02*
X139883006Y-113049410D01*
X139910197Y-113089803D01*
X141910197Y-115089803D01*
X141952211Y-115117666D01*
X142000000Y-115127000D01*
X152873000Y-115127000D01*
X152873000Y-120000000D01*
X152883006Y-120049410D01*
X152911447Y-120091035D01*
X152953841Y-120118315D01*
X153000000Y-120127000D01*
X153415396Y-120127000D01*
X153304999Y-120682000D01*
X153305000Y-120682005D01*
X153305000Y-122047000D01*
X152685750Y-122047000D01*
X152527000Y-122205750D01*
X152527000Y-123571000D01*
X152547000Y-123571000D01*
X152547000Y-123825000D01*
X152527000Y-123825000D01*
X152527000Y-125190250D01*
X152685750Y-125349000D01*
X153389909Y-125349000D01*
X153623298Y-125252327D01*
X153801927Y-125073699D01*
X153865500Y-124920220D01*
X153880330Y-124942415D01*
X154366511Y-125267271D01*
X154940000Y-125381345D01*
X155513489Y-125267271D01*
X155999670Y-124942415D01*
X156028459Y-124899330D01*
X156096120Y-124854120D01*
X156227889Y-124656914D01*
X156577964Y-125048732D01*
X157105209Y-125302709D01*
X157120974Y-125305358D01*
X157353000Y-125184217D01*
X157353000Y-123825000D01*
X157333000Y-123825000D01*
X157333000Y-123571000D01*
X157353000Y-123571000D01*
X157353000Y-122211783D01*
X157607000Y-122211783D01*
X157607000Y-123571000D01*
X157627000Y-123571000D01*
X157627000Y-123825000D01*
X157607000Y-123825000D01*
X157607000Y-125184217D01*
X157839026Y-125305358D01*
X157854791Y-125302709D01*
X158382036Y-125048732D01*
X158753539Y-124632931D01*
X158960330Y-124942415D01*
X159446511Y-125267271D01*
X160020000Y-125381345D01*
X160593489Y-125267271D01*
X161079670Y-124942415D01*
X161286461Y-124632931D01*
X161657964Y-125048732D01*
X162185209Y-125302709D01*
X162200974Y-125305358D01*
X162433000Y-125184217D01*
X162433000Y-123825000D01*
X162413000Y-123825000D01*
X162413000Y-123571000D01*
X162433000Y-123571000D01*
X162433000Y-122211783D01*
X162200974Y-122090642D01*
X162185209Y-122093291D01*
X161657964Y-122347268D01*
X161286461Y-122763069D01*
X161079670Y-122453585D01*
X160593489Y-122128729D01*
X160020000Y-122014655D01*
X159446511Y-122128729D01*
X158960330Y-122453585D01*
X158753539Y-122763069D01*
X158382036Y-122347268D01*
X157854791Y-122093291D01*
X157839026Y-122090642D01*
X157607000Y-122211783D01*
X157353000Y-122211783D01*
X157120974Y-122090642D01*
X157105209Y-122093291D01*
X156577964Y-122347268D01*
X156575000Y-122350585D01*
X156575000Y-121359240D01*
X157244301Y-120689938D01*
X171873000Y-120689938D01*
X171873000Y-124279010D01*
X171599778Y-124279010D01*
X171678600Y-123882745D01*
X171678600Y-123513255D01*
X171564526Y-122939766D01*
X171239670Y-122453585D01*
X170753489Y-122128729D01*
X170180000Y-122014655D01*
X169606511Y-122128729D01*
X169120330Y-122453585D01*
X168913539Y-122763069D01*
X168542036Y-122347268D01*
X168014791Y-122093291D01*
X167999026Y-122090642D01*
X167767000Y-122211783D01*
X167767000Y-123571000D01*
X167787000Y-123571000D01*
X167787000Y-123825000D01*
X167767000Y-123825000D01*
X167767000Y-123845000D01*
X167513000Y-123845000D01*
X167513000Y-123825000D01*
X167493000Y-123825000D01*
X167493000Y-123571000D01*
X167513000Y-123571000D01*
X167513000Y-122211783D01*
X167280974Y-122090642D01*
X167265209Y-122093291D01*
X166737964Y-122347268D01*
X166387889Y-122739086D01*
X166256120Y-122541880D01*
X166188459Y-122496670D01*
X166159670Y-122453585D01*
X165673489Y-122128729D01*
X165100000Y-122014655D01*
X164526511Y-122128729D01*
X164040330Y-122453585D01*
X164011541Y-122496670D01*
X163943880Y-122541880D01*
X163812111Y-122739086D01*
X163462036Y-122347268D01*
X162934791Y-122093291D01*
X162919026Y-122090642D01*
X162687000Y-122211783D01*
X162687000Y-123571000D01*
X162707000Y-123571000D01*
X162707000Y-123825000D01*
X162687000Y-123825000D01*
X162687000Y-125184217D01*
X162919026Y-125305358D01*
X162934791Y-125302709D01*
X163462036Y-125048732D01*
X163465000Y-125045415D01*
X163465000Y-125590015D01*
X163464999Y-125590020D01*
X163589457Y-126215708D01*
X163943880Y-126746140D01*
X164267870Y-127070130D01*
X164798302Y-127424553D01*
X165423990Y-127549011D01*
X165423995Y-127549010D01*
X171873000Y-127549010D01*
X171873000Y-128873000D01*
X125127000Y-128873000D01*
X125127000Y-127873000D01*
X133413280Y-127873000D01*
X133413285Y-127873001D01*
X134038973Y-127748543D01*
X134569405Y-127394120D01*
X136538117Y-125425407D01*
X136538120Y-125425405D01*
X136888282Y-124901349D01*
X137019964Y-125048732D01*
X137547209Y-125302709D01*
X137562974Y-125305358D01*
X137795000Y-125184217D01*
X137795000Y-123825000D01*
X137775000Y-123825000D01*
X137775000Y-123571000D01*
X137795000Y-123571000D01*
X137795000Y-123551000D01*
X138049000Y-123551000D01*
X138049000Y-123571000D01*
X138069000Y-123571000D01*
X138069000Y-123825000D01*
X138049000Y-123825000D01*
X138049000Y-125184217D01*
X138281026Y-125305358D01*
X138296791Y-125302709D01*
X138824036Y-125048732D01*
X139195539Y-124632931D01*
X139402330Y-124942415D01*
X139888511Y-125267271D01*
X140462000Y-125381345D01*
X141035489Y-125267271D01*
X141521670Y-124942415D01*
X141728461Y-124632931D01*
X142099964Y-125048732D01*
X142627209Y-125302709D01*
X142642974Y-125305358D01*
X142875000Y-125184217D01*
X142875000Y-123825000D01*
X142855000Y-123825000D01*
X142855000Y-123571000D01*
X142875000Y-123571000D01*
X142875000Y-123551000D01*
X143129000Y-123551000D01*
X143129000Y-123571000D01*
X143149000Y-123571000D01*
X143149000Y-123825000D01*
X143129000Y-123825000D01*
X143129000Y-125184217D01*
X143361026Y-125305358D01*
X143376791Y-125302709D01*
X143904036Y-125048732D01*
X144254111Y-124656914D01*
X144385880Y-124854120D01*
X144453541Y-124899330D01*
X144482330Y-124942415D01*
X144968511Y-125267271D01*
X145542000Y-125381345D01*
X146115489Y-125267271D01*
X146601670Y-124942415D01*
X146630459Y-124899330D01*
X146698120Y-124854120D01*
X147052543Y-124323687D01*
X147120160Y-123983750D01*
X150901400Y-123983750D01*
X150901400Y-124840310D01*
X150998073Y-125073699D01*
X151176702Y-125252327D01*
X151410091Y-125349000D01*
X152114250Y-125349000D01*
X152273000Y-125190250D01*
X152273000Y-123825000D01*
X151060150Y-123825000D01*
X150901400Y-123983750D01*
X147120160Y-123983750D01*
X147177000Y-123698000D01*
X147177000Y-122555690D01*
X150901400Y-122555690D01*
X150901400Y-123412250D01*
X151060150Y-123571000D01*
X152273000Y-123571000D01*
X152273000Y-122205750D01*
X152114250Y-122047000D01*
X151410091Y-122047000D01*
X151176702Y-122143673D01*
X150998073Y-122322301D01*
X150901400Y-122555690D01*
X147177000Y-122555690D01*
X147177000Y-122542000D01*
X147052543Y-121916313D01*
X146698120Y-121385880D01*
X146698117Y-121385878D01*
X145156120Y-119843880D01*
X144625688Y-119489457D01*
X144000000Y-119364999D01*
X143999995Y-119365000D01*
X142276452Y-119365000D01*
X140070447Y-117894330D01*
X140044593Y-117881086D01*
X132127000Y-114911989D01*
X132127000Y-102127000D01*
X139873000Y-102127000D01*
X139873000Y-113000000D01*
X139873000Y-113000000D01*
G37*
X139873000Y-113000000D02*
X139883006Y-113049410D01*
X139910197Y-113089803D01*
X141910197Y-115089803D01*
X141952211Y-115117666D01*
X142000000Y-115127000D01*
X152873000Y-115127000D01*
X152873000Y-120000000D01*
X152883006Y-120049410D01*
X152911447Y-120091035D01*
X152953841Y-120118315D01*
X153000000Y-120127000D01*
X153415396Y-120127000D01*
X153304999Y-120682000D01*
X153305000Y-120682005D01*
X153305000Y-122047000D01*
X152685750Y-122047000D01*
X152527000Y-122205750D01*
X152527000Y-123571000D01*
X152547000Y-123571000D01*
X152547000Y-123825000D01*
X152527000Y-123825000D01*
X152527000Y-125190250D01*
X152685750Y-125349000D01*
X153389909Y-125349000D01*
X153623298Y-125252327D01*
X153801927Y-125073699D01*
X153865500Y-124920220D01*
X153880330Y-124942415D01*
X154366511Y-125267271D01*
X154940000Y-125381345D01*
X155513489Y-125267271D01*
X155999670Y-124942415D01*
X156028459Y-124899330D01*
X156096120Y-124854120D01*
X156227889Y-124656914D01*
X156577964Y-125048732D01*
X157105209Y-125302709D01*
X157120974Y-125305358D01*
X157353000Y-125184217D01*
X157353000Y-123825000D01*
X157333000Y-123825000D01*
X157333000Y-123571000D01*
X157353000Y-123571000D01*
X157353000Y-122211783D01*
X157607000Y-122211783D01*
X157607000Y-123571000D01*
X157627000Y-123571000D01*
X157627000Y-123825000D01*
X157607000Y-123825000D01*
X157607000Y-125184217D01*
X157839026Y-125305358D01*
X157854791Y-125302709D01*
X158382036Y-125048732D01*
X158753539Y-124632931D01*
X158960330Y-124942415D01*
X159446511Y-125267271D01*
X160020000Y-125381345D01*
X160593489Y-125267271D01*
X161079670Y-124942415D01*
X161286461Y-124632931D01*
X161657964Y-125048732D01*
X162185209Y-125302709D01*
X162200974Y-125305358D01*
X162433000Y-125184217D01*
X162433000Y-123825000D01*
X162413000Y-123825000D01*
X162413000Y-123571000D01*
X162433000Y-123571000D01*
X162433000Y-122211783D01*
X162200974Y-122090642D01*
X162185209Y-122093291D01*
X161657964Y-122347268D01*
X161286461Y-122763069D01*
X161079670Y-122453585D01*
X160593489Y-122128729D01*
X160020000Y-122014655D01*
X159446511Y-122128729D01*
X158960330Y-122453585D01*
X158753539Y-122763069D01*
X158382036Y-122347268D01*
X157854791Y-122093291D01*
X157839026Y-122090642D01*
X157607000Y-122211783D01*
X157353000Y-122211783D01*
X157120974Y-122090642D01*
X157105209Y-122093291D01*
X156577964Y-122347268D01*
X156575000Y-122350585D01*
X156575000Y-121359240D01*
X157244301Y-120689938D01*
X171873000Y-120689938D01*
X171873000Y-124279010D01*
X171599778Y-124279010D01*
X171678600Y-123882745D01*
X171678600Y-123513255D01*
X171564526Y-122939766D01*
X171239670Y-122453585D01*
X170753489Y-122128729D01*
X170180000Y-122014655D01*
X169606511Y-122128729D01*
X169120330Y-122453585D01*
X168913539Y-122763069D01*
X168542036Y-122347268D01*
X168014791Y-122093291D01*
X167999026Y-122090642D01*
X167767000Y-122211783D01*
X167767000Y-123571000D01*
X167787000Y-123571000D01*
X167787000Y-123825000D01*
X167767000Y-123825000D01*
X167767000Y-123845000D01*
X167513000Y-123845000D01*
X167513000Y-123825000D01*
X167493000Y-123825000D01*
X167493000Y-123571000D01*
X167513000Y-123571000D01*
X167513000Y-122211783D01*
X167280974Y-122090642D01*
X167265209Y-122093291D01*
X166737964Y-122347268D01*
X166387889Y-122739086D01*
X166256120Y-122541880D01*
X166188459Y-122496670D01*
X166159670Y-122453585D01*
X165673489Y-122128729D01*
X165100000Y-122014655D01*
X164526511Y-122128729D01*
X164040330Y-122453585D01*
X164011541Y-122496670D01*
X163943880Y-122541880D01*
X163812111Y-122739086D01*
X163462036Y-122347268D01*
X162934791Y-122093291D01*
X162919026Y-122090642D01*
X162687000Y-122211783D01*
X162687000Y-123571000D01*
X162707000Y-123571000D01*
X162707000Y-123825000D01*
X162687000Y-123825000D01*
X162687000Y-125184217D01*
X162919026Y-125305358D01*
X162934791Y-125302709D01*
X163462036Y-125048732D01*
X163465000Y-125045415D01*
X163465000Y-125590015D01*
X163464999Y-125590020D01*
X163589457Y-126215708D01*
X163943880Y-126746140D01*
X164267870Y-127070130D01*
X164798302Y-127424553D01*
X165423990Y-127549011D01*
X165423995Y-127549010D01*
X171873000Y-127549010D01*
X171873000Y-128873000D01*
X125127000Y-128873000D01*
X125127000Y-127873000D01*
X133413280Y-127873000D01*
X133413285Y-127873001D01*
X134038973Y-127748543D01*
X134569405Y-127394120D01*
X136538117Y-125425407D01*
X136538120Y-125425405D01*
X136888282Y-124901349D01*
X137019964Y-125048732D01*
X137547209Y-125302709D01*
X137562974Y-125305358D01*
X137795000Y-125184217D01*
X137795000Y-123825000D01*
X137775000Y-123825000D01*
X137775000Y-123571000D01*
X137795000Y-123571000D01*
X137795000Y-123551000D01*
X138049000Y-123551000D01*
X138049000Y-123571000D01*
X138069000Y-123571000D01*
X138069000Y-123825000D01*
X138049000Y-123825000D01*
X138049000Y-125184217D01*
X138281026Y-125305358D01*
X138296791Y-125302709D01*
X138824036Y-125048732D01*
X139195539Y-124632931D01*
X139402330Y-124942415D01*
X139888511Y-125267271D01*
X140462000Y-125381345D01*
X141035489Y-125267271D01*
X141521670Y-124942415D01*
X141728461Y-124632931D01*
X142099964Y-125048732D01*
X142627209Y-125302709D01*
X142642974Y-125305358D01*
X142875000Y-125184217D01*
X142875000Y-123825000D01*
X142855000Y-123825000D01*
X142855000Y-123571000D01*
X142875000Y-123571000D01*
X142875000Y-123551000D01*
X143129000Y-123551000D01*
X143129000Y-123571000D01*
X143149000Y-123571000D01*
X143149000Y-123825000D01*
X143129000Y-123825000D01*
X143129000Y-125184217D01*
X143361026Y-125305358D01*
X143376791Y-125302709D01*
X143904036Y-125048732D01*
X144254111Y-124656914D01*
X144385880Y-124854120D01*
X144453541Y-124899330D01*
X144482330Y-124942415D01*
X144968511Y-125267271D01*
X145542000Y-125381345D01*
X146115489Y-125267271D01*
X146601670Y-124942415D01*
X146630459Y-124899330D01*
X146698120Y-124854120D01*
X147052543Y-124323687D01*
X147120160Y-123983750D01*
X150901400Y-123983750D01*
X150901400Y-124840310D01*
X150998073Y-125073699D01*
X151176702Y-125252327D01*
X151410091Y-125349000D01*
X152114250Y-125349000D01*
X152273000Y-125190250D01*
X152273000Y-123825000D01*
X151060150Y-123825000D01*
X150901400Y-123983750D01*
X147120160Y-123983750D01*
X147177000Y-123698000D01*
X147177000Y-122555690D01*
X150901400Y-122555690D01*
X150901400Y-123412250D01*
X151060150Y-123571000D01*
X152273000Y-123571000D01*
X152273000Y-122205750D01*
X152114250Y-122047000D01*
X151410091Y-122047000D01*
X151176702Y-122143673D01*
X150998073Y-122322301D01*
X150901400Y-122555690D01*
X147177000Y-122555690D01*
X147177000Y-122542000D01*
X147052543Y-121916313D01*
X146698120Y-121385880D01*
X146698117Y-121385878D01*
X145156120Y-119843880D01*
X144625688Y-119489457D01*
X144000000Y-119364999D01*
X143999995Y-119365000D01*
X142276452Y-119365000D01*
X140070447Y-117894330D01*
X140044593Y-117881086D01*
X132127000Y-114911989D01*
X132127000Y-102127000D01*
X139873000Y-102127000D01*
X139873000Y-113000000D01*
G36*
X126745694Y-122057934D02*
X126538702Y-122143673D01*
X126360073Y-122322301D01*
X126263400Y-122555690D01*
X126263400Y-123412250D01*
X126422150Y-123571000D01*
X127635000Y-123571000D01*
X127635000Y-123551000D01*
X127889000Y-123551000D01*
X127889000Y-123571000D01*
X127909000Y-123571000D01*
X127909000Y-123825000D01*
X127889000Y-123825000D01*
X127889000Y-123845000D01*
X127635000Y-123845000D01*
X127635000Y-123825000D01*
X126422150Y-123825000D01*
X126263400Y-123983750D01*
X126263400Y-124603000D01*
X125127000Y-124603000D01*
X125127000Y-120439240D01*
X126745694Y-122057934D01*
X126745694Y-122057934D01*
G37*
X126745694Y-122057934D02*
X126538702Y-122143673D01*
X126360073Y-122322301D01*
X126263400Y-122555690D01*
X126263400Y-123412250D01*
X126422150Y-123571000D01*
X127635000Y-123571000D01*
X127635000Y-123551000D01*
X127889000Y-123551000D01*
X127889000Y-123571000D01*
X127909000Y-123571000D01*
X127909000Y-123825000D01*
X127889000Y-123825000D01*
X127889000Y-123845000D01*
X127635000Y-123845000D01*
X127635000Y-123825000D01*
X126422150Y-123825000D01*
X126263400Y-123983750D01*
X126263400Y-124603000D01*
X125127000Y-124603000D01*
X125127000Y-120439240D01*
X126745694Y-122057934D01*
G36*
X132969000Y-123571000D02*
X132989000Y-123571000D01*
X132989000Y-123825000D01*
X132969000Y-123825000D01*
X132969000Y-123845000D01*
X132715000Y-123845000D01*
X132715000Y-123825000D01*
X132695000Y-123825000D01*
X132695000Y-123571000D01*
X132715000Y-123571000D01*
X132715000Y-123551000D01*
X132969000Y-123551000D01*
X132969000Y-123571000D01*
X132969000Y-123571000D01*
G37*
X132969000Y-123571000D02*
X132989000Y-123571000D01*
X132989000Y-123825000D01*
X132969000Y-123825000D01*
X132969000Y-123845000D01*
X132715000Y-123845000D01*
X132715000Y-123825000D01*
X132695000Y-123825000D01*
X132695000Y-123571000D01*
X132715000Y-123571000D01*
X132715000Y-123551000D01*
X132969000Y-123551000D01*
X132969000Y-123571000D01*
M02*
