M48
;DRILL file {KiCad 4.0.7} date 10/08/17 10:55:59
;FORMAT={-:-/ absolute / inch / decimal}
FMAT,2
INCH,TZ
T1C0.016
T2C0.028
T3C0.040
T4C0.045
T5C0.106
%
G90
G05
M72
T1
X2.71Y-4.145
X2.76Y-3.26
X2.77Y-4.15
X2.7756Y-4.2441
X2.78Y-2.56
X2.7875Y-4.6575
X2.8197Y-2.761
X2.83Y-3.1681
X2.8425Y-4.6339
X2.8624Y-2.7428
X2.88Y-4.37
X2.8819Y-2.5787
X2.8898Y-2.4252
X2.89Y-4.18
X2.9Y-4.09
X2.9173Y-4.6339
X2.9348Y-2.77
X2.9375Y-2.4125
X2.945Y-2.3425
X2.955Y-4.37
X2.9825Y-4.6375
X2.9843Y-4.4252
X3.Y-3.375
X3.015Y-2.76
X3.025Y-2.53
X3.025Y-4.42
X3.0394Y-4.6417
X3.04Y-4.02
X3.08Y-3.67
X3.1142Y-4.6417
X3.1339Y-2.4882
X3.1339Y-2.9213
X3.1397Y-4.0239
X3.1525Y-2.7275
X3.1535Y-4.4252
X3.155Y-2.2775
X3.1614Y-2.5236
X3.1675Y-2.6275
X3.1775Y-4.63
X3.1811Y-2.8976
X3.1975Y-2.2825
X3.2003Y-4.6614
X3.2047Y-4.5984
X3.2128Y-2.4429
X3.2185Y-2.5807
X3.23Y-2.8169
X3.2441Y-3.53
X3.2508Y-2.3745
X3.29Y-4.11
X3.2924Y-4.2124
X3.2925Y-2.7325
X3.305Y-3.71
X3.325Y-2.5525
X3.36Y-2.48
X3.3682Y-2.6516
X3.37Y-2.82
X3.3782Y-4.1859
X3.382Y-4.6699
X3.3872Y-2.4035
X3.39Y-4.06
X3.395Y-3.645
X3.4075Y-2.6286
X3.4114Y-4.6475
X3.4274Y-4.1893
X3.43Y-3.0529
X3.4325Y-2.5794
X3.436Y-4.5808
X3.4375Y-2.345
X3.4775Y-2.795
X3.495Y-2.965
X3.5Y-4.0575
X3.5079Y-2.75
X3.52Y-4.23
X3.5334Y-2.6366
X3.54Y-2.69
X3.5599Y-2.8108
X3.5605Y-2.8706
X3.5827Y-2.7354
X3.585Y-4.6725
X3.6Y-3.59
X3.6438Y-2.6791
X3.6535Y-3.1772
X3.67Y-3.83
X3.685Y-4.6019
X3.6969Y-3.1417
X3.7008Y-4.4409
X3.715Y-3.865
X3.735Y-3.755
X3.7362Y-3.3189
X3.7402Y-4.1555
X3.77Y-3.06
X3.775Y-4.33
X3.78Y-4.395
X3.8183Y-2.6156
X3.8354Y-3.3684
X3.8434Y-2.6909
X3.8592Y-2.5853
X3.87Y-3.34
X3.885Y-2.91
X3.92Y-3.36
X3.9329Y-3.7814
X3.9492Y-2.2234
X3.9578Y-2.5772
X3.9685Y-2.8734
X3.9803Y-3.3386
X4.0013Y-3.077
X4.025Y-4.4142
X4.0275Y-2.7846
X4.067Y-3.741
X4.09Y-2.745
X4.0984Y-2.2559
X4.1028Y-2.6715
X4.1028Y-2.6715
X4.1028Y-2.6715
X4.105Y-2.63
X4.125Y-2.39
X4.135Y-2.7586
X4.15Y-3.8
X4.18Y-2.67
X4.1838Y-2.624
X4.2209Y-3.8287
X4.2277Y-2.6761
X4.2429Y-4.8477
X4.245Y-2.89
X4.25Y-4.43
X4.2504Y-2.5446
X4.2592Y-2.6757
X4.26Y-2.405
X4.28Y-3.01
X4.285Y-4.36
X4.2865Y-2.8266
X4.3Y-3.135
X4.3Y-3.52
X4.31Y-3.6
X4.31Y-4.885
X4.3159Y-4.4154
X4.325Y-3.855
X4.3422Y-3.8197
X4.4447Y-2.6791
X4.4481Y-2.7104
X4.47Y-3.52
X4.47Y-3.59
X4.4712Y-2.6028
X4.4896Y-2.7604
X4.512Y-2.729
X4.515Y-4.855
X4.61Y-3.095
X4.61Y-3.165
X4.63Y-3.51
X4.63Y-3.59
X4.6315Y-4.3915
X4.775Y-3.75
X4.79Y-3.52
X4.79Y-3.62
X4.795Y-2.645
X4.805Y-2.44
X4.95Y-3.51
X4.95Y-3.59
X5.1Y-3.52
X5.11Y-3.61
X5.1575Y-3.9606
X5.2677Y-3.3701
X5.315Y-3.5039
X5.748Y-3.5039
X5.91Y-3.665
X5.92Y-3.6
X5.945Y-3.515
X6.085Y-3.515
X6.1Y-3.585
X6.15Y-3.605
X6.24Y-3.525
X6.2454Y-3.645
X6.27Y-3.88
X6.27Y-4.075
X6.27Y-3.42
X6.34Y-4.055
X6.35Y-4.12
X6.355Y-3.89
X6.385Y-3.42
X6.41Y-3.535
X6.41Y-3.64
X6.475Y-3.8031
X6.585Y-3.645
X6.595Y-3.535
X6.685Y-3.64
X6.69Y-3.895
X6.755Y-3.53
X6.79Y-3.8796
X6.8543Y-3.0138
X6.865Y-3.965
X6.89Y-3.545
X6.895Y-3.355
X6.905Y-3.645
X6.915Y-3.715
X6.93Y-4.605
X6.945Y-4.76
X6.955Y-3.325
X6.98Y-2.59
X6.9996Y-3.375
X7.005Y-4.015
X7.0272Y-3.3903
X7.0724Y-3.365
X7.0726Y-3.3126
X7.0907Y-3.3906
X7.108Y-3.7021
X7.1281Y-4.6022
X7.1457Y-2.8001
X7.155Y-3.73
X7.165Y-2.825
X7.17Y-2.88
X7.175Y-3.88
X7.18Y-4.5569
X7.1801Y-3.3259
X7.185Y-3.745
X7.1969Y-2.9311
X7.205Y-3.965
X7.21Y-3.535
X7.225Y-3.745
X7.235Y-3.445
X7.2408Y-4.5308
X7.265Y-4.59
X7.2704Y-4.5425
X7.2827Y-2.4494
X7.29Y-2.48
X7.2904Y-2.8293
X7.295Y-4.76
X7.3189Y-2.685
X7.325Y-4.86
X7.4001Y-4.0149
X7.4254Y-4.6524
X7.4439Y-2.4765
X7.4453Y-2.6817
X7.455Y-2.9
X7.455Y-4.49
X7.4724Y-2.5591
X7.5Y-2.74
X7.5Y-4.5569
X7.505Y-3.345
X7.505Y-4.45
X7.5235Y-4.4985
X7.53Y-3.955
X7.545Y-4.7
X7.56Y-2.88
X7.565Y-2.82
X7.5754Y-4.4672
X7.583Y-2.4098
X7.6Y-2.85
X7.622Y-2.4055
X7.635Y-2.605
X7.644Y-4.862
X7.65Y-3.6975
X7.6601Y-4.9185
X7.6874Y-4.8961
X7.7196Y-4.0164
X7.7447Y-4.4752
X7.755Y-4.51
X7.7647Y-4.4204
X7.765Y-4.615
X7.77Y-2.82
X7.77Y-2.875
X7.8171Y-4.4827
X7.82Y-4.5569
X7.83Y-3.325
X7.9034Y-2.8262
X7.905Y-3.28
X7.9055Y-4.2205
X7.93Y-4.725
X7.9304Y-4.44
X7.9304Y-4.4735
X7.935Y-4.86
X8.07Y-4.315
X8.085Y-4.54
X8.095Y-4.61
X8.1333Y-4.4558
X8.135Y-4.41
X8.145Y-4.485
X8.18Y-4.445
X8.2167Y-4.7442
X8.2421Y-2.797
X8.2559Y-2.4685
X8.2717Y-2.5157
X8.28Y-4.1819
X8.28Y-4.2881
X8.28Y-4.64
X8.285Y-2.995
X8.305Y-4.885
X8.325Y-4.59
X8.34Y-3.03
X8.35Y-4.555
X8.355Y-4.69
X8.3583Y-2.4882
X8.3672Y-4.6178
X8.37Y-4.415
X8.378Y-4.3307
X8.395Y-2.86
X8.395Y-3.135
X8.3996Y-2.4488
X8.42Y-4.9154
X8.4249Y-4.2209
X8.475Y-2.565
X8.48Y-4.2881
X8.48Y-4.535
X8.48Y-4.75
X8.515Y-2.75
X8.515Y-2.855
X8.53Y-4.435
X8.53Y-4.54
X8.54Y-4.94
X8.5551Y-2.4843
X8.5571Y-4.3281
X8.56Y-2.905
X8.57Y-2.855
X8.575Y-2.57
X8.575Y-3.01
X8.5784Y-4.235
X8.585Y-4.675
X8.5925Y-2.4488
X8.5925Y-4.3524
X8.5925Y-4.4272
X8.61Y-4.63
X8.6126Y-2.707
X8.6218Y-2.9041
X8.6228Y-2.74
X8.625Y-3.065
X8.68Y-4.1819
X8.715Y-4.68
X8.72Y-2.69
X8.7218Y-2.9795
X8.73Y-2.89
X8.73Y-3.035
X8.7402Y-4.3622
X8.7402Y-4.437
X8.7731Y-4.68
X8.7785Y-3.0414
X8.785Y-3.285
X8.7933Y-2.4488
X8.8365Y-2.992
X8.8399Y-2.7947
X8.8415Y-3.0823
X8.8425Y-4.5276
X8.845Y-4.465
X8.8494Y-4.8244
X8.8654Y-2.895
X8.88Y-4.1819
X8.9525Y-2.8512
X8.96Y-2.99
X8.9685Y-2.7795
X8.9748Y-3.2329
X8.9843Y-2.5039
X9.0512Y-3.085
T2
X3.6929Y-3.0787
X3.8504Y-4.0945
X4.0709Y-3.063
X4.1811Y-4.0945
X4.3543Y-3.0561
X4.4961Y-4.0945
X4.6772Y-3.0709
X4.8189Y-4.0945
X7.0472Y-4.126
X7.0551Y-3.0945
X7.3622Y-4.1102
X7.3858Y-3.1102
X7.685Y-4.1102
X7.7165Y-3.1024
X8.0079Y-4.1102
X8.0236Y-3.1181
T3
X2.725Y-3.475
X2.725Y-3.575
X3.3Y-3.31
X3.4Y-3.31
X5.03Y-2.33
X5.03Y-4.87
X5.07Y-3.93
X5.07Y-4.03
X5.07Y-4.22
X5.07Y-4.32
X5.13Y-2.33
X5.13Y-4.87
X5.215Y-3.075
X5.23Y-2.33
X5.23Y-4.87
X5.315Y-3.075
X5.33Y-2.33
X5.33Y-4.87
X5.43Y-2.33
X5.43Y-4.87
X5.53Y-2.33
X5.53Y-4.87
X5.63Y-2.33
X5.63Y-4.87
X5.73Y-2.33
X5.73Y-4.87
X6.Y-2.33
X6.Y-4.87
X6.1Y-2.33
X6.1Y-4.87
X6.2Y-2.33
X6.2Y-4.87
X6.3Y-2.33
X6.3Y-4.87
X6.4Y-2.33
X6.4Y-4.87
X6.5Y-2.33
X6.5Y-4.87
X6.525Y-2.95
X6.6Y-2.33
X6.6Y-4.87
X6.625Y-2.95
X6.7Y-2.33
X6.7Y-4.87
X7.38Y-3.47
X7.48Y-3.47
X8.99Y-3.605
X8.99Y-3.705
T4
X3.71Y-2.43
X3.71Y-2.53
X3.71Y-2.63
X3.85Y-4.56
X3.85Y-4.66
X3.85Y-4.76
X4.03Y-2.43
X4.03Y-2.53
X4.03Y-2.63
X4.18Y-4.56
X4.18Y-4.66
X4.18Y-4.76
X4.35Y-2.43
X4.35Y-2.53
X4.35Y-2.63
X4.5Y-4.56
X4.5Y-4.66
X4.5Y-4.76
X4.67Y-2.43
X4.67Y-2.53
X4.67Y-2.63
X4.82Y-4.56
X4.82Y-4.66
X4.82Y-4.76
X7.0469Y-4.5872
X7.0469Y-4.6872
X7.0469Y-4.7872
X7.06Y-2.435
X7.06Y-2.535
X7.06Y-2.635
X7.3669Y-4.5872
X7.3669Y-4.6872
X7.3669Y-4.7872
X7.3833Y-2.435
X7.3833Y-2.535
X7.3833Y-2.635
X7.6869Y-4.5872
X7.6869Y-4.6872
X7.6869Y-4.7872
X7.7067Y-2.435
X7.7067Y-2.535
X7.7067Y-2.635
X8.0069Y-4.5872
X8.0069Y-4.6872
X8.0069Y-4.7872
X8.03Y-2.435
X8.03Y-2.535
X8.03Y-2.635
T5
X5.6235Y-2.7913
X5.6235Y-3.2165
X5.6435Y-3.9713
X5.6435Y-4.3965
X5.8286Y-2.7913
X5.8286Y-3.2165
X5.8486Y-3.9713
X5.8486Y-4.3965
X6.0337Y-2.7913
X6.0337Y-3.2165
X6.0537Y-3.9713
X6.0537Y-4.3965
T0
M30
