G04 #@! TF.FileFunction,Soldermask,Bot*
%FSLAX46Y46*%
G04 Gerber Fmt 4.6, Leading zero omitted, Abs format (unit mm)*
G04 Created by KiCad (PCBNEW 4.0.7) date 10/08/17 10:55:57*
%MOMM*%
%LPD*%
G01*
G04 APERTURE LIST*
%ADD10C,0.100000*%
%ADD11C,3.600000*%
%ADD12O,2.940000X2.432000*%
%ADD13R,2.432000X2.432000*%
%ADD14O,2.432000X2.432000*%
%ADD15C,4.400000*%
%ADD16R,2.127200X2.432000*%
%ADD17O,2.127200X2.432000*%
%ADD18R,1.700000X1.900000*%
%ADD19R,1.900000X1.700000*%
G04 APERTURE END LIST*
D10*
D11*
X63500000Y-125730000D03*
X63500000Y-58420000D03*
X237490000Y-125730000D03*
D12*
X102362000Y-64262000D03*
X102362000Y-66802000D03*
X102362000Y-61722000D03*
X110490000Y-64262000D03*
X110490000Y-66802000D03*
X110490000Y-61722000D03*
X94234000Y-64262000D03*
X94234000Y-66802000D03*
X94234000Y-61722000D03*
X118618000Y-64262000D03*
X118618000Y-66802000D03*
X118618000Y-61722000D03*
D13*
X132461000Y-78105000D03*
D14*
X135001000Y-78105000D03*
D15*
X142836000Y-81700000D03*
X142836000Y-70900000D03*
X148046000Y-81700000D03*
X148046000Y-70900000D03*
X153256000Y-81700000D03*
X153256000Y-70900000D03*
D13*
X128778000Y-107188000D03*
D14*
X128778000Y-109728000D03*
D13*
X128778000Y-99822000D03*
D14*
X128778000Y-102362000D03*
D15*
X143344000Y-111672000D03*
X143344000Y-100872000D03*
X148554000Y-111672000D03*
X148554000Y-100872000D03*
X153764000Y-111672000D03*
X153764000Y-100872000D03*
D16*
X127762000Y-59182000D03*
D17*
X130302000Y-59182000D03*
X132842000Y-59182000D03*
X135382000Y-59182000D03*
X137922000Y-59182000D03*
X140462000Y-59182000D03*
X143002000Y-59182000D03*
X145542000Y-59182000D03*
D16*
X127762000Y-123698000D03*
D17*
X130302000Y-123698000D03*
X132842000Y-123698000D03*
X135382000Y-123698000D03*
X137922000Y-123698000D03*
X140462000Y-123698000D03*
X143002000Y-123698000D03*
X145542000Y-123698000D03*
D16*
X152400000Y-59182000D03*
D17*
X154940000Y-59182000D03*
X157480000Y-59182000D03*
X160020000Y-59182000D03*
X162560000Y-59182000D03*
X165100000Y-59182000D03*
X167640000Y-59182000D03*
X170180000Y-59182000D03*
D16*
X152400000Y-123698000D03*
D17*
X154940000Y-123698000D03*
X157480000Y-123698000D03*
X160020000Y-123698000D03*
X162560000Y-123698000D03*
X165100000Y-123698000D03*
X167640000Y-123698000D03*
X170180000Y-123698000D03*
D13*
X168275000Y-74930000D03*
D14*
X165735000Y-74930000D03*
D12*
X179324000Y-64389000D03*
X179324000Y-66929000D03*
X179324000Y-61849000D03*
X187536666Y-64389000D03*
X187536666Y-66929000D03*
X187536666Y-61849000D03*
X97790000Y-118364000D03*
X97790000Y-115824000D03*
X97790000Y-120904000D03*
X106172000Y-118364000D03*
X106172000Y-115824000D03*
X106172000Y-120904000D03*
X114300000Y-118364000D03*
X114300000Y-115824000D03*
X114300000Y-120904000D03*
X122428000Y-118364000D03*
X122428000Y-115824000D03*
X122428000Y-120904000D03*
X195749332Y-64389000D03*
X195749332Y-66929000D03*
X195749332Y-61849000D03*
X203961998Y-64389000D03*
X203961998Y-66929000D03*
X203961998Y-61849000D03*
X178990855Y-119054938D03*
X178990855Y-116514938D03*
X178990855Y-121594938D03*
X187118854Y-119054938D03*
X187118854Y-116514938D03*
X187118854Y-121594938D03*
X195246853Y-119054938D03*
X195246853Y-116514938D03*
X195246853Y-121594938D03*
X203374852Y-119054938D03*
X203374852Y-116514938D03*
X203374852Y-121594938D03*
D13*
X69215000Y-88265000D03*
D14*
X69215000Y-90805000D03*
D13*
X228346000Y-91567000D03*
D14*
X228346000Y-94107000D03*
D13*
X83820000Y-84074000D03*
D14*
X86360000Y-84074000D03*
D13*
X187452000Y-88138000D03*
D14*
X189992000Y-88138000D03*
D11*
X237490000Y-58420000D03*
D18*
X82677000Y-60816500D03*
X82677000Y-63516500D03*
X87185500Y-60753000D03*
X87185500Y-63453000D03*
X82740500Y-68088500D03*
X82740500Y-65388500D03*
X87185500Y-68215500D03*
X87185500Y-65515500D03*
D19*
X71802000Y-119697500D03*
X74502000Y-119697500D03*
X76818500Y-119697500D03*
X79518500Y-119697500D03*
X82025500Y-119697500D03*
X84725500Y-119697500D03*
X87169000Y-119761000D03*
X89869000Y-119761000D03*
D18*
X211582000Y-82169000D03*
X211582000Y-79469000D03*
X216662000Y-82249000D03*
X216662000Y-79549000D03*
X221742000Y-82169000D03*
X221742000Y-79469000D03*
X228092000Y-82249000D03*
X228092000Y-79549000D03*
X210312000Y-106219000D03*
X210312000Y-108919000D03*
X215392000Y-106219000D03*
X215392000Y-108919000D03*
X220472000Y-106219000D03*
X220472000Y-108919000D03*
X225552000Y-106219000D03*
X225552000Y-108919000D03*
M02*
