M48
;DRILL file {KiCad 4.0.6-e0-6349~53~ubuntu16.04.1} date Wed Aug  9 14:24:51 2017
;FORMAT={-:-/ absolute / metric / decimal}
FMAT,2
METRIC,TZ
T1C0.400
T2C0.700
T3C1.016
T4C1.143
T5C2.700
%
G90
G05
M71
T1
X69.Y-105.2
X70.104Y-82.804
X70.4Y-105.3
X70.5Y-107.799
X70.612Y-65.024
X71.628Y-70.104
X72.2Y-117.7
X72.898Y-69.85
X73.152Y-110.998
X73.2Y-65.5
X73.4Y-61.6
X73.406Y-106.172
X73.66Y-103.886
X74.422Y-70.358
X74.75Y-59.5
X74.75Y-61.25
X75.057Y-110.998
X75.8Y-112.4
X76.2Y-85.725
X76.581Y-70.104
X76.835Y-64.262
X76.835Y-112.268
X77.2Y-117.9
X77.216Y-102.108
X78.232Y-93.218
X79.6Y-63.2
X79.6Y-74.2
X79.75Y-102.206
X80.1Y-112.4
X80.2Y-58.8
X80.3Y-64.1
X80.8Y-73.6
X81.1Y-59.
X81.288Y-118.4
X81.4Y-68.8
X81.4Y-116.8
X82.042Y-71.548
X82.4Y-63.4
X82.4Y-89.662
X83.566Y-104.394
X83.6Y-69.2
X83.628Y-106.996
X83.947Y-94.234
X85.598Y-71.628
X85.6Y-67.
X85.806Y-106.322
X86.106Y-103.124
X86.233Y-92.583
X86.25Y-62.95
X86.7Y-108.
X87.Y-116.4
X87.056Y-106.409
X87.122Y-77.544
X88.2Y-68.8
X88.3Y-71.5
X89.147Y-76.807
X89.281Y-69.85
X89.408Y-107.442
X89.747Y-66.971
X89.916Y-68.326
X90.421Y-71.393
X90.424Y-72.898
X91.Y-69.479
X91.44Y-91.186
X92.552Y-68.049
X92.8Y-80.7
X93.218Y-97.282
X93.599Y-116.887
X93.9Y-79.8
X94.Y-112.8
X94.361Y-98.171
X94.869Y-95.377
X94.9Y-84.3
X95.Y-105.55
X95.758Y-77.724
X95.885Y-109.982
X96.012Y-111.633
X96.985Y-66.436
X97.419Y-85.558
X97.621Y-68.349
X98.023Y-65.665
X98.298Y-84.836
X98.679Y-73.914
X99.568Y-85.344
X99.895Y-96.047
X100.31Y-56.475
X100.527Y-65.462
X100.8Y-72.985
X101.1Y-84.8
X101.634Y-78.155
X102.235Y-112.121
X102.297Y-70.729
X103.302Y-95.02
X103.886Y-69.723
X104.1Y-57.3
X104.212Y-67.855
X104.212Y-67.855
X104.212Y-67.855
X104.267Y-66.802
X104.775Y-60.706
X105.028Y-70.068
X105.41Y-96.52
X106.172Y-67.818
X106.268Y-66.65
X107.212Y-97.248
X107.383Y-67.972
X107.769Y-123.131
X107.823Y-73.406
X107.95Y-112.522
X107.96Y-64.633
X108.183Y-67.964
X108.204Y-61.087
X108.712Y-76.454
X108.839Y-110.744
X108.876Y-71.796
X109.22Y-79.629
X109.22Y-89.408
X109.474Y-91.44
X109.474Y-124.079
X109.625Y-112.151
X109.855Y-97.917
X110.293Y-97.02
X112.896Y-68.049
X112.981Y-68.844
X113.538Y-89.408
X113.538Y-91.186
X113.569Y-66.111
X114.036Y-70.114
X114.606Y-69.316
X114.681Y-123.317
X117.094Y-78.613
X117.094Y-80.391
X117.602Y-89.154
X117.602Y-91.186
X117.639Y-111.544
X121.285Y-95.25
X121.666Y-89.408
X121.666Y-91.948
X121.793Y-67.183
X122.047Y-61.976
X125.73Y-89.154
X125.73Y-91.186
X129.54Y-89.408
X129.794Y-91.694
X131.Y-100.6
X133.8Y-85.6
X135.Y-89.
X146.Y-89.
X150.114Y-93.091
X150.368Y-91.44
X151.003Y-89.281
X154.559Y-89.281
X154.94Y-91.059
X156.21Y-91.567
X158.496Y-89.535
X158.633Y-92.583
X159.258Y-98.552
X159.258Y-103.505
X159.258Y-86.868
X161.036Y-102.997
X161.29Y-104.648
X161.417Y-98.806
X162.179Y-86.868
X162.814Y-89.789
X162.814Y-92.456
X164.465Y-96.6
X167.259Y-92.583
X167.513Y-89.789
X169.799Y-92.456
X169.926Y-98.933
X171.577Y-89.662
X172.466Y-98.542
X174.1Y-76.55
X174.371Y-100.711
X175.006Y-90.043
X175.133Y-85.217
X175.387Y-92.583
X175.641Y-94.361
X176.022Y-116.967
X176.403Y-120.904
X176.657Y-84.455
X177.292Y-65.786
X177.79Y-85.725
X177.927Y-101.981
X178.49Y-86.113
X179.638Y-85.471
X179.644Y-84.14
X180.105Y-86.121
X180.544Y-94.032
X181.054Y-116.895
X181.501Y-71.123
X181.737Y-94.742
X181.991Y-71.755
X182.118Y-73.152
X182.245Y-98.552
X182.372Y-115.744
X182.375Y-84.477
X182.499Y-95.123
X182.8Y-74.45
X183.007Y-100.711
X183.134Y-89.789
X183.515Y-95.123
X183.769Y-87.503
X183.917Y-115.083
X184.531Y-116.586
X184.668Y-115.38
X184.979Y-62.214
X185.166Y-62.992
X185.176Y-71.864
X185.293Y-120.904
X185.9Y-68.2
X186.055Y-123.444
X187.962Y-101.979
X188.605Y-118.172
X189.075Y-62.902
X189.111Y-68.116
X189.357Y-73.66
X189.357Y-114.046
X189.8Y-65.
X190.5Y-69.596
X190.5Y-115.744
X190.627Y-84.963
X190.627Y-113.03
X191.098Y-114.263
X191.262Y-100.457
X191.643Y-119.38
X192.024Y-73.152
X192.151Y-71.628
X192.415Y-113.466
X192.608Y-61.208
X193.04Y-72.39
X193.6Y-61.1
X193.929Y-66.167
X194.158Y-123.495
X194.31Y-93.916
X194.565Y-124.929
X195.261Y-124.362
X196.078Y-102.017
X196.715Y-113.671
X196.977Y-114.554
X197.223Y-112.279
X197.231Y-117.221
X197.358Y-71.628
X197.358Y-73.025
X198.554Y-113.861
X198.628Y-115.744
X198.882Y-84.455
X200.745Y-71.785
X200.787Y-83.312
X200.8Y-107.2
X201.422Y-120.015
X201.432Y-112.776
X201.432Y-113.626
X201.549Y-123.444
X204.978Y-109.601
X205.359Y-115.316
X205.613Y-117.094
X206.586Y-113.176
X206.629Y-112.014
X206.883Y-113.919
X207.772Y-112.903
X208.704Y-120.504
X209.349Y-71.044
X209.7Y-62.7
X210.1Y-63.9
X210.312Y-115.316
X210.312Y-117.856
X210.947Y-124.079
X211.455Y-116.586
X211.475Y-114.798
X212.217Y-119.126
X212.295Y-114.798
X212.3Y-63.2
X212.7Y-112.267
X212.7Y-117.7
X212.8Y-110.
X213.233Y-72.644
X213.35Y-62.2
X213.868Y-124.851
X213.9Y-107.302
X213.9Y-109.2
X214.95Y-112.046
X215.2Y-115.1
X215.392Y-120.65
X216.05Y-112.718
X216.281Y-69.85
X216.281Y-72.517
X216.662Y-115.316
X216.916Y-125.476
X217.3Y-63.1
X217.424Y-73.787
X217.678Y-72.517
X217.805Y-76.454
X218.059Y-118.745
X218.25Y-62.2
X218.25Y-112.45
X218.537Y-67.509
X218.694Y-117.602
X218.761Y-68.759
X218.994Y-73.765
X219.019Y-69.596
X219.072Y-107.21
X219.2Y-109.6
X221.082Y-66.065
X221.361Y-118.872
X221.488Y-68.326
X221.535Y-75.679
X221.742Y-73.406
X222.Y-112.7
X222.838Y-118.872
X222.974Y-77.252
X223.139Y-83.439
X223.2Y-109.8
X223.3Y-72.3
X223.35Y-62.2
X224.1Y-110.7
X224.152Y-107.21
X224.447Y-75.996
X224.534Y-70.985
X224.574Y-78.29
X224.6Y-115.
X224.663Y-113.411
X224.776Y-122.541
X225.181Y-73.533
X226.441Y-74.803
X227.394Y-72.421
X227.584Y-75.946
X227.6Y-110.9
X227.8Y-70.6
X228.2Y-63.6
T2
X93.8Y-78.2
X97.8Y-104.
X103.4Y-77.8
X106.2Y-104.
X110.6Y-77.626
X114.2Y-104.
X118.8Y-78.
X122.4Y-104.
X179.Y-104.8
X179.2Y-78.6
X187.Y-104.4
X187.6Y-79.
X195.2Y-104.4
X196.Y-78.8
X203.4Y-104.4
X203.8Y-79.2
T3
X69.215Y-88.265
X69.215Y-90.805
X83.82Y-84.074
X86.36Y-84.074
X127.762Y-59.182
X127.762Y-123.698
X128.778Y-99.822
X128.778Y-102.362
X128.778Y-107.188
X128.778Y-109.728
X130.302Y-59.182
X130.302Y-123.698
X132.461Y-78.105
X132.842Y-59.182
X132.842Y-123.698
X135.001Y-78.105
X135.382Y-59.182
X135.382Y-123.698
X137.922Y-59.182
X137.922Y-123.698
X140.462Y-59.182
X140.462Y-123.698
X143.002Y-59.182
X143.002Y-123.698
X145.542Y-59.182
X145.542Y-123.698
X152.4Y-59.182
X152.4Y-123.698
X154.94Y-59.182
X154.94Y-123.698
X157.48Y-59.182
X157.48Y-123.698
X160.02Y-59.182
X160.02Y-123.698
X162.56Y-59.182
X162.56Y-123.698
X165.1Y-59.182
X165.1Y-123.698
X165.735Y-74.93
X167.64Y-59.182
X167.64Y-123.698
X168.275Y-74.93
X170.18Y-59.182
X170.18Y-123.698
X187.452Y-88.138
X189.992Y-88.138
X228.346Y-91.567
X228.346Y-94.107
T4
X94.234Y-61.722
X94.234Y-64.262
X94.234Y-66.802
X97.79Y-115.824
X97.79Y-118.364
X97.79Y-120.904
X102.362Y-61.722
X102.362Y-64.262
X102.362Y-66.802
X106.172Y-115.824
X106.172Y-118.364
X106.172Y-120.904
X110.49Y-61.722
X110.49Y-64.262
X110.49Y-66.802
X114.3Y-115.824
X114.3Y-118.364
X114.3Y-120.904
X118.618Y-61.722
X118.618Y-64.262
X118.618Y-66.802
X122.428Y-115.824
X122.428Y-118.364
X122.428Y-120.904
X178.991Y-116.515
X178.991Y-119.055
X178.991Y-121.595
X179.324Y-61.849
X179.324Y-64.389
X179.324Y-66.929
X187.119Y-116.515
X187.119Y-119.055
X187.119Y-121.595
X187.537Y-61.849
X187.537Y-64.389
X187.537Y-66.929
X195.247Y-116.515
X195.247Y-119.055
X195.247Y-121.595
X195.749Y-61.849
X195.749Y-64.389
X195.749Y-66.929
X203.375Y-116.515
X203.375Y-119.055
X203.375Y-121.595
X203.962Y-61.849
X203.962Y-64.389
X203.962Y-66.929
T5
X142.836Y-70.9
X142.836Y-81.7
X143.344Y-100.872
X143.344Y-111.672
X148.046Y-70.9
X148.046Y-81.7
X148.554Y-100.872
X148.554Y-111.672
X153.256Y-70.9
X153.256Y-81.7
X153.764Y-100.872
X153.764Y-111.672
T0
M30
