G04 #@! TF.FileFunction,Legend,Top*
%FSLAX46Y46*%
G04 Gerber Fmt 4.6, Leading zero omitted, Abs format (unit mm)*
G04 Created by KiCad (PCBNEW 4.0.0-rc2-stable) date Fri 13 Nov 2015 02:52:16 PM MST*
%MOMM*%
G01*
G04 APERTURE LIST*
%ADD10C,0.150000*%
%ADD11C,0.300000*%
G04 APERTURE END LIST*
D10*
D11*
X206672571Y-114155713D02*
X205172571Y-114155713D01*
X205172571Y-113798570D01*
X205244000Y-113584285D01*
X205386857Y-113441427D01*
X205529714Y-113369999D01*
X205815429Y-113298570D01*
X206029714Y-113298570D01*
X206315429Y-113369999D01*
X206458286Y-113441427D01*
X206601143Y-113584285D01*
X206672571Y-113798570D01*
X206672571Y-114155713D01*
X206672571Y-112012856D02*
X205886857Y-112012856D01*
X205744000Y-112084285D01*
X205672571Y-112227142D01*
X205672571Y-112512856D01*
X205744000Y-112655713D01*
X206601143Y-112012856D02*
X206672571Y-112155713D01*
X206672571Y-112512856D01*
X206601143Y-112655713D01*
X206458286Y-112727142D01*
X206315429Y-112727142D01*
X206172571Y-112655713D01*
X206101143Y-112512856D01*
X206101143Y-112155713D01*
X206029714Y-112012856D01*
X205672571Y-111441427D02*
X206672571Y-111084284D01*
X205672571Y-110727142D01*
X206672571Y-110155713D02*
X205672571Y-110155713D01*
X205172571Y-110155713D02*
X205244000Y-110227142D01*
X205315429Y-110155713D01*
X205244000Y-110084285D01*
X205172571Y-110155713D01*
X205315429Y-110155713D01*
X206672571Y-108798570D02*
X205172571Y-108798570D01*
X206601143Y-108798570D02*
X206672571Y-108941427D01*
X206672571Y-109227141D01*
X206601143Y-109369999D01*
X206529714Y-109441427D01*
X206386857Y-109512856D01*
X205958286Y-109512856D01*
X205815429Y-109441427D01*
X205744000Y-109369999D01*
X205672571Y-109227141D01*
X205672571Y-108941427D01*
X205744000Y-108798570D01*
X206672571Y-106227141D02*
X206672571Y-106941427D01*
X205172571Y-106941427D01*
X206601143Y-105155713D02*
X206672571Y-105298570D01*
X206672571Y-105584284D01*
X206601143Y-105727141D01*
X206458286Y-105798570D01*
X205886857Y-105798570D01*
X205744000Y-105727141D01*
X205672571Y-105584284D01*
X205672571Y-105298570D01*
X205744000Y-105155713D01*
X205886857Y-105084284D01*
X206029714Y-105084284D01*
X206172571Y-105798570D01*
X205672571Y-104441427D02*
X206672571Y-104441427D01*
X205815429Y-104441427D02*
X205744000Y-104369999D01*
X205672571Y-104227141D01*
X205672571Y-104012856D01*
X205744000Y-103869999D01*
X205886857Y-103798570D01*
X206672571Y-103798570D01*
X205672571Y-103298570D02*
X205672571Y-102727141D01*
X206672571Y-103084284D02*
X205386857Y-103084284D01*
X205244000Y-103012856D01*
X205172571Y-102869998D01*
X205172571Y-102727141D01*
X206601143Y-101655713D02*
X206672571Y-101798570D01*
X206672571Y-102084284D01*
X206601143Y-102227141D01*
X206458286Y-102298570D01*
X205886857Y-102298570D01*
X205744000Y-102227141D01*
X205672571Y-102084284D01*
X205672571Y-101798570D01*
X205744000Y-101655713D01*
X205886857Y-101584284D01*
X206029714Y-101584284D01*
X206172571Y-102298570D01*
X206601143Y-101012856D02*
X206672571Y-100869999D01*
X206672571Y-100584284D01*
X206601143Y-100441427D01*
X206458286Y-100369999D01*
X206386857Y-100369999D01*
X206244000Y-100441427D01*
X206172571Y-100584284D01*
X206172571Y-100798570D01*
X206101143Y-100941427D01*
X205958286Y-101012856D01*
X205886857Y-101012856D01*
X205744000Y-100941427D01*
X205672571Y-100798570D01*
X205672571Y-100584284D01*
X205744000Y-100441427D01*
X205672571Y-99941427D02*
X205672571Y-99369998D01*
X205172571Y-99727141D02*
X206458286Y-99727141D01*
X206601143Y-99655713D01*
X206672571Y-99512855D01*
X206672571Y-99369998D01*
X205672571Y-99012855D02*
X206672571Y-98655712D01*
X205672571Y-98298570D02*
X206672571Y-98655712D01*
X207029714Y-98798570D01*
X207101143Y-98869998D01*
X207172571Y-99012855D01*
X205315429Y-96655713D02*
X205244000Y-96584284D01*
X205172571Y-96441427D01*
X205172571Y-96084284D01*
X205244000Y-95941427D01*
X205315429Y-95869998D01*
X205458286Y-95798570D01*
X205601143Y-95798570D01*
X205815429Y-95869998D01*
X206672571Y-96727141D01*
X206672571Y-95798570D01*
X205172571Y-94869999D02*
X205172571Y-94727142D01*
X205244000Y-94584285D01*
X205315429Y-94512856D01*
X205458286Y-94441427D01*
X205744000Y-94369999D01*
X206101143Y-94369999D01*
X206386857Y-94441427D01*
X206529714Y-94512856D01*
X206601143Y-94584285D01*
X206672571Y-94727142D01*
X206672571Y-94869999D01*
X206601143Y-95012856D01*
X206529714Y-95084285D01*
X206386857Y-95155713D01*
X206101143Y-95227142D01*
X205744000Y-95227142D01*
X205458286Y-95155713D01*
X205315429Y-95084285D01*
X205244000Y-95012856D01*
X205172571Y-94869999D01*
X206672571Y-92941428D02*
X206672571Y-93798571D01*
X206672571Y-93369999D02*
X205172571Y-93369999D01*
X205386857Y-93512856D01*
X205529714Y-93655714D01*
X205601143Y-93798571D01*
X205172571Y-91584285D02*
X205172571Y-92298571D01*
X205886857Y-92370000D01*
X205815429Y-92298571D01*
X205744000Y-92155714D01*
X205744000Y-91798571D01*
X205815429Y-91655714D01*
X205886857Y-91584285D01*
X206029714Y-91512857D01*
X206386857Y-91512857D01*
X206529714Y-91584285D01*
X206601143Y-91655714D01*
X206672571Y-91798571D01*
X206672571Y-92155714D01*
X206601143Y-92298571D01*
X206529714Y-92370000D01*
X142111141Y-88078571D02*
X142396855Y-88078571D01*
X142539713Y-88150000D01*
X142682570Y-88292857D01*
X142753998Y-88578571D01*
X142753998Y-89078571D01*
X142682570Y-89364286D01*
X142539713Y-89507143D01*
X142396855Y-89578571D01*
X142111141Y-89578571D01*
X141968284Y-89507143D01*
X141825427Y-89364286D01*
X141753998Y-89078571D01*
X141753998Y-88578571D01*
X141825427Y-88292857D01*
X141968284Y-88150000D01*
X142111141Y-88078571D01*
X143611142Y-89578571D02*
X143468284Y-89507143D01*
X143396856Y-89364286D01*
X143396856Y-88078571D01*
X144182570Y-89578571D02*
X144182570Y-88578571D01*
X144182570Y-88078571D02*
X144111141Y-88150000D01*
X144182570Y-88221429D01*
X144253998Y-88150000D01*
X144182570Y-88078571D01*
X144182570Y-88221429D01*
X144896856Y-88578571D02*
X144896856Y-89578571D01*
X144896856Y-88721429D02*
X144968284Y-88650000D01*
X145111142Y-88578571D01*
X145325427Y-88578571D01*
X145468284Y-88650000D01*
X145539713Y-88792857D01*
X145539713Y-89578571D01*
X146896856Y-88578571D02*
X146896856Y-89578571D01*
X146253999Y-88578571D02*
X146253999Y-89364286D01*
X146325427Y-89507143D01*
X146468285Y-89578571D01*
X146682570Y-89578571D01*
X146825427Y-89507143D01*
X146896856Y-89435714D01*
X147468285Y-89578571D02*
X148253999Y-88578571D01*
X147468285Y-88578571D02*
X148253999Y-89578571D01*
X148825428Y-89578571D02*
X148825428Y-88578571D01*
X148825428Y-88078571D02*
X148753999Y-88150000D01*
X148825428Y-88221429D01*
X148896856Y-88150000D01*
X148825428Y-88078571D01*
X148825428Y-88221429D01*
X149539714Y-88578571D02*
X149539714Y-89578571D01*
X149539714Y-88721429D02*
X149611142Y-88650000D01*
X149754000Y-88578571D01*
X149968285Y-88578571D01*
X150111142Y-88650000D01*
X150182571Y-88792857D01*
X150182571Y-89578571D01*
X151111143Y-89578571D02*
X150968285Y-89507143D01*
X150896857Y-89435714D01*
X150825428Y-89292857D01*
X150825428Y-88864286D01*
X150896857Y-88721429D01*
X150968285Y-88650000D01*
X151111143Y-88578571D01*
X151325428Y-88578571D01*
X151468285Y-88650000D01*
X151539714Y-88721429D01*
X151611143Y-88864286D01*
X151611143Y-89292857D01*
X151539714Y-89435714D01*
X151468285Y-89507143D01*
X151325428Y-89578571D01*
X151111143Y-89578571D01*
X152254000Y-89007143D02*
X153396857Y-89007143D01*
X154825429Y-89578571D02*
X154111143Y-89578571D01*
X154111143Y-88078571D01*
X155325429Y-89578571D02*
X155325429Y-88078571D01*
X156039715Y-89578571D02*
X156039715Y-88078571D01*
X156539715Y-89150000D01*
X157039715Y-88078571D01*
X157039715Y-89578571D01*
X157754001Y-88792857D02*
X158254001Y-88792857D01*
X158468287Y-89578571D02*
X157754001Y-89578571D01*
X157754001Y-88078571D01*
X158468287Y-88078571D01*
X161039715Y-88150000D02*
X160896858Y-88078571D01*
X160682572Y-88078571D01*
X160468287Y-88150000D01*
X160325429Y-88292857D01*
X160254001Y-88435714D01*
X160182572Y-88721429D01*
X160182572Y-88935714D01*
X160254001Y-89221429D01*
X160325429Y-89364286D01*
X160468287Y-89507143D01*
X160682572Y-89578571D01*
X160825429Y-89578571D01*
X161039715Y-89507143D01*
X161111144Y-89435714D01*
X161111144Y-88935714D01*
X160825429Y-88935714D01*
X161754001Y-89578571D02*
X161754001Y-88078571D01*
X162325429Y-88078571D01*
X162468287Y-88150000D01*
X162539715Y-88221429D01*
X162611144Y-88364286D01*
X162611144Y-88578571D01*
X162539715Y-88721429D01*
X162468287Y-88792857D01*
X162325429Y-88864286D01*
X161754001Y-88864286D01*
X163254001Y-89578571D02*
X163254001Y-88078571D01*
X164254001Y-88078571D02*
X164539715Y-88078571D01*
X164682573Y-88150000D01*
X164825430Y-88292857D01*
X164896858Y-88578571D01*
X164896858Y-89078571D01*
X164825430Y-89364286D01*
X164682573Y-89507143D01*
X164539715Y-89578571D01*
X164254001Y-89578571D01*
X164111144Y-89507143D01*
X163968287Y-89364286D01*
X163896858Y-89078571D01*
X163896858Y-88578571D01*
X163968287Y-88292857D01*
X164111144Y-88150000D01*
X164254001Y-88078571D01*
X166682573Y-88792857D02*
X167182573Y-88792857D01*
X167396859Y-89578571D02*
X166682573Y-89578571D01*
X166682573Y-88078571D01*
X167396859Y-88078571D01*
X167896859Y-89578571D02*
X168682573Y-88578571D01*
X167896859Y-88578571D02*
X168682573Y-89578571D01*
X169254002Y-88578571D02*
X169254002Y-90078571D01*
X169254002Y-88650000D02*
X169396859Y-88578571D01*
X169682573Y-88578571D01*
X169825430Y-88650000D01*
X169896859Y-88721429D01*
X169968288Y-88864286D01*
X169968288Y-89292857D01*
X169896859Y-89435714D01*
X169825430Y-89507143D01*
X169682573Y-89578571D01*
X169396859Y-89578571D01*
X169254002Y-89507143D01*
X171254002Y-89578571D02*
X171254002Y-88792857D01*
X171182573Y-88650000D01*
X171039716Y-88578571D01*
X170754002Y-88578571D01*
X170611145Y-88650000D01*
X171254002Y-89507143D02*
X171111145Y-89578571D01*
X170754002Y-89578571D01*
X170611145Y-89507143D01*
X170539716Y-89364286D01*
X170539716Y-89221429D01*
X170611145Y-89078571D01*
X170754002Y-89007143D01*
X171111145Y-89007143D01*
X171254002Y-88935714D01*
X171968288Y-88578571D02*
X171968288Y-89578571D01*
X171968288Y-88721429D02*
X172039716Y-88650000D01*
X172182574Y-88578571D01*
X172396859Y-88578571D01*
X172539716Y-88650000D01*
X172611145Y-88792857D01*
X172611145Y-89578571D01*
X173968288Y-89578571D02*
X173968288Y-88078571D01*
X173968288Y-89507143D02*
X173825431Y-89578571D01*
X173539717Y-89578571D01*
X173396859Y-89507143D01*
X173325431Y-89435714D01*
X173254002Y-89292857D01*
X173254002Y-88864286D01*
X173325431Y-88721429D01*
X173396859Y-88650000D01*
X173539717Y-88578571D01*
X173825431Y-88578571D01*
X173968288Y-88650000D01*
X175254002Y-89507143D02*
X175111145Y-89578571D01*
X174825431Y-89578571D01*
X174682574Y-89507143D01*
X174611145Y-89364286D01*
X174611145Y-88792857D01*
X174682574Y-88650000D01*
X174825431Y-88578571D01*
X175111145Y-88578571D01*
X175254002Y-88650000D01*
X175325431Y-88792857D01*
X175325431Y-88935714D01*
X174611145Y-89078571D01*
X175968288Y-89578571D02*
X175968288Y-88578571D01*
X175968288Y-88864286D02*
X176039716Y-88721429D01*
X176111145Y-88650000D01*
X176254002Y-88578571D01*
X176396859Y-88578571D01*
X204124858Y-79672571D02*
X204124858Y-78172571D01*
X204696286Y-78172571D01*
X204839144Y-78244000D01*
X204910572Y-78315429D01*
X204982001Y-78458286D01*
X204982001Y-78672571D01*
X204910572Y-78815429D01*
X204839144Y-78886857D01*
X204696286Y-78958286D01*
X204124858Y-78958286D01*
X206410572Y-79672571D02*
X205553429Y-79672571D01*
X205982001Y-79672571D02*
X205982001Y-78172571D01*
X205839144Y-78386857D01*
X205696286Y-78529714D01*
X205553429Y-78601143D01*
D10*
X206248000Y-74422000D02*
X206248000Y-76962000D01*
X206528000Y-71602000D02*
X206528000Y-73152000D01*
X206248000Y-74422000D02*
X203708000Y-74422000D01*
X203428000Y-73152000D02*
X203428000Y-71602000D01*
X203428000Y-71602000D02*
X206528000Y-71602000D01*
X203708000Y-74422000D02*
X203708000Y-76962000D01*
X203708000Y-76962000D02*
X206248000Y-76962000D01*
X113284000Y-90424000D02*
X139954000Y-90424000D01*
X139954000Y-90424000D02*
X139954000Y-96774000D01*
X139954000Y-96774000D02*
X113284000Y-96774000D01*
X113284000Y-96774000D02*
X113284000Y-90424000D01*
X145542000Y-90424000D02*
X172212000Y-90424000D01*
X172212000Y-90424000D02*
X172212000Y-96774000D01*
X172212000Y-96774000D02*
X145542000Y-96774000D01*
X145542000Y-96774000D02*
X145542000Y-90424000D01*
X177800000Y-90424000D02*
X204470000Y-90424000D01*
X204470000Y-90424000D02*
X204470000Y-96774000D01*
X204470000Y-96774000D02*
X177800000Y-96774000D01*
X177800000Y-96774000D02*
X177800000Y-90424000D01*
X113284000Y-103124000D02*
X136144000Y-103124000D01*
X136144000Y-103124000D02*
X136144000Y-105664000D01*
X136144000Y-105664000D02*
X113284000Y-105664000D01*
X110464000Y-102844000D02*
X112014000Y-102844000D01*
X113284000Y-103124000D02*
X113284000Y-105664000D01*
X112014000Y-105944000D02*
X110464000Y-105944000D01*
X110464000Y-105944000D02*
X110464000Y-102844000D01*
X113284000Y-112014000D02*
X136144000Y-112014000D01*
X136144000Y-112014000D02*
X136144000Y-114554000D01*
X136144000Y-114554000D02*
X113284000Y-114554000D01*
X110464000Y-111734000D02*
X112014000Y-111734000D01*
X113284000Y-112014000D02*
X113284000Y-114554000D01*
X112014000Y-114834000D02*
X110464000Y-114834000D01*
X110464000Y-114834000D02*
X110464000Y-111734000D01*
X133604000Y-84074000D02*
X110744000Y-84074000D01*
X110744000Y-84074000D02*
X110744000Y-81534000D01*
X110744000Y-81534000D02*
X133604000Y-81534000D01*
X136424000Y-84354000D02*
X134874000Y-84354000D01*
X133604000Y-84074000D02*
X133604000Y-81534000D01*
X134874000Y-81254000D02*
X136424000Y-81254000D01*
X136424000Y-81254000D02*
X136424000Y-84354000D01*
X133604000Y-75184000D02*
X110744000Y-75184000D01*
X110744000Y-75184000D02*
X110744000Y-72644000D01*
X110744000Y-72644000D02*
X133604000Y-72644000D01*
X136424000Y-75464000D02*
X134874000Y-75464000D01*
X133604000Y-75184000D02*
X133604000Y-72644000D01*
X134874000Y-72364000D02*
X136424000Y-72364000D01*
X136424000Y-72364000D02*
X136424000Y-75464000D01*
X145542000Y-103124000D02*
X168402000Y-103124000D01*
X168402000Y-103124000D02*
X168402000Y-105664000D01*
X168402000Y-105664000D02*
X145542000Y-105664000D01*
X142722000Y-102844000D02*
X144272000Y-102844000D01*
X145542000Y-103124000D02*
X145542000Y-105664000D01*
X144272000Y-105944000D02*
X142722000Y-105944000D01*
X142722000Y-105944000D02*
X142722000Y-102844000D01*
X145542000Y-112014000D02*
X168402000Y-112014000D01*
X168402000Y-112014000D02*
X168402000Y-114554000D01*
X168402000Y-114554000D02*
X145542000Y-114554000D01*
X142722000Y-111734000D02*
X144272000Y-111734000D01*
X145542000Y-112014000D02*
X145542000Y-114554000D01*
X144272000Y-114834000D02*
X142722000Y-114834000D01*
X142722000Y-114834000D02*
X142722000Y-111734000D01*
X165862000Y-84074000D02*
X143002000Y-84074000D01*
X143002000Y-84074000D02*
X143002000Y-81534000D01*
X143002000Y-81534000D02*
X165862000Y-81534000D01*
X168682000Y-84354000D02*
X167132000Y-84354000D01*
X165862000Y-84074000D02*
X165862000Y-81534000D01*
X167132000Y-81254000D02*
X168682000Y-81254000D01*
X168682000Y-81254000D02*
X168682000Y-84354000D01*
X165862000Y-75184000D02*
X143002000Y-75184000D01*
X143002000Y-75184000D02*
X143002000Y-72644000D01*
X143002000Y-72644000D02*
X165862000Y-72644000D01*
X168682000Y-75464000D02*
X167132000Y-75464000D01*
X165862000Y-75184000D02*
X165862000Y-72644000D01*
X167132000Y-72364000D02*
X168682000Y-72364000D01*
X168682000Y-72364000D02*
X168682000Y-75464000D01*
X177800000Y-103124000D02*
X200660000Y-103124000D01*
X200660000Y-103124000D02*
X200660000Y-105664000D01*
X200660000Y-105664000D02*
X177800000Y-105664000D01*
X174980000Y-102844000D02*
X176530000Y-102844000D01*
X177800000Y-103124000D02*
X177800000Y-105664000D01*
X176530000Y-105944000D02*
X174980000Y-105944000D01*
X174980000Y-105944000D02*
X174980000Y-102844000D01*
X177800000Y-112014000D02*
X200660000Y-112014000D01*
X200660000Y-112014000D02*
X200660000Y-114554000D01*
X200660000Y-114554000D02*
X177800000Y-114554000D01*
X174980000Y-111734000D02*
X176530000Y-111734000D01*
X177800000Y-112014000D02*
X177800000Y-114554000D01*
X176530000Y-114834000D02*
X174980000Y-114834000D01*
X174980000Y-114834000D02*
X174980000Y-111734000D01*
X198120000Y-84074000D02*
X175260000Y-84074000D01*
X175260000Y-84074000D02*
X175260000Y-81534000D01*
X175260000Y-81534000D02*
X198120000Y-81534000D01*
X200940000Y-84354000D02*
X199390000Y-84354000D01*
X198120000Y-84074000D02*
X198120000Y-81534000D01*
X199390000Y-81254000D02*
X200940000Y-81254000D01*
X200940000Y-81254000D02*
X200940000Y-84354000D01*
X198120000Y-75184000D02*
X175260000Y-75184000D01*
X175260000Y-75184000D02*
X175260000Y-72644000D01*
X175260000Y-72644000D02*
X198120000Y-72644000D01*
X200940000Y-75464000D02*
X199390000Y-75464000D01*
X198120000Y-75184000D02*
X198120000Y-72644000D01*
X199390000Y-72364000D02*
X200940000Y-72364000D01*
X200940000Y-72364000D02*
X200940000Y-75464000D01*
X204239905Y-68504381D02*
X204239905Y-67504381D01*
X204620858Y-67504381D01*
X204716096Y-67552000D01*
X204763715Y-67599619D01*
X204811334Y-67694857D01*
X204811334Y-67837714D01*
X204763715Y-67932952D01*
X204716096Y-67980571D01*
X204620858Y-68028190D01*
X204239905Y-68028190D01*
X205763715Y-68504381D02*
X205192286Y-68504381D01*
X205478000Y-68504381D02*
X205478000Y-67504381D01*
X205382762Y-67647238D01*
X205287524Y-67742476D01*
X205192286Y-67790095D01*
X124817333Y-99416381D02*
X124817333Y-98416381D01*
X125198286Y-98416381D01*
X125293524Y-98464000D01*
X125341143Y-98511619D01*
X125388762Y-98606857D01*
X125388762Y-98749714D01*
X125341143Y-98844952D01*
X125293524Y-98892571D01*
X125198286Y-98940190D01*
X124817333Y-98940190D01*
X125769714Y-99130667D02*
X126245905Y-99130667D01*
X125674476Y-99416381D02*
X126007809Y-98416381D01*
X126341143Y-99416381D01*
X126864952Y-98416381D02*
X126960191Y-98416381D01*
X127055429Y-98464000D01*
X127103048Y-98511619D01*
X127150667Y-98606857D01*
X127198286Y-98797333D01*
X127198286Y-99035429D01*
X127150667Y-99225905D01*
X127103048Y-99321143D01*
X127055429Y-99368762D01*
X126960191Y-99416381D01*
X126864952Y-99416381D01*
X126769714Y-99368762D01*
X126722095Y-99321143D01*
X126674476Y-99225905D01*
X126626857Y-99035429D01*
X126626857Y-98797333D01*
X126674476Y-98606857D01*
X126722095Y-98511619D01*
X126769714Y-98464000D01*
X126864952Y-98416381D01*
X157003905Y-99416381D02*
X157003905Y-98416381D01*
X157384858Y-98416381D01*
X157480096Y-98464000D01*
X157527715Y-98511619D01*
X157575334Y-98606857D01*
X157575334Y-98749714D01*
X157527715Y-98844952D01*
X157480096Y-98892571D01*
X157384858Y-98940190D01*
X157003905Y-98940190D01*
X158337239Y-98892571D02*
X158480096Y-98940190D01*
X158527715Y-98987810D01*
X158575334Y-99083048D01*
X158575334Y-99225905D01*
X158527715Y-99321143D01*
X158480096Y-99368762D01*
X158384858Y-99416381D01*
X158003905Y-99416381D01*
X158003905Y-98416381D01*
X158337239Y-98416381D01*
X158432477Y-98464000D01*
X158480096Y-98511619D01*
X158527715Y-98606857D01*
X158527715Y-98702095D01*
X158480096Y-98797333D01*
X158432477Y-98844952D01*
X158337239Y-98892571D01*
X158003905Y-98892571D01*
X159194381Y-98416381D02*
X159289620Y-98416381D01*
X159384858Y-98464000D01*
X159432477Y-98511619D01*
X159480096Y-98606857D01*
X159527715Y-98797333D01*
X159527715Y-99035429D01*
X159480096Y-99225905D01*
X159432477Y-99321143D01*
X159384858Y-99368762D01*
X159289620Y-99416381D01*
X159194381Y-99416381D01*
X159099143Y-99368762D01*
X159051524Y-99321143D01*
X159003905Y-99225905D01*
X158956286Y-99035429D01*
X158956286Y-98797333D01*
X159003905Y-98606857D01*
X159051524Y-98511619D01*
X159099143Y-98464000D01*
X159194381Y-98416381D01*
X189261905Y-99416381D02*
X189261905Y-98416381D01*
X189642858Y-98416381D01*
X189738096Y-98464000D01*
X189785715Y-98511619D01*
X189833334Y-98606857D01*
X189833334Y-98749714D01*
X189785715Y-98844952D01*
X189738096Y-98892571D01*
X189642858Y-98940190D01*
X189261905Y-98940190D01*
X190833334Y-99321143D02*
X190785715Y-99368762D01*
X190642858Y-99416381D01*
X190547620Y-99416381D01*
X190404762Y-99368762D01*
X190309524Y-99273524D01*
X190261905Y-99178286D01*
X190214286Y-98987810D01*
X190214286Y-98844952D01*
X190261905Y-98654476D01*
X190309524Y-98559238D01*
X190404762Y-98464000D01*
X190547620Y-98416381D01*
X190642858Y-98416381D01*
X190785715Y-98464000D01*
X190833334Y-98511619D01*
X191452381Y-98416381D02*
X191547620Y-98416381D01*
X191642858Y-98464000D01*
X191690477Y-98511619D01*
X191738096Y-98606857D01*
X191785715Y-98797333D01*
X191785715Y-99035429D01*
X191738096Y-99225905D01*
X191690477Y-99321143D01*
X191642858Y-99368762D01*
X191547620Y-99416381D01*
X191452381Y-99416381D01*
X191357143Y-99368762D01*
X191309524Y-99321143D01*
X191261905Y-99225905D01*
X191214286Y-99035429D01*
X191214286Y-98797333D01*
X191261905Y-98606857D01*
X191309524Y-98511619D01*
X191357143Y-98464000D01*
X191452381Y-98416381D01*
X107366381Y-105560667D02*
X106366381Y-105560667D01*
X106366381Y-105179714D01*
X106414000Y-105084476D01*
X106461619Y-105036857D01*
X106556857Y-104989238D01*
X106699714Y-104989238D01*
X106794952Y-105036857D01*
X106842571Y-105084476D01*
X106890190Y-105179714D01*
X106890190Y-105560667D01*
X107080667Y-104608286D02*
X107080667Y-104132095D01*
X107366381Y-104703524D02*
X106366381Y-104370191D01*
X107366381Y-104036857D01*
X107366381Y-103179714D02*
X107366381Y-103751143D01*
X107366381Y-103465429D02*
X106366381Y-103465429D01*
X106509238Y-103560667D01*
X106604476Y-103655905D01*
X106652095Y-103751143D01*
X107366381Y-114450667D02*
X106366381Y-114450667D01*
X106366381Y-114069714D01*
X106414000Y-113974476D01*
X106461619Y-113926857D01*
X106556857Y-113879238D01*
X106699714Y-113879238D01*
X106794952Y-113926857D01*
X106842571Y-113974476D01*
X106890190Y-114069714D01*
X106890190Y-114450667D01*
X107080667Y-113498286D02*
X107080667Y-113022095D01*
X107366381Y-113593524D02*
X106366381Y-113260191D01*
X107366381Y-112926857D01*
X106461619Y-112641143D02*
X106414000Y-112593524D01*
X106366381Y-112498286D01*
X106366381Y-112260190D01*
X106414000Y-112164952D01*
X106461619Y-112117333D01*
X106556857Y-112069714D01*
X106652095Y-112069714D01*
X106794952Y-112117333D01*
X107366381Y-112688762D01*
X107366381Y-112069714D01*
X140426381Y-83970667D02*
X139426381Y-83970667D01*
X139426381Y-83589714D01*
X139474000Y-83494476D01*
X139521619Y-83446857D01*
X139616857Y-83399238D01*
X139759714Y-83399238D01*
X139854952Y-83446857D01*
X139902571Y-83494476D01*
X139950190Y-83589714D01*
X139950190Y-83970667D01*
X140140667Y-83018286D02*
X140140667Y-82542095D01*
X140426381Y-83113524D02*
X139426381Y-82780191D01*
X140426381Y-82446857D01*
X139426381Y-82208762D02*
X139426381Y-81589714D01*
X139807333Y-81923048D01*
X139807333Y-81780190D01*
X139854952Y-81684952D01*
X139902571Y-81637333D01*
X139997810Y-81589714D01*
X140235905Y-81589714D01*
X140331143Y-81637333D01*
X140378762Y-81684952D01*
X140426381Y-81780190D01*
X140426381Y-82065905D01*
X140378762Y-82161143D01*
X140331143Y-82208762D01*
X140426381Y-75080667D02*
X139426381Y-75080667D01*
X139426381Y-74699714D01*
X139474000Y-74604476D01*
X139521619Y-74556857D01*
X139616857Y-74509238D01*
X139759714Y-74509238D01*
X139854952Y-74556857D01*
X139902571Y-74604476D01*
X139950190Y-74699714D01*
X139950190Y-75080667D01*
X140140667Y-74128286D02*
X140140667Y-73652095D01*
X140426381Y-74223524D02*
X139426381Y-73890191D01*
X140426381Y-73556857D01*
X139759714Y-72794952D02*
X140426381Y-72794952D01*
X139378762Y-73033048D02*
X140093048Y-73271143D01*
X140093048Y-72652095D01*
X139624381Y-105632095D02*
X138624381Y-105632095D01*
X138624381Y-105251142D01*
X138672000Y-105155904D01*
X138719619Y-105108285D01*
X138814857Y-105060666D01*
X138957714Y-105060666D01*
X139052952Y-105108285D01*
X139100571Y-105155904D01*
X139148190Y-105251142D01*
X139148190Y-105632095D01*
X139100571Y-104298761D02*
X139148190Y-104155904D01*
X139195810Y-104108285D01*
X139291048Y-104060666D01*
X139433905Y-104060666D01*
X139529143Y-104108285D01*
X139576762Y-104155904D01*
X139624381Y-104251142D01*
X139624381Y-104632095D01*
X138624381Y-104632095D01*
X138624381Y-104298761D01*
X138672000Y-104203523D01*
X138719619Y-104155904D01*
X138814857Y-104108285D01*
X138910095Y-104108285D01*
X139005333Y-104155904D01*
X139052952Y-104203523D01*
X139100571Y-104298761D01*
X139100571Y-104632095D01*
X139624381Y-103108285D02*
X139624381Y-103679714D01*
X139624381Y-103394000D02*
X138624381Y-103394000D01*
X138767238Y-103489238D01*
X138862476Y-103584476D01*
X138910095Y-103679714D01*
X139624381Y-114522095D02*
X138624381Y-114522095D01*
X138624381Y-114141142D01*
X138672000Y-114045904D01*
X138719619Y-113998285D01*
X138814857Y-113950666D01*
X138957714Y-113950666D01*
X139052952Y-113998285D01*
X139100571Y-114045904D01*
X139148190Y-114141142D01*
X139148190Y-114522095D01*
X139100571Y-113188761D02*
X139148190Y-113045904D01*
X139195810Y-112998285D01*
X139291048Y-112950666D01*
X139433905Y-112950666D01*
X139529143Y-112998285D01*
X139576762Y-113045904D01*
X139624381Y-113141142D01*
X139624381Y-113522095D01*
X138624381Y-113522095D01*
X138624381Y-113188761D01*
X138672000Y-113093523D01*
X138719619Y-113045904D01*
X138814857Y-112998285D01*
X138910095Y-112998285D01*
X139005333Y-113045904D01*
X139052952Y-113093523D01*
X139100571Y-113188761D01*
X139100571Y-113522095D01*
X138719619Y-112569714D02*
X138672000Y-112522095D01*
X138624381Y-112426857D01*
X138624381Y-112188761D01*
X138672000Y-112093523D01*
X138719619Y-112045904D01*
X138814857Y-111998285D01*
X138910095Y-111998285D01*
X139052952Y-112045904D01*
X139624381Y-112617333D01*
X139624381Y-111998285D01*
X172684381Y-84042095D02*
X171684381Y-84042095D01*
X171684381Y-83661142D01*
X171732000Y-83565904D01*
X171779619Y-83518285D01*
X171874857Y-83470666D01*
X172017714Y-83470666D01*
X172112952Y-83518285D01*
X172160571Y-83565904D01*
X172208190Y-83661142D01*
X172208190Y-84042095D01*
X172160571Y-82708761D02*
X172208190Y-82565904D01*
X172255810Y-82518285D01*
X172351048Y-82470666D01*
X172493905Y-82470666D01*
X172589143Y-82518285D01*
X172636762Y-82565904D01*
X172684381Y-82661142D01*
X172684381Y-83042095D01*
X171684381Y-83042095D01*
X171684381Y-82708761D01*
X171732000Y-82613523D01*
X171779619Y-82565904D01*
X171874857Y-82518285D01*
X171970095Y-82518285D01*
X172065333Y-82565904D01*
X172112952Y-82613523D01*
X172160571Y-82708761D01*
X172160571Y-83042095D01*
X171684381Y-82137333D02*
X171684381Y-81518285D01*
X172065333Y-81851619D01*
X172065333Y-81708761D01*
X172112952Y-81613523D01*
X172160571Y-81565904D01*
X172255810Y-81518285D01*
X172493905Y-81518285D01*
X172589143Y-81565904D01*
X172636762Y-81613523D01*
X172684381Y-81708761D01*
X172684381Y-81994476D01*
X172636762Y-82089714D01*
X172589143Y-82137333D01*
X172684381Y-75152095D02*
X171684381Y-75152095D01*
X171684381Y-74771142D01*
X171732000Y-74675904D01*
X171779619Y-74628285D01*
X171874857Y-74580666D01*
X172017714Y-74580666D01*
X172112952Y-74628285D01*
X172160571Y-74675904D01*
X172208190Y-74771142D01*
X172208190Y-75152095D01*
X172160571Y-73818761D02*
X172208190Y-73675904D01*
X172255810Y-73628285D01*
X172351048Y-73580666D01*
X172493905Y-73580666D01*
X172589143Y-73628285D01*
X172636762Y-73675904D01*
X172684381Y-73771142D01*
X172684381Y-74152095D01*
X171684381Y-74152095D01*
X171684381Y-73818761D01*
X171732000Y-73723523D01*
X171779619Y-73675904D01*
X171874857Y-73628285D01*
X171970095Y-73628285D01*
X172065333Y-73675904D01*
X172112952Y-73723523D01*
X172160571Y-73818761D01*
X172160571Y-74152095D01*
X172017714Y-72723523D02*
X172684381Y-72723523D01*
X171636762Y-72961619D02*
X172351048Y-73199714D01*
X172351048Y-72580666D01*
X171882381Y-105632095D02*
X170882381Y-105632095D01*
X170882381Y-105251142D01*
X170930000Y-105155904D01*
X170977619Y-105108285D01*
X171072857Y-105060666D01*
X171215714Y-105060666D01*
X171310952Y-105108285D01*
X171358571Y-105155904D01*
X171406190Y-105251142D01*
X171406190Y-105632095D01*
X171787143Y-104060666D02*
X171834762Y-104108285D01*
X171882381Y-104251142D01*
X171882381Y-104346380D01*
X171834762Y-104489238D01*
X171739524Y-104584476D01*
X171644286Y-104632095D01*
X171453810Y-104679714D01*
X171310952Y-104679714D01*
X171120476Y-104632095D01*
X171025238Y-104584476D01*
X170930000Y-104489238D01*
X170882381Y-104346380D01*
X170882381Y-104251142D01*
X170930000Y-104108285D01*
X170977619Y-104060666D01*
X171882381Y-103108285D02*
X171882381Y-103679714D01*
X171882381Y-103394000D02*
X170882381Y-103394000D01*
X171025238Y-103489238D01*
X171120476Y-103584476D01*
X171168095Y-103679714D01*
X171882381Y-114522095D02*
X170882381Y-114522095D01*
X170882381Y-114141142D01*
X170930000Y-114045904D01*
X170977619Y-113998285D01*
X171072857Y-113950666D01*
X171215714Y-113950666D01*
X171310952Y-113998285D01*
X171358571Y-114045904D01*
X171406190Y-114141142D01*
X171406190Y-114522095D01*
X171787143Y-112950666D02*
X171834762Y-112998285D01*
X171882381Y-113141142D01*
X171882381Y-113236380D01*
X171834762Y-113379238D01*
X171739524Y-113474476D01*
X171644286Y-113522095D01*
X171453810Y-113569714D01*
X171310952Y-113569714D01*
X171120476Y-113522095D01*
X171025238Y-113474476D01*
X170930000Y-113379238D01*
X170882381Y-113236380D01*
X170882381Y-113141142D01*
X170930000Y-112998285D01*
X170977619Y-112950666D01*
X170977619Y-112569714D02*
X170930000Y-112522095D01*
X170882381Y-112426857D01*
X170882381Y-112188761D01*
X170930000Y-112093523D01*
X170977619Y-112045904D01*
X171072857Y-111998285D01*
X171168095Y-111998285D01*
X171310952Y-112045904D01*
X171882381Y-112617333D01*
X171882381Y-111998285D01*
X204942381Y-84042095D02*
X203942381Y-84042095D01*
X203942381Y-83661142D01*
X203990000Y-83565904D01*
X204037619Y-83518285D01*
X204132857Y-83470666D01*
X204275714Y-83470666D01*
X204370952Y-83518285D01*
X204418571Y-83565904D01*
X204466190Y-83661142D01*
X204466190Y-84042095D01*
X204847143Y-82470666D02*
X204894762Y-82518285D01*
X204942381Y-82661142D01*
X204942381Y-82756380D01*
X204894762Y-82899238D01*
X204799524Y-82994476D01*
X204704286Y-83042095D01*
X204513810Y-83089714D01*
X204370952Y-83089714D01*
X204180476Y-83042095D01*
X204085238Y-82994476D01*
X203990000Y-82899238D01*
X203942381Y-82756380D01*
X203942381Y-82661142D01*
X203990000Y-82518285D01*
X204037619Y-82470666D01*
X203942381Y-82137333D02*
X203942381Y-81518285D01*
X204323333Y-81851619D01*
X204323333Y-81708761D01*
X204370952Y-81613523D01*
X204418571Y-81565904D01*
X204513810Y-81518285D01*
X204751905Y-81518285D01*
X204847143Y-81565904D01*
X204894762Y-81613523D01*
X204942381Y-81708761D01*
X204942381Y-81994476D01*
X204894762Y-82089714D01*
X204847143Y-82137333D01*
X204942381Y-75152095D02*
X203942381Y-75152095D01*
X203942381Y-74771142D01*
X203990000Y-74675904D01*
X204037619Y-74628285D01*
X204132857Y-74580666D01*
X204275714Y-74580666D01*
X204370952Y-74628285D01*
X204418571Y-74675904D01*
X204466190Y-74771142D01*
X204466190Y-75152095D01*
X204847143Y-73580666D02*
X204894762Y-73628285D01*
X204942381Y-73771142D01*
X204942381Y-73866380D01*
X204894762Y-74009238D01*
X204799524Y-74104476D01*
X204704286Y-74152095D01*
X204513810Y-74199714D01*
X204370952Y-74199714D01*
X204180476Y-74152095D01*
X204085238Y-74104476D01*
X203990000Y-74009238D01*
X203942381Y-73866380D01*
X203942381Y-73771142D01*
X203990000Y-73628285D01*
X204037619Y-73580666D01*
X204275714Y-72723523D02*
X204942381Y-72723523D01*
X203894762Y-72961619D02*
X204609048Y-73199714D01*
X204609048Y-72580666D01*
M02*
