G04 #@! TF.FileFunction,Copper,L2,Bot,Signal*
%FSLAX46Y46*%
G04 Gerber Fmt 4.6, Leading zero omitted, Abs format (unit mm)*
G04 Created by KiCad (PCBNEW 4.0.0-rc2-stable) date Fri 13 Nov 2015 02:52:16 PM MST*
%MOMM*%
G01*
G04 APERTURE LIST*
%ADD10C,0.150000*%
%ADD11R,2.032000X2.032000*%
%ADD12O,2.032000X2.032000*%
%ADD13R,1.727200X2.032000*%
%ADD14O,1.727200X2.032000*%
%ADD15C,0.508000*%
G04 APERTURE END LIST*
D10*
D11*
X204978000Y-73152000D03*
D12*
X204978000Y-75692000D03*
D13*
X112014000Y-104394000D03*
D14*
X114554000Y-104394000D03*
X117094000Y-104394000D03*
X119634000Y-104394000D03*
X122174000Y-104394000D03*
X124714000Y-104394000D03*
X127254000Y-104394000D03*
X129794000Y-104394000D03*
X132334000Y-104394000D03*
X134874000Y-104394000D03*
D13*
X112014000Y-113284000D03*
D14*
X114554000Y-113284000D03*
X117094000Y-113284000D03*
X119634000Y-113284000D03*
X122174000Y-113284000D03*
X124714000Y-113284000D03*
X127254000Y-113284000D03*
X129794000Y-113284000D03*
X132334000Y-113284000D03*
X134874000Y-113284000D03*
D13*
X134874000Y-82804000D03*
D14*
X132334000Y-82804000D03*
X129794000Y-82804000D03*
X127254000Y-82804000D03*
X124714000Y-82804000D03*
X122174000Y-82804000D03*
X119634000Y-82804000D03*
X117094000Y-82804000D03*
X114554000Y-82804000D03*
X112014000Y-82804000D03*
D13*
X134874000Y-73914000D03*
D14*
X132334000Y-73914000D03*
X129794000Y-73914000D03*
X127254000Y-73914000D03*
X124714000Y-73914000D03*
X122174000Y-73914000D03*
X119634000Y-73914000D03*
X117094000Y-73914000D03*
X114554000Y-73914000D03*
X112014000Y-73914000D03*
D13*
X144272000Y-104394000D03*
D14*
X146812000Y-104394000D03*
X149352000Y-104394000D03*
X151892000Y-104394000D03*
X154432000Y-104394000D03*
X156972000Y-104394000D03*
X159512000Y-104394000D03*
X162052000Y-104394000D03*
X164592000Y-104394000D03*
X167132000Y-104394000D03*
D13*
X144272000Y-113284000D03*
D14*
X146812000Y-113284000D03*
X149352000Y-113284000D03*
X151892000Y-113284000D03*
X154432000Y-113284000D03*
X156972000Y-113284000D03*
X159512000Y-113284000D03*
X162052000Y-113284000D03*
X164592000Y-113284000D03*
X167132000Y-113284000D03*
D13*
X167132000Y-82804000D03*
D14*
X164592000Y-82804000D03*
X162052000Y-82804000D03*
X159512000Y-82804000D03*
X156972000Y-82804000D03*
X154432000Y-82804000D03*
X151892000Y-82804000D03*
X149352000Y-82804000D03*
X146812000Y-82804000D03*
X144272000Y-82804000D03*
D13*
X167132000Y-73914000D03*
D14*
X164592000Y-73914000D03*
X162052000Y-73914000D03*
X159512000Y-73914000D03*
X156972000Y-73914000D03*
X154432000Y-73914000D03*
X151892000Y-73914000D03*
X149352000Y-73914000D03*
X146812000Y-73914000D03*
X144272000Y-73914000D03*
D13*
X176530000Y-104394000D03*
D14*
X179070000Y-104394000D03*
X181610000Y-104394000D03*
X184150000Y-104394000D03*
X186690000Y-104394000D03*
X189230000Y-104394000D03*
X191770000Y-104394000D03*
X194310000Y-104394000D03*
X196850000Y-104394000D03*
X199390000Y-104394000D03*
D13*
X176530000Y-113284000D03*
D14*
X179070000Y-113284000D03*
X181610000Y-113284000D03*
X184150000Y-113284000D03*
X186690000Y-113284000D03*
X189230000Y-113284000D03*
X191770000Y-113284000D03*
X194310000Y-113284000D03*
X196850000Y-113284000D03*
X199390000Y-113284000D03*
D13*
X199390000Y-82804000D03*
D14*
X196850000Y-82804000D03*
X194310000Y-82804000D03*
X191770000Y-82804000D03*
X189230000Y-82804000D03*
X186690000Y-82804000D03*
X184150000Y-82804000D03*
X181610000Y-82804000D03*
X179070000Y-82804000D03*
X176530000Y-82804000D03*
D13*
X199390000Y-73914000D03*
D14*
X196850000Y-73914000D03*
X194310000Y-73914000D03*
X191770000Y-73914000D03*
X189230000Y-73914000D03*
X186690000Y-73914000D03*
X184150000Y-73914000D03*
X181610000Y-73914000D03*
X179070000Y-73914000D03*
X176530000Y-73914000D03*
D15*
X199390000Y-78232000D02*
X202438000Y-78232000D01*
X202438000Y-78232000D02*
X204978000Y-75692000D01*
X144272000Y-108712000D02*
X176276000Y-108712000D01*
X176276000Y-108712000D02*
X176530000Y-108966000D01*
X176530000Y-104394000D02*
X176530000Y-108966000D01*
X176530000Y-108966000D02*
X176530000Y-113284000D01*
X144272000Y-108712000D02*
X112014000Y-108712000D01*
X112014000Y-108712000D02*
X112268000Y-108712000D01*
X112268000Y-108712000D02*
X112014000Y-108712000D01*
X144272000Y-104394000D02*
X144272000Y-108712000D01*
X144272000Y-108712000D02*
X144272000Y-108966000D01*
X144272000Y-108966000D02*
X144272000Y-113284000D01*
X134874000Y-82804000D02*
X134874000Y-94996000D01*
X134874000Y-94996000D02*
X144272000Y-104394000D01*
X167132000Y-78232000D02*
X134874000Y-78232000D01*
X167132000Y-78232000D02*
X167132000Y-82804000D01*
X167386000Y-78232000D02*
X167132000Y-78232000D01*
X199390000Y-78232000D02*
X167386000Y-78232000D01*
X167132000Y-78232000D02*
X167132000Y-73914000D01*
X199390000Y-73914000D02*
X199390000Y-78232000D01*
X199390000Y-78232000D02*
X199390000Y-82804000D01*
X134874000Y-73914000D02*
X134874000Y-78232000D01*
X134874000Y-78232000D02*
X134874000Y-82804000D01*
X112014000Y-104394000D02*
X112014000Y-108712000D01*
X112014000Y-108712000D02*
X112014000Y-108966000D01*
X112014000Y-108966000D02*
X112014000Y-113284000D01*
X199390000Y-113284000D02*
X199390000Y-114046000D01*
X199390000Y-114046000D02*
X198374000Y-115062000D01*
X168148000Y-115062000D02*
X167132000Y-114046000D01*
X198374000Y-115062000D02*
X168148000Y-115062000D01*
X167132000Y-114046000D02*
X167132000Y-113284000D01*
X167132000Y-113284000D02*
X167132000Y-113792000D01*
X167132000Y-113792000D02*
X165862000Y-115062000D01*
X136652000Y-115062000D02*
X134874000Y-113284000D01*
X165862000Y-115062000D02*
X136652000Y-115062000D01*
X167132000Y-113284000D02*
X167132000Y-114046000D01*
X199390000Y-104394000D02*
X199390000Y-102616000D01*
X167132000Y-102616000D02*
X167132000Y-104394000D01*
X168656000Y-101092000D02*
X167132000Y-102616000D01*
X197866000Y-101092000D02*
X168656000Y-101092000D01*
X199390000Y-102616000D02*
X197866000Y-101092000D01*
X199390000Y-104394000D02*
X199390000Y-113284000D01*
X199390000Y-104394000D02*
X199390000Y-85344000D01*
X199390000Y-85344000D02*
X199644000Y-85344000D01*
X199644000Y-85344000D02*
X199390000Y-85344000D01*
X176530000Y-82804000D02*
X176530000Y-84074000D01*
X206756000Y-74930000D02*
X204978000Y-73152000D01*
X206756000Y-81788000D02*
X206756000Y-74930000D01*
X203200000Y-85344000D02*
X206756000Y-81788000D01*
X177800000Y-85344000D02*
X199390000Y-85344000D01*
X199390000Y-85344000D02*
X203200000Y-85344000D01*
X176530000Y-84074000D02*
X177800000Y-85344000D01*
X176530000Y-73914000D02*
X176530000Y-73406000D01*
X176530000Y-73406000D02*
X177800000Y-72136000D01*
X177800000Y-72136000D02*
X203962000Y-72136000D01*
X203962000Y-72136000D02*
X204978000Y-73152000D01*
X176530000Y-82804000D02*
X176530000Y-83566000D01*
X144272000Y-73914000D02*
X144272000Y-73660000D01*
X144272000Y-73660000D02*
X145796000Y-72136000D01*
X174752000Y-72136000D02*
X176530000Y-73914000D01*
X145796000Y-72136000D02*
X174752000Y-72136000D01*
X176530000Y-82804000D02*
X176530000Y-83820000D01*
X176530000Y-83820000D02*
X175006000Y-85344000D01*
X175006000Y-85344000D02*
X146812000Y-85344000D01*
X146812000Y-85344000D02*
X144272000Y-82804000D01*
X112014000Y-82804000D02*
X112014000Y-97536000D01*
X130556000Y-100076000D02*
X134874000Y-104394000D01*
X114554000Y-100076000D02*
X130556000Y-100076000D01*
X112014000Y-97536000D02*
X114554000Y-100076000D01*
X112014000Y-73914000D02*
X112014000Y-82804000D01*
X144272000Y-73914000D02*
X144272000Y-73406000D01*
X144272000Y-73406000D02*
X143002000Y-72136000D01*
X143002000Y-72136000D02*
X113792000Y-72136000D01*
X113792000Y-72136000D02*
X112014000Y-73914000D01*
M02*
