M48
INCH,TZ
T1C0.040
%
G90
G05
T1
X44100Y-29100
X44100Y-32600
X44100Y-41100
X44100Y-44600
X45100Y-29100
X45100Y-32600
X45100Y-41100
X45100Y-44600
X46100Y-29100
X46100Y-32600
X46100Y-41100
X46100Y-44600
X47100Y-29100
X47100Y-32600
X47100Y-41100
X47100Y-44600
X48100Y-29100
X48100Y-32600
X48100Y-41100
X48100Y-44600
X49100Y-29100
X49100Y-32600
X49100Y-41100
X49100Y-44600
X50100Y-29100
X50100Y-32600
X50100Y-41100
X50100Y-44600
X51100Y-29100
X51100Y-32600
X51100Y-41100
X51100Y-44600
X52100Y-29100
X52100Y-32600
X52100Y-41100
X52100Y-44600
X53100Y-29100
X53100Y-32600
X53100Y-41100
X53100Y-44600
X56800Y-29100
X56800Y-32600
X56800Y-41100
X56800Y-44600
X57800Y-29100
X57800Y-32600
X57800Y-41100
X57800Y-44600
X58800Y-29100
X58800Y-32600
X58800Y-41100
X58800Y-44600
X59800Y-29100
X59800Y-32600
X59800Y-41100
X59800Y-44600
X60800Y-29100
X60800Y-32600
X60800Y-41100
X60800Y-44600
X61800Y-29100
X61800Y-32600
X61800Y-41100
X61800Y-44600
X62800Y-29100
X62800Y-32600
X62800Y-41100
X62800Y-44600
X63800Y-29100
X63800Y-32600
X63800Y-41100
X63800Y-44600
X64800Y-29100
X64800Y-32600
X64800Y-41100
X64800Y-44600
X65800Y-29100
X65800Y-32600
X65800Y-41100
X65800Y-44600
X69500Y-29100
X69500Y-32600
X69500Y-41100
X69500Y-44600
X70500Y-29100
X70500Y-32600
X70500Y-41100
X70500Y-44600
X71500Y-29100
X71500Y-32600
X71500Y-41100
X71500Y-44600
X72500Y-29100
X72500Y-32600
X72500Y-41100
X72500Y-44600
X73500Y-29100
X73500Y-32600
X73500Y-41100
X73500Y-44600
X74500Y-29100
X74500Y-32600
X74500Y-41100
X74500Y-44600
X75500Y-29100
X75500Y-32600
X75500Y-41100
X75500Y-44600
X76500Y-29100
X76500Y-32600
X76500Y-41100
X76500Y-44600
X77500Y-29100
X77500Y-32600
X77500Y-41100
X77500Y-44600
X78500Y-29100
X78500Y-32600
X78500Y-41100
X78500Y-44600
X80700Y-28800
X80700Y-29800
T0
M30
