M48
;DRILL file {KiCad 4.0.0-rc2-stable} date Fri 13 Nov 2015 01:32:02 PM MST
;FORMAT={-:-/ absolute / inch / decimal}
FMAT,2
INCH,TZ
T1C0.040
%
G90
G05
M72
T1
X4.41Y-2.91
X4.41Y-3.26
X4.41Y-4.11
X4.41Y-4.46
X4.51Y-2.91
X4.51Y-3.26
X4.51Y-4.11
X4.51Y-4.46
X4.61Y-2.91
X4.61Y-3.26
X4.61Y-4.11
X4.61Y-4.46
X4.71Y-2.91
X4.71Y-3.26
X4.71Y-4.11
X4.71Y-4.46
X4.81Y-2.91
X4.81Y-3.26
X4.81Y-4.11
X4.81Y-4.46
X4.91Y-2.91
X4.91Y-3.26
X4.91Y-4.11
X4.91Y-4.46
X5.01Y-2.91
X5.01Y-3.26
X5.01Y-4.11
X5.01Y-4.46
X5.11Y-2.91
X5.11Y-3.26
X5.11Y-4.11
X5.11Y-4.46
X5.21Y-2.91
X5.21Y-3.26
X5.21Y-4.11
X5.21Y-4.46
X5.31Y-2.91
X5.31Y-3.26
X5.31Y-4.11
X5.31Y-4.46
X5.68Y-2.91
X5.68Y-3.26
X5.68Y-4.11
X5.68Y-4.46
X5.78Y-2.91
X5.78Y-3.26
X5.78Y-4.11
X5.78Y-4.46
X5.88Y-2.91
X5.88Y-3.26
X5.88Y-4.11
X5.88Y-4.46
X5.98Y-2.91
X5.98Y-3.26
X5.98Y-4.11
X5.98Y-4.46
X6.08Y-2.91
X6.08Y-3.26
X6.08Y-4.11
X6.08Y-4.46
X6.18Y-2.91
X6.18Y-3.26
X6.18Y-4.11
X6.18Y-4.46
X6.28Y-2.91
X6.28Y-3.26
X6.28Y-4.11
X6.28Y-4.46
X6.38Y-2.91
X6.38Y-3.26
X6.38Y-4.11
X6.38Y-4.46
X6.48Y-2.91
X6.48Y-3.26
X6.48Y-4.11
X6.48Y-4.46
X6.58Y-2.91
X6.58Y-3.26
X6.58Y-4.11
X6.58Y-4.46
X6.95Y-2.91
X6.95Y-3.26
X6.95Y-4.11
X6.95Y-4.46
X7.05Y-2.91
X7.05Y-3.26
X7.05Y-4.11
X7.05Y-4.46
X7.15Y-2.91
X7.15Y-3.26
X7.15Y-4.11
X7.15Y-4.46
X7.25Y-2.91
X7.25Y-3.26
X7.25Y-4.11
X7.25Y-4.46
X7.35Y-2.91
X7.35Y-3.26
X7.35Y-4.11
X7.35Y-4.46
X7.45Y-2.91
X7.45Y-3.26
X7.45Y-4.11
X7.45Y-4.46
X7.55Y-2.91
X7.55Y-3.26
X7.55Y-4.11
X7.55Y-4.46
X7.65Y-2.91
X7.65Y-3.26
X7.65Y-4.11
X7.65Y-4.46
X7.75Y-2.91
X7.75Y-3.26
X7.75Y-4.11
X7.75Y-4.46
X7.85Y-2.91
X7.85Y-3.26
X7.85Y-4.11
X7.85Y-4.46
X8.07Y-2.88
X8.07Y-2.98
T0
M30
